<svg width="48" height="49" viewBox="0 0 48 49" fill="none" xmlns="http://www.w3.org/2000/svg">
<rect x="0.5" y="1.125" width="47" height="47" rx="23.5" fill="white"/>
<rect x="0.5" y="1.125" width="47" height="47" rx="23.5" stroke="#E4E4E2"/>
<path fill-rule="evenodd" clip-rule="evenodd" d="M18.2929 18.9179C18.6834 18.5274 19.3166 18.5274 19.7071 18.9179L24 23.2108L28.2929 18.9179C28.6834 18.5274 29.3166 18.5274 29.7071 18.9179C30.0976 19.3084 30.0976 19.9416 29.7071 20.3321L25.4142 24.625L29.7071 28.9179C30.0976 29.3084 30.0976 29.9416 29.7071 30.3321C29.3166 30.7226 28.6834 30.7226 28.2929 30.3321L24 26.0392L19.7071 30.3321C19.3166 30.7226 18.6834 30.7226 18.2929 30.3321C17.9024 29.9416 17.9024 29.3084 18.2929 28.9179L22.5858 24.625L18.2929 20.3321C17.9024 19.9416 17.9024 19.3084 18.2929 18.9179Z" fill="#003B70"/>
</svg>
