<svg width="24" height="24" viewBox="0 0 24 24" fill="none" xmlns="http://www.w3.org/2000/svg">
<path fill-rule="evenodd" clip-rule="evenodd" d="M12 4C8.13401 4 5 7.13401 5 11V13.5312C5 14.0835 4.55228 14.5312 4 14.5312C3.44772 14.5312 3 14.0835 3 13.5312V11C3 6.02944 7.02944 2 12 2C16.9706 2 21 6.02944 21 11V14C21 14.5523 20.5523 15 20 15C19.4477 15 19 14.5523 19 14V11C19 7.13401 15.866 4 12 4Z" fill="#1C1C17"/>
<path fill-rule="evenodd" clip-rule="evenodd" d="M15 12.9549C15 11.3158 16.3156 9.98008 17.9546 9.95525C19.629 9.92988 21 11.2803 21 12.9549V15.0451C21 16.7198 19.629 18.0701 17.9546 18.0448C16.3156 18.0199 15 16.6843 15 15.0451V12.9549ZM19 12.9549V15.0451C19 15.6033 18.543 16.0535 17.9848 16.045C17.4385 16.0367 17 15.5915 17 15.0451V12.9549C17 12.4085 17.4385 11.9633 17.9848 11.955C18.543 11.9466 19 12.3967 19 12.9549Z" fill="#1C1C17"/>
<path fill-rule="evenodd" clip-rule="evenodd" d="M3 12.9549C3 11.2803 4.37101 9.92988 6.04545 9.95525C7.68439 9.98008 9 11.3158 9 12.9549V15.0451C9 16.6843 7.68439 18.0199 6.04545 18.0448C4.37101 18.0701 3 16.7198 3 15.0451V12.9549ZM7 12.9549V15.0451C7 15.5915 6.56146 16.0367 6.01515 16.045C5.457 16.0535 5 15.6033 5 15.0451V12.9549C5 12.3967 5.457 11.9466 6.01515 11.955C6.56146 11.9633 7 12.4085 7 12.9549Z" fill="#1C1C17"/>
<path fill-rule="evenodd" clip-rule="evenodd" d="M7 16.5V17.5C7 18.6046 7.89543 19.5 9 19.5H12V21.5H9C6.79086 21.5 5 19.7091 5 17.5V16.5H7Z" fill="#1C1C17"/>
<path d="M10 20.5C10 19.6716 10.6716 19 11.5 19H12.5C13.3284 19 14 19.6716 14 20.5C14 21.3284 13.3284 22 12.5 22H11.5C10.6716 22 10 21.3284 10 20.5Z" fill="#1C1C17"/>
</svg>
