<svg width="24" height="25" viewBox="0 0 24 25" fill="none" xmlns="http://www.w3.org/2000/svg">
<path fill-rule="evenodd" clip-rule="evenodd" d="M2 12.1875C2 7.47345 2 5.11643 3.46447 3.65197C4.92893 2.1875 7.28595 2.1875 12 2.1875C16.714 2.1875 19.0711 2.1875 20.5355 3.65197C22 5.11643 22 7.47345 22 12.1875C22 16.9015 22 19.2586 20.5355 20.723C19.0711 22.1875 16.714 22.1875 12 22.1875C7.28595 22.1875 4.92893 22.1875 3.46447 20.723C2 19.2586 2 16.9015 2 12.1875ZM10.8484 13.4046L15.1392 8.55393H15.2082C15.3029 8.44081 15.4172 8.35009 15.5441 8.28717C15.671 8.22424 15.808 8.19041 15.947 8.18768C16.0859 8.18495 16.2239 8.21339 16.3528 8.27129C16.4816 8.32919 16.5987 8.41538 16.6969 8.5247C16.7952 8.63402 16.8726 8.76425 16.9247 8.9076C16.9767 9.05096 17.0023 9.2045 16.9998 9.35909C16.9974 9.51367 16.967 9.66612 16.9104 9.80734C16.8539 9.94856 16.7723 10.0757 16.6707 10.1811L11.5796 15.8453C11.4841 15.953 11.3702 16.0383 11.2446 16.0963C11.1191 16.1543 10.9844 16.1838 10.8484 16.1831C10.7052 16.1973 10.561 16.1773 10.4253 16.1243C10.2897 16.0713 10.1658 15.9867 10.062 15.876L7.30262 12.806C7.10884 12.5901 7 12.2975 7 11.9924C7 11.6873 7.10884 11.3947 7.30262 11.1788C7.39774 11.0702 7.51145 10.9839 7.63704 10.925C7.76262 10.866 7.89755 10.8356 8.03385 10.8356C8.17015 10.8356 8.30508 10.866 8.43066 10.925C8.55625 10.9839 8.66996 11.0702 8.76508 11.1788L10.8484 13.4046Z" fill="#33628D"/>
</svg>
