<svg width="24" height="25" viewBox="0 0 24 25" fill="none" xmlns="http://www.w3.org/2000/svg">
<path fill-rule="evenodd" clip-rule="evenodd" d="M6.29289 6.91789C6.68342 6.52737 7.31658 6.52737 7.70711 6.91789L12 11.2108L16.2929 6.91789C16.6834 6.52737 17.3166 6.52737 17.7071 6.91789C18.0976 7.30842 18.0976 7.94158 17.7071 8.33211L13.4142 12.625L17.7071 16.9179C18.0976 17.3084 18.0976 17.9416 17.7071 18.3321C17.3166 18.7226 16.6834 18.7226 16.2929 18.3321L12 14.0392L7.70711 18.3321C7.31658 18.7226 6.68342 18.7226 6.29289 18.3321C5.90237 17.9416 5.90237 17.3084 6.29289 16.9179L10.5858 12.625L6.29289 8.33211C5.90237 7.94158 5.90237 7.30842 6.29289 6.91789Z" fill="#7D7D78"/>
</svg>
