<svg width="190" height="48" viewBox="0 0 190 48" fill="none" xmlns="http://www.w3.org/2000/svg">
<rect x="0.5" y="0.5" width="189" height="47" rx="23.5" fill="white"/>
<rect x="0.5" y="0.5" width="189" height="47" rx="23.5" stroke="#E5EBF1"/>
<path fill-rule="evenodd" clip-rule="evenodd" d="M36 16C32.134 16 29 19.134 29 23V25.5312C29 26.0835 28.5523 26.5312 28 26.5312C27.4477 26.5312 27 26.0835 27 25.5312V23C27 18.0294 31.0294 14 36 14C40.9706 14 45 18.0294 45 23V26C45 26.5523 44.5523 27 44 27C43.4477 27 43 26.5523 43 26V23C43 19.134 39.866 16 36 16Z" fill="#547796"/>
<path fill-rule="evenodd" clip-rule="evenodd" d="M39 24.9549C39 23.3158 40.3156 21.9801 41.9546 21.9552C43.629 21.9299 45 23.2803 45 24.9549V27.0451C45 28.7198 43.629 30.0701 41.9546 30.0448C40.3156 30.0199 39 28.6843 39 27.0451V24.9549ZM43 24.9549V27.0451C43 27.6033 42.543 28.0535 41.9848 28.045C41.4385 28.0367 41 27.5915 41 27.0451V24.9549C41 24.4085 41.4385 23.9633 41.9848 23.955C42.543 23.9466 43 24.3967 43 24.9549Z" fill="#547796"/>
<path fill-rule="evenodd" clip-rule="evenodd" d="M27 24.9549C27 23.2803 28.371 21.9299 30.0454 21.9552C31.6844 21.9801 33 23.3158 33 24.9549V27.0451C33 28.6843 31.6844 30.0199 30.0454 30.0448C28.371 30.0701 27 28.7198 27 27.0451V24.9549ZM31 24.9549V27.0451C31 27.5915 30.5615 28.0367 30.0151 28.045C29.457 28.0535 29 27.6033 29 27.0451V24.9549C29 24.3967 29.457 23.9466 30.0151 23.955C30.5615 23.9633 31 24.4085 31 24.9549Z" fill="#547796"/>
<path fill-rule="evenodd" clip-rule="evenodd" d="M31 28.5V29.5C31 30.6046 31.8954 31.5 33 31.5H36V33.5H33C30.7909 33.5 29 31.7091 29 29.5V28.5H31Z" fill="#547796"/>
<path d="M34 32.5C34 31.6716 34.6716 31 35.5 31H36.5C37.3284 31 38 31.6716 38 32.5C38 33.3284 37.3284 34 36.5 34H35.5C34.6716 34 34 33.3284 34 32.5Z" fill="#547796"/>
<path d="M60.483 18.3636H62.5909V25.9659C62.5909 26.7992 62.3939 27.5322 62 28.1648C61.6098 28.7973 61.0606 29.2917 60.3523 29.6477C59.6439 30 58.8163 30.1761 57.8693 30.1761C56.9186 30.1761 56.089 30 55.3807 29.6477C54.6723 29.2917 54.1231 28.7973 53.733 28.1648C53.3428 27.5322 53.1477 26.7992 53.1477 25.9659V18.3636H55.2557V25.7898C55.2557 26.2746 55.3617 26.7064 55.5739 27.0852C55.7898 27.464 56.0928 27.7614 56.483 27.9773C56.8731 28.1894 57.3352 28.2955 57.8693 28.2955C58.4034 28.2955 58.8655 28.1894 59.2557 27.9773C59.6496 27.7614 59.9527 27.464 60.1648 27.0852C60.3769 26.7064 60.483 26.2746 60.483 25.7898V18.3636ZM66.888 24.8864V30H64.8312V21.2727H66.7971V22.7557H66.8994C67.1001 22.267 67.4202 21.8788 67.8596 21.5909C68.3028 21.303 68.8501 21.1591 69.5016 21.1591C70.1039 21.1591 70.6285 21.2879 71.0755 21.5455C71.5263 21.803 71.8748 22.1761 72.121 22.6648C72.371 23.1534 72.4941 23.7462 72.4903 24.4432V30H70.4335V24.7614C70.4335 24.178 70.282 23.7216 69.9789 23.392C69.6797 23.0625 69.2649 22.8977 68.7346 22.8977C68.3748 22.8977 68.0547 22.9773 67.7744 23.1364C67.4979 23.2917 67.2801 23.517 67.121 23.8125C66.9657 24.108 66.888 24.4659 66.888 24.8864ZM74.6212 30V21.2727H76.678V30H74.6212ZM75.6553 20.0341C75.3295 20.0341 75.0492 19.9261 74.8144 19.7102C74.5795 19.4905 74.4621 19.2273 74.4621 18.9205C74.4621 18.6098 74.5795 18.3466 74.8144 18.1307C75.0492 17.911 75.3295 17.8011 75.6553 17.8011C75.9848 17.8011 76.2651 17.911 76.4962 18.1307C76.731 18.3466 76.8485 18.6098 76.8485 18.9205C76.8485 19.2273 76.731 19.4905 76.4962 19.7102C76.2651 19.9261 75.9848 20.0341 75.6553 20.0341ZM86.6285 21.2727L83.5206 30H81.2478L78.1399 21.2727H80.3331L82.3388 27.7557H82.4297L84.441 21.2727H86.6285ZM91.6586 30.1705C90.7836 30.1705 90.0279 29.9886 89.3915 29.625C88.759 29.2576 88.2722 28.7386 87.9313 28.0682C87.5904 27.3939 87.4199 26.6004 87.4199 25.6875C87.4199 24.7898 87.5904 24.0019 87.9313 23.3239C88.276 22.642 88.7571 22.1117 89.3745 21.733C89.9919 21.3504 90.7173 21.1591 91.5506 21.1591C92.0885 21.1591 92.5961 21.2462 93.0734 21.4205C93.5544 21.5909 93.9787 21.8561 94.3461 22.2159C94.7173 22.5758 95.009 23.0341 95.2211 23.5909C95.4332 24.1439 95.5393 24.803 95.5393 25.5682V26.1989H88.3859V24.8125H93.5677C93.5639 24.4186 93.4787 24.0682 93.312 23.7614C93.1453 23.4508 92.9124 23.2064 92.6131 23.0284C92.3177 22.8504 91.973 22.7614 91.579 22.7614C91.1586 22.7614 90.7893 22.8636 90.4711 23.0682C90.1529 23.2689 89.9048 23.5341 89.7268 23.8636C89.5525 24.1894 89.4635 24.5473 89.4597 24.9375V26.1477C89.4597 26.6553 89.5525 27.0909 89.7381 27.4545C89.9237 27.8144 90.1832 28.0909 90.5165 28.2841C90.8499 28.4735 91.24 28.5682 91.687 28.5682C91.9862 28.5682 92.2571 28.5265 92.4995 28.4432C92.7419 28.3561 92.9521 28.2292 93.1302 28.0625C93.3082 27.8958 93.4427 27.6894 93.5336 27.4432L95.454 27.6591C95.3328 28.1667 95.1018 28.6098 94.7609 28.9886C94.4237 29.3636 93.9919 29.6553 93.4654 29.8636C92.9389 30.0682 92.3366 30.1705 91.6586 30.1705ZM97.3193 30V21.2727H99.3136V22.7273H99.4045C99.5636 22.2235 99.8364 21.8352 100.223 21.5625C100.613 21.286 101.058 21.1477 101.558 21.1477C101.672 21.1477 101.798 21.1534 101.939 21.1648C102.083 21.1723 102.202 21.1856 102.297 21.2045V23.0966C102.209 23.0663 102.071 23.0398 101.882 23.017C101.696 22.9905 101.516 22.9773 101.342 22.9773C100.967 22.9773 100.63 23.0587 100.331 23.2216C100.035 23.3807 99.8023 23.6023 99.6318 23.8864C99.4614 24.1705 99.3761 24.4981 99.3761 24.8693V30H97.3193ZM110.601 23.5795L108.726 23.7841C108.673 23.5947 108.58 23.4167 108.447 23.25C108.319 23.0833 108.144 22.9489 107.925 22.8466C107.705 22.7443 107.436 22.6932 107.118 22.6932C106.69 22.6932 106.33 22.786 106.038 22.9716C105.75 23.1572 105.608 23.3977 105.612 23.6932C105.608 23.947 105.701 24.1534 105.891 24.3125C106.084 24.4716 106.402 24.6023 106.845 24.7045L108.334 25.0227C109.16 25.2008 109.773 25.483 110.175 25.8693C110.58 26.2557 110.785 26.7614 110.788 27.3864C110.785 27.9356 110.624 28.4205 110.305 28.8409C109.991 29.2576 109.553 29.5833 108.993 29.8182C108.432 30.053 107.788 30.1705 107.061 30.1705C105.993 30.1705 105.133 29.947 104.481 29.5C103.83 29.0492 103.442 28.4223 103.317 27.6193L105.322 27.4261C105.413 27.8201 105.606 28.1174 105.902 28.3182C106.197 28.5189 106.582 28.6193 107.055 28.6193C107.544 28.6193 107.936 28.5189 108.231 28.3182C108.531 28.1174 108.68 27.8693 108.68 27.5739C108.68 27.3239 108.584 27.1174 108.391 26.9545C108.201 26.7917 107.906 26.6667 107.504 26.5795L106.016 26.267C105.178 26.0928 104.559 25.7992 104.158 25.3864C103.756 24.9697 103.557 24.4432 103.561 23.8068C103.557 23.2689 103.703 22.803 103.999 22.4091C104.298 22.0114 104.713 21.7045 105.243 21.4886C105.777 21.2689 106.392 21.1591 107.089 21.1591C108.112 21.1591 108.917 21.3769 109.504 21.8125C110.095 22.2481 110.461 22.8371 110.601 23.5795ZM115.036 30.1761C114.483 30.1761 113.985 30.0777 113.541 29.8807C113.102 29.6799 112.753 29.3845 112.496 28.9943C112.242 28.6042 112.115 28.1231 112.115 27.5511C112.115 27.0587 112.206 26.6515 112.388 26.3295C112.57 26.0076 112.818 25.75 113.132 25.5568C113.447 25.3636 113.801 25.2178 114.195 25.1193C114.592 25.017 115.003 24.9432 115.428 24.8977C115.939 24.8447 116.354 24.7973 116.672 24.7557C116.99 24.7102 117.221 24.642 117.365 24.5511C117.513 24.4564 117.587 24.3106 117.587 24.1136V24.0795C117.587 23.6515 117.46 23.3201 117.206 23.0852C116.952 22.8504 116.587 22.733 116.11 22.733C115.606 22.733 115.206 22.8428 114.911 23.0625C114.619 23.2822 114.422 23.5417 114.32 23.8409L112.399 23.5682C112.551 23.0379 112.801 22.5947 113.149 22.2386C113.498 21.8788 113.924 21.6098 114.428 21.4318C114.932 21.25 115.488 21.1591 116.098 21.1591C116.519 21.1591 116.937 21.2083 117.354 21.3068C117.771 21.4053 118.151 21.5682 118.496 21.7955C118.841 22.0189 119.117 22.3239 119.325 22.7102C119.538 23.0966 119.644 23.5795 119.644 24.1591V30H117.666V28.8011H117.598C117.473 29.0436 117.297 29.2708 117.07 29.483C116.846 29.6913 116.564 29.8598 116.223 29.9886C115.886 30.1136 115.49 30.1761 115.036 30.1761ZM115.57 28.6648C115.983 28.6648 116.341 28.5833 116.644 28.4205C116.947 28.2538 117.18 28.0341 117.342 27.7614C117.509 27.4886 117.592 27.1913 117.592 26.8693V25.8409C117.528 25.8939 117.418 25.9432 117.263 25.9886C117.111 26.0341 116.941 26.0739 116.752 26.108C116.562 26.142 116.375 26.1723 116.189 26.1989C116.003 26.2254 115.842 26.2481 115.706 26.267C115.399 26.3087 115.125 26.3769 114.882 26.4716C114.64 26.5663 114.449 26.6989 114.308 26.8693C114.168 27.036 114.098 27.2519 114.098 27.517C114.098 27.8958 114.236 28.1818 114.513 28.375C114.789 28.5682 115.142 28.6648 115.57 28.6648ZM123.809 18.3636V30H121.752V18.3636H123.809ZM140.024 22.2898H137.899C137.838 21.9413 137.726 21.6326 137.563 21.3636C137.4 21.0909 137.198 20.8598 136.955 20.6705C136.713 20.4811 136.436 20.339 136.126 20.2443C135.819 20.1458 135.488 20.0966 135.132 20.0966C134.499 20.0966 133.938 20.2557 133.45 20.5739C132.961 20.8883 132.579 21.3504 132.302 21.9602C132.025 22.5663 131.887 23.3068 131.887 24.1818C131.887 25.072 132.025 25.822 132.302 26.4318C132.582 27.0379 132.965 27.4962 133.45 27.8068C133.938 28.1136 134.497 28.267 135.126 28.267C135.474 28.267 135.8 28.2216 136.103 28.1307C136.41 28.036 136.685 27.8977 136.927 27.7159C137.173 27.5341 137.38 27.3106 137.546 27.0455C137.717 26.7803 137.834 26.4773 137.899 26.1364L140.024 26.1477C139.944 26.7008 139.772 27.2197 139.507 27.7045C139.245 28.1894 138.902 28.6174 138.478 28.9886C138.054 29.3561 137.558 29.6439 136.989 29.8523C136.421 30.0568 135.791 30.1591 135.097 30.1591C134.075 30.1591 133.162 29.9223 132.359 29.4489C131.556 28.9754 130.923 28.2917 130.461 27.3977C129.999 26.5038 129.768 25.4318 129.768 24.1818C129.768 22.928 130.001 21.8561 130.467 20.9659C130.933 20.072 131.567 19.3883 132.37 18.9148C133.173 18.4413 134.082 18.2045 135.097 18.2045C135.745 18.2045 136.347 18.2955 136.904 18.4773C137.461 18.6591 137.957 18.9261 138.393 19.2784C138.829 19.6269 139.186 20.0549 139.467 20.5625C139.751 21.0663 139.936 21.642 140.024 22.2898ZM144.414 30.1761C143.861 30.1761 143.363 30.0777 142.92 29.8807C142.481 29.6799 142.132 29.3845 141.875 28.9943C141.621 28.6042 141.494 28.1231 141.494 27.5511C141.494 27.0587 141.585 26.6515 141.767 26.3295C141.949 26.0076 142.197 25.75 142.511 25.5568C142.825 25.3636 143.18 25.2178 143.574 25.1193C143.971 25.017 144.382 24.9432 144.806 24.8977C145.318 24.8447 145.733 24.7973 146.051 24.7557C146.369 24.7102 146.6 24.642 146.744 24.5511C146.892 24.4564 146.966 24.3106 146.966 24.1136V24.0795C146.966 23.6515 146.839 23.3201 146.585 23.0852C146.331 22.8504 145.966 22.733 145.488 22.733C144.985 22.733 144.585 22.8428 144.289 23.0625C143.998 23.2822 143.801 23.5417 143.699 23.8409L141.778 23.5682C141.93 23.0379 142.18 22.5947 142.528 22.2386C142.877 21.8788 143.303 21.6098 143.806 21.4318C144.31 21.25 144.867 21.1591 145.477 21.1591C145.897 21.1591 146.316 21.2083 146.733 21.3068C147.149 21.4053 147.53 21.5682 147.875 21.7955C148.219 22.0189 148.496 22.3239 148.704 22.7102C148.916 23.0966 149.022 23.5795 149.022 24.1591V30H147.045V28.8011H146.977C146.852 29.0436 146.676 29.2708 146.449 29.483C146.225 29.6913 145.943 29.8598 145.602 29.9886C145.265 30.1136 144.869 30.1761 144.414 30.1761ZM144.949 28.6648C145.361 28.6648 145.719 28.5833 146.022 28.4205C146.325 28.2538 146.558 28.0341 146.721 27.7614C146.888 27.4886 146.971 27.1913 146.971 26.8693V25.8409C146.907 25.8939 146.797 25.9432 146.642 25.9886C146.49 26.0341 146.32 26.0739 146.13 26.108C145.941 26.142 145.753 26.1723 145.568 26.1989C145.382 26.2254 145.221 26.2481 145.085 26.267C144.778 26.3087 144.503 26.3769 144.261 26.4716C144.019 26.5663 143.827 26.6989 143.687 26.8693C143.547 27.036 143.477 27.2519 143.477 27.517C143.477 27.8958 143.615 28.1818 143.892 28.375C144.168 28.5682 144.52 28.6648 144.949 28.6648ZM151.131 30V21.2727H153.125V22.7273H153.216C153.375 22.2235 153.648 21.8352 154.034 21.5625C154.424 21.286 154.869 21.1477 155.369 21.1477C155.483 21.1477 155.61 21.1534 155.75 21.1648C155.894 21.1723 156.013 21.1856 156.108 21.2045V23.0966C156.021 23.0663 155.882 23.0398 155.693 23.017C155.507 22.9905 155.328 22.9773 155.153 22.9773C154.778 22.9773 154.441 23.0587 154.142 23.2216C153.846 23.3807 153.614 23.6023 153.443 23.8864C153.273 24.1705 153.187 24.4981 153.187 24.8693V30H151.131ZM161.019 30.1705C160.144 30.1705 159.388 29.9886 158.752 29.625C158.119 29.2576 157.632 28.7386 157.291 28.0682C156.95 27.3939 156.78 26.6004 156.78 25.6875C156.78 24.7898 156.95 24.0019 157.291 23.3239C157.636 22.642 158.117 22.1117 158.734 21.733C159.352 21.3504 160.077 21.1591 160.911 21.1591C161.449 21.1591 161.956 21.2462 162.433 21.4205C162.914 21.5909 163.339 21.8561 163.706 22.2159C164.077 22.5758 164.369 23.0341 164.581 23.5909C164.793 24.1439 164.899 24.803 164.899 25.5682V26.1989H157.746V24.8125H162.928C162.924 24.4186 162.839 24.0682 162.672 23.7614C162.505 23.4508 162.272 23.2064 161.973 23.0284C161.678 22.8504 161.333 22.7614 160.939 22.7614C160.519 22.7614 160.149 22.8636 159.831 23.0682C159.513 23.2689 159.265 23.5341 159.087 23.8636C158.913 24.1894 158.824 24.5473 158.82 24.9375V26.1477C158.82 26.6553 158.913 27.0909 159.098 27.4545C159.284 27.8144 159.543 28.0909 159.877 28.2841C160.21 28.4735 160.6 28.5682 161.047 28.5682C161.346 28.5682 161.617 28.5265 161.859 28.4432C162.102 28.3561 162.312 28.2292 162.49 28.0625C162.668 27.8958 162.803 27.6894 162.894 27.4432L164.814 27.6591C164.693 28.1667 164.462 28.6098 164.121 28.9886C163.784 29.3636 163.352 29.6553 162.825 29.8636C162.299 30.0682 161.697 30.1705 161.019 30.1705Z" fill="#547796"/>
</svg>
