<svg width="48" height="49" viewBox="0 0 48 49" fill="none" xmlns="http://www.w3.org/2000/svg">
<rect x="0.5" y="1.125" width="47" height="47" rx="23.5" fill="white"/>
<rect x="0.5" y="1.125" width="47" height="47" rx="23.5" stroke="#E4E4E2"/>
<path fill-rule="evenodd" clip-rule="evenodd" d="M24 16.625C20.134 16.625 17 19.759 17 23.625V26.1562C17 26.7085 16.5523 27.1562 16 27.1562C15.4477 27.1562 15 26.7085 15 26.1562V23.625C15 18.6544 19.0294 14.625 24 14.625C28.9706 14.625 33 18.6544 33 23.625V26.625C33 27.1773 32.5523 27.625 32 27.625C31.4477 27.625 31 27.1773 31 26.625V23.625C31 19.759 27.866 16.625 24 16.625Z" fill="#547796"/>
<path fill-rule="evenodd" clip-rule="evenodd" d="M27 25.5799C27 23.9408 28.3156 22.6051 29.9546 22.5802C31.629 22.5549 33 23.9053 33 25.5799V27.6701C33 29.3448 31.629 30.6951 29.9546 30.6698C28.3156 30.6449 27 29.3093 27 27.6701V25.5799ZM31 25.5799V27.6701C31 28.2283 30.543 28.6785 29.9848 28.67C29.4385 28.6617 29 28.2165 29 27.6701V25.5799C29 25.0335 29.4385 24.5883 29.9848 24.58C30.543 24.5716 31 25.0217 31 25.5799Z" fill="#547796"/>
<path fill-rule="evenodd" clip-rule="evenodd" d="M15 25.5799C15 23.9053 16.371 22.5549 18.0454 22.5802C19.6844 22.6051 21 23.9408 21 25.5799V27.6701C21 29.3093 19.6844 30.6449 18.0454 30.6698C16.371 30.6951 15 29.3448 15 27.6701V25.5799ZM19 25.5799V27.6701C19 28.2165 18.5615 28.6617 18.0151 28.67C17.457 28.6785 17 28.2283 17 27.6701V25.5799C17 25.0217 17.457 24.5716 18.0151 24.58C18.5615 24.5883 19 25.0335 19 25.5799Z" fill="#547796"/>
<path fill-rule="evenodd" clip-rule="evenodd" d="M19 29.125V30.125C19 31.2296 19.8954 32.125 21 32.125H24V34.125H21C18.7909 34.125 17 32.3341 17 30.125V29.125H19Z" fill="#547796"/>
<path d="M22 33.125C22 32.2966 22.6716 31.625 23.5 31.625H24.5C25.3284 31.625 26 32.2966 26 33.125C26 33.9534 25.3284 34.625 24.5 34.625H23.5C22.6716 34.625 22 33.9534 22 33.125Z" fill="#547796"/>
</svg>
