<svg width="24" height="25" viewBox="0 0 24 25" fill="none" xmlns="http://www.w3.org/2000/svg">
<path d="M20 16.6251C20 16.0728 19.5523 15.6251 19 15.6251C18.4477 15.6251 18 16.0728 18 16.6251V20.2108L17.7071 19.918C17.3166 19.5274 16.6834 19.5274 16.2929 19.918C15.9024 20.3085 15.9024 20.9416 16.2929 21.3322L18.2929 23.3322C18.6834 23.7227 19.3166 23.7227 19.7071 23.3322L21.7071 21.3322C22.0976 20.9416 22.0976 20.3085 21.7071 19.918C21.3166 19.5274 20.6834 19.5274 20.2929 19.918L20 20.2108V16.6251Z" fill="#7D7D78"/>
<path fill-rule="evenodd" clip-rule="evenodd" d="M13 4.62506H9.8C8.94342 4.62506 8.36113 4.62584 7.91104 4.66261C7.47262 4.69843 7.24842 4.76336 7.09202 4.84305C6.7157 5.0348 6.40973 5.34076 6.21799 5.71708C6.1383 5.87348 6.07337 6.09769 6.03755 6.5361C6.00078 6.98619 6 7.56848 6 8.42506V16.8251C6 17.6816 6.00078 18.2639 6.03755 18.714C6.07337 19.1524 6.1383 19.3766 6.21799 19.533C6.40973 19.9094 6.7157 20.2153 7.09202 20.4071C7.24842 20.4868 7.47262 20.5517 7.91104 20.5875C8.36113 20.6243 8.94342 20.6251 9.8 20.6251H13C13.5523 20.6251 14 21.0728 14 21.6251C14 22.1773 13.5523 22.6251 13 22.6251H9.75868C8.95372 22.6251 8.28937 22.6251 7.74818 22.5809C7.18608 22.5349 6.66937 22.4364 6.18404 22.1891C5.43139 21.8056 4.81947 21.1937 4.43598 20.441C4.18868 19.9557 4.09012 19.439 4.04419 18.8769C3.99998 18.3357 3.99999 17.6713 4 16.8664V8.38376C3.99999 7.5788 3.99998 6.91443 4.04419 6.37324C4.09012 5.81114 4.18868 5.29444 4.43598 4.8091C4.81947 4.05645 5.43139 3.44453 6.18404 3.06104C6.66937 2.81375 7.18608 2.71518 7.74818 2.66926C8.28937 2.62504 8.95373 2.62505 9.7587 2.62506L13.1137 2.62503C13.7487 2.62473 14.2284 2.6245 14.6911 2.73558C15.0993 2.83357 15.4895 2.99519 15.8474 3.2145C16.2531 3.46313 16.5922 3.80256 17.041 4.25178L18.3733 5.58409C18.8225 6.03288 19.1619 6.37199 19.4106 6.77771C19.6299 7.1356 19.7915 7.52578 19.8895 7.93392C20.0006 8.39661 20.0003 8.8764 20 9.51138L20 12.6251C20 13.1773 19.5523 13.6251 19 13.6251C18.4477 13.6251 18 13.1773 18 12.6251V9.62506H16C14.3431 9.62506 13 8.28192 13 6.62506V4.62506ZM17.56 7.62506C17.4398 7.48296 17.2479 7.28716 16.887 6.92628L15.6988 5.73806C15.3379 5.37718 15.1421 5.18526 15 5.06509V6.62506C15 7.17735 15.4477 7.62506 16 7.62506H17.56Z" fill="#7D7D78"/>
</svg>
