<svg width="64" height="65" viewBox="0 0 64 65" fill="none" xmlns="http://www.w3.org/2000/svg">
<g clip-path="url(#clip0_2423_53914)">
<path d="M39.0857 31.5218C39.4693 31.5507 40.0838 31.4543 40.4513 31.3075C40.8188 31.1608 41.3986 30.7821 41.7395 30.4663C42.0804 30.15 42.6162 29.4293 42.93 28.8641C43.2438 28.2989 43.5818 27.4689 43.6807 27.0195C43.7796 26.5701 43.4306 26.5017 42.9047 26.8674C42.3794 27.2333 41.5903 27.4954 41.1517 27.4499C40.713 27.4043 40.2166 27.3626 40.0488 27.3571C39.8804 27.3516 39.6797 27.386 39.6018 27.4338C39.5239 27.4816 39.3571 27.5225 39.2302 27.5245C39.1033 27.5264 38.9357 27.4533 38.8574 27.362C38.7791 27.2706 38.8241 26.9169 38.9568 26.5753C39.09 26.2343 39.2545 25.7811 39.3223 25.568C39.3899 25.3555 39.4879 25.1175 39.5397 25.0393C39.5915 24.961 39.686 24.8181 39.7492 24.7215C39.8129 24.625 39.7792 24.5538 39.6739 24.5637C39.5686 24.5735 39.3859 24.5066 39.2674 24.4151C39.1496 24.3238 38.8206 24.2251 38.5359 24.1958C38.2519 24.1665 37.9436 24.109 37.8521 24.068C37.7601 24.0269 37.5577 24.0394 37.402 24.0948C37.2462 24.1502 37.2517 24.2402 37.4139 24.2947C37.576 24.3492 37.8141 24.4628 37.9423 24.548C38.0707 24.6327 38.1023 24.7076 38.0127 24.7143C37.9225 24.721 37.7575 24.6766 37.6459 24.6161C37.5337 24.5554 37.4569 24.5747 37.474 24.6582C37.491 24.7424 37.6104 24.864 37.7389 24.9295C37.8675 24.9944 37.9727 25.0967 37.9731 25.1561C37.9735 25.2155 37.689 25.4007 37.3417 25.567C36.9944 25.7332 36.6272 25.8147 36.5259 25.7481C36.4248 25.681 36.2511 25.3721 36.1396 25.0611C36.0281 24.7501 35.7688 24.2758 35.563 24.0082C35.3573 23.7401 35.2885 22.9281 35.4111 22.2036C35.533 21.4789 35.3329 21.1036 34.9662 21.3691C34.5988 21.6352 34.0277 22.1483 33.6961 22.5105C33.3646 22.8727 32.9309 23.5367 32.733 23.9866C32.5346 24.4363 32.3692 25.2021 32.3652 25.6879C32.3612 26.1737 32.5189 26.9152 32.7165 27.3361C32.9136 27.7569 33.3378 28.1774 33.6596 28.2708C33.9808 28.3642 34.0728 28.5276 33.8637 28.6339C33.6551 28.7403 33.3759 28.9339 33.2435 29.0641C33.1111 29.1943 32.8392 29.3769 32.6398 29.4692C32.4404 29.5615 32.203 29.5937 32.1124 29.541C32.0219 29.4876 31.9427 29.387 31.9364 29.3167C31.93 29.2464 31.8356 29.152 31.7272 29.1065C31.6188 29.0611 31.4849 28.7403 31.4299 28.3941C31.375 28.0473 31.2892 27.8667 31.2394 27.9921C31.1895 28.1175 31.0347 28.1558 30.8954 28.077C30.7561 27.9983 30.7036 28.2658 30.7786 28.6722C30.8538 29.0781 30.9948 29.4204 31.0929 29.4317C31.191 29.4436 31.2785 29.5071 31.2877 29.5727C31.2969 29.6383 31.2673 29.7323 31.2221 29.7814C31.1763 29.8304 31.1654 29.9533 31.1979 30.0535C31.2304 30.1543 31.3173 30.2764 31.3909 30.3247C31.4646 30.3731 31.6503 30.6313 31.8042 30.8979C31.958 31.1645 31.9217 31.4482 31.7231 31.5287C31.5247 31.6087 31.6438 31.9687 31.9879 32.3274C32.3313 32.6864 32.8124 32.9555 33.0571 32.9255C33.3012 32.8954 33.5156 33.0372 33.5334 33.2402C33.5512 33.4432 33.9714 33.7806 34.4669 33.9888C34.9628 34.1977 35.37 34.1857 35.3723 33.9627C35.3746 33.7397 35.6363 33.6051 35.9547 33.663C36.2724 33.7214 36.5706 33.7941 36.6166 33.8242C36.6625 33.8543 36.8166 33.8914 36.9584 33.906C37.1001 33.9206 37.2241 33.8892 37.2332 33.8355C37.2423 33.7818 37.3344 33.724 37.4384 33.7067C37.5424 33.6894 37.6363 33.7513 37.6476 33.845C37.6584 33.9379 38.0231 33.9416 38.4585 33.8527C38.8933 33.7637 39.1342 33.6202 38.993 33.5339C38.8519 33.4475 38.8216 33.2813 38.9246 33.1648C39.0281 33.0485 38.8076 33.0216 38.4357 33.1056C38.0632 33.1895 37.7359 33.1948 37.7079 33.1172C37.6798 33.0395 37.5599 32.9921 37.4408 33.0126C37.3217 33.0331 37.1827 33.0222 37.1327 32.9888C37.0821 32.9552 37.0178 32.7831 36.9894 32.6059C36.9611 32.4287 36.9912 32.146 37.0561 31.9778C37.1209 31.8096 37.2356 31.3992 37.3108 31.0655C37.3859 30.7324 37.6594 30.6862 37.9189 30.9628C38.1783 31.24 38.7045 31.4898 39.0882 31.5188L39.0857 31.5218ZM34.1607 30.0925C34.106 30.1754 33.7796 30.4405 33.4351 30.6817C33.0907 30.9229 32.7136 30.9872 32.5969 30.8242C32.4802 30.6613 32.438 30.439 32.5032 30.3303C32.5685 30.2215 32.5913 30.0804 32.5548 30.0164C32.5177 29.9523 32.6889 29.8657 32.9345 29.8233C33.1802 29.781 33.579 29.7906 33.8204 29.8444C34.0617 29.8987 34.2152 30.0101 34.1605 30.093L34.1607 30.0925ZM36.2943 31.4777C36.4478 31.6849 36.5993 32.0606 36.6313 32.3124C36.6627 32.564 36.6338 32.772 36.5663 32.7736C36.4994 32.7753 36.3909 32.8497 36.3253 32.9387C36.2603 33.0277 36.0401 33.05 35.8365 32.9879C35.633 32.9259 35.5352 32.5592 35.6194 32.1724C35.7035 31.7857 35.8265 31.3861 35.8936 31.2855C35.9607 31.1844 36.1407 31.2711 36.2942 31.4783L36.2943 31.4777Z" fill="#FAF39D"/>
<path d="M37.9176 30.9653C38.1769 31.2425 38.7032 31.4923 39.0868 31.5212C39.4705 31.5502 40.0849 31.4537 40.4524 31.307C40.8199 31.1603 41.3997 30.7815 41.7406 30.4657C42.0816 30.1494 42.6174 29.4287 42.9311 28.8635C43.2449 28.2983 43.583 27.4683 43.6819 27.019C43.7807 26.5696 43.4318 26.5011 42.9058 26.8668C42.3805 27.2327 41.5914 27.4948 41.1528 27.4493C40.7142 27.4038 40.2177 27.362 40.0499 27.3566C39.8816 27.351 39.6808 27.3855 39.6029 27.4332C39.525 27.481 39.3582 27.5219 39.2313 27.5239C39.1044 27.5259 38.9369 27.4527 38.8586 27.3614C38.7803 27.27 38.8252 26.9164 38.958 26.5747C39.0911 26.2337 39.2556 25.7805 39.3234 25.5675C39.3911 25.355 39.4891 25.1169 39.5408 25.0387C39.5926 24.9605 39.6872 24.8176 39.7503 24.7209C39.814 24.6244 39.7803 24.5533 39.675 24.5631C39.5697 24.5729 39.387 24.506 39.2686 24.4146C39.2446 24.396 39.2098 24.3774 39.1704 24.3583L33.4351 33.0399C33.4907 33.0937 33.5273 33.1625 33.5343 33.2408C33.552 33.4438 33.9722 33.7812 34.4677 33.9894C34.9637 34.1982 35.3709 34.1863 35.3732 33.9633C35.3755 33.7403 35.6372 33.6056 35.9556 33.6636C36.2732 33.722 36.5715 33.7946 36.6175 33.8248C36.6634 33.8549 36.8175 33.892 36.9592 33.9066C37.101 33.9211 37.2249 33.8897 37.234 33.8361C37.2431 33.7824 37.3353 33.7246 37.4393 33.7073C37.5433 33.69 37.6372 33.7519 37.6484 33.8455C37.6593 33.9385 38.024 33.9422 38.4594 33.8533C38.8942 33.7643 39.1351 33.6208 38.9939 33.5344C38.8528 33.4481 38.8225 33.2818 38.9255 33.1654C39.029 33.0491 38.8085 33.0222 38.4366 33.1062C38.0641 33.19 37.7368 33.1954 37.7088 33.1178C37.6807 33.0401 37.5607 32.9927 37.4416 33.0132C37.3226 33.0337 37.1836 33.0228 37.1336 32.9893C37.083 32.9558 37.0187 32.7836 36.9903 32.6064C36.9619 32.4292 36.9921 32.1465 37.057 31.9784C37.1218 31.8102 37.2365 31.3997 37.3117 31.0661C37.3868 30.733 37.6603 30.6867 37.9198 30.9634L37.9176 30.9653ZM36.6317 32.3123C36.6631 32.5639 36.6342 32.7719 36.5667 32.7735C36.4998 32.7752 36.3913 32.8496 36.3257 32.9385C36.2607 33.0276 36.0405 33.0499 35.837 32.9878C35.6334 32.9257 35.5356 32.5591 35.6198 32.1723C35.704 31.7855 35.827 31.3859 35.894 31.2854C35.9611 31.1842 36.1412 31.2709 36.2947 31.4781C36.4481 31.6853 36.5996 32.0611 36.6316 32.3128L36.6317 32.3123Z" fill="#FAD87C"/>
<path d="M61.6437 47.8509C61.6468 49.5255 60.2792 50.8978 58.6051 50.9011L6.20833 50.9975C4.53368 51.0007 3.16137 49.633 3.15807 47.959L3.1014 17.1987C3.09822 15.524 4.4659 14.1517 6.14055 14.1485L58.5373 14.0521C60.2119 14.0489 61.5843 15.4166 61.5876 17.0907L61.6442 47.851L61.6437 47.8509Z" fill="#89CEEA"/>
<path d="M58.5163 21.4958L45.1367 21.5215L45.1702 38.9867L58.5498 38.961L58.5163 21.4958Z" fill="#195C86"/>
<mask id="mask0_2423_53914" style="mask-type:luminance" maskUnits="userSpaceOnUse" x="45" y="21" width="14" height="18">
<path d="M58.5202 21.4948L45.1406 21.5205L45.1742 38.9857L58.5537 38.96L58.5202 21.4948Z" fill="white"/>
</mask>
<g mask="url(#mask0_2423_53914)">
<path d="M57.0231 38.1409L46.5078 38.1611L46.5155 42.1831L57.0308 42.1629L57.0231 38.1409Z" fill="#9A7978"/>
<mask id="mask1_2423_53914" style="mask-type:luminance" maskUnits="userSpaceOnUse" x="-27" y="2" width="155" height="88">
<path d="M126.949 2.43413L-26.875 2.72949L-26.7089 89.2556L127.116 88.9603L126.949 2.43413Z" fill="white"/>
</mask>
<g mask="url(#mask1_2423_53914)">
<path d="M55.0202 40.1503C55.0221 41.2535 55.9178 42.1458 57.021 42.1439C58.1236 42.1419 59.0165 41.2463 59.0145 40.1431C59.0126 39.0399 58.117 38.1476 57.0138 38.1495C55.9111 38.1515 55.0183 39.0471 55.0202 40.1503Z" fill="#9A7978"/>
</g>
<path d="M42.9357 48.8058L48.1603 41.3078C48.7909 40.4029 48.5686 39.1583 47.6637 38.5277C46.7587 37.897 45.5142 38.1194 44.8835 39.0243L39.6589 46.5222L42.9363 48.8059L42.9357 48.8058Z" fill="#9A7978"/>
<path d="M44.494 40.1823C44.4961 41.2927 45.3981 42.1918 46.5085 42.1897C47.6189 42.1876 48.5174 41.2856 48.5154 40.1751C48.5133 39.0647 47.6112 38.1662 46.5009 38.1677C45.3905 38.1698 44.4914 39.0717 44.4935 40.1821" fill="#9A7978"/>
<path d="M55.0097 40.1634C55.0118 41.2738 55.9138 42.1729 57.0242 42.1708C58.1346 42.1687 59.0331 41.2666 59.0311 40.1562C59.029 39.0458 58.1269 38.1473 57.0165 38.1493C55.9061 38.1514 55.007 39.0534 55.009 40.1638" fill="#9A7978"/>
<path d="M53.4412 38.1558L50.0865 38.1621C48.1955 38.1656 46.6379 39.6492 46.5435 41.5386L45.566 61.0375C45.5494 61.3694 45.8144 61.6478 46.1466 61.6472L57.4674 61.6261C57.8001 61.6256 58.0638 61.3464 58.0457 61.0145L56.9965 41.5197C56.8953 39.6312 55.3321 38.1534 53.4411 38.1563" fill="#9A7978"/>
<path d="M52.4341 40.0919L51.136 40.0942C50.1863 40.0959 49.4546 39.258 49.5837 38.318L49.938 35.7326L53.6158 35.7259L53.9798 38.3102C54.1119 39.2503 53.3831 40.0906 52.434 40.0924" fill="#FFC1B3"/>
<path d="M56.593 31.5727C56.5941 32.0518 56.2067 32.441 55.7272 32.4414C55.2481 32.4425 54.859 32.0546 54.8585 31.5756C54.8579 31.0966 55.2453 30.7074 55.7243 30.7069C56.2034 30.7058 56.5925 31.0937 56.593 31.5727Z" fill="#FFC1B3"/>
<path d="M48.6869 31.5874C48.688 32.0665 48.3001 32.4555 47.8211 32.4561C47.342 32.4572 46.9529 32.0692 46.9524 31.5903C46.9513 31.1111 47.3392 30.7221 47.8182 30.7216C48.2973 30.7205 48.6864 31.1084 48.6869 31.5874Z" fill="#FFC1B3"/>
<path d="M56.2144 31.5067C56.2151 31.8653 55.9247 32.1565 55.5662 32.1572C55.2076 32.1579 54.9164 31.8675 54.9157 31.5089C54.915 31.1504 55.2048 30.8591 55.564 30.8585C55.9225 30.8578 56.2137 31.1482 56.2144 31.5067Z" fill="#FEA18D"/>
<path d="M48.7261 31.5214C48.7268 31.8799 48.4364 32.1711 48.0779 32.1718C47.7193 32.1725 47.4281 31.8821 47.4274 31.5236C47.4267 31.165 47.7171 30.8739 48.0756 30.8732C48.4342 30.8725 48.7254 31.1628 48.7261 31.5214Z" fill="#FEA18D"/>
<mask id="mask2_2423_53914" style="mask-type:luminance" maskUnits="userSpaceOnUse" x="-27" y="2" width="155" height="88">
<path d="M126.949 2.43413L-26.875 2.72949L-26.7089 89.2556L127.116 88.9603L126.949 2.43413Z" fill="white"/>
</mask>
<g mask="url(#mask2_2423_53914)">
<path d="M52.2937 35.6269L51.278 35.6288C49.8834 35.6315 48.6571 34.5388 48.3998 33.0209L47.8934 30.0288C47.5432 27.9607 48.906 26.0275 50.8061 26.0242L52.7295 26.0207C54.6295 26.0174 55.9991 27.9449 55.6568 30.0145L55.1613 33.0086C54.9096 34.5269 53.6878 35.624 52.2932 35.6268" fill="#514137"/>
</g>
<mask id="mask3_2423_53914" style="mask-type:luminance" maskUnits="userSpaceOnUse" x="-27" y="2" width="155" height="88">
<path d="M126.949 2.43413L-26.875 2.72949L-26.7089 89.2556L127.116 88.9603L126.949 2.43413Z" fill="white"/>
</mask>
<g mask="url(#mask3_2423_53914)">
<path d="M52.2982 36.7015L51.3035 36.7033C49.9377 36.706 48.7377 35.5947 48.487 34.053L47.9936 31.0165C47.6529 28.9194 48.986 26.9615 50.8429 26.9581L52.7226 26.9544C54.5795 26.9509 55.92 28.9041 55.5868 31.0022L55.1046 34.0407C54.86 35.5834 53.6635 36.6988 52.2984 36.701" fill="#FEA18D"/>
</g>
<mask id="mask4_2423_53914" style="mask-type:luminance" maskUnits="userSpaceOnUse" x="-27" y="2" width="155" height="88">
<path d="M126.949 2.43413L-26.875 2.72949L-26.7089 89.2556L127.116 88.9603L126.949 2.43413Z" fill="white"/>
</mask>
<g mask="url(#mask4_2423_53914)">
<path d="M52.2981 36.245L51.2771 36.2469C49.8753 36.2492 48.6421 35.1898 48.3846 33.7179L47.8764 30.8165C47.5251 28.8117 48.895 26.9376 50.804 26.9345L52.7365 26.9307C54.6456 26.927 56.0225 28.7956 55.6782 30.8019L55.1804 33.7049C54.9277 35.1775 53.6995 36.242 52.2977 36.2443" fill="#FFC1B3"/>
</g>
<path d="M53.8056 30.8084C53.8061 30.9847 53.6636 31.1276 53.4874 31.1275C53.3117 31.128 53.1682 30.9854 53.1684 30.8092C53.1679 30.6329 53.3104 30.49 53.4866 30.4902C53.6629 30.4898 53.8058 30.6322 53.8056 30.8084Z" fill="#312E3E"/>
<path d="M50.3955 30.8026C50.396 30.9783 50.2536 31.1212 50.0773 31.1216C49.9015 31.1222 49.7581 30.9795 49.7582 30.8034C49.7578 30.6271 49.9003 30.4842 50.0764 30.4843C50.2527 30.4839 50.3956 30.6264 50.3955 30.8026Z" fill="#312E3E"/>
<path d="M54.3313 32.7005L53.634 32.7016C53.486 32.7018 53.3656 32.5817 53.3654 32.4336C53.3652 32.2856 53.4852 32.1652 53.6333 32.165L54.3306 32.1639C54.4786 32.1637 54.5992 32.2832 54.5992 32.4318C54.5994 32.5799 54.4794 32.7003 54.3313 32.7005Z" fill="#D8A198"/>
<path d="M49.9837 32.7083L49.2864 32.7094C49.1383 32.7096 49.0179 32.5895 49.0177 32.4415C49.0175 32.2934 49.1376 32.173 49.2856 32.1728L49.9835 32.1718C50.1316 32.1717 50.2521 32.2911 50.2521 32.4398C50.2523 32.5878 50.1323 32.7082 49.9842 32.7084" fill="#D8A198"/>
<path d="M51.8123 33.0776C51.6085 33.0778 51.443 32.9134 51.4428 32.7096L51.4412 31.887C51.441 31.6832 51.6052 31.5182 51.8091 31.5174C52.013 31.5172 52.1779 31.6814 52.1781 31.8852L52.1797 32.7079C52.1801 32.9111 52.0152 33.0765 51.8118 33.0775" fill="#FF5351"/>
<path d="M51.8084 32.8147C51.6046 32.8149 51.439 32.6506 51.4388 32.4468L51.4373 31.717C51.437 31.5132 51.602 31.3478 51.8052 31.3474C52.009 31.3472 52.1739 31.512 52.1748 31.7154L52.1764 32.4452C52.1766 32.649 52.0118 32.8138 51.8084 32.8147Z" fill="#FF7574"/>
<path d="M54.1059 29.7408L53.3013 29.7423C53.2125 29.7426 53.1406 29.6707 53.1402 29.5819C53.1399 29.4931 53.2119 29.4207 53.3007 29.4203L54.1053 29.4188C54.1941 29.4185 54.2666 29.4905 54.2663 29.5798C54.2666 29.6686 54.1946 29.741 54.1059 29.7408Z" fill="#312E3E"/>
<path d="M50.3018 29.7468L49.4972 29.7483C49.4084 29.7486 49.3359 29.6766 49.3355 29.5878C49.3352 29.499 49.4072 29.4265 49.4966 29.4263L50.3012 29.4248C50.39 29.4245 50.4625 29.4965 50.4621 29.5858C50.4625 29.6745 50.3904 29.747 50.3018 29.7468Z" fill="#312E3E"/>
<path d="M46.6375 27.3717C46.8557 28.3049 48.4223 29.0152 50.3159 28.9954C52.2094 28.9756 53.7613 28.2328 53.96 27.2953L46.6375 27.3717Z" fill="#514137"/>
<path d="M48.0872 30.7487C47.93 30.7493 47.8029 30.6217 47.8024 30.4646L47.7979 27.905C47.7973 27.7479 47.9243 27.6207 48.0814 27.6201C48.2386 27.6196 48.3656 27.7471 48.3663 27.9037L48.3708 30.4632C48.3708 30.6203 48.2443 30.7482 48.0873 30.7482" fill="#514137"/>
<path d="M55.4498 30.7642C55.2927 30.7648 55.165 30.6371 55.1649 30.4807L55.1597 27.6369L55.7288 27.6357L55.734 30.4795C55.7345 30.6366 55.607 30.7637 55.4504 30.7644" fill="#514137"/>
<path d="M52.261 25.9805C52.2584 24.7471 51.2572 23.7489 50.0238 23.7515C48.7904 23.754 47.7922 24.7553 47.7947 25.9887C47.7972 27.2221 48.7985 28.2203 50.0319 28.2177C51.2653 28.2152 52.2629 27.2138 52.261 25.9805Z" fill="#514137"/>
<path d="M55.6622 26.9247C55.6609 25.9865 54.8982 25.2272 53.9605 25.2287C53.0222 25.2306 52.2631 25.9927 52.2651 26.9305C52.2664 27.8687 53.0291 28.6279 53.9669 28.6259C54.9053 28.624 55.6643 27.862 55.6623 26.9241" fill="#514137"/>
<path d="M47.7957 28.6373L47.7908 25.9889L51.6155 24.4182C51.6155 24.4182 52.798 25.2582 54.2598 25.2556C55.7216 25.253 55.7233 26.5456 55.7267 28.448C55.73 30.3511 55.2642 27.0804 55.2642 27.0804L55.0105 27.0544C55.0105 27.0544 54.443 27.1554 54.3502 27.2694C54.2568 27.3832 54.0105 27.6705 53.9972 27.7107C53.984 27.7508 52.3465 28.3947 50.242 28.3987C48.1368 28.4025 48.1558 27.7014 48.1558 27.7014L48.0805 28.5726L47.7961 28.638L47.7957 28.6373Z" fill="#514137"/>
<mask id="mask5_2423_53914" style="mask-type:luminance" maskUnits="userSpaceOnUse" x="-27" y="2" width="155" height="88">
<path d="M126.949 2.43413L-26.875 2.72949L-26.7089 89.2556L127.116 88.9603L126.949 2.43413Z" fill="white"/>
</mask>
<g mask="url(#mask5_2423_53914)">
<path d="M52.4504 34.215C52.4197 34.2147 52.3888 34.2265 52.3654 34.2503C52.2171 34.3982 52.0208 34.479 51.8116 34.4788C51.6029 34.4785 51.4065 34.3969 51.2587 34.2486C51.2121 34.2016 51.1359 34.2014 51.089 34.2485C51.0421 34.2956 51.0418 34.3712 51.0889 34.4181C51.2818 34.612 51.5383 34.7184 51.8112 34.7192C52.084 34.7195 52.3412 34.6136 52.5345 34.4208C52.5815 34.3742 52.5817 34.2981 52.5346 34.2511C52.5113 34.2276 52.4805 34.216 52.4499 34.2157L52.4504 34.215Z" fill="#A88027"/>
</g>
<path d="M64.0919 46.2675L56.066 41.8966C55.0971 41.369 54.7399 40.1564 55.2675 39.1875C55.7951 38.2186 57.0077 37.8614 57.9766 38.389L66.0026 42.7599L64.0925 46.2676L64.0919 46.2675Z" fill="#9A7978"/>
</g>
<path d="M56.2102 39.8446L47.5039 39.8613L47.5056 40.7693L56.2119 40.7526L56.2102 39.8446Z" fill="#195C86"/>
<path d="M55.1677 41.3681L48.5469 41.3809L48.5486 42.2888L55.1694 42.2761L55.1677 41.3681Z" fill="#195C86"/>
<path d="M48.6726 45.6001C50.8121 44.8799 53.236 44.8365 55.1471 43.5261C55.2428 43.4607 55.2013 43.2962 55.0773 43.3042C54.3468 43.3541 53.6067 43.3725 52.8867 43.5195C52.364 43.6265 51.7863 43.8175 51.4706 44.2798C51.2126 44.6586 51.1447 45.1833 51.4497 45.5505C51.7841 45.9524 52.4418 46.124 52.2406 46.7643C52.1941 46.9121 52.4288 46.9638 52.475 46.8172C52.6002 46.4186 52.4745 46.1092 52.1652 45.8435C51.7484 45.4859 51.3079 45.2332 51.5687 44.6022C51.8071 44.026 52.4853 43.8354 53.0443 43.7324C53.7171 43.6084 54.4068 43.5906 55.088 43.5439L55.0181 43.322C53.1275 44.6184 50.7173 44.6572 48.5992 45.3701C48.4527 45.4192 48.525 45.6489 48.6716 45.5992L48.6726 45.6001Z" fill="#0D2436"/>
<path d="M40.2034 25.2547L18.7578 25.2959L18.7596 26.2039L40.2052 26.1627L40.2034 25.2547Z" fill="#195C86"/>
<path d="M33.1607 27.0847L18.7656 27.1123L18.7674 28.0203L33.1625 27.9926L33.1607 27.0847Z" fill="#195C86"/>
<path d="M25.5938 28.9156L18.7695 28.9287L18.7713 29.8367L25.5955 29.8236L25.5938 28.9156Z" fill="#195C86"/>
<path d="M24.9927 30.7322L18.7695 30.7441L18.7713 31.6521L24.9945 31.6402L24.9927 30.7322Z" fill="#195C86"/>
<path d="M23.8484 32.5508L18.7734 32.5605L18.7752 33.4685L23.8501 33.4588L23.8484 32.5508Z" fill="#195C86"/>
<path d="M28.9311 34.3555L18.7812 34.375L18.783 35.283L28.9328 35.2635L28.9311 34.3555Z" fill="#195C86"/>
<path d="M24.7642 36.1799L18.7812 36.1914L18.783 37.0994L24.7659 37.0879L24.7642 36.1799Z" fill="#195C86"/>
<path d="M22.1856 38.0097L18.7734 38.0156L18.775 38.9236L22.1871 38.9177L22.1856 38.0097Z" fill="#195C86"/>
<path d="M22.7771 39.8156L18.7891 39.8232L18.7908 40.7312L22.7788 40.7236L22.7771 39.8156Z" fill="#195C86"/>
<path d="M28.9467 41.6192L18.7969 41.6387L18.7986 42.5467L28.9485 42.5272L28.9467 41.6192Z" fill="#195C86"/>
<path d="M22.209 43.4485L18.7969 43.4551L18.7986 44.3631L22.2107 44.3565L22.209 43.4485Z" fill="#195C86"/>
<path d="M23.8757 45.2598L18.8008 45.2695L18.8025 46.1775L23.8774 46.1678L23.8757 45.2598Z" fill="#195C86"/>
<path d="M45.9593 18.9272L18.75 18.9795L18.7517 19.8875L45.961 19.8352L45.9593 18.9272Z" fill="#195C86"/>
<path d="M12.7159 16.4712L12.7175 17.3789L12.7191 18.2867L51.9796 18.2145L51.9781 17.3068L51.9764 16.399L12.7159 16.4712Z" fill="#195C86"/>
<path d="M17.6533 21.3341L18.088 21.3332L18.0907 22.7122L18.2652 22.712L18.2644 22.3085C18.2644 22.2737 18.2724 22.2462 18.289 22.2259C18.3054 22.2062 18.3274 22.1962 18.3545 22.1957C18.3809 22.1957 18.4024 22.2065 18.4195 22.2266C18.4364 22.2471 18.4447 22.2742 18.4449 22.3078L18.446 22.8139C18.4458 22.8438 18.4366 22.8687 18.4179 22.8879C18.3992 22.907 18.3749 22.9165 18.3455 22.9165L17.6566 22.9177C17.6267 22.9175 17.6024 22.9084 17.5839 22.8893C17.5654 22.8701 17.5559 22.8458 17.5557 22.8152C17.5554 22.7846 17.565 22.7604 17.5837 22.7412C17.6024 22.7221 17.6267 22.7126 17.6561 22.7126L17.9103 22.7123L17.9081 21.5383L17.654 21.5386C17.6233 21.5389 17.5986 21.5291 17.5805 21.5107C17.5625 21.4922 17.5532 21.4673 17.553 21.4361C17.5526 21.4061 17.5623 21.3813 17.5811 21.3622C17.5998 21.343 17.6241 21.3335 17.6534 21.3335L17.6533 21.3341Z" fill="#195C86"/>
<path d="M19.2024 21.3321L19.8116 21.3309C19.8614 21.3307 19.9037 21.3505 19.9391 21.3902C19.9745 21.43 19.9924 21.4783 19.9926 21.5359L19.9932 22.0197C19.9934 22.0773 19.976 22.1255 19.9406 22.1655C19.9052 22.2055 19.863 22.2253 19.8132 22.2255L19.2843 22.2267L19.2853 22.7118L19.8939 22.7105C19.9238 22.7107 19.9481 22.7198 19.9666 22.7389C19.9851 22.7581 19.9944 22.7829 19.9949 22.813C19.9953 22.8431 19.9855 22.8678 19.9668 22.887C19.9481 22.9061 19.9238 22.9156 19.8944 22.9156L19.1048 22.9169L19.1033 22.2267C19.1034 22.1704 19.1204 22.1215 19.1558 22.0815C19.1906 22.0414 19.2336 22.0211 19.2839 22.0211L19.8128 22.0198L19.8122 21.536L19.203 21.5372C19.1723 21.5375 19.1476 21.5277 19.1296 21.5092C19.1115 21.4908 19.1022 21.4659 19.102 21.4347C19.1016 21.4046 19.1114 21.3799 19.1301 21.3607C19.1488 21.3416 19.1731 21.3321 19.2024 21.3321Z" fill="#195C86"/>
<path d="M20.7497 21.3291L21.3583 21.3278C21.4075 21.3275 21.4497 21.3478 21.4856 21.3877C21.5215 21.4281 21.5395 21.4759 21.5392 21.5328L21.5397 21.9135C21.54 21.9495 21.534 21.9841 21.5229 22.0176C21.5117 22.051 21.4946 22.0844 21.4724 22.1165C21.4951 22.1516 21.5118 22.1865 21.523 22.222C21.5341 22.2575 21.5399 22.2929 21.5399 22.3277L21.5409 22.7061C21.5408 22.7624 21.5232 22.8112 21.4878 22.8512C21.453 22.8913 21.4101 22.9116 21.3603 22.9117L20.7517 22.913C20.7218 22.9129 20.6975 22.9038 20.679 22.8846C20.6605 22.8655 20.651 22.8412 20.6513 22.8107C20.6509 22.7806 20.6607 22.7559 20.6794 22.7367C20.6981 22.7175 20.7224 22.708 20.7518 22.7081L21.3585 22.707L21.3577 22.325C21.3578 22.298 21.3487 22.2744 21.3306 22.2536C21.3126 22.2327 21.2915 22.2226 21.2669 22.2224L20.927 22.2231C20.8963 22.2234 20.8721 22.2138 20.8546 22.196C20.8371 22.1777 20.8283 22.1529 20.8283 22.1212C20.8283 22.0918 20.8374 22.0675 20.8556 22.0476C20.8738 22.0283 20.8976 22.0181 20.927 22.0182L21.267 22.0175C21.2915 22.0176 21.3124 22.0073 21.3302 21.9868C21.3481 21.9662 21.357 21.9425 21.3568 21.9142L21.3563 21.5335L20.7495 21.5347C20.7189 21.5349 20.6941 21.5252 20.6761 21.5067C20.6581 21.4883 20.6487 21.4634 20.6485 21.4322C20.6487 21.4023 20.6579 21.3774 20.6766 21.3582C20.6953 21.339 20.7196 21.3295 20.749 21.3296L20.7497 21.3291Z" fill="#195C86"/>
<path d="M22.4205 21.4424L22.4219 22.1913L22.7727 22.1906L22.7714 21.6138C22.7714 21.579 22.7796 21.5509 22.7958 21.5294C22.8125 21.5086 22.8341 21.4979 22.8617 21.4975C22.8875 21.4973 22.9091 21.5082 22.9265 21.5295C22.9438 21.5507 22.9524 21.5791 22.9525 21.6132L22.9538 22.1901C22.9796 22.1923 23.0012 22.2032 23.0185 22.222C23.0358 22.2409 23.0443 22.2644 23.0445 22.2926C23.0445 22.3196 23.0363 22.3423 23.02 22.3614C23.0039 22.38 22.9815 22.3917 22.9542 22.3957L22.9549 22.7969C22.955 22.831 22.947 22.8586 22.9302 22.88C22.9135 22.9008 22.8919 22.9115 22.8649 22.9114C22.8386 22.9115 22.8164 22.9005 22.7996 22.8793C22.7828 22.8582 22.7741 22.8304 22.7745 22.7969L22.7738 22.3958L22.2426 22.3966L22.2406 21.4426C22.2406 21.4079 22.2488 21.3797 22.2649 21.3588C22.2816 21.338 22.303 21.3278 22.3307 21.3275C22.3565 21.3273 22.378 21.3381 22.3954 21.3594C22.4128 21.3807 22.4209 21.4083 22.4212 21.442L22.4205 21.4424Z" fill="#195C86"/>
<path d="M23.9187 21.3228L24.5297 21.3215C24.5597 21.3216 24.584 21.3307 24.6025 21.3499C24.6209 21.369 24.6304 21.3933 24.6307 21.424C24.6307 21.4533 24.6215 21.4782 24.6028 21.4974C24.584 21.5171 24.5596 21.5266 24.5303 21.5266L24.0998 21.5273L24.1004 22.0111L24.4512 22.0104C24.5004 22.0101 24.5425 22.031 24.5784 22.0708C24.6143 22.1113 24.6321 22.1597 24.6322 22.2154L24.6331 22.7005C24.633 22.7568 24.6154 22.8056 24.5806 22.8457C24.5452 22.8856 24.5029 22.9061 24.4531 22.9062L24.0531 22.9072C24.037 22.9071 24.02 22.9051 24.0025 22.9006C23.9848 22.8966 23.9676 22.8903 23.9506 22.8835L23.8079 22.8172C23.7873 22.8077 23.7716 22.7946 23.7606 22.7771C23.7495 22.7597 23.7438 22.7398 23.7436 22.717C23.7432 22.6893 23.7522 22.6656 23.7692 22.646C23.7862 22.6265 23.8081 22.617 23.8339 22.6168C23.8404 22.6171 23.8468 22.618 23.8542 22.6196C23.8616 22.6213 23.8692 22.6248 23.878 22.6286L24.0188 22.6927C24.0257 22.6966 24.0317 22.6992 24.0368 22.7003C24.0419 22.7015 24.0465 22.7025 24.0515 22.7018L24.4537 22.7014L24.4527 22.2163L23.9216 22.2171L23.92 21.3225L23.9187 21.3228Z" fill="#195C86"/>
<path d="M25.3747 21.3203L25.4544 21.3203C25.4843 21.3204 25.5086 21.3295 25.5271 21.3487C25.5455 21.3678 25.5551 21.3921 25.5553 21.4228C25.5553 21.4497 25.5471 21.4724 25.5308 21.4915C25.5147 21.5101 25.4928 21.5219 25.4656 21.526L25.4666 22.1837L25.9756 22.1827C26.0397 22.1828 26.0894 22.2018 26.1243 22.2408C26.1593 22.2799 26.1766 22.3359 26.1763 22.409L26.1766 22.6763C26.1769 22.7495 26.1595 22.8055 26.1249 22.8445C26.0904 22.8834 26.0409 22.9035 25.9762 22.9033L25.4858 22.9042C25.4217 22.9041 25.372 22.8852 25.3378 22.8457C25.3034 22.8068 25.286 22.7507 25.2857 22.6775L25.2836 21.4346C25.2836 21.3999 25.2917 21.3717 25.3078 21.3508C25.3245 21.33 25.346 21.3198 25.3736 21.3195L25.3747 21.3203ZM25.4671 22.3888L25.4678 22.6994L25.9967 22.6981L25.996 22.3875L25.4671 22.3888Z" fill="#195C86"/>
<path d="M26.9217 21.3186L27.7215 21.3172L27.7228 21.9312C27.7227 21.9528 27.7207 21.9697 27.7155 21.9823C27.7108 21.9951 27.6981 22.0114 27.678 22.0314L27.3692 22.3328L27.3697 22.7878C27.3698 22.822 27.3618 22.8496 27.3444 22.8708C27.3278 22.8916 27.3062 22.9024 27.2792 22.9023C27.2528 22.9023 27.2307 22.8913 27.2139 22.8702C27.1971 22.849 27.1884 22.8213 27.1887 22.7878L27.1881 22.2932C27.1882 22.2716 27.1902 22.2547 27.1954 22.2421C27.2001 22.2294 27.2128 22.2131 27.2329 22.193L27.5418 21.894L27.5409 21.5229L27.012 21.5241C27.0059 21.5515 26.9946 21.5723 26.9792 21.5874C26.9638 21.6026 26.9447 21.6102 26.9218 21.6105C26.8955 21.6105 26.8734 21.5996 26.8564 21.579C26.8396 21.5578 26.8313 21.5308 26.8311 21.4971L26.8311 21.4336C26.8311 21.3988 26.8392 21.3707 26.8553 21.3498C26.872 21.329 26.8935 21.3188 26.9211 21.3184L26.9217 21.3186Z" fill="#195C86"/>
<path d="M28.6475 21.3155L29.0001 21.3146C29.0259 21.3144 29.0474 21.3253 29.0648 21.3466C29.0821 21.3679 29.0903 21.3955 29.0905 21.4291L29.0917 22.0035C29.1496 22.01 29.1944 22.0321 29.2246 22.0706C29.2549 22.1092 29.2705 22.1625 29.2705 22.2314L29.2713 22.6721C29.2716 22.7453 29.2542 22.8013 29.2196 22.8402C29.1851 22.8792 29.1356 22.8992 29.0709 22.899L28.5804 22.9C28.5163 22.8999 28.4667 22.8809 28.4324 22.8415C28.398 22.8025 28.3807 22.7465 28.3804 22.6733L28.3796 22.2326C28.3795 22.1643 28.3946 22.1101 28.4249 22.0714C28.4553 22.0327 28.4994 22.0097 28.5576 22.0042L28.5564 21.4298C28.5564 21.395 28.5645 21.3669 28.5806 21.346C28.5973 21.3251 28.6188 21.315 28.6464 21.3146L28.6475 21.3155ZM28.5609 22.21L28.5619 22.695L29.0908 22.6938L29.0898 22.2087L28.5609 22.21ZM28.7385 21.5206L28.7391 22.0044L28.9112 22.0042L28.9105 21.5204L28.7385 21.5206Z" fill="#195C86"/>
<path d="M30.1243 21.3123L30.6148 21.3114C30.6789 21.3114 30.729 21.3311 30.7633 21.3706C30.7981 21.4102 30.8153 21.4668 30.8156 21.54L30.8178 22.7829C30.8179 22.8171 30.8093 22.8445 30.7927 22.8648C30.7762 22.885 30.7541 22.895 30.7278 22.8951L30.648 22.8951C30.6181 22.8949 30.5938 22.8859 30.5753 22.8667C30.5569 22.8476 30.5474 22.8233 30.5471 22.7926C30.5472 22.7657 30.5553 22.7429 30.571 22.7237C30.5872 22.7052 30.609 22.6933 30.6371 22.6883L30.6359 22.0341L30.1257 22.0348C30.0622 22.0349 30.0126 22.0153 29.9779 21.9751C29.9431 21.9355 29.9259 21.8789 29.9256 21.8057L29.9254 21.5408C29.9251 21.4676 29.9427 21.411 29.9769 21.3708C30.0116 21.3312 30.0605 21.3111 30.124 21.311L30.1243 21.3123ZM30.1056 21.5178L30.1063 21.8285L30.6352 21.8272L30.6345 21.5166L30.1056 21.5178Z" fill="#195C86"/>
<path d="M31.6717 21.3097L32.1622 21.3087C32.2263 21.3088 32.276 21.3278 32.3109 21.3668C32.3459 21.4058 32.3632 21.4619 32.3635 21.5351L32.3658 22.6659C32.3661 22.7391 32.3487 22.7951 32.314 22.8347C32.2794 22.8736 32.23 22.8936 32.1653 22.8934L31.6748 22.8944C31.6107 22.8943 31.561 22.8753 31.5268 22.8359C31.4924 22.7969 31.4751 22.7409 31.4748 22.6677L31.4725 21.5369C31.4722 21.4637 31.4896 21.4077 31.5236 21.3686C31.5576 21.3295 31.6069 21.31 31.6717 21.3097ZM31.653 21.5152L31.6551 22.6892L32.184 22.6879L32.1819 21.5139L31.653 21.5152Z" fill="#195C86"/>
<path d="M33.2147 21.3067L33.7052 21.3058C33.7693 21.3058 33.8189 21.3248 33.8539 21.3639C33.8889 21.4029 33.9062 21.459 33.9065 21.5321L33.9087 22.663C33.909 22.7362 33.8916 22.7922 33.8571 22.8312C33.8225 22.8701 33.7731 22.8901 33.7084 22.8899L33.2179 22.8909C33.1538 22.8908 33.1041 22.8718 33.0699 22.8324C33.0355 22.7934 33.0181 22.7374 33.0179 22.6642L33.0156 21.5334C33.0153 21.4602 33.0327 21.4042 33.0667 21.3651C33.1013 21.3261 33.15 21.3065 33.2148 21.3062L33.2147 21.3067ZM33.196 21.5123L33.1981 22.6862L33.727 22.685L33.7249 21.511L33.196 21.5123Z" fill="#195C86"/>
<path d="M34.7616 21.3048L35.252 21.3038C35.3162 21.3039 35.3664 21.323 35.4008 21.3619C35.4357 21.401 35.4531 21.457 35.4534 21.5302L35.4556 22.661C35.4559 22.7342 35.4385 22.7902 35.4038 22.8298C35.3693 22.8687 35.3198 22.8887 35.2551 22.8886L34.7646 22.8895C34.7005 22.8894 34.6509 22.8705 34.6166 22.831C34.5822 22.7921 34.5649 22.736 34.5646 22.6628L34.5623 21.532C34.5621 21.4588 34.5795 21.4028 34.6135 21.3637C34.6474 21.3246 34.6968 21.3052 34.7616 21.3048ZM34.7428 21.5103L34.745 22.6843L35.2739 22.683L35.2717 21.509L34.7428 21.5103Z" fill="#195C86"/>
<path d="M36.309 21.301L36.7995 21.3001C36.8636 21.3001 36.9138 21.3192 36.9482 21.3581C36.9832 21.3972 37.0005 21.4532 37.0002 21.5263L37.0025 22.6571C37.0028 22.7303 36.9854 22.7863 36.9508 22.8253C36.9163 22.8643 36.8668 22.8843 36.8021 22.8841L36.3116 22.885C36.2475 22.885 36.1979 22.866 36.1635 22.8271C36.1291 22.7882 36.1118 22.7321 36.1115 22.6589L36.1092 21.5281C36.1089 21.4549 36.1264 21.3989 36.1603 21.3598C36.1943 21.3207 36.2436 21.3012 36.3085 21.3009L36.309 21.301ZM36.2903 21.5065L36.2924 22.6805L36.8213 22.6792L36.8192 21.5053L36.2903 21.5065Z" fill="#195C86"/>
<path d="M37.8553 21.2979L38.3458 21.297C38.4099 21.2971 38.4601 21.3162 38.4945 21.3551C38.5295 21.3941 38.5468 21.4502 38.5471 21.5234L38.5494 22.6542C38.5497 22.7274 38.5322 22.7834 38.4976 22.8229C38.463 22.8619 38.4136 22.8819 38.3489 22.8817L37.8584 22.8827C37.7943 22.8826 37.7446 22.8636 37.7102 22.8247C37.6759 22.7858 37.6585 22.7297 37.6582 22.6566L37.656 21.5257C37.6557 21.4525 37.6731 21.3965 37.7071 21.3574C37.7411 21.3183 37.7904 21.2989 37.8552 21.2985L37.8553 21.2979ZM37.8366 21.5035L37.8387 22.6775L38.3676 22.6762L38.3655 21.5022L37.8366 21.5035Z" fill="#195C86"/>
<path d="M39.4028 21.2951L39.8932 21.2942C39.9574 21.2943 40.0076 21.3134 40.042 21.3523C40.0769 21.3913 40.0943 21.4474 40.094 21.5204L40.0962 22.6513C40.0965 22.7245 40.0791 22.7805 40.0446 22.8194C40.01 22.8584 39.9605 22.8784 39.8959 22.8782L39.4054 22.8792C39.3413 22.8791 39.2916 22.8601 39.2574 22.8206C39.223 22.7817 39.2056 22.7257 39.2054 22.6525L39.2031 21.5216C39.2028 21.4485 39.2202 21.3924 39.2542 21.3534C39.2882 21.3143 39.3375 21.2948 39.4023 21.2944L39.4028 21.2951ZM39.384 21.5007L39.3862 22.6747L39.9151 22.6734L39.9129 21.4994L39.384 21.5007Z" fill="#195C86"/>
<path d="M40.9491 21.2931L41.4395 21.2921C41.5037 21.2922 41.5533 21.3112 41.5883 21.3502C41.6232 21.3892 41.6406 21.4453 41.6409 21.5185L41.6431 22.6493C41.6434 22.7225 41.626 22.7785 41.5914 22.8175C41.5569 22.8564 41.5074 22.8765 41.4427 22.8763L40.9523 22.8772C40.8882 22.8771 40.8385 22.8582 40.8042 22.8187C40.7699 22.7798 40.7525 22.7237 40.7522 22.6505L40.75 21.5197C40.7497 21.4465 40.7671 21.3905 40.8011 21.3514C40.8351 21.3123 40.8844 21.2929 40.9492 21.2925L40.9491 21.2931ZM40.9303 21.4986L40.9325 22.6726L41.4614 22.6713L41.4592 21.4973L40.9303 21.4986Z" fill="#195C86"/>
<path d="M11.4563 25.3102L6.16797 25.3203L6.16971 26.2283L11.458 26.2181L11.4563 25.3102Z" fill="#195C86"/>
<path d="M13.3832 27.1229L6.17188 27.1367L6.17362 28.0447L13.3849 28.0309L13.3832 27.1229Z" fill="#195C86"/>
<path d="M12.2618 28.9405L6.17188 28.9521L6.17362 29.8601L12.2635 29.8484L12.2618 28.9405Z" fill="#195C86"/>
<path d="M11.7487 30.7579L6.17969 30.7686L6.18143 31.6765L11.7504 31.6659L11.7487 30.7579Z" fill="#195C86"/>
<path d="M12.2697 32.5725L8.82422 32.5791L8.82596 33.4871L12.2714 33.4805L12.2697 32.5725Z" fill="#195C86"/>
<path d="M13.2348 34.3861L8.82812 34.3945L8.82987 35.3025L13.2365 35.2941L13.2348 34.3861Z" fill="#195C86"/>
<path d="M14.8452 36.1994L8.83594 36.2109L8.83768 37.1189L14.8469 37.1074L14.8452 36.1994Z" fill="#195C86"/>
<path d="M11.4836 38.0211L6.19531 38.0312L6.19706 38.9392L11.4854 38.9291L11.4836 38.0211Z" fill="#195C86"/>
<path d="M16.1785 39.8285L6.19531 39.8477L6.19706 40.7556L16.1803 40.7365L16.1785 39.8285Z" fill="#195C86"/>
<path d="M12.768 41.6505L6.19922 41.6631L6.20096 42.5711L12.7697 42.5585L12.768 41.6505Z" fill="#195C86"/>
<path d="M15.7057 43.4612L6.20312 43.4795L6.20487 44.3875L15.7075 44.3692L15.7057 43.4612Z" fill="#195C86"/>
<path d="M14.2154 45.2786L6.20312 45.2939L6.20487 46.2019L14.2172 46.1865L14.2154 45.2786Z" fill="#195C86"/>
<path d="M9.09479 21.2287L6.15625 21.2344L6.15933 22.8369L9.09787 22.8313L9.09479 21.2287Z" fill="#195C86"/>
</g>
<defs>
<clipPath id="clip0_2423_53914">
<rect width="64" height="64" fill="white" transform="translate(0 0.625)"/>
</clipPath>
</defs>
</svg>
