<svg width="150" height="151" viewBox="0 0 150 151" fill="none" xmlns="http://www.w3.org/2000/svg">
<path d="M137.198 44.3316C154.049 73.987 156.297 102.792 131.554 126.191C106.069 150.292 68.4677 158.709 37.8729 141.647C6.87494 124.361 -6.91595 100.789 3.36143 66.6781C11.7928 38.6946 45.5882 49.6545 74.4776 46.3182C102.918 43.0337 122.382 22.9786 137.198 44.3316Z" fill="#FCF0E3"/>
<path fill-rule="evenodd" clip-rule="evenodd" d="M77.3748 6.74086C75.5284 5.2441 72.8834 5.25411 71.0484 6.76481L23.1982 46.157H125.999L77.3748 6.74086ZM125.999 108.746V46.157H23.1982V108.746C23.1982 110.403 24.5414 111.746 26.1982 111.746H122.999C124.656 111.746 125.999 110.403 125.999 108.746Z" fill="#547796"/>
<path d="M41.3135 20.2559C41.3135 19.7036 41.7612 19.2559 42.3135 19.2559H108.139C108.692 19.2559 109.139 19.7036 109.139 20.2559V89.1648C109.139 89.7171 108.692 90.1648 108.139 90.1648H42.3135C41.7612 90.1648 41.3135 89.7171 41.3135 89.1648V20.2559Z" fill="#FAFAFA"/>
<path d="M87.8086 77.6401L124.335 45.1497C124.98 44.5762 126 45.0339 126 45.8969V108.478L87.8086 77.6401Z" fill="#99B1C6"/>
<path d="M61.1914 77.6402L24.665 45.1497C24.0202 44.5762 23.0004 45.0339 23.0004 45.8969L23.0004 108.478L61.1914 77.6402Z" fill="#99B1C6"/>
<path d="M71.3482 68.217C73.1848 66.7257 75.8152 66.7257 77.6518 68.217L124.859 106.55C127.175 108.431 125.729 111.95 122.64 111.95H26.3602C23.2706 111.95 21.8248 108.431 24.1415 106.55L71.3482 68.217Z" fill="#7696B2"/>
<circle cx="75.3973" cy="46.0035" r="14.4158" fill="#48D06A"/>
<rect x="69.2656" y="43.9585" width="8.09811" height="2.57426" rx="1.28713" transform="rotate(45.0735 69.2656 43.9585)" fill="white"/>
<path d="M72.3291 50.5071C71.8755 49.9598 71.9515 49.1484 72.4988 48.6948L80.4819 42.079C81.0292 41.6255 81.8405 41.7015 82.2941 42.2488C82.7477 42.7961 82.6717 43.6074 82.1244 44.061L74.1413 50.6768C73.594 51.1304 72.7826 51.0544 72.3291 50.5071Z" fill="white"/>
<rect x="90.6484" y="24.8928" width="15.4142" height="3.08285" rx="1.54142" fill="#BEBEBB"/>
<rect x="95.9102" y="30.9387" width="10.4157" height="3.47191" rx="1.73595" fill="#BEBEBB"/>
<rect x="97.0674" y="43.6689" width="9.25843" height="3.47191" rx="1.73595" fill="#BEBEBB"/>
<rect x="44.3965" y="31.0588" width="18.4971" height="3.08285" rx="1.54142" fill="#BEBEBB"/>
<rect x="44.3965" y="24.8928" width="40.079" height="3.083" rx="1.5415" fill="#BEBEBB"/>
<rect x="44.3965" y="37.2249" width="9.249" height="3.083" rx="1.5415" fill="#BEBEBB"/>
<rect x="90.6484" y="37.2249" width="15.4142" height="3.08285" rx="1.54142" fill="#BEBEBB"/>
</svg>
