<svg width="16" height="16" viewBox="0 0 16 16" fill="none" xmlns="http://www.w3.org/2000/svg">
<path fill-rule="evenodd" clip-rule="evenodd" d="M7.99998 14.6667C11.6819 14.6667 14.6666 11.6819 14.6666 8.00004C14.6666 4.31814 11.6819 1.33337 7.99998 1.33337C4.31808 1.33337 1.33331 4.31814 1.33331 8.00004C1.33331 11.6819 4.31808 14.6667 7.99998 14.6667ZM6.47138 5.52864C6.21103 5.26829 5.78892 5.26829 5.52858 5.52864C5.26823 5.78899 5.26823 6.2111 5.52858 6.47145L7.05717 8.00004L5.52858 9.52864C5.26823 9.78899 5.26823 10.2111 5.52858 10.4714C5.78892 10.7318 6.21103 10.7318 6.47138 10.4714L7.99998 8.94285L9.52858 10.4714C9.78893 10.7318 10.211 10.7318 10.4714 10.4714C10.7317 10.2111 10.7317 9.78899 10.4714 9.52864L8.94279 8.00004L10.4714 6.47145C10.7317 6.2111 10.7317 5.78899 10.4714 5.52864C10.211 5.26829 9.78893 5.26829 9.52858 5.52864L7.99998 7.05723L6.47138 5.52864Z" fill="#F10A04"/>
</svg>
