<svg width="48" height="48" viewBox="0 0 48 48" fill="none" xmlns="http://www.w3.org/2000/svg">
<path d="M41.5138 11.648C46.6126 20.5736 47.2928 29.2432 39.8059 36.286C32.0946 43.5397 20.7171 46.0732 11.4597 40.9379C2.08024 35.735 -2.09265 28.6403 1.01711 18.3738C3.56829 9.95141 13.7942 13.2501 22.5356 12.2459C31.1412 11.2574 37.0307 5.22126 41.5138 11.648Z" fill="white"/>
<mask id="mask0_6412_45859" style="mask-type:alpha" maskUnits="userSpaceOnUse" x="0" y="3" width="48" height="41">
<path d="M45.562 10.2442C50.6608 19.1698 47.2928 29.2423 39.8059 36.285C32.0946 43.5388 20.7171 46.0722 11.4597 40.9369C2.08024 35.734 -2.09265 28.6394 1.01711 18.3729C3.56829 9.95046 10.3271 4.49846 19.0685 3.49431C27.6741 2.50577 41.0789 3.81744 45.562 10.2442Z" fill="white"/>
</mask>
<g mask="url(#mask0_6412_45859)">
<path fill-rule="evenodd" clip-rule="evenodd" d="M26.2733 35.9783L26.7563 32.4042L35.8926 30.8762L36.5173 32.5946L26.2733 35.9783Z" fill="#FBBFA3"/>
<path d="M27.3912 35.3828C26.8691 35.9101 26.1016 36.1127 25.388 35.9124C24.3041 35.6084 23.6703 34.4792 23.9747 33.3957C24.0681 33.0622 24.2457 32.757 24.4881 32.512C25.0101 31.985 25.7776 31.782 26.4914 31.9826C27.0166 32.1299 27.4525 32.4732 27.7194 32.9484C27.9862 33.4239 28.0521 33.9746 27.9044 34.4997C27.8109 34.833 27.6331 35.1385 27.3911 35.3831L27.3912 35.3828Z" fill="#FBBFA3"/>
<path d="M36.1247 30.8424C36.602 30.8397 36.9913 31.2242 36.9944 31.7017C36.9971 32.179 36.6126 32.5683 36.1354 32.5713C35.6578 32.5741 35.2687 32.1895 35.2658 31.7122C35.2628 31.235 35.6476 30.8456 36.1248 30.8426L36.1247 30.8424Z" fill="#FBBFA3"/>
<path d="M39.688 31.5494C40.1973 31.2906 42.1187 30.2949 42.271 29.9859C42.3769 29.7708 41.9017 29.7773 41.5538 29.836C41.5075 29.844 41.4654 29.852 41.4298 29.8598C41.0585 29.941 40.2898 30.4922 39.9575 30.5437C39.8863 30.5548 39.8168 30.5704 39.7489 30.5894C39.3071 30.7128 38.9298 30.9728 38.5525 30.9638C38.1173 30.9534 37.5146 30.9106 37.419 30.6089C37.4328 30.566 37.4506 30.519 37.4719 30.4692C37.4851 30.4381 37.4998 30.4057 37.5157 30.3726C37.6428 30.1067 37.8489 29.7895 38.0738 29.5884C38.3715 29.3221 38.6295 28.7868 38.4495 28.6287C38.2035 28.4126 37.5003 28.8179 37.1342 29.3167C36.7361 29.6377 35.4618 30.627 35.1735 31.3441C35.1306 31.4508 35.1084 31.5702 35.0931 31.6726C35.003 32.2717 34.8701 31.551 34.766 32.3194C34.7587 32.3734 33.4279 31.8338 33.7708 32.748C33.7498 32.9755 34.5504 32.416 34.5451 32.748L35.0613 32.748C33.289 32.9696 35.4343 33.0574 35.4306 32.984C35.4188 32.7497 35.6417 32.9445 35.6522 32.7625C35.6683 32.4799 35.8737 32.984 37.3547 32.7919C38.0891 32.5409 39.2503 31.7727 39.6272 31.5804L39.688 31.5494Z" fill="#FBBFA3"/>
<path d="M23.451 33.0049C22.897 31.4273 21.5195 27.3654 20.6479 25.3536L20.6486 25.3533C20.5772 25.2045 20.521 25.0458 20.4871 24.8764C20.2709 23.7948 20.9659 22.7441 22.0392 22.5295C22.9274 22.352 23.7948 22.8036 24.1907 23.5771L24.1916 23.5768C25.0006 25.1083 26.3131 28.3324 27.3226 31.1982C26.4105 32.0295 23.7838 32.8829 23.451 33.0049Z" fill="#00407A"/>
<path fill-rule="evenodd" clip-rule="evenodd" d="M23.3796 33.0625L27.3251 30.9405L27.8413 32.231L23.7941 34.3884L23.3796 33.0625Z" fill="#00315E"/>
<path d="M25.0566 39.5427C27.6719 46.77 23.8373 58.3526 23.8373 58.3526C23.8373 58.3526 18.1425 60.9966 12.9156 58.7789L10.9782 50.0661C10.9782 50.0661 9.49201 42.9536 13.8288 39.7964C18.1658 36.6392 25.0566 39.5427 25.0566 39.5427Z" fill="#00315E"/>
<path d="M22.9211 30.0326C24.2093 28.7081 24.1348 27.4951 23.6337 26.5423C23.6533 26.5253 23.6738 26.5099 23.6931 26.4922C24.1544 26.0627 24.4208 25.4791 24.443 24.8492C24.453 24.5704 24.4146 24.2957 24.3286 24.0325C24.0845 23.2843 23.4795 22.7228 22.7446 22.5067C22.7448 22.5055 22.7455 22.5011 22.7455 22.5011C22.7455 22.5011 22.585 22.4049 19.6012 21.6648C17.8299 21.1937 15.9148 20.149 12.6114 22.2432C11.862 22.9267 10.2675 23.4096 8.99025 24.6279C8.56419 24.9007 8.22293 25.3044 8.04193 25.799C7.82482 26.3909 7.85161 27.0318 8.1167 27.6037C8.38203 28.1756 8.85421 28.6098 9.44612 28.8264C9.70795 28.9226 9.98097 28.9713 10.2575 28.9713C10.3753 28.9713 10.4914 28.9613 10.6055 28.9441C11.2752 30.7616 12.828 35.5979 12.828 35.5979C11.8331 39.7523 11.0656 43.3636 10.4196 47.5858C16.5603 50.791 24.4642 47.3878 26.1444 46.5056C27.0075 46.0528 23.3209 31.2973 22.9211 30.0322V30.0326Z" fill="#00407A"/>
<path d="M24.3284 24.0303C24.4144 24.2936 24.4526 24.568 24.4428 24.8468C24.4204 25.4767 24.154 26.0603 23.6927 26.4898C23.2313 26.9194 22.6302 27.1437 22.0004 27.1209C21.0143 27.0862 20.1463 26.4323 19.8405 25.4949C19.7545 25.2317 19.7163 24.9572 19.7261 24.6784C19.7725 23.378 20.8682 22.3577 22.1686 22.4038C23.1546 22.4393 24.0226 23.0927 24.3284 24.0301V24.0303Z" fill="#00407A"/>
<path d="M17.596 22.5253C17.0603 22.8344 16.6395 22.9959 16.0383 23.0105C15.145 23.0348 14.8188 22.5122 14.5207 22.4328L11.623 15.7422L16.8646 18.1048L16.8767 18.3268L17.5958 22.5255L17.596 22.5253Z" fill="#FBBFA3"/>
<path d="M11.2131 43.4231C11.4598 43.8673 11.2996 44.4276 10.8553 44.6743C10.4109 44.921 9.85063 44.7607 9.60417 44.3165C9.35748 43.8722 9.51751 43.312 9.96197 43.0651C10.4062 42.8184 10.9667 42.9786 11.2131 43.4229V43.4231Z" fill="#FBBFA3"/>
<path d="M11.2155 43.4221C11.6984 43.9185 13.0043 43.6269 13.5291 43.7913C14.054 43.9558 14.1301 44.6807 14.1301 44.6807C14.1301 44.6807 14.5336 45.135 14.6796 45.443C14.8259 45.7509 14.5744 46.0163 14.0998 46.0207C13.6253 46.0249 13.8525 46.525 13.4408 46.7645C13.0292 47.0042 12.6649 46.7729 12.3945 47.301C12.1242 47.8291 9.73047 44.4874 9.73047 44.4874L11.2155 43.4219V43.4221Z" fill="#FBBFA3"/>
<path d="M5.15521 37.6337C4.91598 37.6337 4.68 37.5918 4.45335 37.5091C3.94133 37.3213 3.53321 36.9456 3.30375 36.451C3.0743 35.9562 3.05147 35.4023 3.23899 34.8903C3.53227 34.0891 4.30239 33.5508 5.15544 33.5508C5.39467 33.5508 5.63089 33.5927 5.85708 33.6754C6.36909 33.8632 6.77722 34.2389 7.00667 34.7335C7.23612 35.2283 7.25918 35.7822 7.07142 36.2943C6.77814 37.0954 6.00779 37.6337 5.15475 37.6337H5.15521Z" fill="#3D3433"/>
<path d="M10.2575 28.9713C9.98074 28.9713 9.70796 28.9226 9.44589 28.8263C8.85398 28.6097 8.38203 28.1755 8.1167 27.6036C7.85161 27.0314 7.82482 26.3906 8.04193 25.7987C8.3811 24.8722 9.27188 24.25 10.2579 24.25C10.5347 24.25 10.8077 24.2987 11.0695 24.3944C12.2913 24.8422 12.9212 26.2003 12.4737 27.4223C12.1343 28.349 11.2438 28.9713 10.2577 28.9713H10.2575Z" fill="#00407A"/>
<path fill-rule="evenodd" clip-rule="evenodd" d="M3.37109 36.5808L7.13434 36.168L11.2163 43.4233L10.0539 44.9281L3.37109 36.5808Z" fill="#FBBFA3"/>
<path d="M5.15764 37.6335C4.4157 37.6335 3.73154 37.231 3.37164 36.5829C2.82515 35.5989 3.18109 34.3538 4.16506 33.8077C4.46789 33.6395 4.80985 33.5508 5.15414 33.5508C5.89608 33.5508 6.58024 33.9533 6.94014 34.6014C7.205 35.078 7.26813 35.6294 7.11834 36.1536C6.96833 36.6777 6.62333 37.1122 6.14673 37.3768C5.84413 37.545 5.50194 37.6337 5.15788 37.6337L5.15764 37.6335Z" fill="#FBBFA3"/>
<path d="M7.991 9.78538C8.78372 6.17741 21.3531 2.02527 21.2911 8.54956C21.2706 10.7151 20.0746 13.275 20.4227 15.3007C20.7416 17.1564 20.2466 17.8476 18.5749 18.943C16.9154 20.0306 17.3173 18.6734 14.8904 19.4429C12.4848 20.2058 8.95214 19.7133 8.22022 16.6104C7.67839 14.313 7.55842 11.7538 7.99076 9.78538H7.991Z" fill="#1A1A1A"/>
<path d="M8.86209 17.8238C10.4751 17.8238 11.7828 16.1764 11.7828 14.1443C11.7828 12.1122 10.4751 10.4648 8.86209 10.4648C7.24904 10.4648 5.94141 12.1122 5.94141 14.1443C5.94141 16.1764 7.24904 17.8238 8.86209 17.8238Z" fill="#1A1A1A"/>
<path d="M13.5486 21.7892L14.1002 21.4624L11.6582 15.8242L16.8182 18.15L16.8301 18.3685L17.3519 21.0892L17.685 21.1781C17.8571 22.2052 18.2606 23.8489 17.1303 24.1907C16.1126 24.4982 13.8579 22.7592 13.5486 21.7892Z" fill="#FBBFA3"/>
<path d="M16.1181 20.4562C15.553 20.39 15.0507 20.2305 14.5338 19.9942C14.0456 19.7713 13.5748 19.5155 13.1271 19.2243L11.6562 15.8281L16.8162 18.1539L16.8281 18.3724L17.2022 20.5561C16.8412 20.5202 16.4787 20.4983 16.1181 20.4559V20.4562Z" fill="#F9AF91"/>
<path d="M9.91397 12.3181C9.91397 12.3181 8.01942 11.9114 8.26634 14.0392C8.51326 16.1667 10.0537 16.2093 10.5082 16.3011C10.5082 16.3011 11.3561 20.0901 16.0302 19.7271C20.7043 19.3644 19.9379 15.7451 19.9036 13.3452C19.8694 10.9451 20.137 6.7778 17.0778 6.47077C13.9917 6.16094 9.64282 6.36384 9.91397 12.3183V12.3181Z" fill="#FBBFA3"/>
<path d="M14.9645 13.3418C14.9801 13.6882 14.7122 13.9819 14.3656 13.9975C14.0192 14.0134 13.7255 13.7452 13.7096 13.3988C13.694 13.0524 13.9619 12.7587 14.3083 12.7429C14.6547 12.727 14.9484 12.9951 14.9643 13.3418H14.9645Z" fill="#1A1A1A"/>
<path d="M18.1635 13.3418C18.1791 13.6882 17.9112 13.9819 17.5648 13.9975C17.2184 14.0134 16.9247 13.7452 16.9089 13.3988C16.893 13.0524 17.1611 12.7587 17.5075 12.7429C17.8539 12.727 18.1477 12.9951 18.1635 13.3418Z" fill="#1A1A1A"/>
<path d="M14.6819 15.6484C15.5224 16.1591 16.6424 16.409 17.6201 16.3042C17.3294 17.072 17.0221 17.6008 15.8925 17.4207C14.9673 17.2735 14.4804 16.4545 14.6817 15.6484H14.6819Z" fill="#AF4652"/>
<path d="M14.6377 16.0079C14.5769 16.6779 15.0873 17.3581 15.874 17.4832C16.2087 17.5366 16.4875 17.4637 16.6988 17.4047C16.7811 17.1443 16.8633 16.8841 16.9455 16.6239C16.239 16.4284 15.5322 16.233 14.8257 16.0377C14.7658 16.0212 14.6997 16.0063 14.6377 16.0079Z" fill="white"/>
<path d="M14.791 16.1359C15.0603 16.4548 15.4419 16.6652 15.8418 16.7835C16.1689 16.8802 16.5097 16.9189 16.851 16.9345C16.8836 16.8315 16.916 16.7286 16.9486 16.6258C16.3259 16.4537 15.703 16.2815 15.0801 16.1094L14.791 16.1362V16.1359Z" fill="#E6E8EB"/>
<path d="M17.2656 16.3261C17.2041 16.4996 17.1547 16.635 17.1244 16.6772C17.0792 16.7401 15.7568 16.8589 14.6389 16.0969C14.63 15.9499 14.6319 15.8315 14.681 15.6484C15.3352 16.0403 16.4917 16.3226 17.2653 16.3261H17.2656Z" fill="white"/>
<path d="M15.218 11.876C15.2422 11.8427 15.1504 11.7185 14.938 11.5974C14.73 11.4765 14.3857 11.3737 14.013 11.4096C13.6263 11.4464 13.3176 11.6118 13.1334 11.7702C13.0404 11.8494 12.9773 11.9237 12.9405 11.9836C12.9051 12.0418 12.8964 12.081 12.9111 12.097C12.9263 12.1133 12.9663 12.1019 13.025 12.0742C13.0814 12.046 13.1604 12.0067 13.2577 11.958C13.4485 11.8632 13.7285 11.7569 14.0365 11.7271C14.3587 11.6966 14.6433 11.7488 14.8518 11.8051C15.0596 11.8608 15.1919 11.9139 15.2182 11.8757L15.218 11.876Z" fill="#1A1A1A"/>
<path d="M17.0187 11.7958C17.0517 11.8282 17.1717 11.7511 17.365 11.6569C17.5591 11.5619 17.8286 11.4566 18.1508 11.4256C18.4587 11.3963 18.7536 11.4475 18.9591 11.5041C19.0639 11.5335 19.1489 11.5572 19.2097 11.574C19.2726 11.5901 19.3141 11.5938 19.326 11.5747C19.3374 11.5563 19.3213 11.5193 19.2757 11.469C19.2279 11.4172 19.1517 11.3562 19.0455 11.2961C18.8345 11.1757 18.5002 11.072 18.1133 11.1093C17.7406 11.1449 17.4219 11.3112 17.2409 11.4692C17.055 11.6283 16.9886 11.7676 17.0187 11.7958Z" fill="#1A1A1A"/>
<path d="M8.63273 13.2673C8.47013 13.8304 8.70098 14.4239 8.92787 14.9644C8.99519 15.1251 9.06974 15.2945 9.2137 15.3928C9.35742 15.4911 9.59224 15.4759 9.66772 15.3192C9.74063 15.1673 9.63278 14.9965 9.54868 14.8505C9.46436 14.7046 9.41659 14.4859 9.55823 14.3946C9.62392 14.3522 9.71035 14.3557 9.77976 14.3191C9.93048 14.2397 9.92954 14.0242 9.89064 13.8581C9.83706 13.6282 9.75134 13.4059 9.6372 13.1993C9.52515 12.9966 9.34835 12.7891 9.1168 12.793C8.87453 12.7972 8.69982 13.0346 8.6325 13.2673H8.63273Z" fill="#F9AF91"/>
<path d="M9.91543 12.3184C12.4308 11.7542 15.962 10.4678 16.6026 7.84594C16.6026 7.84594 17.8377 10.7595 21.1532 12.1565C21.1532 12.1565 20.9429 6.08203 16.8833 6.08203C12.824 6.08203 10.5977 6.82701 9.91519 9.33986C9.39409 11.2582 9.91519 12.3184 9.91519 12.3184H9.91543Z" fill="#1A1A1A"/>
<path d="M9.91406 12.3199C9.92711 12.9715 10.6581 15.3052 10.6581 15.3052C10.6581 15.3052 10.5174 12.1438 10.9393 11.4752C11.3611 10.8066 9.91406 12.3199 9.91406 12.3199Z" fill="#1A1A1A"/>
<path d="M14.3341 15.8294C14.3655 16.521 13.8305 17.1074 13.1388 17.1388C12.4472 17.1703 11.8609 16.6352 11.8294 15.9436C11.798 15.2517 12.3331 14.6656 13.0249 14.6341C13.7165 14.6027 14.3029 15.1378 14.3343 15.8296L14.3341 15.8294Z" fill="#F9AF91"/>
<path d="M19.9297 15.5752C19.9602 16.2463 19.4409 16.815 18.7698 16.8457C18.0987 16.8762 17.5301 16.357 17.4993 15.6859C17.4688 15.0147 17.9883 14.4461 18.6592 14.4153C19.3303 14.3848 19.8991 14.9041 19.9297 15.5752Z" fill="#F9AF91"/>
<path d="M16.7663 15.0838C16.8471 15.1665 16.7218 15.4027 16.4332 15.4586C16.1446 15.5138 15.9403 15.341 15.9845 15.2343C16.0255 15.1231 16.1879 15.0787 16.3533 15.0432C16.5198 15.0148 16.6871 14.996 16.7663 15.0838Z" fill="#F69C7C"/>
<path d="M3.14453 35.2363L3.23794 34.8868C3.34626 34.5933 6.51596 27.6716 8.35158 25.2161L8.50742 25.0078L12.3396 27.7247L12.2043 27.9386C10.6852 30.3385 8.22393 33.6741 7.13327 36.1674L3.14476 35.2365L3.14453 35.2363Z" fill="#00407A"/>
<path fill-rule="evenodd" clip-rule="evenodd" d="M19.1363 36.1732C19.2691 36.1608 19.4019 36.1485 19.5345 36.1361C19.4685 31.028 19.3006 25.3873 19.6022 21.6626C19.5603 21.6537 19.5158 21.6414 19.4688 21.626C18.8067 21.4408 18.1202 21.1895 17.3457 21.0625L17.351 21.0902L17.6842 21.1792C17.8498 22.1665 18.2286 23.7231 17.2539 24.1461C17.8663 26.4246 19.1538 30.7004 19.1363 36.1732Z" fill="#00315E"/>
<path fill-rule="evenodd" clip-rule="evenodd" d="M13.4355 27.2297C13.4372 27.2353 13.4407 27.2402 13.4463 27.2434L13.7263 27.4172C13.7312 27.4202 13.7367 27.4216 13.7423 27.4212C13.7437 27.4212 13.7449 27.4209 13.7461 27.4207L13.7097 27.0859L13.4355 27.2297Z" fill="#FEFEFE"/>
<path fill-rule="evenodd" clip-rule="evenodd" d="M13.7083 27.0722L13.6899 26.9038C13.6885 26.8893 13.6743 26.8872 13.6685 26.8954L13.4395 27.2068C13.4377 27.2094 13.4365 27.2122 13.4355 27.2152L13.7044 27.0743L13.7083 27.0722Z" fill="#FEFEFE"/>
<path fill-rule="evenodd" clip-rule="evenodd" d="M14.1455 26.8574L13.7227 27.079L13.7231 27.0834L13.759 27.4151C13.7618 27.4135 13.7641 27.4112 13.7662 27.4086L14.1592 26.8735C14.1673 26.8626 14.1578 26.8507 14.1452 26.8574H14.1455Z" fill="#FEFEFE"/>
<path fill-rule="evenodd" clip-rule="evenodd" d="M13.2151 27.8772L13.213 27.8378C13.213 27.8378 13.1997 27.8557 13.172 27.873C13.1567 27.8825 13.1375 27.8862 13.1163 27.8874C13.0802 27.889 13.0528 27.8809 13.0334 27.8625C13.0141 27.8441 13.0036 27.8168 13.002 27.7805L12.9922 27.5804L13.0758 27.5764L13.0844 27.7556C13.0856 27.7777 13.0903 27.794 13.0987 27.8047C13.107 27.8154 13.1198 27.8203 13.1371 27.8194C13.1604 27.8182 13.1771 27.8096 13.1867 27.7935C13.1965 27.7775 13.2004 27.7511 13.1986 27.715L13.1916 27.5706L13.2752 27.5664L13.2904 27.8732L13.2151 27.8769V27.8772Z" fill="#FEFEFE"/>
<path fill-rule="evenodd" clip-rule="evenodd" d="M13.6497 27.8541L13.5661 27.8583L13.5572 27.6792C13.5561 27.657 13.5514 27.6405 13.543 27.63C13.5347 27.6193 13.5218 27.6144 13.5046 27.6153C13.4813 27.6165 13.4645 27.6251 13.455 27.6412C13.4454 27.6573 13.4412 27.6834 13.4431 27.7197L13.4501 27.8641L13.3665 27.8681L13.3516 27.5613L13.4154 27.5583L13.417 27.5969C13.417 27.5969 13.4389 27.5743 13.4701 27.5613C13.4867 27.5543 13.5046 27.5482 13.5253 27.5471C13.561 27.5454 13.5885 27.5536 13.608 27.572C13.6274 27.5904 13.6381 27.6179 13.6399 27.6542L13.6497 27.8543V27.8541Z" fill="#FEFEFE"/>
<path fill-rule="evenodd" clip-rule="evenodd" d="M13.8075 27.8459L13.7239 27.85L13.709 27.543L13.7926 27.5391L13.8075 27.8459Z" fill="#FEFEFE"/>
<path fill-rule="evenodd" clip-rule="evenodd" d="M13.9873 27.8366L13.8555 27.5354L13.9431 27.5309L14.0108 27.7029C14.0178 27.7215 14.0255 27.7383 14.0255 27.7383C14.0255 27.7383 14.0311 27.7231 14.0372 27.7015L14.0877 27.5237L14.1753 27.5195L14.0735 27.8322L13.9875 27.8363L13.9873 27.8366Z" fill="#FEFEFE"/>
<path fill-rule="evenodd" clip-rule="evenodd" d="M14.3706 27.8256C14.3212 27.8279 14.2819 27.8163 14.2527 27.7902C14.2236 27.7643 14.2078 27.7264 14.2054 27.6765C14.2029 27.625 14.2138 27.5847 14.2383 27.5554C14.2625 27.526 14.2975 27.5102 14.3429 27.5081C14.3862 27.506 14.4205 27.5167 14.4461 27.5402C14.4715 27.5638 14.4852 27.5973 14.4873 27.6409L14.4892 27.6814L14.2912 27.6909C14.2933 27.7147 14.3012 27.7329 14.3149 27.7457C14.3287 27.7585 14.3475 27.7643 14.3715 27.7629C14.3899 27.762 14.4074 27.7592 14.4237 27.7548C14.44 27.7501 14.457 27.7431 14.4745 27.7338L14.4778 27.7986C14.4635 27.8065 14.4479 27.8128 14.4316 27.8172C14.4151 27.8216 14.3948 27.8244 14.3708 27.8256H14.3706ZM14.3461 27.5677C14.3284 27.5686 14.3147 27.5749 14.3051 27.5866C14.2956 27.5982 14.2907 27.6145 14.2902 27.6353L14.4076 27.6294C14.4062 27.6087 14.3999 27.5931 14.389 27.5824C14.3781 27.5717 14.3636 27.5668 14.3459 27.5677H14.3461Z" fill="#FEFEFE"/>
<path fill-rule="evenodd" clip-rule="evenodd" d="M14.7159 27.4885C14.7273 27.488 14.7366 27.4883 14.7443 27.4897L14.7418 27.5684C14.7348 27.567 14.7266 27.5663 14.7168 27.5668C14.69 27.5682 14.6695 27.5759 14.6553 27.5905C14.6411 27.605 14.6346 27.6245 14.6358 27.6492L14.6435 27.8053L14.5598 27.8095L14.5449 27.5027L14.6083 27.4997L14.6108 27.5547C14.6108 27.5547 14.6295 27.5258 14.6609 27.5064C14.6775 27.4964 14.6968 27.4897 14.7159 27.4887V27.4885Z" fill="#FEFEFE"/>
<path fill-rule="evenodd" clip-rule="evenodd" d="M15.0389 27.6967C15.0403 27.7282 15.0307 27.7529 15.0095 27.7704C14.9886 27.7878 14.9562 27.7976 14.9126 27.7997C14.8903 27.8009 14.8712 27.8002 14.8553 27.7981C14.8393 27.796 14.8246 27.792 14.8104 27.7869L14.8069 27.7177C14.8227 27.7242 14.8407 27.7296 14.8605 27.7335C14.8803 27.7375 14.8975 27.7391 14.9122 27.7384C14.9425 27.737 14.9574 27.7275 14.9564 27.71C14.956 27.7035 14.9539 27.6981 14.9494 27.6942C14.9453 27.6902 14.938 27.686 14.9278 27.6811C14.9178 27.6765 14.9042 27.6711 14.8875 27.6648C14.8633 27.656 14.8455 27.6478 14.8341 27.6399C14.8227 27.632 14.8141 27.6227 14.8085 27.6122C14.8029 27.6015 14.7999 27.5882 14.799 27.5723C14.7976 27.5451 14.8071 27.5234 14.8276 27.5076C14.8481 27.4915 14.8777 27.4827 14.9164 27.4808C14.9534 27.4789 14.9897 27.4852 15.0254 27.4997L15.003 27.5614C14.9872 27.5556 14.9727 27.5509 14.959 27.5472C14.9455 27.5437 14.9317 27.5423 14.9178 27.5428C14.8931 27.5439 14.881 27.5514 14.8817 27.5647C14.8821 27.5721 14.8863 27.5784 14.8947 27.5835C14.9029 27.5886 14.9208 27.5959 14.9483 27.6054C14.9727 27.614 14.9907 27.6222 15.0023 27.6301C15.014 27.638 15.0226 27.6473 15.0284 27.6581C15.0342 27.6688 15.0375 27.6818 15.0384 27.697L15.0389 27.6967Z" fill="#FEFEFE"/>
<path fill-rule="evenodd" clip-rule="evenodd" d="M15.3116 27.7713L15.3091 27.7271C15.2958 27.7455 15.2641 27.762 15.2494 27.7697C15.2348 27.7772 15.2157 27.7816 15.1917 27.7828C15.1623 27.7841 15.1386 27.7769 15.1209 27.7609C15.1032 27.7448 15.0936 27.7213 15.092 27.69C15.0903 27.6574 15.1006 27.633 15.1225 27.6162C15.1446 27.5997 15.1786 27.5894 15.2243 27.5857L15.2774 27.5813L15.2767 27.568C15.2753 27.537 15.2585 27.5221 15.2266 27.5235C15.2022 27.5249 15.1737 27.5335 15.1414 27.55L15.1108 27.4948C15.1453 27.4746 15.184 27.4634 15.2268 27.4613C15.2681 27.4592 15.3 27.4666 15.3228 27.4836C15.3456 27.5004 15.358 27.5272 15.3599 27.5638L15.3699 27.7683L15.3114 27.7711L15.3116 27.7713ZM15.2799 27.6304L15.2476 27.633C15.2234 27.6348 15.2054 27.6402 15.1938 27.6488C15.1824 27.6574 15.177 27.67 15.1777 27.6863C15.1789 27.7101 15.1931 27.721 15.2201 27.7199C15.2394 27.7189 15.2548 27.7126 15.2657 27.701C15.2769 27.6893 15.2821 27.6742 15.2811 27.6556L15.2797 27.6304H15.2799Z" fill="#FEFEFE"/>
<path fill-rule="evenodd" clip-rule="evenodd" d="M15.5284 27.7632L15.4446 27.7671L15.4238 27.3399L15.5075 27.3359L15.5284 27.7632Z" fill="#FEFEFE"/>
<path fill-rule="evenodd" clip-rule="evenodd" d="M15.7326 27.4441C15.7722 27.4423 15.8037 27.4544 15.8265 27.4807C15.8493 27.507 15.8621 27.5448 15.8645 27.5937C15.8668 27.6435 15.8577 27.6824 15.8372 27.7106C15.8165 27.7388 15.7866 27.754 15.7477 27.7558C15.7275 27.7568 15.7091 27.7542 15.693 27.7477C15.6767 27.7411 15.6632 27.7309 15.6525 27.7169L15.6539 27.7551L15.6049 27.7574L15.584 27.3305L15.6334 27.3281L15.6385 27.4318C15.6394 27.4525 15.6415 27.4938 15.6415 27.4938C15.6604 27.4628 15.6907 27.4462 15.7326 27.4441ZM15.7263 27.4854C15.696 27.4868 15.6746 27.4965 15.6623 27.5142C15.6499 27.5322 15.6448 27.5615 15.6466 27.6025L15.6469 27.6046C15.6487 27.6459 15.6571 27.675 15.6713 27.692C15.6855 27.709 15.7079 27.7167 15.7387 27.7153C15.7659 27.7139 15.7855 27.7032 15.7978 27.6824C15.8102 27.6619 15.8155 27.6331 15.8137 27.5956C15.8118 27.5576 15.8036 27.5292 15.7894 27.5108C15.7752 27.4924 15.754 27.484 15.7266 27.4854H15.7263Z" fill="#FEFEFE"/>
<path fill-rule="evenodd" clip-rule="evenodd" d="M16.0776 27.7344C16.0371 27.7363 16.0054 27.7233 15.9821 27.6953L15.9905 27.8684L15.9411 27.8707L15.9199 27.4344L15.9679 27.4321L15.9693 27.4733C15.9693 27.4733 15.9896 27.4458 16.0103 27.4356C16.0254 27.4279 16.0429 27.423 16.063 27.4221C16.1021 27.4202 16.1333 27.4323 16.1561 27.4584C16.1792 27.4845 16.192 27.5222 16.1943 27.5716C16.1967 27.6208 16.1878 27.6597 16.1673 27.6886C16.1468 27.7172 16.117 27.7326 16.0776 27.7344ZM16.0562 27.464C16.0264 27.4654 16.0052 27.4749 15.9928 27.4924C15.9805 27.5099 15.9749 27.5367 15.9763 27.5728L15.9768 27.5823C15.9786 27.6231 15.987 27.6522 16.0015 27.6699C16.0159 27.6874 16.0383 27.6955 16.0688 27.6941C16.0939 27.6927 16.1133 27.6816 16.1265 27.6606C16.1396 27.6394 16.1454 27.6105 16.1436 27.5739C16.1417 27.5371 16.1333 27.5094 16.1182 27.4905C16.103 27.4717 16.0825 27.4631 16.0564 27.4642L16.0562 27.464Z" fill="#FEFEFE"/>
<path fill-rule="evenodd" clip-rule="evenodd" d="M16.3941 27.4066C16.4074 27.4059 16.4193 27.4063 16.4298 27.4082L16.4261 27.4541C16.4146 27.452 16.4037 27.4513 16.3932 27.4518C16.3771 27.4527 16.3627 27.4578 16.3494 27.4671C16.3361 27.4767 16.3261 27.4893 16.3191 27.5051C16.3122 27.5209 16.3091 27.5384 16.3101 27.5573L16.3182 27.7236L16.2688 27.7259L16.2539 27.4191L16.2996 27.4168L16.3026 27.472C16.3026 27.472 16.3282 27.4357 16.3436 27.4245C16.3587 27.4135 16.3757 27.4075 16.3941 27.4066Z" fill="#FEFEFE"/>
<path d="M17.267 24.1406C19.0469 28.8178 20.1956 42.2645 20.2834 48.5121L20.1222 48.5139C20.0339 42.2461 18.8811 28.9294 17.1074 24.1982L17.1279 24.1928C17.1771 24.1779 17.2234 24.1604 17.267 24.1406Z" fill="#00315E"/>
<path fill-rule="evenodd" clip-rule="evenodd" d="M19.0431 36.6406L19.4412 36.6777L20.4478 48.476C19.0214 48.7793 17.4453 48.974 15.8398 48.9219C17.8853 47.3292 19.0606 42.1362 19.0429 36.6406H19.0431Z" fill="#00315E"/>
<path fill-rule="evenodd" clip-rule="evenodd" d="M12.5445 36.6271L24.3258 35.4609L24.4954 36.1989L12.373 37.3481L12.5445 36.6271Z" fill="#1A1A1A"/>
<path fill-rule="evenodd" clip-rule="evenodd" d="M19.1836 36.9141C18.8647 36.943 18.5826 36.7081 18.5532 36.3892C18.5241 36.0703 18.7589 35.7882 19.078 35.7591L19.56 35.7151C19.5726 35.7139 19.5838 35.7174 19.5936 35.7253C19.6033 35.7335 19.6087 35.7439 19.6099 35.7563L19.6257 35.9275L19.0978 35.9757C18.8989 35.9939 18.7519 36.1703 18.7703 36.3692C18.7885 36.5684 18.9646 36.7151 19.1638 36.6967L19.6916 36.6485L19.7072 36.8197C19.7096 36.8449 19.6909 36.8672 19.6658 36.8696L19.1836 36.9136V36.9141Z" fill="#CCCCCC"/>
<path fill-rule="evenodd" clip-rule="evenodd" d="M18.8832 36.4465C18.8352 36.4505 18.7933 36.4148 18.7894 36.3671C18.7854 36.3191 18.821 36.2771 18.8688 36.2732L19.1945 36.2464C19.2424 36.2424 19.2844 36.2781 19.2883 36.3258C19.2923 36.3736 19.2566 36.4155 19.2089 36.4195L18.8832 36.4463V36.4465Z" fill="#CCCCCC"/>
<path fill-rule="evenodd" clip-rule="evenodd" d="M20.1399 28.5852L20.6305 28.5645L20.8227 28.4433C20.8418 28.4312 20.8609 28.4254 20.8832 28.4245L21.272 28.4102C21.2923 28.4095 21.3095 28.413 21.3279 28.4217L21.5518 28.5258L22.0815 28.5034C22.126 28.5016 22.1642 28.5365 22.1661 28.5812L22.2916 31.5663C22.2935 31.611 22.2586 31.649 22.2141 31.6509L20.2727 31.7324C20.2282 31.7342 20.19 31.6993 20.1881 31.6548L20.0626 28.6695C20.0607 28.6248 20.0957 28.5868 20.1401 28.585L20.1399 28.5852Z" fill="#B3B3B3"/>
<path d="M22.0411 28.575L20.1869 28.653C20.1441 28.6548 20.1108 28.691 20.1126 28.7338L20.2325 31.5849C20.2343 31.6277 20.2705 31.661 20.3134 31.6592L22.1675 31.5812C22.2104 31.5794 22.2436 31.5432 22.2418 31.5004L22.122 28.6493C22.1202 28.6065 22.084 28.5732 22.0411 28.575Z" fill="#E6E6E6"/>
<path fill-rule="evenodd" clip-rule="evenodd" d="M20.7662 29.0914L20.7657 29.081C20.7657 29.081 20.7622 29.0856 20.7548 29.0903C20.7506 29.0928 20.7455 29.0938 20.7397 29.094C20.7301 29.0945 20.7226 29.0921 20.7175 29.087C20.7124 29.0821 20.7096 29.0747 20.7091 29.0651L20.707 29.0113L20.7294 29.0104L20.7315 29.0586C20.7317 29.0647 20.7329 29.0688 20.7352 29.0719C20.7373 29.0747 20.7408 29.0761 20.7455 29.0758C20.7518 29.0756 20.7562 29.0733 20.7587 29.0688C20.7613 29.0644 20.7625 29.0574 20.762 29.0477L20.7604 29.0087L20.7827 29.0078L20.7862 29.0903L20.766 29.0912L20.7662 29.0914Z" fill="#00407A"/>
<path fill-rule="evenodd" clip-rule="evenodd" d="M20.8841 29.0867L20.8618 29.0876L20.8597 29.0394C20.8594 29.0333 20.858 29.0291 20.8559 29.0261C20.8538 29.0233 20.8503 29.0219 20.8457 29.0221C20.8394 29.0224 20.835 29.0247 20.8324 29.0291C20.8298 29.0336 20.8287 29.0405 20.8291 29.0503L20.8308 29.0892L20.8082 29.0902L20.8047 29.0077L20.8219 29.007L20.8224 29.0173C20.8224 29.0173 20.8284 29.0112 20.8366 29.0077C20.841 29.0058 20.8459 29.0042 20.8515 29.004C20.8611 29.0035 20.8685 29.0058 20.8736 29.011C20.8788 29.0159 20.8816 29.0233 20.882 29.0331L20.8844 29.0869L20.8841 29.0867Z" fill="#00407A"/>
<path fill-rule="evenodd" clip-rule="evenodd" d="M20.9245 29.0864L20.9019 29.0873L20.8984 29.0048L20.921 29.0039L20.9245 29.0864Z" fill="#00407A"/>
<path fill-rule="evenodd" clip-rule="evenodd" d="M20.9724 29.0807L20.9375 28.9996L20.961 28.9987L20.979 29.045C20.9808 29.0501 20.9829 29.0546 20.9829 29.0546C20.9829 29.0546 20.9846 29.0504 20.9862 29.0445L20.9999 28.997L21.0235 28.9961L20.9955 29.0797L20.9724 29.0807Z" fill="#00407A"/>
<path fill-rule="evenodd" clip-rule="evenodd" d="M21.0753 29.0814C21.062 29.0819 21.0516 29.0788 21.0439 29.0716C21.0362 29.0646 21.032 29.0544 21.0313 29.0411C21.0308 29.0273 21.0339 29.0164 21.0404 29.0087C21.0469 29.001 21.0565 28.9966 21.0686 28.9961C21.0802 28.9957 21.0893 28.9987 21.0963 29.005C21.103 29.0113 21.1065 29.0204 21.1072 29.032L21.1077 29.043L21.0546 29.0451C21.0551 29.0516 21.0572 29.0562 21.0609 29.0597C21.0646 29.0632 21.0695 29.0649 21.076 29.0644C21.0809 29.0642 21.0856 29.0635 21.09 29.0623C21.0944 29.0611 21.0989 29.0593 21.1035 29.0567L21.1042 29.0742C21.1003 29.0763 21.0963 29.0779 21.0919 29.0791C21.0874 29.0802 21.0819 29.0809 21.0756 29.0812L21.0753 29.0814ZM21.0693 29.012C21.0646 29.0122 21.0609 29.0138 21.0583 29.0169C21.0558 29.0201 21.0544 29.0243 21.0541 29.0299L21.0856 29.0285C21.0851 29.0229 21.0837 29.0187 21.0807 29.0159C21.0777 29.0129 21.0739 29.0117 21.069 29.012H21.0693Z" fill="#00407A"/>
<path fill-rule="evenodd" clip-rule="evenodd" d="M21.1711 28.9885C21.1742 28.9885 21.1767 28.9885 21.1788 28.989L21.1779 29.0102C21.176 29.0097 21.1739 29.0097 21.1711 29.0097C21.1639 29.0099 21.1585 29.012 21.1546 29.016C21.1506 29.02 21.149 29.0251 21.1492 29.0316L21.1511 29.0735L21.1285 29.0745L21.125 28.992L21.142 28.9913L21.1427 29.006C21.1427 29.006 21.1478 28.9983 21.1562 28.9929C21.1606 28.9904 21.166 28.9885 21.1711 28.9883V28.9885Z" fill="#00407A"/>
<path fill-rule="evenodd" clip-rule="evenodd" d="M21.2579 29.0461C21.2584 29.0545 21.2556 29.0613 21.2497 29.0659C21.2442 29.0706 21.2355 29.0731 21.2237 29.0736C21.2176 29.0738 21.2125 29.0736 21.2083 29.0731C21.2041 29.0724 21.2001 29.0715 21.1962 29.0701L21.1955 29.0515C21.1997 29.0533 21.2046 29.0547 21.2097 29.0559C21.215 29.0571 21.2197 29.0575 21.2237 29.0573C21.2318 29.0568 21.2358 29.0543 21.2355 29.0496C21.2355 29.048 21.2348 29.0464 21.2337 29.0454C21.2325 29.0443 21.2306 29.0431 21.2278 29.0419C21.2253 29.0405 21.2216 29.0391 21.2171 29.0375C21.2106 29.0352 21.206 29.0328 21.2029 29.0307C21.1999 29.0286 21.1976 29.0261 21.1959 29.0233C21.1945 29.0205 21.1936 29.0168 21.1934 29.0126C21.1931 29.0054 21.1957 28.9995 21.2011 28.9953C21.2067 28.9911 21.2146 28.9888 21.2251 28.9884C21.2351 28.9879 21.2446 28.9897 21.2544 28.9937L21.2484 29.0102C21.2442 29.0086 21.2402 29.0072 21.2367 29.0063C21.233 29.0054 21.2295 29.0049 21.2255 29.0049C21.219 29.0051 21.2157 29.007 21.2157 29.0107C21.2157 29.0128 21.2171 29.0144 21.2192 29.0158C21.2213 29.0172 21.2262 29.0193 21.2334 29.0219C21.24 29.0242 21.2449 29.0266 21.2479 29.0287C21.2509 29.0307 21.2532 29.0333 21.2549 29.0361C21.2563 29.0391 21.2572 29.0426 21.2574 29.0466L21.2579 29.0461Z" fill="#00407A"/>
<path fill-rule="evenodd" clip-rule="evenodd" d="M21.3285 29.0681L21.3278 29.0562C21.3243 29.0611 21.3157 29.0655 21.3117 29.0674C21.3078 29.0695 21.3027 29.0706 21.2961 29.0709C21.2882 29.0711 21.2819 29.0692 21.2773 29.0648C21.2726 29.0604 21.27 29.0541 21.2696 29.0459C21.2691 29.0371 21.2721 29.0306 21.278 29.0261C21.284 29.0217 21.2931 29.0189 21.3055 29.018L21.3197 29.0168L21.3194 29.0133C21.319 29.0049 21.3148 29.001 21.3061 29.0012C21.2996 29.0014 21.2919 29.0038 21.2831 29.0082L21.2749 28.9933C21.2843 28.9879 21.2947 28.9849 21.3061 28.9844C21.3171 28.984 21.3257 28.9861 21.3318 28.9905C21.3378 28.9951 21.3411 29.0021 21.3416 29.0122L21.3439 29.0669L21.3283 29.0676L21.3285 29.0681ZM21.3204 29.0301L21.3117 29.0308C21.3052 29.0313 21.3003 29.0327 21.2973 29.035C21.2943 29.0373 21.2926 29.0406 21.2929 29.045C21.2931 29.0513 21.2968 29.0543 21.3041 29.0541C21.3092 29.0539 21.3134 29.0522 21.3164 29.0492C21.3194 29.0462 21.3208 29.042 21.3206 29.0371L21.3204 29.0303V29.0301Z" fill="#00407A"/>
<path fill-rule="evenodd" clip-rule="evenodd" d="M21.3888 29.0638L21.3662 29.0648L21.3613 28.9502L21.3839 28.9492L21.3888 29.0638Z" fill="#00407A"/>
<path fill-rule="evenodd" clip-rule="evenodd" d="M21.4419 28.9809C21.4527 28.9804 21.461 28.9837 21.4671 28.9909C21.4732 28.9979 21.4767 29.0082 21.4771 29.0212C21.4778 29.0345 21.4752 29.045 21.4697 29.0526C21.4641 29.0601 21.4561 29.0641 21.4454 29.0645C21.4401 29.0648 21.4352 29.0641 21.4308 29.0622C21.4263 29.0603 21.4228 29.0575 21.42 29.0538L21.4203 29.0641L21.4072 29.0645L21.4023 28.9497L21.4156 28.9492L21.4168 28.9772C21.417 28.9828 21.4175 28.9937 21.4175 28.9937C21.4226 28.9856 21.4308 28.9811 21.4422 28.9807L21.4419 28.9809ZM21.4403 28.9921C21.4322 28.9925 21.4263 28.9949 21.4231 28.9998C21.4196 29.0044 21.4184 29.0123 21.4186 29.0235V29.0242C21.4191 29.0352 21.4212 29.0431 21.4252 29.0478C21.4291 29.0524 21.435 29.0545 21.4433 29.054C21.4506 29.0538 21.4559 29.0508 21.4592 29.0454C21.4627 29.0398 21.4638 29.0321 21.4636 29.0221C21.4631 29.0119 21.461 29.0044 21.4573 28.9993C21.4534 28.9944 21.4478 28.9921 21.4405 28.9923L21.4403 28.9921Z" fill="#336695"/>
<path fill-rule="evenodd" clip-rule="evenodd" d="M21.5361 29.0602C21.5251 29.0607 21.5167 29.0572 21.5104 29.0495L21.5123 29.0961L21.499 29.0966L21.4941 28.9794L21.5069 28.9789L21.5072 28.9901C21.5072 28.9901 21.5128 28.9829 21.5184 28.9801C21.5226 28.978 21.5272 28.9768 21.5326 28.9766C21.5431 28.9761 21.5514 28.9796 21.5575 28.9866C21.5636 28.9936 21.567 29.0039 21.5675 29.0171C21.568 29.0304 21.5654 29.0409 21.5601 29.0486C21.5545 29.0563 21.5466 29.0602 21.5358 29.0607L21.5361 29.0602ZM21.5307 28.9875C21.5228 28.988 21.517 28.9903 21.5137 28.995C21.5102 28.9997 21.5088 29.0069 21.5091 29.0167V29.0192C21.5095 29.0302 21.5116 29.0381 21.5156 29.0428C21.5193 29.0474 21.5254 29.0497 21.5335 29.0493C21.5403 29.049 21.5454 29.046 21.5491 29.0404C21.5526 29.0348 21.5542 29.0271 21.5538 29.0171C21.5533 29.0071 21.5512 28.9997 21.547 28.9948C21.5431 28.9896 21.5375 28.9873 21.5305 28.9875H21.5307Z" fill="#336695"/>
<path fill-rule="evenodd" clip-rule="evenodd" d="M21.6217 28.9727C21.6252 28.9725 21.6285 28.9727 21.6313 28.9732L21.6301 28.9856C21.6271 28.9851 21.6241 28.9846 21.6213 28.9849C21.6168 28.9851 21.6131 28.9863 21.6096 28.9888C21.6061 28.9914 21.6033 28.9946 21.6015 28.9988C21.5996 29.003 21.5987 29.0077 21.5989 29.0128L21.6008 29.0575L21.5875 29.0582L21.584 28.9758L21.5963 28.9753L21.597 28.9902C21.597 28.9902 21.604 28.9804 21.6082 28.9776C21.6122 28.9746 21.6168 28.9732 21.6217 28.973V28.9727Z" fill="#336695"/>
<path fill-rule="evenodd" clip-rule="evenodd" d="M20.8242 28.9162C20.8242 28.9185 20.8254 28.9208 20.8277 28.9222L20.9006 28.9681C20.9016 28.9688 20.9039 28.9698 20.9065 28.9693L20.8971 28.8789L20.8242 28.916V28.9162Z" fill="#D48500"/>
<path fill-rule="evenodd" clip-rule="evenodd" d="M20.8922 28.8308C20.892 28.8283 20.889 28.8271 20.8873 28.8292C20.8734 28.8478 20.8266 28.9098 20.8266 28.9098C20.8249 28.9119 20.8242 28.9138 20.8242 28.9159L20.8971 28.8788L20.8922 28.8308Z" fill="#DD9D33"/>
<path fill-rule="evenodd" clip-rule="evenodd" d="M20.8984 28.8795L20.9078 28.9699C20.9094 28.9694 20.9115 28.9685 20.9131 28.9659L21.0184 28.825C21.0205 28.8224 21.0177 28.8194 21.0151 28.8206L20.8987 28.8797L20.8984 28.8795Z" fill="#00407A"/>
<path fill-rule="evenodd" clip-rule="evenodd" d="M20.8544 30.3554C20.7992 30.3803 20.7481 30.4024 20.7039 30.4348C20.6578 30.4688 20.6503 30.5305 20.6484 30.6079L21.8006 30.5613C21.7883 30.4793 21.7841 30.4348 21.7358 30.3926C21.6972 30.3586 21.6343 30.3321 21.5756 30.3216C21.5879 30.1569 21.4749 30.2168 21.4992 30.0763C21.5068 30.0313 21.5285 29.9978 21.5315 29.9496C21.5362 29.8797 21.5162 29.8606 21.4931 29.8145C21.453 29.7345 21.5215 29.7446 21.3897 29.5901C21.3706 29.5678 21.3769 29.5694 21.3503 29.5519C21.2802 29.506 21.2497 29.5149 21.1574 29.499C20.9694 29.4669 20.9194 29.7057 20.8767 29.8571C20.832 30.0162 20.8923 30.0008 20.9096 30.1194C20.9173 30.1711 20.8942 30.2109 20.8711 30.2359C20.8252 30.2859 20.8492 30.3032 20.8546 30.3554H20.8544Z" fill="#B3B3B3"/>
<path d="M20.7373 31.4803C20.7334 31.4803 20.73 31.4798 20.7266 31.4788C20.7231 31.4776 20.7202 31.4759 20.7178 31.4734C20.7151 31.471 20.7132 31.4681 20.7117 31.4644C20.7102 31.4608 20.7093 31.4569 20.709 31.4523C20.7088 31.4477 20.7095 31.4435 20.7107 31.4399C20.7122 31.4362 20.7139 31.4331 20.7166 31.4304C20.719 31.4277 20.7219 31.4258 20.7251 31.4243C20.7283 31.4228 20.7319 31.4221 20.7355 31.4219C20.7392 31.4219 20.7424 31.4221 20.745 31.4233C20.7477 31.4243 20.7499 31.4258 20.7521 31.4275L20.7462 31.4362C20.7448 31.435 20.7431 31.434 20.7416 31.4336C20.7402 31.4328 20.7385 31.4326 20.7368 31.4326C20.7321 31.4328 20.7287 31.4345 20.7261 31.4379C20.7234 31.4413 20.7222 31.446 20.7224 31.4515C20.7226 31.4571 20.7241 31.4615 20.727 31.4647C20.73 31.4678 20.7336 31.4695 20.738 31.4693C20.7402 31.4693 20.7421 31.4686 20.7441 31.4676C20.7458 31.4666 20.7477 31.4654 20.7492 31.464L20.7548 31.4722C20.7523 31.4747 20.7494 31.4764 20.7462 31.4776C20.7431 31.4788 20.7402 31.4795 20.737 31.4798L20.7373 31.4803Z" fill="#666A6C"/>
<path d="M20.7742 31.4426L20.7987 31.4416C20.7985 31.4372 20.7975 31.4341 20.7956 31.4316C20.7936 31.4295 20.7907 31.4282 20.7868 31.4285C20.7834 31.4285 20.7807 31.4299 20.7783 31.4324C20.7759 31.4348 20.7744 31.4382 20.7742 31.4428V31.4426ZM20.7905 31.4764C20.7866 31.4767 20.7829 31.4762 20.7798 31.4749C20.7764 31.4737 20.7734 31.472 20.7708 31.4696C20.7681 31.4672 20.7661 31.4642 20.7644 31.4606C20.763 31.4569 20.762 31.453 20.7618 31.4484C20.7615 31.4438 20.7622 31.4399 20.7635 31.436C20.7647 31.4324 20.7666 31.4292 20.7688 31.4265C20.771 31.4239 20.7737 31.4219 20.7769 31.4205C20.7798 31.419 20.7829 31.4183 20.7863 31.418C20.7902 31.4178 20.7934 31.4185 20.7963 31.4195C20.7992 31.4207 20.8017 31.4224 20.8036 31.4246C20.8056 31.4268 20.8073 31.4295 20.8085 31.4329C20.8094 31.436 20.8102 31.4397 20.8102 31.4433C20.8102 31.4445 20.8102 31.4457 20.8102 31.447C20.8102 31.4482 20.8102 31.4489 20.8099 31.4496L20.7747 31.4511C20.7754 31.456 20.7773 31.4599 20.7805 31.4623C20.7834 31.4647 20.7873 31.4659 20.7917 31.4659C20.7941 31.4657 20.7963 31.4655 20.7985 31.4645C20.8004 31.4638 20.8026 31.4628 20.8046 31.4613L20.8092 31.4694C20.8068 31.4713 20.8039 31.4728 20.8007 31.474C20.7975 31.4752 20.7941 31.4759 20.7907 31.4762L20.7905 31.4764Z" fill="#666A6C"/>
<path d="M20.8452 31.4639C20.8487 31.4636 20.8518 31.462 20.8539 31.4587C20.856 31.4557 20.8571 31.451 20.8569 31.445C20.8566 31.4396 20.8555 31.4354 20.8536 31.4326C20.8518 31.4296 20.8487 31.4282 20.8448 31.4284C20.841 31.4287 20.8371 31.4308 20.8334 31.435L20.8343 31.4597C20.8364 31.4613 20.8383 31.4622 20.8401 31.4629C20.842 31.4636 20.8436 31.4639 20.8452 31.4639ZM20.8233 31.4948L20.8203 31.4205L20.8306 31.4201L20.8317 31.4256H20.8322C20.8343 31.4236 20.8368 31.4219 20.8394 31.4205C20.8422 31.4191 20.845 31.4182 20.848 31.418C20.8513 31.418 20.8543 31.4184 20.8569 31.4196C20.8594 31.4208 20.8618 31.4224 20.8636 31.4247C20.8655 31.4271 20.8671 31.4298 20.8681 31.4331C20.8692 31.4364 20.8697 31.4401 20.8699 31.4443C20.8702 31.4489 20.8697 31.4529 20.8685 31.4566C20.8674 31.4601 20.866 31.4634 20.8639 31.4657C20.8618 31.4683 20.8594 31.4701 20.8569 31.4715C20.8541 31.4729 20.8513 31.4736 20.8483 31.4739C20.8459 31.4741 20.8436 31.4736 20.8413 31.4727C20.8389 31.4718 20.8366 31.4706 20.8343 31.4687L20.835 31.4776L20.8357 31.4944L20.8231 31.4948H20.8233Z" fill="#666A6C"/>
<path d="M20.9035 31.4622C20.9057 31.4622 20.9079 31.4615 20.9096 31.4606C20.9113 31.4593 20.9132 31.4579 20.9154 31.4557L20.9149 31.4433C20.9113 31.4438 20.9081 31.4447 20.9054 31.4455C20.903 31.4464 20.9008 31.4472 20.8994 31.4481C20.8979 31.4491 20.8967 31.4503 20.8962 31.4515C20.8957 31.4528 20.8952 31.454 20.8952 31.4554C20.8952 31.4579 20.8962 31.4598 20.8976 31.4608C20.8994 31.4618 20.9013 31.4622 20.9035 31.4622ZM20.8998 31.4727C20.895 31.473 20.8908 31.4717 20.8877 31.4688C20.8845 31.4659 20.8828 31.462 20.8828 31.4571C20.8828 31.4542 20.8833 31.4515 20.8843 31.4491C20.8855 31.4469 20.8872 31.4447 20.8899 31.443C20.8925 31.4413 20.8957 31.4396 20.8998 31.4384C20.904 31.437 20.9088 31.436 20.9144 31.4353C20.9144 31.4338 20.9139 31.4326 20.9137 31.4311C20.9132 31.4299 20.9127 31.4287 20.912 31.4277C20.911 31.4267 20.9101 31.426 20.9088 31.4255C20.9074 31.425 20.9059 31.4248 20.904 31.4248C20.9013 31.4248 20.8986 31.4255 20.8959 31.4267C20.8935 31.428 20.8911 31.4294 20.8884 31.4309L20.8833 31.4224C20.8862 31.4202 20.8896 31.4185 20.8935 31.4168C20.8974 31.4151 20.9015 31.4143 20.9059 31.4141C20.913 31.4138 20.9181 31.4155 20.9217 31.4197C20.9254 31.4236 20.9273 31.4294 20.9276 31.4372L20.929 31.47L20.9183 31.4705L20.9171 31.4644H20.9166C20.9142 31.4666 20.9118 31.4686 20.9088 31.47C20.9062 31.4715 20.903 31.4725 20.8998 31.4725V31.4727Z" fill="#666A6C"/>
<path d="M20.9674 31.4707C20.9643 31.4707 20.9613 31.4704 20.9592 31.4695C20.957 31.4685 20.955 31.4673 20.9536 31.4656C20.9521 31.4639 20.9509 31.4619 20.9502 31.4593C20.9494 31.4568 20.9489 31.4541 20.9489 31.4512L20.9477 31.4247L20.9399 31.4249L20.9395 31.4152L20.948 31.4142L20.9489 31.3989L20.9596 31.3984L20.9604 31.4138L20.9745 31.413L20.975 31.4235L20.9609 31.424L20.9621 31.4505C20.9623 31.4571 20.965 31.4602 20.9703 31.46C20.9713 31.46 20.9723 31.4597 20.9733 31.4595C20.9742 31.4592 20.9752 31.4588 20.9759 31.4585L20.9786 31.468C20.9772 31.4687 20.9755 31.4692 20.9735 31.4697C20.9716 31.4702 20.9696 31.4707 20.9674 31.4707Z" fill="#666A6C"/>
<path d="M21.1283 31.4544C21.1305 31.4544 21.1327 31.4537 21.1344 31.4527C21.1361 31.4515 21.1381 31.4501 21.1403 31.4479L21.1398 31.4355C21.1361 31.4362 21.133 31.4369 21.1303 31.4377C21.1276 31.4386 21.1257 31.4394 21.1242 31.4403C21.1227 31.4413 21.1215 31.4425 21.121 31.4437C21.1203 31.445 21.1201 31.4462 21.1201 31.4476C21.1201 31.4501 21.121 31.452 21.1225 31.453C21.124 31.4539 21.1261 31.4544 21.1283 31.4544ZM21.1247 31.4649C21.1198 31.4651 21.1157 31.4639 21.1125 31.461C21.1094 31.4581 21.1077 31.4542 21.1074 31.4493C21.1074 31.4464 21.1079 31.4437 21.1089 31.4415C21.1101 31.4391 21.112 31.4369 21.1145 31.4352C21.1172 31.4335 21.1203 31.4318 21.1244 31.4306C21.1286 31.4291 21.1334 31.4282 21.139 31.4274C21.1388 31.426 21.1386 31.4248 21.1381 31.4233C21.1376 31.4221 21.1371 31.4209 21.1364 31.4199C21.1354 31.4189 21.1344 31.4182 21.1332 31.4177C21.1317 31.4172 21.1303 31.417 21.1283 31.417C21.1257 31.417 21.123 31.4177 21.1203 31.4189C21.1176 31.4201 21.1152 31.4216 21.1128 31.4231L21.1077 31.4145C21.1106 31.4124 21.114 31.4106 21.1179 31.4089C21.1218 31.4075 21.1257 31.4065 21.1303 31.4063C21.1371 31.406 21.1424 31.4077 21.1461 31.4119C21.1497 31.4158 21.1517 31.4216 21.1519 31.4294L21.1534 31.4622L21.1427 31.4627L21.1415 31.4566H21.141C21.1386 31.4588 21.1361 31.4608 21.1332 31.4622C21.1305 31.4637 21.1274 31.4646 21.1242 31.4646L21.1247 31.4649Z" fill="#666A6C"/>
<path d="M21.1683 31.4592L21.166 31.4061L21.1763 31.4056L21.1774 31.4129H21.1779C21.18 31.4103 21.1823 31.4082 21.1849 31.4066C21.1874 31.4047 21.1905 31.4038 21.1937 31.4035C21.1977 31.4035 21.2007 31.404 21.2033 31.4056C21.2059 31.4073 21.2077 31.4096 21.2089 31.4126C21.2112 31.4096 21.2138 31.4073 21.2166 31.4054C21.2191 31.4035 21.2222 31.4024 21.2257 31.4024C21.2312 31.4021 21.2357 31.4038 21.2385 31.4073C21.2413 31.4108 21.2429 31.4159 21.2431 31.4229L21.2445 31.4562L21.2319 31.4566L21.2305 31.425C21.2303 31.4205 21.2296 31.4175 21.2282 31.4156C21.2268 31.414 21.2247 31.4131 21.2219 31.4133C21.2187 31.4133 21.2149 31.4159 21.2112 31.4203L21.2128 31.4573L21.2003 31.4578L21.1989 31.4261C21.1986 31.4217 21.1979 31.4187 21.1965 31.4168C21.1951 31.4152 21.193 31.4142 21.1902 31.4142C21.187 31.4145 21.1832 31.4168 21.1793 31.4212L21.1809 31.4583L21.1683 31.4587V31.4592Z" fill="#666A6C"/>
<path d="M21.2805 31.4469C21.2827 31.4469 21.2849 31.4461 21.2866 31.4452C21.2883 31.4439 21.2902 31.4425 21.2924 31.4403L21.2919 31.4279C21.288 31.4286 21.2851 31.4294 21.2824 31.4301C21.28 31.4311 21.2778 31.4318 21.2763 31.4328C21.2749 31.4337 21.2737 31.435 21.2732 31.4362C21.2727 31.4374 21.2722 31.4386 21.2722 31.4401C21.2722 31.4425 21.2732 31.4444 21.2746 31.4454C21.2763 31.4464 21.2783 31.4469 21.2805 31.4469ZM21.2768 31.4573C21.272 31.4576 21.2678 31.4564 21.2647 31.4534C21.2615 31.4505 21.2598 31.4466 21.2598 31.4418C21.2596 31.4388 21.2603 31.4362 21.2613 31.4337C21.2625 31.4313 21.2642 31.4291 21.2669 31.4274C21.2695 31.4257 21.2729 31.424 21.2768 31.4228C21.281 31.4213 21.2858 31.4204 21.2914 31.4196C21.2912 31.4182 21.2909 31.417 21.2907 31.4155C21.2902 31.4143 21.2897 31.4131 21.2888 31.4121C21.288 31.4111 21.2871 31.4104 21.2856 31.4099C21.2841 31.4094 21.2827 31.4092 21.2807 31.4092C21.2781 31.4092 21.2754 31.4099 21.2727 31.4111C21.2703 31.4123 21.2678 31.4138 21.2652 31.4152L21.2601 31.4067C21.263 31.4045 21.2664 31.4028 21.2703 31.4011C21.2742 31.3997 21.2783 31.3987 21.2827 31.3985C21.2897 31.3982 21.2948 31.3999 21.2985 31.4041C21.3021 31.4079 21.3041 31.4138 21.3043 31.4216L21.3058 31.4544L21.2951 31.4549L21.2939 31.4488H21.2934C21.2909 31.451 21.2885 31.453 21.2856 31.4544C21.2829 31.4559 21.2798 31.4568 21.2766 31.4568L21.2768 31.4573Z" fill="#666A6C"/>
<path d="M21.3208 31.4525L21.3184 31.397L21.3291 31.3965L21.3303 31.404H21.3308C21.3332 31.4016 21.3356 31.3994 21.3386 31.3975C21.3412 31.3958 21.3446 31.3948 21.3485 31.3946C21.3546 31.3943 21.359 31.396 21.3619 31.3997C21.3648 31.4033 21.3663 31.4087 21.3665 31.416L21.368 31.4507L21.3548 31.4512L21.3534 31.4182C21.3531 31.4135 21.3524 31.4104 21.351 31.4084C21.3495 31.4067 21.3473 31.4057 21.3441 31.406C21.3417 31.406 21.3395 31.4067 21.3378 31.4079C21.3361 31.4092 21.3339 31.4111 21.3317 31.4133L21.3334 31.452L21.3203 31.4525H21.3208Z" fill="#666A6C"/>
<path d="M21.5308 31.4326C21.5343 31.4324 21.5373 31.4307 21.5394 31.4275C21.5417 31.4245 21.5427 31.4198 21.5424 31.4137C21.5422 31.4084 21.541 31.4042 21.5392 31.4014C21.5373 31.3984 21.5343 31.3972 21.5303 31.3972C21.5266 31.3974 21.5226 31.3995 21.5189 31.4037L21.5198 31.4284C21.5219 31.43 21.5238 31.431 21.5257 31.4317C21.5275 31.4324 21.5292 31.4326 21.5308 31.4326ZM21.5089 31.4636L21.5059 31.3893L21.5161 31.3888L21.5173 31.3944H21.5177C21.5198 31.3923 21.5224 31.3907 21.525 31.3893C21.5278 31.3879 21.5305 31.387 21.5336 31.3867C21.5368 31.3867 21.5399 31.3872 21.5424 31.3883C21.545 31.3895 21.5473 31.3914 21.5492 31.3935C21.551 31.3958 21.5527 31.3986 21.5536 31.4019C21.5546 31.4051 21.5552 31.4088 21.5555 31.413C21.5557 31.4177 21.5553 31.4217 21.5541 31.4254C21.5529 31.4289 21.5515 31.4321 21.5494 31.4345C21.5473 31.437 21.545 31.4389 21.5424 31.4403C21.5396 31.4417 21.5368 31.4424 21.5338 31.4426C21.5315 31.4426 21.5292 31.4422 21.5268 31.4412C21.5245 31.4403 21.5222 31.4391 21.5198 31.4373L21.5205 31.4461L21.5212 31.4629L21.5087 31.4633L21.5089 31.4636Z" fill="#666A6C"/>
<path d="M21.5789 31.411L21.6037 31.4101C21.6034 31.4057 21.6022 31.4025 21.6005 31.4001C21.5986 31.3977 21.5956 31.3967 21.5918 31.3967C21.5886 31.3969 21.5857 31.3982 21.5832 31.4006C21.5808 31.403 21.5793 31.4064 21.5791 31.411H21.5789ZM21.5952 31.4449C21.5913 31.4449 21.5876 31.4444 21.5845 31.4434C21.5811 31.4422 21.5781 31.4405 21.5755 31.4381C21.5728 31.4356 21.5708 31.4327 21.5691 31.429C21.5677 31.4256 21.5667 31.4215 21.5665 31.4169C21.5662 31.4123 21.5669 31.4084 21.5682 31.4047C21.5696 31.4011 21.5713 31.3979 21.5735 31.3952C21.5757 31.3926 21.5784 31.3906 21.5815 31.3892C21.5847 31.3877 21.5876 31.387 21.591 31.3867C21.5949 31.3867 21.5983 31.3872 21.601 31.3882C21.6039 31.3894 21.6063 31.3911 21.6085 31.3933C21.6105 31.3955 21.6122 31.3982 21.6132 31.4013C21.6141 31.4045 21.6149 31.4081 21.6151 31.4118C21.6151 31.4132 21.6151 31.4142 21.6151 31.4154C21.6151 31.4166 21.6149 31.4176 21.6149 31.4181L21.5796 31.4196C21.5806 31.4244 21.5823 31.4283 21.5854 31.4307C21.5886 31.4334 21.5922 31.4344 21.5966 31.4344C21.5991 31.4344 21.6012 31.4339 21.6034 31.4329C21.6054 31.432 21.6076 31.431 21.6095 31.4298L21.6144 31.4378C21.6117 31.4395 21.609 31.4412 21.6056 31.4424C21.6025 31.4436 21.5991 31.4444 21.5956 31.4446L21.5952 31.4449Z" fill="#666A6C"/>
<path d="M21.6507 31.4283C21.6546 31.4281 21.6584 31.426 21.6616 31.4218L21.6605 31.3969C21.6586 31.3953 21.6567 31.3943 21.6549 31.3936C21.653 31.3929 21.6514 31.3927 21.6495 31.3929C21.646 31.3929 21.6432 31.3946 21.6409 31.3978C21.6388 31.4008 21.6376 31.4053 21.6379 31.4111C21.6381 31.4169 21.6393 31.4211 21.6416 31.4241C21.6437 31.4269 21.6467 31.4283 21.6507 31.4283ZM21.6481 31.4386C21.6414 31.4388 21.636 31.4367 21.6318 31.4321C21.6276 31.4274 21.6253 31.4206 21.6251 31.4118C21.6248 31.4074 21.6253 31.4036 21.6265 31.3999C21.6276 31.3964 21.629 31.3934 21.6311 31.3908C21.6332 31.3883 21.6355 31.3864 21.6381 31.385C21.6407 31.3836 21.6435 31.3829 21.6465 31.3827C21.6495 31.3824 21.6521 31.3829 21.6542 31.3838C21.6563 31.3848 21.6586 31.3862 21.6607 31.3878L21.6598 31.3792L21.6588 31.3598L21.6714 31.3594L21.6747 31.4358L21.6644 31.4363L21.6633 31.4304H21.6628C21.6609 31.4325 21.6588 31.4342 21.6563 31.4355C21.6537 31.4369 21.6511 31.4379 21.6481 31.4379V31.4386Z" fill="#666A6C"/>
<path d="M21.7089 31.4407C21.7031 31.4409 21.6984 31.4392 21.6958 31.4356C21.6929 31.4319 21.6912 31.4266 21.6909 31.4193L21.6895 31.3845L21.7026 31.384L21.7041 31.4171C21.7043 31.4217 21.705 31.4249 21.7065 31.4268C21.7079 31.4285 21.7101 31.4295 21.713 31.4293C21.7155 31.4293 21.7177 31.4285 21.7194 31.4273C21.7211 31.4259 21.723 31.4239 21.7252 31.4212L21.7235 31.3833L21.7366 31.3828L21.7388 31.4383L21.7281 31.4388L21.7267 31.4307H21.7264C21.7242 31.4336 21.7216 31.4361 21.7189 31.438C21.7162 31.4397 21.7128 31.4407 21.7089 31.4409V31.4407Z" fill="#666A6C"/>
<path d="M21.7654 31.433C21.761 31.4333 21.7577 31.4321 21.7558 31.4295C21.754 31.427 21.7528 31.4233 21.7526 31.4188L21.75 31.3559L21.7626 31.3555L21.7652 31.4188C21.7652 31.4205 21.7656 31.4214 21.7661 31.4219C21.7668 31.4226 21.7675 31.4228 21.7679 31.4228H21.7689C21.7691 31.4228 21.7693 31.4228 21.77 31.4226L21.7721 31.4319C21.7705 31.4328 21.7682 31.4333 21.7656 31.4333L21.7654 31.433Z" fill="#666A6C"/>
<path d="M21.7853 31.379L21.7979 31.3785L21.8 31.4316L21.7874 31.4321L21.7853 31.379ZM21.7911 31.3694C21.789 31.3694 21.7869 31.369 21.7855 31.3678C21.7839 31.3664 21.7832 31.3648 21.7832 31.3627C21.7832 31.3606 21.7837 31.3587 21.7851 31.3576C21.7865 31.3562 21.7883 31.3555 21.7904 31.3555C21.7928 31.3555 21.7946 31.3559 21.796 31.3571C21.7974 31.3585 21.7984 31.3601 21.7984 31.3622C21.7984 31.3643 21.7976 31.3662 21.7962 31.3674C21.7949 31.3688 21.793 31.3694 21.7909 31.3694H21.7911Z" fill="#666A6C"/>
<path d="M21.062 31.4385C21.0623 31.4481 21.0549 31.456 21.0454 31.4565C21.0358 31.4571 21.0276 31.4494 21.0274 31.4399C21.0268 31.4303 21.0345 31.4224 21.0437 31.4219C21.0533 31.4214 21.0615 31.429 21.0617 31.4385H21.062Z" fill="#DD9D33"/>
<path d="M21.4562 31.4229C21.4568 31.4324 21.4492 31.4406 21.4399 31.4409C21.4303 31.4412 21.4222 31.4338 21.4219 31.4242C21.4216 31.4147 21.429 31.4065 21.4385 31.4063C21.4481 31.406 21.4562 31.4133 21.4565 31.4229H21.4562Z" fill="#DD9D33"/>
<path d="M21.3674 31.6149C21.3083 31.6174 21.2624 31.6018 21.2297 31.5682C21.1971 31.5346 21.1791 31.4796 21.1759 31.4033L21.1656 31.1589L21.269 31.1545L21.2797 31.4094C21.2816 31.4541 21.2896 31.485 21.3039 31.5021C21.3181 31.5192 21.3381 31.5273 21.3637 31.5262C21.3893 31.5251 21.4087 31.5154 21.4219 31.4972C21.4351 31.4789 21.4408 31.4474 21.4389 31.4027L21.4282 31.1478L21.5273 31.1437L21.5376 31.3881C21.5408 31.4644 21.5278 31.5207 21.4986 31.5569C21.4698 31.5931 21.426 31.6124 21.3674 31.6149ZM21.2212 32.6135L21.2066 32.2672L21.2904 32.2636L21.2993 32.3073L21.3021 32.3072C21.3164 32.2926 21.3322 32.2798 21.3494 32.2689C21.3671 32.2574 21.3876 32.2512 21.4109 32.2502C21.4486 32.2486 21.4764 32.26 21.4942 32.2845C21.5124 32.3084 21.5225 32.342 21.5243 32.3853L21.5333 32.6004L21.4307 32.6047L21.4222 32.4029C21.4212 32.3778 21.4169 32.3607 21.4096 32.3517C21.4027 32.3426 21.3918 32.3384 21.3769 32.3391C21.3638 32.3396 21.3528 32.3431 21.3437 32.3495C21.3346 32.3555 21.3247 32.3641 21.314 32.3753L21.3239 32.6092L21.2212 32.6135ZM21.2632 33.6126L21.2487 33.2663L21.3513 33.262L21.3659 33.6083L21.2632 33.6126ZM21.2975 33.2132C21.2803 33.2139 21.2661 33.2096 21.255 33.2003C21.2439 33.1909 21.238 33.1781 21.2373 33.1618C21.2366 33.1455 21.2414 33.1323 21.2517 33.1221C21.262 33.1118 21.2757 33.1064 21.293 33.1056C21.3102 33.1049 21.3244 33.1092 21.3355 33.1185C21.3466 33.1279 21.3525 33.1407 21.3532 33.157C21.3539 33.1733 21.3491 33.1865 21.3388 33.1967C21.3285 33.207 21.3147 33.2124 21.2975 33.2132Z" fill="#00407A"/>
<path fill-rule="evenodd" clip-rule="evenodd" d="M20.9091 27.8982L21.1819 27.8868C21.207 27.8856 21.2287 27.9054 21.2296 27.9306L21.2529 28.4852C21.2541 28.5104 21.2343 28.5318 21.2091 28.533L20.9363 28.5444C20.9112 28.5456 20.8895 28.5258 20.8886 28.5006L20.8653 27.9459C20.8641 27.9208 20.8839 27.8994 20.9091 27.8982Z" fill="white" fill-opacity="0.74902"/>
<path d="M21.0174 28.07C21.3506 28.07 21.6207 27.7998 21.6207 27.4666C21.6207 27.1334 21.3506 26.8633 21.0174 26.8633C20.6842 26.8633 20.4141 27.1334 20.4141 27.4666C20.4141 27.7998 20.6842 28.07 21.0174 28.07Z" fill="#D48500"/>
<path d="M21.0186 27.9278C21.2737 27.9278 21.4805 27.721 21.4805 27.4659C21.4805 27.2107 21.2737 27.0039 21.0186 27.0039C20.7634 27.0039 20.5566 27.2107 20.5566 27.4659C20.5566 27.721 20.7634 27.9278 21.0186 27.9278Z" fill="#DD9D33"/>
<path fill-rule="evenodd" clip-rule="evenodd" d="M3.53631 33.832L7.85024 34.8754L7.22572 36.1846L3.03711 35.1286L3.53631 33.832Z" fill="#00315E"/>
<path fill-rule="evenodd" clip-rule="evenodd" d="M9.61938 17.9198C9.86444 17.6898 10.1095 17.4604 10.3546 17.2305C10.6788 19.0328 11.9444 19.5863 13.111 20.1713C11.9365 19.8218 10.8263 19.7985 9.61914 17.9195L9.61938 17.9198Z" fill="#1A1A1A"/>
<path fill-rule="evenodd" clip-rule="evenodd" d="M20.4348 16.6388C20.2659 16.6276 20.0971 16.6167 19.9279 16.6055C20.1784 17.3842 19.9184 17.9915 19.7949 18.6328C20.0607 18.0847 20.3889 17.6768 20.4348 16.6385V16.6388Z" fill="#1A1A1A"/>
<path d="M46.9104 16.0278V19.7912C46.9104 23.2186 44.5466 26.2071 41.1702 27.0486C37.7993 26.2098 35.4355 23.2186 35.4355 19.7912V16.0278C38.0899 15.7334 39.5934 14.7391 41.173 13.5781C42.7526 14.7391 44.2561 15.7334 46.9104 16.0278Z" fill="#49DCC7"/>
<path d="M41.1726 25.7693C38.5719 24.9268 36.7852 22.4644 36.7852 19.6484V16.9444C38.6123 16.538 39.9545 15.7868 41.1726 14.9297C42.4167 15.8104 43.7329 16.5468 45.5601 16.9474V19.6514C45.5601 22.4644 43.7733 24.9268 41.1726 25.7693Z" fill="#48D06A"/>
<path d="M41.1726 25.7693C38.5719 24.9268 36.7852 22.4644 36.7852 19.6484V16.9444C38.6123 16.538 39.9545 15.7868 41.1726 14.9297V25.7693Z" fill="#48D06A"/>
<path d="M42.8945 18.8184C42.9538 18.8184 43.0131 18.8292 43.0684 18.8506L43.1475 18.8906C43.1724 18.9062 43.1962 18.9242 43.2178 18.9443L43.2764 19.0107C43.3279 19.0829 43.3564 19.1701 43.3564 19.2607C43.3564 19.3512 43.3278 19.4377 43.2764 19.5098L43.2178 19.5762L40.9395 21.7031C40.9169 21.7242 40.8923 21.7435 40.8662 21.7598L40.7832 21.8008C40.7256 21.8231 40.6643 21.8349 40.6025 21.835C40.5715 21.835 40.5402 21.8318 40.5098 21.8262L40.4209 21.8008C40.392 21.7896 40.3641 21.7761 40.3379 21.7598L40.2646 21.7031L39.1328 20.6465L39.1338 20.6455C39.1124 20.6259 39.0923 20.6052 39.0752 20.582L39.0293 20.5049C39.0168 20.4776 39.0075 20.4491 39.001 20.4199L38.9902 20.3311C38.9897 20.2708 39.0022 20.2113 39.0264 20.1562L39.0703 20.0781C39.0876 20.0538 39.108 20.0312 39.1299 20.0107C39.1736 19.97 39.2254 19.9383 39.2812 19.917L39.3672 19.8926C39.3964 19.8873 39.4262 19.8855 39.4561 19.8857L39.5449 19.8945C39.5743 19.9003 39.603 19.9088 39.6309 19.9199C39.6855 19.9418 39.7357 19.974 39.7783 20.0146H39.7793L40.6016 20.7822L42.5713 18.9443L42.6416 18.8906C42.6667 18.875 42.693 18.8613 42.7207 18.8506L42.8066 18.8262C42.8355 18.8208 42.8651 18.8184 42.8945 18.8184Z" fill="white" stroke="white" stroke-width="0.316403"/>
</g>
</svg>
