<svg width="56" height="49" viewBox="0 0 56 49" fill="none" xmlns="http://www.w3.org/2000/svg">
<rect x="0.5" y="1.125" width="47" height="47" rx="23.5" fill="white"/>
<rect x="0.5" y="1.125" width="47" height="47" rx="23.5" stroke="#E4E4E2"/>
<path fill-rule="evenodd" clip-rule="evenodd" d="M24 27.625C23.4477 27.625 23 28.0727 23 28.625V32.625C23 33.1773 22.5523 33.625 22 33.625C21.4477 33.625 21 33.1773 21 32.625V28.625C21 26.9681 22.3431 25.625 24 25.625C25.6569 25.625 27 26.9681 27 28.625V32.625C27 33.1773 26.5523 33.625 26 33.625C25.4477 33.625 25 33.1773 25 32.625V28.625C25 28.0727 24.5523 27.625 24 27.625Z" fill="#003B70"/>
<path fill-rule="evenodd" clip-rule="evenodd" d="M24.489 17.6849C24.1681 17.604 23.8321 17.604 23.5112 17.6849C23.1918 17.7655 22.8689 17.9746 21.8002 18.7333L18.6002 21.0053C17.8112 21.5655 17.5865 21.7368 17.4292 21.9363C17.2714 22.1366 17.1533 22.3653 17.0813 22.6099C17.0097 22.8537 17.0001 23.1361 17.0001 24.1038V27.8249C17.0001 28.6815 17.0009 29.2638 17.0376 29.7139C17.0735 30.1523 17.1384 30.3765 17.2181 30.5329C17.4098 30.9092 17.7158 31.2152 18.0921 31.4069C18.2485 31.4866 18.4727 31.5516 18.9111 31.5874C19.3612 31.6241 19.9435 31.6249 20.8001 31.6249H27.2001C28.0567 31.6249 28.639 31.6241 29.0891 31.5874C29.5275 31.5516 29.7517 31.4866 29.9081 31.4069C30.2844 31.2152 30.5904 30.9092 30.7821 30.5329C30.8618 30.3765 30.9267 30.1523 30.9625 29.7139C30.9993 29.2638 31.0001 28.6815 31.0001 27.8249V24.1038C31.0001 23.1361 30.9905 22.8537 30.9188 22.6099C30.8469 22.3653 30.7288 22.1366 30.571 21.9363C30.4137 21.7368 30.189 21.5655 29.4 21.0053L26.2 18.7333C25.1313 17.9746 24.8084 17.7655 24.489 17.6849ZM23.0223 15.7456C23.6641 15.5838 24.3361 15.5838 24.9779 15.7456C25.7086 15.9298 26.3555 16.3899 27.2148 17.0009C27.2618 17.0344 27.3095 17.0682 27.3578 17.1025L30.5578 19.3745C30.5928 19.3994 30.6274 19.4239 30.6616 19.4481C31.3009 19.9015 31.7835 20.2437 32.1419 20.6985C32.4576 21.0991 32.6937 21.5563 32.8376 22.0456C33.0009 22.6011 33.0006 23.1928 33.0001 23.9766C33.0001 24.0184 33.0001 24.0608 33.0001 24.1038V27.8662C33.0001 28.6712 33.0001 29.3356 32.9559 29.8768C32.91 30.4388 32.8114 30.9556 32.5641 31.4409C32.1806 32.1935 31.5687 32.8055 30.8161 33.1889C30.3307 33.4362 29.814 33.5348 29.2519 33.5807C28.7107 33.6249 28.0464 33.6249 27.2414 33.6249H20.7588C19.9538 33.6249 19.2895 33.6249 18.7483 33.5807C18.1862 33.5348 17.6695 33.4362 17.1841 33.1889C16.4315 32.8055 15.8196 32.1935 15.4361 31.4409C15.1888 30.9556 15.0902 30.4388 15.0443 29.8768C15.0001 29.3356 15.0001 28.6712 15.0001 27.8662L15.0001 24.1038C15.0001 24.0608 15.0001 24.0184 15 23.9765C14.9996 23.1928 14.9992 22.6011 15.1626 22.0456C15.3065 21.5563 15.5426 21.0991 15.8583 20.6985C16.2167 20.2437 16.6993 19.9015 17.3386 19.4481C17.3728 19.4239 17.4074 19.3994 17.4424 19.3745L20.6424 17.1025C20.6907 17.0682 20.7384 17.0344 20.7854 17.0009C21.6447 16.3899 22.2916 15.9298 23.0223 15.7456Z" fill="#003B70"/>
<path fill-rule="evenodd" clip-rule="evenodd" d="M48.0007 31.2917C44.3188 31.2917 41.334 28.307 41.334 24.6251C41.334 20.9432 44.3188 17.9584 48.0007 17.9584C51.6825 17.9584 54.6673 20.9432 54.6673 24.6251C54.6673 28.307 51.6825 31.2917 48.0007 31.2917ZM46.8626 26.1537C46.6022 26.414 46.6022 26.8361 46.8626 27.0965C47.1229 27.3568 47.545 27.3568 47.8054 27.0965L49.8054 25.0965C50.0657 24.8361 50.0657 24.414 49.8054 24.1537L47.8054 22.1537C47.545 21.8933 47.1229 21.8933 46.8626 22.1537C46.6022 22.414 46.6022 22.8361 46.8626 23.0965L48.3912 24.6251L46.8626 26.1537Z" fill="#E17C00"/>
</svg>
