<svg width="96" height="96" viewBox="0 0 96 96" fill="none" xmlns="http://www.w3.org/2000/svg">
<path d="M83.0275 23.2957C93.2253 41.147 94.5857 58.4862 79.6117 72.5717C64.1892 87.0792 41.4343 92.146 22.9193 81.8755C4.16048 71.4696 -4.1853 57.2803 2.03422 36.7473C7.13658 19.9025 27.5884 26.4999 45.0713 24.4916C62.2825 22.5145 74.0615 10.4422 83.0275 23.2957Z" fill="#FCF0E3"/>
<mask id="mask0_4181_13214" style="mask-type:alpha" maskUnits="userSpaceOnUse" x="0" y="6" width="96" height="82">
<path d="M91.1239 20.49C101.322 38.3412 94.5857 58.4862 79.6117 72.5716C64.1892 87.0791 41.4343 92.146 22.9193 81.8754C4.16048 71.4696 -4.1853 57.2803 2.03422 36.7473C7.13658 19.9025 20.6542 8.99851 38.1371 6.99021C55.3482 5.01312 82.1579 7.63647 91.1239 20.49Z" fill="#FCF0E3"/>
</mask>
<g mask="url(#mask0_4181_13214)">
<path fill-rule="evenodd" clip-rule="evenodd" d="M52.548 71.953L53.514 64.8048L71.7866 61.7487L73.036 65.1856L52.548 71.953Z" fill="#FBBFA3"/>
<path d="M54.7828 70.7617C53.7386 71.8162 52.2036 72.2215 50.7763 71.8209C48.6086 71.2129 47.3409 68.9545 47.9497 66.7875C48.1366 66.1205 48.4918 65.51 48.9765 65.02C50.0205 63.9661 51.5557 63.5602 52.9832 63.9612C54.0335 64.256 54.9053 64.9426 55.4392 65.8929C55.9728 66.8439 56.1045 67.9454 55.8092 68.9955C55.6221 69.662 55.2666 70.2731 54.7826 70.7623L54.7828 70.7617Z" fill="#FBBFA3"/>
<path d="M72.2491 61.6806C73.2037 61.6751 73.9823 62.4442 73.9884 63.3991C73.9939 64.3538 73.2249 65.1324 72.2704 65.1383C71.3153 65.144 70.5372 64.3747 70.5313 63.4203C70.5254 62.4658 71.2948 61.687 72.2493 61.6811L72.2491 61.6806Z" fill="#FBBFA3"/>
<path d="M79.3778 63.094C80.3964 62.5764 84.2391 60.585 84.5438 59.967C84.7557 59.5367 83.8052 59.5498 83.1094 59.6671C83.0167 59.6831 82.9326 59.6992 82.8614 59.7148C82.1187 59.8772 80.5814 60.9797 79.9168 61.0826C79.7743 61.1047 79.6354 61.136 79.4996 61.1741C78.616 61.4207 77.8614 61.9408 77.1067 61.9228C76.2364 61.9021 75.0311 61.8163 74.8397 61.2129C74.8673 61.1273 74.903 61.0332 74.9455 60.9335C74.972 60.8713 75.0013 60.8065 75.0331 60.7403C75.2873 60.2086 75.6996 59.5742 76.1494 59.1719C76.7447 58.6394 77.2607 57.5688 76.9007 57.2525C76.4088 56.8203 75.0024 57.6309 74.2701 58.6286C73.474 59.2706 70.9253 61.2491 70.3487 62.6835C70.263 62.8967 70.2186 63.1356 70.188 63.3404C70.0077 64.5386 69.742 63.0972 69.5338 64.6339C69.5192 64.742 66.8577 63.6628 67.5433 65.4912C67.5014 65.9462 69.1025 64.8271 69.0919 65.4912L70.1243 65.4912C66.5797 65.9343 70.8703 66.11 70.863 65.9632C70.8395 65.4945 71.2853 65.8841 71.3061 65.5201C71.3384 64.955 71.7492 65.9632 74.7111 65.579C76.18 65.077 78.5024 63.5405 79.2563 63.156L79.3778 63.094Z" fill="#FBBFA3"/>
<path d="M46.9032 66.0064C45.7951 62.8512 43.0401 54.7273 41.2969 50.7039L41.2983 50.7032C41.1554 50.4057 41.043 50.0882 40.9753 49.7494C40.543 47.5862 41.9328 45.4847 44.0795 45.0556C45.8558 44.7006 47.5907 45.6038 48.3826 47.1509L48.3843 47.1502C50.0022 50.2132 52.6273 56.6613 54.6462 62.3929C52.8221 64.0556 47.5688 65.7624 46.9032 66.0064Z" fill="#00407A"/>
<path fill-rule="evenodd" clip-rule="evenodd" d="M46.7605 66.1209L54.6515 61.8769L55.6839 64.458L47.5894 68.7727L46.7605 66.1209Z" fill="#00315E"/>
<path d="M50.1158 79.0826C55.3464 93.5373 47.6773 116.703 47.6773 116.703C47.6773 116.703 36.2876 121.991 25.8339 117.555L21.9591 100.129C21.9591 100.129 18.9867 85.9044 27.6602 79.59C36.3342 73.2756 50.1158 79.0826 50.1158 79.0826Z" fill="#00315E"/>
<path d="M45.8443 60.0595C48.4207 57.4104 48.2716 54.9844 47.2695 53.0788C47.3086 53.0448 47.3496 53.0141 47.3883 52.9787C48.3108 52.1196 48.8437 50.9524 48.888 49.6926C48.908 49.135 48.8312 48.5857 48.6593 48.0592C48.171 46.5627 46.9611 45.4399 45.4912 45.0075C45.4917 45.0052 45.493 44.9963 45.493 44.9963C45.493 44.9963 45.172 44.8039 39.2044 43.3237C35.6618 42.3817 31.8317 40.2921 25.2249 44.4806C23.7261 45.8476 20.537 46.8134 17.9825 49.25C17.1304 49.7956 16.4479 50.603 16.0859 51.5921C15.6517 52.776 15.7053 54.0577 16.2354 55.2015C16.7661 56.3453 17.7105 57.2138 18.8943 57.6471C19.418 57.8395 19.964 57.9368 20.517 57.9368C20.7527 57.9368 20.9848 57.9168 21.213 57.8823C22.5525 61.5173 25.6581 71.1899 25.6581 71.1899C23.6683 79.4989 22.1332 86.7213 20.8413 95.1659C33.1227 101.576 48.9304 94.7699 52.2909 93.0055C54.017 92.0998 46.6438 62.5889 45.8443 60.0586V60.0595Z" fill="#00407A"/>
<path d="M48.6577 48.0597C48.8296 48.5861 48.906 49.135 48.8864 49.6926C48.8417 50.9524 48.3087 52.1195 47.3862 52.9787C46.4633 53.8378 45.2613 54.2865 44.0015 54.2408C42.0294 54.1714 40.2935 52.8636 39.6818 50.9888C39.5099 50.4623 39.4334 49.9135 39.453 49.3558C39.5457 46.7551 41.7373 44.7145 44.3379 44.8067C46.31 44.8775 48.0459 46.1844 48.6577 48.0592V48.0597Z" fill="#00407A"/>
<path d="M35.191 45.0489C34.1194 45.6671 33.278 45.99 32.0756 46.0194C30.2889 46.0678 29.6366 45.0228 29.0403 44.8639L23.245 31.4827L33.7281 36.2079L33.7523 36.6519L35.1905 45.0493L35.191 45.0489Z" fill="#FBBFA3"/>
<path d="M22.4272 86.847C22.9206 87.7355 22.6 88.856 21.7116 89.3494C20.8227 89.8428 19.7022 89.5222 19.2093 88.6338C18.7159 87.7453 19.036 86.6248 19.9249 86.1309C20.8133 85.6375 21.9343 85.9581 22.4272 86.8466V86.847Z" fill="#FBBFA3"/>
<path d="M22.4301 86.8465C23.3959 87.8393 26.0077 87.256 27.0573 87.5849C28.107 87.9139 28.2593 89.3638 28.2593 89.3638C28.2593 89.3638 29.0663 90.2723 29.3584 90.8882C29.651 91.5041 29.1478 92.0348 28.1988 92.0436C27.2498 92.052 27.704 93.0523 26.8808 93.5313C26.0575 94.0107 25.3289 93.548 24.788 94.6043C24.2476 95.6605 19.46 88.977 19.46 88.977L22.4301 86.846V86.8465Z" fill="#FBBFA3"/>
<path d="M10.3114 75.2626C9.83296 75.2626 9.36101 75.1788 8.9077 75.0134C7.88367 74.6379 7.06742 73.8864 6.60852 72.8973C6.14961 71.9077 6.10394 70.7997 6.47898 69.7757C7.06554 68.1734 8.60579 67.0967 10.3119 67.0967C10.7904 67.0967 11.2628 67.1806 11.7152 67.346C12.7392 67.7215 13.5554 68.473 14.0143 69.4621C14.4732 70.4517 14.5194 71.5596 14.1439 72.5837C13.5573 74.1859 12.0166 75.2626 10.3105 75.2626H10.3114Z" fill="#3D3433"/>
<path d="M20.5145 57.9375C19.961 57.9375 19.4155 57.8401 18.8913 57.6477C17.7075 57.2144 16.7636 56.3459 16.2329 55.2022C15.7028 54.0579 15.6492 52.7762 16.0834 51.5923C16.7617 49.7394 18.5433 48.495 20.5154 48.495C21.0689 48.495 21.6149 48.5924 22.1386 48.7839C24.5822 49.6793 25.842 52.3956 24.947 54.8397C24.2682 56.6931 22.4871 57.9375 20.515 57.9375H20.5145Z" fill="#00407A"/>
<path fill-rule="evenodd" clip-rule="evenodd" d="M6.74252 73.161L14.269 72.3354L22.4329 86.846L20.1081 89.8558L6.74252 73.161Z" fill="#FBBFA3"/>
<path d="M10.3148 75.2632C8.83095 75.2632 7.46262 74.4581 6.74282 73.162C5.64984 71.194 6.36172 68.7038 8.32965 67.6117C8.93531 67.2753 9.61924 67.0978 10.3078 67.0978C11.7917 67.0978 13.16 67.9029 13.8798 69.199C14.4095 70.1523 14.5358 71.255 14.2362 72.3033C13.9362 73.3516 13.2462 74.2205 12.293 74.7498C11.6878 75.0862 11.0034 75.2637 10.3153 75.2637L10.3148 75.2632Z" fill="#FBBFA3"/>
<path d="M15.9825 19.5686C17.5679 12.3526 42.7066 4.04834 42.5827 17.0969C42.5417 21.428 40.1498 26.5478 40.8458 30.5993C41.4836 34.3107 40.4936 35.693 37.1503 37.8837C33.8313 40.059 34.635 37.3447 29.7813 38.8835C24.97 40.4094 17.9048 39.4245 16.4409 33.2186C15.3573 28.6239 15.1173 23.5054 15.982 19.5686H15.9825Z" fill="#1A1A1A"/>
<path d="M17.7239 35.6477C20.95 35.6477 23.5652 32.353 23.5652 28.2888C23.5652 24.2245 20.95 20.9298 17.7239 20.9298C14.4978 20.9298 11.8825 24.2245 11.8825 28.2888C11.8825 32.353 14.4978 35.6477 17.7239 35.6477Z" fill="#1A1A1A"/>
<path d="M27.0982 43.5796L28.2014 42.9259L23.3175 31.6497L33.6375 36.3012L33.6613 36.7383L34.7049 42.1795L35.3711 42.3575C35.7154 44.4117 36.5223 47.6991 34.2618 48.3826C32.2263 48.9976 27.7169 45.5196 27.0982 43.5796Z" fill="#FBBFA3"/>
<path d="M32.2362 40.9064C31.1059 40.7741 30.1015 40.455 29.0677 39.9826C28.0912 39.5367 27.1496 39.0251 26.2541 38.4427L23.3125 31.6503L33.6325 36.3019L33.6563 36.7389L34.4045 41.1063C33.6823 41.0346 32.9574 40.9908 32.2362 40.906V40.9064Z" fill="#F9AF91"/>
<path d="M19.8297 24.6374C19.8297 24.6374 16.0406 23.824 16.5344 28.0795C17.0283 32.3346 20.1092 32.4199 21.0182 32.6035C21.0182 32.6035 22.714 40.1814 32.0622 39.4555C41.4103 38.7301 39.8775 31.4913 39.809 26.6916C39.7405 21.8914 40.2758 13.5568 34.1573 12.9428C27.9851 12.3231 19.2874 12.7289 19.8297 24.6379V24.6374Z" fill="#FBBFA3"/>
<path d="M29.9311 26.6843C29.9623 27.3771 29.4265 27.9646 28.7332 27.9959C28.0405 28.0275 27.453 27.4913 27.4213 26.7985C27.3901 26.1057 27.9259 25.5182 28.6186 25.4865C29.3114 25.4548 29.8989 25.9911 29.9306 26.6843H29.9311Z" fill="#1A1A1A"/>
<path d="M36.3281 26.6843C36.3593 27.3771 35.8236 27.9646 35.1308 27.9959C34.438 28.0275 33.8505 27.4913 33.8188 26.7985C33.7872 26.1057 34.3234 25.5182 35.0162 25.4865C35.709 25.4548 36.2965 25.9911 36.3281 26.6843Z" fill="#1A1A1A"/>
<path d="M29.3629 31.2975C31.0439 32.3187 33.2839 32.8187 35.2392 32.609C34.6578 34.1446 34.0433 35.2022 31.7842 34.8421C29.9336 34.5476 28.9599 32.9095 29.3625 31.2975H29.3629Z" fill="#AF4652"/>
<path d="M29.2748 32.017C29.1532 33.3569 30.174 34.7174 31.7473 34.9675C32.4168 35.0742 32.9745 34.9284 33.397 34.8105C33.5615 34.2896 33.726 33.7692 33.8904 33.2488C32.4774 32.8579 31.0639 32.467 29.6508 32.0766C29.5311 32.0435 29.3987 32.0137 29.2748 32.017Z" fill="white"/>
<path d="M29.58 32.2695C30.1186 32.9073 30.8817 33.328 31.6817 33.5647C32.3358 33.758 33.0174 33.8354 33.6999 33.8666C33.7651 33.6607 33.8299 33.4547 33.8951 33.2493C32.6498 32.905 31.404 32.5607 30.1582 32.2164L29.58 32.2699V32.2695Z" fill="#E6E8EB"/>
<path d="M34.5316 32.6528C34.4086 32.9999 34.3099 33.2706 34.2493 33.3549C34.1589 33.4807 31.5141 33.7183 29.2782 32.1944C29.2605 31.9004 29.2643 31.6637 29.3626 31.2975C30.6708 32.0811 32.984 32.6458 34.5312 32.6528H34.5316Z" fill="white"/>
<path d="M30.4375 23.7472C30.4859 23.6806 30.3024 23.4323 29.8775 23.19C29.4614 22.9482 28.7728 22.7427 28.0274 22.8145C27.254 22.8881 26.6367 23.2189 26.2682 23.5357C26.0823 23.6941 25.956 23.8427 25.8824 23.9625C25.8116 24.079 25.7944 24.1572 25.8237 24.1894C25.854 24.222 25.9341 24.1991 26.0515 24.1437C26.1643 24.0873 26.3222 24.0086 26.517 23.9112C26.8985 23.7216 27.4585 23.5091 28.0744 23.4495C28.7188 23.3885 29.2881 23.4928 29.7051 23.6056C30.1206 23.7169 30.3853 23.8232 30.4379 23.7468L30.4375 23.7472Z" fill="#1A1A1A"/>
<path d="M34.0389 23.5886C34.1051 23.6533 34.345 23.4991 34.7317 23.3109C35.1198 23.1208 35.6588 22.9102 36.3031 22.8483C36.919 22.7895 37.5089 22.8921 37.9198 23.0053C38.1294 23.064 38.2995 23.1115 38.4211 23.145C38.5469 23.1772 38.6298 23.1847 38.6536 23.1464C38.6764 23.1096 38.6442 23.0356 38.5529 22.9349C38.4574 22.8315 38.3051 22.7094 38.0926 22.5892C37.6705 22.3483 37.002 22.141 36.2281 22.2156C35.4827 22.2868 34.8453 22.6195 34.4833 22.9354C34.1116 23.2536 33.9788 23.5322 34.0389 23.5886Z" fill="#1A1A1A"/>
<path d="M17.2667 26.5356C16.9415 27.6617 17.4032 28.8488 17.857 29.9297C17.9916 30.2511 18.1407 30.5899 18.4286 30.7865C18.7161 30.9831 19.1857 30.9528 19.3367 30.6392C19.4825 30.3355 19.2668 29.994 19.0986 29.7018C18.93 29.4102 18.8344 28.9727 19.1177 28.7901C19.2491 28.7053 19.4219 28.7123 19.5608 28.6391C19.8622 28.4802 19.8603 28.0493 19.7825 27.7171C19.6754 27.2572 19.5039 26.8128 19.2756 26.3995C19.0516 25.9942 18.6979 25.579 18.2348 25.587C17.7503 25.5954 17.4009 26.0701 17.2663 26.5356H17.2667Z" fill="#F9AF91"/>
<path d="M19.8312 24.6373C24.8619 23.5089 31.9244 20.9361 33.2056 15.6924C33.2056 15.6924 35.6757 21.5194 42.3068 24.3135C42.3068 24.3135 41.8861 12.1646 33.767 12.1646C25.6483 12.1646 21.1958 13.6545 19.8307 18.6802C18.7885 22.5169 19.8307 24.6373 19.8307 24.6373H19.8312Z" fill="#1A1A1A"/>
<path d="M19.8276 24.6368C19.8537 25.9399 21.3157 30.6073 21.3157 30.6073C21.3157 30.6073 21.0343 24.2845 21.878 22.9474C22.7218 21.6103 19.8276 24.6368 19.8276 24.6368Z" fill="#1A1A1A"/>
<path d="M28.6694 31.6547C28.7323 33.038 27.6622 34.2107 26.2789 34.2736C24.8957 34.3365 23.723 33.2663 23.6601 31.883C23.5972 30.4993 24.6674 29.3271 26.0511 29.2642C27.4343 29.2013 28.607 30.2715 28.6699 31.6552L28.6694 31.6547Z" fill="#F9AF91"/>
<path d="M39.8583 31.1449C39.9194 32.4872 38.8809 33.6245 37.5387 33.686C36.1964 33.747 35.0592 32.7085 34.9977 31.3662C34.9366 30.024 35.9756 28.8867 37.3174 28.8252C38.6596 28.7642 39.7973 29.8027 39.8583 31.1449Z" fill="#F9AF91"/>
<path d="M33.5331 30.1661C33.6948 30.3315 33.4441 30.804 32.8669 30.9158C32.2896 31.0262 31.8811 30.6805 31.9696 30.4671C32.0516 30.2449 32.3763 30.1559 32.7071 30.0851C33.0402 30.0283 33.3747 29.9905 33.5331 30.1661Z" fill="#F69C7C"/>
<path d="M6.29001 70.4738L6.47682 69.7749C6.69346 69.1879 13.0329 55.3445 16.7041 50.4334L17.0158 50.0168L24.6802 55.4507L24.4095 55.8784C21.3714 60.6781 16.4488 67.3494 14.2675 72.336L6.29046 70.4742L6.29001 70.4738Z" fill="#00407A"/>
<path fill-rule="evenodd" clip-rule="evenodd" d="M38.2749 72.3458C38.5404 72.3211 38.806 72.2964 39.0711 72.2717C38.9393 62.0553 38.6033 50.7739 39.2067 43.3245C39.1228 43.3068 39.0338 43.2822 38.9397 43.2514C37.6156 42.881 36.2427 42.3783 34.6936 42.1244L34.7043 42.1798L35.3705 42.3578C35.7018 44.3323 36.4593 47.4455 34.51 48.2916C35.7348 52.8486 38.3098 61.4003 38.2749 72.3458Z" fill="#00315E"/>
<path fill-rule="evenodd" clip-rule="evenodd" d="M26.8699 54.4584C26.8732 54.4696 26.8802 54.4794 26.8913 54.4859L27.4513 54.8335C27.4611 54.8395 27.4723 54.8423 27.4835 54.8414C27.4863 54.8414 27.4886 54.8409 27.4909 54.8405L27.4183 54.171L26.8699 54.4584Z" fill="#FEFEFE"/>
<path fill-rule="evenodd" clip-rule="evenodd" d="M27.4155 54.1464L27.3787 53.8095C27.3759 53.7806 27.3474 53.7764 27.3358 53.7927L26.8778 54.4157C26.8741 54.4208 26.8718 54.4264 26.8699 54.4324L27.4075 54.1506L27.4155 54.1464Z" fill="#FEFEFE"/>
<path fill-rule="evenodd" clip-rule="evenodd" d="M28.2905 53.7163L27.4449 54.1594L27.4458 54.1682L27.5176 54.8317C27.5232 54.8284 27.5279 54.8237 27.532 54.8186L28.318 53.7484C28.3343 53.7265 28.3152 53.7028 28.2901 53.7163H28.2905Z" fill="#FEFEFE"/>
<path fill-rule="evenodd" clip-rule="evenodd" d="M26.4309 55.7524L26.4267 55.6737C26.4267 55.6737 26.4001 55.7096 26.3447 55.7441C26.3139 55.7632 26.2757 55.7706 26.2333 55.7729C26.1611 55.7762 26.1061 55.7599 26.0675 55.7231C26.0288 55.6863 26.0078 55.6318 26.0046 55.5591L25.985 55.1589L26.1523 55.151L26.1695 55.5092C26.1718 55.5535 26.1812 55.5861 26.1979 55.6075C26.2147 55.629 26.2403 55.6388 26.2748 55.6369C26.3214 55.6346 26.3549 55.6173 26.374 55.5852C26.3936 55.553 26.4015 55.5004 26.3978 55.4282L26.3838 55.1393L26.5511 55.1309L26.5814 55.7445L26.4309 55.752V55.7524Z" fill="#FEFEFE"/>
<path fill-rule="evenodd" clip-rule="evenodd" d="M27.2988 55.7101L27.1316 55.7185L27.1139 55.3602C27.1115 55.316 27.1022 55.2829 27.0855 55.2619C27.0687 55.2405 27.0431 55.2307 27.0086 55.2326C26.962 55.2349 26.9285 55.2521 26.9094 55.2843C26.8903 55.3164 26.8819 55.3686 26.8856 55.4413L26.8996 55.7301L26.7323 55.7381L26.7025 55.1245L26.8302 55.1184L26.8334 55.1958C26.8334 55.1958 26.8772 55.1506 26.9396 55.1245C26.9727 55.1105 27.0086 55.0984 27.0501 55.096C27.1214 55.0928 27.1763 55.1091 27.2155 55.1459C27.2541 55.1827 27.2756 55.2377 27.2793 55.3104L27.2988 55.7106V55.7101Z" fill="#FEFEFE"/>
<path fill-rule="evenodd" clip-rule="evenodd" d="M27.6146 55.6943L27.4473 55.7027L27.4175 55.0887L27.5848 55.0807L27.6146 55.6943Z" fill="#FEFEFE"/>
<path fill-rule="evenodd" clip-rule="evenodd" d="M27.9762 55.6774L27.7125 55.0749L27.8877 55.0661L28.0233 55.4099C28.0372 55.4472 28.0526 55.4808 28.0526 55.4808C28.0526 55.4808 28.0638 55.4505 28.0759 55.4071L28.177 55.0516L28.3522 55.0433L28.1486 55.6685L27.9767 55.6769L27.9762 55.6774Z" fill="#FEFEFE"/>
<path fill-rule="evenodd" clip-rule="evenodd" d="M28.7435 55.6507C28.6448 55.6554 28.5661 55.6321 28.5078 55.5799C28.4496 55.5282 28.4179 55.4522 28.4132 55.3525C28.4081 55.2496 28.43 55.1689 28.4789 55.1102C28.5274 55.0515 28.5973 55.0198 28.6881 55.0157C28.7748 55.0115 28.8433 55.0329 28.8945 55.08C28.9453 55.127 28.9728 55.1941 28.977 55.2812L28.9807 55.3623L28.5847 55.3814C28.5889 55.4289 28.6047 55.4653 28.6322 55.4909C28.6597 55.5165 28.6974 55.5282 28.7454 55.5254C28.7822 55.5235 28.8172 55.5179 28.8498 55.5091C28.8824 55.4997 28.9164 55.4858 28.9514 55.4671L28.9579 55.5966C28.9294 55.6125 28.8982 55.6251 28.8656 55.6339C28.8325 55.6428 28.792 55.6484 28.744 55.6507H28.7435ZM28.6946 55.1349C28.6592 55.1368 28.6318 55.1494 28.6126 55.1727C28.5935 55.196 28.5838 55.2286 28.5828 55.2701L28.8176 55.2584C28.8148 55.2169 28.8022 55.1857 28.7804 55.1643C28.7585 55.1429 28.7296 55.1331 28.6942 55.1349H28.6946Z" fill="#FEFEFE"/>
<path fill-rule="evenodd" clip-rule="evenodd" d="M29.432 54.9789C29.4548 54.978 29.4735 54.9784 29.4888 54.9812L29.4837 55.1387C29.4697 55.1359 29.4534 55.1345 29.4339 55.1354C29.3803 55.1382 29.3393 55.1536 29.3108 55.183C29.2824 55.2118 29.2694 55.251 29.2717 55.3004L29.2871 55.6125L29.1199 55.6209L29.09 55.0073L29.2168 55.0013L29.2219 55.1112C29.2219 55.1112 29.2591 55.0534 29.322 55.0148C29.3551 54.9947 29.3938 54.9812 29.432 54.9793V54.9789Z" fill="#FEFEFE"/>
<path fill-rule="evenodd" clip-rule="evenodd" d="M30.0801 55.3961C30.0829 55.459 30.0638 55.5084 30.0214 55.5433C29.9795 55.5783 29.9147 55.5978 29.8276 55.602C29.7829 55.6044 29.7447 55.603 29.713 55.5988C29.6809 55.5946 29.6515 55.5867 29.6231 55.5764L29.6161 55.438C29.6478 55.4511 29.6837 55.4618 29.7233 55.4697C29.7629 55.4776 29.7973 55.4809 29.8267 55.4795C29.8873 55.4767 29.9171 55.4576 29.9152 55.4227C29.9143 55.4096 29.9101 55.3989 29.9012 55.391C29.8929 55.3831 29.8784 55.3747 29.8579 55.3649C29.8379 55.3556 29.8108 55.3448 29.7773 55.3323C29.7289 55.3146 29.6934 55.2983 29.6706 55.2824C29.6478 55.2666 29.6305 55.2479 29.6194 55.227C29.6082 55.2055 29.6021 55.179 29.6003 55.1473C29.5975 55.0928 29.6166 55.0495 29.6576 55.0178C29.6986 54.9856 29.7577 54.9679 29.8351 54.9642C29.9091 54.9605 29.9818 54.9731 30.0531 55.0019L30.0084 55.1254C29.9767 55.1138 29.9478 55.1044 29.9203 55.097C29.8933 55.09 29.8658 55.0872 29.8379 55.0881C29.7885 55.0905 29.7643 55.1054 29.7657 55.1319C29.7666 55.1468 29.775 55.1594 29.7917 55.1697C29.8081 55.1799 29.8439 55.1944 29.8989 55.2135C29.9478 55.2307 29.9837 55.247 30.007 55.2629C30.0303 55.2787 30.0475 55.2973 30.0592 55.3187C30.0708 55.3402 30.0773 55.3663 30.0792 55.3966L30.0801 55.3961Z" fill="#FEFEFE"/>
<path fill-rule="evenodd" clip-rule="evenodd" d="M30.6222 55.5477L30.6171 55.4591C30.5905 55.496 30.5272 55.529 30.4978 55.5444C30.4685 55.5593 30.4303 55.5682 30.3823 55.5705C30.3236 55.5733 30.2761 55.5589 30.2406 55.5267C30.2052 55.4946 30.1861 55.4475 30.1829 55.3851C30.1796 55.3199 30.2001 55.2709 30.2439 55.2374C30.2882 55.2043 30.3562 55.1838 30.4475 55.1764L30.5537 55.1675L30.5523 55.141C30.5495 55.079 30.516 55.0492 30.4522 55.052C30.4032 55.0548 30.3464 55.072 30.2816 55.1051L30.2206 54.9947C30.2896 54.9541 30.3669 54.9318 30.4526 54.9276C30.5351 54.9234 30.5989 54.9383 30.6446 54.9723C30.6902 55.0058 30.7149 55.0594 30.7186 55.1326L30.7387 55.5416L30.6217 55.5472L30.6222 55.5477ZM30.5588 55.2658L30.4941 55.2709C30.4456 55.2747 30.4098 55.2854 30.3865 55.3026C30.3636 55.3199 30.3529 55.345 30.3543 55.3776C30.3566 55.4251 30.3851 55.4471 30.4391 55.4447C30.4778 55.4429 30.5085 55.4303 30.5304 55.407C30.5528 55.3837 30.563 55.3534 30.5612 55.3161L30.5584 55.2658H30.5588Z" fill="#FEFEFE"/>
<path fill-rule="evenodd" clip-rule="evenodd" d="M31.0567 55.5265L30.889 55.5344L30.8475 54.6799L31.0148 54.672L31.0567 55.5265Z" fill="#FEFEFE"/>
<path fill-rule="evenodd" clip-rule="evenodd" d="M31.4647 54.8925C31.5439 54.8888 31.6069 54.913 31.6525 54.9656C31.6982 55.0183 31.7238 55.0937 31.7284 55.1916C31.7331 55.2913 31.7149 55.3691 31.6739 55.4255C31.6325 55.4818 31.5728 55.5121 31.495 55.5159C31.4545 55.5177 31.4177 55.5126 31.3856 55.4995C31.3529 55.4865 31.3259 55.466 31.3045 55.4381L31.3073 55.5145L31.2094 55.5191L31.1675 54.6651L31.2663 54.6605L31.2765 54.8678C31.2784 54.9092 31.2826 54.9917 31.2826 54.9917C31.3203 54.9297 31.3809 54.8967 31.4647 54.8925ZM31.4522 54.9749C31.3916 54.9777 31.3487 54.9973 31.324 55.0327C31.2994 55.0686 31.2891 55.1273 31.2928 55.2093L31.2933 55.2135C31.297 55.2959 31.3138 55.3542 31.3422 55.3882C31.3706 55.4222 31.4154 55.4376 31.4769 55.4348C31.5314 55.432 31.5705 55.4106 31.5952 55.3691C31.6199 55.3281 31.6306 55.2703 31.6269 55.1953C31.6231 55.1194 31.6068 55.0625 31.5784 55.0257C31.55 54.9889 31.5076 54.9722 31.4526 54.9749H31.4522Z" fill="#FEFEFE"/>
<path fill-rule="evenodd" clip-rule="evenodd" d="M32.1554 55.4726C32.0744 55.4763 32.011 55.4503 31.9644 55.3944L31.9812 55.7405L31.8824 55.7452L31.84 54.8725L31.936 54.8679L31.9388 54.9503C31.9388 54.9503 31.9793 54.8954 32.0208 54.8749C32.0511 54.8595 32.086 54.8497 32.1261 54.8478C32.2044 54.8441 32.2668 54.8683 32.3124 54.9205C32.3586 54.9727 32.3842 55.0482 32.3888 55.147C32.3935 55.2453 32.3758 55.3231 32.3348 55.3808C32.2938 55.4381 32.2342 55.4689 32.1554 55.4726ZM32.1126 54.9317C32.0529 54.9345 32.0105 54.9536 31.9858 54.9885C31.9612 55.0235 31.95 55.0771 31.9528 55.1493L31.9537 55.1684C31.9574 55.2499 31.9742 55.3081 32.0031 55.3436C32.032 55.3785 32.0767 55.3948 32.1377 55.392C32.1881 55.3892 32.2267 55.3669 32.2533 55.3249C32.2794 55.2825 32.291 55.2248 32.2873 55.1516C32.2836 55.078 32.2668 55.0226 32.2365 54.9848C32.2062 54.9471 32.1652 54.9298 32.113 54.9322L32.1126 54.9317Z" fill="#FEFEFE"/>
<path fill-rule="evenodd" clip-rule="evenodd" d="M32.788 54.8162C32.8145 54.8148 32.8383 54.8158 32.8593 54.8195L32.8518 54.9113C32.829 54.9071 32.8071 54.9057 32.7861 54.9066C32.754 54.9085 32.7251 54.9187 32.6985 54.9373C32.672 54.9565 32.6519 54.9816 32.638 55.0133C32.624 55.045 32.6179 55.0799 32.6198 55.1177L32.6361 55.4503L32.5373 55.455L32.5075 54.8414L32.5988 54.8367L32.6049 54.9471C32.6049 54.9471 32.6561 54.8745 32.6869 54.8521C32.7172 54.8302 32.7512 54.8181 32.788 54.8162Z" fill="#FEFEFE"/>
<path d="M34.5366 48.2794C38.0965 57.6338 40.3938 84.5272 40.5695 97.0223L40.2471 97.026C40.0705 84.4904 37.7648 57.8569 34.2175 48.3944L34.2585 48.3837C34.3568 48.3539 34.4495 48.319 34.5366 48.2794Z" fill="#00315E"/>
<path fill-rule="evenodd" clip-rule="evenodd" d="M38.0864 73.2819L38.8826 73.356L40.8957 96.9526C38.0431 97.5592 34.8908 97.9487 31.6799 97.8443C35.7709 94.659 38.1213 84.273 38.0859 73.2819H38.0864Z" fill="#00315E"/>
<path fill-rule="evenodd" clip-rule="evenodd" d="M25.0904 73.2543L48.6529 70.922L48.9921 72.398L24.7475 74.6963L25.0904 73.2543Z" fill="#1A1A1A"/>
<path fill-rule="evenodd" clip-rule="evenodd" d="M38.3681 73.8256C37.7303 73.8834 37.1661 73.4138 37.1074 72.7759C37.0492 72.1381 37.5188 71.5739 38.1571 71.5157L39.121 71.4276C39.1462 71.4253 39.1685 71.4323 39.1881 71.4481C39.2077 71.4644 39.2184 71.4854 39.2207 71.5101L39.2524 71.8525L38.1967 71.949C37.7988 71.9853 37.5048 72.338 37.5416 72.7359C37.578 73.1342 37.9302 73.4278 38.3285 73.391L39.3842 73.2945L39.4155 73.6369C39.4201 73.6873 39.3828 73.732 39.3325 73.7366L38.3681 73.8247V73.8256Z" fill="#CCCCCC"/>
<path fill-rule="evenodd" clip-rule="evenodd" d="M37.7659 72.8886C37.6699 72.8965 37.586 72.8252 37.5781 72.7297C37.5702 72.6338 37.6415 72.5499 37.737 72.542L38.3883 72.4884C38.4843 72.4805 38.5681 72.5518 38.5761 72.6473C38.584 72.7428 38.5127 72.8266 38.4172 72.8346L37.7659 72.8881V72.8886Z" fill="#CCCCCC"/>
<path fill-rule="evenodd" clip-rule="evenodd" d="M40.2798 57.1654L41.261 57.1239L41.6453 56.8816C41.6835 56.8574 41.7218 56.8458 41.7665 56.8439L42.5441 56.8155C42.5846 56.8141 42.6191 56.8211 42.6559 56.8383L43.1036 57.0466L44.163 57.0018C44.252 56.9981 44.3284 57.068 44.3321 57.1575L44.5833 63.1276C44.587 63.217 44.5171 63.293 44.4281 63.2967L40.5454 63.4598C40.4564 63.4635 40.38 63.3936 40.3763 63.3046L40.1251 57.334C40.1214 57.2446 40.1913 57.1686 40.2803 57.1649L40.2798 57.1654Z" fill="#B3B3B3"/>
<path d="M44.081 57.1466L40.3727 57.3026C40.287 57.3062 40.2205 57.3785 40.2241 57.4642L40.4638 63.1663C40.4674 63.252 40.5398 63.3185 40.6255 63.3149L44.3339 63.159C44.4195 63.1554 44.4861 63.083 44.4825 62.9973L44.2427 57.2952C44.2391 57.2095 44.1667 57.143 44.081 57.1466Z" fill="#E6E6E6"/>
<path fill-rule="evenodd" clip-rule="evenodd" d="M41.5333 58.1778L41.5324 58.1568C41.5324 58.1568 41.5254 58.1661 41.5105 58.1754C41.5021 58.1806 41.4919 58.1824 41.4802 58.1829C41.4611 58.1838 41.4462 58.1792 41.436 58.1689C41.4257 58.1591 41.4201 58.1442 41.4192 58.1251L41.415 58.0175L41.4597 58.0156L41.4639 58.1121C41.4644 58.1242 41.4667 58.1326 41.4713 58.1386C41.4755 58.1442 41.4826 58.147 41.4919 58.1466C41.5044 58.1461 41.5133 58.1414 41.5184 58.1326C41.5235 58.1237 41.5259 58.1098 41.5249 58.0902L41.5217 58.0124L41.5664 58.0105L41.5734 58.1754L41.5329 58.1773L41.5333 58.1778Z" fill="#00407A"/>
<path fill-rule="evenodd" clip-rule="evenodd" d="M41.769 58.1681L41.7242 58.17L41.7201 58.0735C41.7196 58.0614 41.7168 58.053 41.7126 58.047C41.7084 58.0414 41.7014 58.0386 41.6921 58.039C41.6795 58.0395 41.6707 58.0441 41.6655 58.053C41.6604 58.0619 41.6581 58.0758 41.659 58.0954L41.6623 58.1732L41.6171 58.1751L41.6101 58.0101L41.6446 58.0088L41.6455 58.0293C41.6455 58.0293 41.6576 58.0171 41.6739 58.0101C41.6828 58.0064 41.6926 58.0031 41.7037 58.0027C41.7228 58.0017 41.7378 58.0064 41.748 58.0167C41.7583 58.0265 41.7638 58.0414 41.7648 58.0609L41.7694 58.1685L41.769 58.1681Z" fill="#00407A"/>
<path fill-rule="evenodd" clip-rule="evenodd" d="M41.8497 58.1649L41.8045 58.1668L41.7975 58.0019L41.8427 58L41.8497 58.1649Z" fill="#00407A"/>
<path fill-rule="evenodd" clip-rule="evenodd" d="M41.9474 58.1607L41.8775 57.9986L41.9245 57.9967L41.9604 58.0894C41.9641 58.0997 41.9683 58.1085 41.9683 58.1085C41.9683 58.1085 41.9716 58.1001 41.9749 58.0885L42.0023 57.9934L42.0494 57.9916L41.9935 58.1588L41.9474 58.1607Z" fill="#00407A"/>
<path fill-rule="evenodd" clip-rule="evenodd" d="M42.1507 58.1549C42.1241 58.1558 42.1031 58.1497 42.0878 58.1353C42.0724 58.1213 42.064 58.1008 42.0626 58.0743C42.0617 58.0468 42.0677 58.0249 42.0808 58.0095C42.0938 57.9941 42.1129 57.9853 42.1371 57.9843C42.1604 57.9834 42.1786 57.9895 42.1926 58.002C42.2061 58.0146 42.2131 58.0328 42.2145 58.0561L42.2154 58.078L42.1092 58.0822C42.1101 58.0952 42.1143 58.1045 42.1218 58.1115C42.1292 58.1185 42.139 58.1218 42.1521 58.1208C42.1618 58.1204 42.1711 58.119 42.18 58.1167C42.1889 58.1143 42.1977 58.1106 42.207 58.1055L42.2084 58.1404C42.2005 58.1446 42.1926 58.1479 42.1837 58.1502C42.1749 58.1525 42.1637 58.1539 42.1511 58.1544L42.1507 58.1549ZM42.1386 58.016C42.1292 58.0165 42.1218 58.0197 42.1166 58.0258C42.1115 58.0323 42.1087 58.0407 42.1083 58.0519L42.1712 58.0491C42.1702 58.0379 42.1674 58.0295 42.1614 58.0239C42.1553 58.0179 42.1479 58.0155 42.1381 58.016H42.1386Z" fill="#00407A"/>
<path fill-rule="evenodd" clip-rule="evenodd" d="M42.3422 57.9758C42.3483 57.9758 42.3534 57.9758 42.3576 57.9767L42.3558 58.0191C42.352 58.0182 42.3478 58.0182 42.3422 58.0182C42.3278 58.0187 42.3171 58.0229 42.3092 58.0308C42.3012 58.0387 42.298 58.0489 42.2985 58.062L42.3022 58.1459L42.257 58.1477L42.25 57.9828L42.284 57.9814L42.2854 58.0107C42.2854 58.0107 42.2957 57.9954 42.3124 57.9847C42.3213 57.9795 42.332 57.9758 42.3422 57.9753V57.9758Z" fill="#00407A"/>
<path fill-rule="evenodd" clip-rule="evenodd" d="M42.5165 58.0889C42.5175 58.1057 42.5119 58.1192 42.5002 58.1286C42.489 58.1379 42.4718 58.143 42.4481 58.1439C42.4359 58.1444 42.4257 58.1439 42.4173 58.143C42.4089 58.1416 42.401 58.1397 42.3931 58.1369L42.3917 58.0997C42.4001 58.1034 42.4099 58.1062 42.4201 58.1085C42.4308 58.1108 42.4401 58.1118 42.4481 58.1113C42.4644 58.1104 42.4723 58.1053 42.4718 58.0959C42.4718 58.0927 42.4704 58.0894 42.4681 58.0876C42.4657 58.0852 42.462 58.0829 42.4564 58.0806C42.4513 58.0778 42.4439 58.075 42.435 58.0717C42.422 58.067 42.4126 58.0624 42.4066 58.0582C42.4005 58.054 42.3959 58.0489 42.3926 58.0433C42.3898 58.0377 42.3879 58.0302 42.3875 58.0219C42.387 58.0074 42.3921 57.9958 42.4029 57.9874C42.414 57.979 42.4299 57.9743 42.4509 57.9734C42.4709 57.9725 42.49 57.9762 42.5095 57.9841L42.4974 58.0172C42.4891 58.0139 42.4811 58.0111 42.4742 58.0093C42.4667 58.0074 42.4597 58.0065 42.4518 58.0065C42.4387 58.0069 42.4322 58.0107 42.4322 58.0181C42.4322 58.0223 42.435 58.0256 42.4392 58.0284C42.4434 58.0312 42.4532 58.0354 42.4676 58.0405C42.4807 58.0452 42.4905 58.0498 42.4965 58.054C42.5026 58.0582 42.5072 58.0633 42.5105 58.0689C42.5133 58.075 42.5151 58.082 42.5156 58.0899L42.5165 58.0889Z" fill="#00407A"/>
<path fill-rule="evenodd" clip-rule="evenodd" d="M42.6579 58.1311L42.6565 58.1074C42.6496 58.1172 42.6323 58.126 42.6244 58.1297C42.6165 58.1339 42.6062 58.1363 42.5932 58.1367C42.5773 58.1372 42.5648 58.1335 42.5554 58.1246C42.5461 58.1158 42.541 58.1032 42.5401 58.0869C42.5391 58.0692 42.5452 58.0561 42.5568 58.0473C42.569 58.0384 42.5871 58.0328 42.6118 58.031L42.6402 58.0286L42.6398 58.0216C42.6388 58.0049 42.6304 57.997 42.6132 57.9974C42.6002 57.9979 42.5848 58.0025 42.5671 58.0114L42.5508 57.9816C42.5694 57.9709 42.5904 57.9648 42.6132 57.9639C42.6351 57.9629 42.6523 57.9671 42.6645 57.976C42.6766 57.9853 42.6831 57.9993 42.684 58.0193L42.6887 58.1288L42.6575 58.1302L42.6579 58.1311ZM42.6416 58.0552L42.6244 58.0566C42.6114 58.0575 42.6016 58.0603 42.5955 58.065C42.5895 58.0696 42.5862 58.0762 42.5867 58.085C42.5871 58.0976 42.5946 58.1036 42.609 58.1032C42.6193 58.1027 42.6277 58.0994 42.6337 58.0934C42.6398 58.0873 42.6426 58.0789 42.6421 58.0692L42.6416 58.0557V58.0552Z" fill="#00407A"/>
<path fill-rule="evenodd" clip-rule="evenodd" d="M42.7775 58.1256L42.7323 58.1275L42.7225 57.8983L42.7677 57.8964L42.7775 58.1256Z" fill="#00407A"/>
<path fill-rule="evenodd" clip-rule="evenodd" d="M42.8842 57.9562C42.9056 57.9552 42.9224 57.9618 42.9345 57.9762C42.9466 57.9902 42.9536 58.0107 42.9545 58.0368C42.9559 58.0633 42.9508 58.0843 42.9396 58.0997C42.9284 58.1146 42.9126 58.1225 42.8912 58.1235C42.8804 58.1239 42.8707 58.1225 42.8618 58.1188C42.853 58.1151 42.846 58.1095 42.8404 58.102L42.8409 58.1225L42.8148 58.1235L42.805 57.8938L42.8315 57.8928L42.8339 57.9487C42.8343 57.9599 42.8353 57.9818 42.8353 57.9818C42.8455 57.9655 42.8618 57.9567 42.8847 57.9557L42.8842 57.9562ZM42.8809 57.9785C42.8646 57.9795 42.853 57.9841 42.8464 57.9939C42.8395 58.0032 42.8371 58.0191 42.8376 58.0414V58.0429C42.8385 58.0648 42.8427 58.0806 42.8506 58.0899C42.8586 58.0992 42.8702 58.1034 42.887 58.1025C42.9014 58.102 42.9121 58.096 42.9187 58.0852C42.9257 58.0741 42.928 58.0587 42.9275 58.0386C42.9266 58.0181 42.9224 58.0032 42.9149 57.993C42.907 57.9832 42.8958 57.9786 42.8814 57.979L42.8809 57.9785Z" fill="#336695"/>
<path fill-rule="evenodd" clip-rule="evenodd" d="M43.0738 58.1133C43.0519 58.1142 43.0352 58.1072 43.0226 58.0918L43.0263 58.185L42.9998 58.1859L42.99 57.9516L43.0156 57.9507L43.0161 57.973C43.0161 57.973 43.0273 57.9586 43.0384 57.953C43.0468 57.9488 43.0561 57.9465 43.0669 57.946C43.0878 57.9451 43.1046 57.952 43.1167 57.966C43.1288 57.98 43.1358 58.0005 43.1367 58.0271C43.1377 58.0536 43.1326 58.0746 43.1218 58.09C43.1107 58.1053 43.0948 58.1133 43.0734 58.1142L43.0738 58.1133ZM43.0631 57.9679C43.0473 57.9688 43.0356 57.9735 43.0291 57.9828C43.0221 57.9921 43.0193 58.0066 43.0198 58.0261V58.0313C43.0207 58.0532 43.0249 58.069 43.0328 58.0783C43.0403 58.0876 43.0524 58.0923 43.0687 58.0913C43.0822 58.0909 43.0925 58.0848 43.0999 58.0737C43.1069 58.0625 43.1102 58.0471 43.1093 58.0271C43.1083 58.007 43.1041 57.9921 43.0957 57.9823C43.0878 57.9721 43.0766 57.9674 43.0627 57.9679H43.0631Z" fill="#336695"/>
<path fill-rule="evenodd" clip-rule="evenodd" d="M43.243 57.9382C43.2499 57.9377 43.2565 57.9382 43.2621 57.9391L43.2597 57.9638C43.2537 57.9629 43.2476 57.9619 43.242 57.9624C43.2332 57.9629 43.2257 57.9652 43.2187 57.9703C43.2117 57.9754 43.2061 57.9819 43.2024 57.9903C43.1987 57.9987 43.1968 58.008 43.1973 58.0183L43.201 58.1077L43.1745 58.1092L43.1675 57.9442L43.1922 57.9433L43.1936 57.9731C43.1936 57.9731 43.2075 57.9535 43.2159 57.948C43.2239 57.9419 43.2332 57.9391 43.243 57.9386V57.9382Z" fill="#336695"/>
<path fill-rule="evenodd" clip-rule="evenodd" d="M41.65 57.8289C41.65 57.8336 41.6523 57.8383 41.6569 57.8411L41.8028 57.9328C41.8047 57.9342 41.8093 57.9361 41.8144 57.9352L41.7958 57.7544L41.65 57.8285V57.8289Z" fill="#D48500"/>
<path fill-rule="evenodd" clip-rule="evenodd" d="M41.786 57.6594C41.7855 57.6542 41.7795 57.6519 41.7762 57.6561C41.7483 57.6934 41.6546 57.8173 41.6546 57.8173C41.6514 57.8215 41.65 57.8252 41.65 57.8294L41.7958 57.7553L41.786 57.6594Z" fill="#DD9D33"/>
<path fill-rule="evenodd" clip-rule="evenodd" d="M41.7975 57.7548L41.8161 57.9356C41.8194 57.9346 41.8236 57.9328 41.8269 57.9277L42.0374 57.6458C42.0416 57.6407 42.036 57.6346 42.0309 57.6369L41.798 57.7553L41.7975 57.7548Z" fill="#00407A"/>
<path fill-rule="evenodd" clip-rule="evenodd" d="M41.7093 60.7093C41.5989 60.7592 41.4969 60.8034 41.4084 60.8682C41.3161 60.9362 41.3012 61.0597 41.2975 61.2144L43.6018 61.1212C43.5771 60.9572 43.5687 60.8682 43.4723 60.7839C43.3949 60.7158 43.2692 60.6627 43.1518 60.6418C43.1764 60.3124 42.9505 60.4321 42.9989 60.1512C43.0143 60.0613 43.0576 59.9942 43.0637 59.8977C43.073 59.7579 43.0329 59.7198 42.9868 59.6275C42.9067 59.4677 43.0437 59.4877 42.78 59.1788C42.7418 59.1341 42.7543 59.1374 42.7012 59.1024C42.561 59.0106 42.5 59.0283 42.3155 58.9967C41.9395 58.9324 41.8393 59.4099 41.7541 59.7128C41.6646 60.031 41.7853 60.0002 41.8198 60.2374C41.8351 60.3408 41.789 60.4205 41.7429 60.4703C41.6511 60.5705 41.6991 60.605 41.7098 60.7093H41.7093Z" fill="#B3B3B3"/>
<path d="M41.474 62.9559C41.4662 62.9559 41.4594 62.9549 41.4526 62.9529C41.4458 62.9505 41.4399 62.9471 41.4351 62.9422C41.4297 62.9374 41.4258 62.9315 41.4229 62.9242C41.42 62.917 41.4181 62.9092 41.4176 62.8999C41.4171 62.8907 41.4185 62.8824 41.421 62.8751C41.4239 62.8678 41.4273 62.8615 41.4327 62.8561C41.4375 62.8508 41.4434 62.8469 41.4497 62.844C41.456 62.841 41.4633 62.8396 41.4706 62.8391C41.4779 62.8391 41.4842 62.8396 41.4896 62.842C41.4949 62.844 41.4993 62.8469 41.5037 62.8503L41.492 62.8678C41.4891 62.8654 41.4857 62.8634 41.4828 62.8625C41.4798 62.861 41.4764 62.8605 41.473 62.8605C41.4638 62.861 41.457 62.8644 41.4516 62.8712C41.4463 62.878 41.4438 62.8873 41.4443 62.8985C41.4448 62.9096 41.4477 62.9184 41.4536 62.9247C41.4594 62.931 41.4667 62.9345 41.4755 62.934C41.4798 62.934 41.4837 62.9325 41.4876 62.9306C41.491 62.9286 41.4949 62.9262 41.4978 62.9233L41.509 62.9398C41.5042 62.9447 41.4983 62.9481 41.492 62.9505C41.4857 62.953 41.4798 62.9544 41.4735 62.9549L41.474 62.9559Z" fill="#666A6C"/>
<path d="M41.5474 62.8837L41.5965 62.8817C41.596 62.873 41.5941 62.8666 41.5902 62.8618C41.5863 62.8574 41.5804 62.8549 41.5727 62.8554C41.5658 62.8554 41.5605 62.8584 41.5556 62.8632C41.5508 62.8681 41.5478 62.8749 41.5474 62.8841V62.8837ZM41.58 62.9513C41.5722 62.9518 41.5649 62.9508 41.5585 62.9484C41.5517 62.9459 41.5459 62.9425 41.5406 62.9377C41.5352 62.9328 41.5313 62.9269 41.5279 62.9196C41.525 62.9123 41.523 62.9046 41.5226 62.8953C41.5221 62.8861 41.5235 62.8783 41.526 62.8705C41.5284 62.8632 41.5323 62.8569 41.5367 62.8515C41.541 62.8462 41.5464 62.8423 41.5527 62.8394C41.5586 62.8365 41.5649 62.835 41.5717 62.8345C41.5795 62.834 41.5858 62.8355 41.5916 62.8374C41.5975 62.8399 41.6024 62.8433 41.6062 62.8476C41.6101 62.852 41.6135 62.8574 41.616 62.8642C41.6179 62.8705 41.6194 62.8778 41.6194 62.8851C41.6194 62.8875 41.6194 62.89 41.6194 62.8924C41.6194 62.8948 41.6194 62.8963 41.6189 62.8978L41.5483 62.9007C41.5498 62.9104 41.5537 62.9182 41.56 62.9231C41.5659 62.9279 41.5736 62.9304 41.5824 62.9304C41.5873 62.9299 41.5916 62.9294 41.596 62.9274C41.5999 62.926 41.6043 62.924 41.6082 62.9211L41.6174 62.9372C41.6126 62.9411 41.6067 62.944 41.6004 62.9464C41.5941 62.9489 41.5873 62.9503 41.5804 62.9508L41.58 62.9513Z" fill="#666A6C"/>
<path d="M41.6898 62.9209C41.6968 62.9204 41.7028 62.9172 41.707 62.9106C41.7112 62.9046 41.7136 62.8952 41.7131 62.8831C41.7126 62.8724 41.7103 62.864 41.7066 62.8584C41.7028 62.8524 41.6968 62.8496 41.6889 62.8501C41.6814 62.8505 41.6735 62.8547 41.666 62.8631L41.6679 62.9125C41.6721 62.9158 41.6758 62.9176 41.6796 62.919C41.6833 62.9204 41.6865 62.9209 41.6898 62.9209ZM41.646 62.9828L41.64 62.8342L41.6605 62.8333L41.6628 62.8445H41.6637C41.6679 62.8403 41.673 62.837 41.6781 62.8342C41.6837 62.8314 41.6893 62.8296 41.6954 62.8291C41.7019 62.8291 41.708 62.83 41.7131 62.8324C41.7182 62.8347 41.7229 62.838 41.7266 62.8426C41.7303 62.8473 41.7336 62.8529 41.7355 62.8594C41.7378 62.8659 41.7387 62.8734 41.7392 62.8817C41.7396 62.8911 41.7387 62.899 41.7364 62.9064C41.7341 62.9134 41.7313 62.9199 41.7271 62.9246C41.7229 62.9297 41.7182 62.9335 41.7131 62.9363C41.7075 62.939 41.7019 62.9404 41.6958 62.9409C41.6912 62.9414 41.6865 62.9404 41.6819 62.9386C41.6772 62.9367 41.6726 62.9344 41.6679 62.9307L41.6693 62.9484L41.6707 62.9819L41.6455 62.9828H41.646Z" fill="#666A6C"/>
<path d="M41.8063 62.9209C41.8107 62.9209 41.8151 62.9194 41.8185 62.9175C41.8219 62.9151 41.8258 62.9121 41.8301 62.9078L41.8292 62.883C41.8219 62.8839 41.8156 62.8859 41.8102 62.8873C41.8053 62.8893 41.801 62.8907 41.798 62.8927C41.7951 62.8946 41.7927 62.8971 41.7917 62.8995C41.7907 62.9019 41.7898 62.9044 41.7898 62.9073C41.7898 62.9122 41.7917 62.916 41.7946 62.918C41.798 62.9199 41.8019 62.9209 41.8063 62.9209ZM41.799 62.9418C41.7893 62.9423 41.781 62.9399 41.7747 62.934C41.7684 62.9282 41.765 62.9204 41.765 62.9107C41.765 62.9048 41.7659 62.8995 41.7679 62.8946C41.7703 62.8902 41.7737 62.8859 41.7791 62.8825C41.7844 62.8791 41.7907 62.8757 41.799 62.8732C41.8073 62.8703 41.817 62.8684 41.8282 62.8669C41.8282 62.864 41.8272 62.8616 41.8267 62.8586C41.8258 62.8562 41.8248 62.8538 41.8233 62.8518C41.8214 62.8499 41.8194 62.8484 41.817 62.8474C41.8141 62.8465 41.8112 62.846 41.8073 62.846C41.8019 62.846 41.7966 62.8474 41.7912 62.8499C41.7864 62.8523 41.7815 62.8552 41.7761 62.8581L41.7659 62.8411C41.7718 62.8367 41.7786 62.8333 41.7864 62.8299C41.7941 62.8265 41.8024 62.8251 41.8112 62.8246C41.8253 62.8241 41.8355 62.8275 41.8428 62.8358C41.8501 62.8435 41.854 62.8552 41.8545 62.8708L41.8574 62.9365L41.836 62.9375L41.8336 62.9253H41.8326C41.8277 62.9297 41.8228 62.9336 41.817 62.9365C41.8116 62.9394 41.8053 62.9413 41.799 62.9413V62.9418Z" fill="#666A6C"/>
<path d="M41.9359 62.9378C41.9296 62.9378 41.9238 62.9373 41.9194 62.9353C41.915 62.9334 41.9111 62.9309 41.9082 62.9275C41.9053 62.9241 41.9029 62.9203 41.9014 62.9149C41.8999 62.91 41.899 62.9047 41.899 62.8988L41.8966 62.8458L41.881 62.8463L41.88 62.8268L41.897 62.8249L41.899 62.7942L41.9204 62.7933L41.9219 62.8239L41.9501 62.8224L41.951 62.8434L41.9228 62.8443L41.9253 62.8974C41.9257 62.9105 41.9311 62.9168 41.9418 62.9164C41.9437 62.9164 41.9457 62.9159 41.9476 62.9154C41.9496 62.9149 41.9515 62.9139 41.953 62.9134L41.9583 62.9324C41.9554 62.9339 41.952 62.9348 41.9481 62.9358C41.9442 62.9368 41.9403 62.9378 41.9359 62.9378Z" fill="#666A6C"/>
<path d="M42.2568 62.9028C42.2612 62.9028 42.2656 62.9013 42.269 62.8994C42.2724 62.8969 42.2763 62.894 42.2806 62.8896L42.2797 62.8648C42.2724 62.8663 42.266 62.8677 42.2607 62.8692C42.2553 62.8711 42.2514 62.8726 42.2485 62.8745C42.2456 62.8765 42.2432 62.8789 42.2422 62.8814C42.2408 62.8838 42.2403 62.8862 42.2403 62.8892C42.2403 62.894 42.2422 62.8979 42.2451 62.8998C42.2481 62.9018 42.2524 62.9028 42.2568 62.9028ZM42.2495 62.9237C42.2398 62.9242 42.2315 62.9217 42.2252 62.9159C42.2189 62.9101 42.2155 62.9023 42.215 62.8926C42.215 62.8867 42.2159 62.8814 42.2179 62.877C42.2203 62.8721 42.2242 62.8677 42.2291 62.8643C42.2344 62.8609 42.2407 62.8575 42.249 62.8551C42.2573 62.8522 42.267 62.8502 42.2782 62.8488C42.2777 62.8459 42.2772 62.8434 42.2763 62.8405C42.2753 62.8381 42.2743 62.8356 42.2729 62.8337C42.2709 62.8317 42.269 62.8303 42.2665 62.8293C42.2636 62.8283 42.2607 62.8278 42.2568 62.8278C42.2514 62.8278 42.2461 62.8293 42.2407 62.8317C42.2354 62.8342 42.2305 62.8371 42.2257 62.84L42.2154 62.823C42.2213 62.8186 42.2281 62.8152 42.2359 62.8118C42.2437 62.8089 42.2514 62.8069 42.2607 62.8064C42.2743 62.806 42.285 62.8094 42.2923 62.8176C42.2996 62.8254 42.3035 62.8371 42.304 62.8527L42.3069 62.9183L42.2855 62.9193L42.2831 62.9071H42.2821C42.2772 62.9115 42.2724 62.9154 42.2665 62.9183C42.2612 62.9212 42.2549 62.9232 42.2485 62.9232L42.2495 62.9237Z" fill="#666A6C"/>
<path d="M42.3371 62.9114L42.3324 62.8052L42.3529 62.8043L42.3552 62.8187H42.3561C42.3603 62.8136 42.365 62.8094 42.3701 62.8062C42.3753 62.8024 42.3813 62.8006 42.3878 62.8001C42.3958 62.8001 42.4018 62.801 42.4069 62.8043C42.4121 62.8076 42.4158 62.8122 42.4181 62.8183C42.4228 62.8122 42.4279 62.8076 42.4335 62.8038C42.4386 62.8001 42.4447 62.7978 42.4517 62.7978C42.4628 62.7973 42.4717 62.8006 42.4773 62.8076C42.4829 62.8145 42.4861 62.8248 42.4866 62.8388L42.4894 62.9054L42.4642 62.9063L42.4614 62.843C42.461 62.8341 42.4596 62.828 42.4568 62.8243C42.454 62.8211 42.4498 62.8192 42.4442 62.8197C42.4377 62.8197 42.4302 62.8248 42.4228 62.8336L42.426 62.9077L42.4009 62.9087L42.3981 62.8453C42.3976 62.8364 42.3962 62.8304 42.3934 62.8267C42.3906 62.8234 42.3864 62.8215 42.3809 62.8215C42.3743 62.822 42.3669 62.8267 42.3589 62.8355L42.3622 62.9096L42.3371 62.9105V62.9114Z" fill="#666A6C"/>
<path d="M42.5589 62.8897C42.5633 62.8897 42.5677 62.8882 42.5711 62.8863C42.5745 62.8839 42.5784 62.881 42.5827 62.8766L42.5818 62.8518C42.574 62.8532 42.5681 62.8547 42.5628 62.8562C42.5579 62.8581 42.5535 62.8596 42.5506 62.8615C42.5477 62.8634 42.5453 62.8659 42.5443 62.8683C42.5433 62.8707 42.5423 62.8732 42.5423 62.8761C42.5423 62.8809 42.5443 62.8849 42.5472 62.8868C42.5506 62.8887 42.5545 62.8897 42.5589 62.8897ZM42.5516 62.9106C42.5419 62.9111 42.5336 62.9087 42.5273 62.9029C42.5209 62.897 42.5176 62.8892 42.5176 62.8795C42.5171 62.8737 42.5185 62.8683 42.5205 62.8634C42.5229 62.8586 42.5263 62.8542 42.5317 62.8508C42.537 62.8474 42.5438 62.844 42.5516 62.8415C42.5599 62.8386 42.5696 62.8367 42.5808 62.8352C42.5803 62.8323 42.5798 62.8299 42.5793 62.827C42.5784 62.8245 42.5774 62.8221 42.5754 62.8201C42.574 62.8182 42.572 62.8167 42.5691 62.8158C42.5662 62.8148 42.5633 62.8143 42.5594 62.8143C42.554 62.8143 42.5487 62.8158 42.5433 62.8182C42.5385 62.8206 42.5336 62.8235 42.5282 62.8265L42.518 62.8094C42.5239 62.805 42.5307 62.8016 42.5385 62.7982C42.5462 62.7953 42.5545 62.7934 42.5633 62.7929C42.5774 62.7924 42.5876 62.7958 42.5949 62.8041C42.6022 62.8119 42.6061 62.8236 42.6066 62.8391L42.6095 62.9048L42.5881 62.9058L42.5857 62.8936H42.5847C42.5798 62.898 42.575 62.9019 42.5691 62.9048C42.5638 62.9077 42.5574 62.9097 42.5511 62.9097L42.5516 62.9106Z" fill="#666A6C"/>
<path d="M42.6399 62.904L42.635 62.7931L42.6564 62.7921L42.6589 62.8072H42.6598C42.6647 62.8023 42.6696 62.7979 42.6754 62.794C42.6807 62.7906 42.6876 62.7887 42.6953 62.7882C42.7075 62.7877 42.7163 62.7911 42.7221 62.7984C42.7279 62.8057 42.7309 62.8164 42.7313 62.831L42.7343 62.9006L42.708 62.9016L42.7051 62.8354C42.7046 62.8262 42.7031 62.8198 42.7002 62.8159C42.6973 62.8125 42.6929 62.8106 42.6866 62.8111C42.6817 62.8111 42.6774 62.8125 42.6739 62.815C42.6705 62.8174 42.6662 62.8213 42.6618 62.8257L42.6652 62.903L42.6389 62.904H42.6399Z" fill="#666A6C"/>
<path d="M43.0599 62.8634C43.0669 62.863 43.0729 62.8597 43.0771 62.8532C43.0818 62.8471 43.0836 62.8378 43.0832 62.8257C43.0827 62.815 43.0804 62.8066 43.0766 62.801C43.0729 62.795 43.0669 62.7926 43.0589 62.7926C43.0515 62.7931 43.0436 62.7973 43.0361 62.8057L43.038 62.855C43.0422 62.8583 43.0459 62.8602 43.0496 62.8616C43.0533 62.863 43.0566 62.8634 43.0599 62.8634ZM43.0161 62.9254L43.01 62.7768L43.0305 62.7759L43.0328 62.787H43.0338C43.038 62.7828 43.0431 62.7796 43.0482 62.7768C43.0538 62.774 43.0594 62.7721 43.0654 62.7717C43.072 62.7717 43.078 62.7726 43.0832 62.7749C43.0883 62.7773 43.0929 62.781 43.0967 62.7852C43.1004 62.7898 43.1037 62.7954 43.1055 62.8019C43.1074 62.8085 43.1088 62.8159 43.1092 62.8243C43.1097 62.8336 43.1088 62.8415 43.1065 62.849C43.1041 62.856 43.1013 62.8625 43.0971 62.8672C43.0929 62.8723 43.0883 62.876 43.0832 62.8788C43.0776 62.8816 43.072 62.883 43.0659 62.8835C43.0613 62.8835 43.0566 62.8825 43.0519 62.8807C43.0473 62.8788 43.0426 62.8765 43.038 62.8728L43.0394 62.8905L43.0408 62.924L43.0156 62.9249L43.0161 62.9254Z" fill="#666A6C"/>
<path d="M43.1574 62.816L43.207 62.814C43.2066 62.8053 43.2041 62.799 43.2007 62.7941C43.1968 62.7892 43.191 62.7873 43.1832 62.7873C43.1769 62.7878 43.1711 62.7902 43.1662 62.7951C43.1613 62.7999 43.1584 62.8067 43.1579 62.816H43.1574ZM43.19 62.8836C43.1822 62.8836 43.1749 62.8826 43.1686 62.8807C43.1618 62.8783 43.156 62.8749 43.1506 62.87C43.1453 62.8651 43.1414 62.8593 43.138 62.852C43.135 62.8452 43.1331 62.8369 43.1326 62.8277C43.1321 62.8184 43.1336 62.8106 43.136 62.8033C43.1389 62.796 43.1423 62.7897 43.1467 62.7844C43.1511 62.779 43.1564 62.7751 43.1628 62.7722C43.1691 62.7693 43.1749 62.7678 43.1817 62.7673C43.1895 62.7673 43.1964 62.7683 43.2017 62.7703C43.2075 62.7727 43.2124 62.7761 43.2168 62.7805C43.2207 62.7848 43.2241 62.7902 43.226 62.7965C43.228 62.8029 43.2294 62.8102 43.2299 62.8175C43.2299 62.8204 43.2299 62.8223 43.2299 62.8247C43.2299 62.8272 43.2294 62.8291 43.2294 62.8301L43.1589 62.833C43.1608 62.8427 43.1642 62.8505 43.1706 62.8554C43.1769 62.8607 43.1842 62.8627 43.1929 62.8627C43.1978 62.8627 43.2022 62.8617 43.2065 62.8598C43.2104 62.8578 43.2148 62.8559 43.2187 62.8534L43.2285 62.8695C43.2231 62.8729 43.2178 62.8763 43.2109 62.8787C43.2046 62.8812 43.1978 62.8826 43.191 62.8831L43.19 62.8836Z" fill="#666A6C"/>
<path d="M43.3014 62.8533C43.3093 62.8528 43.3167 62.8486 43.3233 62.8402L43.3209 62.7904C43.3172 62.7871 43.3135 62.7852 43.3097 62.7838C43.306 62.7824 43.3028 62.782 43.299 62.7824C43.292 62.7824 43.2865 62.7857 43.2818 62.7922C43.2776 62.7983 43.2753 62.8071 43.2757 62.8188C43.2762 62.8304 43.2785 62.8388 43.2832 62.8449C43.2874 62.8505 43.2934 62.8533 43.3014 62.8533ZM43.2962 62.8738C43.2827 62.8742 43.272 62.87 43.2636 62.8607C43.2552 62.8514 43.2506 62.8379 43.2501 62.8202C43.2497 62.8113 43.2506 62.8039 43.2529 62.7964C43.2552 62.7894 43.258 62.7834 43.2622 62.7782C43.2664 62.7731 43.2711 62.7694 43.2762 62.7666C43.2813 62.7638 43.2869 62.7624 43.293 62.7619C43.299 62.7615 43.3042 62.7624 43.3084 62.7643C43.3125 62.7661 43.3172 62.7689 43.3214 62.7722L43.3195 62.7549L43.3177 62.7163L43.3428 62.7153L43.3493 62.8682L43.3288 62.8691L43.3265 62.8574H43.3256C43.3219 62.8616 43.3177 62.8649 43.3125 62.8677C43.3074 62.8705 43.3023 62.8723 43.2962 62.8723V62.8738Z" fill="#666A6C"/>
<path d="M43.4189 62.8744C43.4072 62.8749 43.398 62.8715 43.3926 62.8642C43.3868 62.8569 43.3834 62.8462 43.3829 62.8316L43.38 62.762L43.4063 62.761L43.4092 62.8272C43.4097 62.8364 43.4111 62.8428 43.414 62.8467C43.417 62.8501 43.4213 62.852 43.4272 62.8515C43.432 62.8515 43.4364 62.85 43.4398 62.8476C43.4432 62.8447 43.4471 62.8408 43.4515 62.8355L43.4481 62.7596L43.4744 62.7586L43.4788 62.8695L43.4573 62.8705L43.4544 62.8544H43.454C43.4496 62.8603 43.4442 62.8652 43.4389 62.869C43.4335 62.8724 43.4267 62.8744 43.4189 62.8749V62.8744Z" fill="#666A6C"/>
<path d="M43.5308 62.8641C43.5219 62.8645 43.5154 62.8622 43.5116 62.8571C43.5079 62.8519 43.5056 62.8445 43.5051 62.8356L43.5 62.7099L43.5252 62.7089L43.5303 62.8356C43.5303 62.8389 43.5312 62.8408 43.5322 62.8417C43.5336 62.8431 43.5349 62.8436 43.5359 62.8436H43.5377C43.5382 62.8436 43.5387 62.8436 43.5401 62.8431L43.5443 62.8617C43.541 62.8636 43.5364 62.8645 43.5312 62.8645L43.5308 62.8641Z" fill="#666A6C"/>
<path d="M43.5692 62.7535L43.5944 62.7526L43.5986 62.8588L43.5734 62.8597L43.5692 62.7535ZM43.5809 62.7344C43.5767 62.7344 43.5725 62.7335 43.5697 62.7311C43.5664 62.7283 43.565 62.7251 43.565 62.7209C43.565 62.7167 43.5659 62.713 43.5687 62.7106C43.5715 62.7078 43.5753 62.7064 43.5794 62.7064C43.5841 62.7064 43.5878 62.7074 43.5906 62.7097C43.5934 62.7125 43.5953 62.7157 43.5953 62.7199C43.5953 62.7241 43.5939 62.7279 43.5911 62.7302C43.5883 62.733 43.5846 62.7344 43.5804 62.7344H43.5809Z" fill="#666A6C"/>
<path d="M42.1218 62.8727C42.1224 62.8918 42.1076 62.9077 42.0886 62.9088C42.0695 62.9098 42.0531 62.8945 42.0525 62.8755C42.0515 62.8564 42.0667 62.8406 42.0853 62.8395C42.1044 62.8384 42.1207 62.8536 42.1213 62.8727H42.1218Z" fill="#DD9D33"/>
<path d="M42.9112 62.84C42.9123 62.8591 42.897 62.8755 42.8785 62.8761C42.8594 62.8766 42.843 62.8619 42.8425 62.8428C42.8419 62.8237 42.8567 62.8073 42.8758 62.8068C42.8948 62.8062 42.9112 62.821 42.9118 62.84H42.9112Z" fill="#DD9D33"/>
<path d="M42.4582 62.2265C42.3991 62.229 42.3532 62.2134 42.3205 62.1798C42.2879 62.1462 42.2699 62.0913 42.2667 62.0149L42.2565 61.7705L42.3598 61.7662L42.3705 62.021C42.3724 62.0657 42.3805 62.0966 42.3947 62.1138C42.409 62.1309 42.4289 62.1389 42.4545 62.1378C42.4801 62.1368 42.4995 62.1271 42.5127 62.1088C42.5259 62.0905 42.5316 62.059 42.5297 62.0143L42.519 61.7595L42.6182 61.7553L42.6284 61.9997C42.6317 62.076 42.6186 62.1323 42.5894 62.1685C42.5606 62.2047 42.5169 62.224 42.4582 62.2265ZM42.7344 62.2065L42.7198 61.8602L42.8036 61.8566L42.8125 61.9003L42.8153 61.9002C42.8296 61.8856 42.8453 61.8728 42.8626 61.8618C42.8803 61.8504 42.9008 61.8442 42.9241 61.8432C42.9618 61.8416 42.9895 61.853 43.0074 61.8774C43.0256 61.9014 43.0357 61.935 43.0375 61.9783L43.0465 62.1934L42.9439 62.1977L42.9354 61.9959C42.9343 61.9708 42.9301 61.9537 42.9227 61.9447C42.9158 61.9356 42.9049 61.9314 42.89 61.932C42.877 61.9326 42.866 61.9361 42.8569 61.9425C42.8478 61.9485 42.8379 61.9571 42.8272 61.9683L42.837 62.2022L42.7344 62.2065ZM42.312 63.2251L42.2975 62.8788L42.4001 62.8745L42.4147 63.2208L42.312 63.2251ZM42.3463 62.8257C42.3291 62.8264 42.3149 62.8221 42.3038 62.8128C42.2927 62.8035 42.2868 62.7906 42.2861 62.7744C42.2854 62.7581 42.2902 62.7448 42.3005 62.7346C42.3108 62.7243 42.3246 62.7189 42.3418 62.7182C42.359 62.7174 42.3732 62.7217 42.3843 62.7311C42.3954 62.7404 42.4013 62.7532 42.402 62.7695C42.4027 62.7858 42.3979 62.799 42.3876 62.8093C42.3773 62.8195 42.3635 62.825 42.3463 62.8257Z" fill="#00407A"/>
<path fill-rule="evenodd" clip-rule="evenodd" d="M41.8202 55.792L42.3657 55.7691C42.4161 55.7668 42.4594 55.8064 42.4612 55.8567L42.5078 56.966C42.5102 57.0164 42.4706 57.0592 42.4203 57.0616L41.8747 57.0844C41.8244 57.0867 41.781 57.0471 41.7792 56.9968L41.7326 55.8875C41.7303 55.8372 41.7699 55.7943 41.8202 55.792Z" fill="white" fill-opacity="0.74902"/>
<path d="M42.0367 56.1382C42.7031 56.1382 43.2434 55.598 43.2434 54.9315C43.2434 54.2651 42.7031 53.7249 42.0367 53.7249C41.3703 53.7249 40.83 54.2651 40.83 54.9315C40.83 55.598 41.3703 56.1382 42.0367 56.1382Z" fill="#D48500"/>
<path d="M42.0388 55.8559C42.5491 55.8559 42.9627 55.4423 42.9627 54.932C42.9627 54.4218 42.5491 54.0081 42.0388 54.0081C41.5286 54.0081 41.115 54.4218 41.115 54.932C41.115 55.4423 41.5286 55.8559 42.0388 55.8559Z" fill="#DD9D33"/>
<path fill-rule="evenodd" clip-rule="evenodd" d="M7.07341 67.6631L15.7013 69.7499L14.4522 72.3683L6.07501 70.2563L7.07341 67.6631Z" fill="#00315E"/>
<path fill-rule="evenodd" clip-rule="evenodd" d="M19.2378 35.8409C19.728 35.381 20.2181 34.9221 20.7082 34.4623C21.3567 38.067 23.8879 39.174 26.2211 40.3438C23.8721 39.645 21.6516 39.5984 19.2374 35.8404L19.2378 35.8409Z" fill="#1A1A1A"/>
<path fill-rule="evenodd" clip-rule="evenodd" d="M40.8698 33.2735C40.532 33.2511 40.1942 33.2292 39.856 33.2068C40.3568 34.7644 39.8369 35.979 39.59 37.2616C40.1215 36.1653 40.778 35.3495 40.8698 33.273V33.2735Z" fill="#1A1A1A"/>
<path d="M93.8222 32.0545V39.5813C93.8222 46.436 89.0946 52.413 82.3417 54.0961C75.6001 52.4186 70.8725 46.436 70.8725 39.5813V32.0545C76.1812 31.4657 79.1881 29.4771 82.3474 27.1552C85.5066 29.4771 88.5136 31.4657 93.8222 32.0545Z" fill="#49DCC7"/>
<path d="M82.3473 51.5343C77.1459 49.8494 73.5724 44.9245 73.5724 39.2926V33.8846C77.2267 33.0716 79.9112 31.5694 82.3473 29.8551C84.8355 31.6165 87.468 33.0893 91.1222 33.8905V39.2985C91.1222 44.9245 87.5488 49.8494 82.3473 51.5343Z" fill="#48D06A"/>
<path d="M82.3473 51.5343C77.1459 49.8494 73.5724 44.9245 73.5724 39.2926V33.8846C77.2267 33.0716 79.9112 31.5694 82.3473 29.8551V51.5343Z" fill="#48D06A"/>
<path d="M78.376 41.181C78.3029 41.1149 78.2439 41.0353 78.2031 40.9464C78.162 40.8572 78.1402 40.7607 78.1393 40.6627C78.1383 40.5648 78.1584 40.4679 78.1978 40.3779C78.2372 40.288 78.2951 40.207 78.3675 40.1394C78.4399 40.0718 78.5253 40.0189 78.6186 39.9833C78.7119 39.9476 78.8116 39.9298 78.9118 39.9306C79.0121 39.9314 79.1114 39.9509 79.204 39.988C79.2963 40.025 79.3804 40.079 79.4514 40.1473L81.2048 41.7845L85.2515 38.0058C85.3231 37.9389 85.4075 37.8864 85.4996 37.8507C85.5918 37.8151 85.6902 37.7968 85.7894 37.7968C85.8886 37.7968 85.9871 37.8151 86.0792 37.8507C86.1714 37.8864 86.2558 37.9389 86.3273 38.0058L78.376 41.181ZM78.376 41.181L80.6385 43.2932C80.6385 43.2932 80.6386 43.2932 80.6386 43.2932L78.376 41.181ZM86.3273 39.0395L86.3273 39.0395L80.7465 43.1776C80.8067 43.2338 80.8782 43.2784 80.9569 43.3089C81.0355 43.3393 81.1199 43.355 81.205 43.355C81.2902 43.355 81.3745 43.3393 81.4532 43.3089C81.5318 43.2784 81.6033 43.2338 81.6635 43.1776L81.7715 43.2932L81.7715 43.2932L86.3273 39.0395Z" fill="white" stroke="white" stroke-width="0.316403"/>
</g>
</svg>
