<svg width="81" height="72" viewBox="0 0 81 72" fill="none" xmlns="http://www.w3.org/2000/svg">
<path d="M67.9886 22.8678C75.5375 36.1527 76.5445 49.0565 65.4601 59.539C54.0435 70.3354 37.1991 74.1062 23.4934 66.4628C9.60714 58.7188 3.42917 48.1592 8.03318 32.8785C11.8102 20.3426 26.9497 25.2524 39.8914 23.7578C52.632 22.2864 61.3515 13.3022 67.9886 22.8678Z" fill="#FCF0E3"/>
<mask id="mask0_6803_4621" style="mask-type:alpha" maskUnits="userSpaceOnUse" x="0" y="0" width="81" height="72">
<path d="M76.719 15.5631C84.7765 26.9853 79.6341 50.9728 69.1039 59.4646C59.4026 69.4792 38.513 75.768 24.717 69.4842C-9.07722 50.7832 0.408639 28.2935 7.9545 13.3233C11.5427 3.16789 21.8668 1.3188 34.1614 0.108043C46.265 -1.0839 70.4137 7.81404 76.719 15.5631Z" fill="#E4E4E2"/>
</mask>
<g mask="url(#mask0_6803_4621)">
<path d="M15.6645 13.3009L10.2915 10.8594C11.2053 11.5655 10.3228 14.3387 9.45781 16.6021C9.08956 17.5657 8.70168 18.5922 8.93413 19.5972C9.40782 21.6453 11.6741 20.5664 11.8789 19.2013L15.3592 19.9473C14.8097 19.3369 15.6645 17.0988 16.275 15.539C16.7635 14.2911 16.0715 13.527 15.6645 13.3009Z" fill="#E7F9EB"/>
<path d="M18.0443 20.3541L11.8165 19.2012C11.5723 20.3948 10.6157 20.7384 10.168 20.761L14.8083 21.168C16.6644 21.385 17.739 20.7158 18.0443 20.3541Z" fill="#48D06A"/>
<path d="M31.1013 6.21214C33.397 4.45656 37.3471 4.46781 39.0352 4.69289C37.2796 4.96296 35.7153 5.70572 35.1526 6.04335C33.262 5.36812 31.664 5.87453 31.1013 6.21214Z" fill="#48D06A"/>
<path d="M35.1512 5.92408C39.6077 3.08815 43.1976 5.41767 44.4355 6.93692C39.4389 8.55746 39.6527 12.4512 40.3842 14.1956C39.709 14.8708 38.0772 13.4078 37.1769 12.8451C34.3072 18.9221 27.2174 20.779 27.2174 18.2469C27.2174 15.7148 28.2302 11.1571 29.5806 7.78094C30.661 5.08005 33.7445 5.41766 35.1512 5.92408Z" fill="#E7F9EB"/>
<path d="M29.5812 19.3793C32.2821 19.3793 37.9652 16.1157 40.3848 14.3152C39.4395 14.5852 37.7964 13.4711 37.1775 12.7959C34.2065 17.3874 30.8754 19.098 29.5812 19.3793Z" fill="#48D06A"/>
<path d="M60.7546 21.8922C61.5551 20.9583 61.4217 15.9996 61.0881 13.7205C63.7564 13.7204 69.7601 13.2201 68.9263 13.7204C67.9556 14.3029 70.4272 19.5574 68.9263 21.8922C65.5909 22.2813 59.9541 22.8261 60.7546 21.8922Z" fill="#E7F9EB"/>
<path d="M60.5874 22.0585L60.2539 21.5581L67.4331 21.246C67.7467 21.2324 68.0366 21.3652 68.2567 21.5891C68.428 21.7633 68.6296 21.9178 68.8501 21.9034C68.9267 21.8895 68.9549 21.8846 68.9259 21.8917C68.9004 21.8979 68.8752 21.9017 68.8501 21.9034C68.0697 22.0447 62.258 23.1215 60.5874 22.0585Z" fill="#48D06A"/>
<path d="M25.4653 38.9538L14.1025 41.2778C13.4501 41.4112 13.0575 42.0811 13.26 42.7155L20.6793 65.9606L70.6696 56.2271C68.7366 49.6057 63.671 37.1575 60.8715 35.9656C60.1595 35.6625 40.5096 38.9895 29.7047 41.3047C29.076 41.4394 28.4246 41.2075 28.0257 40.7032L27.1195 39.5575C26.7262 39.0602 26.0865 38.8267 25.4653 38.9538Z" fill="#BACAD9"/>
<path d="M27.4167 50.8225L20.7207 65.9605L70.4441 56.553L79.3128 41.1807C79.7899 40.3537 79.0796 39.3471 78.1405 39.5196L30.7046 48.2285C29.2471 48.4961 28.0162 49.4672 27.4167 50.8225Z" fill="#33628D"/>
<path d="M55.9844 19.5164C55.9844 18.2088 55.1852 17.8818 54.7857 17.8818C51.9523 18.3177 52.5408 21.8049 53.5869 21.8049C54.8946 21.8049 55.9844 21.1511 55.9844 19.5164Z" fill="#48D06A"/>
<path d="M42.6867 33.2479L50.9688 33.5749L49.879 27.9082L42.6867 33.2479Z" fill="#48D06A"/>
<path d="M54.7851 17.871L54.8926 17.8823C54.8568 17.8674 54.821 17.8638 54.7851 17.871L44.0591 16.7474C43.6797 16.7076 43.3122 16.87 43.1722 17.2249C42.7279 18.3509 42.0881 21.0999 41.7058 26.4235C41.6387 27.3577 40.8336 28.0732 39.8993 28.0087L39.8305 28.004C38.9082 27.9404 37.9947 28.1585 37.636 29.0105C37.1101 30.2597 36.5326 32.7218 36.258 37.1707C36.2943 37.5703 36.149 38.3476 35.2772 38.2605L45.4118 39.3502C45.8477 39.6408 46.8285 39.8297 47.2644 38.2605C47.8093 36.2989 47.9182 29.1066 49.6618 29.3246C49.8014 29.3525 50.0095 29.6334 49.9799 30.4736C49.9582 31.0901 49.8381 31.7162 49.9956 32.3126C50.4078 33.873 51.7983 34.4372 52.1682 31.94C52.6945 26.8879 53.7697 18.0746 54.7851 17.871Z" fill="#E7F9EB"/>
<path d="M42.2616 21.1631C41.4545 21.1631 40.8008 21.8647 40.8008 22.731C40.8008 23.5973 41.4545 24.2989 42.2616 24.2989C43.0687 24.2989 43.7224 23.5973 43.7224 22.731C43.7224 21.8647 43.0687 21.1631 42.2616 21.1631Z" fill="#F2C791"/>
<path d="M42.2616 21.3591C43.0378 21.3591 43.6704 22.0087 43.7178 22.829C43.7196 22.7965 43.7224 22.7641 43.7224 22.731C43.7224 21.8647 43.0687 21.1631 42.2616 21.1631C41.4545 21.1631 40.8008 21.8647 40.8008 22.731C40.8008 22.7641 40.8035 22.7965 40.8053 22.829C40.8527 22.0087 41.4853 21.3591 42.2616 21.3591Z" fill="#F8E0C4"/>
<path d="M42.8184 22.2852C42.958 22.2852 43.0772 22.3382 43.1761 22.4443C43.2749 22.5504 43.3243 22.6797 43.3243 22.8322C43.3243 22.9821 43.2749 23.11 43.1761 23.2161C43.0772 23.3222 42.958 23.3753 42.8184 23.3753C42.7269 23.3753 42.646 23.3461 42.5756 23.2877V23.6697C42.5756 23.7108 42.5626 23.7439 42.5367 23.7691C42.5119 23.7957 42.4811 23.8089 42.444 23.8089C42.4057 23.8089 42.3736 23.7957 42.3476 23.7691C42.3229 23.7439 42.3105 23.7108 42.3105 23.6697V22.8481C42.3105 22.689 42.36 22.5557 42.4588 22.4483C42.5577 22.3395 42.6775 22.2852 42.8184 22.2852ZM42.8239 23.0968C42.8931 23.0968 42.9518 23.0716 43 23.0212C43.0482 22.9695 43.0723 22.9065 43.0723 22.8322C43.0723 22.7566 43.0482 22.693 43 22.6412C42.9518 22.5895 42.8931 22.5637 42.8239 22.5637C42.756 22.5637 42.6973 22.5895 42.6479 22.6412C42.5997 22.693 42.5756 22.7566 42.5756 22.8322C42.5756 22.9051 42.5997 22.9675 42.6479 23.0192C42.6973 23.0709 42.756 23.0968 42.8239 23.0968Z" fill="#E79633"/>
<path d="M42.2037 23.1186C42.2234 23.1531 42.2333 23.1856 42.2333 23.2161C42.2333 23.2599 42.2191 23.2964 42.1907 23.3255C42.1635 23.3534 42.1283 23.3673 42.0851 23.3673C42.0282 23.3673 41.9875 23.3474 41.9627 23.3076L41.707 22.8859H41.5328V23.2877C41.5328 23.3251 41.5025 23.3554 41.4651 23.3554H41.3777H41.302C41.2647 23.3554 41.2344 23.3251 41.2344 23.2877V22.122C41.2344 22.0783 41.2492 22.0411 41.2789 22.0106C41.3085 21.9788 41.3437 21.9629 41.3845 21.9629H41.7756C41.9078 21.9629 42.0165 22.0073 42.1017 22.0962C42.1882 22.1837 42.2315 22.2958 42.2315 22.4324C42.2315 22.5026 42.2123 22.5716 42.174 22.6392C42.137 22.7055 42.0875 22.7606 42.0258 22.8043L42.2037 23.1186ZM41.7718 22.6034C41.8163 22.6034 41.854 22.5869 41.8849 22.5537C41.917 22.5192 41.9331 22.4774 41.9331 22.4284C41.9331 22.3806 41.917 22.3402 41.8849 22.307C41.854 22.2726 41.8163 22.2553 41.7718 22.2553H41.5328V22.6034H41.7718Z" fill="#E79633"/>
<path d="M43.7224 23.2214V22.7314C43.7224 23.5977 43.0687 24.2994 42.2616 24.2994C41.4545 24.2994 40.8008 23.5977 40.8008 22.7314V23.2214C40.8008 23.4718 40.8568 23.7076 40.9539 23.9175C40.993 24.0018 41.0388 24.0817 41.0908 24.1567C41.16 24.2563 41.2389 24.3478 41.3279 24.4272C41.4061 24.4971 41.4914 24.5578 41.5822 24.609C41.7597 24.7093 41.9589 24.7703 42.1703 24.7844C42.2006 24.7864 42.2307 24.7893 42.2616 24.7893C42.2924 24.7893 42.3226 24.7864 42.3529 24.7844C42.5642 24.7704 42.7633 24.7094 42.9409 24.609C43.0317 24.5578 43.117 24.497 43.1953 24.4272C43.2842 24.3479 43.3631 24.2563 43.4323 24.1567C43.4843 24.0817 43.5302 24.0018 43.5692 23.9175C43.6663 23.7076 43.7224 23.4718 43.7224 23.2214Z" fill="#E79633"/>
<path d="M13.8807 15.3389C13.0736 15.3389 12.4199 16.0405 12.4199 16.9068C12.4199 17.773 13.0736 18.4747 13.8807 18.4747C14.6878 18.4747 15.3415 17.773 15.3415 16.9068C15.3415 16.0405 14.6878 15.3389 13.8807 15.3389Z" fill="#F2C791"/>
<path d="M15.3428 16.9068C15.3428 17.7399 14.7376 18.4189 13.9733 18.4698C14.0036 18.4717 14.0337 18.4747 14.0646 18.4747C14.8717 18.4747 15.5254 17.773 15.5254 16.9068C15.5254 16.0405 14.8717 15.3389 14.0646 15.3389C14.0337 15.3389 14.0036 15.3418 13.9733 15.3438C14.7376 15.3946 15.3428 16.0736 15.3428 16.9068Z" fill="#F8E0C4"/>
<path d="M14.4375 16.4609C14.5771 16.4609 14.6964 16.514 14.7952 16.6201C14.894 16.7262 14.9435 16.8555 14.9435 17.008C14.9435 17.1578 14.894 17.2858 14.7952 17.3919C14.6964 17.498 14.5771 17.5511 14.4375 17.5511C14.3461 17.5511 14.2651 17.5219 14.1947 17.4635V17.8455C14.1947 17.8866 14.1817 17.9197 14.1558 17.9449C14.1311 17.9714 14.1002 17.9847 14.0631 17.9847C14.0248 17.9847 13.9927 17.9714 13.9668 17.9449C13.942 17.9197 13.9297 17.8866 13.9297 17.8455V17.0239C13.9297 16.8648 13.9791 16.7315 14.078 16.6241C14.1768 16.5153 14.2966 16.4609 14.4375 16.4609ZM14.4431 17.2726C14.5123 17.2726 14.5709 17.2474 14.6191 17.197C14.6673 17.1452 14.6914 17.0822 14.6914 17.008C14.6914 16.9324 14.6673 16.8687 14.6191 16.817C14.5709 16.7653 14.5123 16.7394 14.4431 16.7394C14.3751 16.7394 14.3164 16.7653 14.267 16.817C14.2188 16.8687 14.1947 16.9324 14.1947 17.008C14.1947 17.0809 14.2188 17.1433 14.267 17.195C14.3164 17.2467 14.3751 17.2726 14.4431 17.2726Z" fill="#E79633"/>
<path d="M13.8228 17.2944C13.8426 17.3289 13.8525 17.3614 13.8525 17.3919C13.8525 17.4357 13.8383 17.4721 13.8098 17.5013C13.7827 17.5292 13.7474 17.5431 13.7042 17.5431C13.6474 17.5431 13.6066 17.5232 13.5819 17.4834L13.3261 17.0617H13.1519V17.4635C13.1519 17.5009 13.1216 17.5312 13.0843 17.5312H12.9968H12.9212C12.8838 17.5312 12.8535 17.5009 12.8535 17.4635V16.2978C12.8535 16.254 12.8683 16.2169 12.898 16.1864C12.9277 16.1546 12.9629 16.1387 13.0036 16.1387H13.3947C13.5269 16.1387 13.6356 16.1831 13.7209 16.272C13.8074 16.3595 13.8506 16.4715 13.8506 16.6081C13.8506 16.6784 13.8315 16.7474 13.7932 16.815C13.7561 16.8813 13.7067 16.9364 13.6449 16.9801L13.8228 17.2944ZM13.391 16.7792C13.4355 16.7792 13.4732 16.7626 13.504 16.7295C13.5362 16.695 13.5522 16.6532 13.5522 16.6042C13.5522 16.5564 13.5362 16.516 13.504 16.4828C13.4732 16.4483 13.4355 16.4311 13.391 16.4311H13.1519V16.7792H13.391Z" fill="#E79633"/>
<path d="M13.4654 15.3388H13.9219C13.1148 15.3388 12.4611 16.0404 12.4611 16.9067C12.4611 17.773 13.1148 18.4746 13.9219 18.4746H13.4654C13.2321 18.4746 13.0124 18.4144 12.8169 18.3103C12.7383 18.2683 12.6639 18.2191 12.594 18.1633C12.5012 18.089 12.416 18.0043 12.3419 17.9089C12.2768 17.8249 12.2203 17.7334 12.1726 17.6359C12.0792 17.4454 12.0223 17.2315 12.0092 17.0047C12.0073 16.9722 12.0046 16.9398 12.0046 16.9067C12.0046 16.8736 12.0073 16.8412 12.0092 16.8087C12.0222 16.5818 12.0791 16.3681 12.1726 16.1775C12.2203 16.0801 12.2769 15.9885 12.3419 15.9045C12.4159 15.8091 12.5012 15.7244 12.594 15.6501C12.6639 15.5943 12.7383 15.5451 12.8169 15.5031C13.0124 15.399 13.2321 15.3388 13.4654 15.3388Z" fill="#E79633"/>
<path d="M45.7052 5.52832C46.5123 5.52832 47.166 6.22996 47.166 7.09623C47.166 7.9625 46.5123 8.66414 45.7052 8.66414C44.8981 8.66414 44.2444 7.9625 44.2444 7.09623C44.2444 6.22996 44.8981 5.52832 45.7052 5.52832Z" fill="#F2C791"/>
<path d="M44.2451 7.09622C44.2451 7.92937 44.8503 8.60837 45.6146 8.65923C45.5843 8.66119 45.5541 8.66413 45.5233 8.66413C44.7162 8.66413 44.0625 7.96249 44.0625 7.09622C44.0625 6.22995 44.7162 5.52831 45.5233 5.52831C45.5541 5.52831 45.5843 5.53125 45.6146 5.53321C44.8503 5.58407 44.2451 6.26307 44.2451 7.09622Z" fill="#F8E0C4"/>
<path d="M46.2285 6.64941C46.3681 6.64941 46.4874 6.70246 46.5862 6.80855C46.6851 6.91465 46.7345 7.04395 46.7345 7.19646C46.7345 7.34632 46.6851 7.47429 46.5862 7.58039C46.4874 7.68648 46.3681 7.73953 46.2285 7.73953C46.1371 7.73953 46.0562 7.71035 45.9857 7.652V8.03394C45.9857 8.07505 45.9728 8.1082 45.9468 8.1334C45.9221 8.15992 45.8912 8.17318 45.8541 8.17318C45.8158 8.17318 45.7837 8.15992 45.7578 8.1334C45.7331 8.1082 45.7207 8.07505 45.7207 8.03394V7.21237C45.7207 7.05323 45.7701 6.91995 45.869 6.81253C45.9678 6.70379 46.0877 6.64941 46.2285 6.64941ZM46.2341 7.46103C46.3033 7.46103 46.362 7.43583 46.4101 7.38544C46.4583 7.33372 46.4824 7.27073 46.4824 7.19646C46.4824 7.12087 46.4583 7.05721 46.4101 7.00549C46.362 6.95377 46.3033 6.92791 46.2341 6.92791C46.1661 6.92791 46.1074 6.95377 46.058 7.00549C46.0098 7.05721 45.9857 7.12087 45.9857 7.19646C45.9857 7.2694 46.0098 7.33173 46.058 7.38345C46.1074 7.43517 46.1661 7.46103 46.2341 7.46103Z" fill="#E79633"/>
<path d="M45.6138 7.48291C45.6336 7.51739 45.6435 7.54988 45.6435 7.58038C45.6435 7.62414 45.6293 7.66061 45.6009 7.68979C45.5737 7.71764 45.5385 7.73156 45.4952 7.73156C45.4384 7.73156 45.3976 7.71167 45.3729 7.67189L45.1171 7.25016H44.9429V7.65199C44.9429 7.68935 44.9126 7.71963 44.8753 7.71963H44.7879H44.7122C44.6748 7.71963 44.6445 7.68935 44.6445 7.65199V6.48629C44.6445 6.44253 44.6594 6.40539 44.689 6.37489C44.7187 6.34306 44.7539 6.32715 44.7947 6.32715H45.1857C45.3179 6.32715 45.4266 6.37158 45.5119 6.46043C45.5984 6.54796 45.6416 6.66002 45.6416 6.79661C45.6416 6.8669 45.6225 6.93586 45.5842 7.0035C45.5471 7.0698 45.4977 7.12484 45.4359 7.1686L45.6138 7.48291ZM45.182 6.96769C45.2265 6.96769 45.2642 6.95111 45.2951 6.91796C45.3272 6.88348 45.3432 6.8417 45.3432 6.79263C45.3432 6.74489 45.3272 6.70444 45.2951 6.67129C45.2642 6.63681 45.2265 6.61957 45.182 6.61957H44.9429V6.96769H45.182Z" fill="#E79633"/>
<path d="M46.1225 5.52824H45.666C46.4731 5.52824 47.1268 6.22988 47.1268 7.09615C47.1268 7.96242 46.4731 8.66406 45.666 8.66406H46.1225C46.3558 8.66406 46.5754 8.60389 46.771 8.49973C46.8496 8.45778 46.924 8.40859 46.9939 8.35273C47.0867 8.27845 47.1719 8.19379 47.2459 8.09834C47.311 8.01436 47.3676 7.92283 47.4153 7.82533C47.5087 7.63483 47.5656 7.421 47.5787 7.19415C47.5806 7.16161 47.5833 7.12927 47.5833 7.09615C47.5833 7.06303 47.5806 7.03069 47.5787 6.99816C47.5657 6.7713 47.5088 6.55757 47.4153 6.36697C47.3676 6.26957 47.311 6.17794 47.2459 6.09396C47.172 5.99852 47.0867 5.91385 46.9939 5.83957C46.924 5.78371 46.8496 5.73452 46.771 5.69258C46.5754 5.58841 46.3558 5.52824 46.1225 5.52824Z" fill="#E79633"/>
<path d="M19.0847 44.1198L31.3203 47.1787C24.3868 47.3826 16.9095 44.5276 15.414 43.7119C16.7191 44.3645 18.6768 44.3917 19.0847 44.1198Z" fill="#48D06A"/>
<path d="M21.5308 36.5742L10.7227 30.8643C11.5384 31.8159 13.2922 34.6165 12.9659 38.2056C12.558 42.692 16.6366 45.547 19.0837 44.1195L25.3775 45.693C25.4763 45.7664 25.5543 45.7785 25.6094 45.7509L25.3775 45.693C24.9885 45.404 24.2768 44.165 23.3662 40.6528C23.2302 39.7011 22.6728 37.5531 21.5308 36.5742Z" fill="#E7F9EB"/>
<path d="M10.3147 30.6604C10.9265 30.8643 11.4703 31.748 11.7422 32.2918L9.29506 30.6604C9.62135 30.4972 10.1108 30.5924 10.3147 30.6604Z" fill="#48D06A"/>
<path d="M26.744 29.6748C25.9369 29.6748 25.2832 30.3764 25.2832 31.2427C25.2832 32.109 25.9369 32.8106 26.744 32.8106C27.5511 32.8106 28.2048 32.109 28.2048 31.2427C28.2048 30.3764 27.5511 29.6748 26.744 29.6748Z" fill="#F2C791"/>
<path d="M28.1709 31.2427C28.1709 32.0759 27.5657 32.7549 26.8014 32.8057C26.8317 32.8077 26.8619 32.8106 26.8927 32.8106C27.6998 32.8106 28.3535 32.109 28.3535 31.2427C28.3535 30.3764 27.6998 29.6748 26.8927 29.6748C26.8619 29.6748 26.8317 29.6777 26.8014 29.6797C27.5657 29.7306 28.1709 30.4096 28.1709 31.2427Z" fill="#F8E0C4"/>
<path d="M27.334 30.7969C27.4736 30.7969 27.5928 30.8499 27.6917 30.956C27.7905 31.0621 27.84 31.1914 27.84 31.3439C27.84 31.4938 27.7905 31.6218 27.6917 31.7278C27.5928 31.8339 27.4736 31.887 27.334 31.887C27.2426 31.887 27.1616 31.8578 27.0912 31.7995V32.1814C27.0912 32.2225 27.0782 32.2557 27.0523 32.2809C27.0276 32.3074 26.9967 32.3206 26.9596 32.3206C26.9213 32.3206 26.8892 32.3074 26.8632 32.2809C26.8385 32.2557 26.8262 32.2225 26.8262 32.1814V31.3598C26.8262 31.2007 26.8756 31.0674 26.9744 30.96C27.0733 30.8512 27.1931 30.7969 27.334 30.7969ZM27.3395 31.6085C27.4087 31.6085 27.4674 31.5833 27.5156 31.5329C27.5638 31.4812 27.5879 31.4182 27.5879 31.3439C27.5879 31.2683 27.5638 31.2047 27.5156 31.153C27.4674 31.1012 27.4087 31.0754 27.3395 31.0754C27.2716 31.0754 27.2129 31.1012 27.1635 31.153C27.1153 31.2047 27.0912 31.2683 27.0912 31.3439C27.0912 31.4169 27.1153 31.4792 27.1635 31.5309C27.2129 31.5826 27.2716 31.6085 27.3395 31.6085Z" fill="#E79633"/>
<path d="M26.7193 31.6304C26.7391 31.6648 26.749 31.6973 26.749 31.7278C26.749 31.7716 26.7347 31.8081 26.7063 31.8372C26.6791 31.8651 26.6439 31.879 26.6007 31.879C26.5439 31.879 26.5031 31.8591 26.4784 31.8193L26.2226 31.3976H26.0484V31.7995C26.0484 31.8368 26.0181 31.8671 25.9808 31.8671H25.8933H25.8176C25.7803 31.8671 25.75 31.8368 25.75 31.7995V30.6337C25.75 30.59 25.7648 30.5529 25.7945 30.5224C25.8241 30.4905 25.8594 30.4746 25.9001 30.4746H26.2912C26.4234 30.4746 26.5321 30.519 26.6174 30.6079C26.7039 30.6954 26.7471 30.8075 26.7471 30.9441C26.7471 31.0144 26.728 31.0833 26.6896 31.151C26.6526 31.2173 26.6032 31.2723 26.5414 31.3161L26.7193 31.6304ZM26.2875 31.1151C26.332 31.1151 26.3696 31.0986 26.4005 31.0654C26.4327 31.0309 26.4487 30.9892 26.4487 30.9401C26.4487 30.8924 26.4327 30.8519 26.4005 30.8188C26.3696 30.7843 26.332 30.767 26.2875 30.767H26.0484V31.1151H26.2875Z" fill="#E79633"/>
<path d="M25.9314 29.8711L26.3715 29.7408C25.5935 29.9711 25.1371 30.8341 25.3518 31.6692C25.5664 32.5043 26.3704 32.994 27.1484 32.7637L26.7084 32.894C26.4835 32.9606 26.2568 32.9653 26.0425 32.9207C25.9563 32.9027 25.8724 32.8765 25.7913 32.8426C25.6833 32.7975 25.5803 32.7402 25.4852 32.6693C25.4017 32.6069 25.3245 32.5348 25.2543 32.4544C25.1171 32.2975 25.0093 32.1076 24.9404 31.8926C24.9306 31.8618 24.9199 31.8314 24.9117 31.7995C24.9035 31.7675 24.8981 31.7356 24.8918 31.7037C24.8482 31.4813 24.8501 31.259 24.893 31.0486C24.9149 30.9411 24.9468 30.8366 24.9886 30.7371C25.0363 30.624 25.0975 30.518 25.1686 30.4199C25.2221 30.3461 25.2816 30.2775 25.347 30.2146C25.5097 30.0584 25.7066 29.9376 25.9314 29.8711Z" fill="#E79633"/>
</g>
</svg>
