<svg width="16" height="17" viewBox="0 0 16 17" fill="none" xmlns="http://www.w3.org/2000/svg">
<path d="M2.66602 14.6257C2.66602 14.2575 2.96449 13.959 3.33268 13.959H12.666C13.0342 13.959 13.3327 14.2575 13.3327 14.6257C13.3327 14.9938 13.0342 15.2923 12.666 15.2923H3.33268C2.96449 15.2923 2.66602 14.9938 2.66602 14.6257Z" fill="#003B70"/>
<path fill-rule="evenodd" clip-rule="evenodd" d="M11.1036 3.68479C10.5829 3.1641 9.73871 3.1641 9.21801 3.68479L4.61395 8.28882L4.00207 11.2913L7.00447 10.6794L11.6085 6.07532C12.1292 5.55462 12.1292 4.7104 11.6085 4.1897L11.1036 3.68479ZM8.2752 2.74198C9.3166 1.70059 11.005 1.70059 12.0464 2.74198L12.5513 3.24689C13.5927 4.28829 13.5927 5.97673 12.5513 7.01813L7.94727 11.6222C7.76232 11.8071 7.52705 11.9336 7.27075 11.9858L4.26836 12.5978C3.33199 12.7886 2.50477 11.9614 2.69559 11.0251L3.30747 8.02258C3.3597 7.76626 3.48617 7.53098 3.67114 7.34601L8.2752 2.74198Z" fill="#003B70"/>
</svg>
