<svg width="80" height="73" viewBox="0 0 80 73" fill="none" xmlns="http://www.w3.org/2000/svg">
<path d="M67.3158 22.8799C74.8687 36.1717 75.8762 49.0823 64.7859 59.5703C53.3634 70.3724 36.5102 74.1451 22.7973 66.4978C8.90368 58.7497 2.72247 48.1845 7.32889 32.8958C11.1079 20.3533 26.2553 25.2657 39.2039 23.7703C51.9512 22.2982 60.6752 13.3093 67.3158 22.8799Z" fill="#FCF0E3"/>
<mask id="mask0_6803_6365" style="mask-type:alpha" maskUnits="userSpaceOnUse" x="0" y="0" width="80" height="73">
<path d="M76.0499 15.5713C84.1116 26.9995 78.9666 50.9996 68.4308 59.4959C58.7244 69.5157 37.8239 75.8078 24.0207 69.5207C-9.79134 50.8099 -0.300503 28.3083 7.24932 13.3303C10.8394 3.16956 21.1689 1.31949 33.47 0.1081C45.5799 -1.08447 69.7414 7.81814 76.0499 15.5713Z" fill="#E4E4E2"/>
</mask>
<g mask="url(#mask0_6803_6365)">
<path d="M14.963 13.308L9.58714 10.8652C10.5409 11.6023 9.53881 14.5901 8.64107 16.9016C8.34215 17.6713 8.07073 18.4818 8.17496 19.3009C8.48748 21.7567 10.961 20.641 11.1755 19.2115L14.6575 19.9579C14.1077 19.3472 14.963 17.108 15.5738 15.5473C16.0626 14.2987 15.3702 13.5342 14.963 13.308Z" fill="#F3F3F2"/>
<path d="M17.3453 20.3655L11.1142 19.2119C10.8699 20.4062 9.91283 20.75 9.46484 20.7726L14.1076 21.1797C15.9647 21.3969 17.0398 20.7274 17.3453 20.3655Z" fill="#93938F"/>
<path d="M30.4077 6.21494C32.7046 4.45844 36.6568 4.4697 38.3457 4.69489C36.5892 4.96511 35.0241 5.70827 34.4611 6.04606C32.5695 5.37049 30.9706 5.87716 30.4077 6.21494Z" fill="#93938F"/>
<path d="M34.4608 5.92674C38.9196 3.08931 42.5114 5.42006 43.75 6.9401C38.7507 8.5615 38.9647 12.4573 39.6965 14.2026C39.021 14.8781 37.3883 13.4144 36.4875 12.8514C33.6163 18.9316 26.5228 20.7894 26.5228 18.256C26.5228 15.7226 27.5361 11.1625 28.8873 7.78457C29.9682 5.08226 33.0534 5.42005 34.4608 5.92674Z" fill="#F3F3F2"/>
<path d="M28.888 19.3886C31.5903 19.3886 37.2764 16.1233 39.6973 14.3218C38.7515 14.592 37.1076 13.4773 36.4883 12.8018C33.5157 17.3957 30.1829 19.1071 28.888 19.3886Z" fill="#93938F"/>
<path d="M60.0769 21.9034C60.8779 20.969 60.7443 16.0078 60.4106 13.7274C63.0803 13.7274 69.0872 13.2268 68.2529 13.7274C67.2817 14.3101 69.7546 19.5674 68.2529 21.9034C64.9158 22.2927 59.276 22.8378 60.0769 21.9034Z" fill="#F3F3F2"/>
<path d="M59.9099 22.0706L59.5762 21.57L66.8576 21.2535C67.1087 21.2425 67.345 21.3446 67.5152 21.5294C67.7003 21.7304 67.9264 21.9319 68.1769 21.9154C68.2535 21.9016 68.2817 21.8967 68.2527 21.9038C68.2272 21.91 68.202 21.9138 68.1769 21.9154C67.3961 22.0568 61.5813 23.1343 59.9099 22.0706Z" fill="#93938F"/>
<path d="M24.9715 38.9325L13.1556 41.3491C12.6333 41.4559 12.3191 41.9921 12.4812 42.4999L19.9803 65.9949L69.9968 56.2563C68.0628 49.6315 62.9945 37.1767 60.1936 35.9842C59.4766 35.6789 39.5645 39.0531 28.8007 41.3711C28.2975 41.4795 27.7803 41.2929 27.461 40.8892L26.2956 39.4157C25.9808 39.0177 25.4687 38.8308 24.9715 38.9325Z" fill="#BEBEBB"/>
<path d="M26.9128 50.4157L20.0215 65.9951L69.771 56.5827L78.8866 40.7824C79.2685 40.1204 78.7 39.3147 77.9483 39.4527L29.5445 48.3394C28.3778 48.5536 27.3926 49.3309 26.9128 50.4157Z" fill="#60605C"/>
<path d="M55.3047 19.5261C55.3047 18.2177 54.5051 17.8906 54.1053 17.8906C51.2705 18.3268 51.8593 21.8158 52.906 21.8158C54.2144 21.8158 55.3047 21.1616 55.3047 19.5261Z" fill="#93938F"/>
<path d="M42.0007 33.2644L50.2871 33.5915L49.1968 27.9219L42.0007 33.2644Z" fill="#93938F"/>
<path d="M54.1053 17.8795L54.2129 17.8908C54.1771 17.8759 54.1413 17.8723 54.1053 17.8795L43.2519 16.7425C42.9482 16.7106 42.6517 16.8392 42.5324 17.1203C42.078 18.1911 41.3875 21.0365 40.9952 26.7786C40.9441 27.5265 40.2995 28.0975 39.5516 28.0459L38.8641 27.9985C38.1259 27.9476 37.3823 28.1022 37.0619 28.7693C36.5073 29.9243 35.8634 32.4118 35.5685 37.1893C35.6049 37.5891 35.4595 38.3668 34.5873 38.2796L44.7272 39.3699C45.1633 39.6607 46.1446 39.8497 46.5807 38.2796C47.1259 36.317 47.2349 29.121 48.9794 29.339C49.1288 29.3689 49.3568 29.6887 49.2878 30.6739C49.2533 31.1664 49.1716 31.6645 49.271 32.1481C49.6195 33.8429 51.103 34.5484 51.4871 31.9558C52.0136 26.9011 53.0894 18.0832 54.1053 17.8795Z" fill="#F3F3F2"/>
<path d="M41.5748 21.1738C40.7673 21.1738 40.1133 21.8758 40.1133 22.7426C40.1133 23.6093 40.7673 24.3113 41.5748 24.3113C42.3823 24.3113 43.0364 23.6093 43.0364 22.7426C43.0364 21.8758 42.3823 21.1738 41.5748 21.1738Z" fill="#BEBEBB"/>
<path d="M41.5748 21.3699C42.3515 21.3699 42.9844 22.0199 43.0318 22.8406C43.0336 22.8081 43.0364 22.7757 43.0364 22.7426C43.0364 21.8758 42.3823 21.1738 41.5748 21.1738C40.7673 21.1738 40.1133 21.8758 40.1133 22.7426C40.1133 22.7757 40.116 22.8081 40.1178 22.8406C40.1653 22.0199 40.7982 21.3699 41.5748 21.3699Z" fill="#E4E4E2"/>
<path d="M42.1328 22.2959C42.2724 22.2959 42.3917 22.3489 42.4905 22.455C42.5894 22.5611 42.6388 22.6904 42.6388 22.8429C42.6388 22.9928 42.5894 23.1208 42.4905 23.2269C42.3917 23.333 42.2724 23.386 42.1328 23.386C42.0414 23.386 41.9605 23.3568 41.89 23.2985V23.6804C41.89 23.7215 41.8771 23.7547 41.8511 23.7799C41.8264 23.8064 41.7955 23.8197 41.7584 23.8197C41.7201 23.8197 41.688 23.8064 41.6621 23.7799C41.6374 23.7547 41.625 23.7215 41.625 23.6804V22.8589C41.625 22.6997 41.6744 22.5664 41.7733 22.459C41.8721 22.3503 41.992 22.2959 42.1328 22.2959ZM42.1384 23.1075C42.2076 23.1075 42.2663 23.0823 42.3144 23.0319C42.3626 22.9802 42.3867 22.9172 42.3867 22.8429C42.3867 22.7674 42.3626 22.7037 42.3144 22.652C42.2663 22.6003 42.2076 22.5744 42.1384 22.5744C42.0704 22.5744 42.0117 22.6003 41.9623 22.652C41.9141 22.7037 41.89 22.7674 41.89 22.8429C41.89 22.9159 41.9141 22.9782 41.9623 23.0299C42.0117 23.0817 42.0704 23.1075 42.1384 23.1075Z" fill="#93938F"/>
<path d="M41.5181 23.1294C41.5379 23.1639 41.5478 23.1964 41.5478 23.2269C41.5478 23.2706 41.5336 23.3071 41.5052 23.3363C41.478 23.3641 41.4428 23.378 41.3995 23.378C41.3427 23.378 41.3019 23.3582 41.2772 23.3184L41.0214 22.8966H40.8472V23.2985C40.8472 23.3358 40.8169 23.3661 40.7796 23.3661H40.6922H40.6165C40.5791 23.3661 40.5488 23.3358 40.5488 23.2985V22.1328C40.5488 22.089 40.5637 22.0519 40.5933 22.0214C40.623 21.9895 40.6582 21.9736 40.699 21.9736H41.09C41.2222 21.9736 41.3309 22.0181 41.4162 22.1069C41.5027 22.1944 41.5459 22.3065 41.5459 22.4431C41.5459 22.5134 41.5268 22.5823 41.4885 22.65C41.4514 22.7163 41.402 22.7713 41.3402 22.8151L41.5181 23.1294ZM41.0863 22.6142C41.1308 22.6142 41.1685 22.5976 41.1994 22.5644C41.2315 22.53 41.2475 22.4882 41.2475 22.4391C41.2475 22.3914 41.2315 22.3509 41.1994 22.3178C41.1685 22.2833 41.1308 22.2661 41.0863 22.2661H40.8472V22.6142H41.0863Z" fill="#93938F"/>
<path d="M43.0364 23.2324V22.7422C43.0364 23.6089 42.3823 24.3109 41.5748 24.3109C40.7673 24.3109 40.1133 23.6089 40.1133 22.7422V23.2324C40.1133 23.4829 40.1694 23.7188 40.2665 23.9288C40.3056 24.0133 40.3514 24.0932 40.4035 24.1682C40.4727 24.2679 40.5517 24.3594 40.6406 24.4389C40.7189 24.5088 40.8042 24.5695 40.8951 24.6207C41.0727 24.721 41.272 24.7821 41.4835 24.7962C41.5138 24.7982 41.544 24.8012 41.5748 24.8012C41.6057 24.8012 41.6359 24.7982 41.6662 24.7962C41.8777 24.7822 42.0769 24.7211 42.2545 24.6207C42.3453 24.5695 42.4308 24.5087 42.509 24.4389C42.598 24.3595 42.6769 24.2679 42.7462 24.1682C42.7982 24.0932 42.8441 24.0133 42.8832 23.9288C42.9803 23.7188 43.0364 23.4829 43.0364 23.2324Z" fill="#93938F"/>
<path d="M13.1784 15.3467C12.3708 15.3467 11.7168 16.0487 11.7168 16.9154C11.7168 17.7821 12.3708 18.4841 13.1784 18.4841C13.9859 18.4841 14.6399 17.7821 14.6399 16.9154C14.6399 16.0487 13.9859 15.3467 13.1784 15.3467Z" fill="#BEBEBB"/>
<path d="M14.6415 16.9154C14.6415 17.749 14.036 18.4283 13.2713 18.4792C13.3016 18.4812 13.3318 18.4841 13.3627 18.4841C14.1702 18.4841 14.8242 17.7821 14.8242 16.9154C14.8242 16.0487 14.1702 15.3467 13.3627 15.3467C13.3318 15.3467 13.3016 15.3496 13.2713 15.3516C14.036 15.4025 14.6415 16.0818 14.6415 16.9154Z" fill="#E4E4E2"/>
<path d="M13.7363 16.4688C13.876 16.4688 13.9952 16.5218 14.094 16.6279C14.1929 16.734 14.2423 16.8633 14.2423 17.0158C14.2423 17.1657 14.1929 17.2936 14.094 17.3997C13.9952 17.5058 13.876 17.5589 13.7363 17.5589C13.6449 17.5589 13.564 17.5297 13.4935 17.4713V17.8533C13.4935 17.8944 13.4806 17.9275 13.4546 17.9527C13.4299 17.9793 13.399 17.9925 13.362 17.9925C13.3237 17.9925 13.2915 17.9793 13.2656 17.9527C13.2409 17.9275 13.2285 17.8944 13.2285 17.8533V17.0317C13.2285 16.8726 13.2779 16.7393 13.3768 16.6319C13.4756 16.5231 13.5955 16.4688 13.7363 16.4688ZM13.7419 17.2804C13.8111 17.2804 13.8698 17.2552 13.918 17.2048C13.9661 17.1531 13.9902 17.0901 13.9902 17.0158C13.9902 16.9402 13.9661 16.8765 13.918 16.8248C13.8698 16.7731 13.8111 16.7472 13.7419 16.7472C13.6739 16.7472 13.6152 16.7731 13.5658 16.8248C13.5176 16.8765 13.4935 16.9402 13.4935 17.0158C13.4935 17.0887 13.5176 17.1511 13.5658 17.2028C13.6152 17.2545 13.6739 17.2804 13.7419 17.2804Z" fill="#93938F"/>
<path d="M13.1216 17.3022C13.1414 17.3367 13.1513 17.3692 13.1513 17.3997C13.1513 17.4435 13.1371 17.4799 13.1087 17.5091C13.0815 17.537 13.0463 17.5509 13.003 17.5509C12.9462 17.5509 12.9054 17.531 12.8807 17.4912L12.6249 17.0695H12.4507V17.4713C12.4507 17.5087 12.4205 17.539 12.3831 17.539H12.2957H12.22C12.1826 17.539 12.1523 17.5087 12.1523 17.4713V16.3056C12.1523 16.2619 12.1672 16.2247 12.1968 16.1942C12.2265 16.1624 12.2617 16.1465 12.3025 16.1465H12.6935C12.8257 16.1465 12.9345 16.1909 13.0197 16.2798C13.1062 16.3673 13.1494 16.4794 13.1494 16.6159C13.1494 16.6862 13.1303 16.7552 13.092 16.8228C13.0549 16.8891 13.0055 16.9442 12.9437 16.9879L13.1216 17.3022ZM12.6898 16.787C12.7343 16.787 12.772 16.7704 12.8029 16.7373C12.835 16.7028 12.8511 16.661 12.8511 16.612C12.8511 16.5642 12.835 16.5238 12.8029 16.4906C12.772 16.4561 12.7343 16.4389 12.6898 16.4389H12.4507V16.787H12.6898Z" fill="#93938F"/>
<path d="M12.762 15.3469H13.2188C12.4112 15.3469 11.7572 16.0489 11.7572 16.9156C11.7572 17.7824 12.4112 18.4844 13.2188 18.4844H12.762C12.5286 18.4844 12.3088 18.4242 12.1132 18.32C12.0345 18.278 11.9601 18.2288 11.8902 18.1729C11.7973 18.0986 11.7121 18.0139 11.638 17.9184C11.5729 17.8343 11.5163 17.7428 11.4685 17.6452C11.3751 17.4546 11.3182 17.2407 11.305 17.0137C11.3032 16.9811 11.3005 16.9488 11.3005 16.9156C11.3005 16.8825 11.3032 16.8501 11.305 16.8176C11.3181 16.5906 11.375 16.3768 11.4685 16.1861C11.5163 16.0886 11.5729 15.9969 11.638 15.9129C11.712 15.8174 11.7973 15.7327 11.8902 15.6584C11.9601 15.6025 12.0345 15.5533 12.1132 15.5113C12.3088 15.4071 12.5286 15.3469 12.762 15.3469Z" fill="#93938F"/>
<path d="M45.0189 5.53027C45.8264 5.53027 46.4805 6.23228 46.4805 7.09901C46.4805 7.96573 45.8264 8.66774 45.0189 8.66774C44.2114 8.66774 43.5574 7.96573 43.5574 7.09901C43.5574 6.23228 44.2114 5.53027 45.0189 5.53027Z" fill="#BEBEBB"/>
<path d="M43.5577 7.09899C43.5577 7.93258 44.1632 8.61194 44.9279 8.66283C44.8976 8.66479 44.8674 8.66773 44.8366 8.66773C44.029 8.66773 43.375 7.96572 43.375 7.09899C43.375 6.23227 44.029 5.53026 44.8366 5.53026C44.8674 5.53026 44.8976 5.5332 44.9279 5.53516C44.1632 5.58605 43.5577 6.26541 43.5577 7.09899Z" fill="#E4E4E2"/>
<path d="M45.5391 6.65234C45.6787 6.65234 45.7979 6.70539 45.8968 6.81148C45.9956 6.91758 46.045 7.04688 46.045 7.19939C46.045 7.34925 45.9956 7.47722 45.8968 7.58332C45.7979 7.68941 45.6787 7.74246 45.5391 7.74246C45.4476 7.74246 45.3667 7.71328 45.2963 7.65493V8.03687C45.2963 8.07798 45.2833 8.11113 45.2574 8.13633C45.2326 8.16285 45.2018 8.17611 45.1647 8.17611C45.1264 8.17611 45.0943 8.16285 45.0683 8.13633C45.0436 8.11113 45.0312 8.07798 45.0312 8.03687V7.2153C45.0312 7.05616 45.0807 6.92288 45.1795 6.81546C45.2784 6.70672 45.3982 6.65234 45.5391 6.65234ZM45.5446 7.46396C45.6138 7.46396 45.6725 7.43876 45.7207 7.38837C45.7689 7.33665 45.793 7.27366 45.793 7.19939C45.793 7.1238 45.7689 7.06014 45.7207 7.00842C45.6725 6.9567 45.6138 6.93084 45.5446 6.93084C45.4767 6.93084 45.418 6.9567 45.3686 7.00842C45.3204 7.06014 45.2963 7.1238 45.2963 7.19939C45.2963 7.27233 45.3204 7.33466 45.3686 7.38638C45.418 7.4381 45.4767 7.46396 45.5446 7.46396Z" fill="#93938F"/>
<path d="M44.9244 7.48584C44.9441 7.52032 44.954 7.55281 44.954 7.58331C44.954 7.62707 44.9398 7.66354 44.9114 7.69272C44.8842 7.72057 44.849 7.73449 44.8058 7.73449C44.7489 7.73449 44.7082 7.7146 44.6834 7.67482L44.4277 7.25309H44.2535V7.65492C44.2535 7.69228 44.2232 7.72256 44.1858 7.72256H44.0984H44.0227C43.9854 7.72256 43.9551 7.69228 43.9551 7.65492V6.48922C43.9551 6.44545 43.9699 6.40832 43.9996 6.37782C44.0292 6.34599 44.0644 6.33008 44.1052 6.33008H44.4963C44.6285 6.33008 44.7372 6.3745 44.8224 6.46336C44.9089 6.55089 44.9522 6.66295 44.9522 6.79954C44.9522 6.86983 44.933 6.93879 44.8947 7.00643C44.8577 7.07273 44.8082 7.12777 44.7465 7.17153L44.9244 7.48584ZM44.4926 6.97062C44.537 6.97062 44.5747 6.95404 44.6056 6.92089C44.6377 6.88641 44.6538 6.84463 44.6538 6.79556C44.6538 6.74782 44.6377 6.70737 44.6056 6.67422C44.5747 6.63974 44.537 6.6225 44.4926 6.6225H44.2535V6.97062H44.4926Z" fill="#93938F"/>
<path d="M45.4372 5.5305H44.9805C45.788 5.5305 46.442 6.23251 46.442 7.09923C46.442 7.96596 45.788 8.66797 44.9805 8.66797H45.4372C45.6706 8.66797 45.8904 8.60777 46.086 8.50355C46.1647 8.46158 46.2391 8.41236 46.309 8.35648C46.4019 8.28216 46.4871 8.19745 46.5612 8.10195C46.6264 8.01792 46.6829 7.92635 46.7307 7.82879C46.8241 7.63819 46.881 7.42426 46.8942 7.19728C46.896 7.16473 46.8988 7.13237 46.8988 7.09923C46.8988 7.06609 46.896 7.03374 46.8942 7.00119C46.8811 6.77421 46.8242 6.56037 46.7307 6.36967C46.6829 6.27222 46.6263 6.18054 46.5612 6.09652C46.4872 6.00102 46.4019 5.91631 46.309 5.84199C46.2391 5.7861 46.1647 5.73689 46.086 5.69492C45.8904 5.5907 45.6706 5.5305 45.4372 5.5305Z" fill="#93938F"/>
<path d="M18.3849 44.1424L30.627 47.203C23.6898 47.407 16.2085 44.5505 14.7123 43.7344C16.0181 44.3873 17.9768 44.4145 18.3849 44.1424Z" fill="#93938F"/>
<path d="M20.8334 36.5928L10.0196 30.8799C10.8357 31.832 12.5904 34.6341 12.2639 38.2251C11.8559 42.7139 15.9366 45.5703 18.385 44.1421L24.682 45.7164C24.7809 45.7899 24.8589 45.8019 24.9141 45.7744L24.682 45.7164C24.2929 45.4272 23.5807 44.1876 22.6697 40.6735C22.5337 39.7214 21.976 37.5722 20.8334 36.5928Z" fill="#F3F3F2"/>
<path d="M9.61082 30.6761C10.2229 30.8801 10.767 31.7642 11.0391 32.3083L8.59065 30.6761C8.91711 30.5128 9.40679 30.6081 9.61082 30.6761Z" fill="#93938F"/>
<path d="M26.0475 29.6895C25.24 29.6895 24.5859 30.3915 24.5859 31.2582C24.5859 32.1249 25.24 32.8269 26.0475 32.8269C26.855 32.8269 27.509 32.1249 27.509 31.2582C27.509 30.3915 26.855 29.6895 26.0475 29.6895Z" fill="#BEBEBB"/>
<path d="M27.4755 31.2582C27.4755 32.0918 26.87 32.7711 26.1053 32.822C26.1356 32.824 26.1658 32.8269 26.1966 32.8269C27.0042 32.8269 27.6582 32.1249 27.6582 31.2582C27.6582 30.3915 27.0042 29.6895 26.1966 29.6895C26.1658 29.6895 26.1356 29.6924 26.1053 29.6944C26.87 29.7452 27.4755 30.4246 27.4755 31.2582Z" fill="#E4E4E2"/>
<path d="M26.6367 30.8115C26.7763 30.8115 26.8956 30.8646 26.9944 30.9707C27.0933 31.0768 27.1427 31.2061 27.1427 31.3586C27.1427 31.5084 27.0933 31.6364 26.9944 31.7425C26.8956 31.8486 26.7763 31.9016 26.6367 31.9016C26.5453 31.9016 26.4644 31.8725 26.3939 31.8141V32.196C26.3939 32.2372 26.381 32.2703 26.355 32.2955C26.3303 32.322 26.2994 32.3353 26.2623 32.3353C26.224 32.3353 26.1919 32.322 26.166 32.2955C26.1413 32.2703 26.1289 32.2372 26.1289 32.196V31.3745C26.1289 31.2153 26.1783 31.0821 26.2772 30.9746C26.376 30.8659 26.4959 30.8115 26.6367 30.8115ZM26.6423 31.6231C26.7115 31.6231 26.7702 31.5979 26.8184 31.5475C26.8665 31.4958 26.8906 31.4328 26.8906 31.3586C26.8906 31.283 26.8665 31.2193 26.8184 31.1676C26.7702 31.1159 26.7115 31.09 26.6423 31.09C26.5743 31.09 26.5156 31.1159 26.4662 31.1676C26.418 31.2193 26.3939 31.283 26.3939 31.3586C26.3939 31.4315 26.418 31.4938 26.4662 31.5456C26.5156 31.5973 26.5743 31.6231 26.6423 31.6231Z" fill="#93938F"/>
<path d="M26.022 31.645C26.0418 31.6795 26.0517 31.712 26.0517 31.7425C26.0517 31.7863 26.0375 31.8227 26.0091 31.8519C25.9819 31.8797 25.9467 31.8937 25.9034 31.8937C25.8466 31.8937 25.8058 31.8738 25.7811 31.834L25.5253 31.4123H25.3511V31.8141C25.3511 31.8515 25.3208 31.8817 25.2835 31.8817H25.1961H25.1204C25.083 31.8817 25.0527 31.8515 25.0527 31.8141V30.6484C25.0527 30.6046 25.0676 30.5675 25.0972 30.537C25.1269 30.5052 25.1621 30.4893 25.2029 30.4893H25.5939C25.7261 30.4893 25.8348 30.5337 25.9201 30.6225C26.0066 30.7101 26.0498 30.8221 26.0498 30.9587C26.0498 31.029 26.0307 31.098 25.9924 31.1656C25.9553 31.2319 25.9059 31.2869 25.8441 31.3307L26.022 31.645ZM25.5902 31.1298C25.6347 31.1298 25.6724 31.1132 25.7033 31.0801C25.7354 31.0456 25.7514 31.0038 25.7514 30.9547C25.7514 30.907 25.7354 30.8666 25.7033 30.8334C25.6724 30.7989 25.6347 30.7817 25.5902 30.7817H25.3511V31.1298H25.5902Z" fill="#93938F"/>
<path d="M25.2355 29.8861L25.6758 29.7558C24.8973 29.9863 24.4408 30.8497 24.6555 31.6852C24.8703 32.5207 25.6747 33.0108 26.4531 32.7803L26.0128 32.9106C25.7878 32.9773 25.5611 32.982 25.3466 32.9373C25.2604 32.9193 25.1764 32.8931 25.0952 32.8592C24.9873 32.8141 24.8841 32.7568 24.789 32.6858C24.7054 32.6234 24.6282 32.5513 24.558 32.4709C24.4207 32.3138 24.3128 32.1238 24.2439 31.9088C24.2341 31.8779 24.2234 31.8475 24.2152 31.8156C24.207 31.7836 24.2016 31.7517 24.1953 31.7198C24.1517 31.4972 24.1536 31.2748 24.1965 31.0643C24.2184 30.9567 24.2503 30.8522 24.2922 30.7526C24.3398 30.6394 24.4011 30.5334 24.4722 30.4353C24.5258 30.3614 24.5853 30.2928 24.6507 30.2299C24.8135 30.0735 25.0105 29.9528 25.2355 29.8861Z" fill="#93938F"/>
</g>
</svg>
