<svg width="73" height="72" viewBox="0 0 73 72" fill="none" xmlns="http://www.w3.org/2000/svg">
<path d="M63.8487 19.5557C71.4811 32.9164 72.4993 45.8939 61.2921 56.4361C49.7492 67.2942 32.7183 71.0865 18.8609 63.3995C4.82092 55.6113 -1.42544 44.9914 3.22954 29.6235C7.04838 17.0161 22.3555 21.9539 35.4405 20.4507C48.3221 18.971 57.1381 9.93555 63.8487 19.5557Z" fill="#FCF0E3"/>
<mask id="mask0_6803_6131" style="mask-type:alpha" maskUnits="userSpaceOnUse" x="1" y="15" width="69" height="53">
<path d="M63.8414 19.4242C71.4711 32.78 72.4889 45.7527 61.2859 56.2911C49.7471 67.1452 32.7226 70.936 18.8702 63.2519C4.8354 55.4665 -1.40866 44.8505 3.2446 29.4883C7.06204 16.8855 22.3635 21.8215 35.4437 20.3189C48.3206 18.8397 57.1333 9.8076 63.8414 19.4242Z" fill="#FCF0E3"/>
</mask>
<g mask="url(#mask0_6803_6131)">
<g clip-path="url(#clip0_6803_6131)">
<path d="M25.4618 37.3301H55.0562C57.0167 37.3301 58.6118 38.9252 58.6118 40.8857V68.3146C58.6118 70.2751 57.0167 71.8702 55.0562 71.8702H25.4618C23.5014 71.8702 21.9062 70.2751 21.9062 68.3146V40.8857C21.9062 38.9252 23.5014 37.3301 25.4618 37.3301Z" fill="#547796"/>
<path d="M16.7372 37.3301H46.3316C48.2921 37.3301 49.8872 38.9252 49.8872 40.8857V68.3146C49.8872 70.2751 48.2921 71.8702 46.3316 71.8702H16.7372C14.7768 71.8702 13.1816 70.2751 13.1816 68.3146V40.8857C13.1816 38.9252 14.7768 37.3301 16.7372 37.3301Z" fill="#99B1C6"/>
<path d="M18.324 39.8252H44.7459C46.0737 39.8252 47.152 40.9035 47.152 42.2312V66.9779C47.152 68.3056 46.0737 69.3839 44.7459 69.3839H18.324C16.9962 69.3839 15.918 68.3056 15.918 66.9779V42.2312C15.918 40.9035 16.9962 39.8252 18.324 39.8252Z" fill="#CED7E4"/>
<path d="M15.916 45.6885H18.0993V50.1619H15.916V45.6885Z" fill="#003B70"/>
<path d="M15.916 58.1465H18.0993V62.6199H15.916V58.1465Z" fill="#003B70"/>
<path d="M28.7857 63.4932C33.8007 63.4932 37.8663 59.4277 37.8663 54.4126C37.8663 49.3975 33.8007 45.332 28.7857 45.332C23.7706 45.332 19.7051 49.3975 19.7051 54.4126C19.7051 59.4277 23.7706 63.4932 28.7857 63.4932Z" fill="#99B1C6"/>
<path d="M28.7836 61.2741C32.5732 61.2741 35.6452 58.2021 35.6452 54.4125C35.6452 50.6229 32.5732 47.5508 28.7836 47.5508C24.994 47.5508 21.9219 50.6229 21.9219 54.4125C21.9219 58.2021 24.994 61.2741 28.7836 61.2741Z" fill="#33628D"/>
<path d="M28.7857 57.5851C30.5378 57.5851 31.9581 56.1647 31.9581 54.4126C31.9581 52.6606 30.5378 51.2402 28.7857 51.2402C27.0336 51.2402 25.6133 52.6606 25.6133 54.4126C25.6133 56.1647 27.0336 57.5851 28.7857 57.5851Z" fill="#7696B2"/>
<path d="M31.958 54.4124C31.958 56.1679 30.5411 57.5848 28.7945 57.5937C27.9568 57.5937 27.1459 57.264 26.5488 56.667C28.7856 56.1412 30.1757 53.8955 29.641 51.6588C29.6143 51.543 29.5876 51.436 29.5519 51.3291C30.9688 51.6856 31.958 52.951 31.958 54.4124Z" fill="#547796"/>
<path d="M28.7852 58.1202C26.7356 58.1202 25.0781 56.4627 25.0781 54.4131C25.0781 52.3636 26.7356 50.7061 28.7852 50.7061C30.8348 50.7061 32.4923 52.3636 32.4923 54.4131C32.4923 56.4627 30.8348 58.1202 28.7852 58.1202ZM28.7852 51.7754C27.3327 51.7754 26.1475 52.9606 26.1475 54.4131C26.1475 55.8657 27.3327 57.0509 28.7852 57.0509C30.2378 57.0509 31.423 55.8657 31.423 54.4131C31.414 52.9606 30.2378 51.7843 28.7852 51.7754Z" fill="#054E68"/>
<path d="M28.787 47.0166C24.7056 47.0166 21.3906 50.3316 21.3906 54.413C21.3906 58.4943 24.7056 61.8093 28.787 61.8093C32.8684 61.8093 36.1833 58.4943 36.1833 54.413C36.1744 50.3316 32.8684 47.0255 28.787 47.0166ZM32.5654 59.4924L31.9594 58.5389L31.0594 59.1181L31.6564 60.0538C30.9346 60.4281 30.1326 60.6509 29.3217 60.7132V59.6171H28.2523V60.7132C27.5038 60.6509 26.7641 60.4548 26.0869 60.134L26.6483 59.1359L25.7126 58.6102L25.1601 59.5993C24.6165 59.2161 24.1442 58.7528 23.7432 58.227L24.7145 57.6032L24.1442 56.7032L23.1729 57.318C22.7897 56.5784 22.558 55.7764 22.4867 54.9476H23.6986V53.8783H22.4867C22.5402 53.1832 22.7095 52.497 23.0036 51.8643L24.0818 52.4703L24.6076 51.5435L23.5115 50.9197C23.8947 50.3494 24.367 49.8415 24.9106 49.4137L25.6146 50.5187L26.5146 49.9484L25.8106 48.8345C26.5681 48.4246 27.3968 48.184 28.2523 48.1127V49.4494H29.3217V48.1127C30.0167 48.1751 30.7029 48.3444 31.3445 48.6295L30.7118 49.7524L31.6386 50.2781L32.2802 49.1375C32.8684 49.5296 33.3852 50.0108 33.8129 50.5722L32.7347 51.2584L33.305 52.1584L34.3922 51.4722C34.7843 52.2208 35.016 53.0406 35.0873 53.8783H33.8753V54.9476H35.0873C35.0249 55.6962 34.8288 56.4358 34.508 57.1131L33.4743 56.5338L32.9486 57.4695L33.9644 58.0399C33.5813 58.5924 33.109 59.0825 32.5654 59.4924Z" fill="#003B70"/>
<path d="M44.9403 51.526V51.9538C44.9314 52.6043 44.4057 53.13 43.7551 53.139H43.0244V51.4547C43.0244 50.9913 42.7838 50.5725 42.3828 50.3408H43.7551C44.4057 50.3408 44.9403 50.8755 44.9403 51.526Z" fill="#00182E"/>
<path d="M43.0264 51.4542V59.0912C43.0264 59.8041 42.4561 60.3744 41.7432 60.3744H41.7343H41.5382C40.8253 60.3833 40.255 59.813 40.2461 59.1001V59.0912V51.4542C40.2461 50.7413 40.8253 50.1621 41.5382 50.1621H41.7343C41.966 50.1621 42.1888 50.2245 42.3848 50.3403C42.7858 50.572 43.0264 50.9909 43.0264 51.4542Z" fill="#003B70"/>
</g>
</g>
<g clip-path="url(#clip1_6803_6131)">
<path d="M14.07 21.5987L15.1156 25.566C16.0678 29.1791 14.4445 32.9762 11.1735 34.787C7.44159 34.8249 4.15691 32.3182 3.20469 28.7051L2.15911 24.7377C4.83251 23.7012 6.11685 22.2417 7.43395 20.5857C9.39615 21.3775 11.233 22.0144 14.07 21.5987Z" fill="#49DCC7"/>
<path d="M10.7628 33.2201C7.90403 33.0779 5.44653 31.1078 4.70884 28.3087L4.00046 25.6209C5.74736 24.7284 6.91209 23.6229 7.92313 22.4453C9.41579 22.9881 10.9438 23.3682 12.9022 23.278L13.6106 25.9658C14.3475 28.762 13.1802 31.6874 10.7628 33.2201Z" fill="#00CE62"/>
<path d="M8.95708 30.3736L7.10358 29.2933L7.65051 28.3507L8.56353 28.8804L10.5503 25.476L11.4899 26.0237L8.95708 30.3736Z" fill="white"/>
</g>
<g clip-path="url(#clip2_6803_6131)">
<path d="M25.1113 32.4814H43.4668V35.2348H25.1113V32.4814Z" fill="#D39F66"/>
<path d="M25.1113 32.4814H43.4668V33.3992H25.1113V32.4814Z" fill="#DCB285"/>
<path d="M26.4883 35.2344H42.0904V37.5288H26.4883V35.2344Z" fill="#D39F66"/>
<path d="M26.4883 35.2344H42.0904V36.611H26.4883V35.2344Z" fill="#BA804A"/>
<path d="M34.2894 8.61914C30.2329 8.61914 26.9473 11.9048 26.9473 15.9613C26.9473 20.0179 30.2329 23.3035 34.2894 23.3035C38.346 23.3035 41.6316 20.0179 41.6316 15.9613C41.6316 11.9048 38.346 8.61914 34.2894 8.61914Z" fill="#FFBE1D"/>
<path d="M34.2894 9.53691C38.1909 9.53691 41.3705 12.5789 41.6087 16.4202C41.6178 16.2678 41.6316 16.1164 41.6316 15.9613C41.6316 11.9048 38.346 8.61914 34.2894 8.61914C30.2329 8.61914 26.9473 11.9048 26.9473 15.9613C26.9473 16.1164 26.961 16.2678 26.9702 16.4202C27.2084 12.5789 30.388 9.53691 34.2894 9.53691Z" fill="#FCD38B"/>
<path d="M41.5495 19.3888C45.2527 17.1036 48.5154 15.9609 48.5154 15.9609C48.5154 15.9609 48.0932 28.5711 37.1992 28.0434C36.3687 28.0067 35.6666 28.6537 35.6666 29.4889V32.4808H32.9133V29.4889C32.9133 28.6537 32.2112 28.0067 31.3806 28.0434C20.4866 28.5711 20.0645 15.9609 20.0645 15.9609C20.0645 15.9609 23.3271 17.1036 27.0303 19.3888C27.5764 22.9039 30.6188 25.5975 34.2899 25.5975C37.961 25.5975 41.0034 22.9039 41.5495 19.3888Z" fill="#44B260"/>
<path d="M25.3398 18.2562C25.3398 18.3085 25.3467 18.3585 25.3476 18.4108C25.891 18.7105 26.4531 19.0349 27.0285 19.3896C26.9735 19.0179 26.9459 18.6416 26.9459 18.2562V15.9617C26.4045 15.7584 25.8749 15.6212 25.3619 15.5244C25.355 15.6703 25.3398 15.814 25.3398 15.9617V18.2562Z" fill="#79A879"/>
<path d="M43.2395 15.9617C43.2395 15.814 43.2243 15.6703 43.2175 15.5244C42.7044 15.6212 42.1749 15.7584 41.6334 15.9617V18.2562C41.6334 18.6416 41.6058 19.0179 41.5508 19.3896C42.1262 19.0344 42.6884 18.7105 43.2317 18.4108C43.2326 18.3585 43.2395 18.3085 43.2395 18.2562V15.9617Z" fill="#79A879"/>
<path d="M43.2286 18.4102C42.6853 18.7098 42.1231 19.0342 41.5477 19.389C41.0016 22.904 37.9592 25.5977 34.2881 25.5977C30.617 25.5977 27.5746 22.904 27.0286 19.389C26.4531 19.0338 25.891 18.7098 25.3477 18.4102C25.4312 23.2725 29.406 27.2038 34.2881 27.2038C39.1702 27.2038 43.1451 23.2725 43.2286 18.4102Z" fill="#379B4A"/>
<path d="M37.0921 13.8701C37.7934 13.8701 38.3924 14.1184 38.8889 14.6149C39.3855 15.1115 39.6338 15.7167 39.6338 16.4305C39.6338 17.1318 39.3855 17.7308 38.8889 18.2274C38.3924 18.7239 37.7934 18.9722 37.0921 18.9722C36.6327 18.9722 36.2262 18.8356 35.8724 18.5625V20.3501C35.8724 20.5425 35.8072 20.6977 35.6769 20.8156C35.5527 20.9398 35.3976 21.0018 35.2114 21.0018C35.0189 21.0018 34.8576 20.9398 34.7272 20.8156C34.6031 20.6977 34.541 20.5425 34.541 20.3501V16.5049C34.541 15.7601 34.7893 15.1363 35.2858 14.6336C35.7824 14.1246 36.3845 13.8701 37.0921 13.8701ZM37.12 17.6687C37.4676 17.6687 37.7624 17.5508 38.0045 17.3149C38.2465 17.0729 38.3676 16.778 38.3676 16.4305C38.3676 16.0767 38.2465 15.7787 38.0045 15.5367C37.7624 15.2946 37.4676 15.1736 37.12 15.1736C36.7786 15.1736 36.4838 15.2946 36.2355 15.5367C35.9934 15.7787 35.8724 16.0767 35.8724 16.4305C35.8724 16.7718 35.9934 17.0636 36.2355 17.3056C36.4838 17.5477 36.7786 17.6687 37.12 17.6687Z" fill="#F4971E"/>
<path d="M34.0002 17.7706C34.0995 17.932 34.1491 18.0841 34.1491 18.2268C34.1491 18.4317 34.0778 18.6024 33.935 18.7389C33.7985 18.8693 33.6216 18.9344 33.4043 18.9344C33.1188 18.9344 32.914 18.8413 32.7898 18.6551L31.505 16.6813H30.6298V18.562V18.562C30.6298 18.7368 30.4881 18.8786 30.3133 18.8786H29.8509H29.4474C29.2726 18.8786 29.1309 18.7368 29.1309 18.562V18.562V13.1062C29.1309 12.9013 29.2054 12.7275 29.3543 12.5848C29.5033 12.4358 29.6802 12.3613 29.885 12.3613H31.8495C32.5136 12.3613 33.0598 12.5693 33.4881 12.9851C33.9226 13.3948 34.1398 13.9193 34.1398 14.5586C34.1398 14.8875 34.0436 15.2103 33.8512 15.5268C33.665 15.8372 33.4167 16.0948 33.1064 16.2996L34.0002 17.7706ZM31.8309 15.3593C32.0543 15.3593 32.2436 15.2817 32.3988 15.1265C32.5602 14.9651 32.6409 14.7696 32.6409 14.5399C32.6409 14.3165 32.5602 14.1272 32.3988 13.972C32.2436 13.8106 32.0543 13.7299 31.8309 13.7299H30.6298V15.3593H31.8309Z" fill="#F4971E"/>
<path d="M42.1328 19.0397C42.3324 19.1462 42.6197 19.1976 42.7798 19.1636C42.9184 19.1343 43.0524 19.1123 43.1837 19.0944C43.2048 18.8681 43.2259 18.6414 43.2296 18.4102C42.8721 18.6075 42.5045 18.8199 42.1328 19.0397Z" fill="#287C35"/>
<path d="M26.4444 19.0397C26.0727 18.8199 25.7047 18.6075 25.3477 18.4102C25.3518 18.641 25.3724 18.8677 25.3935 19.0944C25.5248 19.1123 25.6588 19.1343 25.7974 19.1636C25.958 19.1976 26.2448 19.1462 26.4444 19.0397Z" fill="#287C35"/>
<path d="M33.8301 27.1807V27.8919C33.8301 28.1452 34.0357 28.3508 34.289 28.3508C34.5423 28.3508 34.7478 28.1452 34.7478 27.8919V27.1807C34.595 27.1885 34.4441 27.2036 34.289 27.2036C34.1339 27.2036 33.9829 27.1885 33.8301 27.1807Z" fill="#379B4A"/>
<path d="M34.289 25.5983C34.1343 25.5983 33.9824 25.5868 33.8301 25.5771V27.1814C33.9829 27.1892 34.1339 27.2044 34.289 27.2044C34.4441 27.2044 34.595 27.1892 34.7478 27.1814V25.5771C34.5955 25.5868 34.4436 25.5983 34.289 25.5983Z" fill="#287C35"/>
<path d="M44.1645 22.788C44.2342 22.8265 44.3104 22.8449 44.3852 22.8449C44.5467 22.8449 44.7027 22.7595 44.7867 22.6086C44.9097 22.3869 44.8298 22.1075 44.6082 21.9845C44.56 21.9579 43.7983 21.5453 42.6396 21.4297C42.5226 21.7367 42.3909 22.035 42.2422 22.3245C43.3821 22.3727 44.1534 22.782 44.1645 22.788Z" fill="#379B4A"/>
<path d="M40.8661 21.5136C40.6697 21.9087 40.4393 22.2827 40.1777 22.6333C40.3521 22.5833 40.5302 22.5337 40.6981 22.4942C41.257 22.3423 41.7788 22.3043 42.2413 22.3235C42.39 22.034 42.5217 21.7352 42.6387 21.4287C42.1184 21.3764 41.5181 21.3842 40.8661 21.5136Z" fill="#287C35"/>
<path d="M39.9609 25.1691C40.2289 25.3159 40.3781 25.4504 40.3937 25.4651C40.4827 25.5536 40.5997 25.5981 40.7163 25.5981C40.8333 25.5981 40.9508 25.5536 41.0402 25.4642C41.2197 25.2852 41.2201 24.9947 41.0412 24.8153C41.0278 24.802 40.8957 24.6776 40.6607 24.5234C40.4382 24.7501 40.2064 24.9672 39.9609 25.1691Z" fill="#379B4A"/>
<path d="M38.8945 23.9679C38.7431 24.09 38.5875 24.2061 38.4269 24.3162C38.3824 24.3465 38.337 24.3759 38.2915 24.4052C38.1208 24.5163 37.9455 24.6204 37.7652 24.7173C37.7445 24.7283 37.7257 24.742 37.7051 24.7531C38.0015 24.7535 38.2534 24.7627 38.4306 24.7677C39.1281 24.7939 39.6338 24.9903 39.9596 25.1683C40.2051 24.9664 40.4368 24.7494 40.6594 24.5227C40.3207 24.3011 39.7627 24.017 38.9835 23.9014C38.9551 23.9252 38.9234 23.9445 38.8945 23.9679Z" fill="#287C35"/>
<path d="M23.9726 21.984C23.7509 22.107 23.6711 22.3865 23.7941 22.6081C23.8781 22.7591 24.0341 22.8444 24.1956 22.8444C24.2704 22.8444 24.3466 22.8261 24.4163 22.7875C24.4269 22.7816 25.1987 22.3722 26.3381 22.3245C26.1895 22.035 26.0578 21.7362 25.9408 21.4297C24.7825 21.5453 24.0208 21.9579 23.9726 21.984Z" fill="#379B4A"/>
<path d="M27.882 22.4942C28.05 22.5332 28.228 22.5833 28.4024 22.6333C28.1408 22.2827 27.9105 21.9087 27.7141 21.5136C27.062 21.3842 26.4618 21.3764 25.9414 21.4287C26.0584 21.7357 26.1901 22.034 26.3388 22.3235C26.8014 22.3043 27.3231 22.3428 27.882 22.4942Z" fill="#287C35"/>
<path d="M27.9206 24.5234C27.6857 24.6772 27.5535 24.802 27.5402 24.8153C27.3612 24.9947 27.3617 25.2852 27.5411 25.4642C27.6306 25.5536 27.7481 25.5981 27.8651 25.5981C27.9816 25.5981 28.0987 25.5536 28.1881 25.4651C28.2037 25.4504 28.3524 25.3155 28.6209 25.1691C28.3749 24.9672 28.1432 24.7501 27.9206 24.5234Z" fill="#379B4A"/>
<path d="M30.8742 24.7531C30.8536 24.742 30.8348 24.7287 30.8141 24.7173C30.6338 24.6204 30.4585 24.5163 30.2878 24.4052C30.2423 24.3759 30.1974 24.3465 30.1524 24.3162C29.9918 24.2065 29.8362 24.09 29.6848 23.9679C29.6559 23.9445 29.6242 23.9252 29.5958 23.9014C28.8166 24.017 28.2581 24.3011 27.9199 24.5227C28.1425 24.7494 28.3742 24.9664 28.6197 25.1683C28.9455 24.9903 29.4512 24.7934 30.1487 24.7677C30.3259 24.7627 30.5778 24.7535 30.8742 24.7531Z" fill="#287C35"/>
<path d="M41.6316 18.2554V15.9609C41.6316 20.0175 38.346 23.3031 34.2894 23.3031C30.2329 23.3031 26.9473 20.0175 26.9473 15.9609V18.2554C26.9473 19.4278 27.229 20.5319 27.7168 21.5148C27.9132 21.9099 28.1436 22.2839 28.4051 22.635C28.753 23.1017 29.1495 23.5298 29.5964 23.902C29.9897 24.2291 30.4183 24.5132 30.8749 24.7532C31.7669 25.2226 32.7682 25.5085 33.8306 25.5746C33.9829 25.5838 34.1343 25.5975 34.2894 25.5975C34.4445 25.5975 34.596 25.5838 34.7483 25.5746C35.8106 25.509 36.8115 25.2231 37.704 24.7532C38.1601 24.5132 38.5892 24.2287 38.9825 23.902C39.4294 23.5303 39.8259 23.1017 40.1737 22.635C40.4353 22.2839 40.6657 21.9099 40.8621 21.5148C41.3499 20.5319 41.6316 19.4278 41.6316 18.2554Z" fill="#F4971E"/>
<path d="M34.2894 9.53691C38.1909 9.53691 41.3705 12.5789 41.6087 16.4202C41.6178 16.2678 41.6316 16.1164 41.6316 15.9613C41.6316 11.9048 38.346 8.61914 34.2894 8.61914C30.2329 8.61914 26.9473 11.9048 26.9473 15.9613C26.9473 16.1164 26.961 16.2678 26.9702 16.4202C27.2084 12.5789 30.388 9.53691 34.2894 9.53691Z" fill="#FCD38B"/>
<path d="M37.0921 13.8701C37.7934 13.8701 38.3924 14.1184 38.8889 14.6149C39.3855 15.1115 39.6338 15.7167 39.6338 16.4305C39.6338 17.1318 39.3855 17.7308 38.8889 18.2274C38.3924 18.7239 37.7934 18.9722 37.0921 18.9722C36.6327 18.9722 36.2262 18.8356 35.8724 18.5625V20.3501C35.8724 20.5425 35.8072 20.6977 35.6769 20.8156C35.5527 20.9398 35.3976 21.0018 35.2114 21.0018C35.0189 21.0018 34.8576 20.9398 34.7272 20.8156C34.6031 20.6977 34.541 20.5425 34.541 20.3501V16.5049C34.541 15.7601 34.7893 15.1363 35.2858 14.6336C35.7824 14.1246 36.3845 13.8701 37.0921 13.8701ZM37.12 17.6687C37.4676 17.6687 37.7624 17.5508 38.0045 17.3149C38.2465 17.0729 38.3676 16.778 38.3676 16.4305C38.3676 16.0767 38.2465 15.7787 38.0045 15.5367C37.7624 15.2946 37.4676 15.1736 37.12 15.1736C36.7786 15.1736 36.4838 15.2946 36.2355 15.5367C35.9934 15.7787 35.8724 16.0767 35.8724 16.4305C35.8724 16.7718 35.9934 17.0636 36.2355 17.3056C36.4838 17.5477 36.7786 17.6687 37.12 17.6687Z" fill="#F4971E"/>
<path d="M34.0002 17.7706C34.0995 17.932 34.1491 18.0841 34.1491 18.2268C34.1491 18.4317 34.0778 18.6024 33.935 18.7389C33.7985 18.8693 33.6216 18.9344 33.4043 18.9344C33.1188 18.9344 32.914 18.8413 32.7898 18.6551L31.505 16.6813H30.6298V18.562V18.562C30.6298 18.7368 30.4881 18.8786 30.3133 18.8786H29.8509H29.4474C29.2726 18.8786 29.1309 18.7368 29.1309 18.562V18.562V13.1062C29.1309 12.9013 29.2054 12.7275 29.3543 12.5848C29.5033 12.4358 29.6802 12.3613 29.885 12.3613H31.8495C32.5136 12.3613 33.0598 12.5693 33.4881 12.9851C33.9226 13.3948 34.1398 13.9193 34.1398 14.5586C34.1398 14.8875 34.0436 15.2103 33.8512 15.5268C33.665 15.8372 33.4167 16.0948 33.1064 16.2996L34.0002 17.7706ZM31.8309 15.3593C32.0543 15.3593 32.2436 15.2817 32.3988 15.1265C32.5602 14.9651 32.6409 14.7696 32.6409 14.5399C32.6409 14.3165 32.5602 14.1272 32.3988 13.972C32.2436 13.8106 32.0543 13.7299 31.8309 13.7299H30.6298V15.3593H31.8309Z" fill="#F4971E"/>
<path d="M41.6316 18.2554V15.9609C41.6316 20.0175 38.346 23.3031 34.2894 23.3031C30.2329 23.3031 26.9473 20.0175 26.9473 15.9609V18.2554C26.9473 19.4278 27.229 20.5319 27.7168 21.5148C27.9132 21.9099 28.1436 22.2839 28.4051 22.635C28.753 23.1017 29.1495 23.5298 29.5964 23.902C29.9897 24.2291 30.4183 24.5132 30.8749 24.7532C31.7669 25.2226 32.7682 25.5085 33.8306 25.5746C33.9829 25.5838 34.1343 25.5975 34.2894 25.5975C34.4445 25.5975 34.596 25.5838 34.7483 25.5746C35.8106 25.509 36.8115 25.2231 37.704 24.7532C38.1601 24.5132 38.5892 24.2287 38.9825 23.902C39.4294 23.5303 39.8259 23.1017 40.1737 22.635C40.4353 22.2839 40.6657 21.9099 40.8621 21.5148C41.3499 20.5319 41.6316 19.4278 41.6316 18.2554Z" fill="#F4971E"/>
<path d="M26.9477 15.9615V18.2559C26.9477 18.6413 26.9753 19.0176 27.0303 19.3893C23.3271 17.1041 20.0645 15.9615 20.0645 15.9615C20.0645 15.9615 23.2767 14.5848 26.9477 15.9615Z" fill="#8DC691"/>
<path d="M41.6334 18.2559V15.9615C45.3045 14.5848 48.5167 15.9615 48.5167 15.9615C48.5167 15.9615 45.254 17.1041 41.5508 19.3893C41.6058 19.0176 41.6334 18.6413 41.6334 18.2559Z" fill="#8DC691"/>
<path d="M24.8349 18.1295C23.182 18.0914 22.1564 18.7568 22.1045 18.7912C21.8939 18.9316 21.837 19.2166 21.9774 19.4277C22.066 19.5603 22.2115 19.6319 22.3597 19.6319C22.4464 19.6319 22.5341 19.6071 22.6121 19.5557C22.6644 19.5218 23.7116 18.8633 25.3957 19.0936C25.3746 18.8674 25.3534 18.6407 25.3498 18.4094L24.8349 18.1295Z" fill="#379B4A"/>
<path d="M43.2314 18.4099C43.2273 18.6407 43.2067 18.8674 43.1855 19.0941C44.8697 18.8637 45.9168 19.5222 45.9691 19.5562C46.0472 19.6071 46.1348 19.6319 46.2215 19.6319C46.3698 19.6319 46.5152 19.5603 46.6038 19.4277C46.7442 19.2171 46.6873 18.9316 46.4767 18.7912C46.4253 18.7568 45.3992 18.0914 43.7463 18.1295L43.2314 18.4099Z" fill="#379B4A"/>
</g>
<path d="M62.8397 38.2007C67.2237 38.9889 71.4167 36.0739 72.2048 31.6898C72.993 27.3058 70.0779 23.1129 65.6939 22.3248C61.3098 21.5366 57.1169 24.4516 56.3288 28.8356C55.5406 33.2197 58.4556 37.4126 62.8397 38.2007Z" fill="#FE646F"/>
<path fill-rule="evenodd" clip-rule="evenodd" d="M65.8756 22.3591C70.2382 23.252 73.051 27.5123 72.1581 31.8749C71.2653 36.2375 67.0049 39.0503 62.6423 38.1574C62.4533 38.1188 62.2674 38.0734 62.0844 38.0223C66.2437 38.5732 70.18 35.8185 71.0342 31.6449C71.8884 27.4713 69.3508 23.3917 65.3095 22.2642C65.4979 22.2892 65.6866 22.3204 65.8756 22.3591Z" fill="#FD4755"/>
<path fill-rule="evenodd" clip-rule="evenodd" d="M64.0192 25.8204C64.5945 26.6911 64.3571 27.8634 63.4857 28.4391C62.615 29.0144 61.4428 28.777 60.867 27.9056C60.2955 27.0406 60.535 25.8588 61.4005 25.2869C62.2655 24.7153 63.4473 24.9548 64.0192 25.8204ZM67.632 32.6037C68.2 33.4633 67.962 34.6378 67.1018 35.2061C66.2422 35.774 65.0678 35.5361 64.4995 34.676C63.9315 33.8163 64.1695 32.642 65.0296 32.0736C65.8893 31.5056 67.0636 31.7436 67.632 32.6037ZM66.9098 33.0835C66.6035 32.6199 65.9734 32.4892 65.5093 32.7959C65.0458 33.1021 64.9151 33.7322 65.2217 34.1963C65.528 34.6598 66.1581 34.7905 66.6221 34.4839C67.0857 34.1776 67.2164 33.5475 66.9098 33.0835ZM63.2924 26.303C62.9843 25.8366 62.3502 25.705 61.8832 26.0136C61.4167 26.3218 61.2852 26.9558 61.5938 27.4229C61.9029 27.8907 62.5346 28.0218 63.003 27.7123C63.4711 27.403 63.6021 26.7718 63.2924 26.303Z" fill="white"/>
<path fill-rule="evenodd" clip-rule="evenodd" d="M61.0232 33.9016C60.8377 34.0728 60.5484 34.0611 60.3772 33.8755C60.206 33.6899 60.2177 33.4007 60.4033 33.2295L67.5968 26.5789C67.7823 26.4078 68.0716 26.4194 68.2428 26.605C68.414 26.7906 68.4023 27.0798 68.2167 27.251L61.0232 33.9016Z" fill="white"/>
<path d="M62.2634 15.9788C62.3861 15.9461 62.5143 15.938 62.6407 15.9548C62.767 15.9717 62.889 16.0132 62.9995 16.0771C63.1101 16.1409 63.207 16.2257 63.2848 16.3267C63.3626 16.4277 63.4196 16.5428 63.4527 16.6655L65.154 22.9425C65.3348 23.6095 64.6176 24.1546 64.0161 23.8073L62.0633 22.6799L55.0526 34.8165C55.0393 34.8395 55.0182 34.8571 54.993 34.8663C54.9678 34.8754 54.9402 34.8754 54.9148 34.8664C54.8895 34.8574 54.868 34.8398 54.8542 34.8168C54.8403 34.7938 54.835 34.7667 54.839 34.7403L55.7604 28.7506C55.7634 28.7314 55.7613 28.7117 55.7545 28.6934C55.7477 28.6751 55.7363 28.6588 55.7214 28.6461C55.7066 28.6333 55.6887 28.6245 55.6696 28.6204C55.6504 28.6164 55.6306 28.6172 55.612 28.6229L52.5774 29.5476C52.5554 29.5543 52.5317 29.5543 52.5095 29.5474C52.4874 29.5405 52.4678 29.5272 52.4532 29.5092C52.4387 29.4911 52.4299 29.4692 52.4281 29.4462C52.4263 29.4232 52.4314 29.4003 52.4429 29.3804L57.7494 20.1894L55.7993 19.0635C55.1978 18.7162 55.3111 17.8227 55.979 17.6456L62.2634 15.9788Z" fill="#97F7D7"/>
<path d="M54.9783 33.8318L54.8386 34.74C54.8345 34.7664 54.8399 34.7935 54.8537 34.8165C54.8675 34.8395 54.889 34.8571 54.9144 34.8661C54.9397 34.8751 54.9674 34.8751 54.9925 34.866C55.0177 34.8568 55.0388 34.8392 55.0522 34.8162L61.9022 22.9578L61.4204 22.6796L54.9783 33.8318Z" fill="#42F0B6"/>
<defs>
<clipPath id="clip0_6803_6131">
<rect width="45.4297" height="45.4297" fill="white" transform="translate(13.1816 33.3994)"/>
</clipPath>
<clipPath id="clip1_6803_6131">
<rect width="14.6854" height="14.6854" fill="white" transform="translate(0.332031 22.457) rotate(-14.7644)"/>
</clipPath>
<clipPath id="clip2_6803_6131">
<rect width="29.3687" height="29.3687" fill="white" transform="translate(19.6055 8.16016)"/>
</clipPath>
</defs>
</svg>
