<svg width="73" height="72" viewBox="0 0 73 72" fill="none" xmlns="http://www.w3.org/2000/svg">
<path d="M16.1448 51.1854L27.4577 59.0046C27.4577 59.0046 27.4132 65.5593 22.868 65.5593C18.3227 65.5593 15.8886 63.583 14.3653 61.1653C13.243 59.1415 13.4886 56.2218 14.5052 53.9524L16.1448 51.1854Z" fill="#7696B2"/>
<path d="M55.0474 23.5457L41.7551 15.8734C41.7551 15.8734 45.9186 5.64368 50.5548 5.64368C55.1911 5.64368 57.6738 7.60832 59.2276 10.0118C60.3724 12.0236 60.1218 14.9261 59.0849 17.1821L55.0474 23.5457Z" fill="#7696B2"/>
<path d="M8.01346 33.1316C8.75846 25.7796 9.13095 22.1035 10.3891 19.2149C13.056 13.0917 18.5918 8.63336 25.2204 7.27024C28.3474 6.62719 32.0843 6.99362 39.5581 7.72648C47.032 8.45934 50.7689 8.82576 53.7053 10.0634C59.93 12.6868 64.4622 18.1324 65.8479 24.653C66.5016 27.7291 66.1291 31.4051 65.3841 38.7572C64.6391 46.1092 64.2666 49.7853 63.0085 52.6739C60.3416 58.7971 54.8058 63.2555 48.1772 64.6186C45.0502 65.2616 41.3132 64.8952 33.8394 64.1623C26.3656 63.4295 22.6287 63.0631 19.6922 61.8255C13.4676 59.202 8.93536 53.7564 7.54967 47.2358C6.89597 44.1597 7.26847 40.4837 8.01346 33.1316Z" fill="#FCF0E3"/>
<ellipse cx="36.7164" cy="35.5427" rx="25.0767" ry="25.3503" fill="#33628D"/>
<path d="M12.2951 29.6624C12.9535 30.2459 13.6017 30.9356 14.0138 31.6468C15.1002 33.5218 18.0334 34.0734 19.0655 35.6727C20.0975 37.2721 27.1588 41.9599 25.0947 44.6071C23.4434 46.7248 21.7633 46.1208 21.1295 45.7715C18.7577 45.2568 14.7821 43.6286 14.0138 42.8486C13.4778 42.3044 12.8855 41.8134 12.2949 41.3421C11.8665 39.4664 11.6396 37.5115 11.6396 35.5026C11.6396 33.4934 11.8665 31.5383 12.2951 29.6624Z" fill="#75DC8E"/>
<path d="M33.6969 50.0498C30.6981 49.1785 25.4117 49.3237 23.1433 50.0498C23.1433 55.1328 27.1802 52.4098 29.314 53.8621C31.021 55.0239 35.8691 55.1933 38.0798 55.1328L47.9413 53.8621C50.0367 53.2771 52.7049 53.4748 52.6126 51.6836C52.6051 51.5375 52.5934 51.3991 52.5783 51.2681C52.4155 49.8562 51.0623 49.2632 49.7069 49.2632H42.5033C41.8679 49.2632 41.2432 49.4102 40.6394 49.6178C38.968 50.1925 36.1691 50.7682 33.6969 50.0498Z" fill="#75DC8E"/>
<path d="M61.3502 30.5771C61.5302 31.5065 61.6608 32.454 61.7387 33.4167C61.3979 33.5072 61.0746 33.5879 60.7847 33.653C59.8179 33.8704 56.1692 36.1379 57.9816 37.2958C59.3864 38.1934 60.777 37.0228 61.7928 36.8328C61.7233 38.2478 61.5406 39.6323 61.2536 40.9772C61.1065 41.0241 60.9504 41.0678 60.7847 41.1075C59.46 41.4241 59.893 42.0353 60.8195 42.7112C60.5277 43.7265 60.1755 44.7155 59.7671 45.6738C58.8377 44.8295 57.7833 44.0875 57.3532 43.7612C56.7492 43.3029 58.4165 46.9215 57.3532 47.5487C56.8675 47.8353 56.0803 47.8627 55.3488 47.7946C54.4918 47.7148 53.8809 46.9852 53.688 46.1448C53.2936 44.4271 52.6496 42.4474 52.6497 41.1075C52.6498 39.6315 52.4015 37.4536 53.2362 34.4083C53.6039 33.0669 54.7568 32.1215 56.1121 31.8196L59.794 30.9992C60.2237 30.8714 60.7697 30.7207 61.3502 30.5771Z" fill="#75DC8E"/>
<path d="M31.4823 28.5034C33.282 26.9076 38.0582 22.5771 40.2213 20.6112C42.6017 17.9096 45.7983 17.3474 48.9314 18.3992C50.0566 18.777 50.124 20.332 49.0743 20.8868C48.1317 21.385 48.1083 22.6554 49.0359 23.181C49.9944 23.7242 50.5107 24.6511 49.8856 24.9852C48.5878 25.6791 48.493 32.6191 48.095 34.661C47.719 36.5898 43.7494 40.5788 41.5593 42.3016C41.4216 42.4099 41.253 42.4664 41.0787 42.4667C38.6852 42.4713 34.1353 42.5145 31.1362 41.5124C28.7085 40.7013 26.7539 35.9741 25.559 32.4223C25.1526 31.2145 26.1982 29.9864 27.4662 29.8908C28.8967 29.783 30.4572 29.4124 31.4823 28.5034Z" fill="#75DC8E"/>
<path opacity="0.3" d="M36.8486 10.08C38.2348 10.08 39.5947 10.1934 40.9199 10.4109C28.9705 12.3727 19.8493 22.8273 19.8493 35.4302C19.8493 48.0331 28.9705 58.4876 40.9199 60.4494C39.5947 60.667 38.2348 60.7805 36.8486 60.7805C22.9632 60.7805 11.7068 49.4308 11.7068 35.4302C11.7068 21.4297 22.9632 10.08 36.8486 10.08Z" fill="#003B70"/>
<path opacity="0.3" d="M24.2292 49.8965C25.0828 51.1525 26.0455 52.3264 27.1033 53.4053C25.1546 53.3777 23.1111 53.7006 23.1111 50.1582C23.4291 50.0585 23.8073 49.9727 24.2292 49.8965Z" fill="#2EB34F"/>
<path opacity="0.3" d="M12.3621 29.7734C13.0202 30.3512 13.6689 31.0342 14.0808 31.7383C15.1669 33.5944 18.099 34.1404 19.1306 35.7236C19.2354 35.8844 19.4027 36.0764 19.616 36.2949C19.7144 39.7277 20.4631 42.9893 21.74 45.9502C21.5164 45.8817 21.3299 45.7973 21.1931 45.7227C18.8222 45.213 14.849 43.6003 14.0808 42.8281C13.545 42.2893 12.9524 41.8036 12.3621 41.3369C12.1113 40.2499 11.9325 39.1357 11.825 38C11.7493 37.184 11.7087 36.3563 11.7087 35.5195C11.7087 35.1876 11.7181 34.8572 11.7302 34.5283C11.7945 32.8992 12.0077 31.3094 12.3621 29.7734Z" fill="#2EB34F"/>
<path d="M46.9814 45.3701C46.7113 50.5489 44.7077 56.5748 43.7458 59.2069C43.5124 59.848 42.7075 60.032 42.2253 59.5543L40.891 58.2349C39.689 59.7766 37.6715 61.9245 35.4204 63.8805C32.6959 66.2486 29.6281 68.3339 27.2501 68.7208C22.3121 69.5218 16.1583 65.0038 14.1504 60.6654C14.9865 62.1689 16.5768 63.1803 19.1637 63.0718C20.9014 62.9995 23.0385 61.8346 25.1744 60.2435C28.8717 57.4919 32.5679 53.4614 34.1927 51.6095L32.7099 50.1433C32.2579 49.6962 32.3623 48.9302 32.9176 48.6266C38.0255 45.8345 43.6027 44.7442 45.914 44.3891C46.494 44.2995 47.0127 44.7739 46.9814 45.3701Z" fill="#D9E2EA"/>
<path d="M35.4783 63.8343C32.7463 66.1811 29.6701 68.2479 27.2856 68.6312C22.3341 69.4251 16.1635 64.9475 14.1501 60.6479C14.9885 62.1379 16.5832 63.1402 19.1771 63.0328C20.9196 62.9611 23.0625 61.8066 25.2043 60.2297C25.6239 61.6589 27.4788 64.2795 35.4783 63.8343Z" fill="#BACAD9"/>
<path d="M27.7014 27.0381C30.0221 26.6827 35.6211 25.5924 40.7493 22.8004C41.3062 22.4971 41.4111 21.731 40.9577 21.2842L39.4694 19.8179C42.043 16.8951 49.7905 8.55413 54.5571 8.3553C57.1541 8.24684 58.7507 9.25822 59.5901 10.7617C57.5743 6.42334 51.3962 1.90532 46.439 2.70638C42.0785 3.41196 35.4111 9.78379 32.7446 13.1925L31.4046 11.8724C30.9207 11.3955 30.1133 11.5792 29.8781 12.2207C28.9126 14.8528 26.9011 20.8781 26.6298 26.0574C26.5984 26.6537 27.1195 27.1273 27.7014 27.0381Z" fill="#D9E2EA"/>
<path d="M36.6528 26.9275C32.3933 26.9275 28.9434 30.3885 28.9434 34.6616C28.9434 38.9346 32.3933 42.3956 36.6528 42.3956C40.9123 42.3956 44.3623 38.9346 44.3623 34.6616C44.3623 30.3885 40.9123 26.9275 36.6528 26.9275Z" fill="#FFBE1D"/>
<path d="M36.6528 27.7885C40.7494 27.7885 44.0881 31.0363 44.3382 35.1376C44.3478 34.9749 44.3623 34.8133 44.3623 34.6477C44.3623 30.3166 40.9123 26.8086 36.6528 26.8086C32.3933 26.8086 28.9434 30.3166 28.9434 34.6477C28.9434 34.8133 28.9578 34.9749 28.9675 35.1376C29.2175 31.0363 32.5562 27.7885 36.6528 27.7885Z" fill="#FCD38B"/>
<path d="M39.5126 32.491C40.2433 32.491 40.8674 32.7525 41.3847 33.2754C41.902 33.7984 42.1607 34.4358 42.1607 35.1876C42.1607 35.9263 41.902 36.5572 41.3847 37.0802C40.8674 37.6031 40.2433 37.8646 39.5126 37.8646C39.034 37.8646 38.6105 37.7208 38.2419 37.4332L38.2419 39.3159C38.2419 39.5186 38.174 39.682 38.0382 39.8062C37.9088 39.937 37.7471 40.0023 37.5531 40.0023C37.3527 40.0023 37.1845 39.937 37.0487 39.8062C36.9194 39.682 36.8547 39.5186 36.8547 39.3159L36.8547 35.2661C36.8547 34.4816 37.1134 33.8246 37.6307 33.2951C38.1481 32.759 38.7754 32.491 39.5126 32.491ZM39.5417 36.4918C39.9038 36.4918 40.211 36.3676 40.4632 36.1192C40.7154 35.8642 40.8415 35.5537 40.8415 35.1876C40.8415 34.815 40.7154 34.5012 40.4632 34.2462C40.211 33.9913 39.9038 33.8638 39.5417 33.8638C39.186 33.8638 38.8788 33.9913 38.6202 34.2462C38.368 34.5012 38.2419 34.815 38.2419 35.1876C38.2419 35.5472 38.368 35.8544 38.6202 36.1094C38.8788 36.3643 39.186 36.4918 39.5417 36.4918Z" fill="#F4971E"/>
<path d="M36.2927 36.5996C36.3961 36.7696 36.4479 36.9297 36.4479 37.0801C36.4479 37.2958 36.3735 37.4756 36.2248 37.6194C36.0825 37.7567 35.8982 37.8254 35.6719 37.8254C35.3744 37.8254 35.161 37.7273 35.0317 37.5312L33.693 35.4523L32.7812 35.4523L32.7812 37.4331C32.7812 37.6173 32.632 37.7665 32.4478 37.7665L31.9696 37.7665L31.5529 37.7665C31.3688 37.7665 31.2195 37.6172 31.2195 37.4331L31.2195 31.6868C31.2195 31.4711 31.2971 31.288 31.4523 31.1377C31.6075 30.9808 31.7918 30.9023 32.0052 30.9023L34.0519 30.9023C34.7439 30.9023 35.313 31.1213 35.7592 31.5593C36.2118 31.9908 36.4382 32.5432 36.4382 33.2166C36.4382 33.563 36.3379 33.903 36.1375 34.2364C35.9435 34.5632 35.6848 34.8345 35.3615 35.0503L36.2927 36.5996ZM34.0325 34.0599C34.2653 34.0599 34.4626 33.9781 34.6242 33.8147C34.7924 33.6447 34.8765 33.4388 34.8765 33.1969C34.8765 32.9616 34.7924 32.7622 34.6242 32.5988C34.4626 32.4288 34.2653 32.3438 34.0325 32.3438L32.7812 32.3438L32.7812 34.0599L34.0325 34.0599Z" fill="#F4971E"/>
<path d="M44.3623 36.503V34.0667C44.3623 38.3742 40.9123 41.8631 36.6528 41.8631C32.3933 41.8631 28.9434 38.3742 28.9434 34.0667L28.9434 36.503C28.9434 37.748 29.2392 38.9204 29.7514 39.9641C29.9576 40.3837 30.1995 40.7808 30.4742 41.1536C30.8394 41.6491 31.2557 42.1038 31.725 42.4989C32.138 42.8464 32.588 43.148 33.0674 43.4028C34.0041 43.9013 35.0555 44.2049 36.171 44.2751C36.331 44.2848 36.49 44.2994 36.6528 44.2994C36.8157 44.2994 36.9747 44.2848 37.1347 44.2751C38.2501 44.2054 39.301 43.9018 40.2382 43.4028C40.7172 43.148 41.1677 42.8459 41.5806 42.4989C42.0499 42.1043 42.4663 41.6491 42.8315 41.1536C43.1061 40.7808 43.348 40.3837 43.5543 39.9641C44.0665 38.9204 44.3623 37.748 44.3623 36.503Z" fill="#F4971E"/>
</svg>
