<svg width="72" height="72" viewBox="0 0 72 72" fill="none" xmlns="http://www.w3.org/2000/svg">
<path d="M7.52115 33.3934C8.26615 26.0413 8.63864 22.3653 9.89675 19.4767C12.5637 13.3535 18.0995 8.89508 24.7281 7.53196C27.8551 6.88891 31.592 7.25534 39.0658 7.9882C46.5397 8.72105 50.2766 9.08748 53.213 10.3251C59.4377 12.9485 63.9699 18.3942 65.3556 24.9147C66.0093 27.9908 65.6368 31.6668 64.8918 39.0189C64.1468 46.371 63.7743 50.047 62.5162 52.9356C59.8493 59.0588 54.3135 63.5172 47.6849 64.8803C44.5579 65.5234 40.8209 65.1569 33.3471 64.4241C25.8733 63.6912 22.1363 63.3248 19.1999 62.0872C12.9753 59.4637 8.44305 54.0181 7.05736 47.4975C6.40366 44.4215 6.77616 40.7454 7.52115 33.3934Z" fill="#FCF0E3"/>
<path d="M44.7353 18.2323H29.2894C8.36432 18.2323 8.36432 56.8598 27.6675 56.8598H60.8011C64.8478 56.8598 68.1293 53.6022 68.1293 49.585V25.5071C68.1293 24.2338 67.7991 23.0371 67.22 21.9962L44.7353 18.2323Z" fill="#E5EBF1"/>
<path d="M64.4755 19.2121C56.4837 18.7076 49.5767 18.2673 48.9541 18.2323H44.7352L41.0275 21.913C38.5121 24.4103 37.1266 27.7308 37.1266 31.2627V32.2191C37.1266 33.9963 38.5778 35.437 40.3681 35.437H41.3315C44.8883 35.437 48.2332 34.0612 50.7497 31.5632L56.0231 26.328C56.7003 25.6558 57.7392 25.5322 58.5776 25.9918C59.4447 26.467 60.4279 26.7251 61.4327 26.7252H61.433C63.0092 26.7252 64.4911 26.1159 65.6058 25.0093C66.4531 24.1682 66.9988 23.1132 67.22 21.9963C66.5763 20.8395 65.6251 19.875 64.4755 19.2121Z" fill="#BACAD9"/>
<path d="M29.2897 18.2323H11.2554C7.20873 18.2323 3.92725 21.4899 3.92725 25.5071V49.585C3.92725 53.6022 7.20873 56.8598 11.2554 56.8598H27.6678C23.7397 51.7751 21.4033 45.4148 21.4033 38.5117C21.4033 30.7049 24.3895 23.5903 29.2897 18.2323Z" fill="#BACAD9"/>
<path d="M67.0279 11.3979C68.4967 12.8559 68.4967 15.2201 67.0279 16.6782L64.4552 19.2323C64.2381 19.4477 64.1494 19.7634 64.235 20.0562C64.5219 21.0378 64.2761 22.1408 63.4961 22.9153C62.3314 24.0715 60.4274 24.0457 59.2951 22.8393C58.2173 21.6895 58.3003 19.8805 59.4184 18.7693C56.6182 15.7002 64.2381 8.96184 66.9359 11.3065L67.0279 11.3979Z" fill="#33628D"/>
<path d="M59.3696 18.8181C61.3393 16.8627 60.9049 17.2939 62.8093 15.4034C64.138 14.0841 63.1316 11.877 61.5405 10.518C59.477 8.46948 52.4142 15.4809 54.4777 17.5294C55.8484 19.1073 58.0618 20.1161 59.3696 18.8181Z" fill="#F8E0C4"/>
<path d="M61.5398 10.5182C60.1938 9.36842 58.4293 8.82554 57.3054 9.94167L53.8671 13.355C52.7607 14.453 53.3174 16.1949 54.477 17.5296C57.0506 14.9746 59.6166 12.4272 61.5398 10.5182Z" fill="#F2C791"/>
<path d="M49.7401 28.3785C52.7877 25.3531 49.2993 23.1512 47.6807 21.8188C46.3375 23.1523 45.1657 24.3156 44.3067 25.1683C42.67 26.7931 41.0433 30.8936 42.5984 32.3951C44.8721 32.116 47.0026 31.0949 48.6403 29.4691L49.7401 28.3785Z" fill="#EDAF64"/>
<path d="M48.9194 23.0477C47.5505 21.9209 45.6372 21.5259 44.2376 22.9153L43.1378 24.0071C41.2 25.9308 40.1106 28.5407 40.1106 31.2627V31.4037C40.1106 31.9958 40.594 32.4756 41.1904 32.4756H41.3325C41.7583 32.4756 42.181 32.4465 42.5993 32.3951C42.8803 30.1371 43.9088 28.0221 45.5455 26.3972C46.4043 25.5445 47.5762 24.3812 48.9194 23.0477Z" fill="#E79633"/>
<path d="M66.9356 11.3064C68.0266 10.2252 68.3292 8.66351 67.8614 7.31385C65.9068 5.37352 63.6522 5.88801 62.5641 6.96816L59.3953 10.114L59.713 12.3314L62.8084 15.4036L66.9356 11.3064Z" fill="#FFB5B2"/>
<path d="M63.8403 8.23461C64.9282 7.15458 66.4992 6.84786 67.8618 7.31392C67.6752 6.77578 67.3666 6.27137 66.936 5.84451C65.4159 4.33552 62.9529 4.33552 61.4327 5.84451L57.3055 9.94166L59.7134 12.3315C61.4727 10.5849 62.951 9.11732 63.8403 8.23461Z" fill="#FE807C"/>
<path d="M59.3683 18.8181L56.2737 15.7452C53.9809 13.4691 44.3509 23.0293 46.6436 25.3052L49.7393 28.3783L59.3683 18.8181Z" fill="#33628D"/>
<path d="M56.2743 15.7453L53.867 13.355C52.6718 14.5414 45.3533 21.8067 44.2367 22.9152L46.6443 25.3053C49.0705 22.8968 52.8173 19.1772 56.2743 15.7453Z" fill="#003B70"/>
<path d="M62.2931 40.4431C62.2931 39.377 61.4215 38.5117 60.3476 38.5117H40.0142C37.1271 38.5117 36.288 39.3788 36.288 40.4431C36.288 41.5092 36.7095 42.3745 40.0142 42.3745H60.3476C61.4216 42.3745 62.2931 41.5074 62.2931 40.4431Z" fill="#99B1C6"/>
<path d="M38.0691 40.4431C38.0691 39.3788 38.9407 38.5117 40.0146 38.5117H36.0289C34.9549 38.5117 34.0834 39.3788 34.0834 40.4431C34.0834 41.5092 34.955 42.3745 36.0289 42.3745H40.0146C38.9407 42.3745 38.0691 41.5092 38.0691 40.4431Z" fill="#7696B2"/>
<path d="M43.0011 50.6356C42.7031 50.1918 42.824 49.5923 43.271 49.2966L47.4889 46.5051C48.1228 46.0857 48.9251 45.9985 49.6355 46.2715C50.3452 46.5441 50.8789 47.1442 51.0631 47.8768C51.1079 48.0558 51.2408 48.1271 51.3161 48.1538C51.3911 48.1803 51.5397 48.2083 51.6901 48.0968L52.4057 47.5636C53.0066 47.116 53.7936 46.9813 54.5107 47.2037C55.2281 47.4261 55.7982 47.981 56.0358 48.6884L56.0949 48.8656C56.1485 49.0254 56.3004 49.1342 56.4723 49.1342H62.2933C62.8305 49.1342 63.2661 49.5666 63.2661 50.1C63.2661 50.6334 62.8306 51.0657 62.2933 51.0657H56.4719C55.4614 51.0657 54.5677 50.4262 54.2482 49.4743L54.1891 49.2973C54.1338 49.1327 54.0035 49.07 53.9307 49.0475C53.8582 49.0249 53.7151 49.0028 53.5733 49.1085L52.8561 49.6427C52.2231 50.1125 51.4034 50.2353 50.6622 49.973C49.9206 49.7103 49.3647 49.1012 49.175 48.3436C49.132 48.1723 49.005 48.1003 48.9331 48.0727C48.861 48.0451 48.7174 48.0134 48.5676 48.1122L44.3499 50.9035C43.905 51.1982 43.3005 51.0814 43.0011 50.6356Z" fill="#33628D"/>
<path d="M27.2736 46.2372H22.4107C20.5452 46.7201 21.232 48.0237 22.9954 48.1686H27.2734C27.8106 48.1686 28.2463 47.7362 28.2463 47.2028C28.2463 46.6694 27.8108 46.2372 27.2736 46.2372Z" fill="#99B1C6"/>
<path d="M11.7093 46.2373C11.1721 46.2373 10.7365 46.6696 10.7365 47.2031C10.7365 47.7365 11.172 48.1688 11.7093 48.1688H22.9954C22.7795 47.5342 22.5844 46.8901 22.4107 46.2374H11.7093V46.2373Z" fill="#7696B2"/>
<path d="M21.1127 52.997H11.7093C11.1721 52.997 10.7365 52.5647 10.7365 52.0313C10.7365 51.4979 11.172 51.0656 11.7093 51.0656H21.1126C21.6498 51.0656 22.0854 51.4979 22.0854 52.0313C22.0854 52.5647 21.6499 52.997 21.1127 52.997Z" fill="#7696B2"/>
<path d="M29.1986 33.319L29.1986 30.4744C29.1986 35.5037 25.1265 39.5772 20.099 39.5772C15.0715 39.5772 10.9995 35.5037 10.9995 30.4744L10.9995 33.319C10.9995 34.7726 11.3487 36.1415 11.9533 37.3601C12.1967 37.8499 12.4822 38.3136 12.8063 38.7488C13.2374 39.3274 13.7288 39.8583 14.2827 40.3197C14.7701 40.7253 15.3013 41.0775 15.8672 41.375C16.9728 41.957 18.2137 42.3115 19.5303 42.3934C19.7191 42.4048 19.9068 42.4218 20.099 42.4218C20.2913 42.4218 20.4789 42.4048 20.6678 42.3934C21.9843 42.312 23.2247 41.9576 24.3309 41.375C24.8962 41.0775 25.4279 40.7247 25.9153 40.3197C26.4693 39.8588 26.9607 39.3274 27.3917 38.7488C27.7159 38.3136 28.0014 37.8499 28.2448 37.3601C28.8494 36.1415 29.1986 34.7726 29.1986 33.319Z" fill="#F4971E"/>
<path d="M20.099 22.1389C15.0715 22.1389 10.9995 26.1799 10.9995 31.169C10.9995 36.1581 15.0715 40.199 20.099 40.199C25.1265 40.199 29.1986 36.1581 29.1986 31.169C29.1986 26.1799 25.1265 22.1389 20.099 22.1389Z" fill="#FFBE1D"/>
<path d="M20.099 23.1441C24.9343 23.1441 28.875 26.9361 29.1701 31.7247C29.1815 31.5348 29.1986 31.346 29.1986 31.1526C29.1986 26.0958 25.1265 22 20.099 22C15.0715 22 10.9995 26.0958 10.9995 31.1526C10.9995 31.346 11.0166 31.5348 11.0279 31.7247C11.3231 26.9361 15.2638 23.1441 20.099 23.1441Z" fill="#FCD38B"/>
<path d="M23.4735 28.6146C24.336 28.6146 25.0726 28.9199 25.6832 29.5306C26.2938 30.1412 26.5991 30.8854 26.5991 31.7631C26.5991 32.6256 26.2938 33.3622 25.6832 33.9728C25.0726 34.5834 24.336 34.8887 23.4735 34.8887C22.9087 34.8887 22.4087 34.7208 21.9737 34.385L21.9737 36.5832C21.9737 36.8198 21.8935 37.0107 21.7332 37.1557C21.5806 37.3083 21.3897 37.3847 21.1608 37.3847C20.9241 37.3847 20.7257 37.3083 20.5654 37.1557C20.4128 37.0107 20.3364 36.8198 20.3364 36.5832L20.3364 31.8547C20.3364 30.9388 20.6417 30.1717 21.2524 29.5535C21.863 28.9276 22.6034 28.6146 23.4735 28.6146ZM23.5078 33.2859C23.9353 33.2859 24.2978 33.1408 24.5955 32.8508C24.8932 32.5531 25.042 32.1906 25.042 31.7631C25.042 31.3281 24.8932 30.9617 24.5955 30.664C24.2978 30.3663 23.9353 30.2175 23.5078 30.2175C23.088 30.2175 22.7255 30.3663 22.4202 30.664C22.1225 30.9617 21.9737 31.3281 21.9737 31.7631C21.9737 32.1829 22.1225 32.5417 22.4202 32.8394C22.7255 33.137 23.088 33.2859 23.5078 33.2859Z" fill="#F4971E"/>
<path d="M19.6736 33.4117C19.7957 33.6102 19.8568 33.7972 19.8568 33.9727C19.8568 34.2246 19.769 34.4345 19.5934 34.6024C19.4255 34.7627 19.208 34.8429 18.9408 34.8429C18.5897 34.8429 18.3379 34.7284 18.1852 34.4994L16.6052 32.0722L15.529 32.0722L15.529 34.3849C15.529 34.5999 15.3547 34.7742 15.1397 34.7742L14.5711 34.7742L14.0749 34.7742C13.86 34.7742 13.6857 34.5999 13.6857 34.3849L13.6857 27.6757C13.6857 27.4238 13.7773 27.2101 13.9605 27.0345C14.1437 26.8514 14.3612 26.7598 14.6131 26.7598L17.0288 26.7598C17.8455 26.7598 18.5172 27.0155 19.0439 27.5269C19.5782 28.0306 19.8453 28.6756 19.8453 29.4618C19.8453 29.8663 19.727 30.2632 19.4904 30.6525C19.2614 31.0341 18.9561 31.3509 18.5745 31.6028L19.6736 33.4117ZM17.0059 30.4464C17.2807 30.4464 17.5135 30.351 17.7043 30.1602C17.9028 29.9617 18.002 29.7213 18.002 29.4389C18.002 29.1641 17.9028 28.9313 17.7043 28.7405C17.5135 28.542 17.2807 28.4428 17.0059 28.4428L15.529 28.4428L15.529 30.4464L17.0059 30.4464Z" fill="#F4971E"/>
</svg>
