<svg width="72" height="72" viewBox="0 0 72 72" fill="none" xmlns="http://www.w3.org/2000/svg">
<path d="M7.34671 33.1316C8.09171 25.7795 8.46421 22.1035 9.72231 19.2149C12.3892 13.0917 17.925 8.6333 24.5536 7.27018C27.6806 6.62713 31.4176 6.99356 38.8914 7.72642C46.3652 8.45927 50.1021 8.8257 53.0386 10.0633C59.2632 12.6868 63.7954 18.1324 65.1811 24.653C65.8348 27.729 65.4623 31.4051 64.7173 38.7571C63.9723 46.1092 63.5998 49.7852 62.3417 52.6738C59.6748 58.797 54.139 63.2554 47.5104 64.6185C44.3834 65.2616 40.6465 64.8951 33.1727 64.1623C25.6988 63.4294 21.9619 63.063 19.0255 61.8254C12.8008 59.2019 8.26861 53.7563 6.88292 47.2357C6.22922 44.1597 6.60172 40.4836 7.34671 33.1316Z" fill="#FCF0E3"/>
<path d="M10.9555 12.8344C11.0765 11.1035 12.5778 9.60212 14.3088 9.48108L53.9765 6.70725C55.7074 6.58621 57.0125 7.8913 56.8915 9.62225L55.2445 33.1744C55.1941 33.8957 54.5685 34.5212 53.8473 34.5716L12.3514 37.4733C10.6204 37.5944 9.31533 36.2893 9.43637 34.5583L10.9555 12.8344Z" fill="#E5EBF1"/>
<mask id="mask0_8318_98879" style="mask-type:alpha" maskUnits="userSpaceOnUse" x="14" y="17" width="16" height="17">
<ellipse cx="7.76035" cy="7.76035" rx="7.76035" ry="7.76035" transform="matrix(0.997564 -0.0697565 -0.0697565 0.997564 14.9678 18.2169)" fill="#D9D9D9"/>
</mask>
<g mask="url(#mask0_8318_98879)">
<ellipse cx="7.76035" cy="7.76035" rx="7.76035" ry="7.76035" transform="matrix(0.997564 -0.0697565 -0.0697565 0.997564 14.9678 18.2169)" fill="#D9E2EA"/>
<path d="M22.7092 17.6755C23.0173 17.654 23.32 17.6508 23.6162 17.6649C19.8499 18.3769 16.7234 21.8497 16.4459 25.8171C16.1685 29.7844 18.8377 32.8519 22.541 33.0416C22.2398 33.0974 21.9347 33.1369 21.6265 33.1584C17.3511 33.4574 14.1275 30.2338 14.4264 25.9583C14.7254 21.6828 18.4337 17.9745 22.7092 17.6755Z" fill="#C5C2C2"/>
<path d="M22.7092 17.6755C23.0173 17.654 23.32 17.6508 23.6162 17.6649C19.8499 18.3769 16.7234 21.8497 16.4459 25.8171C16.1685 29.7844 18.8377 32.8519 22.541 33.0416C22.2398 33.0974 21.9347 33.1369 21.6265 33.1584C17.3511 33.4574 14.1275 30.2338 14.4264 25.9583C14.7254 21.6828 18.4337 17.9745 22.7092 17.6755Z" fill="#99B1C6"/>
<path d="M14.8129 34.2503C15.0101 31.4302 17.4561 28.9842 20.2762 28.787L23.6018 28.5544C26.4219 28.3572 28.5482 30.4835 28.351 33.3037C28.3431 33.4165 28.2453 33.5143 28.1325 33.5222L15.0028 34.4403C14.89 34.4482 14.805 34.3632 14.8129 34.2503Z" fill="#003B70"/>
<path d="M17.3255 29.8845C18.3757 31.719 20.2625 32.9249 22.5408 33.0416C22.2396 33.0975 21.9345 33.1369 21.6264 33.1585C19.37 33.3162 17.4067 32.4928 16.0994 31.0516C16.4532 30.61 16.8671 30.2158 17.3255 29.8845Z" fill="#00182E"/>
<path d="M18.2697 23.0822C18.9405 20.767 24.4866 19.2775 26.3893 21.8798C26.4908 22.0187 26.5285 22.1978 26.5106 22.3816C26.3847 23.6781 26.1275 24.8737 26.2569 26.0849C26.384 27.2742 26.0247 27.7456 24.8673 28.5338C23.7184 29.3164 24.0462 28.4172 22.4032 29.0289C20.7746 29.6354 18.4561 29.4795 18.1119 27.5001C17.8571 26.0345 17.8938 24.3795 18.2696 23.0822L18.2697 23.0822Z" fill="#1A1A1A"/>
<path d="M19.0299 29.1743C20.1817 29.0938 21.1957 27.8798 21.2948 26.4628C21.3938 25.0459 20.5405 23.9625 19.3887 24.043C18.237 24.1236 17.223 25.3375 17.1239 26.7545C17.0249 28.1715 17.8782 29.2549 19.0299 29.1743Z" fill="#1A1A1A"/>
<path d="M25.011 28.739C26.0667 28.6652 26.9965 27.5486 27.0876 26.245C27.1788 24.9414 26.3968 23.9444 25.3411 24.0182C24.2853 24.0921 23.3555 25.2087 23.2644 26.5123C23.1732 27.8159 23.9552 28.8129 25.011 28.739Z" fill="black"/>
<rect width="7.5258" height="8.57306" rx="3.7629" transform="matrix(-0.997564 0.0697565 -0.0697565 0.997564 26.6237 20.4435)" fill="#FBBFA3"/>
<path d="M20.0693 22.0459C19.3831 22.7532 18.9276 23.6766 18.8586 24.663L18.7773 25.8261C18.6346 27.8665 20.1996 29.4031 22.2727 29.2581C22.7345 29.2258 23.1824 29.1127 23.6015 28.934C20.66 29.0031 19.7603 26.4351 19.9357 23.9265L20.0567 22.1959C20.0602 22.1458 20.0645 22.0958 20.0693 22.0459Z" fill="#F69C7C"/>
<path d="M25.6007 20.405C27.1681 21.5357 27.0442 24.784 27.0441 24.7847C26.3618 24.5104 25.8114 24.1281 25.3729 23.7207C25.3742 23.6637 25.3769 23.6062 25.3809 23.5484L25.6007 20.405Z" fill="black"/>
<path d="M18.5779 25.5087C20.5032 24.9138 23.2345 23.6733 23.8669 21.49C23.8669 21.49 24.6293 23.8137 27.0444 24.7846C27.0444 24.7846 27.2343 19.8154 24.1792 20.029C21.1243 20.2426 19.4062 20.9706 18.7485 23.0667C18.2464 24.667 18.5777 25.5088 18.5777 25.5088L18.5779 25.5087Z" fill="#1A1A1A"/>
</g>
<ellipse cx="4.47119" cy="4.47119" rx="4.47119" ry="4.47119" transform="matrix(0.997564 -0.0697565 -0.0697565 0.997564 43.7596 15.6934)" fill="#7A4300"/>
<path d="M52.3755 19.2744C52.3753 19.3755 52.372 19.4778 52.3648 19.5812C52.1925 22.0446 50.056 24.1812 47.5926 24.3534C45.1292 24.5257 43.2719 22.6684 43.4442 20.205C43.4514 20.1016 43.4624 19.9988 43.4764 19.8967C43.4722 22.2055 45.2757 23.9032 47.6356 23.7382C49.9956 23.5732 52.0552 21.6053 52.3755 19.2744Z" fill="#3D2200"/>
<ellipse cx="4.47119" cy="4.47119" rx="4.47119" ry="4.47119" transform="matrix(0.997564 -0.0697565 -0.0697565 0.997564 38.9415 16.0303)" fill="#E17C00"/>
<path d="M47.5609 19.5599C47.5607 19.6611 47.5575 19.7634 47.5502 19.8668C47.378 22.3302 45.2414 24.4667 42.778 24.639C40.3147 24.8113 38.4574 22.9539 38.6296 20.4906C38.6368 20.3872 38.6478 20.2844 38.6618 20.1822C38.6576 22.491 40.4611 24.1888 42.821 24.0238C45.181 23.8588 47.2407 21.8909 47.5609 19.5599Z" fill="#B86500"/>
<path d="M42.7116 20.4865L42.8029 19.1811C42.6415 21.4891 40.642 23.4892 38.3348 23.6506C36.0276 23.812 34.2896 22.0733 34.451 19.7653L34.3597 21.0707C34.3131 21.7378 34.4294 22.3547 34.6677 22.8946C34.7637 23.1116 34.8798 23.3152 35.0146 23.5045C35.1939 23.7562 35.4024 23.984 35.6418 24.178C35.8524 24.3485 36.0849 24.4931 36.335 24.6115C36.8237 24.8431 37.3818 24.9659 37.9834 24.9612C38.0697 24.9604 38.1553 24.9622 38.2435 24.956C38.3317 24.9499 38.4184 24.936 38.5054 24.9247C39.1122 24.8451 39.6928 24.6427 40.2192 24.3398C40.4882 24.1851 40.7435 24.0062 40.9802 23.8046C41.2492 23.5754 41.4918 23.3157 41.7082 23.0364C41.8709 22.8262 42.0168 22.6043 42.1442 22.3717C42.4608 21.793 42.665 21.1536 42.7116 20.4865Z" fill="#F4971E"/>
<path d="M38.8631 16.0993C36.5559 16.2607 34.5574 18.2458 34.3973 20.5354C34.2371 22.825 35.9762 24.5487 38.2834 24.3874C40.5906 24.226 42.589 22.2408 42.7491 19.9512C42.9093 17.6617 41.1703 15.9379 38.8631 16.0993Z" fill="#FFBE1D"/>
<path d="M38.8309 16.5605C41.0499 16.4053 42.7366 18.0191 42.7184 20.2071C42.7297 20.1196 42.7436 20.0324 42.7498 19.9437C42.9121 17.623 41.1748 15.8741 38.8676 16.0355C36.5604 16.1969 34.5602 18.2072 34.3979 20.5278C34.3917 20.6166 34.3934 20.7026 34.3926 20.7894C34.6817 18.5824 36.6119 16.7157 38.8309 16.5605Z" fill="#FCD38B"/>
<path d="M40.2042 18.9629C40.6 18.9352 40.9282 19.0516 41.1888 19.3122C41.4495 19.5729 41.5657 19.9046 41.5375 20.3074C41.5098 20.7032 41.346 21.051 41.0462 21.3508C40.7464 21.6507 40.3986 21.8144 40.0028 21.8421C39.7436 21.8603 39.5195 21.7993 39.3307 21.6591L39.2601 22.6679C39.2525 22.7765 39.2096 22.8666 39.1314 22.9383C39.0564 23.0133 38.9664 23.0544 38.8613 23.0618C38.7527 23.0694 38.6641 23.0407 38.5955 22.9758C38.5301 22.9142 38.5012 22.8291 38.5088 22.7205L38.6606 20.5505C38.69 20.1302 38.8548 19.7684 39.1548 19.465C39.4551 19.1582 39.8049 18.9908 40.2042 18.9629ZM40.07 21.1054C40.2662 21.0917 40.4372 21.0135 40.5831 20.8709C40.7293 20.7247 40.8092 20.5535 40.8229 20.3574C40.8369 20.1577 40.7804 19.9944 40.6533 19.8673C40.5263 19.7403 40.3647 19.6836 40.1685 19.6973C39.9759 19.7108 39.8047 19.7908 39.6551 19.9372C39.5089 20.0833 39.4288 20.2563 39.4149 20.4559C39.4014 20.6486 39.4582 20.8084 39.5852 20.9355C39.7158 21.0623 39.8774 21.1189 40.07 21.1054Z" fill="#F4971E"/>
<path d="M38.3054 21.2863C38.355 21.3735 38.3771 21.4573 38.3714 21.5379C38.3633 21.6535 38.3163 21.7526 38.2304 21.8353C38.1482 21.9143 38.0458 21.958 37.9232 21.9666C37.762 21.9779 37.6501 21.9334 37.5874 21.8333L36.9403 20.7701L36.4464 20.8047L36.3722 21.866C36.3653 21.9647 36.2797 22.0503 36.181 22.0572L35.9201 22.0754L35.6924 22.0913C35.5938 22.0982 35.5194 22.0239 35.5263 21.9252L35.7417 18.8463C35.7498 18.7307 35.7987 18.6297 35.8884 18.5432C35.9783 18.4533 36.0811 18.4043 36.1967 18.3962L37.3053 18.3186C37.6801 18.2924 37.9801 18.3882 38.2054 18.6059C38.4344 18.82 38.5363 19.1074 38.511 19.4681C38.498 19.6538 38.431 19.8397 38.3099 20.026C38.1926 20.2085 38.0423 20.3636 37.8591 20.4915L38.3054 21.2863ZM37.1764 20.0112C37.3025 20.0024 37.4124 19.9511 37.5061 19.8574C37.6035 19.76 37.6568 19.6464 37.6659 19.5168C37.6747 19.3907 37.6366 19.2871 37.5517 19.2059C37.4705 19.1209 37.3668 19.0829 37.2407 19.0917L36.563 19.1391L36.4986 20.0586L37.1764 20.0112Z" fill="#F4971E"/>
<path d="M10.9626 12.7389C11.0836 11.0079 12.585 9.5066 14.3159 9.38556L53.9836 6.61173C55.7145 6.49069 57.0196 7.79578 56.8986 9.52673L56.6804 12.6472L10.7444 15.8594L10.9626 12.7389Z" fill="#003B70"/>
<path d="M16.2638 9.24927C14.5329 9.37031 13.0315 10.8716 12.9105 12.6026L12.6923 15.7231L10.7444 15.8593L10.9626 12.7388C11.0836 11.0079 12.585 9.50652 14.3159 9.38548L16.2638 9.24927Z" fill="#00182E"/>
<rect width="10.8953" height="1.54179" rx="0.770896" transform="matrix(0.997564 -0.0697565 -0.0697564 0.997564 34.0194 27.3942)" fill="#7696B2"/>
<rect width="4.93373" height="1.54179" rx="0.770895" transform="matrix(0.997564 -0.0697564 -0.0697565 0.997564 46.6283 26.5347)" fill="#99B1C6"/>
<rect width="17.5764" height="1.54179" rx="0.770896" transform="matrix(0.997564 -0.0697565 -0.0697565 0.997564 33.8187 30.2652)" fill="#99B1C6"/>
<path d="M15.3728 12.4237C15.4025 11.9989 15.7708 11.6306 16.1956 11.6009L31.0632 10.5612C31.4879 10.5315 31.8082 10.8517 31.7785 11.2765C31.7488 11.7012 31.3804 12.0696 30.9557 12.0993L16.088 13.1389C15.6633 13.1686 15.3431 12.8484 15.3728 12.4237Z" fill="#BACAD9"/>
<path d="M33.9316 11.1259C33.9613 10.7012 34.3297 10.3328 34.7544 10.3031L39.818 9.94905C40.2427 9.91935 40.5629 10.2396 40.5332 10.6643C40.5035 11.089 40.1351 11.4574 39.7104 11.4871L34.6468 11.8412C34.2221 11.8709 33.9019 11.5506 33.9316 11.1259Z" fill="#BACAD9"/>
<path d="M19.8807 59.7872C20.5592 61.3858 22.4526 62.5701 24.1078 62.4311L63.4157 59.1321C65.1039 58.9904 65.8848 57.5297 65.1414 55.9043L55.5409 34.9122C55.0956 33.9385 53.9374 33.231 52.9256 33.3147L13.1414 36.6051C11.4869 36.7419 10.6952 38.1477 11.3732 39.7449L19.8807 59.7872Z" fill="#BACAD9"/>
<path fill-rule="evenodd" clip-rule="evenodd" d="M16.2631 9.24933C14.5322 9.37037 13.0309 10.8717 12.9098 12.6027L11.3907 34.3265C11.3643 34.7037 11.3198 35.3226 11.4406 35.7808C11.5715 36.3699 11.7059 36.6252 11.9642 37.0899L21.7934 59.657C22.4714 61.2542 24.3623 62.4381 26.0168 62.3013L24.155 62.4552C22.5005 62.592 20.6096 61.4081 19.9316 59.8109L11.4226 39.7651C11.118 39.0476 10.3138 37.6027 9.85864 36.5253C9.51458 35.8395 9.35328 35.0673 9.44284 34.4627L10.9619 12.7389C11.083 11.0079 12.5843 9.50658 14.3152 9.38554L16.2631 9.24933ZM11.32 36.2362C11.321 36.2371 11.322 36.2379 11.323 36.2388L11.3198 36.2233C11.3198 36.2276 11.3199 36.2319 11.32 36.2362Z" fill="#99B1C6"/>
<path d="M16.2531 9.25006C14.5264 9.3762 13.0307 10.875 12.9098 12.6026L12.6916 15.7232L10.7445 15.8594L10.9627 12.7388C11.0838 11.0079 12.5851 9.50655 14.316 9.38551L16.2531 9.25006Z" fill="#00182E"/>
<path d="M19.877 59.7473C20.555 61.3445 22.4459 62.5284 24.1005 62.3916L63.3502 59.1454C65.5005 59.0001 65.8821 56.9947 65 55.5001L63.8961 53.1261L18.6548 56.8678L19.877 59.7473Z" fill="#003B70"/>
<path d="M25.3491 62.2882C23.8813 62.1174 22.38 61.0429 21.7917 59.6571L20.5328 56.7124L18.6796 56.8657L19.9298 59.811C20.079 60.1625 20.2869 60.494 20.5381 60.7958C21.4317 61.8292 22.8345 62.4962 24.0992 62.3916L25.3491 62.2882Z" fill="#00182E"/>
<rect width="3.66545" height="1.57091" rx="0.785455" transform="matrix(0.953528 -0.0788622 -0.390731 -0.920505 16.1276 39.1284)" fill="#7696B2"/>
<rect width="3.66545" height="1.57091" rx="0.785455" transform="matrix(0.953528 -0.0788622 -0.390731 -0.920505 17.2529 41.7795)" fill="#7696B2"/>
<rect width="3.66546" height="1.57091" rx="0.785455" transform="matrix(0.953528 -0.0788622 -0.390731 -0.920505 18.3782 44.4305)" fill="#7696B2"/>
<rect width="3.66545" height="1.57091" rx="0.785455" transform="matrix(0.953528 -0.0788622 -0.390731 -0.920505 19.5035 47.0815)" fill="#7696B2"/>
<rect width="3.66545" height="1.57091" rx="0.785455" transform="matrix(0.953528 -0.0788622 -0.390731 -0.920505 20.6288 49.7326)" fill="#7696B2"/>
<rect width="3.66545" height="1.57091" rx="0.785453" transform="matrix(0.953528 -0.078862 -0.390732 -0.920505 21.7542 52.3836)" fill="#7696B2"/>
<rect width="9.96753" height="1.53347" rx="0.766733" transform="matrix(0.953528 -0.0788622 -0.390731 -0.920505 22.4791 38.5674)" fill="#99B1C6"/>
<rect width="7.85901" height="1.53347" rx="0.766733" transform="matrix(0.953528 -0.0788621 -0.390731 -0.920505 23.6025 41.2141)" fill="#99B1C6"/>
<rect width="9.96753" height="1.53347" rx="0.766733" transform="matrix(0.953528 -0.0788621 -0.390731 -0.920505 24.726 43.8607)" fill="#99B1C6"/>
<rect width="8.62575" height="1.53347" rx="0.766733" transform="matrix(0.953528 -0.0788622 -0.390731 -0.920505 25.8494 46.5074)" fill="#99B1C6"/>
<rect width="9.96753" height="1.53347" rx="0.766733" transform="matrix(0.953528 -0.0788622 -0.390731 -0.920505 26.9729 49.1541)" fill="#99B1C6"/>
<rect width="9.96753" height="1.53347" rx="0.766733" transform="matrix(0.953528 -0.0788622 -0.390731 -0.920505 28.0963 51.8008)" fill="#99B1C6"/>
<rect width="3.66546" height="1.57091" rx="0.785455" transform="matrix(0.953528 -0.0788622 -0.390731 -0.920505 35.1912 37.4767)" fill="#7696B2"/>
<rect width="3.66546" height="1.57091" rx="0.785455" transform="matrix(0.953528 -0.0788622 -0.390731 -0.920505 36.3164 40.1277)" fill="#7696B2"/>
<rect width="3.66546" height="1.57091" rx="0.785455" transform="matrix(0.953528 -0.0788622 -0.390731 -0.920505 37.4418 42.7788)" fill="#7696B2"/>
<rect width="3.66546" height="1.57091" rx="0.785455" transform="matrix(0.953528 -0.0788622 -0.390731 -0.920505 38.567 45.4299)" fill="#7696B2"/>
<rect width="3.66545" height="1.57091" rx="0.785455" transform="matrix(0.953528 -0.0788622 -0.390731 -0.920505 39.6924 48.0809)" fill="#7696B2"/>
<rect width="3.66545" height="1.57091" rx="0.785455" transform="matrix(0.953528 -0.0788622 -0.390731 -0.920505 40.8177 50.7319)" fill="#7696B2"/>
<rect width="9.96753" height="1.53347" rx="0.766733" transform="matrix(0.953528 -0.0788621 -0.390731 -0.920505 42.4078 36.8733)" fill="#99B1C6"/>
<rect width="8.81743" height="1.53346" rx="0.766732" transform="matrix(0.953528 -0.078862 -0.390732 -0.920505 43.5314 39.52)" fill="#99B1C6"/>
<rect width="8.24238" height="1.53347" rx="0.766734" transform="matrix(0.953528 -0.0788622 -0.390731 -0.920505 44.6548 42.1666)" fill="#99B1C6"/>
<rect width="6.28364" height="1.57091" rx="0.785454" transform="matrix(0.953528 -0.0788621 -0.390731 -0.920505 45.8101 44.8429)" fill="#99B1C6"/>
<rect width="9.96753" height="1.53347" rx="0.766733" transform="matrix(0.953528 -0.0788621 -0.390731 -0.920505 46.9017 47.46)" fill="#99B1C6"/>
<rect width="8.24238" height="1.53347" rx="0.766734" transform="matrix(0.953528 -0.0788622 -0.390731 -0.920505 48.0251 50.1067)" fill="#99B1C6"/>
<path d="M24.1485 59.4688C24.3149 59.8607 24.7788 60.1512 25.1848 60.1176L39.3962 58.9422C39.8021 58.9087 39.9964 58.5637 39.83 58.1718C39.6637 57.7799 39.1997 57.4894 38.7937 57.523L24.5824 58.6984C24.1764 58.732 23.9822 59.0769 24.1485 59.4688Z" fill="#33628D"/>
<path d="M42.0723 58.0055C42.2377 58.3953 42.6992 58.6842 43.1029 58.6508L47.081 58.3218C47.4848 58.2884 47.6779 57.9453 47.5125 57.5555C47.347 57.1657 46.8856 56.8768 46.4818 56.9102L42.5038 57.2392C42.1 57.2726 41.9068 57.6157 42.0723 58.0055Z" fill="#33628D"/>
<path d="M55.9433 10.2029C53.6053 10.3664 51.8424 8.6036 52.0059 6.26555C52.1694 3.92749 54.1973 1.89959 56.5354 1.73609C58.8734 1.5726 60.6363 3.33543 60.4728 5.67349C60.3093 8.01154 58.2814 10.0394 55.9433 10.2029Z" fill="#EDAF64"/>
<path d="M52.6626 6.93843C52.8266 4.59242 54.8615 2.55758 57.2075 2.39354C58.2 2.32413 59.0868 2.60354 59.77 3.12335C59.0611 2.19155 57.9026 1.64042 56.549 1.73507C54.203 1.89911 52.1682 3.93395 52.0041 6.27996C51.9095 7.63352 52.4606 8.79204 53.3924 9.50097C52.8726 8.81773 52.5932 7.93091 52.6626 6.93843Z" fill="#E79633"/>
<path d="M56.5696 3.87148C56.2578 3.89329 55.9869 4.17017 55.9645 4.48992L55.8864 5.6073L54.8711 5.6783C54.5597 5.70007 54.2891 5.97665 54.2667 6.29602C54.2444 6.61541 54.4788 6.85676 54.7902 6.83498L55.8055 6.76398L55.7273 7.88137C55.705 8.20111 55.9397 8.44264 56.2515 8.42083C56.5633 8.39901 56.8342 8.12214 56.8566 7.80241L56.9347 6.68502L57.959 6.6134C58.2704 6.59161 58.541 6.31496 58.5634 5.99558C58.5857 5.67621 58.3513 5.43494 58.0399 5.45672L57.0156 5.52834L57.0937 4.41095C57.1161 4.09122 56.8814 3.8497 56.5696 3.87148Z" fill="#FCF0E3"/>
</svg>
