<svg width="73" height="74" viewBox="0 0 73 74" fill="none" xmlns="http://www.w3.org/2000/svg">
<path d="M7.68021 35.0008C8.4252 27.6487 8.7977 23.9727 10.0558 21.084C12.7227 14.9608 18.2585 10.5024 24.8871 9.13926C28.0141 8.49621 31.751 8.86264 39.2249 9.5955C46.6987 10.3284 50.4356 10.6948 53.3721 11.9324C59.5967 14.5559 64.1289 20.0015 65.5146 26.5221C66.1683 29.5982 65.7958 33.2743 65.0508 40.6264C64.3058 47.9785 63.9333 51.6545 62.6752 54.5432C60.0083 60.6664 54.4725 65.1248 47.8439 66.4879C44.7169 67.131 40.98 66.7646 33.5061 66.0317C26.0323 65.2988 22.2954 64.9324 19.3589 63.6948C13.1343 61.0713 8.60211 55.6257 7.21641 49.1051C6.56272 46.029 6.93521 42.3529 7.68021 35.0008Z" fill="#FCF0E3"/>
<path d="M14.0789 10.1061C14.0789 8.08741 15.7381 6.45093 17.7849 6.45093H54.2274C56.2742 6.45093 57.9334 8.08741 57.9334 10.1061V55.5521C57.9334 57.5708 56.2742 59.2073 54.2274 59.2073H17.7849C15.7381 59.2073 14.0789 57.5708 14.0789 55.5521V10.1061Z" fill="#547796"/>
<path d="M54.9879 6.45093C56.6147 6.45093 57.9334 8.08741 57.9334 10.1061V55.5521C57.9334 57.5708 56.6147 59.2073 54.9879 59.2073H50.0789V6.45093H54.9879Z" fill="#33628D"/>
<path d="M17.4827 12.4221C17.4827 11.0764 18.6226 9.98547 20.0289 9.98547H51.9837C53.39 9.98547 54.5299 11.0764 54.5299 12.4221V53.2361C54.5299 54.5818 53.39 55.6727 51.9837 55.6727H20.0289C18.6226 55.6727 17.4827 54.5818 17.4827 53.2361V12.4221Z" fill="#FEFAF6"/>
<path d="M54.5298 53.2361V12.4221C54.5298 11.6424 54.1125 11.082 53.9039 10.8992C53.3475 10.217 52.3739 10.0058 51.9566 9.98547H50.0789V55.6727H52.6752C53.6995 55.6727 54.5298 54.5818 54.5298 53.2361Z" fill="#D9E2EA"/>
<path d="M65.6033 54.5776C65.8866 59.9504 62.042 63.701 56.5842 63.4023C51.2078 63.1082 48.8587 60.4546 48.8587 60.4546C47.5985 58.82 46.8506 56.7817 46.8506 54.5714C46.8506 49.1915 51.2818 44.8301 56.748 44.8301C58.9937 44.8301 61.0646 45.5662 62.7254 46.8066C62.7254 46.8066 65.3026 48.8743 65.6033 54.5776Z" fill="#48D06A"/>
<path d="M62.7849 46.8519C64.073 48.4964 64.8391 50.5573 64.8391 52.7943C64.8391 58.1743 60.4078 62.5357 54.9417 62.5357C52.6688 62.5357 50.575 61.7816 48.9041 60.5139C50.7138 62.8243 53.5539 64.3128 56.7472 64.3128C62.2134 64.3128 66.6447 59.9514 66.6447 54.5714C66.6447 51.4284 65.1323 48.6332 62.7849 46.8519Z" fill="#2EB34F"/>
<path d="M53.9493 53.263C53.6388 52.9565 53.1344 52.956 52.8227 53.2617L52.8094 53.2748C53.3614 51.655 54.9181 50.4848 56.7474 50.4848C57.7823 50.4848 58.7737 50.8618 59.5388 51.5462C59.8642 51.8376 60.3681 51.8139 60.6639 51.4934C60.9598 51.173 60.9357 50.6772 60.6102 50.386C59.5511 49.4386 58.1794 48.9169 56.7473 48.9169C53.9616 48.9169 51.6326 50.8783 51.1111 53.4718L50.8959 53.2595C50.5853 52.9529 50.081 52.9522 49.7694 53.2582C49.4579 53.5639 49.4573 54.0603 49.7681 54.3669L51.2929 55.8715C51.4421 56.0187 51.6445 56.1016 51.8559 56.1018H51.8568C52.0677 56.1018 52.27 56.0194 52.4194 55.8728L53.948 54.3719C54.2594 54.0659 54.26 53.5696 53.9493 53.263Z" fill="#FAFAFA"/>
<path d="M63.7262 54.7761L62.2014 53.2716C61.8908 52.9651 61.3864 52.9646 61.0748 53.2703L59.5463 54.7711C59.2349 55.0768 59.2342 55.5732 59.545 55.8799C59.8556 56.1864 60.36 56.1869 60.6715 55.8812L60.6848 55.8681C60.1328 57.4879 58.5762 58.6581 56.7469 58.6581C55.712 58.6581 54.7206 58.2811 53.9555 57.5967C53.63 57.3055 53.1263 57.329 52.8304 57.6496C52.5345 57.9699 52.5585 58.4658 52.8841 58.7569C53.9431 59.7043 55.3149 60.2261 56.747 60.2261C59.5327 60.2261 61.8617 58.2646 62.3832 55.6712L62.5983 55.8834C62.7539 56.037 62.958 56.1138 63.1623 56.1138C63.3658 56.1138 63.5694 56.0374 63.7249 55.8848C64.0363 55.5791 64.037 55.0826 63.7262 54.7761Z" fill="#FAFAFA"/>
<path d="M36.2817 0.429077C39.3101 0.429077 41.7675 3.07028 41.7675 6.32838C41.7675 6.34611 41.7674 6.36383 41.7672 6.38152H46.8063V10.7396C46.8063 11.9137 45.9216 12.8654 44.8303 12.8654H27.8368C26.7455 12.8654 25.8608 11.9137 25.8608 10.7396V6.38152H30.8011C30.8009 6.36383 30.8008 6.34611 30.8008 6.32838C30.8008 3.07028 33.2533 0.429077 36.2817 0.429077Z" fill="#FFBE1D"/>
<rect x="34.3699" y="5.14185" width="3.92727" height="1.44" rx="0.72" fill="#FEFEFE"/>
<rect x="24.9443" y="40.88" width="22.1236" height="1.82503" rx="0.912513" fill="#D9E2EA"/>
<rect x="24.9443" y="44.5337" width="22.1236" height="1.82503" rx="0.912513" fill="#D9E2EA"/>
<rect x="24.9443" y="48.1874" width="14.0899" height="1.82503" rx="0.912513" fill="#D9E2EA"/>
<path d="M46.8063 10.8504C46.8063 12.0356 45.9216 12.9964 44.8303 12.9964H27.8368C26.7455 12.9964 25.8609 12.0356 25.8608 10.8504V10.0424H43.7079C44.0501 10.0424 44.3275 9.76689 44.3275 9.42701V6.45093H46.8063V10.8504Z" fill="#ED9D35"/>
<path d="M25.5989 37.7709C25.5989 33.704 28.8957 30.4072 32.9625 30.4072H39.1807C43.2475 30.4072 46.5443 33.704 46.5443 37.7709C46.5443 38.2589 46.1487 38.6545 45.6607 38.6545H26.4825C25.9945 38.6545 25.5989 38.2589 25.5989 37.7709Z" fill="#003B70"/>
<path d="M29.527 21.2859C30.3187 17.7575 38.784 16.0437 42.0269 20.2988C42.1999 20.5258 42.278 20.8086 42.2702 21.0926C42.2154 23.0957 41.9454 24.9276 42.2784 26.8257C42.6055 28.6896 42.0978 29.3838 40.3831 30.484C38.681 31.5764 39.0931 30.2132 36.6039 30.9861C34.1364 31.7524 30.5129 31.2577 29.7622 28.1411C29.2064 25.8336 29.0833 23.2631 29.5268 21.2859H29.527Z" fill="#1A1A1A"/>
<path d="M31.3719 30.8454C33.1548 30.8454 34.6001 29.0673 34.6001 26.8739C34.6001 24.6805 33.1548 22.9023 31.3719 22.9023C29.5891 22.9023 28.1438 24.6805 28.1438 26.8739C28.1438 29.0673 29.5891 30.8454 31.3719 30.8454Z" fill="#1A1A1A"/>
<path d="M40.63 30.8189C42.2643 30.8189 43.5892 29.183 43.5892 27.1651C43.5892 25.1471 42.2643 23.5112 40.63 23.5112C38.9957 23.5112 37.6709 25.1471 37.6709 27.1651C37.6709 29.183 38.9957 30.8189 40.63 30.8189Z" fill="black"/>
<rect x="30.6143" y="18.0901" width="11.6213" height="13.2385" rx="5.81067" fill="#FBBFA3"/>
<path d="M30.2708 25.0942C33.2011 24.3781 37.3148 22.7455 38.061 19.418C38.061 19.418 39.4998 23.1157 43.3622 24.8887C43.3622 24.8887 43.1172 17.1793 38.388 17.1793C33.6591 17.1793 31.0656 18.1248 30.2705 21.314C29.6635 23.7486 30.2705 25.0942 30.2705 25.0942H30.2708Z" fill="#1A1A1A"/>
<path d="M40.6367 19.8696C41.6273 20.8953 42.2354 22.2823 42.2354 23.8091V25.6096C42.2353 28.7681 39.6337 31.3285 36.4246 31.3285C35.7098 31.3285 35.0253 31.2012 34.3928 30.9688C38.9611 30.7563 40.64 26.6639 40.64 22.7806V20.1017C40.64 20.0241 40.6388 19.9468 40.6367 19.8696Z" fill="#F69C7C"/>
<path d="M40.6396 17.9187C43.2009 19.8481 43.3614 24.8876 43.3614 24.8887C42.2702 24.3877 41.3725 23.7332 40.6459 23.0518C40.6418 22.9633 40.6396 22.8742 40.6396 22.7846V17.9187Z" fill="black"/>
</svg>
