<svg width="96" height="96" viewBox="0 0 96 96" fill="none" xmlns="http://www.w3.org/2000/svg">
<path d="M87.8068 23.0103C98.5915 41.8262 100.03 60.1024 84.1944 74.949C67.884 90.2404 43.8193 95.5811 24.2386 84.7555C4.39996 73.7874 -4.42621 58.8313 2.15132 37.1888C7.54737 19.4338 29.1764 26.3876 47.6657 24.2708C65.8676 22.1869 78.3246 9.46224 87.8068 23.0103Z" fill="#FCF0E3"/>
<mask id="mask0_7700_85213" style="mask-type:alpha" maskUnits="userSpaceOnUse" x="0" y="3" width="96" height="88">
<path d="M87.1549 21.8466C97.7862 41.0174 99.2044 59.6383 83.5939 74.7649C67.5157 90.3448 43.7933 95.7862 24.4912 84.7565C4.93483 73.5814 -3.76576 58.3433 2.71818 36.2925C0.255827 12.4298 17.8913 5.99678 36.1175 3.84003C81.9939 3.84003 72.9175 10.2401 87.1549 21.8466Z" fill="#FCF0E3"/>
</mask>
<g mask="url(#mask0_7700_85213)">
<path d="M77.44 64.96L75.52 56.32H78.4L77.44 64.96Z" fill="#E79633"/>
<ellipse cx="76.48" cy="43.84" rx="13.12" ry="13.12" fill="#E17C00"/>
<circle cx="77.44" cy="44.16" r="12.16" fill="#E79633"/>
<rect x="83.2" y="41.6" width="1.28001" height="5.12" rx="0.640003" fill="white"/>
<rect x="81.28" y="44.8" width="1.28" height="5.12" rx="0.639999" transform="rotate(-90 81.28 44.8)" fill="white"/>
<path d="M73.6 45.44C71.8327 45.44 70.4 46.8727 70.4 48.64C70.4 49.7004 71.2596 50.56 72.32 50.56H78.72C79.7804 50.56 80.64 49.7004 80.64 48.64C80.64 46.8727 79.2073 45.44 77.44 45.44H73.6Z" fill="white"/>
<path d="M75.5199 37.76C73.7526 37.76 72.3199 39.1927 72.3199 40.96C72.3199 42.7273 73.7526 44.16 75.5199 44.16C77.2873 44.16 78.7199 42.7273 78.7199 40.96C78.7199 39.1927 77.2873 37.76 75.5199 37.76Z" fill="white"/>
<path d="M19.7074 57.3564C19.605 60.169 17.3085 62.3637 14.5781 62.2582C11.8477 62.1527 9.71722 59.787 9.81961 56.9744C9.922 54.1618 12.2185 51.9671 14.9489 52.0726C17.6793 52.178 19.8098 54.5437 19.7074 57.3564Z" fill="#FBBFA3"/>
<path d="M15.4019 81.5048C15.3151 83.8892 13.3686 85.7494 11.054 85.66C8.73936 85.5706 6.93354 83.5654 7.02034 81.181C7.10712 78.7972 9.05367 76.9365 11.3683 77.0259C13.6824 77.1153 15.4887 79.1205 15.4019 81.5048Z" fill="#FBBFA3"/>
<path d="M19.5055 58.6241C17.466 66.8318 15.5803 79.6539 15.4013 81.5043L7.02017 81.1805C7.02017 81.1805 7.73321 62.6411 10.066 55.5836L19.5055 58.6236L19.5055 58.6241Z" fill="#FBBFA3"/>
<path d="M41.6343 55.3936C41.9585 58.1884 44.4206 60.1834 47.1336 59.8495C49.8466 59.5156 51.7833 56.9793 51.4592 54.1845C51.1351 51.3898 48.6729 49.3948 45.9599 49.7287C43.2469 50.0626 41.3102 52.5989 41.6343 55.3936Z" fill="#FBBFA3"/>
<path d="M41.9404 56.6403C44.6212 64.6499 47.7592 76.2467 48.0838 78.0759L56.1653 78.0759C56.1653 78.0759 53.9909 59.6577 51.1087 52.819L41.9404 56.6403Z" fill="#FBBFA3"/>
<path d="M46.1027 73.8285C45.2925 69.6435 43.5979 60.7638 42.1569 55.3678L42.1587 55.3672C42.0349 54.9656 41.9523 54.5443 41.9286 54.1043C41.7776 51.294 43.8668 48.8896 46.5949 48.734C48.8524 48.6053 50.8358 50.0584 51.5401 52.1551L51.5424 52.1545C52.9988 56.3148 54.2304 62.7957 55.7096 70.399C53.1615 72.1709 46.9687 73.6401 46.1031 73.8285L46.1027 73.8285Z" fill="#00284D"/>
<path d="M31.4755 96.728C31.4755 100.835 28.2441 104.163 24.2577 104.163C20.2714 104.163 17.04 100.835 17.04 96.728C17.04 92.6216 20.2714 89.2928 24.2577 89.2928C28.2437 89.2928 31.4755 92.6216 31.4755 96.728Z" fill="#623A33"/>
<path d="M46.5429 95.8739C47.0011 99.9528 44.1627 103.642 40.2031 104.114C36.2435 104.586 32.6618 101.662 32.2036 97.5831C31.7453 93.5042 34.5838 89.8147 38.5434 89.3426C42.5034 88.8705 46.0846 91.7945 46.5429 95.8739Z" fill="#623A33"/>
<path d="M46.6147 89.295H39.372H39.3198C39.299 89.2954 39.2781 89.2945 39.2568 89.295H24.2922C24.2822 89.295 24.2727 89.2936 24.2627 89.2936C24.2528 89.2936 24.2432 89.295 24.2332 89.295H17.045V96.7792H17.0477C17.0745 100.862 20.2932 104.164 24.2627 104.164H39.372V104.161C39.6461 104.16 39.9228 104.148 40.2019 104.115C43.8657 103.678 46.5639 100.486 46.5848 96.7797H46.6152V89.2955L46.6147 89.295Z" fill="#1A1A1A"/>
<path d="M46.6147 89.295H39.372H39.3198C39.299 89.2954 39.2781 89.2945 39.2568 89.295H24.2922C24.2822 89.295 24.2727 89.2936 24.2627 89.2936C24.2528 89.2936 24.2432 89.295 24.2332 89.295H17.045V96.7792H17.0477C17.0745 100.862 20.2932 104.164 24.2627 104.164H39.372V104.161C39.6461 104.16 39.9228 104.148 40.2019 104.115C43.8657 103.678 46.5639 100.486 46.5848 96.7797H46.6152V89.2955L46.6147 89.295Z" fill="#1A1A1A"/>
<path d="M50.1218 50.6292C51.5355 53.0376 50.7864 56.171 48.448 57.6274C46.11 59.0837 43.0682 58.3121 41.6544 55.9032C40.2407 53.4947 40.9902 50.3614 43.3282 48.905C45.6667 47.4486 48.708 48.2207 50.1218 50.6292Z" fill="#00407A"/>
<path d="M15.0618 57.6311L18.3109 74.1738L15.8277 95.0992C15.8277 95.0992 31.5518 101.242 47.7091 96.0802C47.7091 96.0802 46.8616 71.9107 45.3534 52.9605L49.407 49.7332C45.8489 46.3325 33.348 41.8292 29.8458 42.3989C24.334 43.2959 10.6458 49.9561 10.2352 51.5494L15.0618 57.6316V57.6311Z" fill="#00284D"/>
<path fill-rule="evenodd" clip-rule="evenodd" d="M38.3095 60.3254L39.4084 60.2913L39.8418 60.0164C39.8849 59.9893 39.928 59.9762 39.9779 59.9748L40.849 59.9524C40.8935 59.9515 40.9329 59.9599 40.9738 59.98L41.472 60.2263L42.6593 60.1894C42.7592 60.1861 42.8435 60.2679 42.8467 60.3707L43.05 67.2614C43.0527 67.3647 42.9738 67.4516 42.8735 67.4544L38.5232 67.5909C38.4234 67.5942 38.339 67.5124 38.3359 67.4091L38.1326 60.5184C38.1294 60.4151 38.2088 60.3286 38.3091 60.3254H38.3095ZM40.7034 60.0879C40.7537 60.0861 40.7959 60.1263 40.7973 60.1782C40.7991 60.23 40.7592 60.2735 40.7093 60.2749H40.7065L40.1262 60.295H40.1235C40.0731 60.2969 40.031 60.2567 40.0296 60.2048C40.0278 60.1529 40.0673 60.1094 40.1176 60.108H40.1203L40.7006 60.0879H40.7034Z" fill="#B3B3B3"/>
<path fill-rule="evenodd" clip-rule="evenodd" d="M38.4154 60.4851L42.5711 60.3551C42.6663 60.3523 42.7466 60.4299 42.7498 60.5285L42.944 67.1103C42.9472 67.2089 42.8714 67.2916 42.7757 67.2944L38.6205 67.4243C38.5248 67.4276 38.4445 67.3496 38.4418 67.2509L38.2476 60.6697C38.2448 60.5715 38.3202 60.4888 38.4159 60.4855L38.4154 60.4851Z" fill="#E6E6E6"/>
<path fill-rule="evenodd" clip-rule="evenodd" d="M39.6742 61.4827L39.6734 61.4615C39.6734 61.4615 39.6664 61.4711 39.6521 61.4799C39.6439 61.4851 39.6342 61.4867 39.6234 61.4871C39.6048 61.4879 39.5904 61.4827 39.5811 61.4731C39.571 61.4635 39.5664 61.4487 39.5656 61.4296L39.5625 61.3237L39.6055 61.3221L39.6082 61.4172C39.6082 61.4292 39.6106 61.438 39.6148 61.4435C39.6191 61.4495 39.6257 61.4519 39.6346 61.4519C39.6462 61.4511 39.6552 61.4467 39.6606 61.4387C39.6656 61.43 39.668 61.4164 39.6672 61.3972L39.6649 61.3209L39.7083 61.3193L39.7125 61.4819L39.6738 61.4835L39.6742 61.4827Z" fill="#00407A"/>
<path fill-rule="evenodd" clip-rule="evenodd" d="M39.9329 61.4744L39.8899 61.476L39.8872 61.381C39.8868 61.369 39.8844 61.3606 39.8806 61.3546C39.8763 61.349 39.8697 61.3462 39.8608 61.3466C39.8488 61.347 39.8402 61.3518 39.8352 61.3602C39.8302 61.3686 39.8278 61.3826 39.8282 61.4017L39.8305 61.4784L39.7871 61.4796L39.7825 61.317L39.8154 61.3159L39.8162 61.3362C39.8162 61.3362 39.8278 61.3246 39.8437 61.3178C39.8523 61.3143 39.8612 61.3115 39.872 61.3111C39.8906 61.3107 39.9046 61.3151 39.9143 61.325C39.924 61.335 39.9294 61.3498 39.9302 61.369L39.9333 61.4748L39.9329 61.4744Z" fill="#00407A"/>
<path fill-rule="evenodd" clip-rule="evenodd" d="M40.0405 61.4716L39.9972 61.4728L39.9925 61.3102L40.0358 61.309L40.0405 61.4716Z" fill="#00407A"/>
<path fill-rule="evenodd" clip-rule="evenodd" d="M40.1448 61.4674L40.08 61.3068L40.125 61.3056L40.1583 61.3971C40.1618 61.407 40.1657 61.4158 40.1657 61.4158C40.1657 61.4158 40.1684 61.4078 40.1719 61.3967L40.1994 61.3032L40.2448 61.302L40.1894 61.4661L40.1452 61.4677L40.1448 61.4674Z" fill="#00407A"/>
<path fill-rule="evenodd" clip-rule="evenodd" d="M40.3739 61.4633C40.3483 61.4645 40.3281 61.4577 40.3134 61.4434C40.2983 61.4294 40.2909 61.4094 40.2901 61.3826C40.289 61.3555 40.2952 61.3339 40.3079 61.3191C40.3204 61.3036 40.3386 61.2956 40.3622 61.2952C40.3843 61.2944 40.4018 61.3004 40.4146 61.3131C40.4274 61.3255 40.434 61.3435 40.4347 61.3667L40.4355 61.3882L40.3335 61.3918C40.3343 61.4042 40.3386 61.4142 40.3452 61.4206C40.3525 61.4274 40.3618 61.4306 40.3739 61.4302C40.3832 61.4298 40.3925 61.4286 40.4006 61.4266C40.4091 61.4242 40.4177 61.4206 40.427 61.4158L40.4278 61.4501C40.4204 61.4545 40.4126 61.4573 40.4041 61.4597C40.3956 61.4613 40.3851 61.4625 40.3731 61.4633H40.3739ZM40.3634 61.3267C40.3545 61.3271 40.3475 61.3299 40.3425 61.3363C40.3374 61.3427 40.3347 61.3511 40.3343 61.3619L40.3948 61.3599C40.394 61.3491 40.3913 61.3407 40.3855 61.3347C40.3801 61.3287 40.3727 61.3259 40.3634 61.3263V61.3267Z" fill="#00407A"/>
<path fill-rule="evenodd" clip-rule="evenodd" d="M40.583 61.288C40.5888 61.288 40.5939 61.288 40.5974 61.2888L40.5954 61.3308C40.5919 61.3296 40.588 61.3292 40.583 61.3292C40.5691 61.33 40.5586 61.3339 40.5508 61.3411C40.5435 61.3487 40.54 61.3591 40.5404 61.3723L40.5427 61.455L40.4997 61.4562L40.495 61.2936L40.5276 61.2928L40.5283 61.322C40.5283 61.322 40.538 61.3068 40.5543 61.2968C40.5632 61.2916 40.5729 61.2884 40.583 61.288Z" fill="#00407A"/>
<path fill-rule="evenodd" clip-rule="evenodd" d="M40.7747 61.401C40.7751 61.4174 40.77 61.4301 40.7588 61.4393C40.7475 61.4485 40.7313 61.4533 40.7088 61.4541C40.6971 61.4545 40.6874 61.4537 40.6793 61.4525C40.6715 61.4513 40.6634 61.4489 40.6564 61.4461L40.6553 61.4094C40.6634 61.413 40.6723 61.4158 40.6824 61.4182C40.6925 61.4206 40.7014 61.4217 40.7092 61.4213C40.7247 61.4205 40.7324 61.4162 40.732 61.4066C40.732 61.4034 40.7305 61.4006 40.7285 61.3982C40.7262 61.3962 40.7227 61.3938 40.7173 61.3914C40.7123 61.3886 40.7053 61.3854 40.6967 61.3822C40.6847 61.3774 40.6758 61.3726 40.6696 61.3682C40.6642 61.3642 40.6599 61.3595 40.6568 61.3535C40.6541 61.3479 40.6525 61.3407 40.6525 61.3323C40.6522 61.3179 40.6572 61.3063 40.6677 61.2979C40.6785 61.29 40.6936 61.2856 40.7138 61.2848C40.7328 61.2844 40.7514 61.2884 40.77 61.296L40.7576 61.3279C40.7495 61.3247 40.7421 61.3219 40.7351 61.3199C40.7282 61.3179 40.7212 61.3171 40.7142 61.3171C40.7014 61.3175 40.6952 61.3215 40.6956 61.3287C40.6956 61.3327 40.6979 61.3359 40.7022 61.3387C40.7061 61.3415 40.7157 61.3455 40.7297 61.3507C40.7417 61.3558 40.751 61.3602 40.7572 61.3646C40.763 61.369 40.7673 61.3738 40.7704 61.3794C40.7731 61.385 40.7751 61.3918 40.7751 61.4002L40.7747 61.401Z" fill="#00407A"/>
<path fill-rule="evenodd" clip-rule="evenodd" d="M40.935 61.4428L40.9342 61.4197C40.9272 61.4289 40.9105 61.4377 40.9032 61.4412C40.8954 61.4452 40.8853 61.4472 40.8733 61.4476C40.8582 61.4484 40.8462 61.4441 40.8369 61.4357C40.8283 61.4269 40.8233 61.4145 40.8225 61.3981C40.8221 61.3805 40.8276 61.3678 40.8392 61.359C40.8508 61.3506 40.8683 61.3458 40.8915 61.3438L40.9187 61.3422V61.335C40.9179 61.3186 40.9098 61.3106 40.8935 61.311C40.8811 61.3118 40.8663 61.3158 40.8493 61.3242L40.8342 61.2947C40.852 61.2843 40.8722 61.2791 40.8943 61.2783C40.9152 61.2775 40.9319 61.2823 40.9435 61.2911C40.9547 61.3003 40.9609 61.3146 40.9613 61.3342L40.9644 61.442L40.9346 61.4428H40.935ZM40.9198 61.3682L40.9032 61.369C40.8908 61.3697 40.8811 61.3722 40.8756 61.3769C40.8694 61.3813 40.8667 61.3881 40.8671 61.3969C40.8671 61.4093 40.8745 61.4153 40.8884 61.4149C40.8985 61.4145 40.9063 61.4113 40.9121 61.4053C40.9179 61.3989 40.9206 61.3909 40.9202 61.3809L40.9198 61.3678V61.3682Z" fill="#00407A"/>
<path fill-rule="evenodd" clip-rule="evenodd" d="M41.086 61.4664L41.0353 61.4678L41.0275 61.2033L41.0782 61.2023L41.086 61.4664Z" fill="#00407A"/>
<path fill-rule="evenodd" clip-rule="evenodd" d="M41.2135 61.2727C41.2375 61.2717 41.2561 61.2802 41.2693 61.296C41.2829 61.3124 41.2902 61.3367 41.2906 61.3666C41.2915 61.3979 41.2856 61.4218 41.2729 61.4386C41.2602 61.4554 41.2416 61.4648 41.2185 61.4657C41.2067 61.4662 41.1958 61.4638 41.1858 61.4601C41.1767 61.4559 41.1681 61.4493 41.1618 61.4405L41.1622 61.4643L41.1332 61.4652L41.125 61.2002L41.1545 61.1993L41.1568 61.2638C41.1572 61.2769 41.1577 61.3021 41.1577 61.3021C41.1695 61.283 41.1876 61.2736 41.213 61.2727H41.2135ZM41.2089 61.2984C41.1908 61.2988 41.1776 61.3045 41.1704 61.3157C41.1631 61.326 41.1595 61.3446 41.1599 61.3704L41.1604 61.3717C41.1608 61.3974 41.1654 61.4152 41.174 61.426C41.1822 61.4372 41.1958 61.4419 41.2144 61.4414C41.2307 61.4409 41.2425 61.4344 41.2502 61.4218C41.2579 61.4091 41.2616 61.3914 41.2607 61.368C41.2598 61.3447 41.2557 61.3269 41.2471 61.3157C41.2393 61.3035 41.2262 61.2984 41.2098 61.2993L41.2089 61.2984Z" fill="#336695"/>
<path fill-rule="evenodd" clip-rule="evenodd" d="M41.419 61.4561C41.3945 61.457 41.3759 61.4486 41.3619 61.4308L41.365 61.5379L41.3356 61.5388L41.3274 61.2682L41.3564 61.2672L41.3569 61.293C41.3569 61.293 41.3691 61.2761 41.3818 61.27C41.3909 61.2654 41.4018 61.2621 41.4136 61.2621C41.4372 61.2612 41.4558 61.2691 41.4689 61.2859C41.4826 61.3023 41.4898 61.3257 41.4907 61.3565C41.4916 61.3869 41.4857 61.4112 41.4735 61.4285C41.4608 61.4458 41.4422 61.4551 41.419 61.4556V61.4561ZM41.4095 61.2883C41.3909 61.2887 41.3782 61.2943 41.3709 61.3051C41.3632 61.3158 41.3596 61.3327 41.3601 61.3546L41.3605 61.3607C41.3614 61.3859 41.3659 61.4042 41.3746 61.4154C41.3827 61.4266 41.3964 61.4318 41.415 61.4308C41.4299 61.4304 41.4417 61.4238 41.4494 61.4107C41.4581 61.3976 41.4612 61.3799 41.4608 61.3574C41.4603 61.3345 41.4558 61.3173 41.4467 61.3056C41.4376 61.2939 41.4258 61.2878 41.4104 61.2888L41.4095 61.2883Z" fill="#336695"/>
<path fill-rule="evenodd" clip-rule="evenodd" d="M41.5971 61.2559C41.6041 61.2559 41.6099 61.2563 41.6154 61.2575L41.613 61.2815C41.6072 61.2807 41.6014 61.2799 41.596 61.2799C41.5878 61.2803 41.5801 61.2827 41.5731 61.2875C41.5665 61.2927 41.5611 61.2987 41.5572 61.307C41.5537 61.3154 41.5522 61.3246 41.5526 61.335L41.5549 61.4229L41.5297 61.4237L41.525 61.2611L41.5487 61.2603L41.5498 61.2891C41.5498 61.2891 41.5634 61.2703 41.5712 61.2643C41.5793 61.2587 41.5878 61.2559 41.5971 61.2551V61.2559Z" fill="#336695"/>
<path fill-rule="evenodd" clip-rule="evenodd" d="M39.8325 61.097C39.8325 61.1018 39.8349 61.1062 39.8391 61.1094L39.9783 61.2016C39.9802 61.2032 39.9841 61.2052 39.9892 61.204L39.9733 61.0259L39.8325 61.097Z" fill="#D48500"/>
<path fill-rule="evenodd" clip-rule="evenodd" d="M39.9648 60.9135C39.9644 60.9083 39.9586 60.9063 39.9555 60.9107C39.9283 60.9463 39.8372 61.0681 39.8372 61.0681C39.8341 61.0721 39.8322 61.0761 39.8326 61.0801L39.9733 61.009L39.9648 60.9143V60.9135Z" fill="#DD9D33"/>
<path fill-rule="evenodd" clip-rule="evenodd" d="M39.9925 61.0257L40.0111 61.2341C40.0152 61.2332 40.0197 61.2309 40.0229 61.2253L40.2625 60.9028C40.267 60.8967 40.2611 60.8897 40.2552 60.8925L39.9925 61.0257Z" fill="#00407A"/>
<path d="M39.5687 66.9967C39.5621 66.9967 39.5555 66.9955 39.5492 66.9939C39.543 66.9915 39.5375 66.988 39.5328 66.9836C39.5285 66.9792 39.525 66.9732 39.5219 66.9664C39.5191 66.9596 39.5176 66.952 39.5176 66.9432C39.5172 66.9348 39.5184 66.9268 39.5211 66.9197C39.5238 66.9129 39.5273 66.9073 39.532 66.9021C39.5363 66.8973 39.5418 66.8933 39.548 66.8905C39.5539 66.8881 39.5605 66.8865 39.5676 66.8861C39.5742 66.8861 39.5797 66.8873 39.5848 66.8893C39.5898 66.8917 39.5941 66.8941 39.5976 66.8973L39.5867 66.9137C39.584 66.9109 39.5808 66.9093 39.5781 66.9081C39.5754 66.9065 39.5723 66.9065 39.5687 66.9065C39.5609 66.9065 39.5539 66.9101 39.5488 66.9165C39.5437 66.9232 39.5414 66.9316 39.5418 66.9424C39.5422 66.9528 39.5449 66.9608 39.5504 66.9676C39.5555 66.9736 39.5625 66.9768 39.5703 66.9764C39.5742 66.9768 39.5781 66.9756 39.5816 66.9736C39.5851 66.9716 39.5883 66.9696 39.5914 66.9668L39.6015 66.9828C39.5965 66.9872 39.5914 66.9904 39.5859 66.9927C39.5801 66.9951 39.5742 66.9967 39.5683 66.9967H39.5687Z" fill="#666A6C"/>
<path d="M39.6581 66.9288L39.7037 66.9276C39.7033 66.9196 39.7014 66.9132 39.6979 66.9084C39.694 66.904 39.6889 66.902 39.6819 66.902C39.6756 66.902 39.6705 66.9044 39.6663 66.9092C39.6616 66.914 39.6592 66.9204 39.6581 66.9288ZM39.6873 66.9931C39.6803 66.9931 39.6737 66.9923 39.6678 66.9899C39.6616 66.9875 39.6561 66.9839 39.651 66.9795C39.6467 66.9747 39.6424 66.9691 39.6401 66.9623C39.6374 66.9555 39.6358 66.9479 39.635 66.9395C39.635 66.9312 39.6366 66.9232 39.6385 66.9164C39.6409 66.9092 39.6444 66.9036 39.6487 66.8988C39.653 66.8936 39.6577 66.89 39.6635 66.8872C39.6694 66.8844 39.6748 66.8828 39.6807 66.8828C39.6877 66.8824 39.694 66.8836 39.6991 66.8856C39.7045 66.888 39.7088 66.8912 39.7127 66.8956C39.7162 66.9 39.7194 66.9052 39.7213 66.9112C39.7233 66.9176 39.724 66.9244 39.7244 66.9316C39.7244 66.934 39.7244 66.936 39.7244 66.9383C39.7244 66.9407 39.724 66.9419 39.7237 66.9435L39.6584 66.9451C39.6596 66.9547 39.6635 66.9615 39.6686 66.9667C39.6741 66.9719 39.6811 66.9739 39.6893 66.9735C39.694 66.9735 39.6983 66.9727 39.7018 66.9711C39.7057 66.9695 39.7092 66.9675 39.7131 66.9647L39.7217 66.9799C39.7166 66.9835 39.7116 66.9863 39.7057 66.9887C39.6998 66.9911 39.6936 66.9923 39.687 66.9923L39.6873 66.9931Z" fill="#666A6C"/>
<path d="M39.8215 66.9687C39.8285 66.9683 39.834 66.9651 39.8382 66.9591C39.8425 66.9531 39.8448 66.9439 39.8444 66.9319C39.8444 66.9215 39.8421 66.9131 39.8386 66.9071C39.8351 66.9016 39.8293 66.8988 39.8215 66.8992C39.8142 66.8996 39.8068 66.9036 39.7995 66.9116L39.801 66.9603C39.8049 66.9635 39.8084 66.9655 39.8119 66.9671C39.8153 66.9683 39.8188 66.9687 39.8215 66.9687ZM39.7793 67.029L39.775 66.8824L39.7948 66.8816L39.7967 66.8928H39.7975C39.8018 66.8888 39.806 66.8856 39.8119 66.8824C39.8169 66.8796 39.8223 66.878 39.8281 66.878C39.8344 66.878 39.8402 66.8792 39.8452 66.8812C39.8502 66.8836 39.8545 66.8872 39.858 66.8916C39.8615 66.8964 39.8646 66.902 39.8665 66.9084C39.8689 66.9151 39.8696 66.9223 39.87 66.9307C39.87 66.9395 39.8692 66.9475 39.8669 66.9547C39.8646 66.9619 39.8615 66.9679 39.858 66.9727C39.8541 66.9774 39.8495 66.9814 39.844 66.9842C39.839 66.987 39.8336 66.9886 39.8281 66.9886C39.8235 66.9886 39.8192 66.9878 39.8146 66.9858C39.8103 66.9842 39.806 66.9814 39.8014 66.9778L39.8026 66.9954L39.8033 67.0282L39.7797 67.029H39.7793Z" fill="#666A6C"/>
<path d="M39.9484 66.9654C39.9527 66.9654 39.9566 66.9642 39.9601 66.9622C39.9632 66.9598 39.9667 66.957 39.971 66.9534L39.9702 66.9294C39.9632 66.9306 39.9574 66.9322 39.9527 66.9338C39.948 66.9354 39.9445 66.937 39.9414 66.9386C39.9386 66.9406 39.9367 66.943 39.9355 66.945C39.9343 66.9474 39.9335 66.9498 39.9335 66.9526C39.9339 66.9574 39.9355 66.9606 39.9382 66.963C39.941 66.965 39.9441 66.9658 39.9488 66.9658L39.9484 66.9654ZM39.9414 66.9849C39.9324 66.9853 39.9246 66.9825 39.9191 66.9769C39.9132 66.9718 39.9105 66.9642 39.9101 66.955C39.9097 66.9494 39.9109 66.9442 39.9128 66.9398C39.9152 66.9354 39.9187 66.9318 39.9238 66.9278C39.9281 66.9246 39.9347 66.9218 39.9417 66.9198C39.9496 66.9174 39.9585 66.9154 39.9691 66.9143C39.9691 66.9115 39.9683 66.9091 39.9675 66.9063C39.9667 66.9039 39.9659 66.9019 39.964 66.8999C39.9624 66.8979 39.9605 66.8963 39.9581 66.8955C39.9558 66.8947 39.9531 66.8939 39.9495 66.8943C39.9445 66.8943 39.9394 66.8955 39.9351 66.8979C39.9304 66.8999 39.9257 66.9027 39.921 66.9055L39.9121 66.8891C39.9175 66.8851 39.9238 66.8819 39.9308 66.8787C39.9378 66.8759 39.9452 66.8743 39.9538 66.8739C39.9667 66.8739 39.9761 66.8771 39.9831 66.8847C39.9894 66.8923 39.9933 66.9039 39.9937 66.9182L39.9952 66.9805L39.9753 66.9809L39.973 66.9698H39.9722C39.9679 66.9737 39.9628 66.9774 39.9577 66.9801C39.9527 66.9833 39.9472 66.9845 39.941 66.9849H39.9414Z" fill="#666A6C"/>
<path d="M40.08 66.9762C40.0742 66.9762 40.0691 66.9754 40.0648 66.9738C40.0605 66.9718 40.0574 66.9694 40.0546 66.9662C40.0519 66.9631 40.0499 66.9591 40.0488 66.9543C40.0472 66.9499 40.0464 66.9447 40.0464 66.9391L40.0449 66.8892L40.0304 66.89L40.03 66.8716L40.0457 66.8696L40.048 66.8408L40.0683 66.84L40.0691 66.8688L40.0952 66.868L40.0956 66.8876L40.0695 66.8884L40.071 66.9383C40.0714 66.9507 40.0765 66.9567 40.0859 66.9559C40.0878 66.9559 40.0898 66.9555 40.0917 66.9551C40.0933 66.9547 40.0952 66.9539 40.0968 66.9535L40.1015 66.971C40.0988 66.9722 40.0956 66.9734 40.0921 66.9738C40.0886 66.9746 40.0847 66.9754 40.0804 66.9754L40.08 66.9762Z" fill="#666A6C"/>
<path d="M40.4434 66.9498C40.4473 66.9498 40.4512 66.9486 40.4543 66.9466C40.4578 66.9442 40.4614 66.9414 40.4653 66.9378L40.4649 66.9142C40.4575 66.915 40.4516 66.9166 40.4473 66.9182C40.4426 66.9194 40.4387 66.9214 40.436 66.923C40.4332 66.925 40.4309 66.9274 40.4297 66.9294C40.4286 66.9318 40.4282 66.9342 40.4282 66.937C40.4282 66.9418 40.4297 66.945 40.4325 66.9474C40.4356 66.9498 40.4391 66.9502 40.4434 66.9502V66.9498ZM40.436 66.9693C40.427 66.9697 40.4196 66.967 40.4137 66.9618C40.4079 66.9562 40.4051 66.949 40.4051 66.9398C40.4047 66.9342 40.4055 66.9294 40.4079 66.9246C40.4102 66.9202 40.4133 66.9166 40.4184 66.913C40.4235 66.9098 40.4293 66.907 40.4371 66.9046C40.4446 66.9022 40.4539 66.9003 40.4641 66.8987C40.4637 66.8959 40.4633 66.8935 40.4629 66.8911C40.4621 66.8883 40.4606 66.8867 40.4594 66.8843C40.4578 66.8823 40.4559 66.8811 40.4535 66.8799C40.4512 66.8791 40.4485 66.8783 40.445 66.8783C40.4399 66.8783 40.4348 66.8799 40.4305 66.8819C40.4258 66.8843 40.4211 66.8867 40.4165 66.8899L40.4071 66.8735C40.4129 66.8695 40.4192 66.8659 40.4262 66.8631C40.4329 66.8603 40.441 66.8587 40.4492 66.8583C40.4621 66.8579 40.4715 66.8615 40.4785 66.8687C40.4848 66.8763 40.4887 66.8879 40.4891 66.9022L40.491 66.9641L40.4711 66.9649L40.4692 66.9538H40.4684C40.4637 66.9578 40.459 66.9614 40.4539 66.9645C40.4489 66.9673 40.443 66.9689 40.4371 66.9689L40.436 66.9693Z" fill="#666A6C"/>
<path d="M40.5487 66.9626L40.5452 66.8576L40.5649 66.8568L40.5673 66.8711H40.568C40.5723 66.8663 40.5766 66.8619 40.5816 66.8588C40.5866 66.8552 40.5921 66.8536 40.5987 66.8532C40.606 66.8532 40.6122 66.8544 40.6165 66.858C40.6212 66.8608 40.6247 66.8655 40.6274 66.8711C40.6316 66.8655 40.6367 66.8608 40.6417 66.8572C40.6471 66.8536 40.6526 66.8512 40.6592 66.8512C40.67 66.8508 40.6782 66.854 40.6836 66.8615C40.6886 66.8683 40.6921 66.8787 40.6921 66.8919L40.6944 66.9578L40.67 66.9586L40.6685 66.8963C40.6681 66.8875 40.6665 66.8815 40.6638 66.8779C40.6611 66.8743 40.6572 66.8727 40.6518 66.8727C40.6456 66.8727 40.6382 66.8775 40.6309 66.8863L40.6332 66.9594L40.6091 66.9602L40.6072 66.8975C40.6072 66.8887 40.6053 66.8827 40.6029 66.8795C40.6002 66.8759 40.596 66.8743 40.5909 66.8743C40.5843 66.8743 40.5774 66.8787 40.5696 66.8879L40.5719 66.961L40.5483 66.9618L40.5487 66.9626Z" fill="#666A6C"/>
<path d="M40.7812 66.939C40.7854 66.939 40.789 66.9378 40.7925 66.9358C40.7956 66.9338 40.7991 66.9306 40.803 66.927L40.8022 66.9034C40.7956 66.9042 40.7894 66.9058 40.7851 66.9074C40.7804 66.9086 40.7765 66.9106 40.7733 66.9122C40.7706 66.9142 40.7683 66.9162 40.7675 66.919C40.7663 66.921 40.7655 66.9234 40.7659 66.9262C40.7659 66.9306 40.7675 66.9342 40.7702 66.9362C40.773 66.9386 40.7769 66.9394 40.7812 66.939ZM40.7737 66.9586C40.7648 66.959 40.7573 66.9562 40.7519 66.951C40.746 66.9454 40.7429 66.9382 40.7425 66.9286C40.7425 66.9234 40.7433 66.9182 40.7456 66.9134C40.7476 66.909 40.7511 66.9054 40.7558 66.9018C40.7608 66.8986 40.7675 66.8959 40.7745 66.8935C40.7819 66.8911 40.7909 66.8895 40.8018 66.8879C40.8015 66.8851 40.8011 66.8827 40.8007 66.8799C40.7999 66.8775 40.7987 66.8755 40.7972 66.8731C40.7956 66.8715 40.7936 66.8703 40.7913 66.8687C40.789 66.8679 40.7858 66.8671 40.7827 66.8671C40.7776 66.8675 40.7726 66.8687 40.7679 66.8707C40.7632 66.8727 40.7585 66.8755 40.7542 66.8783L40.7448 66.8623C40.7503 66.8583 40.7566 66.8551 40.764 66.8519C40.771 66.8491 40.7784 66.8475 40.7866 66.8471C40.7995 66.8467 40.8089 66.8503 40.8155 66.8579C40.8222 66.8655 40.8257 66.8767 40.8261 66.8915L40.828 66.9538L40.8077 66.9546L40.8061 66.9434H40.8054C40.8007 66.9474 40.796 66.951 40.7909 66.9538C40.7858 66.9566 40.78 66.9582 40.7741 66.9582L40.7737 66.9586Z" fill="#666A6C"/>
<path d="M40.8902 66.9527L40.8875 66.848L40.9073 66.8472L40.9092 66.8612H40.91C40.9143 66.8564 40.9193 66.8525 40.9247 66.8493C40.9298 66.8457 40.936 66.8437 40.943 66.8437C40.9538 66.8433 40.962 66.8465 40.9674 66.8536C40.9724 66.8604 40.9751 66.8708 40.9755 66.8844L40.9775 66.9499L40.9538 66.9507L40.9519 66.8884C40.9515 66.8796 40.9503 66.8732 40.9476 66.87C40.9453 66.8664 40.941 66.8648 40.9356 66.8652C40.9313 66.8652 40.9271 66.8668 40.924 66.8688C40.9205 66.8712 40.9166 66.8748 40.9127 66.8792L40.915 66.9523L40.891 66.9531L40.8902 66.9527Z" fill="#666A6C"/>
<path d="M41.3465 66.9208C41.3535 66.9208 41.3589 66.9172 41.3636 66.9112C41.3678 66.9049 41.3698 66.8957 41.3698 66.8837C41.369 66.8733 41.3675 66.8649 41.3636 66.8593C41.3601 66.8533 41.3543 66.8509 41.3465 66.8513C41.3392 66.8513 41.3318 66.8557 41.3244 66.8637L41.3256 66.9125C41.3298 66.9157 41.3333 66.9176 41.3372 66.9188C41.3403 66.92 41.3438 66.9208 41.3465 66.9204V66.9208ZM41.3043 66.9816L41.3 66.835L41.3198 66.8342L41.3217 66.8453H41.3225C41.3267 66.841 41.3314 66.8382 41.3368 66.835C41.3419 66.8322 41.3477 66.831 41.3531 66.8306C41.3593 66.8306 41.3651 66.8318 41.3702 66.8342C41.3752 66.8366 41.3795 66.8402 41.383 66.8445C41.3865 66.8493 41.3896 66.8549 41.3915 66.8613C41.3938 66.8677 41.3946 66.8753 41.395 66.8833C41.3954 66.8921 41.3942 66.9001 41.3923 66.9073C41.3899 66.9149 41.3872 66.9204 41.383 66.9256C41.3787 66.9304 41.3744 66.9344 41.3694 66.9368C41.364 66.9396 41.3585 66.9412 41.3527 66.9412C41.3485 66.9416 41.3438 66.9404 41.3391 66.9388C41.3349 66.9368 41.3306 66.9344 41.3264 66.9308L41.3271 66.9484L41.3283 66.9816L41.3043 66.9824V66.9816Z" fill="#666A6C"/>
<path d="M41.4598 66.8719L41.5055 66.8703C41.5055 66.8623 41.5036 66.8559 41.5001 66.8515C41.4962 66.8471 41.4911 66.8447 41.484 66.8451C41.4778 66.8451 41.4727 66.8479 41.468 66.8523C41.4637 66.8567 41.4606 66.8635 41.4598 66.8719ZM41.4895 66.9362C41.4825 66.9366 41.4758 66.9354 41.4692 66.9334C41.4633 66.931 41.4575 66.9274 41.4528 66.923C41.4481 66.9178 41.4446 66.9126 41.4419 66.9058C41.4391 66.899 41.4376 66.8914 41.4376 66.8826C41.4372 66.8743 41.4384 66.8663 41.4407 66.8599C41.4434 66.8527 41.4466 66.8471 41.4509 66.8423C41.4548 66.8375 41.4602 66.8335 41.4657 66.8303C41.4712 66.8279 41.477 66.8263 41.4829 66.8259C41.4899 66.8259 41.4958 66.8267 41.5012 66.8291C41.5067 66.8315 41.5114 66.8351 41.5149 66.8391C41.5184 66.8431 41.5215 66.8483 41.5235 66.8547C41.5258 66.8607 41.5266 66.8671 41.5266 66.8747C41.5266 66.8771 41.5266 66.8791 41.5266 66.8815C41.5266 66.8838 41.5258 66.8854 41.5258 66.8866L41.4606 66.889C41.4618 66.8982 41.4653 66.9054 41.4708 66.9102C41.4766 66.9154 41.4833 66.9174 41.4919 66.9174C41.4962 66.917 41.5001 66.9162 41.5036 66.915C41.5079 66.9134 41.5114 66.9118 41.5153 66.909L41.5235 66.9238C41.5188 66.927 41.5137 66.9298 41.5075 66.9322C41.5016 66.9346 41.4954 66.9358 41.4887 66.9358L41.4895 66.9362Z" fill="#666A6C"/>
<path d="M41.6117 66.9046C41.6191 66.9042 41.6261 66.9002 41.6323 66.8918L41.6311 66.8427C41.6272 66.8399 41.6238 66.8375 41.6203 66.8367C41.6168 66.8355 41.6133 66.8347 41.6098 66.8347C41.6032 66.8351 41.5974 66.8383 41.5935 66.8443C41.5889 66.8503 41.5869 66.859 41.5869 66.8702C41.5873 66.8814 41.5896 66.8902 41.5939 66.8958C41.5982 66.9018 41.6036 66.9046 41.6114 66.9046H41.6117ZM41.6063 66.9245C41.5935 66.9253 41.5831 66.9205 41.5753 66.9114C41.5675 66.9022 41.5633 66.8886 41.5625 66.871C41.5625 66.8626 41.5633 66.8547 41.5656 66.8483C41.5679 66.8411 41.571 66.8355 41.5749 66.8307C41.5784 66.8259 41.583 66.8219 41.5881 66.8191C41.5931 66.8167 41.5986 66.8151 41.604 66.8151C41.6098 66.8147 41.6148 66.8159 41.6191 66.8175C41.623 66.8195 41.6272 66.8219 41.6311 66.8255L41.6296 66.8083L41.6284 66.7708L41.6528 66.77L41.6571 66.9209L41.6369 66.9213L41.635 66.9102H41.6342C41.6307 66.9138 41.6265 66.9173 41.6214 66.9205C41.6168 66.9233 41.6113 66.9245 41.6059 66.9245H41.6063Z" fill="#666A6C"/>
<path d="M41.747 66.9286C41.7362 66.9286 41.728 66.9254 41.723 66.9182C41.7176 66.9114 41.7149 66.901 41.7145 66.8875L41.7125 66.8216L41.7366 66.8208L41.7385 66.8835C41.7389 66.8922 41.7404 66.8986 41.7428 66.9018C41.7455 66.9054 41.7497 66.9074 41.7552 66.907C41.7594 66.9066 41.7633 66.9054 41.7668 66.9034C41.7703 66.901 41.7738 66.897 41.7777 66.8918L41.7753 66.82L41.799 66.8192L41.8021 66.9238L41.7827 66.9246L41.7804 66.9094H41.7796C41.7753 66.915 41.7703 66.9194 41.7656 66.9226C41.7606 66.9262 41.7544 66.9278 41.7474 66.9282L41.747 66.9286Z" fill="#666A6C"/>
<path d="M41.8756 66.917C41.8669 66.917 41.861 66.9146 41.857 66.9098C41.8535 66.9046 41.8515 66.8975 41.8511 66.8883L41.8475 66.7645L41.8721 66.7632L41.8756 66.8887C41.8756 66.8919 41.876 66.8938 41.8776 66.8946C41.8788 66.8962 41.88 66.8967 41.8812 66.8967H41.8828C41.8828 66.8963 41.8839 66.8963 41.8851 66.8959L41.8887 66.9142C41.8859 66.9158 41.8812 66.9166 41.8756 66.917Z" fill="#666A6C"/>
<path d="M41.9261 66.8079L41.9506 66.8071L41.9538 66.9117L41.9293 66.9125L41.9261 66.8079ZM41.938 66.7891C41.9336 66.7891 41.9301 66.7879 41.9269 66.7855C41.9241 66.7828 41.9225 66.7796 41.9225 66.7756C41.9222 66.7712 41.9237 66.768 41.9261 66.7656C41.9289 66.7628 41.9324 66.7612 41.9372 66.7612C41.9411 66.7608 41.9451 66.7624 41.9479 66.7648C41.9506 66.7676 41.9526 66.7708 41.9526 66.7748C41.9526 66.7788 41.9514 66.7823 41.9483 66.7851C41.9459 66.7875 41.9419 66.7891 41.938 66.7895V66.7891Z" fill="#666A6C"/>
<path d="M40.2862 66.9235C40.287 66.9393 40.2745 66.9528 40.2589 66.9536C40.2436 66.954 40.2303 66.9413 40.23 66.9251C40.2292 66.9097 40.2417 66.8962 40.2573 66.8958C40.2729 66.8954 40.2862 66.9077 40.2862 66.9235Z" fill="#DD9D33"/>
<path d="M41.167 66.8961C41.1674 66.9119 41.1553 66.9258 41.1393 66.9261C41.1237 66.9265 41.1104 66.9139 41.11 66.8981C41.1096 66.8822 41.1217 66.8688 41.1373 66.8688C41.1529 66.8684 41.1662 66.8806 41.1666 66.8965L41.167 66.8961Z" fill="#DD9D33"/>
<path fill-rule="evenodd" clip-rule="evenodd" d="M40.1892 65.4319L40.1025 65.1669L40.1647 65.165L40.1996 65.2889C40.2042 65.3034 40.2083 65.3179 40.2119 65.3314C40.2151 65.345 40.2191 65.3595 40.2237 65.3739H40.2255C40.2287 65.359 40.2318 65.3445 40.2346 65.3305C40.2373 65.3165 40.2405 65.302 40.2436 65.2875L40.2704 65.1617L40.3299 65.1599L40.26 65.43L40.1892 65.4324V65.4319ZM40.4419 65.4291C40.4279 65.4296 40.4147 65.4277 40.4024 65.423C40.3902 65.4188 40.3793 65.4118 40.3698 65.4029C40.3607 65.394 40.3534 65.3833 40.348 65.3702C40.3426 65.3576 40.3394 65.3426 40.3389 65.3253C40.3385 65.309 40.3407 65.294 40.3457 65.2805C40.3507 65.2674 40.3575 65.2557 40.3652 65.2464C40.3739 65.237 40.3834 65.2295 40.3943 65.2239C40.4052 65.2188 40.417 65.216 40.4288 65.2155C40.4428 65.215 40.4555 65.2169 40.466 65.2216C40.4764 65.2262 40.4855 65.2328 40.4927 65.2407C40.5 65.2496 40.5054 65.2599 40.5095 65.2716C40.5132 65.2833 40.5154 65.2963 40.5159 65.3104C40.5159 65.3155 40.5159 65.3211 40.5154 65.3258C40.515 65.3305 40.5145 65.3342 40.5141 65.337L40.3956 65.3403C40.3988 65.3548 40.4047 65.3655 40.4142 65.3725C40.4238 65.3791 40.4351 65.3824 40.4487 65.3819C40.4628 65.3814 40.4769 65.3763 40.4909 65.3669L40.5113 65.4029C40.5014 65.4104 40.4905 65.4165 40.4782 65.4207C40.466 65.4254 40.4537 65.4277 40.4419 65.4282V65.4291ZM40.3943 65.3015L40.4655 65.2996C40.4651 65.2884 40.4623 65.2791 40.4569 65.272C40.4519 65.265 40.4433 65.2618 40.431 65.2622C40.422 65.2622 40.4138 65.266 40.407 65.2725C40.4002 65.2791 40.3961 65.2889 40.3943 65.302V65.3015ZM40.5599 65.4207L40.554 65.2169L40.6021 65.2155L40.6071 65.2515H40.6089C40.6157 65.2375 40.6239 65.2267 40.6338 65.2197C40.6438 65.2132 40.6538 65.2094 40.6638 65.2089C40.6692 65.2089 40.6738 65.209 40.6774 65.2094C40.681 65.2099 40.6842 65.2108 40.6874 65.2122L40.6797 65.2646C40.676 65.2636 40.672 65.2627 40.6692 65.2622C40.6661 65.2618 40.6624 65.2613 40.6579 65.2618C40.6506 65.2618 40.6429 65.265 40.6347 65.2707C40.627 65.2763 40.6207 65.2865 40.6152 65.3006L40.6189 65.4188L40.5603 65.4207H40.5599ZM40.7736 65.4188C40.7604 65.4193 40.7473 65.417 40.7332 65.4118C40.7191 65.4071 40.7073 65.4006 40.6969 65.3926L40.7223 65.3538C40.7314 65.3609 40.74 65.3655 40.7486 65.3688C40.7573 65.3721 40.7654 65.3739 40.774 65.3735C40.7831 65.373 40.789 65.3711 40.7931 65.3683C40.7967 65.3651 40.799 65.3609 40.7985 65.3557C40.7985 65.3524 40.7972 65.3492 40.7949 65.3468C40.7926 65.3445 40.7895 65.3422 40.7858 65.3398C40.7818 65.338 40.7777 65.3356 40.7727 65.3342C40.7681 65.3323 40.7632 65.3305 40.7577 65.3286C40.7518 65.3267 40.7455 65.3235 40.7391 65.3207C40.7328 65.3179 40.7273 65.3141 40.7223 65.3094C40.7169 65.3048 40.7128 65.2992 40.7092 65.2931C40.706 65.287 40.7042 65.2795 40.7042 65.2711C40.7037 65.2618 40.7051 65.2529 40.7087 65.2449C40.7119 65.237 40.7169 65.23 40.7237 65.2244C40.73 65.2188 40.7377 65.2141 40.7473 65.2108C40.7563 65.2075 40.7668 65.2057 40.7786 65.2052C40.7935 65.2047 40.8072 65.2071 40.8185 65.2118C40.8303 65.2164 40.8403 65.2225 40.8489 65.2286L40.8239 65.2655C40.8167 65.2604 40.8094 65.2562 40.8022 65.2534C40.7954 65.2506 40.7881 65.2496 40.7813 65.2496C40.7668 65.2501 40.7595 65.2557 40.7595 65.2664C40.7595 65.2697 40.7604 65.2725 40.7627 65.2749C40.765 65.2772 40.7677 65.2791 40.7713 65.2809C40.7749 65.2828 40.779 65.2847 40.784 65.2861C40.789 65.2875 40.794 65.2893 40.799 65.2912C40.8058 65.2936 40.8117 65.2964 40.8181 65.2992C40.8244 65.302 40.8303 65.3057 40.8357 65.3104C40.8412 65.3146 40.8453 65.3202 40.8489 65.3267C40.8521 65.3333 40.8539 65.3412 40.8544 65.3506C40.8548 65.3599 40.853 65.3683 40.8503 65.3763C40.8471 65.3842 40.8421 65.3917 40.8353 65.3978C40.8285 65.4039 40.8203 65.409 40.8099 65.4127C40.7999 65.416 40.7886 65.4188 40.775 65.4188H40.7736ZM40.9415 65.4137C40.9324 65.4137 40.9242 65.4127 40.917 65.4099C40.9097 65.4067 40.9034 65.4025 40.8979 65.3973C40.8929 65.3917 40.8888 65.3852 40.8857 65.3781C40.8825 65.3711 40.8811 65.3627 40.8807 65.3543C40.8802 65.3328 40.8884 65.3155 40.9056 65.3034C40.9229 65.2907 40.951 65.2819 40.9896 65.2762C40.9887 65.2674 40.9864 65.2604 40.9814 65.2552C40.9764 65.2501 40.9687 65.2478 40.9578 65.2482C40.9496 65.2487 40.941 65.2505 40.9324 65.2538C40.9242 65.2571 40.9156 65.2622 40.9061 65.2683L40.8838 65.2295C40.8965 65.2211 40.9092 65.2141 40.9233 65.2089C40.9369 65.2038 40.9519 65.201 40.9678 65.2005C40.9932 65.1996 41.0127 65.2066 41.0268 65.2206C41.0408 65.2351 41.0481 65.258 41.049 65.2893L41.0526 65.4062L41.0045 65.4076L41.0004 65.387H40.9986C40.99 65.395 40.9818 65.4015 40.9728 65.4067C40.9637 65.4118 40.9533 65.4146 40.9424 65.4146L40.9415 65.4137ZM40.9601 65.366C40.9669 65.366 40.9723 65.3641 40.9769 65.3608C40.9814 65.3576 40.9864 65.3534 40.9918 65.3478L40.9909 65.3122C40.97 65.316 40.9564 65.3207 40.9483 65.3267C40.9406 65.3328 40.9365 65.3398 40.9369 65.3478C40.9369 65.3543 40.9397 65.359 40.9437 65.3623C40.9478 65.3651 40.9537 65.3665 40.9605 65.3665L40.9601 65.366ZM41.1556 65.4067C41.1456 65.4071 41.137 65.4057 41.1298 65.4025C41.1229 65.3992 41.1171 65.395 41.113 65.3894C41.1089 65.3833 41.1053 65.3767 41.1034 65.3683C41.1012 65.3604 41.1003 65.351 41.0998 65.3403L41.093 65.1159L41.1515 65.1141L41.1583 65.3408C41.1583 65.3468 41.1597 65.3515 41.1624 65.3538C41.1647 65.3562 41.167 65.3571 41.1692 65.3571C41.1706 65.3571 41.1719 65.3571 41.1724 65.3571C41.1733 65.3571 41.1742 65.3566 41.176 65.3562L41.1847 65.4011C41.1815 65.4025 41.1778 65.4038 41.1729 65.4048C41.1679 65.4057 41.162 65.4067 41.1556 65.4067Z" fill="#00407A"/>
<path fill-rule="evenodd" clip-rule="evenodd" d="M40.0679 63.2982C39.9771 63.3838 40.0202 63.3697 40.0465 63.4955C40.0815 63.6633 40.0479 63.6394 40.1536 63.6843C40.2652 64.1222 40.3052 63.8666 40.2943 64.1377C40.2884 64.3031 40.2212 64.3363 39.9885 64.4209C39.6046 64.5606 39.4222 64.5363 39.385 65.0112L41.9417 64.936C41.8954 64.6658 41.8759 64.5176 41.6377 64.4494C41.4458 64.3942 41.2185 64.3699 41.0656 64.2741C40.9758 64.2171 40.9975 63.9797 41.0111 63.9502C41.0307 63.9077 41.0606 63.8969 41.081 63.8273C41.135 63.6474 41.0502 63.7184 41.1541 63.6221C41.1963 63.5824 41.1849 63.4964 41.2081 63.3842C41.238 63.2393 41.1291 63.3197 41.1944 63.0687C41.2135 62.9954 41.209 62.8257 41.1799 62.7467C41.1477 62.6574 41.1277 62.6827 41.0992 62.6046C41.0933 62.5878 41.1019 62.599 41.0905 62.5803C41.0769 62.5579 41.0606 62.5467 41.0307 62.5383C40.8832 62.4976 41.0093 62.563 40.9199 62.4602C40.8964 62.4336 40.861 62.435 40.8337 62.435C40.8337 62.435 40.811 62.4551 40.7326 62.4205C40.6695 62.3929 40.645 62.385 40.5688 62.4032C40.2158 62.4878 40.2335 62.4784 40.0883 62.692C39.9599 62.8804 40.0107 63.1005 40.0674 63.2992L40.0679 63.2982Z" fill="#B3B3B3"/>
<path fill-rule="evenodd" clip-rule="evenodd" d="M40.1104 58.9625L40.6417 58.9396C40.6907 58.9373 40.7329 58.977 40.7347 59.0275L40.7801 60.1403C40.7824 60.1908 40.7438 60.2338 40.6948 60.2362L40.1635 60.259C40.1145 60.2614 40.0723 60.2217 40.0705 60.1712L40.0251 59.0583C40.0229 59.0079 40.0614 58.9649 40.1104 58.9625Z" fill="white" fill-opacity="0.74902"/>
<path d="M40.3202 59.3112C40.9692 59.3112 41.4953 58.7692 41.4953 58.1007C41.4953 57.4321 40.9692 56.8901 40.3202 56.8901C39.6711 56.8901 39.145 57.4321 39.145 58.1007C39.145 58.7692 39.6711 59.3112 40.3202 59.3112Z" fill="#D48500"/>
<path d="M40.3172 59.0273C40.8141 59.0273 41.2169 58.6124 41.2169 58.1005C41.2169 57.5886 40.8141 57.1736 40.3172 57.1736C39.8203 57.1736 39.4175 57.5886 39.4175 58.1005C39.4175 58.6124 39.8203 59.0273 40.3172 59.0273Z" fill="#DD9D33"/>
<path d="M26.3461 43.6819L25.1025 31.2531L34.3003 36.0775L34.2122 36.5308L33.9559 42.7836C33.8824 44.5718 33.9536 46.3778 32.1292 46.6792C29.9459 47.0401 26.5516 45.7417 26.3461 43.6823V43.6819Z" fill="#FBBFA3"/>
<path d="M34.053 40.4105L34.2122 36.5302L34.3003 36.0769L25.1025 31.2525L25.6891 37.1168C27.3325 39.6584 30.578 40.4212 34.0534 40.41L34.053 40.4105Z" fill="#F69C7C"/>
<path d="M40.4355 26.1102C40.3942 23.1483 40.5684 18.8895 39.4187 15.7907C39.4178 15.7884 39.4173 15.7861 39.4164 15.7837C39.4155 15.7814 39.4142 15.7791 39.4133 15.7767C38.906 14.4152 38.1383 13.2827 36.9868 12.5812C35.725 11.6455 33.9691 11.0412 31.3339 10.8248C25.7967 10.37 22.1969 12.5078 19.7886 16.2207C17.9932 18.9886 18.7586 22.6197 19.1248 23.9294C18.1012 24.0247 16.677 24.6613 17.0023 27.5497C17.4996 31.9633 20.6012 32.0511 21.5163 32.2418C21.5163 32.2418 23.2237 40.101 32.6356 39.3485C42.0475 38.596 40.5044 31.0888 40.4355 26.1102Z" fill="#FBBFA3"/>
<path d="M40.7447 16.3851C43.2642 14.1575 44.7569 11.0415 43.8531 7.43699C42.4865 8.07264 41.1948 8.59144 39.8286 9.22709C41.261 7.8955 41.5723 6.68589 41.4684 4.79999C41.4684 4.79999 24.5093 8.54797 20.9077 11.3822C19.8455 12.2179 19.2434 13.0012 18.9217 13.843L16.3442 10.5792C16.3442 10.5792 14.8042 14.5226 17.8119 15.8775C17.1718 16.3351 16.5656 17.089 16.2575 18.3341C15.4267 21.6914 17.8523 24.3994 17.8523 24.3994C17.8523 24.3994 18.7566 23.7301 20.0025 24.1825C21.0946 24.5793 22.3178 26.584 22.2552 28.568L23.2579 28.432L23.1282 24.2573C23.1282 24.2573 24.4567 23.2464 25.6018 19.7648C27.3958 20.6846 29.5483 21.1174 31.2357 20.8501L28.1018 17.7158C30.938 19.826 33.178 20.6355 36.673 20.8085C40.1676 20.9814 43.8804 19.4236 45.6594 16.3197C44.1544 16.4066 42.2506 16.2982 40.7456 16.3846L40.7447 16.3851Z" fill="#1A1A1A"/>
<path d="M33.9566 29.5025C34.0609 29.5646 34.114 29.7114 34.06 29.9035C34.0087 30.0928 33.8395 30.3124 33.585 30.4372C33.3304 30.563 33.0582 30.5601 32.8831 30.4821C32.7043 30.405 32.6263 30.2699 32.6453 30.147C32.7038 29.8969 32.9584 29.7375 33.2002 29.6076C33.4502 29.4954 33.7306 29.3922 33.9561 29.5025H33.9566Z" fill="#F69C7C"/>
<path d="M31.321 21.543L31.311 21.5252C30.488 21.0966 27.9236 21.4121 26.194 22.3735C26.1636 22.8582 26.5987 23.2728 27.0533 23.4013C27.508 23.5298 27.9903 23.4396 28.4535 23.349C29.2689 23.1891 30.012 22.9363 30.7915 22.7297C31.2943 22.5965 31.5778 22.0076 31.3206 21.543H31.321Z" fill="#1A1A1A"/>
<path d="M34.3877 21.5048L34.3927 21.4955C35.7924 20.9383 37.5038 21.1678 39.0896 22.0059C39.1154 22.4821 38.7148 22.9191 38.2969 23.0748C37.8791 23.2304 37.4362 23.172 37.0111 23.1122C36.2978 23.0112 35.6449 22.8228 34.9657 22.6723C34.4557 22.5592 34.1472 21.9816 34.3886 21.5048H34.3877Z" fill="#1A1A1A"/>
<path d="M27.7013 25.847C27.6705 26.5448 28.1945 27.1365 28.8724 27.1683C29.5498 27.2001 30.1242 26.6602 30.155 25.9624C30.1859 25.2646 29.6618 24.6729 28.984 24.6411C28.3066 24.6093 27.7322 25.1492 27.7013 25.8474V25.847Z" fill="#1A1A1A"/>
<path d="M34.2363 25.847C34.2054 26.5448 34.7299 27.1365 35.4073 27.1683C36.0847 27.2001 36.6591 26.6602 36.69 25.9624C36.7208 25.2646 36.1968 24.6729 35.5189 24.6411C34.8415 24.6093 34.2671 25.1492 34.2363 25.8474V25.847Z" fill="#1A1A1A"/>
<path d="M18.2327 25.949C17.9051 27.1165 18.3697 28.3481 18.8266 29.4689C18.9627 29.8021 19.1125 30.1536 19.4024 30.3574C19.6919 30.5612 20.1646 30.5303 20.3166 30.2046C20.4636 29.8895 20.2463 29.5353 20.0766 29.2324C19.9069 28.9295 19.8107 28.4757 20.0961 28.2869C20.2291 28.1985 20.4028 28.206 20.5426 28.1303C20.8466 27.9653 20.8443 27.5185 20.7658 27.174C20.6578 26.6973 20.4859 26.236 20.2558 25.8074C20.0303 25.3872 19.6746 24.9567 19.2082 24.9651C18.72 24.9736 18.3684 25.4662 18.2332 25.949H18.2327Z" fill="#F9AF91"/>
<path d="M34.0977 32.3134C34.1581 32.4162 33.9852 32.677 33.5569 32.8864C33.1386 33.0953 32.4475 33.2145 31.7343 32.9808C31.021 32.7462 30.5242 32.2368 30.3001 31.817C30.0687 31.3908 30.0741 31.0753 30.1808 31.0272C30.4044 30.9211 30.9707 31.7778 32.0047 32.105C33.0324 32.4546 33.9743 32.0937 34.0973 32.3139L34.0977 32.3134Z" fill="#F69C7C"/>
<path d="M17.2084 75.1022C17.2084 75.1022 18.3941 62.0353 18.9716 56.4178L19.0483 56.3707C19.1427 55.9607 19.1159 55.5809 19.1076 55.1403C19.0544 52.3262 16.7966 50.0893 14.0648 50.1441C11.7562 50.1867 9.83369 51.7834 9.37745 53.9341L9.37517 53.9337C8.22459 58.1944 6.00158 65.3297 6.13475 72.37C6.13475 72.37 11.8732 75.7338 17.2084 75.1022Z" fill="#00284D"/>
<path d="M50.1617 50.6265C51.5755 53.035 50.8264 56.1683 48.488 57.6247C46.1499 59.0811 43.1082 58.3095 41.6944 55.9005C40.2806 53.4921 41.0302 50.3587 43.3682 48.9024C45.7067 47.446 48.7479 48.2181 50.1617 50.6265Z" fill="#00284D"/>
<path d="M47.2987 86.0674L16.9059 85.9911L15.8251 95.0991C15.8251 95.0991 31.5492 101.242 47.7065 96.0802C47.7065 96.0802 47.5664 92.084 47.2987 86.0674Z" fill="#00407A"/>
<path fill-rule="evenodd" clip-rule="evenodd" d="M23.0025 57.8393C23.0061 57.8519 23.0138 57.8631 23.0261 57.8711L23.6445 58.266C23.6554 58.273 23.6681 58.2758 23.6804 58.2753C23.6831 58.2753 23.6858 58.2749 23.6885 58.2744L23.6082 57.5126L23.003 57.8393H23.0025Z" fill="#FEFEFE"/>
<path fill-rule="evenodd" clip-rule="evenodd" d="M23.605 57.484L23.5642 57.1012C23.561 57.0685 23.5297 57.0638 23.517 57.082L23.0111 57.7906C23.007 57.7967 23.0043 57.8028 23.0025 57.8093L23.596 57.4887L23.605 57.484Z" fill="#FEFEFE"/>
<path fill-rule="evenodd" clip-rule="evenodd" d="M24.5683 56.9953L23.635 57.4991L23.6359 57.5094L23.7153 58.2633C23.7212 58.2591 23.7267 58.2544 23.7312 58.2484L24.5992 57.0317C24.6169 57.0065 24.596 56.9798 24.5683 56.9948V56.9953Z" fill="#FEFEFE"/>
<path fill-rule="evenodd" clip-rule="evenodd" d="M22.5203 59.3101L22.5153 59.2209C22.5153 59.2209 22.4858 59.2615 22.425 59.3008C22.391 59.3228 22.3483 59.3312 22.302 59.3335C22.2222 59.3377 22.1614 59.3185 22.1187 59.2769C22.0761 59.2349 22.0529 59.1732 22.0489 59.0905L22.0275 58.6357L22.2122 58.6263L22.2317 59.0339C22.2344 59.0839 22.2444 59.1213 22.263 59.1456C22.2816 59.1699 22.3097 59.1811 22.3479 59.1793C22.3996 59.1765 22.4359 59.1568 22.4572 59.1204C22.4785 59.0834 22.4876 59.0241 22.4835 58.9418L22.4681 58.6137L22.6528 58.6044L22.6859 59.3022L22.5203 59.3106V59.3101Z" fill="#FEFEFE"/>
<path fill-rule="evenodd" clip-rule="evenodd" d="M23.4784 59.2619L23.2937 59.2712L23.2742 58.8637C23.2719 58.8132 23.2615 58.7763 23.2429 58.7515C23.2243 58.7272 23.1957 58.716 23.158 58.7179C23.1063 58.7207 23.07 58.7403 23.0487 58.7768C23.0274 58.8132 23.0183 58.873 23.0224 58.9553L23.0378 59.2834L22.8531 59.2927L22.82 58.5949L22.9611 58.5879L22.9652 58.6758C22.9652 58.6758 23.0137 58.6244 23.0823 58.5945C23.119 58.5786 23.158 58.5646 23.2043 58.5622C23.2833 58.558 23.3436 58.5772 23.3867 58.6192C23.4294 58.6608 23.4529 58.7235 23.457 58.8062L23.4788 59.261L23.4784 59.2619Z" fill="#FEFEFE"/>
<path fill-rule="evenodd" clip-rule="evenodd" d="M23.8274 59.2441L23.6427 59.2535L23.61 58.5557L23.7947 58.5463L23.8274 59.2441Z" fill="#FEFEFE"/>
<path fill-rule="evenodd" clip-rule="evenodd" d="M24.2239 59.2246L23.9326 58.5399L24.1258 58.5301L24.2756 58.9213C24.291 58.9638 24.3082 59.0017 24.3082 59.0017C24.3082 59.0017 24.3205 58.9671 24.3336 58.918L24.4453 58.5137L24.6385 58.5039L24.4135 59.2143L24.2239 59.2237V59.2246Z" fill="#FEFEFE"/>
<path fill-rule="evenodd" clip-rule="evenodd" d="M25.0706 59.1942C24.9612 59.1998 24.875 59.1732 24.8106 59.1143C24.7461 59.0554 24.7112 58.9689 24.7058 58.8553C24.7003 58.7385 24.7244 58.6464 24.7779 58.58C24.8319 58.5132 24.9086 58.4772 25.0089 58.4726C25.1046 58.4679 25.1804 58.4922 25.2366 58.5455C25.2924 58.5987 25.3228 58.6754 25.3278 58.774L25.3319 58.8666L24.895 58.8885C24.8995 58.9427 24.9172 58.9839 24.9476 59.0129C24.978 59.0418 25.0197 59.0549 25.0724 59.0521C25.1132 59.0502 25.1513 59.0437 25.1876 59.033C25.2235 59.0227 25.2607 59.0068 25.2997 58.9853L25.3065 59.1325C25.2747 59.1507 25.2412 59.1647 25.2049 59.175C25.1686 59.1853 25.1236 59.1914 25.071 59.1942H25.0706ZM25.0166 58.6076C24.9775 58.6095 24.9471 58.624 24.9263 58.6506C24.9054 58.6773 24.8941 58.7142 24.8932 58.7614L25.1527 58.7483C25.1495 58.7011 25.1359 58.6656 25.1114 58.6413C25.0873 58.617 25.0556 58.6058 25.0166 58.6076Z" fill="#FEFEFE"/>
<path fill-rule="evenodd" clip-rule="evenodd" d="M25.8346 58.4307C25.8595 58.4298 25.8804 58.4303 25.8972 58.4335L25.8917 58.6125C25.8768 58.6093 25.8582 58.6079 25.8373 58.6093C25.7783 58.6121 25.7329 58.6298 25.7016 58.663C25.6703 58.6957 25.6558 58.7401 25.6585 58.7967L25.6753 59.1514L25.4907 59.1608L25.4575 58.463L25.5977 58.456L25.6032 58.5812C25.6032 58.5812 25.644 58.5153 25.7139 58.4714C25.7502 58.4485 25.7933 58.4331 25.835 58.4307H25.8346Z" fill="#FEFEFE"/>
<path fill-rule="evenodd" clip-rule="evenodd" d="M26.5494 58.9047C26.5525 58.9762 26.5312 59.0319 26.4845 59.0716C26.4382 59.1113 26.3665 59.1338 26.2703 59.1389C26.2209 59.1412 26.1787 59.1398 26.1437 59.1347C26.1088 59.1295 26.0757 59.1211 26.0448 59.1094L26.0371 58.952C26.0725 58.9669 26.1115 58.979 26.1551 58.9879C26.1986 58.9968 26.2368 59.0006 26.2694 58.9992C26.3366 58.9959 26.3692 58.9739 26.367 58.9342C26.3661 58.9192 26.3611 58.9075 26.352 58.8987C26.3429 58.8898 26.3266 58.88 26.3044 58.8692C26.2821 58.8585 26.2522 58.8463 26.215 58.8323C26.1619 58.8122 26.1224 58.7935 26.0975 58.7757C26.0721 58.758 26.0534 58.737 26.0412 58.7126C26.0289 58.6883 26.0217 58.658 26.0203 58.622C26.0172 58.5598 26.0385 58.5107 26.0834 58.4747C26.1283 58.4383 26.1936 58.4182 26.2794 58.414C26.3611 58.4098 26.4414 58.4243 26.5203 58.457L26.4709 58.5972C26.4364 58.5841 26.4042 58.5734 26.3742 58.5649C26.3443 58.557 26.3139 58.5537 26.2835 58.5551C26.229 58.5579 26.2023 58.5743 26.2036 58.6047C26.2045 58.622 26.2141 58.636 26.2322 58.6477C26.2504 58.6594 26.2898 58.6757 26.3502 58.6972C26.4042 58.7164 26.4441 58.7351 26.4695 58.7533C26.4949 58.7711 26.514 58.7921 26.5271 58.8169C26.5398 58.8412 26.5471 58.8706 26.5489 58.9052L26.5494 58.9047Z" fill="#FEFEFE"/>
<path fill-rule="evenodd" clip-rule="evenodd" d="M27.1475 59.0775L27.142 58.977C27.113 59.0186 27.0427 59.0564 27.0105 59.0737C26.9783 59.091 26.9356 59.1009 26.883 59.1037C26.8181 59.1069 26.7659 59.0906 26.7269 59.0541C26.6874 59.0177 26.6665 58.9639 26.6629 58.8933C26.6593 58.8195 26.682 58.7634 26.7305 58.7255C26.7791 58.6877 26.8539 58.6648 26.9551 58.6559L27.0726 58.6461L27.0713 58.6157C27.0681 58.5451 27.0309 58.5115 26.961 58.5147C26.907 58.5175 26.844 58.5376 26.7727 58.575L26.7056 58.4493C26.7818 58.4035 26.8671 58.3783 26.9619 58.3731C27.0527 58.3685 27.1234 58.3853 27.1738 58.4236C27.2242 58.4619 27.2514 58.5227 27.2555 58.6059L27.2772 59.0709L27.1484 59.0775H27.1475ZM27.0776 58.7569L27.0064 58.7629C26.9528 58.7671 26.9134 58.7793 26.888 58.7989C26.8625 58.8185 26.8508 58.8471 26.8526 58.8845C26.8553 58.9382 26.8861 58.9634 26.946 58.9606C26.9887 58.9583 27.0227 58.9443 27.0468 58.9172C27.0713 58.8905 27.0821 58.8559 27.0803 58.8143L27.0776 58.7569Z" fill="#FEFEFE"/>
<path fill-rule="evenodd" clip-rule="evenodd" d="M27.626 59.0535L27.4413 59.0624L27.395 58.0916L27.5797 58.0823L27.626 59.0535Z" fill="#FEFEFE"/>
<path fill-rule="evenodd" clip-rule="evenodd" d="M28.0731 58.3325C28.1607 58.3283 28.2301 58.3559 28.2804 58.4157C28.3312 58.4755 28.3589 58.5611 28.3644 58.6728C28.3698 58.7859 28.3494 58.8747 28.304 58.9387C28.2587 59.0028 28.1929 59.0373 28.1067 59.0415C28.0622 59.0439 28.0218 59.0373 27.9855 59.0224C27.9497 59.0079 27.9197 58.9845 27.8961 58.9523L27.8993 59.0392L27.7909 59.0443L27.7451 58.0731L27.8539 58.0675L27.8653 58.3035C27.8676 58.3507 27.8721 58.4447 27.8721 58.4447C27.9138 58.3741 27.981 58.3367 28.0731 58.3321V58.3325ZM28.0595 58.4265C27.9923 58.4297 27.9451 58.4517 27.9184 58.4924C27.8911 58.533 27.8798 58.5999 27.8839 58.6929V58.698C27.8884 58.7915 27.9066 58.8579 27.9379 58.8962C27.9696 58.935 28.0191 58.9523 28.0867 58.949C28.1461 58.9462 28.1901 58.9214 28.2169 58.8747C28.2437 58.8279 28.2555 58.762 28.2514 58.6765C28.2473 58.59 28.2296 58.526 28.1979 58.484C28.1666 58.4424 28.1203 58.4227 28.059 58.426L28.0595 58.4265Z" fill="#FEFEFE"/>
<path fill-rule="evenodd" clip-rule="evenodd" d="M28.838 58.9922C28.7487 58.9969 28.6783 58.9669 28.6275 58.9034L28.6461 59.2974L28.5372 59.303L28.4901 58.3107L28.5958 58.3056L28.5989 58.3991C28.5989 58.3991 28.6434 58.3369 28.6897 58.313C28.7233 58.2958 28.7618 58.2846 28.8058 58.2822C28.8925 58.278 28.961 58.3056 29.0118 58.3649C29.0626 58.4243 29.0908 58.5103 29.0958 58.6225C29.1012 58.7342 29.0812 58.823 29.0363 58.8884C28.9914 58.9534 28.9252 58.9884 28.8385 58.9926L28.838 58.9922ZM28.7909 58.3771C28.7251 58.3804 28.6783 58.4019 28.6507 58.4416C28.6234 58.4813 28.6112 58.5421 28.6144 58.6243L28.6153 58.6463C28.6198 58.7389 28.638 58.8057 28.6697 58.8454C28.7015 58.8851 28.7509 58.9034 28.8181 58.9001C28.8739 58.8973 28.9165 58.8716 28.9456 58.8239C28.9746 58.7758 28.9873 58.7099 28.9832 58.6267C28.9792 58.543 28.9606 58.4799 28.927 58.4369C28.8934 58.3939 28.848 58.3743 28.7909 58.3771Z" fill="#FEFEFE"/>
<path fill-rule="evenodd" clip-rule="evenodd" d="M29.5429 58.2447C29.5724 58.2433 29.5982 58.2442 29.6214 58.248L29.6128 58.3522C29.5878 58.3475 29.5638 58.3456 29.5402 58.3471C29.5052 58.3489 29.473 58.3606 29.4435 58.3816C29.4145 58.4031 29.3922 58.4321 29.3768 58.4681C29.3619 58.5041 29.355 58.5434 29.3569 58.5864L29.3746 58.9645L29.2657 58.9701L29.2325 58.2723L29.3337 58.2671L29.3405 58.3924C29.3405 58.3924 29.3968 58.3097 29.4308 58.2849C29.4644 58.2597 29.5016 58.2461 29.5424 58.2442L29.5429 58.2447Z" fill="#FEFEFE"/>
<path d="M31.4605 50.0667L31.6243 49.8391L31.7899 50.0036C34.0104 55.9198 34.994 69.0641 34.9568 83.9593C34.945 88.7163 34.9332 93.6426 34.9945 98.1318L34.6805 98.1379C34.6193 93.6482 34.6311 88.7182 34.6429 83.9593C34.6801 69.094 33.6592 55.9263 31.46 50.0663L31.4605 50.0667Z" fill="#00315E"/>
<path d="M25.7196 42.9612C25.7196 42.9612 29.8657 48.7662 31.195 48.5456C31.2631 48.5344 31.3298 48.511 31.396 48.4778L31.7912 50.3291C31.6447 50.1749 31.5594 50.0786 31.5594 50.0786C31.5594 50.0786 28.5499 53.3667 27.0952 52.8731C25.6402 52.3796 22.8906 45.2449 22.7473 44.4162C22.6043 43.5876 25.7191 42.9617 25.7191 42.9617L25.7196 42.9612Z" fill="#00315E"/>
<path fill-rule="evenodd" clip-rule="evenodd" d="M27.2125 42.6789L35.9997 43.9979L33.2597 49.6776L32.8255 54.0121L31.6281 49.7089L27.2125 47.1023V42.6789Z" fill="#FBBFA3"/>
<path d="M26.2497 43.1628C27.1213 44.3308 29.1022 46.8856 30.4184 47.8119C31.2728 48.413 31.1149 48.1938 31.3127 48.4532C31.5201 48.7247 31.5527 49.3566 31.6281 49.7081C31.6281 49.7081 28.643 52.9709 27.188 52.4774C25.7329 51.9838 22.9834 44.8491 22.84 44.0205C22.7365 43.4189 25.7792 42.5318 26.2497 43.1624V43.1628Z" fill="#00284D"/>
<path d="M32.9705 47.9482C33.8489 46.5737 34.4025 43.2122 34.0495 43.1313C34.0495 43.1313 36.9306 43.566 37.2886 44.1189C37.6466 44.6719 38.182 50.2744 37.2995 51.3672C36.6103 52.2206 34.4442 50.7783 33.5286 50.1062L33.3821 49.9977L33.2205 49.5841C33.2165 49.5257 33.1493 49.4378 33.1425 49.384C33.0563 48.6923 32.7106 48.3544 32.9696 47.9482H32.9705Z" fill="#00315E"/>
<path d="M33.1662 47.2603C33.7806 46.0689 34.0029 43.7147 34.0605 42.9627C34.0614 42.9496 34.0632 42.9365 34.0632 42.9248C34.0641 42.8468 34.1091 42.7332 34.2402 42.7519C34.2506 42.7533 34.262 42.7552 34.2728 42.757C34.928 42.8659 37.0147 43.2478 37.3159 43.7133C37.6739 44.2662 38.2093 49.8688 37.3268 50.9615C36.5478 51.9267 33.8795 49.9562 33.2674 49.4832C33.1867 49.421 33.1413 49.3841 33.1413 49.3841C32.86 48.2282 32.5165 48.5213 33.1662 47.2603Z" fill="#00284D"/>
<path d="M33.0418 49.5888L33.1425 49.384L33.3717 49.6505C33.3821 50.9512 33.1026 52.2823 32.8249 54.0705L32.6675 53.4545C32.8612 52.0262 33.05 50.6666 33.0418 49.5892V49.5888Z" fill="#00315E"/>
<path d="M15.2032 80.1688C16.1343 82.3533 15.1697 84.9016 13.0491 85.8608C10.9285 86.82 8.45424 85.8263 7.52355 83.6413C6.59289 81.4569 7.55706 78.9085 9.67808 77.9493C11.7987 76.9906 14.2725 77.9839 15.2036 80.1688L15.2032 80.1688Z" fill="#FBBFA3"/>
<path d="M21.456 101.163C20.1085 98.6304 18.9603 93.0061 17.6227 87.8575C16.3342 82.8978 15.203 80.1666 15.203 80.1666L7.52289 83.6391C7.52289 83.6391 16.1497 101.103 17.7269 103.409L21.456 101.163Z" fill="#FBBFA3"/>
<path fill-rule="evenodd" clip-rule="evenodd" d="M54.24 80.3436C51.5075 81.5329 48.4013 80.0224 47.5998 77.1147L46.723 73.9337L71.6568 66.741L73.3627 72.0201L54.24 80.3436Z" fill="#FBBFA3"/>
<path d="M70.8447 67.3018C72.4829 66.8168 73.8157 63.1934 74.7825 62.2174C75.7493 61.2413 77.4106 61.939 77.4106 61.939C77.4106 61.939 78.8651 61.5811 79.703 61.6233C80.5411 61.6651 80.8244 62.545 80.2826 63.6108C79.7402 64.6763 81.0893 64.7675 81.1305 65.9741C81.1722 67.181 80.2469 67.7184 81.0784 68.955C81.9101 70.1912 72.6259 72.2065 72.6259 72.2065L70.8447 67.3018Z" fill="#FBBFA3"/>
</g>
</svg>
