<svg width="56" height="48" viewBox="0 0 56 48" fill="none" xmlns="http://www.w3.org/2000/svg">
<rect x="0.5" y="0.5" width="47" height="47" rx="23.5" fill="white"/>
<rect x="0.5" y="0.5" width="47" height="47" rx="23.5" stroke="#E5EBF1"/>
<path fill-rule="evenodd" clip-rule="evenodd" d="M24 16C19.5817 16 16 19.5817 16 24C16 28.4183 19.5817 32 24 32C28.4183 32 32 28.4183 32 24C32 19.5817 28.4183 16 24 16ZM14 24C14 18.4772 18.4772 14 24 14C29.5228 14 34 18.4772 34 24C34 29.5228 29.5228 34 24 34C18.4772 34 14 29.5228 14 24Z" fill="#547796"/>
<path d="M24 19C23.4477 19 23 19.4477 23 20C23 20.5523 23.4477 21 24 21C24.5523 21 25 20.5523 25 20C25 19.4477 24.5523 19 24 19Z" fill="#547796"/>
<path d="M25 24C25 23.4477 24.5523 23 24 23C23.4477 23 23 23.4477 23 24V28C23 28.5523 23.4477 29 24 29C24.5523 29 25 28.5523 25 28V24Z" fill="#547796"/>
<path fill-rule="evenodd" clip-rule="evenodd" d="M41.3335 24C41.3335 20.3181 44.3183 17.3333 48.0002 17.3333C51.6821 17.3333 54.6668 20.3181 54.6668 24C54.6668 27.6819 51.6821 30.6667 48.0002 30.6667C44.3183 30.6667 41.3335 27.6819 41.3335 24ZM46.4716 22.8619C46.2112 22.6016 45.7891 22.6016 45.5288 22.8619C45.2684 23.1223 45.2684 23.5444 45.5288 23.8047L47.5288 25.8047C47.7891 26.0651 48.2112 26.0651 48.4716 25.8047L50.4716 23.8047C50.7319 23.5444 50.7319 23.1223 50.4716 22.8619C50.2112 22.6016 49.7891 22.6016 49.5288 22.8619L48.0002 24.3905L46.4716 22.8619Z" fill="#E79633"/>
</svg>
