<svg width="138" height="48" viewBox="0 0 138 48" fill="none" xmlns="http://www.w3.org/2000/svg">
<rect x="0.5" y="0.5" width="137" height="47" rx="23.5" fill="white"/>
<rect x="0.5" y="0.5" width="137" height="47" rx="23.5" stroke="#E5EBF1"/>
<path fill-rule="evenodd" clip-rule="evenodd" d="M36 16C31.5817 16 28 19.5817 28 24C28 28.4183 31.5817 32 36 32C40.4183 32 44 28.4183 44 24C44 19.5817 40.4183 16 36 16ZM26 24C26 18.4772 30.4772 14 36 14C41.5228 14 46 18.4772 46 24C46 29.5228 41.5228 34 36 34C30.4772 34 26 29.5228 26 24Z" fill="#547796"/>
<path d="M36 19C35.4477 19 35 19.4477 35 20C35 20.5523 35.4477 21 36 21C36.5523 21 37 20.5523 37 20C37 19.4477 36.5523 19 36 19Z" fill="#547796"/>
<path d="M37 24C37 23.4477 36.5523 23 36 23C35.4477 23 35 23.4477 35 24V28C35 28.5523 35.4477 29 36 29C36.5523 29 37 28.5523 37 28V24Z" fill="#547796"/>
<path d="M55.2557 18.3636V30H53.1477V18.3636H55.2557ZM59.5443 24.8864V30H57.4874V21.2727H59.4534V22.7557H59.5556C59.7564 22.267 60.0765 21.8788 60.5159 21.5909C60.959 21.303 61.5064 21.1591 62.1579 21.1591C62.7602 21.1591 63.2848 21.2879 63.7318 21.5455C64.1825 21.803 64.531 22.1761 64.7772 22.6648C65.0272 23.1534 65.1503 23.7462 65.1465 24.4432V30H63.0897V24.7614C63.0897 24.178 62.9382 23.7216 62.6352 23.392C62.3359 23.0625 61.9212 22.8977 61.3909 22.8977C61.031 22.8977 60.7109 22.9773 60.4306 23.1364C60.1541 23.2917 59.9363 23.517 59.7772 23.8125C59.6219 24.108 59.5443 24.4659 59.5443 24.8864ZM71.6979 21.2727V22.8636H66.5388V21.2727H71.6979ZM67.8286 30V20.4489C67.8286 19.8617 67.9498 19.3731 68.1922 18.983C68.4384 18.5928 68.768 18.3011 69.1809 18.108C69.5937 17.9148 70.0521 17.8182 70.5559 17.8182C70.9119 17.8182 71.2282 17.8466 71.5047 17.9034C71.7812 17.9602 71.9858 18.0114 72.1184 18.0568L71.7093 19.6477C71.6221 19.6212 71.5123 19.5947 71.3797 19.5682C71.2471 19.5379 71.0994 19.5227 70.9365 19.5227C70.554 19.5227 70.2831 19.6155 70.124 19.8011C69.9687 19.983 69.8911 20.2443 69.8911 20.5852V30H67.8286ZM76.8274 30.1705C75.9751 30.1705 75.2365 29.983 74.6115 29.608C73.9865 29.233 73.5016 28.7083 73.1569 28.0341C72.816 27.3598 72.6456 26.572 72.6456 25.6705C72.6456 24.7689 72.816 23.9792 73.1569 23.3011C73.5016 22.6231 73.9865 22.0966 74.6115 21.7216C75.2365 21.3466 75.9751 21.1591 76.8274 21.1591C77.6797 21.1591 78.4183 21.3466 79.0433 21.7216C79.6683 22.0966 80.1513 22.6231 80.4922 23.3011C80.8369 23.9792 81.0092 24.7689 81.0092 25.6705C81.0092 26.572 80.8369 27.3598 80.4922 28.0341C80.1513 28.7083 79.6683 29.233 79.0433 29.608C78.4183 29.983 77.6797 30.1705 76.8274 30.1705ZM76.8388 28.5227C77.3009 28.5227 77.6872 28.3958 77.9978 28.142C78.3084 27.8845 78.5395 27.5398 78.691 27.108C78.8463 26.6761 78.924 26.1951 78.924 25.6648C78.924 25.1307 78.8463 24.6477 78.691 24.2159C78.5395 23.7803 78.3084 23.4337 77.9978 23.1761C77.6872 22.9186 77.3009 22.7898 76.8388 22.7898C76.3653 22.7898 75.9713 22.9186 75.6569 23.1761C75.3463 23.4337 75.1134 23.7803 74.9581 24.2159C74.8066 24.6477 74.7308 25.1307 74.7308 25.6648C74.7308 26.1951 74.8066 26.6761 74.9581 27.108C75.1134 27.5398 75.3463 27.8845 75.6569 28.142C75.9713 28.3958 76.3653 28.5227 76.8388 28.5227Z" fill="#547796"/>
<path fill-rule="evenodd" clip-rule="evenodd" d="M107.333 24C107.333 20.3181 110.318 17.3333 114 17.3333C117.682 17.3333 120.667 20.3181 120.667 24C120.667 27.6819 117.682 30.6667 114 30.6667C110.318 30.6667 107.333 27.6819 107.333 24ZM112.471 22.8619C112.211 22.6016 111.789 22.6016 111.529 22.8619C111.268 23.1223 111.268 23.5444 111.529 23.8047L113.529 25.8047C113.789 26.0651 114.211 26.0651 114.471 25.8047L116.471 23.8047C116.732 23.5444 116.732 23.1223 116.471 22.8619C116.211 22.6016 115.789 22.6016 115.529 22.8619L114 24.3905L112.471 22.8619Z" fill="#E79633"/>
</svg>
