<svg width="16" height="16" viewBox="0 0 16 16" fill="none" xmlns="http://www.w3.org/2000/svg">
<path d="M4 6.66667C4 6.29848 4.29848 6 4.66667 6H7.33333C7.70152 6 8 6.29848 8 6.66667C8 7.03486 7.70152 7.33333 7.33333 7.33333H4.66667C4.29848 7.33333 4 7.03486 4 6.66667Z" fill="#7D7D78"/>
<path d="M4 8.66667C4 8.29848 4.29848 8 4.66667 8H5.33333C5.70152 8 6 8.29848 6 8.66667C6 9.03486 5.70152 9.33333 5.33333 9.33333H4.66667C4.29848 9.33333 4 9.03486 4 8.66667Z" fill="#7D7D78"/>
<path fill-rule="evenodd" clip-rule="evenodd" d="M5.17251 2.66669H10.8276C11.3642 2.66668 11.8071 2.66667 12.1679 2.69615C12.5427 2.72677 12.8871 2.79248 13.2107 2.95734C13.7124 3.213 14.1204 3.62095 14.3761 4.12271C14.5409 4.44627 14.6066 4.79074 14.6372 5.16547C14.6667 5.52626 14.6667 5.96917 14.6667 6.50581V9.49424C14.6667 10.0309 14.6667 10.4738 14.6372 10.8346C14.6066 11.2093 14.5409 11.5538 14.3761 11.8773C14.1204 12.3791 13.7124 12.787 13.2107 13.0427C12.8871 13.2076 12.5427 13.2733 12.1679 13.3039C11.8071 13.3334 11.3642 13.3334 10.8276 13.3334H5.17252C4.63587 13.3334 4.19296 13.3334 3.83216 13.3039C3.45743 13.2733 3.11296 13.2076 2.7894 13.0427C2.28763 12.787 1.87969 12.3791 1.62402 11.8773C1.45916 11.5538 1.39345 11.2093 1.36284 10.8346C1.33336 10.4738 1.33337 10.0309 1.33337 9.49422V6.50582C1.33337 5.96917 1.33336 5.52627 1.36284 5.16547C1.39345 4.79074 1.45916 4.44627 1.62402 4.12271C1.87969 3.62095 2.28763 3.213 2.7894 2.95734C3.11296 2.79248 3.45743 2.72677 3.83216 2.69615C4.19295 2.66667 4.63586 2.66668 5.17251 2.66669ZM3.94073 4.02506C3.64846 4.04894 3.49899 4.09222 3.39472 4.14535C3.14384 4.27318 2.93986 4.47715 2.81203 4.72803C2.75891 4.8323 2.71562 4.98177 2.69174 5.27405C2.66723 5.57411 2.66671 5.9623 2.66671 6.53335V9.46669C2.66671 10.0377 2.66723 10.4259 2.69174 10.726C2.71562 11.0183 2.75891 11.1677 2.81203 11.272C2.93986 11.5229 3.14384 11.7269 3.39472 11.8547C3.49899 11.9078 3.64846 11.9511 3.94073 11.975C4.24079 11.9995 4.62899 12 5.20004 12H10.8C11.3711 12 11.7593 11.9995 12.0593 11.975C12.3516 11.9511 12.5011 11.9078 12.6054 11.8547C12.8562 11.7269 13.0602 11.5229 13.188 11.272C13.2412 11.1677 13.2845 11.0183 13.3083 10.726C13.3329 10.4259 13.3334 10.0377 13.3334 9.46669V6.53335C13.3334 5.9623 13.3329 5.57411 13.3083 5.27405C13.2845 4.98177 13.2412 4.8323 13.188 4.72803C13.0602 4.47715 12.8562 4.27318 12.6054 4.14535C12.5011 4.09222 12.3516 4.04894 12.0593 4.02506C11.7593 4.00054 11.3711 4.00002 10.8 4.00002H5.20004C4.62899 4.00002 4.24079 4.00054 3.94073 4.02506Z" fill="#7D7D78"/>
<path d="M9 6.6C9 6.26863 9.26863 6 9.6 6H11.4C11.7314 6 12 6.26863 12 6.6V9.4C12 9.73137 11.7314 10 11.4 10H9.6C9.26863 10 9 9.73137 9 9.4V8V6.6Z" fill="#7D7D78"/>
</svg>
