<svg width="64" height="65" viewBox="0 0 64 65" fill="none" xmlns="http://www.w3.org/2000/svg">
<path d="M7 15.625C7 11.2067 10.5817 7.625 15 7.625H49C53.4183 7.625 57 11.2067 57 15.625V49.625C57 54.0433 53.4183 57.625 49 57.625H15C10.5817 57.625 7 54.0433 7 49.625V15.625Z" fill="#FCF0E3"/>
<mask id="mask0_4712_19733" style="mask-type:alpha" maskUnits="userSpaceOnUse" x="7" y="7" width="50" height="51">
<path d="M7 15.625C7 11.2067 10.5817 7.625 15 7.625H49C53.4183 7.625 57 11.2067 57 15.625V49.625C57 54.0433 53.4183 57.625 49 57.625H15C10.5817 57.625 7 54.0433 7 49.625V15.625Z" fill="#F4971E"/>
</mask>
<g mask="url(#mask0_4712_19733)">
<path d="M47.1041 52.9969C46.5634 52.6686 39.7829 50.535 36.2913 49.7144L32.5744 55.0484L27.506 49.7144L16.2573 53.4926C15.3824 53.7865 14.6915 54.4667 14.3839 55.3368L13.4512 57.9762H32.0096H50.568C50.0048 57.0188 48.4557 53.8175 47.1041 52.9969Z" fill="#003B70"/>
<path fill-rule="evenodd" clip-rule="evenodd" d="M32.9934 54.7298L32.5742 56.6716V57.9762H37.0852L39.6448 50.6562C38.4124 50.2843 37.2323 49.9488 36.2912 49.7144L32.9934 54.7298Z" fill="#00315E"/>
<path d="M27.168 49.8093L28.3329 49.1191L28.5769 40.929L34.073 42.1238L34.0981 42.5853L34.9693 48.9311L36.2912 49.7143C36.2912 51.7417 34.6591 55.1207 31.9559 55.1207C29.5906 54.7828 27.8213 51.8578 27.168 49.8093Z" fill="#FBBFA3"/>
<path fill-rule="evenodd" clip-rule="evenodd" d="M29.1905 45.6723C30.2821 46.1712 31.3427 46.5082 32.5362 46.6479V46.6474C32.9889 46.7006 33.443 46.7386 33.897 46.7765C34.1591 46.7984 34.4212 46.8203 34.683 46.8451L34.1169 42.7211L34.0357 42.2473L34.0285 42.1141L28.577 40.929L28.4463 45.3172C28.6921 45.4397 28.9402 45.5581 29.1905 45.6723Z" fill="#F9AF91"/>
<path d="M17.6556 23.8736C19.3297 16.2541 44.0175 10.0951 43.8867 23.8736C43.8434 28.4468 43.2503 32.3858 43.9852 36.664C44.6587 40.5829 44.9708 41.9557 41.4405 44.2689C37.9359 46.5659 36.1252 41.875 31 43.5C25.9196 45.1112 15.6779 47.4283 18.1397 38.2871C16.9954 33.4354 16.7425 28.0307 17.6556 23.8736Z" fill="#1A1A1A"/>
<path d="M21.1036 42.9264C24.5102 42.9264 27.2717 39.4474 27.2717 35.1558C27.2717 30.8643 24.5102 27.3853 21.1036 27.3853C17.6971 27.3853 14.9355 30.8643 14.9355 35.1558C14.9355 39.4474 17.6971 42.9264 21.1036 42.9264Z" fill="#1A1A1A"/>
<path d="M39.8429 42.6708C43.2494 42.6708 46.011 39.1918 46.011 34.9002C46.011 30.6086 43.2494 27.1296 39.8429 27.1296C36.4363 27.1296 33.6748 30.6086 33.6748 34.9002C33.6748 39.1918 36.4363 42.6708 39.8429 42.6708Z" fill="#1A1A1A"/>
<path d="M18.1788 33.2959C17.6574 28.8023 21.5578 29.579 21.5578 29.579C20.9851 17.0039 28.1363 16.2354 34.6537 16.8897C40.2638 17.4527 40.668 24.8411 40.7004 29.9169C42.0091 29.8052 43.8591 29.579 43.8591 32.2822C43.8591 35.6612 42.6102 37.6886 40.7004 37.3507C40.3966 41.0328 38.8112 44.3911 32.4414 44.8854C22.8614 44.8854 22.3585 37.7779 22.3585 37.7779C21.3987 37.5841 18.7003 37.789 18.1788 33.2959Z" fill="#FBBFA3"/>
<path d="M33.7914 38.258C33.8692 38.3262 33.7909 38.5867 33.4833 38.8734C33.1839 39.1571 32.6306 39.4403 31.9666 39.4398C31.3024 39.4384 30.7496 39.1535 30.4508 38.869C30.1441 38.5812 30.0666 38.3207 30.1442 38.2526C30.3058 38.1055 31.0076 38.657 31.9672 38.6482C32.9273 38.6596 33.6301 38.1103 33.7914 38.258Z" fill="#F69C7C"/>
<path d="M29.464 31.621C29.497 32.3525 28.9312 32.9729 28.1992 33.0059C27.4677 33.0393 26.8473 32.473 26.8139 31.7415C26.7809 31.0099 27.3466 30.3896 28.0782 30.3561C28.8097 30.3227 29.4301 30.8889 29.4635 31.621H29.464Z" fill="#1A1A1A"/>
<path d="M37.6774 31.621C37.7104 32.3525 37.1446 32.9729 36.4131 33.0059C35.6816 33.0393 35.0612 32.473 35.0278 31.7415C34.9943 31.0099 35.5605 30.3896 36.2921 30.3561C37.0236 30.3227 37.644 30.8889 37.6774 31.621Z" fill="#1A1A1A"/>
<path d="M30.1689 28.6522C30.226 28.5981 30.0619 28.3623 29.6473 28.1093C29.2417 27.8575 28.5501 27.6121 27.7706 27.6055C26.9618 27.598 26.2878 27.8314 25.8729 28.0758C25.6638 28.1979 25.5175 28.3169 25.4287 28.4154C25.3431 28.5113 25.3171 28.5786 25.3441 28.6096C25.372 28.6412 25.4574 28.6286 25.5848 28.5908C25.7075 28.5517 25.8793 28.4972 26.0912 28.4297C26.5063 28.2984 27.1086 28.1638 27.7527 28.169C28.4264 28.1755 29.0051 28.3207 29.4252 28.459C29.8439 28.5959 30.1068 28.7142 30.1694 28.6518L30.1689 28.6522Z" fill="#1A1A1A"/>
<path d="M39.0771 28.6522C39.1342 28.5981 38.9701 28.3623 38.5555 28.1093C38.1499 27.8575 37.4583 27.6121 36.6788 27.6055C35.8701 27.598 35.196 27.8314 34.7811 28.0758C34.572 28.1979 34.4257 28.3169 34.3369 28.4154C34.2513 28.5113 34.2253 28.5786 34.2523 28.6096C34.2802 28.6412 34.3656 28.6286 34.493 28.5908C34.6157 28.5517 34.7875 28.4972 34.9994 28.4297C35.4145 28.2984 36.0168 28.1638 36.6609 28.169C37.3346 28.1755 37.9133 28.3207 38.3334 28.459C38.7521 28.5959 39.015 28.7142 39.0776 28.6518L39.0771 28.6522Z" fill="#1A1A1A"/>
<path d="M19.5836 31.7971C19.2823 32.8403 19.71 33.94 20.1304 34.9413C20.2551 35.2391 20.3933 35.5529 20.66 35.735C20.9263 35.9171 21.3613 35.8891 21.5012 35.5986C21.6362 35.3172 21.4364 35.0009 21.2806 34.7302C21.1244 34.4601 21.0359 34.0548 21.2983 33.8856C21.42 33.807 21.5801 33.8135 21.7088 33.7458C21.988 33.5986 21.9863 33.1993 21.9142 32.8916C21.8149 32.4656 21.6561 32.0539 21.4446 31.671C21.237 31.2955 20.9095 30.911 20.4804 30.9183C20.0316 30.9261 19.7079 31.3659 19.5832 31.7971H19.5836Z" fill="#F9AF91"/>
<path d="M43.0528 32.3164C43.2998 33.1742 42.9491 34.0784 42.6044 34.9018C42.5022 35.1467 42.3889 35.4047 42.1702 35.5544C41.9519 35.7042 41.5952 35.6811 41.4805 35.4423C41.3697 35.2109 41.5336 34.9508 41.6613 34.7283C41.7894 34.5061 41.862 34.1728 41.6468 34.0337C41.547 33.9691 41.4157 33.9745 41.3103 33.9187C41.0813 33.7977 41.0827 33.4695 41.1418 33.2164C41.2232 32.8661 41.3535 32.5276 41.5269 32.2128C41.6971 31.904 41.9657 31.5878 42.3174 31.5938C42.6855 31.6002 42.9505 31.9619 43.0528 32.3164Z" fill="#F9AF91"/>
<path d="M19.8168 29.2258C25.1289 28.0343 29.0401 26.6429 32.0094 21.4465C32.0094 21.4465 32.7517 25.9005 43.5495 28.8839C43.5495 28.8839 43.1053 16.0554 34.532 16.0554C25.9593 16.0554 21.2577 17.6287 19.8163 22.9355C18.7158 26.9869 19.8168 29.2258 19.8168 29.2258Z" fill="#1A1A1A"/>
<path d="M39.6317 36.6762C39.6808 37.7556 38.8456 38.6702 37.7662 38.7197C36.6868 38.7688 35.7722 37.9336 35.7228 36.8542C35.6737 35.7747 36.5092 34.8601 37.5882 34.8107C38.6677 34.7616 39.5826 35.5967 39.6317 36.6762Z" fill="#F9AF91"/>
<path d="M28.1239 36.6762C28.173 37.7556 27.3378 38.6702 26.2584 38.7197C25.179 38.7688 24.2644 37.9336 24.2149 36.8542C24.1659 35.7747 25.0014 34.8601 26.0804 34.8107C27.1599 34.7616 28.0748 35.5967 28.1239 36.6762Z" fill="#F9AF91"/>
<path d="M32.987 35.1411C33.1124 35.3506 32.739 35.7743 32.1187 35.7474C31.4988 35.7191 31.1641 35.2637 31.3073 35.0663C31.4461 34.8582 31.8014 34.8466 32.1585 34.855C32.5146 34.8784 32.8674 34.9218 32.987 35.1411Z" fill="#F69C7C"/>
<path fill-rule="evenodd" clip-rule="evenodd" d="M17.998 39.4557C18.5156 38.9701 19.0331 38.4856 19.5506 38C20.2354 41.8063 22.9082 42.9752 25.3719 44.2105C22.8915 43.4726 20.5473 43.4239 17.998 39.4557Z" fill="#1A1A1A"/>
</g>
</svg>
