<svg width="64" height="65" viewBox="0 0 64 65" fill="none" xmlns="http://www.w3.org/2000/svg">
<path d="M49.7285 9.2305L14.2705 9.29858L14.3594 55.5843L49.8174 55.5162L49.7285 9.2305Z" fill="#195C86"/>
<mask id="mask0_2423_54064" style="mask-type:luminance" maskUnits="userSpaceOnUse" x="14" y="9" width="36" height="47">
<path d="M49.7407 9.2288L14.2827 9.29688L14.3716 55.5825L49.8296 55.5145L49.7407 9.2288Z" fill="white"/>
</mask>
<g mask="url(#mask0_2423_54064)">
<path d="M45.772 53.3432L17.9048 53.3967L17.9252 64.0555L45.7924 64.002L45.772 53.3432Z" fill="#9A7978"/>
<mask id="mask1_2423_54064" style="mask-type:luminance" maskUnits="userSpaceOnUse" x="-177" y="-42" width="409" height="231">
<path d="M231.093 -41.2859L-176.567 -40.5032L-176.127 188.806L231.533 188.023L231.093 -41.2859Z" fill="white"/>
</mask>
<g mask="url(#mask1_2423_54064)">
<path d="M40.4694 58.6683C40.4744 61.5919 42.8482 63.9566 45.7718 63.9516C48.694 63.9462 51.0602 61.5728 51.0552 58.6491C51.0501 55.7255 48.6764 53.3608 45.7527 53.3658C42.8306 53.3712 40.4644 55.7446 40.4694 58.6683Z" fill="#9A7978"/>
</g>
<path d="M8.43804 81.6069L22.2841 61.7362C23.9554 59.3381 23.3661 56.0397 20.968 54.3684C18.5698 52.697 15.2715 53.2863 13.6001 55.6845L-0.24591 75.5552L8.43955 81.6073L8.43804 81.6069Z" fill="#9A7978"/>
<path d="M33.6119 58.5132L30.1718 58.5194C27.6548 58.524 25.7156 56.3033 26.0579 53.8121L26.9968 46.9604L36.7436 46.9428L37.7081 53.7914C38.0583 56.283 36.127 58.5098 33.6116 58.5147" fill="#FFC1B3"/>
<path d="M44.632 35.9361C44.635 37.2059 43.6084 38.2372 42.3375 38.2383C41.0677 38.2412 40.0367 37.2131 40.0353 35.9437C40.0339 34.6743 41.0605 33.643 42.3299 33.6415C43.5996 33.6386 44.6306 34.6667 44.632 35.9361Z" fill="#FFC1B3"/>
<path d="M23.6789 35.975C23.6818 37.2448 22.6537 38.2758 21.3843 38.2772C20.1146 38.2802 19.0836 37.252 19.0821 35.9827C19.0792 34.7129 20.1073 33.6819 21.3767 33.6805C22.6465 33.6775 23.6775 34.7056 23.6789 35.975Z" fill="#FFC1B3"/>
<path d="M43.631 35.7617C43.6329 36.7119 42.8634 37.4836 41.9131 37.4854C40.9629 37.4873 40.1912 36.7178 40.1894 35.7675C40.1875 34.8173 40.9555 34.0453 41.9073 34.0438C42.8575 34.0419 43.6291 34.8114 43.631 35.7617Z" fill="#FEA18D"/>
<path d="M23.7862 35.8005C23.7881 36.7507 23.0186 37.5224 22.0683 37.5242C21.1181 37.5261 20.3464 36.7566 20.3446 35.8063C20.3427 34.8561 21.1122 34.0845 22.0625 34.0826C23.0127 34.0807 23.7843 34.8502 23.7862 35.8005Z" fill="#FEA18D"/>
<mask id="mask2_2423_54064" style="mask-type:luminance" maskUnits="userSpaceOnUse" x="-177" y="-42" width="409" height="231">
<path d="M231.093 -41.2859L-176.567 -40.5032L-176.127 188.806L231.533 188.023L231.093 -41.2859Z" fill="white"/>
</mask>
<g mask="url(#mask2_2423_54064)">
<path d="M33.2409 46.6799L30.5491 46.6848C26.853 46.6921 23.6031 43.7964 22.9213 39.7736L21.5793 31.844C20.6512 26.3632 24.2629 21.24 29.2983 21.2311L34.3957 21.222C39.4312 21.2132 43.0609 26.3212 42.1536 31.8062L40.8403 39.7409C40.1733 43.7647 36.9355 46.6723 33.2394 46.6796" fill="#514137"/>
</g>
<mask id="mask3_2423_54064" style="mask-type:luminance" maskUnits="userSpaceOnUse" x="-177" y="-42" width="409" height="231">
<path d="M231.093 -41.2859L-176.567 -40.5032L-176.127 188.806L231.533 188.023L231.093 -41.2859Z" fill="white"/>
</mask>
<g mask="url(#mask3_2423_54064)">
<path d="M33.2556 49.528L30.6195 49.5327C26.9997 49.5397 23.8197 46.5946 23.1553 42.509L21.8477 34.4617C20.9449 28.904 24.4776 23.7153 29.3987 23.7062L34.3804 23.6963C39.3015 23.6872 42.8539 28.8636 41.9709 34.4239L40.693 42.4762C40.0449 46.5646 36.8739 49.5206 33.256 49.5265" fill="#FEA18D"/>
</g>
<mask id="mask4_2423_54064" style="mask-type:luminance" maskUnits="userSpaceOnUse" x="-177" y="-42" width="409" height="231">
<path d="M231.093 -41.2859L-176.567 -40.5032L-176.127 188.806L231.533 188.023L231.093 -41.2859Z" fill="white"/>
</mask>
<g mask="url(#mask4_2423_54064)">
<path d="M33.2489 48.3179L30.5429 48.3228C26.828 48.329 23.5598 45.5213 22.8776 41.6207L21.5306 33.9314C20.5997 28.6183 24.2301 23.6517 29.2892 23.6435L34.4106 23.6334C39.47 23.6236 43.119 28.5756 42.2067 33.8926L40.8874 41.5862C40.2176 45.4887 36.9627 48.3098 33.2478 48.3161" fill="#FFC1B3"/>
</g>
<path d="M37.2446 33.9105C37.2458 34.3777 36.8682 34.7564 36.4013 34.756C35.9356 34.7575 35.5554 34.3795 35.5557 33.9127C35.5546 33.4454 35.9322 33.0667 36.3991 33.0671C36.8663 33.066 37.245 33.4436 37.2446 33.9105Z" fill="#312E3E"/>
<path d="M28.2085 33.8953C28.21 34.361 27.8324 34.7397 27.3651 34.7409C26.8994 34.7423 26.5192 34.3644 26.5196 33.8975C26.5185 33.4303 26.8961 33.0516 27.363 33.052C27.8302 33.0509 28.2089 33.4285 28.2085 33.8953Z" fill="#312E3E"/>
<path d="M38.64 38.9251L36.7922 38.928C36.3997 38.9285 36.0807 38.6104 36.0802 38.2179C36.0797 37.8255 36.3978 37.5065 36.7902 37.506L38.6381 37.5031C39.0305 37.5026 39.3499 37.8191 39.3501 38.2131C39.3506 38.6055 39.0325 38.9246 38.64 38.9251Z" fill="#D8A198"/>
<path d="M27.1195 38.9456L25.2717 38.9485C24.8792 38.949 24.5602 38.6309 24.5597 38.2384C24.5592 37.846 24.8773 37.527 25.2697 37.5265L27.1191 37.5239C27.5115 37.5234 27.8309 37.84 27.8311 38.2339C27.8316 38.6264 27.5135 38.9454 27.121 38.9459" fill="#D8A198"/>
<path d="M31.9647 39.9242C31.4245 39.9248 30.9858 39.4892 30.9853 38.949L30.981 36.7689C30.9805 36.2287 31.4157 35.7915 31.9562 35.7894C32.4964 35.7889 32.9335 36.2241 32.9341 36.7643L32.9383 38.9444C32.9393 39.4831 32.5022 39.9214 31.9632 39.9239" fill="#FF5351"/>
<path d="M31.9518 39.2282C31.4117 39.2287 30.973 38.7932 30.9724 38.253L30.9683 36.3191C30.9677 35.7789 31.4048 35.3406 31.9435 35.3396C32.4836 35.3391 32.9205 35.7758 32.9229 36.3148L32.927 38.2487C32.9276 38.7889 32.4908 39.2257 31.9518 39.2282Z" fill="#FF7574"/>
<path d="M38.0435 31.0812L35.9111 31.085C35.6758 31.086 35.4853 30.8954 35.4843 30.6601C35.4833 30.4248 35.6743 30.2328 35.9096 30.2318L38.042 30.2279C38.2773 30.2269 38.4693 30.4179 38.4685 30.6544C38.4694 30.8897 38.2784 31.0817 38.0435 31.0812Z" fill="#312E3E"/>
<path d="M27.961 31.0976L25.8286 31.1015C25.5933 31.1025 25.4013 30.9115 25.4003 30.6762C25.3993 30.4409 25.5903 30.2489 25.8271 30.2482L27.9595 30.2443C28.1948 30.2434 28.3869 30.4344 28.386 30.6708C28.387 30.9061 28.196 31.0981 27.961 31.0976Z" fill="#312E3E"/>
<path d="M18.2476 24.8033C18.8259 27.2764 22.9777 29.1587 27.9959 29.1063C33.0142 29.0539 37.1269 27.0852 37.6534 24.6006L18.2476 24.8033Z" fill="#514137"/>
<path d="M22.0893 33.7526C21.6728 33.754 21.336 33.416 21.3346 32.9996L21.3226 26.2163C21.3212 25.7998 21.6576 25.4627 22.0741 25.4612C22.4906 25.4598 22.8274 25.7978 22.8291 26.2127L22.8411 32.996C22.8411 33.4121 22.5058 33.7511 22.0897 33.7511" fill="#514137"/>
<path d="M41.6025 33.7935C41.186 33.7949 40.8477 33.4566 40.8474 33.042L40.8336 25.5054L42.3417 25.5022L42.3555 33.0388C42.3569 33.4552 42.0189 33.792 41.604 33.7938" fill="#514137"/>
<path d="M33.1533 21.1163C33.1466 17.8476 30.4931 15.2022 27.2244 15.2089C23.9557 15.2156 21.3103 17.8692 21.317 21.1379C21.3237 24.4066 23.9773 27.052 27.246 27.0453C30.5147 27.0385 33.1585 24.3846 33.1533 21.1163Z" fill="#514137"/>
<path d="M42.1649 23.6183C42.1614 21.1318 40.1402 19.1197 37.6552 19.1236C35.1683 19.1286 33.1566 21.1482 33.162 23.6336C33.1654 26.1201 35.1866 28.1322 37.672 28.1268C40.1589 28.1218 42.1706 26.1021 42.1652 23.6168" fill="#514137"/>
<path d="M21.3188 28.1569L21.3058 21.1384L31.4419 16.9756C31.4419 16.9756 34.5759 19.2019 38.4498 19.195C42.3237 19.1881 42.3284 22.6136 42.3374 27.6554C42.346 32.6987 41.1116 24.0309 41.1116 24.0309L40.4394 23.962C40.4394 23.962 38.9352 24.2298 38.6893 24.5318C38.4419 24.8334 37.789 25.5948 37.7539 25.7012C37.7188 25.8077 33.3793 27.514 27.8019 27.5246C22.223 27.5348 22.2732 25.6766 22.2732 25.6766L22.0737 27.9856L21.3199 28.1588L21.3188 28.1569Z" fill="#514137"/>
<mask id="mask5_2423_54064" style="mask-type:luminance" maskUnits="userSpaceOnUse" x="-177" y="-42" width="409" height="231">
<path d="M231.093 -41.2859L-176.567 -40.5032L-176.127 188.806L231.533 188.023L231.093 -41.2859Z" fill="white"/>
</mask>
<g mask="url(#mask5_2423_54064)">
<path d="M33.6527 42.939C33.5715 42.9382 33.4896 42.9694 33.4276 43.0326C33.0347 43.4245 32.5143 43.6387 31.9599 43.6382C31.407 43.6373 30.8865 43.421 30.4946 43.0281C30.3712 42.9034 30.1693 42.9029 30.045 43.0278C29.9207 43.1527 29.9197 43.353 30.0446 43.4773C30.5559 43.9911 31.2357 44.2731 31.9589 44.2753C32.6818 44.276 33.3634 43.9953 33.8757 43.4844C34.0004 43.361 34.0009 43.1591 33.876 43.0348C33.8143 42.9725 33.7327 42.9416 33.6515 42.9408L33.6527 42.939Z" fill="#A88027"/>
</g>
</g>
</svg>
