<svg width="16" height="16" viewBox="0 0 16 16" fill="none" xmlns="http://www.w3.org/2000/svg">
<path d="M6.00003 2.00002L5.92286 2.00001C5.37778 1.99988 5.00626 1.99978 4.68306 2.06407C3.36076 2.3271 2.3271 3.36076 2.06407 4.68306C1.99978 5.00626 1.99988 5.37778 2.00001 5.92285L2.00002 6.00003C2.00002 6.36822 2.2985 6.66669 2.66669 6.66669C3.03488 6.66669 3.33336 6.36822 3.33336 6.00003C3.33336 5.34853 3.33659 5.12014 3.37179 4.94318C3.5296 4.1498 4.1498 3.5296 4.94318 3.37179C5.12014 3.33659 5.34853 3.33336 6.00003 3.33336C6.36822 3.33336 6.66669 3.03488 6.66669 2.66669C6.66669 2.2985 6.36822 2.00002 6.00003 2.00002Z" fill="#7D7D78"/>
<path d="M10 2.00002L10.0772 2.00001C10.6223 1.99988 10.9938 1.99978 11.317 2.06407C12.6393 2.3271 13.673 3.36076 13.936 4.68306C14.0003 5.00625 14.0002 5.37777 14 5.92283L14 6.00003C14 6.36822 13.7015 6.66669 13.3334 6.66669C12.9652 6.66669 12.6667 6.36822 12.6667 6.00003C12.6667 5.34853 12.6635 5.12014 12.6283 4.94318C12.4705 4.1498 11.8503 3.5296 11.0569 3.37179C10.8799 3.33659 10.6515 3.33336 10 3.33336C9.63184 3.33336 9.33336 3.03488 9.33336 2.66669C9.33336 2.2985 9.63184 2.00002 10 2.00002Z" fill="#7D7D78"/>
<path d="M5.92286 14L6.00003 14C6.36822 14 6.66669 13.7015 6.66669 13.3334C6.66669 12.9652 6.36822 12.6667 6.00003 12.6667C5.34853 12.6667 5.12014 12.6635 4.94318 12.6283C4.1498 12.4705 3.5296 11.8503 3.37179 11.0569C3.33659 10.8799 3.33336 10.6515 3.33336 10C3.33336 9.63184 3.03488 9.33336 2.66669 9.33336C2.2985 9.33336 2.00002 9.63184 2.00002 10L2.00001 10.0772C1.99988 10.6223 1.99978 10.9938 2.06407 11.317C2.3271 12.6393 3.36076 13.673 4.68306 13.936C5.00625 14.0003 5.3778 14.0002 5.92286 14Z" fill="#7D7D78"/>
<path d="M10 14L10.0772 14C10.6223 14.0002 10.9938 14.0003 11.317 13.936C12.6393 13.673 13.673 12.6393 13.936 11.317C14.0003 10.9938 14.0002 10.6223 14 10.0772L14 10C14 9.63184 13.7015 9.33336 13.3334 9.33336C12.9652 9.33336 12.6667 9.63184 12.6667 10C12.6667 10.6515 12.6635 10.8799 12.6283 11.0569C12.4705 11.8503 11.8503 12.4705 11.0569 12.6283C10.8799 12.6635 10.6515 12.6667 10 12.6667C9.63184 12.6667 9.33336 12.9652 9.33336 13.3334C9.33336 13.7015 9.63184 14 10 14Z" fill="#7D7D78"/>
<path fill-rule="evenodd" clip-rule="evenodd" d="M10.6666 6.49998C10.6666 7.97274 9.47267 9.16665 7.99991 9.16665C6.52715 9.16665 5.33324 7.97274 5.33324 6.49998C5.33324 5.02722 6.52715 3.83331 7.99991 3.83331C9.47267 3.83331 10.6666 5.02722 10.6666 6.49998ZM7.99991 7.83331C8.73629 7.83331 9.33324 7.23636 9.33324 6.49998C9.33324 5.7636 8.73629 5.16665 7.99991 5.16665C7.26353 5.16665 6.66657 5.7636 6.66657 6.49998C6.66657 7.23636 7.26353 7.83331 7.99991 7.83331Z" fill="#7D7D78"/>
<path fill-rule="evenodd" clip-rule="evenodd" d="M5.70264 11.7216L5.69954 11.7237L5.70087 11.7228C5.70384 11.7209 5.71047 11.7168 5.72067 11.7107C5.74108 11.6986 5.77571 11.6787 5.82391 11.6535C5.92041 11.6032 6.07061 11.5321 6.2694 11.4598C6.66691 11.3153 7.25627 11.1666 7.99991 11.1666C8.74354 11.1666 9.33291 11.3153 9.73041 11.4598C9.92921 11.5321 10.0794 11.6032 10.1759 11.6535C10.2241 11.6787 10.2587 11.6986 10.2791 11.7107C10.2893 11.7168 10.296 11.7209 10.2989 11.7228L10.2983 11.7223L10.2976 11.7219C10.2976 11.7219 10.2968 11.7213 10.6666 11.1666L10.2968 11.7213M10.3003 11.7237C10.6063 11.9249 11.0178 11.8416 11.2213 11.5364C11.4255 11.2301 11.3427 10.8162 11.0364 10.6119L10.6804 11.1459C11.0364 10.6119 11.0364 10.6119 11.0364 10.6119L11.0355 10.6114L11.0345 10.6107L11.0323 10.6092L11.0267 10.6056L11.0109 10.5955C10.9984 10.5876 10.982 10.5774 10.9616 10.5653C10.9208 10.541 10.8642 10.5088 10.7927 10.4714C10.6496 10.3968 10.4456 10.3012 10.1861 10.2068C9.66691 10.018 8.92294 9.83331 7.99991 9.83331C7.07688 9.83331 6.33291 10.018 5.81375 10.2068C5.55421 10.3012 5.35024 10.3968 5.20716 10.4714C5.13557 10.5088 5.07905 10.541 5.03826 10.5653C5.01786 10.5774 5.00137 10.5876 4.98888 10.5955L4.97314 10.6056L4.96753 10.6092L4.9653 10.6107L4.96432 10.6114C4.96432 10.6114 4.96344 10.6119 5.33324 11.1666L4.96344 10.6119C4.65709 10.8162 4.57431 11.2301 4.77854 11.5364C4.982 11.8416 5.39355 11.9249 5.69954 11.7237" fill="#7D7D78"/>
</svg>
