<svg width="16" height="16" viewBox="0 0 16 16" fill="none" xmlns="http://www.w3.org/2000/svg">
<path fill-rule="evenodd" clip-rule="evenodd" d="M2.10943 4.45658C2.24661 3.661 2.701 3.02281 3.19046 2.53337C3.97249 1.75134 5.2661 1.8443 5.9283 2.73009L7.00928 4.17606C7.60452 4.97228 7.52459 6.08484 6.82164 6.78779L6.74753 6.8619C6.48718 7.12225 6.48718 7.54436 6.74753 7.80471L8.19524 9.25243C8.45559 9.51277 8.8777 9.51278 9.13805 9.25243L9.21216 9.17831C9.91511 8.47536 11.0277 8.39543 11.8239 8.99066L13.2808 10.0798C14.1608 10.7377 14.2532 12.0229 13.4762 12.7999C12.9813 13.2948 12.3362 13.7566 11.5308 13.8956C10.0481 14.1516 7.20618 14.149 4.52857 11.4714C1.84973 8.79253 1.85441 5.93563 2.10943 4.45658ZM4.13326 3.47618C3.74917 3.86026 3.49611 4.26132 3.42338 4.68313C3.21772 5.87589 3.18753 8.24472 5.47138 10.5286C7.75631 12.8135 10.1119 12.7875 11.3039 12.5817C11.7339 12.5075 12.1419 12.2486 12.5334 11.8571C12.736 11.6545 12.7119 11.3193 12.4824 11.1477L11.0255 10.0586C10.7601 9.86016 10.3893 9.8868 10.155 10.1211L10.0809 10.1952C9.29981 10.9763 8.03348 10.9763 7.25243 10.1952L5.80472 8.74752C5.02367 7.96647 5.02367 6.70014 5.80472 5.91909L5.87883 5.84498C6.11314 5.61067 6.13979 5.23981 5.94138 4.97441L4.86039 3.52843C4.68452 3.29318 4.34095 3.26849 4.13326 3.47618Z" fill="#7D7D78"/>
</svg>
