<svg width="48" height="47" viewBox="0 0 48 47" fill="none" xmlns="http://www.w3.org/2000/svg">
<path d="M16.6623 25.1797C11.7531 25.1797 7.77344 29.1594 7.77344 34.0686C7.77344 37.0141 10.1613 39.4019 13.1068 39.4019H30.8845C33.8301 39.4019 36.2179 37.0141 36.2179 34.0686C36.2179 29.1594 32.2382 25.1797 27.329 25.1797H16.6623Z" fill="#7D7D78"/>
<path d="M21.9983 3.8457C17.0891 3.8457 13.1094 7.82539 13.1094 12.7346C13.1094 17.6438 17.0891 21.6235 21.9983 21.6235C26.9075 21.6235 30.8872 17.6438 30.8872 12.7346C30.8872 7.82539 26.9075 3.8457 21.9983 3.8457Z" fill="#7D7D78"/>
<path d="M26.3284 37.0025C26.3225 37.2205 26.4272 37.4269 26.6336 37.5752L33.1109 42.0465C33.1952 42.1133 33.3958 42.218 33.6342 42.1773L33.1283 33.9121L26.3284 37.0054V37.0025Z" fill="#D28506"/>
<path d="M32.8577 29.5147C32.8519 29.2647 32.5728 29.1658 32.41 29.3461C31.0611 30.9828 26.5665 36.46 26.5665 36.46C26.4095 36.6345 26.331 36.8234 26.3281 37.0008L33.1281 33.9075L32.8577 29.5147Z" fill="#DF9C47"/>
<path d="M33.1279 33.9116L33.6338 42.1768C33.7937 42.1478 33.9681 42.0547 34.1309 41.8367L44.2509 29.3938C44.4544 29.1642 44.216 28.8763 43.9718 28.9781L33.125 33.9116H33.1279Z" fill="#003B70"/>
</svg>
