<svg width="64" height="64" viewBox="0 0 64 64" fill="none" xmlns="http://www.w3.org/2000/svg">
<rect x="3.2002" y="14.4004" width="57.6" height="35.2" rx="3" fill="#E7E6E6"/>
<path d="M60.8 24.0664H6.31348V31.7991C28.8865 31.7991 58.6488 32.2231 60.8 44.244V24.0664Z" fill="url(#paint0_linear_4350_15359)"/>
<path d="M12.7934 27.9174L13.1413 26.9618H12.6625V26.703H13.5198V26.7188L13.0522 28.0157L12.7934 27.9174ZM14.5486 27.7346V27.999H13.6923V27.9628C13.7709 27.867 13.8606 27.7458 13.9614 27.5992C14.0628 27.452 14.1268 27.3474 14.1534 27.2856C14.18 27.2237 14.1933 27.1638 14.1933 27.1056C14.1933 27.0549 14.1763 27.0113 14.1423 26.9748C14.1089 26.9383 14.0684 26.9201 14.0208 26.9201C13.9261 26.9201 13.8222 26.9739 13.709 27.0815V26.8097C13.8358 26.7274 13.9567 26.6863 14.0718 26.6863C14.1992 26.6863 14.2994 26.7191 14.3724 26.7846C14.446 26.8502 14.4828 26.9402 14.4828 27.0546C14.4828 27.2111 14.3656 27.4377 14.1312 27.7346H14.5486ZM14.7286 27.8506C14.7286 27.8054 14.7447 27.7668 14.7769 27.7346C14.8096 27.7018 14.8486 27.6854 14.8937 27.6854C14.9395 27.6854 14.9785 27.7018 15.0106 27.7346C15.0434 27.7668 15.0598 27.8054 15.0598 27.8506C15.0598 27.8964 15.0434 27.9353 15.0106 27.9675C14.9785 27.9996 14.9395 28.0157 14.8937 28.0157C14.8486 28.0157 14.8096 27.9996 14.7769 27.9675C14.7447 27.9353 14.7286 27.8964 14.7286 27.8506ZM15.9569 26.6863L15.6573 27.1761C15.6857 27.1687 15.7145 27.165 15.7436 27.165C15.8407 27.165 15.9235 27.2024 15.9922 27.2772C16.0615 27.3521 16.0961 27.4507 16.0961 27.5732C16.0961 27.7 16.0553 27.8054 15.9736 27.8896C15.892 27.9737 15.7896 28.0157 15.6666 28.0157C15.5398 28.0157 15.4365 27.9734 15.3567 27.8886C15.2769 27.8033 15.237 27.6926 15.237 27.5565C15.237 27.4087 15.2961 27.2395 15.4142 27.049L15.6378 26.6863H15.9569ZM15.6721 27.7727C15.7167 27.7727 15.7522 27.7556 15.7788 27.7216C15.8054 27.687 15.8187 27.64 15.8187 27.5806C15.8187 27.5225 15.8051 27.4758 15.7779 27.4405C15.7507 27.4053 15.7148 27.3876 15.6703 27.3876C15.6257 27.3876 15.5905 27.4053 15.5645 27.4405C15.5385 27.4758 15.5255 27.524 15.5255 27.5853C15.5255 27.6446 15.5385 27.6907 15.5645 27.7235C15.5905 27.7563 15.6264 27.7727 15.6721 27.7727ZM17.1611 27.7346V27.999H16.3048V27.9628C16.3834 27.867 16.4731 27.7458 16.5739 27.5992C16.6753 27.452 16.7393 27.3474 16.7659 27.2856C16.7925 27.2237 16.8058 27.1638 16.8058 27.1056C16.8058 27.0549 16.7888 27.0113 16.7548 26.9748C16.7214 26.9383 16.6809 26.9201 16.6333 26.9201C16.5386 26.9201 16.4347 26.9739 16.3215 27.0815V26.8097C16.4483 26.7274 16.5692 26.6863 16.6843 26.6863C16.8117 26.6863 16.9119 26.7191 16.9849 26.7846C17.0585 26.8502 17.0953 26.9402 17.0953 27.0546C17.0953 27.2111 16.9781 27.4377 16.7437 27.7346H17.1611ZM18.1111 26.703V26.9637H17.6964V27.2049C17.835 27.1956 17.946 27.2299 18.0295 27.3079C18.113 27.3858 18.1547 27.4844 18.1547 27.6038C18.1547 27.7287 18.1121 27.8286 18.0267 27.9035C17.942 27.9783 17.8282 28.0157 17.6853 28.0157C17.5597 28.0157 17.4552 27.9925 17.3717 27.9461V27.7105C17.4713 27.7662 17.5632 27.794 17.6473 27.794C17.7066 27.794 17.7555 27.777 17.7938 27.743C17.8328 27.7083 17.8523 27.665 17.8523 27.6131C17.8523 27.5556 17.8288 27.5101 17.7818 27.4767C17.7348 27.4433 17.6695 27.4266 17.586 27.4266C17.5403 27.4266 17.4911 27.4319 17.4385 27.4424V26.703H18.1111ZM18.3895 27.8506C18.3895 27.8054 18.4055 27.7668 18.4377 27.7346C18.4705 27.7018 18.5094 27.6854 18.5546 27.6854C18.6004 27.6854 18.6393 27.7018 18.6715 27.7346C18.7043 27.7668 18.7207 27.8054 18.7207 27.8506C18.7207 27.8964 18.7043 27.9353 18.6715 27.9675C18.6393 27.9996 18.6004 28.0157 18.5546 28.0157C18.5094 28.0157 18.4705 27.9996 18.4377 27.9675C18.4055 27.9353 18.3895 27.8964 18.3895 27.8506ZM19.101 27.3153C18.9946 27.2485 18.9415 27.156 18.9415 27.0379C18.9415 26.9327 18.9776 26.848 19.05 26.7837C19.1224 26.7188 19.2173 26.6863 19.3348 26.6863C19.4585 26.6863 19.5565 26.7209 19.6289 26.7902C19.7013 26.8588 19.7375 26.942 19.7375 27.0397C19.7375 27.1604 19.6849 27.2522 19.5797 27.3153C19.709 27.3821 19.7736 27.4866 19.7736 27.6289C19.7736 27.7451 19.7337 27.8388 19.654 27.91C19.5748 27.9805 19.469 28.0157 19.3367 28.0157C19.2093 28.0157 19.1054 27.9799 19.025 27.9081C18.9452 27.8364 18.9053 27.7439 18.9053 27.6307C18.9053 27.4804 18.9705 27.3753 19.101 27.3153ZM19.3422 27.2355C19.3793 27.2355 19.4081 27.2191 19.4285 27.1863C19.4495 27.1529 19.4601 27.1072 19.4601 27.049C19.4601 26.934 19.4195 26.8765 19.3385 26.8765C19.302 26.8765 19.273 26.8922 19.2513 26.9238C19.2297 26.9547 19.2188 26.9977 19.2188 27.0527C19.2188 27.109 19.23 27.1535 19.2522 27.1863C19.2745 27.2191 19.3045 27.2355 19.3422 27.2355ZM19.3422 27.8265C19.3849 27.8265 19.4192 27.8085 19.4452 27.7727C19.4718 27.7362 19.4851 27.6876 19.4851 27.627C19.4851 27.5633 19.4718 27.5129 19.4452 27.4758C19.4192 27.4381 19.3843 27.4192 19.3404 27.4192C19.2965 27.4192 19.2612 27.4374 19.2346 27.4739C19.208 27.5098 19.1947 27.558 19.1947 27.6187C19.1947 27.6817 19.2083 27.7321 19.2355 27.7699C19.2628 27.8076 19.2983 27.8265 19.3422 27.8265ZM20.822 27.7346V27.999H19.9657V27.9628C20.0442 27.867 20.1339 27.7458 20.2347 27.5992C20.3361 27.452 20.4002 27.3474 20.4268 27.2856C20.4534 27.2237 20.4667 27.1638 20.4667 27.1056C20.4667 27.0549 20.4496 27.0113 20.4156 26.9748C20.3822 26.9383 20.3417 26.9201 20.2941 26.9201C20.1995 26.9201 20.0956 26.9739 19.9824 27.0815V26.8097C20.1092 26.7274 20.2301 26.6863 20.3451 26.6863C20.4725 26.6863 20.5727 26.7191 20.6457 26.7846C20.7193 26.8502 20.7561 26.9402 20.7561 27.0546C20.7561 27.2111 20.6389 27.4377 20.4045 27.7346H20.822ZM21.7145 26.6863L21.4148 27.1761C21.4432 27.1687 21.472 27.165 21.5011 27.165C21.5982 27.165 21.6811 27.2024 21.7497 27.2772C21.819 27.3521 21.8536 27.4507 21.8536 27.5732C21.8536 27.7 21.8128 27.8054 21.7312 27.8896C21.6495 27.9737 21.5472 28.0157 21.4241 28.0157C21.2973 28.0157 21.194 27.9734 21.1142 27.8886C21.0344 27.8033 20.9945 27.6926 20.9945 27.5565C20.9945 27.4087 21.0536 27.2395 21.1717 27.049L21.3953 26.6863H21.7145ZM21.4296 27.7727C21.4742 27.7727 21.5097 27.7556 21.5363 27.7216C21.5629 27.687 21.5762 27.64 21.5762 27.5806C21.5762 27.5225 21.5626 27.4758 21.5354 27.4405C21.5082 27.4053 21.4723 27.3876 21.4278 27.3876C21.3833 27.3876 21.348 27.4053 21.322 27.4405C21.296 27.4758 21.2831 27.524 21.2831 27.5853C21.2831 27.6446 21.296 27.6907 21.322 27.7235C21.348 27.7563 21.3839 27.7727 21.4296 27.7727ZM22.0503 27.8506C22.0503 27.8054 22.0664 27.7668 22.0985 27.7346C22.1313 27.7018 22.1703 27.6854 22.2154 27.6854C22.2612 27.6854 22.3002 27.7018 22.3323 27.7346C22.3651 27.7668 22.3815 27.8054 22.3815 27.8506C22.3815 27.8964 22.3651 27.9353 22.3323 27.9675C22.3002 27.9996 22.2612 28.0157 22.2154 28.0157C22.1703 28.0157 22.1313 27.9996 22.0985 27.9675C22.0664 27.9353 22.0503 27.8964 22.0503 27.8506ZM22.7619 27.3153C22.6555 27.2485 22.6023 27.156 22.6023 27.0379C22.6023 26.9327 22.6385 26.848 22.7108 26.7837C22.7832 26.7188 22.8781 26.6863 22.9957 26.6863C23.1194 26.6863 23.2174 26.7209 23.2897 26.7902C23.3621 26.8588 23.3983 26.942 23.3983 27.0397C23.3983 27.1604 23.3457 27.2522 23.2406 27.3153C23.3698 27.3821 23.4345 27.4866 23.4345 27.6289C23.4345 27.7451 23.3946 27.8388 23.3148 27.91C23.2356 27.9805 23.1299 28.0157 22.9975 28.0157C22.8701 28.0157 22.7662 27.9799 22.6858 27.9081C22.606 27.8364 22.5661 27.7439 22.5661 27.6307C22.5661 27.4804 22.6314 27.3753 22.7619 27.3153ZM23.0031 27.2355C23.0402 27.2355 23.0689 27.2191 23.0894 27.1863C23.1104 27.1529 23.1209 27.1072 23.1209 27.049C23.1209 26.934 23.0804 26.8765 22.9994 26.8765C22.9629 26.8765 22.9338 26.8922 22.9122 26.9238C22.8905 26.9547 22.8797 26.9977 22.8797 27.0527C22.8797 27.109 22.8908 27.1535 22.9131 27.1863C22.9354 27.2191 22.9653 27.2355 23.0031 27.2355ZM23.0031 27.8265C23.0458 27.8265 23.0801 27.8085 23.1061 27.7727C23.1326 27.7362 23.1459 27.6876 23.1459 27.627C23.1459 27.5633 23.1326 27.5129 23.1061 27.4758C23.0801 27.4381 23.0451 27.4192 23.0012 27.4192C22.9573 27.4192 22.9221 27.4374 22.8955 27.4739C22.8689 27.5098 22.8556 27.558 22.8556 27.6187C22.8556 27.6817 22.8692 27.7321 22.8964 27.7699C22.9236 27.8076 22.9592 27.8265 23.0031 27.8265ZM24.0876 27.4331V27.6854H23.5922V27.4331H24.0876ZM24.6823 26.6863C24.8196 26.6863 24.9266 26.7453 25.0033 26.8635C25.0806 26.9816 25.1192 27.1421 25.1192 27.345C25.1192 27.5559 25.0818 27.7204 25.007 27.8385C24.9321 27.9567 24.8251 28.0157 24.686 28.0157C24.545 28.0157 24.4352 27.957 24.3566 27.8395C24.2787 27.7219 24.2397 27.5593 24.2397 27.3515C24.2397 27.1412 24.2793 26.9779 24.3585 26.8616C24.4383 26.7447 24.5462 26.6863 24.6823 26.6863ZM24.6823 27.7727C24.7342 27.7727 24.772 27.7414 24.7955 27.679C24.819 27.6159 24.8307 27.4977 24.8307 27.3246C24.8307 27.1805 24.819 27.0787 24.7955 27.0193C24.7726 26.9593 24.7342 26.9293 24.6804 26.9293C24.6278 26.9293 24.5892 26.9587 24.5645 27.0175C24.5403 27.0756 24.5283 27.1913 24.5283 27.3645C24.5283 27.5098 24.5403 27.6143 24.5645 27.678C24.5892 27.7411 24.6285 27.7727 24.6823 27.7727ZM25.7306 26.6863C25.8679 26.6863 25.9749 26.7453 26.0516 26.8635C26.1289 26.9816 26.1676 27.1421 26.1676 27.345C26.1676 27.5559 26.1302 27.7204 26.0553 27.8385C25.9805 27.9567 25.8735 28.0157 25.7343 28.0157C25.5933 28.0157 25.4835 27.957 25.405 27.8395C25.3271 27.7219 25.2881 27.5593 25.2881 27.3515C25.2881 27.1412 25.3277 26.9779 25.4068 26.8616C25.4866 26.7447 25.5945 26.6863 25.7306 26.6863ZM25.7306 27.7727C25.7826 27.7727 25.8203 27.7414 25.8438 27.679C25.8673 27.6159 25.8791 27.4977 25.8791 27.3246C25.8791 27.1805 25.8673 27.0787 25.8438 27.0193C25.8209 26.9593 25.7826 26.9293 25.7288 26.9293C25.6762 26.9293 25.6375 26.9587 25.6128 27.0175C25.5887 27.0756 25.5766 27.1913 25.5766 27.3645C25.5766 27.5098 25.5887 27.6143 25.6128 27.678C25.6375 27.7411 25.6768 27.7727 25.7306 27.7727ZM26.779 26.6863C26.9163 26.6863 27.0233 26.7453 27.1 26.8635C27.1773 26.9816 27.2159 27.1421 27.2159 27.345C27.2159 27.5559 27.1785 27.7204 27.1037 27.8385C27.0288 27.9567 26.9218 28.0157 26.7827 28.0157C26.6417 28.0157 26.5319 27.957 26.4533 27.8395C26.3754 27.7219 26.3364 27.5593 26.3364 27.3515C26.3364 27.1412 26.376 26.9779 26.4552 26.8616C26.535 26.7447 26.6429 26.6863 26.779 26.6863ZM26.779 27.7727C26.8309 27.7727 26.8686 27.7414 26.8921 27.679C26.9156 27.6159 26.9274 27.4977 26.9274 27.3246C26.9274 27.1805 26.9156 27.0787 26.8921 27.0193C26.8693 26.9593 26.8309 26.9293 26.7771 26.9293C26.7245 26.9293 26.6859 26.9587 26.6611 27.0175C26.637 27.0756 26.625 27.1913 26.625 27.3645C26.625 27.5098 26.637 27.6143 26.6611 27.678C26.6859 27.7411 26.7251 27.7727 26.779 27.7727ZM27.3922 27.8506C27.3922 27.8054 27.4083 27.7668 27.4404 27.7346C27.4732 27.7018 27.5122 27.6854 27.5573 27.6854C27.6031 27.6854 27.6421 27.7018 27.6742 27.7346C27.707 27.7668 27.7234 27.8054 27.7234 27.8506C27.7234 27.8964 27.707 27.9353 27.6742 27.9675C27.6421 27.9996 27.6031 28.0157 27.5573 28.0157C27.5122 28.0157 27.4732 27.9996 27.4404 27.9675C27.4083 27.9353 27.3922 27.8964 27.3922 27.8506ZM28.3431 26.6863C28.4804 26.6863 28.5874 26.7453 28.6641 26.8635C28.7414 26.9816 28.7801 27.1421 28.7801 27.345C28.7801 27.5559 28.7427 27.7204 28.6678 27.8385C28.593 27.9567 28.486 28.0157 28.3468 28.0157C28.2058 28.0157 28.096 27.957 28.0175 27.8395C27.9396 27.7219 27.9006 27.5593 27.9006 27.3515C27.9006 27.1412 27.9402 26.9779 28.0193 26.8616C28.0991 26.7447 28.207 26.6863 28.3431 26.6863ZM28.3431 27.7727C28.3951 27.7727 28.4328 27.7414 28.4563 27.679C28.4798 27.6159 28.4916 27.4977 28.4916 27.3246C28.4916 27.1805 28.4798 27.0787 28.4563 27.0193C28.4334 26.9593 28.3951 26.9293 28.3413 26.9293C28.2887 26.9293 28.25 26.9587 28.2253 27.0175C28.2012 27.0756 28.1891 27.1913 28.1891 27.3645C28.1891 27.5098 28.2012 27.6143 28.2253 27.678C28.25 27.7411 28.2893 27.7727 28.3431 27.7727ZM29.3915 26.6863C29.5288 26.6863 29.6358 26.7453 29.7125 26.8635C29.7898 26.9816 29.8284 27.1421 29.8284 27.345C29.8284 27.5559 29.791 27.7204 29.7162 27.8385C29.6413 27.9567 29.5343 28.0157 29.3952 28.0157C29.2541 28.0157 29.1444 27.957 29.0658 27.8395C28.9879 27.7219 28.9489 27.5593 28.9489 27.3515C28.9489 27.1412 28.9885 26.9779 29.0677 26.8616C29.1475 26.7447 29.2554 26.6863 29.3915 26.6863ZM29.3915 27.7727C29.4434 27.7727 29.4811 27.7414 29.5046 27.679C29.5281 27.6159 29.5399 27.4977 29.5399 27.3246C29.5399 27.1805 29.5281 27.0787 29.5046 27.0193C29.4818 26.9593 29.4434 26.9293 29.3896 26.9293C29.337 26.9293 29.2984 26.9587 29.2736 27.0175C29.2495 27.0756 29.2375 27.1913 29.2375 27.3645C29.2375 27.5098 29.2495 27.6143 29.2736 27.678C29.2984 27.7411 29.3376 27.7727 29.3915 27.7727ZM30.4398 26.6863C30.5771 26.6863 30.6841 26.7453 30.7608 26.8635C30.8381 26.9816 30.8768 27.1421 30.8768 27.345C30.8768 27.5559 30.8393 27.7204 30.7645 27.8385C30.6897 27.9567 30.5827 28.0157 30.4435 28.0157C30.3025 28.0157 30.1927 27.957 30.1142 27.8395C30.0362 27.7219 29.9973 27.5593 29.9973 27.3515C29.9973 27.1412 30.0368 26.9779 30.116 26.8616C30.1958 26.7447 30.3037 26.6863 30.4398 26.6863ZM30.4398 27.7727C30.4917 27.7727 30.5295 27.7414 30.553 27.679C30.5765 27.6159 30.5882 27.4977 30.5882 27.3246C30.5882 27.1805 30.5765 27.0787 30.553 27.0193C30.5301 26.9593 30.4917 26.9293 30.4379 26.9293C30.3854 26.9293 30.3467 26.9587 30.322 27.0175C30.2979 27.0756 30.2858 27.1913 30.2858 27.3645C30.2858 27.5098 30.2979 27.6143 30.322 27.678C30.3467 27.7411 30.386 27.7727 30.4398 27.7727Z" fill="black"/>
<path d="M17.2109 40.418H36.0335V41.4197H17.2109V40.418Z" fill="black"/>
<path d="M17.2109 42.0869H30.6557V43.0887H17.2109V42.0869Z" fill="black"/>
<path d="M43.959 17.7393H57.4037V19.0925H43.959V17.7393Z" fill="black"/>
<path d="M17.2109 43.7568H33.3446V44.7586H17.2109V43.7568Z" fill="black"/>
<path d="M17.2109 45.4268H30.6557V46.4285H17.2109V45.4268Z" fill="black"/>
<g clip-path="url(#clip0_4350_15359)">
<path d="M9.42727 40.418H15.6543V46.5397H9.42727V40.418Z" fill="white"/>
<path d="M15.1491 40.749H15.3174V40.9145H15.1491V40.749Z" fill="black"/>
<path d="M14.9808 40.749H15.1491V40.9145H14.9808V40.749Z" fill="black"/>
<path d="M14.8125 40.749H14.9808V40.9145H14.8125V40.749Z" fill="black"/>
<path d="M14.6442 40.749H14.8125V40.9145H14.6442V40.749Z" fill="black"/>
<path d="M14.4759 40.749H14.6442V40.9145H14.4759V40.749Z" fill="black"/>
<path d="M14.3076 40.749H14.4759V40.9145H14.3076V40.749Z" fill="black"/>
<path d="M14.1393 40.749H14.3076V40.9145H14.1393V40.749Z" fill="black"/>
<path d="M13.8027 40.749H13.971V40.9145H13.8027V40.749Z" fill="black"/>
<path d="M13.6344 40.749H13.8027V40.9145H13.6344V40.749Z" fill="black"/>
<path d="M13.4661 40.749H13.6344V40.9145H13.4661V40.749Z" fill="black"/>
<path d="M13.2978 40.749H13.4661V40.9145H13.2978V40.749Z" fill="black"/>
<path d="M12.9612 40.749H13.1295V40.9145H12.9612V40.749Z" fill="black"/>
<path d="M11.7831 40.749H11.9514V40.9145H11.7831V40.749Z" fill="black"/>
<path d="M11.6148 40.749H11.7831V40.9145H11.6148V40.749Z" fill="black"/>
<path d="M11.1099 40.749H11.2782V40.9145H11.1099V40.749Z" fill="black"/>
<path d="M10.7733 40.749H10.9416V40.9145H10.7733V40.749Z" fill="black"/>
<path d="M10.605 40.749H10.7733V40.9145H10.605V40.749Z" fill="black"/>
<path d="M10.4367 40.749H10.605V40.9145H10.4367V40.749Z" fill="black"/>
<path d="M10.2684 40.749H10.4367V40.9145H10.2684V40.749Z" fill="black"/>
<path d="M10.1001 40.749H10.2684V40.9145H10.1001V40.749Z" fill="black"/>
<path d="M9.93185 40.749H10.1001V40.9145H9.93185V40.749Z" fill="black"/>
<path d="M9.76355 40.749H9.93185V40.9145H9.76355V40.749Z" fill="black"/>
<path d="M15.1491 40.9145H15.3174V41.0799H15.1491V40.9145Z" fill="black"/>
<path d="M14.1393 40.9145H14.3076V41.0799H14.1393V40.9145Z" fill="black"/>
<path d="M13.6344 40.9145H13.8027V41.0799H13.6344V40.9145Z" fill="black"/>
<path d="M13.4661 40.9145H13.6344V41.0799H13.4661V40.9145Z" fill="black"/>
<path d="M12.288 40.9145H12.4563V41.0799H12.288V40.9145Z" fill="black"/>
<path d="M12.1197 40.9145H12.288V41.0799H12.1197V40.9145Z" fill="black"/>
<path d="M11.7831 40.9145H11.9514V41.0799H11.7831V40.9145Z" fill="black"/>
<path d="M11.2782 40.9145H11.4465V41.0799H11.2782V40.9145Z" fill="black"/>
<path d="M10.7733 40.9145H10.9416V41.0799H10.7733V40.9145Z" fill="black"/>
<path d="M9.76355 40.9145H9.93185V41.0799H9.76355V40.9145Z" fill="black"/>
<path d="M15.1491 41.0799H15.3174V41.2454H15.1491V41.0799Z" fill="black"/>
<path d="M14.8125 41.0799H14.9808V41.2454H14.8125V41.0799Z" fill="black"/>
<path d="M14.6442 41.0799H14.8125V41.2454H14.6442V41.0799Z" fill="black"/>
<path d="M14.4759 41.0799H14.6442V41.2454H14.4759V41.0799Z" fill="black"/>
<path d="M14.1393 41.0799H14.3076V41.2454H14.1393V41.0799Z" fill="black"/>
<path d="M13.8027 41.0799H13.971V41.2454H13.8027V41.0799Z" fill="black"/>
<path d="M12.9612 41.0799H13.1295V41.2454H12.9612V41.0799Z" fill="black"/>
<path d="M12.7929 41.0799H12.9612V41.2454H12.7929V41.0799Z" fill="black"/>
<path d="M12.6246 41.0799H12.7929V41.2454H12.6246V41.0799Z" fill="black"/>
<path d="M12.288 41.0799H12.4563V41.2454H12.288V41.0799Z" fill="black"/>
<path d="M12.1197 41.0799H12.288V41.2454H12.1197V41.0799Z" fill="black"/>
<path d="M11.9514 41.0799H12.1197V41.2454H11.9514V41.0799Z" fill="black"/>
<path d="M11.7831 41.0799H11.9514V41.2454H11.7831V41.0799Z" fill="black"/>
<path d="M11.6148 41.0799H11.7831V41.2454H11.6148V41.0799Z" fill="black"/>
<path d="M11.2782 41.0799H11.4465V41.2454H11.2782V41.0799Z" fill="black"/>
<path d="M10.7733 41.0799H10.9416V41.2454H10.7733V41.0799Z" fill="black"/>
<path d="M10.4367 41.0799H10.605V41.2454H10.4367V41.0799Z" fill="black"/>
<path d="M10.2684 41.0799H10.4367V41.2454H10.2684V41.0799Z" fill="black"/>
<path d="M10.1001 41.0799H10.2684V41.2454H10.1001V41.0799Z" fill="black"/>
<path d="M9.76355 41.0799H9.93185V41.2454H9.76355V41.0799Z" fill="black"/>
<path d="M15.1491 41.2454H15.3174V41.4108H15.1491V41.2454Z" fill="black"/>
<path d="M14.8125 41.2454H14.9808V41.4108H14.8125V41.2454Z" fill="black"/>
<path d="M14.6442 41.2454H14.8125V41.4108H14.6442V41.2454Z" fill="black"/>
<path d="M14.4759 41.2454H14.6442V41.4108H14.4759V41.2454Z" fill="black"/>
<path d="M14.1393 41.2454H14.3076V41.4108H14.1393V41.2454Z" fill="black"/>
<path d="M13.8027 41.2454H13.971V41.4108H13.8027V41.2454Z" fill="black"/>
<path d="M13.2978 41.2454H13.4661V41.4108H13.2978V41.2454Z" fill="black"/>
<path d="M13.1295 41.2454H13.2978V41.4108H13.1295V41.2454Z" fill="black"/>
<path d="M12.7929 41.2454H12.9612V41.4108H12.7929V41.2454Z" fill="black"/>
<path d="M12.4563 41.2454H12.6246V41.4108H12.4563V41.2454Z" fill="black"/>
<path d="M12.288 41.2454H12.4563V41.4108H12.288V41.2454Z" fill="black"/>
<path d="M11.9514 41.2454H12.1197L12.1197 41.4108H11.9514V41.2454Z" fill="black"/>
<path d="M11.4465 41.2454H11.6148V41.4108H11.4465V41.2454Z" fill="black"/>
<path d="M11.2782 41.2454H11.4465V41.4108H11.2782V41.2454Z" fill="black"/>
<path d="M10.7733 41.2454H10.9416V41.4108H10.7733V41.2454Z" fill="black"/>
<path d="M10.4367 41.2454H10.605V41.4108H10.4367V41.2454Z" fill="black"/>
<path d="M10.2684 41.2454H10.4367V41.4108H10.2684V41.2454Z" fill="black"/>
<path d="M10.1001 41.2454H10.2684V41.4108H10.1001V41.2454Z" fill="black"/>
<path d="M9.76355 41.2454H9.93185V41.4108H9.76355V41.2454Z" fill="black"/>
<path d="M15.1491 41.4108H15.3174V41.5763H15.1491V41.4108Z" fill="black"/>
<path d="M14.8125 41.4108H14.9808V41.5763H14.8125V41.4108Z" fill="black"/>
<path d="M14.6442 41.4108H14.8125V41.5763H14.6442V41.4108Z" fill="black"/>
<path d="M14.4759 41.4108H14.6442V41.5763H14.4759V41.4108Z" fill="black"/>
<path d="M14.1393 41.4108H14.3076V41.5763H14.1393V41.4108Z" fill="black"/>
<path d="M13.2978 41.4108H13.4661V41.5763H13.2978V41.4108Z" fill="black"/>
<path d="M13.1295 41.4108H13.2978V41.5763H13.1295V41.4108Z" fill="black"/>
<path d="M12.9612 41.4108H13.1295V41.5763H12.9612V41.4108Z" fill="black"/>
<path d="M12.7929 41.4108H12.9612V41.5763H12.7929V41.4108Z" fill="black"/>
<path d="M12.4563 41.4108H12.6246V41.5763H12.4563V41.4108Z" fill="black"/>
<path d="M12.1197 41.4108H12.288V41.5763H12.1197L12.1197 41.4108Z" fill="black"/>
<path d="M11.9514 41.4108H12.1197L12.1197 41.5763H11.9514V41.4108Z" fill="black"/>
<path d="M11.7831 41.4108H11.9514V41.5763H11.7831V41.4108Z" fill="black"/>
<path d="M11.6148 41.4108H11.7831V41.5763H11.6148V41.4108Z" fill="black"/>
<path d="M11.1099 41.4108H11.2782V41.5763H11.1099V41.4108Z" fill="black"/>
<path d="M10.7733 41.4108H10.9416V41.5763H10.7733V41.4108Z" fill="black"/>
<path d="M10.4367 41.4108H10.605V41.5763H10.4367V41.4108Z" fill="black"/>
<path d="M10.2684 41.4108H10.4367V41.5763H10.2684V41.4108Z" fill="black"/>
<path d="M10.1001 41.4108H10.2684V41.5763H10.1001V41.4108Z" fill="black"/>
<path d="M9.76355 41.4108H9.93185V41.5763H9.76355V41.4108Z" fill="black"/>
<path d="M15.1491 41.5763H15.3174V41.7417H15.1491V41.5763Z" fill="black"/>
<path d="M14.1393 41.5763H14.3076V41.7417H14.1393V41.5763Z" fill="black"/>
<path d="M13.8027 41.5763H13.971V41.7417H13.8027V41.5763Z" fill="black"/>
<path d="M13.6344 41.5763H13.8027V41.7417H13.6344V41.5763Z" fill="black"/>
<path d="M13.2978 41.5763H13.4661V41.7417H13.2978V41.5763Z" fill="black"/>
<path d="M12.9612 41.5763H13.1295V41.7417H12.9612V41.5763Z" fill="black"/>
<path d="M12.7929 41.5763H12.9612V41.7417H12.7929V41.5763Z" fill="black"/>
<path d="M12.288 41.5763H12.4563V41.7417H12.288V41.5763Z" fill="black"/>
<path d="M12.1197 41.5763H12.288V41.7417H12.1197V41.5763Z" fill="black"/>
<path d="M11.7831 41.5763H11.9514V41.7417H11.7831V41.5763Z" fill="black"/>
<path d="M11.2782 41.5763H11.4465V41.7417H11.2782V41.5763Z" fill="black"/>
<path d="M11.1099 41.5763H11.2782V41.7417H11.1099V41.5763Z" fill="black"/>
<path d="M10.7733 41.5763H10.9416V41.7417H10.7733V41.5763Z" fill="black"/>
<path d="M9.76355 41.5763H9.93185V41.7417H9.76355V41.5763Z" fill="black"/>
<path d="M15.1491 41.7417H15.3174V41.9072H15.1491V41.7417Z" fill="black"/>
<path d="M14.9808 41.7417H15.1491V41.9072H14.9808V41.7417Z" fill="black"/>
<path d="M14.8125 41.7417H14.9808V41.9072H14.8125V41.7417Z" fill="black"/>
<path d="M14.6442 41.7417H14.8125V41.9072H14.6442V41.7417Z" fill="black"/>
<path d="M14.4759 41.7417H14.6442V41.9072H14.4759V41.7417Z" fill="black"/>
<path d="M14.3076 41.7417H14.4759V41.9072H14.3076V41.7417Z" fill="black"/>
<path d="M14.1393 41.7417H14.3076V41.9072H14.1393V41.7417Z" fill="black"/>
<path d="M13.8027 41.7417H13.971V41.9072H13.8027V41.7417Z" fill="black"/>
<path d="M13.4661 41.7417H13.6344V41.9072H13.4661V41.7417Z" fill="black"/>
<path d="M13.1295 41.7417H13.2978V41.9072H13.1295V41.7417Z" fill="black"/>
<path d="M12.7929 41.7417H12.9612V41.9072H12.7929V41.7417Z" fill="black"/>
<path d="M12.4563 41.7417H12.6246V41.9072H12.4563V41.7417Z" fill="black"/>
<path d="M12.1197 41.7417H12.288V41.9072H12.1197V41.7417Z" fill="black"/>
<path d="M11.7831 41.7417H11.9514V41.9072H11.7831V41.7417Z" fill="black"/>
<path d="M11.4465 41.7417H11.6148V41.9072H11.4465V41.7417Z" fill="black"/>
<path d="M11.1099 41.7417H11.2782V41.9072H11.1099V41.7417Z" fill="black"/>
<path d="M10.7733 41.7417H10.9416V41.9072H10.7733V41.7417Z" fill="black"/>
<path d="M10.605 41.7417H10.7733V41.9072H10.605V41.7417Z" fill="black"/>
<path d="M10.4367 41.7417H10.605V41.9072H10.4367V41.7417Z" fill="black"/>
<path d="M10.2684 41.7417H10.4367V41.9072H10.2684V41.7417Z" fill="black"/>
<path d="M10.1001 41.7417H10.2684V41.9072H10.1001V41.7417Z" fill="black"/>
<path d="M9.93185 41.7417H10.1001V41.9072H9.93185V41.7417Z" fill="black"/>
<path d="M9.76355 41.7417H9.93185V41.9072H9.76355V41.7417Z" fill="black"/>
<path d="M13.8027 41.9072H13.971V42.0726H13.8027V41.9072Z" fill="black"/>
<path d="M13.4661 41.9072H13.6344V42.0726H13.4661V41.9072Z" fill="black"/>
<path d="M13.2978 41.9072H13.4661V42.0726H13.2978V41.9072Z" fill="black"/>
<path d="M12.7929 41.9072H12.9612V42.0726H12.7929V41.9072Z" fill="black"/>
<path d="M12.6246 41.9072H12.7929V42.0726H12.6246V41.9072Z" fill="black"/>
<path d="M12.4563 41.9072H12.6246V42.0726H12.4563V41.9072Z" fill="black"/>
<path d="M12.288 41.9072H12.4563V42.0726H12.288V41.9072Z" fill="black"/>
<path d="M12.1197 41.9072H12.288V42.0726H12.1197V41.9072Z" fill="black"/>
<path d="M11.9514 41.9072H12.1197V42.0726H11.9514V41.9072Z" fill="black"/>
<path d="M11.6148 41.9072H11.7831V42.0726H11.6148V41.9072Z" fill="black"/>
<path d="M11.2782 41.9072H11.4465V42.0726H11.2782V41.9072Z" fill="black"/>
<path d="M15.1491 42.0726H15.3174V42.2381H15.1491V42.0726Z" fill="black"/>
<path d="M14.9808 42.0726H15.1491V42.2381H14.9808V42.0726Z" fill="black"/>
<path d="M14.6442 42.0726H14.8125V42.2381H14.6442V42.0726Z" fill="black"/>
<path d="M14.1393 42.0726H14.3076V42.2381H14.1393V42.0726Z" fill="black"/>
<path d="M13.971 42.0726H14.1393V42.2381H13.971V42.0726Z" fill="black"/>
<path d="M13.1295 42.0726H13.2978V42.2381H13.1295V42.0726Z" fill="black"/>
<path d="M12.7929 42.0726H12.9612V42.2381H12.7929V42.0726Z" fill="black"/>
<path d="M12.4563 42.0726H12.6246V42.2381H12.4563V42.0726Z" fill="black"/>
<path d="M12.1197 42.0726H12.288V42.2381H12.1197V42.0726Z" fill="black"/>
<path d="M11.9514 42.0726H12.1197V42.2381H11.9514V42.0726Z" fill="black"/>
<path d="M11.7831 42.0726H11.9514V42.2381H11.7831V42.0726Z" fill="black"/>
<path d="M11.6148 42.0726H11.7831V42.2381H11.6148V42.0726Z" fill="black"/>
<path d="M11.1099 42.0726H11.2782V42.2381H11.1099V42.0726Z" fill="black"/>
<path d="M10.9416 42.0726H11.1099V42.2381H10.9416V42.0726Z" fill="black"/>
<path d="M10.7733 42.0726H10.9416V42.2381H10.7733V42.0726Z" fill="black"/>
<path d="M10.605 42.0726H10.7733V42.2381H10.605V42.0726Z" fill="black"/>
<path d="M10.2684 42.0726H10.4367V42.2381H10.2684V42.0726Z" fill="black"/>
<path d="M10.1001 42.0726H10.2684V42.2381H10.1001V42.0726Z" fill="black"/>
<path d="M9.76355 42.0726H9.93185V42.2381H9.76355V42.0726Z" fill="black"/>
<path d="M15.1491 42.2381H15.3174V42.4035H15.1491V42.2381Z" fill="black"/>
<path d="M14.8125 42.2381H14.9808V42.4035H14.8125V42.2381Z" fill="black"/>
<path d="M14.3076 42.2381H14.4759V42.4035H14.3076V42.2381Z" fill="black"/>
<path d="M13.1295 42.2381H13.2978V42.4035H13.1295V42.2381Z" fill="black"/>
<path d="M12.9612 42.2381H13.1295V42.4035H12.9612V42.2381Z" fill="black"/>
<path d="M12.1197 42.2381H12.288V42.4035H12.1197V42.2381Z" fill="black"/>
<path d="M11.9514 42.2381H12.1197V42.4035H11.9514V42.2381Z" fill="black"/>
<path d="M11.1099 42.2381H11.2782V42.4035H11.1099V42.2381Z" fill="black"/>
<path d="M10.9416 42.2381H11.1099V42.4035H10.9416V42.2381Z" fill="black"/>
<path d="M10.7733 42.2381H10.9416V42.4035H10.7733V42.2381Z" fill="black"/>
<path d="M15.1491 42.4035H15.3174V42.569H15.1491V42.4035Z" fill="black"/>
<path d="M14.6442 42.4035H14.8125V42.569H14.6442V42.4035Z" fill="black"/>
<path d="M14.4759 42.4035H14.6442V42.569H14.4759V42.4035Z" fill="black"/>
<path d="M14.1393 42.4035H14.3076V42.569H14.1393V42.4035Z" fill="black"/>
<path d="M13.8027 42.4035H13.971V42.569H13.8027V42.4035Z" fill="black"/>
<path d="M13.6344 42.4035H13.8027V42.569H13.6344V42.4035Z" fill="black"/>
<path d="M13.2978 42.4035H13.4661V42.569H13.2978V42.4035Z" fill="black"/>
<path d="M13.1295 42.4035H13.2978V42.569H13.1295V42.4035Z" fill="black"/>
<path d="M12.7929 42.4035H12.9612V42.569H12.7929V42.4035Z" fill="black"/>
<path d="M12.6246 42.4035H12.7929V42.569H12.6246V42.4035Z" fill="black"/>
<path d="M12.1197 42.4035H12.288V42.569H12.1197V42.4035Z" fill="black"/>
<path d="M11.9514 42.4035H12.1197V42.569H11.9514V42.4035Z" fill="black"/>
<path d="M11.7831 42.4035H11.9514V42.569H11.7831V42.4035Z" fill="black"/>
<path d="M11.6148 42.4035H11.7831V42.569H11.6148V42.4035Z" fill="black"/>
<path d="M11.1099 42.4035H11.2782V42.569H11.1099V42.4035Z" fill="black"/>
<path d="M10.7733 42.4035H10.9416V42.569H10.7733V42.4035Z" fill="black"/>
<path d="M10.4367 42.4035H10.605V42.569H10.4367V42.4035Z" fill="black"/>
<path d="M9.93185 42.4035H10.1001V42.569H9.93185V42.4035Z" fill="black"/>
<path d="M15.1491 42.569H15.3174V42.7345H15.1491V42.569Z" fill="black"/>
<path d="M14.8125 42.569H14.9808V42.7345H14.8125V42.569Z" fill="black"/>
<path d="M14.4759 42.569H14.6442V42.7345H14.4759V42.569Z" fill="black"/>
<path d="M13.6344 42.569H13.8027V42.7345H13.6344V42.569Z" fill="black"/>
<path d="M13.4661 42.569H13.6344V42.7345H13.4661V42.569Z" fill="black"/>
<path d="M12.7929 42.569H12.9612V42.7345H12.7929V42.569Z" fill="black"/>
<path d="M12.6246 42.569H12.7929V42.7345H12.6246V42.569Z" fill="black"/>
<path d="M12.288 42.569H12.4563V42.7345H12.288V42.569Z" fill="black"/>
<path d="M11.6148 42.569H11.7831V42.7345H11.6148V42.569Z" fill="black"/>
<path d="M11.4465 42.569H11.6148V42.7345H11.4465V42.569Z" fill="black"/>
<path d="M11.2782 42.569H11.4465V42.7345H11.2782V42.569Z" fill="black"/>
<path d="M10.9416 42.569H11.1099V42.7345H10.9416V42.569Z" fill="black"/>
<path d="M10.605 42.569H10.7733V42.7345H10.605V42.569Z" fill="black"/>
<path d="M10.1001 42.569H10.2684V42.7345H10.1001V42.569Z" fill="black"/>
<path d="M9.93185 42.569H10.1001V42.7345H9.93185V42.569Z" fill="black"/>
<path d="M14.4759 42.7345H14.6442V42.8999H14.4759V42.7345Z" fill="black"/>
<path d="M14.3076 42.7345H14.4759V42.8999H14.3076V42.7345Z" fill="black"/>
<path d="M14.1393 42.7345H14.3076V42.8999H14.1393V42.7345Z" fill="black"/>
<path d="M13.971 42.7345H14.1393V42.8999H13.971V42.7345Z" fill="black"/>
<path d="M13.8027 42.7345H13.971V42.8999H13.8027V42.7345Z" fill="black"/>
<path d="M12.9612 42.7345H13.1295V42.8999H12.9612V42.7345Z" fill="black"/>
<path d="M12.4563 42.7345H12.6246V42.8999H12.4563V42.7345Z" fill="black"/>
<path d="M12.1197 42.7345H12.288V42.8999H12.1197V42.7345Z" fill="black"/>
<path d="M11.9514 42.7345H12.1197V42.8999H11.9514V42.7345Z" fill="black"/>
<path d="M11.7831 42.7345H11.9514V42.8999H11.7831V42.7345Z" fill="black"/>
<path d="M11.6148 42.7345H11.7831V42.8999H11.6148V42.7345Z" fill="black"/>
<path d="M11.4465 42.7345H11.6148V42.8999H11.4465V42.7345Z" fill="black"/>
<path d="M11.2782 42.7345H11.4465V42.8999H11.2782V42.7345Z" fill="black"/>
<path d="M11.1099 42.7345H11.2782V42.8999H11.1099V42.7345Z" fill="black"/>
<path d="M10.7733 42.7345H10.9416V42.8999H10.7733V42.7345Z" fill="black"/>
<path d="M10.605 42.7345H10.7733V42.8999H10.605V42.7345Z" fill="black"/>
<path d="M10.4367 42.7345H10.605V42.8999H10.4367V42.7345Z" fill="black"/>
<path d="M10.2684 42.7345H10.4367V42.8999H10.2684V42.7345Z" fill="black"/>
<path d="M14.8125 42.8999H14.9808V43.0654H14.8125V42.8999Z" fill="black"/>
<path d="M14.4759 42.8999H14.6442V43.0654H14.4759V42.8999Z" fill="black"/>
<path d="M13.6344 42.8999H13.8027V43.0654H13.6344V42.8999Z" fill="black"/>
<path d="M13.4661 42.8999H13.6344V43.0654H13.4661V42.8999Z" fill="black"/>
<path d="M12.7929 42.8999H12.9612V43.0654H12.7929V42.8999Z" fill="black"/>
<path d="M12.4563 42.8999H12.6246V43.0654H12.4563V42.8999Z" fill="black"/>
<path d="M12.288 42.8999H12.4563V43.0654H12.288V42.8999Z" fill="black"/>
<path d="M11.4465 42.8999H11.6148V43.0654H11.4465V42.8999Z" fill="black"/>
<path d="M11.1099 42.8999H11.2782V43.0654H11.1099V42.8999Z" fill="black"/>
<path d="M10.9416 42.8999H11.1099V43.0654H10.9416V42.8999Z" fill="black"/>
<path d="M10.7733 42.8999H10.9416V43.0654H10.7733V42.8999Z" fill="black"/>
<path d="M10.605 42.8999H10.7733V43.0654H10.605V42.8999Z" fill="black"/>
<path d="M10.4367 42.8999H10.605V43.0654H10.4367V42.8999Z" fill="black"/>
<path d="M9.93185 42.8999H10.1001V43.0654H9.93185V42.8999Z" fill="black"/>
<path d="M9.76355 42.8999H9.93185V43.0654H9.76355V42.8999Z" fill="black"/>
<path d="M14.9808 43.0654H15.1491V43.2308H14.9808V43.0654Z" fill="black"/>
<path d="M14.8125 43.0654H14.9808V43.2308H14.8125V43.0654Z" fill="black"/>
<path d="M14.3076 43.0654H14.4759V43.2308H14.3076V43.0654Z" fill="black"/>
<path d="M14.1393 43.0654H14.3076V43.2308H14.1393V43.0654Z" fill="black"/>
<path d="M13.8027 43.0654H13.971V43.2308H13.8027V43.0654Z" fill="black"/>
<path d="M13.1295 43.0654H13.2978V43.2308H13.1295V43.0654Z" fill="black"/>
<path d="M12.9612 43.0654H13.1295V43.2308H12.9612V43.0654Z" fill="black"/>
<path d="M12.7929 43.0654H12.9612V43.2308H12.7929V43.0654Z" fill="black"/>
<path d="M12.288 43.0654H12.4563V43.2308H12.288V43.0654Z" fill="black"/>
<path d="M12.1197 43.0654H12.288V43.2308H12.1197V43.0654Z" fill="black"/>
<path d="M11.7831 43.0654H11.9514V43.2308H11.7831V43.0654Z" fill="black"/>
<path d="M11.6148 43.0654H11.7831V43.2308H11.6148V43.0654Z" fill="black"/>
<path d="M11.4465 43.0654H11.6148V43.2308H11.4465V43.0654Z" fill="black"/>
<path d="M11.2782 43.0654H11.4465V43.2308H11.2782V43.0654Z" fill="black"/>
<path d="M11.1099 43.0654H11.2782V43.2308H11.1099V43.0654Z" fill="black"/>
<path d="M10.605 43.0654H10.7733V43.2308H10.605V43.0654Z" fill="black"/>
<path d="M10.4367 43.0654H10.605V43.2308H10.4367V43.0654Z" fill="black"/>
<path d="M10.2684 43.0654H10.4367V43.2308H10.2684V43.0654Z" fill="black"/>
<path d="M14.6442 43.2308H14.8125V43.3963H14.6442V43.2308Z" fill="black"/>
<path d="M14.3076 43.2308H14.4759V43.3963H14.3076V43.2308Z" fill="black"/>
<path d="M13.971 43.2308H14.1393V43.3963H13.971V43.2308Z" fill="black"/>
<path d="M13.8027 43.2308H13.971V43.3963H13.8027V43.2308Z" fill="black"/>
<path d="M12.6246 43.2308H12.7929V43.3963H12.6246V43.2308Z" fill="black"/>
<path d="M12.288 43.2308H12.4563V43.3963H12.288V43.2308Z" fill="black"/>
<path d="M12.1197 43.2308H12.288V43.3963H12.1197V43.2308Z" fill="black"/>
<path d="M11.9514 43.2308H12.1197V43.3963H11.9514V43.2308Z" fill="black"/>
<path d="M11.7831 43.2308H11.9514V43.3963H11.7831V43.2308Z" fill="black"/>
<path d="M11.6148 43.2308H11.7831V43.3963H11.6148V43.2308Z" fill="black"/>
<path d="M11.4465 43.2308H11.6148V43.3963H11.4465V43.2308Z" fill="black"/>
<path d="M11.2782 43.2308H11.4465V43.3963H11.2782V43.2308Z" fill="black"/>
<path d="M10.9416 43.2308H11.1099V43.3963H10.9416V43.2308Z" fill="black"/>
<path d="M10.4367 43.2308H10.605V43.3963H10.4367V43.2308Z" fill="black"/>
<path d="M10.1001 43.2308H10.2684V43.3963H10.1001V43.2308Z" fill="black"/>
<path d="M14.4759 43.3963H14.6442V43.5617H14.4759V43.3963Z" fill="black"/>
<path d="M14.3076 43.3963H14.4759V43.5617H14.3076V43.3963Z" fill="black"/>
<path d="M14.1393 43.3963H14.3076V43.5617H14.1393V43.3963Z" fill="black"/>
<path d="M13.971 43.3963H14.1393V43.5617H13.971V43.3963Z" fill="black"/>
<path d="M13.8027 43.3963H13.971V43.5617H13.8027V43.3963Z" fill="black"/>
<path d="M13.6344 43.3963H13.8027V43.5617H13.6344V43.3963Z" fill="black"/>
<path d="M13.4661 43.3963H13.6344V43.5617H13.4661V43.3963Z" fill="black"/>
<path d="M13.2978 43.3963H13.4661V43.5617H13.2978V43.3963Z" fill="black"/>
<path d="M13.1295 43.3963H13.2978V43.5617H13.1295V43.3963Z" fill="black"/>
<path d="M11.9514 43.3963H12.1197L12.1197 43.5617H11.9514V43.3963Z" fill="black"/>
<path d="M11.7831 43.3963H11.9514V43.5617H11.7831V43.3963Z" fill="black"/>
<path d="M11.6148 43.3963H11.7831V43.5617H11.6148V43.3963Z" fill="black"/>
<path d="M10.605 43.3963H10.7733V43.5617H10.605V43.3963Z" fill="black"/>
<path d="M10.4367 43.3963H10.605V43.5617H10.4367V43.3963Z" fill="black"/>
<path d="M10.2684 43.3963H10.4367V43.5617H10.2684V43.3963Z" fill="black"/>
<path d="M10.1001 43.3963H10.2684V43.5617H10.1001V43.3963Z" fill="black"/>
<path d="M9.76355 43.3963H9.93185V43.5617H9.76355V43.3963Z" fill="black"/>
<path d="M14.9808 43.5617H15.1491V43.7272H14.9808V43.5617Z" fill="black"/>
<path d="M14.4759 43.5617H14.6442V43.7272H14.4759V43.5617Z" fill="black"/>
<path d="M13.971 43.5617H14.1393V43.7272H13.971V43.5617Z" fill="black"/>
<path d="M13.8027 43.5617H13.971V43.7272H13.8027V43.5617Z" fill="black"/>
<path d="M13.6344 43.5617H13.8027V43.7272H13.6344V43.5617Z" fill="black"/>
<path d="M13.2978 43.5617H13.4661V43.7272H13.2978V43.5617Z" fill="black"/>
<path d="M12.7929 43.5617H12.9612V43.7272H12.7929V43.5617Z" fill="black"/>
<path d="M11.9514 43.5617H12.1197V43.7272H11.9514V43.5617Z" fill="black"/>
<path d="M11.6148 43.5617H11.7831V43.7272H11.6148V43.5617Z" fill="black"/>
<path d="M11.1099 43.5617H11.2782V43.7272H11.1099V43.5617Z" fill="black"/>
<path d="M10.7733 43.5617H10.9416V43.7272H10.7733V43.5617Z" fill="black"/>
<path d="M10.605 43.5617H10.7733V43.7272H10.605V43.5617Z" fill="black"/>
<path d="M10.4367 43.5617H10.605V43.7272H10.4367V43.5617Z" fill="black"/>
<path d="M10.1001 43.5617H10.2684V43.7272H10.1001V43.5617Z" fill="black"/>
<path d="M9.93185 43.5617H10.1001V43.7272H9.93185V43.5617Z" fill="black"/>
<path d="M9.76355 43.5617H9.93185V43.7272H9.76355V43.5617Z" fill="black"/>
<path d="M15.1491 43.7272H15.3174V43.8926H15.1491V43.7272Z" fill="black"/>
<path d="M14.8125 43.7272H14.9808V43.8926H14.8125V43.7272Z" fill="black"/>
<path d="M14.6442 43.7272H14.8125V43.8926H14.6442V43.7272Z" fill="black"/>
<path d="M14.4759 43.7272H14.6442V43.8926H14.4759V43.7272Z" fill="black"/>
<path d="M14.1393 43.7272H14.3076V43.8926H14.1393V43.7272Z" fill="black"/>
<path d="M13.971 43.7272H14.1393V43.8926H13.971V43.7272Z" fill="black"/>
<path d="M13.8027 43.7272H13.971V43.8926H13.8027V43.7272Z" fill="black"/>
<path d="M13.6344 43.7272H13.8027V43.8926H13.6344V43.7272Z" fill="black"/>
<path d="M13.4661 43.7272H13.6344V43.8926H13.4661V43.7272Z" fill="black"/>
<path d="M12.1197 43.7272H12.288V43.8926H12.1197L12.1197 43.7272Z" fill="black"/>
<path d="M11.9514 43.7272H12.1197L12.1197 43.8926H11.9514V43.7272Z" fill="black"/>
<path d="M11.4465 43.7272H11.6148V43.8926H11.4465V43.7272Z" fill="black"/>
<path d="M10.7733 43.7272H10.9416V43.8926H10.7733V43.7272Z" fill="black"/>
<path d="M10.605 43.7272H10.7733V43.8926H10.605V43.7272Z" fill="black"/>
<path d="M10.4367 43.7272H10.605V43.8926H10.4367V43.7272Z" fill="black"/>
<path d="M9.93185 43.7272H10.1001V43.8926H9.93185V43.7272Z" fill="black"/>
<path d="M9.76355 43.7272H9.93185V43.8926H9.76355V43.7272Z" fill="black"/>
<path d="M15.1491 43.8926H15.3174V44.0581H15.1491V43.8926Z" fill="black"/>
<path d="M14.6442 43.8926H14.8125V44.0581H14.6442V43.8926Z" fill="black"/>
<path d="M13.971 43.8926H14.1393V44.0581H13.971V43.8926Z" fill="black"/>
<path d="M13.6344 43.8926H13.8027V44.0581H13.6344V43.8926Z" fill="black"/>
<path d="M13.2978 43.8926L13.4661 43.8926V44.0581H13.2978V43.8926Z" fill="black"/>
<path d="M12.7929 43.8926H12.9612V44.0581H12.7929V43.8926Z" fill="black"/>
<path d="M11.7831 43.8926L11.9514 43.8926V44.0581H11.7831V43.8926Z" fill="black"/>
<path d="M11.4465 43.8926H11.6148V44.0581H11.4465V43.8926Z" fill="black"/>
<path d="M11.1099 43.8926H11.2782V44.0581H11.1099V43.8926Z" fill="black"/>
<path d="M10.9416 43.8926L11.1099 43.8926V44.0581H10.9416V43.8926Z" fill="black"/>
<path d="M10.7733 43.8926H10.9416V44.0581H10.7733V43.8926Z" fill="black"/>
<path d="M10.605 43.8926H10.7733V44.0581H10.605V43.8926Z" fill="black"/>
<path d="M10.4367 43.8926H10.605V44.0581H10.4367V43.8926Z" fill="black"/>
<path d="M10.2684 43.8926L10.4367 43.8926V44.0581H10.2684V43.8926Z" fill="black"/>
<path d="M9.76355 43.8926H9.93185V44.0581H9.76355V43.8926Z" fill="black"/>
<path d="M15.1491 44.0581H15.3174V44.2235H15.1491V44.0581Z" fill="black"/>
<path d="M14.9808 44.0581H15.1491V44.2235H14.9808V44.0581Z" fill="black"/>
<path d="M14.1393 44.0581H14.3076V44.2235H14.1393V44.0581Z" fill="black"/>
<path d="M13.6344 44.0581H13.8027V44.2235H13.6344V44.0581Z" fill="black"/>
<path d="M13.1295 44.0581H13.2978V44.2235H13.1295V44.0581Z" fill="black"/>
<path d="M12.9612 44.0581H13.1295V44.2235H12.9612V44.0581Z" fill="black"/>
<path d="M12.7929 44.0581H12.9612V44.2235H12.7929V44.0581Z" fill="black"/>
<path d="M12.4563 44.0581H12.6246V44.2235H12.4563V44.0581Z" fill="black"/>
<path d="M12.288 44.0581H12.4563V44.2235H12.288V44.0581Z" fill="black"/>
<path d="M11.9514 44.0581H12.1197V44.2235H11.9514V44.0581Z" fill="black"/>
<path d="M11.6148 44.0581H11.7831V44.2235H11.6148V44.0581Z" fill="black"/>
<path d="M11.4465 44.0581H11.6148V44.2235H11.4465V44.0581Z" fill="black"/>
<path d="M11.2782 44.0581H11.4465V44.2235H11.2782V44.0581Z" fill="black"/>
<path d="M11.1099 44.0581H11.2782V44.2235H11.1099V44.0581Z" fill="black"/>
<path d="M10.605 44.0581H10.7733V44.2235H10.605V44.0581Z" fill="black"/>
<path d="M10.1001 44.0581H10.2684V44.2235H10.1001V44.0581Z" fill="black"/>
<path d="M9.93185 44.0581H10.1001V44.2235H9.93185V44.0581Z" fill="black"/>
<path d="M15.1491 44.2235H15.3174V44.389H15.1491V44.2235Z" fill="black"/>
<path d="M14.6442 44.2235H14.8125V44.389H14.6442V44.2235Z" fill="black"/>
<path d="M14.4759 44.2235H14.6442V44.389H14.4759V44.2235Z" fill="black"/>
<path d="M13.8027 44.2235H13.971V44.389H13.8027V44.2235Z" fill="black"/>
<path d="M13.4661 44.2235H13.6344V44.389H13.4661V44.2235Z" fill="black"/>
<path d="M13.2978 44.2235H13.4661V44.389H13.2978V44.2235Z" fill="black"/>
<path d="M13.1295 44.2235H13.2978V44.389H13.1295V44.2235Z" fill="black"/>
<path d="M12.9612 44.2235H13.1295V44.389H12.9612V44.2235Z" fill="black"/>
<path d="M12.6246 44.2235H12.7929V44.389H12.6246V44.2235Z" fill="black"/>
<path d="M12.4563 44.2235H12.6246V44.389H12.4563V44.2235Z" fill="black"/>
<path d="M12.1197 44.2235H12.288V44.389H12.1197L12.1197 44.2235Z" fill="black"/>
<path d="M11.4465 44.2235H11.6148V44.389H11.4465V44.2235Z" fill="black"/>
<path d="M10.9416 44.2235H11.1099V44.389H10.9416V44.2235Z" fill="black"/>
<path d="M10.7733 44.2235H10.9416V44.389H10.7733V44.2235Z" fill="black"/>
<path d="M10.1001 44.2235H10.2684V44.389H10.1001V44.2235Z" fill="black"/>
<path d="M9.76355 44.2235H9.93185V44.389H9.76355V44.2235Z" fill="black"/>
<path d="M14.4759 44.389H14.6442V44.5544H14.4759V44.389Z" fill="black"/>
<path d="M14.1393 44.389H14.3076V44.5544H14.1393V44.389Z" fill="black"/>
<path d="M13.4661 44.389H13.6344V44.5544H13.4661V44.389Z" fill="black"/>
<path d="M13.2978 44.389H13.4661V44.5544H13.2978V44.389Z" fill="black"/>
<path d="M13.1295 44.389H13.2978V44.5544H13.1295V44.389Z" fill="black"/>
<path d="M12.7929 44.389H12.9612V44.5544H12.7929V44.389Z" fill="black"/>
<path d="M12.6246 44.389H12.7929V44.5544H12.6246V44.389Z" fill="black"/>
<path d="M12.4563 44.389H12.6246V44.5544H12.4563V44.389Z" fill="black"/>
<path d="M12.288 44.389H12.4563V44.5544H12.288V44.389Z" fill="black"/>
<path d="M11.9514 44.389H12.1197L12.1197 44.5544H11.9514V44.389Z" fill="black"/>
<path d="M11.7831 44.389H11.9514V44.5544H11.7831V44.389Z" fill="black"/>
<path d="M11.6148 44.389H11.7831V44.5544H11.6148V44.389Z" fill="black"/>
<path d="M11.4465 44.389H11.6148V44.5544H11.4465V44.389Z" fill="black"/>
<path d="M11.2782 44.389H11.4465V44.5544H11.2782V44.389Z" fill="black"/>
<path d="M11.1099 44.389H11.2782V44.5544H11.1099V44.389Z" fill="black"/>
<path d="M10.4367 44.389H10.605V44.5544H10.4367V44.389Z" fill="black"/>
<path d="M10.2684 44.389H10.4367V44.5544H10.2684V44.389Z" fill="black"/>
<path d="M10.1001 44.389H10.2684V44.5544H10.1001V44.389Z" fill="black"/>
<path d="M9.93185 44.389H10.1001V44.5544H9.93185V44.389Z" fill="black"/>
<path d="M9.76355 44.389H9.93185V44.5544H9.76355V44.389Z" fill="black"/>
<path d="M15.1491 44.5544H15.3174V44.7199H15.1491V44.5544Z" fill="black"/>
<path d="M14.9808 44.5544H15.1491V44.7199H14.9808V44.5544Z" fill="black"/>
<path d="M14.8125 44.5544H14.9808V44.7199H14.8125V44.5544Z" fill="black"/>
<path d="M14.6442 44.5544H14.8125V44.7199H14.6442V44.5544Z" fill="black"/>
<path d="M14.4759 44.5544H14.6442V44.7199H14.4759V44.5544Z" fill="black"/>
<path d="M14.3076 44.5544H14.4759V44.7199H14.3076V44.5544Z" fill="black"/>
<path d="M13.8027 44.5544H13.971V44.7199H13.8027V44.5544Z" fill="black"/>
<path d="M13.6344 44.5544H13.8027V44.7199H13.6344V44.5544Z" fill="black"/>
<path d="M13.4661 44.5544H13.6344V44.7199H13.4661V44.5544Z" fill="black"/>
<path d="M13.2978 44.5544H13.4661V44.7199H13.2978V44.5544Z" fill="black"/>
<path d="M13.1295 44.5544H13.2978V44.7199H13.1295V44.5544Z" fill="black"/>
<path d="M12.9612 44.5544H13.1295V44.7199H12.9612V44.5544Z" fill="black"/>
<path d="M12.6246 44.5544H12.7929V44.7199H12.6246V44.5544Z" fill="black"/>
<path d="M12.288 44.5544H12.4563V44.7199H12.288V44.5544Z" fill="black"/>
<path d="M11.9514 44.5544H12.1197V44.7199H11.9514V44.5544Z" fill="black"/>
<path d="M11.6148 44.5544H11.7831V44.7199H11.6148V44.5544Z" fill="black"/>
<path d="M11.4465 44.5544H11.6148V44.7199H11.4465V44.5544Z" fill="black"/>
<path d="M11.1099 44.5544H11.2782V44.7199H11.1099V44.5544Z" fill="black"/>
<path d="M10.7733 44.5544H10.9416V44.7199H10.7733V44.5544Z" fill="black"/>
<path d="M10.605 44.5544H10.7733V44.7199H10.605V44.5544Z" fill="black"/>
<path d="M10.4367 44.5544H10.605V44.7199H10.4367V44.5544Z" fill="black"/>
<path d="M9.93185 44.5544H10.1001V44.7199H9.93185V44.5544Z" fill="black"/>
<path d="M9.76355 44.5544H9.93185V44.7199H9.76355V44.5544Z" fill="black"/>
<path d="M14.8125 44.7199H14.9808V44.8853H14.8125V44.7199Z" fill="black"/>
<path d="M14.6442 44.7199H14.8125V44.8853H14.6442V44.7199Z" fill="black"/>
<path d="M14.4759 44.7199H14.6442V44.8853H14.4759V44.7199Z" fill="black"/>
<path d="M14.1393 44.7199H14.3076V44.8853H14.1393V44.7199Z" fill="black"/>
<path d="M13.971 44.7199H14.1393V44.8853H13.971V44.7199Z" fill="black"/>
<path d="M13.4661 44.7199H13.6344V44.8853H13.4661V44.7199Z" fill="black"/>
<path d="M13.2978 44.7199H13.4661V44.8853H13.2978V44.7199Z" fill="black"/>
<path d="M13.1295 44.7199H13.2978V44.8853H13.1295V44.7199Z" fill="black"/>
<path d="M12.288 44.7199H12.4563V44.8853H12.288V44.7199Z" fill="black"/>
<path d="M12.1197 44.7199H12.288V44.8853H12.1197L12.1197 44.7199Z" fill="black"/>
<path d="M11.4465 44.7199H11.6148V44.8853H11.4465V44.7199Z" fill="black"/>
<path d="M11.1099 44.7199H11.2782V44.8853H11.1099V44.7199Z" fill="black"/>
<path d="M10.9416 44.7199H11.1099V44.8853H10.9416V44.7199Z" fill="black"/>
<path d="M10.7733 44.7199H10.9416V44.8853H10.7733V44.7199Z" fill="black"/>
<path d="M10.605 44.7199H10.7733V44.8853H10.605V44.7199Z" fill="black"/>
<path d="M10.4367 44.7199H10.605V44.8853H10.4367V44.7199Z" fill="black"/>
<path d="M10.2684 44.7199H10.4367V44.8853H10.2684V44.7199Z" fill="black"/>
<path d="M9.93185 44.7199H10.1001V44.8853H9.93185V44.7199Z" fill="black"/>
<path d="M13.4661 44.8853H13.6344V45.0508H13.4661V44.8853Z" fill="black"/>
<path d="M13.2978 44.8853H13.4661V45.0508H13.2978V44.8853Z" fill="black"/>
<path d="M13.1295 44.8853H13.2978V45.0508H13.1295V44.8853Z" fill="black"/>
<path d="M12.6246 44.8853H12.7929V45.0508H12.6246V44.8853Z" fill="black"/>
<path d="M12.4563 44.8853H12.6246V45.0508H12.4563V44.8853Z" fill="black"/>
<path d="M12.288 44.8853H12.4563V45.0508H12.288V44.8853Z" fill="black"/>
<path d="M12.1197 44.8853H12.288V45.0508H12.1197V44.8853Z" fill="black"/>
<path d="M11.9514 44.8853H12.1197V45.0508H11.9514V44.8853Z" fill="black"/>
<path d="M11.4465 44.8853H11.6148V45.0508H11.4465V44.8853Z" fill="black"/>
<path d="M11.2782 44.8853H11.4465V45.0508H11.2782V44.8853Z" fill="black"/>
<path d="M11.1099 44.8853H11.2782V45.0508H11.1099V44.8853Z" fill="black"/>
<path d="M10.4367 44.8853H10.605V45.0508H10.4367V44.8853Z" fill="black"/>
<path d="M9.93185 44.8853H10.1001V45.0508H9.93185V44.8853Z" fill="black"/>
<path d="M15.1491 45.0508H15.3174V45.2162H15.1491V45.0508Z" fill="black"/>
<path d="M14.9808 45.0508H15.1491V45.2162H14.9808V45.0508Z" fill="black"/>
<path d="M14.8125 45.0508H14.9808V45.2162H14.8125V45.0508Z" fill="black"/>
<path d="M14.6442 45.0508H14.8125V45.2162H14.6442V45.0508Z" fill="black"/>
<path d="M14.4759 45.0508H14.6442V45.2162H14.4759V45.0508Z" fill="black"/>
<path d="M14.3076 45.0508H14.4759V45.2162H14.3076V45.0508Z" fill="black"/>
<path d="M14.1393 45.0508H14.3076V45.2162H14.1393V45.0508Z" fill="black"/>
<path d="M13.8027 45.0508H13.971V45.2162H13.8027V45.0508Z" fill="black"/>
<path d="M13.6344 45.0508H13.8027V45.2162H13.6344V45.0508Z" fill="black"/>
<path d="M12.7929 45.0508H12.9612V45.2162H12.7929V45.0508Z" fill="black"/>
<path d="M12.6246 45.0508H12.7929V45.2162H12.6246V45.0508Z" fill="black"/>
<path d="M12.4563 45.0508H12.6246V45.2162H12.4563V45.0508Z" fill="black"/>
<path d="M12.288 45.0508H12.4563V45.2162H12.288V45.0508Z" fill="black"/>
<path d="M12.1197 45.0508H12.288V45.2162H12.1197V45.0508Z" fill="black"/>
<path d="M11.6148 45.0508H11.7831V45.2162H11.6148V45.0508Z" fill="black"/>
<path d="M11.4465 45.0508H11.6148V45.2162H11.4465V45.0508Z" fill="black"/>
<path d="M11.1099 45.0508H11.2782V45.2162H11.1099V45.0508Z" fill="black"/>
<path d="M10.7733 45.0508H10.9416V45.2162H10.7733V45.0508Z" fill="black"/>
<path d="M10.4367 45.0508H10.605V45.2162H10.4367V45.0508Z" fill="black"/>
<path d="M10.1001 45.0508H10.2684V45.2162H10.1001V45.0508Z" fill="black"/>
<path d="M9.93185 45.0508H10.1001V45.2162H9.93185V45.0508Z" fill="black"/>
<path d="M9.76355 45.0508H9.93185V45.2162H9.76355V45.0508Z" fill="black"/>
<path d="M15.1491 45.2162H15.3174V45.3817H15.1491V45.2162Z" fill="black"/>
<path d="M14.1393 45.2162H14.3076V45.3817H14.1393V45.2162Z" fill="black"/>
<path d="M13.6344 45.2162H13.8027V45.3817H13.6344V45.2162Z" fill="black"/>
<path d="M13.4661 45.2162H13.6344V45.3817H13.4661V45.2162Z" fill="black"/>
<path d="M13.2978 45.2162H13.4661V45.3817H13.2978V45.2162Z" fill="black"/>
<path d="M13.1295 45.2162H13.2978V45.3817H13.1295V45.2162Z" fill="black"/>
<path d="M12.9612 45.2162H13.1295V45.3817H12.9612V45.2162Z" fill="black"/>
<path d="M12.7929 45.2162H12.9612V45.3817H12.7929V45.2162Z" fill="black"/>
<path d="M12.1197 45.2162H12.288V45.3817H12.1197V45.2162Z" fill="black"/>
<path d="M11.6148 45.2162H11.7831V45.3817H11.6148V45.2162Z" fill="black"/>
<path d="M11.2782 45.2162H11.4465V45.3817H11.2782V45.2162Z" fill="black"/>
<path d="M11.1099 45.2162H11.2782V45.3817H11.1099V45.2162Z" fill="black"/>
<path d="M10.4367 45.2162H10.605V45.3817H10.4367V45.2162Z" fill="black"/>
<path d="M10.2684 45.2162H10.4367V45.3817H10.2684V45.2162Z" fill="black"/>
<path d="M10.1001 45.2162H10.2684V45.3817H10.1001V45.2162Z" fill="black"/>
<path d="M9.93185 45.2162H10.1001V45.3817H9.93185V45.2162Z" fill="black"/>
<path d="M15.1491 45.3817H15.3174V45.5471H15.1491V45.3817Z" fill="black"/>
<path d="M14.8125 45.3817H14.9808V45.5471H14.8125V45.3817Z" fill="black"/>
<path d="M14.6442 45.3817H14.8125V45.5471H14.6442V45.3817Z" fill="black"/>
<path d="M14.4759 45.3817H14.6442V45.5471H14.4759V45.3817Z" fill="black"/>
<path d="M14.1393 45.3817H14.3076V45.5471H14.1393V45.3817Z" fill="black"/>
<path d="M13.4661 45.3817H13.6344V45.5471H13.4661V45.3817Z" fill="black"/>
<path d="M13.1295 45.3817H13.2978V45.5471H13.1295V45.3817Z" fill="black"/>
<path d="M12.6246 45.3817H12.7929V45.5471H12.6246V45.3817Z" fill="black"/>
<path d="M12.4563 45.3817H12.6246V45.5471H12.4563V45.3817Z" fill="black"/>
<path d="M12.288 45.3817H12.4563V45.5471H12.288V45.3817Z" fill="black"/>
<path d="M12.1197 45.3817H12.288V45.5471H12.1197V45.3817Z" fill="black"/>
<path d="M11.9514 45.3817H12.1197V45.5471H11.9514V45.3817Z" fill="black"/>
<path d="M11.2782 45.3817H11.4465V45.5471H11.2782V45.3817Z" fill="black"/>
<path d="M11.1099 45.3817H11.2782V45.5471H11.1099V45.3817Z" fill="black"/>
<path d="M10.9416 45.3817H11.1099V45.5471H10.9416V45.3817Z" fill="black"/>
<path d="M10.7733 45.3817H10.9416V45.5471H10.7733V45.3817Z" fill="black"/>
<path d="M10.605 45.3817H10.7733V45.5471H10.605V45.3817Z" fill="black"/>
<path d="M10.4367 45.3817H10.605V45.5471H10.4367V45.3817Z" fill="black"/>
<path d="M9.93185 45.3817H10.1001V45.5471H9.93185V45.3817Z" fill="black"/>
<path d="M9.76355 45.3817H9.93185V45.5471H9.76355V45.3817Z" fill="black"/>
<path d="M15.1491 45.5471H15.3174V45.7126H15.1491V45.5471Z" fill="black"/>
<path d="M14.8125 45.5471H14.9808V45.7126H14.8125V45.5471Z" fill="black"/>
<path d="M14.6442 45.5471H14.8125V45.7126H14.6442V45.5471Z" fill="black"/>
<path d="M14.4759 45.5471H14.6442V45.7126H14.4759V45.5471Z" fill="black"/>
<path d="M14.1393 45.5471H14.3076V45.7126H14.1393V45.5471Z" fill="black"/>
<path d="M13.8027 45.5471H13.971V45.7126H13.8027V45.5471Z" fill="black"/>
<path d="M13.6344 45.5471H13.8027V45.7126H13.6344V45.5471Z" fill="black"/>
<path d="M13.4661 45.5471H13.6344V45.7126H13.4661V45.5471Z" fill="black"/>
<path d="M13.2978 45.5471H13.4661V45.7126H13.2978V45.5471Z" fill="black"/>
<path d="M13.1295 45.5471H13.2978V45.7126H13.1295V45.5471Z" fill="black"/>
<path d="M12.7929 45.5471H12.9612V45.7126H12.7929V45.5471Z" fill="black"/>
<path d="M12.6246 45.5471H12.7929V45.7126H12.6246V45.5471Z" fill="black"/>
<path d="M12.288 45.5471H12.4563V45.7126H12.288V45.5471Z" fill="black"/>
<path d="M11.7831 45.5471H11.9514V45.7126H11.7831V45.5471Z" fill="black"/>
<path d="M11.6148 45.5471H11.7831V45.7126H11.6148V45.5471Z" fill="black"/>
<path d="M11.2782 45.5471H11.4465V45.7126H11.2782V45.5471Z" fill="black"/>
<path d="M10.9416 45.5471H11.1099V45.7126H10.9416V45.5471Z" fill="black"/>
<path d="M10.605 45.5471H10.7733V45.7126H10.605V45.5471Z" fill="black"/>
<path d="M10.2684 45.5471H10.4367V45.7126H10.2684V45.5471Z" fill="black"/>
<path d="M9.76355 45.5471H9.93185V45.7126H9.76355V45.5471Z" fill="black"/>
<path d="M15.1491 45.7126H15.3174V45.878H15.1491V45.7126Z" fill="black"/>
<path d="M14.8125 45.7126H14.9808V45.878H14.8125V45.7126Z" fill="black"/>
<path d="M14.6442 45.7126H14.8125V45.878H14.6442V45.7126Z" fill="black"/>
<path d="M14.4759 45.7126H14.6442V45.878H14.4759V45.7126Z" fill="black"/>
<path d="M14.1393 45.7126H14.3076V45.878H14.1393V45.7126Z" fill="black"/>
<path d="M13.6344 45.7126H13.8027V45.878H13.6344V45.7126Z" fill="black"/>
<path d="M12.9612 45.7126H13.1295V45.878H12.9612V45.7126Z" fill="black"/>
<path d="M12.7929 45.7126H12.9612V45.878H12.7929V45.7126Z" fill="black"/>
<path d="M12.6246 45.7126H12.7929V45.878H12.6246V45.7126Z" fill="black"/>
<path d="M12.4563 45.7126H12.6246V45.878H12.4563V45.7126Z" fill="black"/>
<path d="M12.1197 45.7126H12.288V45.878H12.1197V45.7126Z" fill="black"/>
<path d="M11.7831 45.7126H11.9514V45.878H11.7831V45.7126Z" fill="black"/>
<path d="M11.6148 45.7126H11.7831V45.878H11.6148V45.7126Z" fill="black"/>
<path d="M10.605 45.7126H10.7733V45.878H10.605V45.7126Z" fill="black"/>
<path d="M10.4367 45.7126H10.605V45.878H10.4367V45.7126Z" fill="black"/>
<path d="M10.2684 45.7126H10.4367V45.878H10.2684V45.7126Z" fill="black"/>
<path d="M9.76355 45.7126H9.93185V45.878H9.76355V45.7126Z" fill="black"/>
<path d="M15.1491 45.878H15.3174V46.0435H15.1491V45.878Z" fill="black"/>
<path d="M14.1393 45.878H14.3076V46.0435H14.1393V45.878Z" fill="black"/>
<path d="M13.8027 45.878H13.971V46.0435H13.8027V45.878Z" fill="black"/>
<path d="M13.4661 45.878H13.6344V46.0435H13.4661V45.878Z" fill="black"/>
<path d="M12.9612 45.878H13.1295V46.0435H12.9612V45.878Z" fill="black"/>
<path d="M12.288 45.878H12.4563V46.0435H12.288V45.878Z" fill="black"/>
<path d="M12.1197 45.878H12.288V46.0435H12.1197V45.878Z" fill="black"/>
<path d="M11.9514 45.878H12.1197V46.0435H11.9514V45.878Z" fill="black"/>
<path d="M11.7831 45.878H11.9514V46.0435H11.7831V45.878Z" fill="black"/>
<path d="M11.4465 45.878H11.6148V46.0435H11.4465V45.878Z" fill="black"/>
<path d="M10.605 45.878H10.7733V46.0435H10.605V45.878Z" fill="black"/>
<path d="M10.2684 45.878H10.4367V46.0435H10.2684V45.878Z" fill="black"/>
<path d="M15.1491 46.0435H15.3174V46.209H15.1491V46.0435Z" fill="black"/>
<path d="M14.9808 46.0435H15.1491V46.209H14.9808V46.0435Z" fill="black"/>
<path d="M14.8125 46.0435H14.9808V46.209H14.8125V46.0435Z" fill="black"/>
<path d="M14.6442 46.0435H14.8125V46.209H14.6442V46.0435Z" fill="black"/>
<path d="M14.4759 46.0435H14.6442V46.209H14.4759V46.0435Z" fill="black"/>
<path d="M14.3076 46.0435H14.4759V46.209H14.3076V46.0435Z" fill="black"/>
<path d="M14.1393 46.0435H14.3076V46.209H14.1393V46.0435Z" fill="black"/>
<path d="M13.8027 46.0435H13.971V46.209H13.8027V46.0435Z" fill="black"/>
<path d="M13.6344 46.0435H13.8027V46.209H13.6344V46.0435Z" fill="black"/>
<path d="M13.4661 46.0435H13.6344V46.209H13.4661V46.0435Z" fill="black"/>
<path d="M13.2978 46.0435H13.4661V46.209H13.2978V46.0435Z" fill="black"/>
<path d="M12.288 46.0435H12.4563V46.209H12.288V46.0435Z" fill="black"/>
<path d="M11.6148 46.0435H11.7831V46.209H11.6148V46.0435Z" fill="black"/>
<path d="M11.4465 46.0435H11.6148V46.209H11.4465V46.0435Z" fill="black"/>
<path d="M11.2782 46.0435H11.4465V46.209H11.2782V46.0435Z" fill="black"/>
<path d="M11.1099 46.0435H11.2782V46.209H11.1099V46.0435Z" fill="black"/>
<path d="M10.4367 46.0435H10.605V46.209H10.4367V46.0435Z" fill="black"/>
<path d="M10.2684 46.0435H10.4367V46.209H10.2684V46.0435Z" fill="black"/>
<path d="M9.93185 46.0435H10.1001V46.209H9.93185V46.0435Z" fill="black"/>
</g>
<defs>
<linearGradient id="paint0_linear_4350_15359" x1="14.3803" y1="22.3968" x2="53.3863" y2="23.48" gradientUnits="userSpaceOnUse">
<stop offset="0.0309998" stop-color="#E7E6E6"/>
<stop offset="1" stop-color="#D7AC2A"/>
</linearGradient>
<clipPath id="clip0_4350_15359">
<rect width="6.22703" height="6.12174" fill="white" transform="matrix(-1 0 0 1 15.6543 40.418)"/>
</clipPath>
</defs>
</svg>
