<svg width="64" height="65" viewBox="0 0 64 65" fill="none" xmlns="http://www.w3.org/2000/svg">
<rect x="8" y="18.625" width="48" height="28.0615" rx="1.47692" fill="#AFB0AB"/>
<path d="M8 20.1019C8 19.2862 8.66124 18.625 9.47692 18.625H54.5231C55.3388 18.625 56 19.2862 56 20.1019V26.0096H8V20.1019Z" fill="#185D29"/>
<path d="M12.5111 25.2712C12.3781 25.2712 12.2579 25.2314 12.1505 25.1518C12.0431 25.0722 11.9689 24.966 11.928 24.8333L10.9843 21.9034C10.9434 21.7654 10.9434 21.63 10.9843 21.4973C11.0252 21.3646 11.1019 21.2584 11.2145 21.1788L13.5545 19.475C13.6619 19.4007 13.7796 19.3635 13.9075 19.3635C14.0353 19.3635 14.153 19.4007 14.2604 19.475L16.6004 21.1788C16.713 21.2584 16.7897 21.3646 16.8306 21.4973C16.8715 21.63 16.8715 21.7654 16.8306 21.9034L15.8869 24.8333C15.846 24.966 15.7718 25.0722 15.6644 25.1518C15.557 25.2314 15.4368 25.2712 15.3038 25.2712H12.5111Z" fill="#1C1C17"/>
<rect x="19.8149" y="21.2097" width="33.2308" height="2.21538" fill="#1C1C17"/>
<rect x="10.9536" y="34.8652" width="25.1077" height="1.47692" fill="#185D29"/>
<rect x="10.9536" y="37.0806" width="21.4154" height="1.47692" fill="#185D29"/>
<rect x="10.9536" y="39.2959" width="25.1077" height="1.47692" fill="#185D29"/>
<rect x="10.9536" y="42.9883" width="14.7692" height="1.47692" fill="#185D29"/>
<rect x="44.0005" y="42.9941" width="9" height="1.47692" fill="#185D29"/>
<path d="M12.4311 27.0392V28.6504H12.2076L11.3887 27.4687H11.3737V28.6504H11.1306V27.0392H11.3556L12.1754 28.2224H12.1903V27.0392H12.4311ZM12.8595 28.6504V27.0392H13.4338C13.5592 27.0392 13.663 27.062 13.7454 27.1076C13.8277 27.1533 13.8893 27.2157 13.9302 27.2949C13.9711 27.3736 13.9916 27.4622 13.9916 27.5608C13.9916 27.6599 13.9709 27.7491 13.9294 27.8283C13.8885 27.9069 13.8267 27.9694 13.7438 28.0155C13.6614 28.0611 13.5579 28.084 13.433 28.084H13.0381V27.8778H13.411C13.4902 27.8778 13.5544 27.8642 13.6037 27.8369C13.653 27.8091 13.6892 27.7714 13.7123 27.7236C13.7354 27.6759 13.7469 27.6216 13.7469 27.5608C13.7469 27.5 13.7354 27.4459 13.7123 27.3987C13.6892 27.3515 13.6528 27.3146 13.603 27.2878C13.5537 27.2611 13.4886 27.2477 13.4079 27.2477H13.1026V28.6504H12.8595ZM14.6659 28.6504L14.2191 27.0392H14.4747L14.7886 28.2869H14.8036L15.1301 27.0392H15.3834L15.7099 28.2877H15.7248L16.0379 27.0392H16.2944L15.8468 28.6504H15.6021L15.263 27.4436H15.2504L14.9114 28.6504H14.6659ZM16.5899 28.6504V27.0392H17.1642C17.2896 27.0392 17.3934 27.062 17.4757 27.1076C17.5581 27.1533 17.6197 27.2157 17.6606 27.2949C17.7015 27.3736 17.722 27.4622 17.722 27.5608C17.722 27.6599 17.7013 27.7491 17.6598 27.8283C17.6189 27.9069 17.557 27.9694 17.4742 28.0155C17.3918 28.0611 17.2882 28.084 17.1634 28.084H16.7685V27.8778H17.1414C17.2206 27.8778 17.2848 27.8642 17.3341 27.8369C17.3834 27.8091 17.4196 27.7714 17.4427 27.7236C17.4658 27.6759 17.4773 27.6216 17.4773 27.5608C17.4773 27.5 17.4658 27.4459 17.4427 27.3987C17.4196 27.3515 17.3832 27.3146 17.3333 27.2878C17.284 27.2611 17.219 27.2477 17.1382 27.2477H16.833V28.6504H16.5899ZM18.8771 28.4506C18.8341 28.4506 18.7971 28.4354 18.7661 28.4049C18.7352 28.374 18.7197 28.3368 18.7197 28.2932C18.7197 28.2502 18.7352 28.2135 18.7661 28.1831C18.7971 28.1521 18.8341 28.1367 18.8771 28.1367C18.9201 28.1367 18.957 28.1521 18.988 28.1831C19.0189 28.2135 19.0344 28.2502 19.0344 28.2932C19.0344 28.3221 19.0271 28.3486 19.0124 28.3727C18.9982 28.3963 18.9793 28.4152 18.9557 28.4293C18.9321 28.4435 18.9059 28.4506 18.8771 28.4506ZM18.8771 27.6434C18.8341 27.6434 18.7971 27.6282 18.7661 27.5978C18.7352 27.5668 18.7197 27.5296 18.7197 27.4861C18.7197 27.443 18.7352 27.4063 18.7661 27.3759C18.7971 27.345 18.8341 27.3295 18.8771 27.3295C18.9201 27.3295 18.957 27.345 18.988 27.3759C19.0189 27.4063 19.0344 27.443 19.0344 27.4861C19.0344 27.5149 19.0271 27.5414 19.0124 27.5655C18.9982 27.5891 18.9793 27.608 18.9557 27.6222C18.9321 27.6363 18.9059 27.6434 18.8771 27.6434ZM20.6413 28.6771C20.517 28.6766 20.4107 28.6438 20.3226 28.5788C20.2345 28.5138 20.1671 28.4191 20.1204 28.2948C20.0738 28.1705 20.0504 28.0208 20.0504 27.8456C20.0504 27.6709 20.0738 27.5217 20.1204 27.3979C20.1677 27.2742 20.2353 27.1798 20.3234 27.1147C20.4121 27.0497 20.518 27.0172 20.6413 27.0172C20.7645 27.0172 20.8702 27.05 20.9583 27.1155C21.0464 27.1805 21.1138 27.275 21.1605 27.3987C21.2077 27.522 21.2313 27.6709 21.2313 27.8456C21.2313 28.0213 21.2079 28.1713 21.1613 28.2956C21.1146 28.4194 21.0472 28.514 20.9591 28.5796C20.871 28.6446 20.765 28.6771 20.6413 28.6771ZM20.6413 28.4671C20.7503 28.4671 20.8356 28.4139 20.8969 28.3074C20.9588 28.2009 20.9898 28.047 20.9898 27.8456C20.9898 27.7118 20.9756 27.5988 20.9473 27.5065C20.9195 27.4137 20.8794 27.3434 20.8269 27.2957C20.775 27.2474 20.7131 27.2233 20.6413 27.2233C20.5327 27.2233 20.4475 27.2768 20.3856 27.3838C20.3237 27.4908 20.2925 27.6447 20.292 27.8456C20.292 27.9798 20.3059 28.0934 20.3336 28.1862C20.362 28.2785 20.4021 28.3486 20.454 28.3963C20.5059 28.4435 20.5684 28.4671 20.6413 28.4671ZM22.12 27.0172C22.1918 27.0177 22.2626 27.0308 22.3324 27.0565C22.4021 27.0822 22.4651 27.1242 22.5212 27.1824C22.5778 27.2406 22.6229 27.3193 22.6565 27.4184C22.6906 27.517 22.7079 27.6397 22.7084 27.7866C22.7084 27.9277 22.6943 28.0533 22.666 28.1634C22.6376 28.273 22.597 28.3656 22.544 28.4411C22.4916 28.5166 22.4278 28.5741 22.3528 28.6134C22.2778 28.6528 22.1934 28.6724 22.0995 28.6724C22.0035 28.6724 21.9183 28.6535 21.8438 28.6158C21.7694 28.578 21.7088 28.5258 21.6621 28.4592C21.6154 28.3921 21.5863 28.315 21.5748 28.2279H21.8147C21.8305 28.2972 21.8625 28.3533 21.9107 28.3963C21.9595 28.4388 22.0224 28.46 22.0995 28.46C22.2175 28.46 22.3096 28.4086 22.3757 28.3058C22.4417 28.2025 22.475 28.0583 22.4756 27.8731H22.463C22.4357 27.9182 22.4016 27.957 22.3607 27.9896C22.3203 28.0221 22.275 28.0472 22.2246 28.0651C22.1743 28.0829 22.1205 28.0918 22.0633 28.0918C21.9705 28.0918 21.8861 28.069 21.81 28.0234C21.734 27.9778 21.6734 27.9151 21.6283 27.8354C21.5832 27.7556 21.5606 27.6646 21.5606 27.5624C21.5606 27.4606 21.5837 27.3683 21.6299 27.2854C21.6765 27.2026 21.7416 27.137 21.825 27.0888C21.9089 27.04 22.0072 27.0161 22.12 27.0172ZM22.1208 27.2217C22.0594 27.2217 22.0041 27.2369 21.9548 27.2673C21.906 27.2972 21.8674 27.3379 21.8391 27.3893C21.8108 27.4402 21.7966 27.4968 21.7966 27.5592C21.7966 27.6216 21.8103 27.6783 21.8375 27.7291C21.8653 27.7795 21.9031 27.8196 21.9508 27.8495C21.9991 27.8789 22.0542 27.8936 22.116 27.8936C22.1622 27.8936 22.2052 27.8847 22.2451 27.8668C22.2849 27.849 22.3198 27.8243 22.3497 27.7929C22.3796 27.7609 22.4029 27.7247 22.4197 27.6843C22.4365 27.6439 22.4449 27.6014 22.4449 27.5569C22.4449 27.4976 22.4307 27.4425 22.4024 27.3916C22.3746 27.3408 22.3363 27.2999 22.2875 27.2689C22.2388 27.2375 22.1832 27.2217 22.1208 27.2217ZM23.1662 28.6653C23.1232 28.6653 23.0862 28.6501 23.0553 28.6197C23.0243 28.5888 23.0089 28.5515 23.0089 28.508C23.0089 28.465 23.0243 28.4283 23.0553 28.3979C23.0862 28.3669 23.1232 28.3514 23.1662 28.3514C23.2092 28.3514 23.2462 28.3669 23.2771 28.3979C23.3081 28.4283 23.3235 28.465 23.3235 28.508C23.3235 28.5368 23.3162 28.5633 23.3015 28.5875C23.2874 28.6111 23.2685 28.6299 23.2449 28.6441C23.2213 28.6583 23.195 28.6653 23.1662 28.6653ZM23.7093 28.6504V28.4742L24.2545 27.9093C24.3127 27.8479 24.3607 27.7942 24.3985 27.748C24.4368 27.7014 24.4653 27.657 24.4842 27.6151C24.5031 27.5731 24.5126 27.5285 24.5126 27.4813C24.5126 27.4278 24.5 27.3817 24.4748 27.3429C24.4496 27.3035 24.4153 27.2734 24.3717 27.2524C24.3282 27.2309 24.2792 27.2201 24.2246 27.2201C24.1669 27.2201 24.1166 27.2319 24.0736 27.2555C24.0306 27.2791 23.9975 27.3125 23.9744 27.3555C23.9514 27.3985 23.9398 27.4488 23.9398 27.5065H23.7077C23.7077 27.4084 23.7303 27.3227 23.7754 27.2493C23.8205 27.1758 23.8824 27.1189 23.9611 27.0785C24.0397 27.0376 24.1292 27.0172 24.2293 27.0172C24.3306 27.0172 24.4197 27.0374 24.4968 27.0778C24.5744 27.1176 24.635 27.1722 24.6785 27.2414C24.7221 27.3101 24.7438 27.3877 24.7438 27.4743C24.7438 27.534 24.7326 27.5925 24.71 27.6497C24.688 27.7069 24.6494 27.7706 24.5944 27.8409C24.5393 27.9106 24.4627 27.9953 24.3646 28.095L24.0445 28.4301V28.4419H24.7698V28.6504H23.7093ZM25.6736 28.6724C25.575 28.6724 25.4864 28.6535 25.4077 28.6158C25.3296 28.5775 25.2672 28.525 25.2205 28.4584C25.1738 28.3918 25.1489 28.3158 25.1458 28.2303H25.3818C25.3875 28.2995 25.4182 28.3564 25.4738 28.401C25.5294 28.4456 25.596 28.4679 25.6736 28.4679C25.7355 28.4679 25.7903 28.4537 25.8381 28.4254C25.8863 28.3965 25.9241 28.3569 25.9513 28.3066C25.9791 28.2562 25.993 28.1988 25.993 28.1343C25.993 28.0687 25.9789 28.0103 25.9506 27.9589C25.9222 27.9075 25.8832 27.8671 25.8333 27.8377C25.784 27.8083 25.7274 27.7934 25.6634 27.7929C25.6146 27.7929 25.5656 27.8013 25.5163 27.818C25.467 27.8348 25.4271 27.8569 25.3967 27.8841L25.1741 27.8511L25.2645 27.0392H26.1504V27.2477H25.4667L25.4156 27.6985H25.425C25.4565 27.668 25.4982 27.6426 25.5501 27.6222C25.6026 27.6017 25.6587 27.5915 25.7185 27.5915C25.8166 27.5915 25.9039 27.6148 25.9805 27.6615C26.0576 27.7082 26.1181 27.7719 26.1622 27.8527C26.2068 27.9329 26.2288 28.0252 26.2283 28.1296C26.2288 28.234 26.2052 28.3271 26.1575 28.4089C26.1103 28.4907 26.0447 28.5552 25.9608 28.6024C25.8774 28.6491 25.7817 28.6724 25.6736 28.6724ZM26.5556 28.3357V28.139L27.2519 27.0392H27.4069V27.3287H27.3085L26.8105 28.117V28.1296H27.7648V28.3357H26.5556ZM27.3195 28.6504V28.2759L27.3211 28.1862V27.0392H27.5516V28.6504H27.3195ZM28.2104 28.6653C28.1674 28.6653 28.1304 28.6501 28.0995 28.6197C28.0685 28.5888 28.053 28.5515 28.053 28.508C28.053 28.465 28.0685 28.4283 28.0995 28.3979C28.1304 28.3669 28.1674 28.3514 28.2104 28.3514C28.2534 28.3514 28.2904 28.3669 28.3213 28.3979C28.3523 28.4283 28.3677 28.465 28.3677 28.508C28.3677 28.5368 28.3604 28.5633 28.3457 28.5875C28.3315 28.6111 28.3127 28.6299 28.2891 28.6441C28.2655 28.6583 28.2392 28.6653 28.2104 28.6653ZM28.7535 28.6504V28.4742L29.2987 27.9093C29.3569 27.8479 29.4049 27.7942 29.4427 27.748C29.4809 27.7014 29.5095 27.657 29.5284 27.6151C29.5473 27.5731 29.5567 27.5285 29.5567 27.4813C29.5567 27.4278 29.5441 27.3817 29.519 27.3429C29.4938 27.3035 29.4594 27.2734 29.4159 27.2524C29.3724 27.2309 29.3233 27.2201 29.2688 27.2201C29.2111 27.2201 29.1608 27.2319 29.1177 27.2555C29.0747 27.2791 29.0417 27.3125 29.0186 27.3555C28.9955 27.3985 28.984 27.4488 28.984 27.5065H28.7519C28.7519 27.4084 28.7745 27.3227 28.8196 27.2493C28.8647 27.1758 28.9266 27.1189 29.0052 27.0785C29.0839 27.0376 29.1733 27.0172 29.2735 27.0172C29.3747 27.0172 29.4639 27.0374 29.541 27.0778C29.6186 27.1176 29.6792 27.1722 29.7227 27.2414C29.7663 27.3101 29.788 27.3877 29.788 27.4743C29.788 27.534 29.7768 27.5925 29.7542 27.6497C29.7322 27.7069 29.6936 27.7706 29.6386 27.8409C29.5835 27.9106 29.5069 27.9953 29.4088 28.095L29.0886 28.4301V28.4419H29.814V28.6504H28.7535ZM30.7218 27.0172C30.7936 27.0177 30.8644 27.0308 30.9342 27.0565C31.0039 27.0822 31.0669 27.1242 31.123 27.1824C31.1796 27.2406 31.2247 27.3193 31.2583 27.4184C31.2924 27.517 31.3097 27.6397 31.3102 27.7866C31.3102 27.9277 31.2961 28.0533 31.2677 28.1634C31.2394 28.273 31.1988 28.3656 31.1458 28.4411C31.0933 28.5166 31.0296 28.5741 30.9546 28.6134C30.8796 28.6528 30.7952 28.6724 30.7013 28.6724C30.6053 28.6724 30.5201 28.6535 30.4456 28.6158C30.3711 28.578 30.3106 28.5258 30.2639 28.4592C30.2172 28.3921 30.1881 28.315 30.1766 28.2279H30.4165C30.4322 28.2972 30.4642 28.3533 30.5125 28.3963C30.5613 28.4388 30.6242 28.46 30.7013 28.46C30.8193 28.46 30.9113 28.4086 30.9774 28.3058C31.0435 28.2025 31.0768 28.0583 31.0773 27.8731H31.0648C31.0375 27.9182 31.0034 27.957 30.9625 27.9896C30.9221 28.0221 30.8767 28.0472 30.8264 28.0651C30.776 28.0829 30.7223 28.0918 30.6651 28.0918C30.5723 28.0918 30.4878 28.069 30.4118 28.0234C30.3357 27.9778 30.2752 27.9151 30.2301 27.8354C30.185 27.7556 30.1624 27.6646 30.1624 27.5624C30.1624 27.4606 30.1855 27.3683 30.2316 27.2854C30.2783 27.2026 30.3433 27.137 30.4267 27.0888C30.5107 27.04 30.609 27.0161 30.7218 27.0172ZM30.7225 27.2217C30.6612 27.2217 30.6058 27.2369 30.5565 27.2673C30.5078 27.2972 30.4692 27.3379 30.4409 27.3893C30.4126 27.4402 30.3984 27.4968 30.3984 27.5592C30.3984 27.6216 30.412 27.6783 30.4393 27.7291C30.4671 27.7795 30.5049 27.8196 30.5526 27.8495C30.6009 27.8789 30.6559 27.8936 30.7178 27.8936C30.764 27.8936 30.807 27.8847 30.8468 27.8668C30.8867 27.849 30.9216 27.8243 30.9515 27.7929C30.9814 27.7609 31.0047 27.7247 31.0215 27.6843C31.0383 27.6439 31.0467 27.6014 31.0467 27.5569C31.0467 27.4976 31.0325 27.4425 31.0042 27.3916C30.9764 27.3408 30.9381 27.2999 30.8893 27.2689C30.8405 27.2375 30.785 27.2217 30.7225 27.2217ZM31.6344 28.3357V28.139L32.3307 27.0392H32.4857V27.3287H32.3873L31.8893 28.117V28.1296H32.8436V28.3357H31.6344ZM32.3983 28.6504V28.2759L32.3999 28.1862V27.0392H32.6304V28.6504H32.3983ZM33.2892 28.6653C33.2462 28.6653 33.2092 28.6501 33.1783 28.6197C33.1473 28.5888 33.1318 28.5515 33.1318 28.508C33.1318 28.465 33.1473 28.4283 33.1783 28.3979C33.2092 28.3669 33.2462 28.3514 33.2892 28.3514C33.3322 28.3514 33.3692 28.3669 33.4001 28.3979C33.431 28.4283 33.4465 28.465 33.4465 28.508C33.4465 28.5368 33.4392 28.5633 33.4245 28.5875C33.4103 28.6111 33.3915 28.6299 33.3678 28.6441C33.3442 28.6583 33.318 28.6653 33.2892 28.6653ZM34.3348 28.6724C34.2268 28.6724 34.1303 28.6538 34.0453 28.6166C33.9609 28.5793 33.894 28.5277 33.8447 28.4616C33.7959 28.395 33.7697 28.3179 33.766 28.2303H34.013C34.0162 28.278 34.0322 28.3194 34.061 28.3546C34.0904 28.3892 34.1287 28.416 34.1759 28.4348C34.2231 28.4537 34.2755 28.4632 34.3332 28.4632C34.3967 28.4632 34.4528 28.4521 34.5016 28.4301C34.5509 28.4081 34.5894 28.3774 34.6172 28.3381C34.645 28.2982 34.6589 28.2523 34.6589 28.2004C34.6589 28.1464 34.645 28.0989 34.6172 28.058C34.59 28.0166 34.5498 27.984 34.4969 27.9604C34.4444 27.9368 34.381 27.925 34.3065 27.925H34.1704V27.7268H34.3065C34.3663 27.7268 34.4187 27.716 34.4638 27.6945C34.5095 27.673 34.5451 27.6431 34.5708 27.6048C34.5965 27.566 34.6094 27.5207 34.6094 27.4687C34.6094 27.4189 34.5981 27.3757 34.5755 27.3389C34.5535 27.3017 34.522 27.2726 34.4811 27.2516C34.4408 27.2306 34.393 27.2201 34.338 27.2201C34.2855 27.2201 34.2365 27.2298 34.1908 27.2493C34.1457 27.2681 34.109 27.2954 34.0807 27.3311C34.0524 27.3662 34.0372 27.4084 34.0351 27.4577H33.7998C33.8025 27.3707 33.8282 27.2941 33.8769 27.228C33.9262 27.1619 33.9913 27.1103 34.072 27.073C34.1528 27.0358 34.2425 27.0172 34.3411 27.0172C34.4444 27.0172 34.5336 27.0374 34.6086 27.0778C34.6841 27.1176 34.7423 27.1708 34.7832 27.2375C34.8247 27.3041 34.8451 27.377 34.8446 27.4562C34.8451 27.5464 34.82 27.6229 34.7691 27.6859C34.7187 27.7488 34.6516 27.791 34.5677 27.8125V27.8251C34.6747 27.8414 34.7575 27.8839 34.8163 27.9526C34.8755 28.0213 34.9049 28.1065 34.9044 28.2083C34.9049 28.2969 34.8803 28.3764 34.8304 28.4466C34.7811 28.5169 34.7137 28.5722 34.6283 28.6126C34.5428 28.6525 34.445 28.6724 34.3348 28.6724ZM35.9907 27.7425V27.9471H35.2764V27.7425H35.9907ZM36.3411 28.3357V28.139L37.0374 27.0392H37.1923V27.3287H37.094L36.596 28.117V28.1296H37.5503V28.3357H36.3411ZM37.105 28.6504V28.2759L37.1066 28.1862V27.0392H37.3371V28.6504H37.105ZM38.4592 28.6771C38.3349 28.6766 38.2287 28.6438 38.1406 28.5788C38.0525 28.5138 37.9851 28.4191 37.9384 28.2948C37.8918 28.1705 37.8684 28.0208 37.8684 27.8456C37.8684 27.6709 37.8918 27.5217 37.9384 27.3979C37.9856 27.2742 38.0533 27.1798 38.1414 27.1147C38.23 27.0497 38.336 27.0172 38.4592 27.0172C38.5825 27.0172 38.6882 27.05 38.7763 27.1155C38.8644 27.1805 38.9318 27.275 38.9785 27.3987C39.0257 27.522 39.0493 27.6709 39.0493 27.8456C39.0493 28.0213 39.0259 28.1713 38.9793 28.2956C38.9326 28.4194 38.8652 28.514 38.7771 28.5796C38.689 28.6446 38.583 28.6771 38.4592 28.6771ZM38.4592 28.4671C38.5683 28.4671 38.6536 28.4139 38.7149 28.3074C38.7768 28.2009 38.8077 28.047 38.8077 27.8456C38.8077 27.7118 38.7936 27.5988 38.7653 27.5065C38.7375 27.4137 38.6973 27.3434 38.6449 27.2957C38.593 27.2474 38.5311 27.2233 38.4592 27.2233C38.3507 27.2233 38.2654 27.2768 38.2036 27.3838C38.1417 27.4908 38.1105 27.6447 38.1099 27.8456C38.1099 27.9798 38.1238 28.0934 38.1516 28.1862C38.18 28.2785 38.2201 28.3486 38.272 28.3963C38.3239 28.4435 38.3863 28.4671 38.4592 28.4671ZM39.4132 28.6504L40.1165 27.2595V27.2477H39.3031V27.0392H40.3683V27.2548L39.6673 28.6504H39.4132ZM40.5969 28.6653C40.5539 28.6653 40.5169 28.6501 40.486 28.6197C40.455 28.5888 40.4396 28.5515 40.4396 28.508C40.4396 28.465 40.455 28.4283 40.486 28.3979C40.5169 28.3669 40.5539 28.3514 40.5969 28.3514C40.6399 28.3514 40.6769 28.3669 40.7078 28.3979C40.7388 28.4283 40.7543 28.465 40.7543 28.508C40.7543 28.5368 40.7469 28.5633 40.7322 28.5875C40.7181 28.6111 40.6992 28.6299 40.6756 28.6441C40.652 28.6583 40.6258 28.6653 40.5969 28.6653ZM41.6426 28.6771C41.5183 28.6766 41.412 28.6438 41.3239 28.5788C41.2358 28.5138 41.1684 28.4191 41.1217 28.2948C41.0751 28.1705 41.0517 28.0208 41.0517 27.8456C41.0517 27.6709 41.0751 27.5217 41.1217 27.3979C41.169 27.2742 41.2366 27.1798 41.3247 27.1147C41.4134 27.0497 41.5193 27.0172 41.6426 27.0172C41.7658 27.0172 41.8715 27.05 41.9596 27.1155C42.0477 27.1805 42.1151 27.275 42.1618 27.3987C42.209 27.522 42.2326 27.6709 42.2326 27.8456C42.2326 28.0213 42.2092 28.1713 42.1626 28.2956C42.1159 28.4194 42.0485 28.514 41.9604 28.5796C41.8723 28.6446 41.7663 28.6771 41.6426 28.6771ZM41.6426 28.4671C41.7516 28.4671 41.8369 28.4139 41.8982 28.3074C41.9601 28.2009 41.9911 28.047 41.9911 27.8456C41.9911 27.7118 41.9769 27.5988 41.9486 27.5065C41.9208 27.4137 41.8807 27.3434 41.8282 27.2957C41.7763 27.2474 41.7144 27.2233 41.6426 27.2233C41.534 27.2233 41.4488 27.2768 41.3869 27.3838C41.325 27.4908 41.2938 27.6447 41.2933 27.8456C41.2933 27.9798 41.3072 28.0934 41.3349 28.1862C41.3633 28.2785 41.4034 28.3486 41.4553 28.3963C41.5072 28.4435 41.5697 28.4671 41.6426 28.4671ZM43.1464 28.6771C43.0221 28.6766 42.9159 28.6438 42.8278 28.5788C42.7397 28.5138 42.6723 28.4191 42.6256 28.2948C42.579 28.1705 42.5556 28.0208 42.5556 27.8456C42.5556 27.6709 42.579 27.5217 42.6256 27.3979C42.6728 27.2742 42.7405 27.1798 42.8286 27.1147C42.9173 27.0497 43.0232 27.0172 43.1464 27.0172C43.2697 27.0172 43.3754 27.05 43.4635 27.1155C43.5516 27.1805 43.619 27.275 43.6657 27.3987C43.7129 27.522 43.7365 27.6709 43.7365 27.8456C43.7365 28.0213 43.7131 28.1713 43.6665 28.2956C43.6198 28.4194 43.5524 28.514 43.4643 28.5796C43.3762 28.6446 43.2702 28.6771 43.1464 28.6771ZM43.1464 28.4671C43.2555 28.4671 43.3408 28.4139 43.4021 28.3074C43.464 28.2009 43.495 28.047 43.495 27.8456C43.495 27.7118 43.4808 27.5988 43.4525 27.5065C43.4247 27.4137 43.3846 27.3434 43.3321 27.2957C43.2802 27.2474 43.2183 27.2233 43.1464 27.2233C43.0379 27.2233 42.9527 27.2768 42.8908 27.3838C42.8289 27.4908 42.7977 27.6447 42.7971 27.8456C42.7971 27.9798 42.811 28.0934 42.8388 28.1862C42.8672 28.2785 42.9073 28.3486 42.9592 28.3963C43.0111 28.4435 43.0735 28.4671 43.1464 28.4671ZM44.6503 28.6771C44.526 28.6766 44.4198 28.6438 44.3317 28.5788C44.2436 28.5138 44.1762 28.4191 44.1295 28.2948C44.0829 28.1705 44.0595 28.0208 44.0595 27.8456C44.0595 27.6709 44.0829 27.5217 44.1295 27.3979C44.1767 27.2742 44.2444 27.1798 44.3325 27.1147C44.4211 27.0497 44.5271 27.0172 44.6503 27.0172C44.7736 27.0172 44.8793 27.05 44.9674 27.1155C45.0555 27.1805 45.1229 27.275 45.1696 27.3987C45.2168 27.522 45.2404 27.6709 45.2404 27.8456C45.2404 28.0213 45.217 28.1713 45.1704 28.2956C45.1237 28.4194 45.0563 28.514 44.9682 28.5796C44.8801 28.6446 44.7741 28.6771 44.6503 28.6771ZM44.6503 28.4671C44.7594 28.4671 44.8447 28.4139 44.906 28.3074C44.9679 28.2009 44.9989 28.047 44.9989 27.8456C44.9989 27.7118 44.9847 27.5988 44.9564 27.5065C44.9286 27.4137 44.8885 27.3434 44.836 27.2957C44.7841 27.2474 44.7222 27.2233 44.6503 27.2233C44.5418 27.2233 44.4565 27.2768 44.3947 27.3838C44.3328 27.4908 44.3016 27.6447 44.301 27.8456C44.301 27.9798 44.3149 28.0934 44.3427 28.1862C44.3711 28.2785 44.4112 28.3486 44.4631 28.3963C44.515 28.4435 44.5774 28.4671 44.6503 28.4671Z" fill="#1C1C17"/>
<rect x="10.9536" y="30.6504" width="6.64615" height="1.47692" fill="#185D29"/>
</svg>
