<svg width="73" height="72" viewBox="0 0 73 72" fill="none" xmlns="http://www.w3.org/2000/svg">
<path d="M62.7706 17.4767C70.4189 30.8651 71.4392 43.8695 60.2088 54.4336C48.6419 65.3142 31.5757 69.1144 17.6895 61.4115C3.62036 53.6071 -2.63897 42.9651 2.02567 27.5654C5.85243 14.9318 21.1913 19.8798 34.3035 18.3735C47.2118 16.8907 56.0461 7.83653 62.7706 17.4767Z" fill="#FCF0E3"/>
<mask id="mask0_5700_26088" style="mask-type:alpha" maskUnits="userSpaceOnUse" x="0" y="4" width="73" height="62">
<path d="M68.8429 15.3724C76.4913 28.7608 71.4392 43.8695 60.2088 54.4336C48.6419 65.3143 31.5757 69.1144 17.6895 61.4115C3.62036 53.6071 -2.63897 42.9651 2.02567 27.5654C5.85243 14.9318 15.9906 6.75379 29.1028 5.24757C42.0112 3.76476 62.1184 5.73227 68.8429 15.3724Z" fill="#FCF0E3"/>
</mask>
<g mask="url(#mask0_5700_26088)">
<path fill-rule="evenodd" clip-rule="evenodd" d="M39.9079 53.9696L40.6324 48.6085L54.3369 46.3164L55.274 48.8941L39.9079 53.9696Z" fill="#FBBFA3"/>
<path d="M41.5839 53.0761C40.8007 53.8671 39.6495 54.171 38.579 53.8705C36.9533 53.4145 36.0025 51.7208 36.4591 50.0955C36.5992 49.5952 36.8656 49.1374 37.2292 48.7699C38.0122 47.9794 39.1635 47.675 40.2342 47.9758C41.0219 48.1969 41.6758 48.7118 42.0762 49.4246C42.4764 50.1378 42.5752 50.9639 42.3537 51.7515C42.2133 52.2514 41.9468 52.7097 41.5837 53.0766L41.5839 53.0761Z" fill="#FBBFA3"/>
<path d="M54.6851 46.2653C55.4011 46.2612 55.985 46.838 55.9896 47.5542C55.9937 48.2702 55.4169 48.8542 54.7011 48.8586C53.9848 48.8629 53.4011 48.2859 53.3967 47.5701C53.3923 46.8542 53.9694 46.2701 54.6852 46.2657L54.6851 46.2653Z" fill="#FBBFA3"/>
<path d="M60.0291 47.3254C60.7931 46.9371 63.675 45.4436 63.9036 44.9801C64.0625 44.6574 63.3496 44.6672 62.8278 44.7552C62.7583 44.7672 62.6952 44.7792 62.6418 44.7909C62.0848 44.9128 60.9318 45.7396 60.4333 45.8168C60.3265 45.8334 60.2223 45.8568 60.1205 45.8854C59.4577 46.0704 58.8918 46.4604 58.3258 46.4469C57.673 46.4314 56.769 46.3671 56.6255 45.9145C56.6462 45.8503 56.673 45.7798 56.7049 45.705C56.7247 45.6583 56.7467 45.6097 56.7706 45.56C56.9612 45.1613 57.2705 44.6855 57.6078 44.3838C58.0543 43.9844 58.4412 43.1814 58.1713 42.9442C57.8023 42.6201 56.7476 43.228 56.1983 43.9763C55.6012 44.4578 53.6897 45.9417 53.2573 47.0174C53.193 47.1774 53.1597 47.3565 53.1367 47.5101C53.0015 48.4088 52.8023 47.3277 52.6461 48.4803C52.6351 48.5614 50.639 47.752 51.1532 49.1232C51.1218 49.4645 52.3226 48.6252 52.3147 49.1232L53.089 49.1232C50.4305 49.4556 53.6485 49.5874 53.643 49.4772C53.6253 49.1257 53.9597 49.4179 53.9753 49.1449C53.9995 48.7211 54.3076 49.4772 56.5291 49.1891C57.6307 48.8126 59.3726 47.6602 59.9379 47.3718L60.0291 47.3254Z" fill="#FBBFA3"/>
<path d="M35.6775 49.5096C34.8465 47.1432 32.7802 41.0503 31.4729 38.0327L31.4739 38.0322C31.3667 37.809 31.2824 37.5709 31.2316 37.3168C30.9074 35.6944 31.9498 34.1183 33.5598 33.7965C34.892 33.5302 36.1932 34.2076 36.7871 35.3679L36.7884 35.3674C38.0018 37.6646 39.9706 42.5007 41.4848 46.7994C40.1167 48.0465 36.1767 49.3266 35.6775 49.5096Z" fill="#00407A"/>
<path fill-rule="evenodd" clip-rule="evenodd" d="M35.5694 49.5954L41.4877 46.4124L42.262 48.3482L36.1911 51.5843L35.5694 49.5954Z" fill="#00315E"/>
<path d="M38.0839 59.3169C42.0068 70.1579 36.255 87.5319 36.255 87.5319C36.255 87.5319 27.7127 91.4979 19.8725 88.1713L16.9663 75.102C16.9663 75.102 14.737 64.4333 21.2422 59.6975C27.7477 54.9617 38.0839 59.3169 38.0839 59.3169Z" fill="#00315E"/>
<path d="M34.8807 45.0495C36.813 43.0626 36.7012 41.2431 35.9496 39.814C35.979 39.7885 36.0097 39.7654 36.0387 39.7388C36.7306 39.0945 37.1303 38.2192 37.1635 37.2743C37.1785 36.8561 37.1209 36.4441 36.9919 36.0492C36.6257 34.9269 35.7183 34.0848 34.6159 33.7605C34.6162 33.7587 34.6173 33.7521 34.6173 33.7521C34.6173 33.7521 34.3765 33.6078 29.9008 32.4976C27.2438 31.7911 24.3713 30.2239 19.4161 33.3653C18.292 34.3905 15.9003 35.1149 13.9844 36.9424C13.3453 37.3515 12.8334 37.9571 12.5619 38.6989C12.2363 39.5868 12.2764 40.5481 12.6741 41.406C13.0721 42.2638 13.7803 42.9152 14.6682 43.2401C15.061 43.3844 15.4705 43.4575 15.8852 43.4575C16.062 43.4575 16.2361 43.4424 16.4073 43.4166C17.4118 46.1428 19.7411 53.3973 19.7411 53.3973C18.2487 59.629 17.0974 65.0458 16.1284 71.3792C25.3395 76.187 37.1953 71.0822 39.7157 69.7589C41.0103 69.0797 35.4803 46.9465 34.8807 45.0488V45.0495Z" fill="#00407A"/>
<path d="M36.9917 36.0496C37.1206 36.4445 37.1779 36.8561 37.1632 37.2744C37.1297 38.2192 36.73 39.0945 36.0381 39.7389C35.3459 40.3832 34.4444 40.7197 33.4996 40.6855C32.0205 40.6334 30.7185 39.6526 30.2598 38.2465C30.1308 37.8516 30.0735 37.44 30.0882 37.0217C30.1577 35.0712 31.8014 33.5407 33.7519 33.6099C35.2309 33.663 36.5329 34.6432 36.9917 36.0493V36.0496Z" fill="#00407A"/>
<path d="M26.8931 33.7914C26.0894 34.255 25.4583 34.4972 24.5565 34.5192C23.2165 34.5556 22.7273 33.7718 22.28 33.6526L17.9336 23.6167L25.7959 27.1606L25.814 27.4936L26.8927 33.7917L26.8931 33.7914Z" fill="#FBBFA3"/>
<path d="M17.3177 65.14C17.6878 65.8064 17.4474 66.6468 16.781 67.0168C16.1143 67.3869 15.274 67.1465 14.9043 66.4801C14.5343 65.8137 14.7743 64.9734 15.441 64.603C16.1073 64.2329 16.948 64.4733 17.3177 65.1397V65.14Z" fill="#FBBFA3"/>
<path d="M17.3213 65.1395C18.0456 65.8841 20.0045 65.4467 20.7917 65.6933C21.579 65.94 21.6932 67.0275 21.6932 67.0275C21.6932 67.0275 22.2984 67.7088 22.5175 68.1708C22.7369 68.6327 22.3596 69.0307 21.6478 69.0374C20.9361 69.0437 21.2767 69.7939 20.6593 70.1531C20.0419 70.5127 19.4954 70.1657 19.0897 70.9578C18.6844 71.75 15.0938 66.7374 15.0938 66.7374L17.3213 65.1392V65.1395Z" fill="#FBBFA3"/>
<path d="M8.23086 56.4518C7.87201 56.4518 7.51805 56.3889 7.17807 56.2649C6.41004 55.9832 5.79786 55.4196 5.45368 54.6778C5.1095 53.9356 5.07525 53.1046 5.35653 52.3366C5.79645 51.1349 6.95163 50.3274 8.2312 50.3274C8.59006 50.3274 8.94437 50.3903 9.28366 50.5143C10.0517 50.796 10.6639 51.3596 11.008 52.1014C11.3522 52.8436 11.3868 53.6746 11.1052 54.4426C10.6653 55.6443 9.50974 56.4518 8.23016 56.4518H8.23086Z" fill="#3D3433"/>
<path d="M15.8852 43.4579C15.4701 43.4579 15.061 43.3848 14.6679 43.2405C13.78 42.9155 13.0721 42.2642 12.6741 41.4063C12.2764 40.5481 12.2363 39.5869 12.5619 38.699C13.0707 37.3093 14.4068 36.376 15.8859 36.376C16.301 36.376 16.7106 36.449 17.1033 36.5926C18.936 37.2642 19.8809 39.3014 19.2096 41.1345C18.7005 42.5245 17.3647 43.4579 15.8856 43.4579H15.8852Z" fill="#00407A"/>
<path fill-rule="evenodd" clip-rule="evenodd" d="M5.55469 54.8755L11.1996 54.2563L17.3224 65.1393L15.5788 67.3966L5.55469 54.8755Z" fill="#FBBFA3"/>
<path d="M8.23548 56.4522C7.12258 56.4522 6.09633 55.8484 5.55648 54.8763C4.73674 53.4003 5.27066 51.5326 6.74661 50.7136C7.20085 50.4613 7.7138 50.3281 8.23024 50.3281C9.34314 50.3281 10.3694 50.9319 10.9092 51.9041C11.3065 52.619 11.4012 53.4461 11.1765 54.2323C10.9515 55.0185 10.434 55.6702 9.71911 56.0671C9.26522 56.3194 8.75193 56.4526 8.23584 56.4526L8.23548 56.4522Z" fill="#FBBFA3"/>
<path d="M12.4836 14.6812C13.6727 9.2693 32.5266 3.04108 32.4337 12.8275C32.403 16.0758 30.609 19.9157 31.1311 22.9543C31.6094 25.7378 30.8669 26.7746 28.3595 28.4176C25.8702 30.0491 26.4729 28.0133 22.8327 29.1675C19.2242 30.3119 13.9253 29.5732 12.8274 24.9188C12.0146 21.4727 11.8347 17.6339 12.4832 14.6812H12.4836Z" fill="#1A1A1A"/>
<path d="M13.7912 26.7406C16.2107 26.7406 18.1722 24.2696 18.1722 21.2214C18.1722 18.1732 16.2107 15.7021 13.7912 15.7021C11.3716 15.7021 9.41016 18.1732 9.41016 21.2214C9.41016 24.2696 11.3716 26.7406 13.7912 26.7406Z" fill="#1A1A1A"/>
<path d="M20.8238 32.6896L21.6512 32.1994L17.9883 23.7422L25.7283 27.2309L25.7461 27.5586L26.5288 31.6396L27.0285 31.7731C27.2867 33.3137 27.8919 35.7793 26.1965 36.2919C24.6699 36.7531 21.2878 34.1446 20.8238 32.6896Z" fill="#FBBFA3"/>
<path d="M24.6771 30.6845C23.8295 30.5853 23.0761 30.3459 22.3007 29.9916C21.5684 29.6572 20.8622 29.2735 20.1906 28.8367L17.9844 23.7424L25.7244 27.2311L25.7422 27.5589L26.3033 30.8344C25.7617 30.7806 25.218 30.7478 24.6771 30.6842V30.6845Z" fill="#F9AF91"/>
<path d="M15.3719 18.483C15.3719 18.483 12.5301 17.8729 12.9005 21.0646C13.2709 24.2559 15.5816 24.3199 16.2633 24.4575C16.2633 24.4575 17.5352 30.141 24.5463 29.5966C31.5574 29.0525 30.4078 23.6234 30.3564 20.0236C30.3051 16.4235 30.7065 10.1726 26.1176 9.71201C21.4885 9.24727 14.9652 9.55162 15.3719 18.4834V18.483Z" fill="#FBBFA3"/>
<path d="M22.9458 20.018C22.9692 20.5376 22.5674 20.9783 22.0474 21.0017C21.5278 21.0254 21.0872 20.6232 21.0635 20.1036C21.0401 19.584 21.4419 19.1434 21.9615 19.1197C22.4811 19.0959 22.9217 19.4981 22.9454 20.018H22.9458Z" fill="#1A1A1A"/>
<path d="M27.7463 20.018C27.7697 20.5376 27.3678 20.9783 26.8482 21.0017C26.3286 21.0254 25.888 20.6232 25.8643 20.1036C25.8405 19.584 26.2427 19.1434 26.7623 19.1197C27.2819 19.0959 27.7225 19.4981 27.7463 20.018Z" fill="#1A1A1A"/>
<path d="M22.517 23.478C23.7777 24.244 25.4577 24.6189 26.9242 24.4617C26.4882 25.6134 26.0273 26.4066 24.3329 26.1365C22.9451 25.9156 22.2148 24.687 22.5167 23.478H22.517Z" fill="#AF4652"/>
<path d="M22.4527 24.0178C22.3615 25.0227 23.1271 26.043 24.307 26.2307C24.8092 26.3107 25.2274 26.2013 25.5443 26.1129C25.6677 25.7223 25.791 25.332 25.9144 24.9416C24.8546 24.6485 23.7944 24.3553 22.7347 24.0625C22.6449 24.0377 22.5456 24.0153 22.4527 24.0178Z" fill="white"/>
<path d="M22.6797 24.2071C23.0836 24.6854 23.656 25.001 24.2559 25.1785C24.7465 25.3235 25.2577 25.3815 25.7696 25.4049C25.8185 25.2505 25.8671 25.096 25.916 24.9419C24.982 24.6837 24.0477 24.4255 23.1133 24.1672L22.6797 24.2074V24.2071Z" fill="#E6E8EB"/>
<path d="M26.3954 24.4945C26.3032 24.7548 26.2291 24.9579 26.1837 25.0211C26.1159 25.1155 24.1323 25.2937 22.4554 24.1507C22.4421 23.9302 22.4449 23.7527 22.5186 23.478C23.4998 24.0658 25.2347 24.4893 26.3951 24.4945H26.3954Z" fill="white"/>
<path d="M23.326 17.8152C23.3624 17.7652 23.2247 17.579 22.906 17.3973C22.594 17.2159 22.0775 17.0618 21.5185 17.1156C20.9384 17.1708 20.4754 17.4189 20.1991 17.6565C20.0596 17.7753 19.965 17.8868 19.9097 17.9766C19.8566 18.064 19.8437 18.1227 19.8657 18.1468C19.8884 18.1712 19.9485 18.1541 20.0366 18.1125C20.1211 18.0702 20.2396 18.0112 20.3856 17.9382C20.6718 17.7959 21.0918 17.6366 21.5538 17.5919C22.037 17.5461 22.464 17.6244 22.7767 17.7089C23.0884 17.7925 23.2869 17.8721 23.3264 17.8148L23.326 17.8152Z" fill="#1A1A1A"/>
<path d="M26.026 17.6964C26.0757 17.7449 26.2556 17.6293 26.5456 17.4881C26.8367 17.3455 27.241 17.1876 27.7242 17.1411C28.1861 17.0971 28.6285 17.174 28.9367 17.2589C29.0939 17.3029 29.2215 17.3385 29.3127 17.3637C29.407 17.3878 29.4692 17.3934 29.487 17.3648C29.5041 17.3372 29.48 17.2816 29.4115 17.2061C29.3399 17.1286 29.2257 17.037 29.0663 16.9468C28.7498 16.7662 28.2483 16.6107 27.6679 16.6666C27.1089 16.7201 26.6309 16.9696 26.3594 17.2065C26.0805 17.4451 25.981 17.6541 26.026 17.6964Z" fill="#1A1A1A"/>
<path d="M13.4491 19.9066C13.2052 20.7512 13.5515 21.6415 13.8918 22.4522C13.9928 22.6933 14.1046 22.9473 14.3205 23.0948C14.5361 23.2422 14.8884 23.2195 15.0016 22.9843C15.1109 22.7565 14.9492 22.5004 14.823 22.2813C14.6965 22.0626 14.6249 21.7344 14.8373 21.5975C14.9359 21.5339 15.0655 21.5391 15.1696 21.4843C15.3957 21.3651 15.3943 21.0419 15.336 20.7927C15.2556 20.4479 15.127 20.1145 14.9558 19.8046C14.7877 19.5006 14.5225 19.1892 14.1752 19.1952C13.8118 19.2014 13.5497 19.5575 13.4488 19.9066H13.4491Z" fill="#F9AF91"/>
<path d="M15.3712 18.4827C19.1442 17.6364 24.4411 15.7069 25.402 11.774C25.402 11.774 27.2546 16.1443 32.2279 18.2399C32.2279 18.2399 31.9124 9.12817 25.823 9.12817C19.7341 9.12817 16.3946 10.2456 15.3708 14.0149C14.5892 16.8925 15.3708 18.4827 15.3708 18.4827H15.3712Z" fill="#1A1A1A"/>
<path d="M15.3711 18.4825C15.3907 19.4599 16.4871 22.9604 16.4871 22.9604C16.4871 22.9604 16.2761 18.2183 16.9089 17.2155C17.5417 16.2126 15.3711 18.4825 15.3711 18.4825Z" fill="#1A1A1A"/>
<path d="M22.0011 23.7458C22.0483 24.7833 21.2457 25.6628 20.2083 25.71C19.1708 25.7571 18.2913 24.9545 18.2442 23.9171C18.197 22.8793 18.9996 22.0001 20.0374 21.9529C21.0748 21.9057 21.9543 22.7084 22.0015 23.7462L22.0011 23.7458Z" fill="#F9AF91"/>
<path d="M30.3935 23.3635C30.4393 24.3703 29.6604 25.2232 28.6537 25.2693C27.6471 25.3151 26.7941 24.5362 26.748 23.5295C26.7022 22.5228 27.4814 21.6699 28.4878 21.6237C29.4944 21.578 30.3477 22.3568 30.3935 23.3635Z" fill="#F9AF91"/>
<path d="M25.6465 22.6293C25.7678 22.7534 25.5798 23.1077 25.1469 23.1916C24.7139 23.2744 24.4075 23.0151 24.4739 22.8551C24.5354 22.6884 24.7789 22.6216 25.027 22.5685C25.2768 22.5259 25.5277 22.4976 25.6465 22.6293Z" fill="#F69C7C"/>
<path d="M5.21484 52.8603L5.35495 52.3361C5.51743 51.8958 10.272 41.5133 13.0254 37.83L13.2592 37.5176L19.0075 41.593L18.8045 41.9137C16.5259 45.5135 12.8339 50.517 11.198 54.2569L5.21518 52.8606L5.21484 52.8603Z" fill="#00407A"/>
<path fill-rule="evenodd" clip-rule="evenodd" d="M29.2065 54.2642C29.4056 54.2456 29.6048 54.2271 29.8036 54.2086C29.7047 46.5463 29.4528 38.0853 29.9053 32.4983C29.8424 32.485 29.7757 32.4665 29.7051 32.4434C28.712 32.1656 27.6823 31.7886 26.5205 31.5981L26.5285 31.6397L27.0282 31.7732C27.2766 33.2541 27.8448 35.589 26.3828 36.2235C27.3014 39.6413 29.2327 46.055 29.2065 54.2642Z" fill="#00315E"/>
<path fill-rule="evenodd" clip-rule="evenodd" d="M20.6523 40.8487C20.6548 40.857 20.66 40.8644 20.6684 40.8693L21.0884 41.13C21.0958 41.1345 21.1041 41.1366 21.1125 41.1359C21.1146 41.1359 21.1164 41.1355 21.1181 41.1352L21.0636 40.6331L20.6523 40.8487Z" fill="#FEFEFE"/>
<path fill-rule="evenodd" clip-rule="evenodd" d="M21.0615 40.6146L21.0339 40.362C21.0318 40.3403 21.0105 40.3372 21.0018 40.3494L20.6583 40.8166C20.6555 40.8204 20.6537 40.8246 20.6523 40.8292L21.0556 40.6178L21.0615 40.6146Z" fill="#FEFEFE"/>
<path fill-rule="evenodd" clip-rule="evenodd" d="M21.7162 40.292L21.082 40.6243L21.0827 40.631L21.1365 41.1286C21.1407 41.1261 21.1442 41.1226 21.1474 41.1188L21.7368 40.3161C21.7491 40.2997 21.7348 40.2819 21.7159 40.292H21.7162Z" fill="#FEFEFE"/>
<path fill-rule="evenodd" clip-rule="evenodd" d="M20.3227 41.8192L20.3195 41.7601C20.3195 41.7601 20.2996 41.787 20.258 41.8129C20.235 41.8272 20.2063 41.8328 20.1745 41.8345C20.1204 41.837 20.0791 41.8248 20.0501 41.7972C20.0211 41.7695 20.0054 41.7287 20.003 41.6742L19.9883 41.374L20.1137 41.3681L20.1267 41.6368C20.1284 41.67 20.1354 41.6944 20.148 41.7105C20.1606 41.7266 20.1798 41.7339 20.2056 41.7325C20.2406 41.7308 20.2657 41.7178 20.2801 41.6937C20.2947 41.6696 20.3007 41.6301 20.2979 41.576L20.2874 41.3593L20.4128 41.353L20.4355 41.8132L20.3227 41.8188V41.8192Z" fill="#FEFEFE"/>
<path fill-rule="evenodd" clip-rule="evenodd" d="M20.9746 41.7873L20.8492 41.7936L20.8359 41.5248C20.8341 41.4916 20.8271 41.4668 20.8146 41.4511C20.802 41.435 20.7828 41.4277 20.7569 41.4291C20.722 41.4309 20.6968 41.4438 20.6825 41.4679C20.6682 41.492 20.6619 41.5311 20.6647 41.5857L20.6751 41.8023L20.5497 41.8082L20.5273 41.348L20.6231 41.3435L20.6255 41.4015C20.6255 41.4015 20.6584 41.3676 20.7052 41.348C20.73 41.3375 20.7569 41.3285 20.788 41.3267C20.8415 41.3243 20.8827 41.3365 20.912 41.3641C20.941 41.3917 20.9571 41.433 20.9599 41.4875L20.9746 41.7876V41.7873Z" fill="#FEFEFE"/>
<path fill-rule="evenodd" clip-rule="evenodd" d="M21.2103 41.7756L21.0849 41.7819L21.0625 41.3214L21.188 41.3154L21.2103 41.7756Z" fill="#FEFEFE"/>
<path fill-rule="evenodd" clip-rule="evenodd" d="M21.4829 41.7629L21.2852 41.3111L21.4165 41.3045L21.5182 41.5624C21.5287 41.5903 21.5402 41.6155 21.5402 41.6155C21.5402 41.6155 21.5486 41.5928 21.5577 41.5603L21.6335 41.2936L21.7649 41.2874L21.6122 41.7563L21.4833 41.7626L21.4829 41.7629Z" fill="#FEFEFE"/>
<path fill-rule="evenodd" clip-rule="evenodd" d="M22.0569 41.7428C21.9828 41.7463 21.9238 41.7288 21.8801 41.6897C21.8364 41.6509 21.8126 41.5939 21.8091 41.5192C21.8053 41.4419 21.8217 41.3815 21.8584 41.3374C21.8948 41.2934 21.9472 41.2696 22.0153 41.2665C22.0803 41.2634 22.1317 41.2794 22.1701 41.3147C22.2082 41.35 22.2288 41.4003 22.2319 41.4657L22.2347 41.5265L21.9377 41.5408C21.9409 41.5764 21.9528 41.6037 21.9734 41.6229C21.994 41.6421 22.0223 41.6509 22.0583 41.6488C22.0859 41.6474 22.1121 41.6432 22.1366 41.6366C22.161 41.6296 22.1865 41.6191 22.2127 41.6051L22.2176 41.7022C22.1963 41.7141 22.1729 41.7236 22.1484 41.7302C22.1236 41.7368 22.0932 41.741 22.0572 41.7428H22.0569ZM22.0202 41.356C21.9936 41.3574 21.973 41.3668 21.9587 41.3843C21.9444 41.4017 21.937 41.4262 21.9363 41.4573L22.1124 41.4486C22.1103 41.4175 22.1009 41.3941 22.0845 41.378C22.0681 41.3619 22.0464 41.3546 22.0198 41.356H22.0202Z" fill="#FEFEFE"/>
<path fill-rule="evenodd" clip-rule="evenodd" d="M22.5729 41.2389C22.59 41.2382 22.604 41.2385 22.6155 41.2406L22.6117 41.3587C22.6012 41.3566 22.589 41.3556 22.5743 41.3563C22.5341 41.3584 22.5033 41.3699 22.482 41.3919C22.4607 41.4136 22.4509 41.4429 22.4527 41.48L22.4642 41.7141L22.3388 41.7204L22.3164 41.2602L22.4115 41.2556L22.4153 41.3381C22.4153 41.3381 22.4432 41.2948 22.4904 41.2658C22.5152 41.2507 22.5442 41.2406 22.5729 41.2392V41.2389Z" fill="#FEFEFE"/>
<path fill-rule="evenodd" clip-rule="evenodd" d="M23.0593 41.5519C23.0614 41.5991 23.0471 41.6362 23.0153 41.6624C22.9838 41.6886 22.9353 41.7032 22.8699 41.7064C22.8364 41.7081 22.8077 41.7071 22.784 41.7039C22.7599 41.7008 22.7378 41.6949 22.7165 41.6872L22.7113 41.5834C22.7351 41.5932 22.762 41.6012 22.7917 41.6072C22.8214 41.6131 22.8472 41.6155 22.8692 41.6145C22.9147 41.6124 22.937 41.5981 22.9356 41.5719C22.9349 41.5621 22.9318 41.554 22.9251 41.5481C22.9189 41.5422 22.908 41.5359 22.8926 41.5285C22.8776 41.5215 22.8574 41.5135 22.8322 41.5041C22.7959 41.4908 22.7693 41.4786 22.7522 41.4667C22.7351 41.4548 22.7221 41.4408 22.7137 41.4251C22.7053 41.409 22.7008 41.3891 22.6994 41.3653C22.6973 41.3245 22.7116 41.292 22.7424 41.2682C22.7731 41.2441 22.8175 41.2308 22.8755 41.228C22.9311 41.2252 22.9856 41.2347 23.039 41.2563L23.0055 41.3489C22.9817 41.3402 22.9601 41.3332 22.9395 41.3276C22.9192 41.3224 22.8986 41.3203 22.8776 41.321C22.8406 41.3227 22.8224 41.3339 22.8235 41.3538C22.8242 41.365 22.8304 41.3744 22.843 41.3821C22.8553 41.3898 22.8822 41.4006 22.9234 41.415C22.9601 41.4279 22.987 41.4401 23.0045 41.452C23.0219 41.4639 23.0348 41.4779 23.0436 41.4939C23.0523 41.51 23.0572 41.5296 23.0586 41.5523L23.0593 41.5519Z" fill="#FEFEFE"/>
<path fill-rule="evenodd" clip-rule="evenodd" d="M23.4665 41.6656L23.4626 41.5992C23.4427 41.6268 23.3952 41.6516 23.3732 41.6631C23.3512 41.6743 23.3225 41.6809 23.2865 41.6827C23.2425 41.6848 23.2069 41.6739 23.1803 41.6498C23.1538 41.6257 23.1394 41.5904 23.137 41.5436C23.1345 41.4947 23.1499 41.458 23.1827 41.4328C23.2159 41.408 23.267 41.3926 23.3354 41.3871L23.4151 41.3804L23.4141 41.3605C23.412 41.314 23.3868 41.2917 23.3389 41.2938C23.3023 41.2959 23.2596 41.3088 23.2111 41.3336L23.1653 41.2508C23.217 41.2204 23.275 41.2036 23.3393 41.2005C23.4011 41.1973 23.449 41.2085 23.4833 41.234C23.5175 41.2592 23.536 41.2994 23.5388 41.3542L23.5538 41.661L23.4661 41.6652L23.4665 41.6656ZM23.4189 41.4541L23.3704 41.458C23.334 41.4608 23.3071 41.4688 23.2897 41.4818C23.2725 41.4947 23.2645 41.5135 23.2656 41.538C23.2673 41.5736 23.2886 41.5901 23.3292 41.5883C23.3582 41.5869 23.3812 41.5775 23.3976 41.56C23.4144 41.5426 23.4221 41.5198 23.4207 41.4919L23.4186 41.4541H23.4189Z" fill="#FEFEFE"/>
<path fill-rule="evenodd" clip-rule="evenodd" d="M23.7936 41.6496L23.6678 41.6556L23.6367 41.0147L23.7622 41.0088L23.7936 41.6496Z" fill="#FEFEFE"/>
<path fill-rule="evenodd" clip-rule="evenodd" d="M24.0979 41.1743C24.1573 41.1715 24.2045 41.1896 24.2388 41.2291C24.273 41.2686 24.2922 41.3252 24.2957 41.3986C24.2992 41.4734 24.2856 41.5317 24.2548 41.574C24.2237 41.6163 24.179 41.639 24.1206 41.6418C24.0902 41.6432 24.0626 41.6393 24.0385 41.6296C24.0141 41.6198 23.9938 41.6044 23.9777 41.5834L23.9798 41.6407L23.9064 41.6442L23.875 41.0037L23.9491 41.0002L23.9568 41.1557C23.9582 41.1868 23.9613 41.2487 23.9613 41.2487C23.9896 41.2022 24.035 41.1774 24.0979 41.1743ZM24.0885 41.2361C24.0431 41.2382 24.0109 41.2529 23.9924 41.2794C23.9739 41.3063 23.9662 41.3504 23.969 41.4119L23.9693 41.415C23.9721 41.4769 23.9847 41.5205 24.006 41.546C24.0273 41.5715 24.0609 41.5831 24.107 41.581C24.1479 41.5789 24.1773 41.5628 24.1958 41.5317C24.2143 41.501 24.2223 41.4576 24.2195 41.4014C24.2167 41.3444 24.2045 41.3018 24.1832 41.2742C24.1619 41.2466 24.1301 41.234 24.0888 41.2361H24.0885Z" fill="#FEFEFE"/>
<path fill-rule="evenodd" clip-rule="evenodd" d="M24.6155 41.6092C24.5547 41.612 24.5071 41.5925 24.4722 41.5505L24.4848 41.8102L24.4107 41.8137L24.3789 41.1592L24.4509 41.1557L24.453 41.2175C24.453 41.2175 24.4834 41.1763 24.5145 41.1609C24.5372 41.1494 24.5634 41.1421 24.5935 41.1407C24.6522 41.1379 24.699 41.156 24.7332 41.1952C24.7678 41.2343 24.787 41.2909 24.7905 41.365C24.794 41.4387 24.7807 41.4971 24.75 41.5404C24.7192 41.5834 24.6745 41.6064 24.6155 41.6092ZM24.5833 41.2036C24.5386 41.2056 24.5068 41.22 24.4883 41.2462C24.4698 41.2724 24.4614 41.3126 24.4635 41.3667L24.4642 41.3811C24.467 41.4422 24.4795 41.4859 24.5012 41.5124C24.5229 41.5386 24.5564 41.5509 24.6022 41.5488C24.6399 41.5467 24.6689 41.5299 24.6888 41.4985C24.7084 41.4667 24.7171 41.4233 24.7144 41.3685C24.7116 41.3133 24.699 41.2717 24.6763 41.2434C24.6535 41.2151 24.6228 41.2022 24.5837 41.2039L24.5833 41.2036Z" fill="#FEFEFE"/>
<path fill-rule="evenodd" clip-rule="evenodd" d="M25.0893 41.1169C25.1092 41.1159 25.127 41.1166 25.1427 41.1194L25.1371 41.1882C25.12 41.185 25.1036 41.184 25.0879 41.1847C25.0637 41.1861 25.0421 41.1938 25.0222 41.2078C25.0023 41.2221 24.9872 41.241 24.9768 41.2647C24.9663 41.2885 24.9617 41.3147 24.9631 41.343L24.9754 41.5925L24.9013 41.596L24.8789 41.1358L24.9474 41.1323L24.9519 41.2151C24.9519 41.2151 24.9904 41.1606 25.0134 41.1438C25.0361 41.1274 25.0617 41.1183 25.0893 41.1169Z" fill="#FEFEFE"/>
<path d="M26.3995 36.2144C29.0694 43.2302 30.7924 63.4002 30.9241 72.7715L30.6823 72.7743C30.5499 63.3726 28.8206 43.3975 26.1602 36.3007L26.1909 36.2926C26.2646 36.2703 26.3342 36.2441 26.3995 36.2144Z" fill="#00315E"/>
<path fill-rule="evenodd" clip-rule="evenodd" d="M29.0627 54.9663L29.6598 55.0219L31.1697 72.7194C29.0302 73.1743 26.666 73.4664 24.2578 73.3882C27.3261 70.9991 29.0889 63.2097 29.0623 54.9663H29.0627Z" fill="#00315E"/>
<path fill-rule="evenodd" clip-rule="evenodd" d="M19.3158 54.9455L36.9877 53.1963L37.2421 54.3033L19.0586 56.027L19.3158 54.9455Z" fill="#1A1A1A"/>
<path fill-rule="evenodd" clip-rule="evenodd" d="M29.2734 55.374C28.7951 55.4174 28.3719 55.0651 28.3279 54.5868C28.2842 54.1084 28.6364 53.6852 29.1151 53.6416L29.8381 53.5755C29.8569 53.5738 29.8737 53.579 29.8884 53.5909C29.9031 53.6031 29.9111 53.6189 29.9128 53.6374L29.9366 53.8942L29.1448 53.9665C28.8464 53.9938 28.6259 54.2583 28.6535 54.5567C28.6808 54.8555 28.945 55.0756 29.2437 55.048L30.0355 54.9757L30.0589 55.2325C30.0624 55.2703 30.0344 55.3038 29.9967 55.3073L29.2734 55.3733V55.374Z" fill="#CCCCCC"/>
<path fill-rule="evenodd" clip-rule="evenodd" d="M28.8209 54.6712C28.749 54.6772 28.6861 54.6237 28.6801 54.5521C28.6742 54.4801 28.7277 54.4172 28.7993 54.4112L29.2878 54.3711C29.3598 54.3651 29.4227 54.4186 29.4286 54.4902C29.4345 54.5619 29.3811 54.6247 29.3094 54.6307L28.8209 54.6709V54.6712Z" fill="#CCCCCC"/>
<path fill-rule="evenodd" clip-rule="evenodd" d="M30.7099 42.8788L31.4457 42.8477L31.734 42.666C31.7627 42.6478 31.7913 42.6391 31.8249 42.6377L32.408 42.6163C32.4384 42.6153 32.4643 42.6205 32.4919 42.6335L32.8277 42.7897L33.6223 42.7561C33.689 42.7533 33.7463 42.8057 33.7491 42.8728L33.9375 47.3504C33.9402 47.4175 33.8878 47.4745 33.8211 47.4772L30.909 47.5995C30.8423 47.6023 30.785 47.5499 30.7822 47.4832L30.5939 43.0053C30.5911 42.9382 30.6435 42.8812 30.7102 42.8784L30.7099 42.8788Z" fill="#B3B3B3"/>
<path d="M33.5617 42.8647L30.7804 42.9817C30.7162 42.9844 30.6663 43.0387 30.669 43.1029L30.8488 47.3795C30.8515 47.4437 30.9058 47.4936 30.97 47.4909L33.7513 47.374C33.8156 47.3713 33.8655 47.317 33.8628 47.2527L33.6829 42.9762C33.6802 42.9119 33.6259 42.862 33.5617 42.8647Z" fill="#E6E6E6"/>
<path fill-rule="evenodd" clip-rule="evenodd" d="M31.6513 43.6379L31.6506 43.6222C31.6506 43.6222 31.6453 43.6292 31.6341 43.6362C31.6279 43.64 31.6202 43.6414 31.6114 43.6417C31.5971 43.6424 31.5859 43.639 31.5782 43.6313C31.5705 43.6239 31.5664 43.6128 31.5657 43.5984L31.5625 43.5177L31.596 43.5163L31.5992 43.5886C31.5995 43.5977 31.6013 43.604 31.6048 43.6085C31.6079 43.6127 31.6132 43.6148 31.6202 43.6145C31.6296 43.6141 31.6362 43.6106 31.6401 43.604C31.6439 43.5974 31.6457 43.5869 31.645 43.5722L31.6425 43.5139L31.6761 43.5125L31.6813 43.6362L31.6509 43.6375L31.6513 43.6379Z" fill="#00407A"/>
<path fill-rule="evenodd" clip-rule="evenodd" d="M31.8262 43.6307L31.7926 43.6321L31.7895 43.5598C31.7891 43.5507 31.787 43.5444 31.7839 43.5399C31.7807 43.5357 31.7755 43.5336 31.7685 43.5339C31.7591 43.5343 31.7525 43.5378 31.7486 43.5444C31.7448 43.5511 31.743 43.5615 31.7437 43.5762L31.7462 43.6346L31.7123 43.636L31.707 43.5123L31.7329 43.5112L31.7336 43.5266C31.7336 43.5266 31.7427 43.5175 31.7549 43.5123C31.7615 43.5095 31.7689 43.507 31.7773 43.5067C31.7916 43.506 31.8028 43.5095 31.8105 43.5172C31.8181 43.5245 31.8223 43.5357 31.823 43.5504L31.8265 43.6311L31.8262 43.6307Z" fill="#00407A"/>
<path fill-rule="evenodd" clip-rule="evenodd" d="M31.8868 43.6283L31.8529 43.6297L31.8477 43.506L31.8815 43.5046L31.8868 43.6283Z" fill="#00407A"/>
<path fill-rule="evenodd" clip-rule="evenodd" d="M31.9626 43.6251L31.9102 43.5035L31.9454 43.5021L31.9723 43.5717C31.9751 43.5794 31.9783 43.586 31.9783 43.586C31.9783 43.586 31.9807 43.5797 31.9832 43.571L32.0038 43.4997L32.0391 43.4983L31.9972 43.6237L31.9626 43.6251Z" fill="#00407A"/>
<path fill-rule="evenodd" clip-rule="evenodd" d="M32.113 43.6206C32.0931 43.6213 32.0773 43.6168 32.0658 43.606C32.0543 43.5955 32.048 43.5801 32.0469 43.5602C32.0462 43.5396 32.0508 43.5231 32.0606 43.5116C32.0704 43.5001 32.0847 43.4934 32.1029 43.4927C32.1203 43.492 32.134 43.4966 32.1444 43.506C32.1546 43.5155 32.1598 43.5291 32.1609 43.5465L32.1616 43.563L32.0819 43.5661C32.0826 43.5759 32.0857 43.5829 32.0913 43.5881C32.0969 43.5934 32.1043 43.5958 32.114 43.5951C32.1214 43.5948 32.1284 43.5937 32.135 43.592C32.1416 43.5902 32.1483 43.5874 32.1553 43.5836L32.1563 43.6098C32.1504 43.6129 32.1444 43.6154 32.1378 43.6171C32.1312 43.6189 32.1228 43.6199 32.1133 43.6203L32.113 43.6206ZM32.1039 43.5165C32.0969 43.5168 32.0913 43.5193 32.0875 43.5238C32.0836 43.5287 32.0815 43.535 32.0812 43.5434L32.1284 43.5413C32.1277 43.5329 32.1256 43.5266 32.121 43.5224C32.1165 43.5179 32.1109 43.5161 32.1036 43.5165H32.1039Z" fill="#00407A"/>
<path fill-rule="evenodd" clip-rule="evenodd" d="M32.2567 43.4864C32.2612 43.4864 32.2651 43.4864 32.2682 43.4871L32.2668 43.5189C32.264 43.5182 32.2609 43.5182 32.2567 43.5182C32.2459 43.5186 32.2378 43.5217 32.2319 43.5277C32.2259 43.5336 32.2235 43.5413 32.2238 43.5511L32.2266 43.614L32.1927 43.6154L32.1875 43.4917L32.213 43.4906L32.214 43.5126C32.214 43.5126 32.2217 43.5011 32.2343 43.4931C32.241 43.4892 32.249 43.4864 32.2567 43.4861V43.4864Z" fill="#00407A"/>
<path fill-rule="evenodd" clip-rule="evenodd" d="M32.3898 43.5714C32.3905 43.584 32.3863 43.5941 32.3775 43.6011C32.3692 43.6081 32.3562 43.6119 32.3384 43.6126C32.3293 43.613 32.3216 43.6126 32.3154 43.6119C32.3091 43.6109 32.3031 43.6095 32.2972 43.6074L32.2961 43.5794C32.3024 43.5822 32.3098 43.5843 32.3175 43.5861C32.3255 43.5878 32.3325 43.5885 32.3384 43.5882C32.3507 43.5875 32.3566 43.5836 32.3562 43.5766C32.3562 43.5742 32.3552 43.5717 32.3534 43.5703C32.3517 43.5686 32.3489 43.5668 32.3447 43.5651C32.3409 43.563 32.3353 43.5609 32.3286 43.5584C32.3188 43.555 32.3119 43.5515 32.3073 43.5483C32.3028 43.5452 32.2993 43.5413 32.2968 43.5371C32.2947 43.5329 32.2933 43.5274 32.293 43.5211C32.2926 43.5102 32.2965 43.5015 32.3045 43.4952C32.3129 43.4889 32.3248 43.4854 32.3405 43.4847C32.3555 43.484 32.3699 43.4868 32.3845 43.4928L32.3755 43.5176C32.3692 43.5151 32.3632 43.513 32.358 43.5116C32.3524 43.5102 32.3471 43.5095 32.3412 43.5095C32.3314 43.5099 32.3265 43.5127 32.3265 43.5183C32.3265 43.5214 32.3286 43.5239 32.3318 43.526C32.3349 43.5281 32.3423 43.5312 32.3531 43.535C32.3629 43.5385 32.3702 43.542 32.3748 43.5452C32.3793 43.5483 32.3828 43.5522 32.3852 43.5564C32.3873 43.5609 32.3887 43.5661 32.3891 43.5721L32.3898 43.5714Z" fill="#00407A"/>
<path fill-rule="evenodd" clip-rule="evenodd" d="M32.4947 43.6031L32.4937 43.5853C32.4884 43.5926 32.4755 43.5992 32.4696 43.602C32.4636 43.6052 32.4559 43.6069 32.4462 43.6073C32.4343 43.6076 32.4248 43.6048 32.4179 43.5982C32.4109 43.5916 32.407 43.5821 32.4063 43.5699C32.4056 43.5566 32.4102 43.5468 32.4189 43.5402C32.428 43.5335 32.4416 43.5293 32.4601 43.528L32.4814 43.5262L32.4811 43.521C32.4804 43.5084 32.4741 43.5025 32.4612 43.5028C32.4514 43.5032 32.4399 43.5066 32.4266 43.5133L32.4144 43.4909C32.4283 43.4829 32.4441 43.4783 32.4612 43.4776C32.4776 43.4769 32.4905 43.4801 32.4996 43.4867C32.5087 43.4937 32.5136 43.5042 32.5143 43.5192L32.5178 43.6013L32.4944 43.6024L32.4947 43.6031ZM32.4825 43.5461L32.4696 43.5472C32.4598 43.5479 32.4524 43.55 32.4479 43.5535C32.4434 43.557 32.4409 43.5619 32.4413 43.5685C32.4416 43.5779 32.4472 43.5825 32.458 43.5821C32.4657 43.5818 32.472 43.5793 32.4766 43.5748C32.4811 43.5702 32.4832 43.5639 32.4828 43.5566L32.4825 43.5465V43.5461Z" fill="#00407A"/>
<path fill-rule="evenodd" clip-rule="evenodd" d="M32.5842 43.5989L32.5503 43.6003L32.543 43.4284L32.5769 43.427L32.5842 43.5989Z" fill="#00407A"/>
<path fill-rule="evenodd" clip-rule="evenodd" d="M32.6649 43.4718C32.6809 43.4711 32.6935 43.476 32.7026 43.4869C32.7117 43.4973 32.7169 43.5127 32.7176 43.5323C32.7187 43.5522 32.7148 43.5679 32.7064 43.5795C32.6981 43.5906 32.6862 43.5966 32.6701 43.5973C32.6621 43.5976 32.6547 43.5966 32.6481 43.5938C32.6414 43.591 32.6362 43.5868 32.632 43.5812L32.6324 43.5966L32.6128 43.5973L32.6055 43.425L32.6254 43.4243L32.6271 43.4663C32.6275 43.4746 32.6282 43.4911 32.6282 43.4911C32.6359 43.4788 32.6481 43.4722 32.6652 43.4715L32.6649 43.4718ZM32.6624 43.4886C32.6502 43.4893 32.6414 43.4928 32.6366 43.5001C32.6313 43.5071 32.6296 43.519 32.6299 43.5358V43.5368C32.6306 43.5533 32.6338 43.5651 32.6397 43.5721C32.6457 43.5791 32.6544 43.5823 32.667 43.5816C32.6778 43.5812 32.6858 43.5767 32.6907 43.5686C32.696 43.5602 32.6977 43.5487 32.6974 43.5337C32.6967 43.5183 32.6935 43.5071 32.6879 43.4994C32.682 43.4921 32.6736 43.4886 32.6628 43.489L32.6624 43.4886Z" fill="#336695"/>
<path fill-rule="evenodd" clip-rule="evenodd" d="M32.8051 43.5896C32.7887 43.5903 32.7761 43.5851 32.7666 43.5735L32.7694 43.6434L32.7495 43.6441L32.7422 43.4684L32.7614 43.4677L32.7618 43.4844C32.7618 43.4844 32.7701 43.4736 32.7785 43.4694C32.7848 43.4663 32.7918 43.4645 32.7998 43.4642C32.8156 43.4635 32.8281 43.4687 32.8372 43.4792C32.8463 43.4897 32.8516 43.505 32.8523 43.525C32.853 43.5449 32.8491 43.5606 32.8411 43.5721C32.8327 43.5837 32.8208 43.5896 32.8047 43.5903L32.8051 43.5896ZM32.797 43.4806C32.7852 43.4813 32.7764 43.4848 32.7715 43.4918C32.7663 43.4988 32.7642 43.5096 32.7646 43.5243V43.5281C32.7653 43.5445 32.7684 43.5564 32.7743 43.5634C32.7799 43.5704 32.789 43.5739 32.8012 43.5732C32.8114 43.5728 32.8191 43.5683 32.8246 43.5599C32.8299 43.5515 32.8323 43.54 32.8316 43.525C32.8309 43.5099 32.8278 43.4988 32.8215 43.4914C32.8156 43.4837 32.8072 43.4802 32.7967 43.4806H32.797Z" fill="#336695"/>
<path fill-rule="evenodd" clip-rule="evenodd" d="M32.9316 43.4581C32.9369 43.4578 32.9417 43.4581 32.9459 43.4588L32.9442 43.4774C32.9396 43.4767 32.9351 43.476 32.9309 43.4763C32.9243 43.4767 32.9187 43.4784 32.9134 43.4823C32.9082 43.4861 32.904 43.491 32.9012 43.4973C32.8984 43.5036 32.897 43.5106 32.8974 43.5182L32.9002 43.5853L32.8802 43.5864L32.875 43.4627L32.8935 43.462L32.8946 43.4844C32.8946 43.4844 32.9051 43.4697 32.9113 43.4655C32.9173 43.4609 32.9243 43.4588 32.9316 43.4585V43.4581Z" fill="#336695"/>
<path fill-rule="evenodd" clip-rule="evenodd" d="M31.7383 43.3762C31.7383 43.3797 31.74 43.3832 31.7435 43.3853L31.8529 43.4541C31.8543 43.4552 31.8578 43.4566 31.8616 43.4559L31.8476 43.3203L31.7383 43.3759V43.3762Z" fill="#D48500"/>
<path fill-rule="evenodd" clip-rule="evenodd" d="M31.8403 43.2492C31.84 43.2453 31.8354 43.2436 31.833 43.2467C31.812 43.2747 31.7418 43.3676 31.7418 43.3676C31.7393 43.3708 31.7383 43.3736 31.7383 43.3767L31.8476 43.3212L31.8403 43.2492Z" fill="#DD9D33"/>
<path fill-rule="evenodd" clip-rule="evenodd" d="M31.8477 43.3207L31.8616 43.4563C31.8641 43.4556 31.8672 43.4542 31.8697 43.4504L32.0276 43.239C32.0308 43.2351 32.0266 43.2306 32.0227 43.2323L31.848 43.3211L31.8477 43.3207Z" fill="#00407A"/>
<path fill-rule="evenodd" clip-rule="evenodd" d="M31.7816 45.5367C31.6987 45.5741 31.6222 45.6073 31.5558 45.6559C31.4866 45.7069 31.4755 45.7995 31.4727 45.9155L33.2009 45.8456C33.1824 45.7226 33.1761 45.6559 33.1038 45.5926C33.0457 45.5416 32.9514 45.5018 32.8634 45.486C32.8819 45.239 32.7124 45.3288 32.7487 45.1181C32.7603 45.0507 32.7928 45.0003 32.7973 44.928C32.8043 44.8232 32.7743 44.7945 32.7397 44.7253C32.6796 44.6055 32.7823 44.6205 32.5845 44.3888C32.5559 44.3553 32.5653 44.3577 32.5255 44.3315C32.4203 44.2627 32.3745 44.276 32.2361 44.2522C31.9542 44.204 31.879 44.5622 31.8151 44.7893C31.748 45.0279 31.8385 45.0049 31.8644 45.1827C31.8759 45.2603 31.8413 45.3201 31.8067 45.3574C31.7379 45.4326 31.7739 45.4584 31.7819 45.5367H31.7816Z" fill="#B3B3B3"/>
<path d="M31.6049 47.2216C31.5991 47.2216 31.594 47.2209 31.5888 47.2194C31.5837 47.2176 31.5793 47.215 31.5757 47.2114C31.5717 47.2077 31.5688 47.2034 31.5666 47.1979C31.5644 47.1924 31.5629 47.1866 31.5626 47.1796C31.5622 47.1727 31.5633 47.1665 31.5651 47.161C31.5673 47.1556 31.5699 47.1508 31.5739 47.1468C31.5775 47.1428 31.5819 47.1399 31.5867 47.1377C31.5914 47.1355 31.5969 47.1344 31.6023 47.134C31.6078 47.134 31.6126 47.1344 31.6166 47.1362C31.6206 47.1377 31.6239 47.1399 31.6272 47.1424L31.6184 47.1556C31.6162 47.1537 31.6136 47.1523 31.6115 47.1515C31.6093 47.1505 31.6067 47.1501 31.6042 47.1501C31.5972 47.1505 31.5921 47.153 31.5881 47.1581C31.5841 47.1632 31.5823 47.1701 31.5826 47.1785C31.583 47.1869 31.5852 47.1935 31.5896 47.1982C31.594 47.203 31.5994 47.2055 31.606 47.2052C31.6093 47.2052 31.6122 47.2041 31.6151 47.2026C31.6177 47.2012 31.6206 47.1993 31.6228 47.1972L31.6312 47.2096C31.6275 47.2132 31.6231 47.2158 31.6184 47.2176C31.6136 47.2194 31.6093 47.2205 31.6045 47.2209L31.6049 47.2216Z" fill="#666A6C"/>
<path d="M31.6593 47.1673L31.6962 47.1658C31.6958 47.1593 31.6943 47.1545 31.6914 47.1509C31.6885 47.1476 31.6841 47.1458 31.6783 47.1461C31.6732 47.1461 31.6692 47.1483 31.6655 47.152C31.6619 47.1556 31.6597 47.1607 31.6593 47.1677V47.1673ZM31.6838 47.218C31.6779 47.2184 31.6724 47.2177 31.6677 47.2158C31.6626 47.214 31.6582 47.2114 31.6542 47.2078C31.6502 47.2042 31.6473 47.1998 31.6447 47.1943C31.6425 47.1888 31.6411 47.183 31.6407 47.1761C31.6403 47.1691 31.6414 47.1633 31.6432 47.1575C31.6451 47.152 31.648 47.1472 31.6513 47.1432C31.6546 47.1392 31.6586 47.1363 31.6633 47.1341C31.6677 47.1319 31.6724 47.1308 31.6775 47.1304C31.6834 47.1301 31.6881 47.1312 31.6925 47.1326C31.6969 47.1345 31.7005 47.137 31.7035 47.1403C31.7064 47.1436 31.7089 47.1476 31.7107 47.1527C31.7122 47.1575 31.7133 47.1629 31.7133 47.1684C31.7133 47.1702 31.7133 47.172 31.7133 47.1739C31.7133 47.1757 31.7133 47.1768 31.7129 47.1779L31.66 47.1801C31.6611 47.1874 31.664 47.1932 31.6688 47.1969C31.6732 47.2005 31.679 47.2023 31.6856 47.2023C31.6892 47.202 31.6925 47.2016 31.6958 47.2001C31.6987 47.199 31.702 47.1976 31.7049 47.1954L31.7119 47.2074C31.7082 47.2104 31.7038 47.2125 31.6991 47.2144C31.6943 47.2162 31.6892 47.2173 31.6841 47.2177L31.6838 47.218Z" fill="#666A6C"/>
<path d="M31.7679 47.1953C31.7731 47.1949 31.7776 47.1925 31.7808 47.1876C31.7839 47.1831 31.7857 47.1761 31.7853 47.167C31.785 47.159 31.7832 47.1527 31.7804 47.1485C31.7776 47.1439 31.7731 47.1418 31.7672 47.1422C31.7616 47.1425 31.7556 47.1457 31.75 47.152L31.7514 47.189C31.7546 47.1915 31.7574 47.1928 31.7602 47.1939C31.763 47.1949 31.7654 47.1953 31.7679 47.1953ZM31.735 47.2418L31.7305 47.1303L31.7458 47.1296L31.7476 47.138H31.7483C31.7514 47.1348 31.7553 47.1324 31.7591 47.1303C31.7633 47.1282 31.7675 47.1268 31.772 47.1265C31.7769 47.1265 31.7815 47.1272 31.7853 47.1289C31.7892 47.1307 31.7927 47.1331 31.7955 47.1366C31.7983 47.1401 31.8007 47.1443 31.8021 47.1492C31.8038 47.1541 31.8045 47.1597 31.8049 47.1659C31.8052 47.1729 31.8045 47.1789 31.8028 47.1845C31.801 47.1897 31.799 47.1946 31.7958 47.1981C31.7927 47.2019 31.7892 47.2047 31.7853 47.2068C31.7811 47.2089 31.7769 47.21 31.7724 47.2103C31.7689 47.2107 31.7654 47.21 31.7619 47.2086C31.7584 47.2072 31.7549 47.2054 31.7514 47.2026L31.7525 47.2159L31.7535 47.2411L31.7347 47.2418H31.735Z" fill="#666A6C"/>
<path d="M31.8552 47.1953C31.8585 47.1953 31.8618 47.1942 31.8644 47.1928C31.8669 47.191 31.8698 47.1888 31.8731 47.1855L31.8724 47.1669C31.8669 47.1676 31.8622 47.1691 31.8582 47.1702C31.8545 47.1716 31.8512 47.1727 31.849 47.1742C31.8468 47.1756 31.845 47.1775 31.8443 47.1793C31.8435 47.1811 31.8428 47.1829 31.8428 47.1851C31.8428 47.1888 31.8443 47.1917 31.8465 47.1931C31.849 47.1946 31.852 47.1953 31.8552 47.1953ZM31.8498 47.211C31.8425 47.2114 31.8363 47.2096 31.8315 47.2052C31.8268 47.2008 31.8242 47.195 31.8242 47.1877C31.8242 47.1833 31.825 47.1793 31.8264 47.1756C31.8282 47.1723 31.8308 47.1691 31.8348 47.1665C31.8388 47.1639 31.8436 47.1614 31.8498 47.1596C31.856 47.1574 31.8633 47.1559 31.8716 47.1548C31.8716 47.1526 31.8709 47.1508 31.8706 47.1486C31.8698 47.1468 31.8691 47.145 31.868 47.1435C31.8666 47.1421 31.8651 47.141 31.8633 47.1402C31.8611 47.1395 31.8589 47.1391 31.856 47.1391C31.852 47.1391 31.8479 47.1402 31.8439 47.1421C31.8403 47.1439 31.8366 47.1461 31.8326 47.1483L31.8249 47.1355C31.8293 47.1322 31.8344 47.1297 31.8403 47.1271C31.8461 47.1246 31.8523 47.1234 31.8589 47.1231C31.8695 47.1227 31.8771 47.1253 31.8826 47.1315C31.8881 47.1373 31.891 47.1461 31.8913 47.1578L31.8935 47.207L31.8775 47.2077L31.8757 47.1986H31.8749C31.8713 47.2019 31.8676 47.2048 31.8633 47.207C31.8592 47.2092 31.8545 47.2107 31.8498 47.2107V47.211Z" fill="#666A6C"/>
<path d="M31.9521 47.208C31.9474 47.208 31.943 47.2076 31.9397 47.2062C31.9364 47.2047 31.9335 47.2029 31.9313 47.2003C31.9291 47.1978 31.9273 47.1948 31.9262 47.1908C31.9251 47.1872 31.9244 47.1832 31.9244 47.1788L31.9226 47.139L31.9109 47.1394L31.9102 47.1248L31.9229 47.1233L31.9244 47.1003L31.9404 47.0996L31.9415 47.1226L31.9627 47.1215L31.9634 47.1372L31.9423 47.1379L31.9441 47.1777C31.9445 47.1875 31.9485 47.1923 31.9565 47.1919C31.958 47.1919 31.9594 47.1916 31.9609 47.1912C31.9623 47.1908 31.9638 47.1901 31.9649 47.1897L31.9689 47.204C31.9667 47.2051 31.9642 47.2058 31.9612 47.2065C31.9583 47.2072 31.9554 47.208 31.9521 47.208Z" fill="#666A6C"/>
<path d="M32.1915 47.1817C32.1948 47.1817 32.1981 47.1806 32.2007 47.1791C32.2032 47.1773 32.2061 47.1751 32.2094 47.1718L32.2087 47.1532C32.2032 47.1543 32.1985 47.1554 32.1945 47.1565C32.1904 47.1579 32.1875 47.159 32.1853 47.1605C32.1831 47.1619 32.1813 47.1638 32.1806 47.1656C32.1795 47.1674 32.1791 47.1693 32.1791 47.1714C32.1791 47.1751 32.1806 47.178 32.1828 47.1795C32.185 47.1809 32.1882 47.1817 32.1915 47.1817ZM32.1861 47.1974C32.1788 47.1977 32.1726 47.1959 32.1678 47.1915C32.1631 47.1871 32.1605 47.1813 32.1602 47.174C32.1602 47.1696 32.1609 47.1656 32.1623 47.1623C32.1642 47.1587 32.1671 47.1554 32.1707 47.1528C32.1748 47.1503 32.1795 47.1477 32.1857 47.1459C32.1919 47.1437 32.1992 47.1423 32.2076 47.1412C32.2072 47.139 32.2069 47.1371 32.2061 47.135C32.2054 47.1331 32.2047 47.1313 32.2036 47.1298C32.2021 47.1284 32.2007 47.1273 32.1988 47.1266C32.1966 47.1258 32.1945 47.1255 32.1915 47.1255C32.1875 47.1255 32.1835 47.1266 32.1795 47.1284C32.1755 47.1302 32.1718 47.1324 32.1682 47.1346L32.1605 47.1218C32.1649 47.1185 32.17 47.116 32.1758 47.1134C32.1817 47.1112 32.1875 47.1098 32.1945 47.1094C32.2047 47.109 32.2127 47.1116 32.2182 47.1178C32.2236 47.1236 32.2266 47.1324 32.2269 47.1441L32.2291 47.1933L32.2131 47.1941L32.2112 47.1849H32.2105C32.2069 47.1882 32.2032 47.1911 32.1988 47.1933C32.1948 47.1955 32.1901 47.197 32.1853 47.197L32.1861 47.1974Z" fill="#666A6C"/>
<path d="M32.2535 47.1881L32.25 47.1084L32.2654 47.1077L32.2671 47.1185H32.2678C32.271 47.1147 32.2745 47.1116 32.2783 47.1091C32.2821 47.1063 32.2867 47.1049 32.2916 47.1046C32.2975 47.1046 32.3021 47.1053 32.3059 47.1077C32.3098 47.1102 32.3125 47.1136 32.3143 47.1182C32.3178 47.1136 32.3216 47.1101 32.3258 47.1074C32.3297 47.1046 32.3342 47.1028 32.3395 47.1028C32.3478 47.1025 32.3545 47.1049 32.3587 47.1102C32.3629 47.1154 32.3653 47.1231 32.3657 47.1336L32.3677 47.1835L32.3489 47.1842L32.3468 47.1367C32.3464 47.1301 32.3454 47.1255 32.3433 47.1227C32.3412 47.1203 32.3381 47.1189 32.3339 47.1192C32.329 47.1192 32.3234 47.1231 32.3178 47.1297L32.3202 47.1853L32.3014 47.186L32.2993 47.1385C32.2989 47.1318 32.2979 47.1273 32.2958 47.1245C32.2937 47.122 32.2905 47.1206 32.2863 47.1206C32.2814 47.121 32.2759 47.1245 32.2699 47.1311L32.2724 47.1867L32.2535 47.1874V47.1881Z" fill="#666A6C"/>
<path d="M32.4178 47.1718C32.4211 47.1718 32.4244 47.1707 32.4269 47.1692C32.4295 47.1674 32.4324 47.1652 32.4357 47.1619L32.4349 47.1433C32.4291 47.1444 32.4247 47.1455 32.4207 47.1466C32.4171 47.1481 32.4138 47.1492 32.4116 47.1506C32.4094 47.1521 32.4076 47.1539 32.4069 47.1557C32.4061 47.1575 32.4054 47.1594 32.4054 47.1615C32.4054 47.1652 32.4069 47.1681 32.409 47.1696C32.4116 47.171 32.4145 47.1718 32.4178 47.1718ZM32.4123 47.1875C32.405 47.1878 32.3988 47.186 32.3941 47.1816C32.3893 47.1772 32.3868 47.1714 32.3868 47.1641C32.3864 47.1597 32.3875 47.1557 32.389 47.1521C32.3908 47.1484 32.3934 47.1451 32.3974 47.1426C32.4014 47.14 32.4065 47.1375 32.4123 47.1356C32.4185 47.1335 32.4258 47.132 32.4342 47.1309C32.4339 47.1287 32.4335 47.1269 32.4331 47.1247C32.4324 47.1229 32.4317 47.1211 32.4302 47.1196C32.4291 47.1181 32.4277 47.117 32.4255 47.1163C32.4233 47.1156 32.4211 47.1152 32.4182 47.1152C32.4142 47.1152 32.4101 47.1163 32.4061 47.1181C32.4025 47.12 32.3988 47.1221 32.3948 47.1243L32.3871 47.1116C32.3915 47.1083 32.3966 47.1057 32.4025 47.1032C32.4083 47.101 32.4145 47.0995 32.4211 47.0992C32.4317 47.0988 32.4393 47.1013 32.4448 47.1075C32.4503 47.1134 32.4532 47.1221 32.4536 47.1338L32.4557 47.1831L32.4397 47.1838L32.4379 47.1747H32.4371C32.4335 47.178 32.4298 47.1809 32.4255 47.1831C32.4215 47.1853 32.4167 47.1867 32.412 47.1867L32.4123 47.1875Z" fill="#666A6C"/>
<path d="M32.4802 47.1826L32.4766 47.0994L32.4926 47.0987L32.4944 47.11H32.4952C32.4988 47.1063 32.5025 47.103 32.5069 47.1001C32.5109 47.0976 32.516 47.0961 32.5218 47.0957C32.5309 47.0954 32.5375 47.0979 32.5419 47.1034C32.5463 47.1089 32.5484 47.1169 32.5488 47.1279L32.551 47.18L32.5313 47.1808L32.5291 47.1311C32.5287 47.1242 32.5276 47.1195 32.5255 47.1165C32.5233 47.114 32.52 47.1125 32.5152 47.1129C32.5116 47.1129 32.5083 47.114 32.5058 47.1158C32.5032 47.1176 32.4999 47.1205 32.4966 47.1238L32.4992 47.1819L32.4795 47.1826H32.4802Z" fill="#666A6C"/>
<path d="M32.7952 47.1521C32.8005 47.1517 32.805 47.1493 32.8081 47.1444C32.8116 47.1399 32.813 47.1329 32.8127 47.1238C32.8123 47.1157 32.8106 47.1095 32.8078 47.1053C32.805 47.1007 32.8005 47.099 32.7945 47.099C32.7889 47.0993 32.783 47.1025 32.7774 47.1088L32.7788 47.1458C32.7819 47.1482 32.7847 47.1496 32.7875 47.1507C32.7903 47.1517 32.7928 47.1521 32.7952 47.1521ZM32.7624 47.1986L32.7578 47.0871L32.7732 47.0864L32.7749 47.0948H32.7756C32.7788 47.0916 32.7826 47.0892 32.7865 47.0871C32.7907 47.085 32.7948 47.0836 32.7994 47.0833C32.8043 47.0833 32.8088 47.0839 32.8127 47.0857C32.8165 47.0874 32.82 47.0902 32.8228 47.0934C32.8256 47.0969 32.8281 47.1011 32.8295 47.106C32.8308 47.1109 32.8319 47.1164 32.8322 47.1227C32.8326 47.1297 32.8319 47.1357 32.8302 47.1412C32.8284 47.1465 32.8263 47.1514 32.8232 47.1549C32.82 47.1587 32.8165 47.1615 32.8127 47.1636C32.8085 47.1657 32.8043 47.1668 32.7997 47.1671C32.7963 47.1671 32.7928 47.1664 32.7893 47.165C32.7858 47.1636 32.7823 47.1619 32.7788 47.1591L32.7798 47.1724L32.7809 47.1975L32.762 47.1982L32.7624 47.1986Z" fill="#666A6C"/>
<path d="M32.8663 47.1166L32.9036 47.1151C32.9032 47.1085 32.9014 47.1038 32.8988 47.1002C32.8959 47.0965 32.8915 47.095 32.8857 47.095C32.8809 47.0954 32.8766 47.0972 32.8729 47.1009C32.8693 47.1045 32.8671 47.1096 32.8667 47.1166H32.8663ZM32.8908 47.1673C32.8849 47.1673 32.8795 47.1666 32.8747 47.1651C32.8696 47.1633 32.8652 47.1607 32.8612 47.1571C32.8572 47.1534 32.8543 47.149 32.8518 47.1436C32.8496 47.1385 32.8481 47.1323 32.8477 47.1253C32.8474 47.1184 32.8485 47.1126 32.8503 47.1071C32.8525 47.1016 32.855 47.0969 32.8583 47.0929C32.8616 47.0888 32.8656 47.0859 32.8704 47.0837C32.8751 47.0815 32.8795 47.0804 32.8846 47.0801C32.8904 47.0801 32.8955 47.0808 32.8996 47.0823C32.9039 47.0841 32.9076 47.0866 32.9108 47.0899C32.9138 47.0932 32.9163 47.0972 32.9178 47.102C32.9193 47.1067 32.9203 47.1122 32.9207 47.1177C32.9207 47.1199 32.9207 47.1213 32.9207 47.1231C32.9207 47.125 32.9203 47.1264 32.9203 47.1271L32.8674 47.1293C32.8689 47.1366 32.8715 47.1425 32.8762 47.1461C32.8809 47.1501 32.8864 47.1516 32.893 47.1516C32.8966 47.1516 32.8999 47.1509 32.9032 47.1494C32.9061 47.1479 32.9094 47.1465 32.9123 47.1447L32.9196 47.1567C32.9156 47.1593 32.9116 47.1618 32.9065 47.1636C32.9017 47.1655 32.8966 47.1666 32.8915 47.1669L32.8908 47.1673Z" fill="#666A6C"/>
<path d="M32.976 47.1445C32.982 47.1441 32.9875 47.141 32.9924 47.1347L32.9907 47.0973C32.9879 47.0948 32.9851 47.0934 32.9823 47.0924C32.9795 47.0913 32.9771 47.091 32.9743 47.0913C32.969 47.0913 32.9648 47.0938 32.9614 47.0987C32.9582 47.1032 32.9564 47.1099 32.9568 47.1186C32.9571 47.1273 32.9589 47.1336 32.9624 47.1382C32.9655 47.1424 32.9701 47.1445 32.976 47.1445ZM32.9722 47.1598C32.962 47.1602 32.954 47.157 32.9477 47.15C32.9414 47.1431 32.9379 47.1329 32.9376 47.1196C32.9372 47.113 32.9379 47.1074 32.9397 47.1018C32.9414 47.0966 32.9435 47.092 32.9467 47.0882C32.9498 47.0843 32.9533 47.0816 32.9572 47.0795C32.961 47.0774 32.9652 47.0763 32.9697 47.076C32.9743 47.0756 32.9781 47.0763 32.9813 47.0777C32.9844 47.0791 32.9879 47.0812 32.991 47.0837L32.9896 47.0707L32.9883 47.0417L33.0071 47.041L33.012 47.1556L32.9966 47.1563L32.9949 47.1476H32.9942C32.9914 47.1507 32.9882 47.1532 32.9844 47.1553C32.9806 47.1574 32.9767 47.1588 32.9722 47.1588V47.1598Z" fill="#666A6C"/>
<path d="M33.0643 47.1603C33.0556 47.1607 33.0486 47.1581 33.0446 47.1527C33.0403 47.1472 33.0377 47.1392 33.0373 47.1282L33.0352 47.076L33.0549 47.0753L33.0571 47.1249C33.0574 47.1319 33.0585 47.1366 33.0607 47.1395C33.0629 47.1421 33.0662 47.1435 33.0705 47.1432C33.0742 47.1432 33.0775 47.1421 33.08 47.1402C33.0826 47.1381 33.0855 47.1351 33.0888 47.1311L33.0862 47.0742L33.1059 47.0735L33.1092 47.1567L33.0932 47.1574L33.091 47.1454H33.0906C33.0873 47.1497 33.0833 47.1534 33.0793 47.1563C33.0753 47.1589 33.0702 47.1603 33.0643 47.1607V47.1603Z" fill="#666A6C"/>
<path d="M33.1481 47.1527C33.1414 47.1531 33.1365 47.1513 33.1337 47.1475C33.1309 47.1436 33.1292 47.1381 33.1289 47.1314L33.125 47.0371L33.1439 47.0364L33.1477 47.1314C33.1477 47.1339 33.1484 47.1353 33.1491 47.136C33.1502 47.137 33.1512 47.1373 33.1519 47.1373H33.1533C33.1537 47.1373 33.154 47.1374 33.1551 47.137L33.1582 47.151C33.1558 47.1524 33.1523 47.1531 33.1484 47.1531L33.1481 47.1527Z" fill="#666A6C"/>
<path d="M33.175 47.0697L33.1939 47.069L33.197 47.1487L33.1782 47.1494L33.175 47.0697ZM33.1838 47.0554C33.1806 47.0554 33.1775 47.0547 33.1754 47.053C33.1729 47.0509 33.1719 47.0484 33.1719 47.0453C33.1719 47.0421 33.1726 47.0393 33.1747 47.0376C33.1768 47.0355 33.1796 47.0344 33.1827 47.0344C33.1862 47.0344 33.189 47.0351 33.1911 47.0369C33.1932 47.039 33.1946 47.0414 33.1946 47.0446C33.1946 47.0477 33.1935 47.0505 33.1914 47.0523C33.1893 47.0544 33.1866 47.0554 33.1834 47.0554H33.1838Z" fill="#666A6C"/>
<path d="M32.0911 47.159C32.0915 47.1733 32.0804 47.1852 32.0661 47.186C32.0518 47.1869 32.0395 47.1754 32.0391 47.1611C32.0383 47.1467 32.0497 47.1349 32.0637 47.1341C32.078 47.1333 32.0903 47.1447 32.0907 47.159H32.0911Z" fill="#DD9D33"/>
<path d="M32.6844 47.1346C32.6852 47.1489 32.6737 47.1612 32.6598 47.1616C32.6455 47.162 32.6332 47.1509 32.6328 47.1366C32.6324 47.1223 32.6435 47.11 32.6578 47.1096C32.6721 47.1092 32.6844 47.1203 32.6848 47.1346H32.6844Z" fill="#DD9D33"/>
<path d="M32.4123 46.924C32.3532 46.9264 32.3073 46.9109 32.2746 46.8773C32.242 46.8437 32.224 46.7887 32.2208 46.7124L32.2106 46.468L32.3139 46.4636L32.3246 46.7185C32.3265 46.7632 32.3346 46.7941 32.3488 46.8112C32.3631 46.8283 32.383 46.8364 32.4086 46.8353C32.4342 46.8342 32.4536 46.8245 32.4668 46.8062C32.48 46.788 32.4857 46.7565 32.4838 46.7118L32.4731 46.4569L32.5723 46.4528L32.5825 46.6972C32.5858 46.7735 32.5727 46.8298 32.5435 46.866C32.5147 46.9022 32.471 46.9215 32.4123 46.924ZM32.2661 47.9226L32.2516 47.5763L32.3354 47.5727L32.3442 47.6164L32.347 47.6163C32.3613 47.6017 32.3771 47.5889 32.3943 47.5779C32.412 47.5665 32.4325 47.5602 32.4558 47.5593C32.4935 47.5577 32.5213 47.5691 32.5391 47.5935C32.5574 47.6175 32.5674 47.6511 32.5692 47.6944L32.5783 47.9095L32.4756 47.9138L32.4671 47.712C32.4661 47.6868 32.4619 47.6698 32.4545 47.6608C32.4476 47.6517 32.4367 47.6475 32.4218 47.6481C32.4087 47.6487 32.3977 47.6522 32.3886 47.6586C32.3796 47.6646 32.3697 47.6732 32.3589 47.6844L32.3688 47.9183L32.2661 47.9226ZM32.6657 47.9058L32.6512 47.5594L32.7538 47.5551L32.7684 47.9015L32.6657 47.9058ZM32.7 47.5063C32.6828 47.5071 32.6686 47.5028 32.6575 47.4934C32.6464 47.4841 32.6405 47.4713 32.6398 47.455C32.6391 47.4387 32.6439 47.4254 32.6542 47.4152C32.6645 47.405 32.6783 47.3995 32.6955 47.3988C32.7127 47.3981 32.7269 47.4024 32.738 47.4117C32.7491 47.421 32.755 47.4338 32.7557 47.4501C32.7564 47.4664 32.7516 47.4797 32.7413 47.4899C32.731 47.5001 32.7172 47.5056 32.7 47.5063Z" fill="#00407A"/>
<path fill-rule="evenodd" clip-rule="evenodd" d="M31.8627 41.8487L32.2718 41.8316C32.3096 41.8299 32.342 41.8596 32.3434 41.8973L32.3784 42.7293C32.3801 42.767 32.3504 42.7992 32.3127 42.8009L31.9035 42.818C31.8658 42.8198 31.8333 42.7901 31.8319 42.7524L31.7969 41.9204C31.7952 41.8826 31.8249 41.8505 31.8627 41.8487Z" fill="white" fill-opacity="0.74902"/>
<path d="M32.0261 42.1084C32.5259 42.1084 32.9311 41.7032 32.9311 41.2034C32.9311 40.7035 32.5259 40.2983 32.0261 40.2983C31.5263 40.2983 31.1211 40.7035 31.1211 41.2034C31.1211 41.7032 31.5263 42.1084 32.0261 42.1084Z" fill="#D48500"/>
<path d="M32.0288 41.8968C32.4115 41.8968 32.7217 41.5866 32.7217 41.2039C32.7217 40.8212 32.4115 40.511 32.0288 40.511C31.6461 40.511 31.3359 40.8212 31.3359 41.2039C31.3359 41.5866 31.6461 41.8968 32.0288 41.8968Z" fill="#DD9D33"/>
<path fill-rule="evenodd" clip-rule="evenodd" d="M5.80348 50.7522L12.2744 52.3173L11.3376 54.2811L5.05469 52.6971L5.80348 50.7522Z" fill="#00315E"/>
<path fill-rule="evenodd" clip-rule="evenodd" d="M14.9261 26.8855C15.2937 26.5406 15.6613 26.1964 16.0289 25.8516C16.5153 28.5551 18.4137 29.3853 20.1636 30.2627C18.4018 29.7386 16.7365 29.7037 14.9258 26.8852L14.9261 26.8855Z" fill="#1A1A1A"/>
<path fill-rule="evenodd" clip-rule="evenodd" d="M31.1513 24.9599C30.8979 24.9431 30.6446 24.9267 30.3909 24.9099C30.7665 26.0781 30.3766 26.989 30.1914 27.951C30.5901 27.1288 31.0824 26.5169 31.1513 24.9595V24.9599Z" fill="#1A1A1A"/>
<path d="M70.8646 24.0456V29.6907C70.8646 34.8317 67.3189 39.3145 62.2543 40.5768C57.198 39.3187 53.6523 34.8317 53.6523 29.6907V24.0456C57.6339 23.604 59.8891 22.1125 62.2585 20.3711C64.6279 22.1125 66.8831 23.604 70.8646 24.0456Z" fill="#49DCC7"/>
<path d="M62.257 38.6554C58.3559 37.3917 55.6758 33.698 55.6758 29.4741V25.4181C58.4165 24.8084 60.4298 23.6817 62.257 22.396C64.1231 23.7171 66.0974 24.8216 68.8381 25.4225V29.4785C68.8381 33.698 66.158 37.3917 62.257 38.6554Z" fill="#48D06A"/>
<path d="M62.257 38.6554C58.3559 37.3917 55.6758 33.698 55.6758 29.4741V25.4181C58.4165 24.8084 60.4298 23.6817 62.257 22.396V38.6554Z" fill="#48D06A"/>
<path d="M64.8418 28.3127C64.921 28.3128 64.9996 28.3272 65.0732 28.3557L65.1787 28.4084C65.2121 28.4293 65.2437 28.4529 65.2725 28.4797L65.3496 28.5686C65.4177 28.6639 65.4561 28.7778 65.4561 28.8967C65.456 29.0156 65.4177 29.1295 65.3496 29.2249L65.2725 29.3127L61.8555 32.5032C61.7952 32.5595 61.7239 32.6041 61.6465 32.634C61.5691 32.6639 61.4865 32.679 61.4033 32.679C61.3616 32.679 61.3201 32.6748 61.2793 32.6672L61.1602 32.634C61.1215 32.6191 61.0847 32.6001 61.0498 32.5784L60.9512 32.5032L59.2539 30.9192V30.9182C59.2253 30.8922 59.1986 30.8641 59.1758 30.8333L59.1162 30.7307C59.0997 30.6948 59.0867 30.6576 59.0781 30.6194L59.0645 30.5022C59.0637 30.4233 59.0797 30.3451 59.1113 30.2727C59.1431 30.2002 59.19 30.1346 59.248 30.0803L59.3428 30.0081C59.3764 29.9872 59.412 29.9695 59.4492 29.9553L59.5645 29.9231C59.6037 29.9161 59.6436 29.913 59.6836 29.9133L59.8027 29.925C59.8418 29.9327 59.88 29.9444 59.917 29.9592C59.9899 29.9885 60.0567 30.0312 60.1133 30.0852H60.1143L61.4023 31.2883L64.4111 28.4797L64.5049 28.4084C64.5381 28.3877 64.5736 28.3699 64.6104 28.3557L64.7236 28.3235C64.7625 28.3163 64.8021 28.3127 64.8418 28.3127Z" fill="white" stroke="white" stroke-width="0.316403"/>
</g>
</svg>
