<svg width="153" height="156" viewBox="0 0 153 156" fill="none" xmlns="http://www.w3.org/2000/svg">
<path d="M139.269 49.1425C156.233 78.7979 158.495 107.603 133.587 131.002C107.932 155.103 70.0804 163.52 39.2816 146.458C8.07703 129.171 -5.80581 105.6 4.54009 71.489C13.0276 43.5055 47.0484 54.4654 76.1304 51.1291C104.76 47.8446 124.354 27.7895 139.269 49.1425Z" fill="#FCF0E3"/>
<mask id="mask0_5281_61071" style="mask-type:alpha" maskUnits="userSpaceOnUse" x="1" y="2" width="151" height="153">
<path d="M139.278 51.113C156.025 80.0971 158.259 108.25 133.669 131.12C108.342 154.675 70.9742 162.901 40.5693 146.226C9.76368 129.33 -6.66374 106.042 8.43835 65.2268C-7.67167 19.9323 0.891003 20.7283 50.2269 2.80957C91.0045 20.7283 124.554 30.2435 139.278 51.113Z" fill="#FCF0E3"/>
</mask>
<g mask="url(#mask0_5281_61071)">
<path d="M94.7209 48.8499C91.2093 48.3205 87.2098 43.0488 85.1992 39.7712C84.8322 39.1729 84.351 38.6037 83.6776 38.4059C79.9059 37.2982 79.8589 45.131 80.3619 49.5125L67.9907 71.9648C74.9252 83.3783 89.204 106.757 90.8431 108.965C92.4823 111.173 106.503 115.536 113.309 117.442C118.675 129.935 123.151 134.232 128.033 134.007C134.734 133.698 149.737 121.064 146.659 114.097C144.062 108.216 135.827 100.088 130.556 96.6674C130.755 94.1212 129.898 86.8035 124.873 77.9023C118.592 66.7757 118.188 58.2321 108.526 56.7752C98.8637 55.3183 99.5521 49.5784 94.7209 48.8499Z" fill="#FBBFA3"/>
<path d="M123.979 111.34C120.344 117.736 115.446 118.221 113.451 117.664L115.644 122.429L117.563 121.367C122.953 118.783 124.086 113.605 123.979 111.34Z" fill="#F9AF91"/>
<path d="M129.872 104.951C132.453 99.4795 132.212 98.1525 131.282 97.2397C132.634 97.9419 134.045 99.0104 133.514 100.195C132.815 101.757 131.582 103.598 129.872 104.951Z" fill="#F9AF91"/>
<path d="M106.517 83.2337C108.094 84.7123 111.932 87.6381 115.624 88.5318C116.028 88.6131 116.399 88.6812 116.724 88.7354C116.361 88.6901 115.993 88.6211 115.624 88.5318C112.707 87.9446 108.077 86.6669 106.597 84.9365C104.912 82.9664 105.841 82.9804 106.517 83.2337Z" fill="#F9AF91" stroke="#F9AF91" stroke-width="0.100685"/>
<path d="M103.86 94.6817C101.848 84.8344 105.572 77.0162 104.575 77.0623L93.6271 74.5089L78.1628 90.952L93.077 110.45L98.5146 112.515L106.375 115.211L103.109 111.538C101.097 101.691 105.695 103.666 103.86 94.6817Z" fill="#F9AF91" stroke="#F9AF91" stroke-width="0.100685"/>
<path d="M9.20867 27.8266L8.17804 22.2767L75.0784 103.128L120.384 81.0743C121.876 83.6971 121.758 85.2462 121.097 86.4632C120.739 87.1227 120.099 87.5729 119.417 87.898L77.5089 107.871C75.3918 108.88 72.8503 108.306 71.3857 106.489L10.8315 31.3513C10.0055 30.3263 9.44805 29.1157 9.20867 27.8266Z" fill="#464643"/>
<path d="M49.468 4.37886L10.618 18.7468C8.0496 19.6967 7.17146 22.8515 8.88666 24.9669L72.3966 103.298C73.8469 105.086 76.3454 105.664 78.4479 104.697L119.909 85.6286C121.598 84.8519 122.075 82.6982 120.868 81.2954L56.1864 6.10353C54.5378 4.18707 51.8514 3.49743 49.468 4.37886Z" fill="black"/>
<path d="M12.8896 24.1911C11.8099 22.8782 12.3416 20.9056 13.9391 20.2982L49.9968 6.58691C51.594 5.97958 53.405 6.43644 54.5126 7.72613L117.046 80.5406C117.474 81.0387 117.308 81.8025 116.712 82.0836L79.0567 99.822C77.379 100.612 75.3721 100.165 74.1996 98.7394L12.8896 24.1911Z" fill="white"/>
<path d="M20.1128 19.5004C19.5466 18.0573 20.274 16.4341 21.7355 15.8793L41.7645 8.2762C43.371 7.66638 45.1888 8.02067 46.441 9.18764C47.5009 10.1754 47.1638 11.9173 45.81 12.4485L23.792 21.0878C22.3326 21.6605 20.6807 20.9478 20.1128 19.5004Z" fill="black"/>
<path d="M45.2738 70.2172C31.281 53.2548 25.1968 47.0681 21.2664 45.6287C20.7646 45.4449 20.2485 45.7759 20.1298 46.2965C18.1533 54.9631 21.8551 54.7319 28.1299 63.6331C37.7423 77.269 39.3948 81.8092 41.5822 87.0955C33.507 95.3373 34.9873 103.276 38.6966 106.591C34.4803 114.484 40.0262 122.671 42.694 124.449C35.6461 133.408 66.622 144.748 82.9003 147.482C86.1575 160.509 115.222 148.721 113.937 142.468C112.761 136.749 106.768 128.454 103.643 123.845C100.519 119.235 100.948 107.807 101.557 100.174C102.166 92.5402 95.8898 83.7331 96.4806 74.7394C96.7871 70.0748 97.6518 67.1301 98.5416 64.9095C99.0762 63.5752 98.1714 62.1215 96.7487 62.3293C92.1352 63.0033 85.9397 65.7121 85.7216 74.2622C85.4496 84.9224 81.5783 87.4691 78.7374 88.8678C74.0226 91.6205 61.6798 90.1051 45.2738 70.2172Z" fill="#FBBFA3"/>
<path d="M93.9314 143.078C90.4929 146.691 84.9327 148.704 83.0813 147.71C83.4322 148.773 83.7013 150.104 85.1825 150.9C86.6636 151.695 91.9663 146.047 93.9314 143.078Z" fill="#F9AF91" stroke="#F9AF91" stroke-width="0.201371"/>
<path d="M47.9627 112.617C45.7595 111.498 39.6269 107.311 38.6969 106.591L37.5954 109.746C40.6354 110.878 50.1659 113.737 47.9627 112.617Z" fill="#F9AF91" stroke="#F9AF91" stroke-width="0.100685"/>
<path d="M41.6875 87.6159C43.6925 90.2042 48.6831 94.6648 52.6013 96.7835C49.5716 96.2069 43.6909 95.5953 41.6875 87.6159Z" fill="#F9AF91" stroke="#F9AF91" stroke-width="0.100685"/>
<path d="M104.987 132.029C105.448 131.323 105.251 127.33 105.203 126.313L106.773 128.969C106.845 130.494 104.394 132.937 104.987 132.029Z" fill="#F9AF91" stroke="#F9AF91" stroke-width="0.0100685"/>
<path d="M48.8127 128.281C46.7864 127.031 43.3167 125.551 42.4592 124.751L41.7484 126.077C44.5408 127.348 50.839 129.531 48.8127 128.281Z" fill="#F9AF91" stroke="#F9AF91" stroke-width="0.100685"/>
</g>
<path d="M87.3826 10.664C98.47 -1.24762 117.114 -1.9158 129.026 9.17155C140.937 20.2589 141.606 38.9032 130.518 50.8148C120.654 61.4128 104.807 63.1101 93.042 55.5464L89.1542 56.7389L82.9902 58.6295L84.4348 52.346L85.3459 48.3829C76.9594 37.1897 77.518 21.262 87.3826 10.664Z" fill="#FD544E"/>
<rect width="28.125" height="30.8565" transform="translate(95 15.5717)" fill="#FD544E"/>
<path d="M98.75 27.8352C98.75 27.1661 99.2924 26.6237 99.9615 26.6237H118.437C119.106 26.6237 119.649 27.1661 119.649 27.8352V35.4072C119.649 41.1781 114.97 45.8564 109.199 45.8564C103.428 45.8564 98.75 41.1781 98.75 35.4072V27.8352Z" fill="#F3F3F2"/>
<path fill-rule="evenodd" clip-rule="evenodd" d="M109.255 14.9999C104.864 14.9999 101.305 18.5595 101.305 22.9505V26.6607H117.206V22.9505C117.206 18.5595 113.646 14.9999 109.255 14.9999ZM109.255 18.483C106.653 18.483 104.544 20.5924 104.544 23.1944V26.6607H113.966V23.1944C113.966 20.5924 111.857 18.483 109.255 18.483Z" fill="#F3F3F2"/>
<rect x="95" y="28.9999" width="28.125" height="9.09927" rx="1.21151" fill="#BEBEBB"/>
<g clip-path="url(#clip0_5281_61071)">
<path d="M101.865 34.1749L100.602 33.4463L101.865 32.7177C101.936 32.6766 101.961 32.5857 101.92 32.5146L101.622 31.9996C101.581 31.9286 101.49 31.9041 101.419 31.9452L100.156 32.6738V31.2167C100.156 31.1346 100.09 31.0681 100.007 31.0681H99.4126C99.3304 31.0681 99.2638 31.1346 99.2638 31.2167V32.6739L98.0011 31.9453C97.9299 31.9042 97.8389 31.9287 97.7979 31.9997L97.5004 32.5146C97.4594 32.5857 97.4837 32.6766 97.5549 32.7177L98.8176 33.4463L97.5549 34.1749C97.4837 34.2159 97.4594 34.3069 97.5004 34.378L97.7979 34.8929C97.8389 34.964 97.9299 34.9883 98.0011 34.9473L99.2638 34.2187V35.6758C99.2638 35.758 99.3304 35.8245 99.4126 35.8245H100.007C100.09 35.8245 100.156 35.758 100.156 35.6758V34.2186L101.419 34.9472C101.49 34.9883 101.581 34.964 101.622 34.8928L101.92 34.3779C101.961 34.3068 101.936 34.2159 101.865 34.1749Z" fill="#1C1C17"/>
</g>
<g clip-path="url(#clip1_5281_61071)">
<path d="M108.076 34.1749L106.813 33.4463L108.076 32.7177C108.147 32.6766 108.172 32.5857 108.131 32.5146L107.833 31.9996C107.792 31.9286 107.701 31.9041 107.63 31.9452L106.367 32.6738V31.2167C106.367 31.1346 106.301 31.0681 106.218 31.0681H105.624C105.541 31.0681 105.475 31.1346 105.475 31.2167V32.6739L104.212 31.9453C104.141 31.9042 104.05 31.9287 104.009 31.9997L103.711 32.5146C103.67 32.5857 103.695 32.6766 103.766 32.7177L105.029 33.4463L103.766 34.1749C103.695 34.2159 103.67 34.3069 103.711 34.378L104.009 34.8929C104.05 34.964 104.141 34.9883 104.212 34.9473L105.475 34.2187V35.6758C105.475 35.758 105.541 35.8245 105.624 35.8245H106.218C106.301 35.8245 106.367 35.758 106.367 35.6758V34.2186L107.63 34.9472C107.701 34.9883 107.792 34.964 107.833 34.8928L108.131 34.3779C108.172 34.3068 108.147 34.2159 108.076 34.1749Z" fill="#1C1C17"/>
</g>
<g clip-path="url(#clip2_5281_61071)">
<path d="M114.271 34.1749L113.009 33.4463L114.271 32.7177C114.343 32.6766 114.367 32.5858 114.326 32.5146L114.028 31.9997C113.987 31.9286 113.896 31.9042 113.825 31.9452L112.562 32.6738V31.2167C112.562 31.1346 112.496 31.0681 112.414 31.0681H111.819C111.737 31.0681 111.67 31.1346 111.67 31.2167V32.6739L110.407 31.9453C110.336 31.9043 110.245 31.9287 110.204 31.9998L109.907 32.5146C109.866 32.5857 109.89 32.6766 109.961 32.7177L111.224 33.4463L109.961 34.1749C109.89 34.216 109.866 34.3069 109.907 34.378L110.204 34.8929C110.245 34.964 110.336 34.9883 110.407 34.9474L111.67 34.2188V35.6759C111.67 35.758 111.737 35.8245 111.819 35.8245H112.414C112.496 35.8245 112.562 35.758 112.562 35.6759V34.2187L113.825 34.9473C113.896 34.9883 113.987 34.964 114.028 34.8928L114.326 34.3779C114.367 34.3068 114.343 34.216 114.271 34.1749Z" fill="#1C1C17"/>
</g>
<g clip-path="url(#clip3_5281_61071)">
<path d="M120.478 34.1749L119.216 33.4463L120.478 32.7177C120.55 32.6766 120.574 32.5857 120.533 32.5146L120.235 31.9996C120.194 31.9286 120.103 31.9041 120.032 31.9452L118.77 32.6738V31.2167C118.77 31.1346 118.703 31.0681 118.621 31.0681H118.026C117.944 31.0681 117.877 31.1346 117.877 31.2167V32.6739L116.614 31.9453C116.543 31.9042 116.452 31.9287 116.411 31.9997L116.114 32.5146C116.073 32.5857 116.097 32.6766 116.168 32.7177L117.431 33.4463L116.168 34.1749C116.097 34.2159 116.073 34.3069 116.114 34.378L116.411 34.8929C116.452 34.964 116.543 34.9883 116.614 34.9473L117.877 34.2187V35.6758C117.877 35.758 117.944 35.8245 118.026 35.8245H118.621C118.703 35.8245 118.77 35.758 118.77 35.6758V34.2186L120.032 34.9472C120.103 34.9883 120.194 34.964 120.235 34.8928L120.533 34.3779C120.574 34.3068 120.55 34.2159 120.478 34.1749Z" fill="#1C1C17"/>
</g>
<path d="M107.566 16.6468C106.253 17.2179 105.409 17.5794 104.439 18.6324C103.468 19.6855 103.166 20.5683 102.704 21.9237" stroke="#7D7D78" stroke-width="0.605754" stroke-linecap="round"/>
<path d="M109.109 16.2852H109.715" stroke="#7D7D78" stroke-width="0.605754" stroke-linecap="round"/>
<circle cx="120.5" cy="16.5" r="6.5" fill="#BA0803"/>
<rect x="120" y="13" width="1" height="5" rx="0.5" fill="white"/>
<rect width="1" height="1" rx="0.5" transform="matrix(1 0 0 -1 120 20)" fill="white"/>
<defs>
<clipPath id="clip0_5281_61071">
<rect width="4.45916" height="4.75643" fill="white" transform="translate(97.4805 31.0681)"/>
</clipPath>
<clipPath id="clip1_5281_61071">
<rect width="4.45916" height="4.75643" fill="white" transform="translate(103.691 31.0681)"/>
</clipPath>
<clipPath id="clip2_5281_61071">
<rect width="4.45916" height="4.75643" fill="white" transform="translate(109.887 31.0681)"/>
</clipPath>
<clipPath id="clip3_5281_61071">
<rect width="4.45916" height="4.75643" fill="white" transform="translate(116.094 31.0681)"/>
</clipPath>
</defs>
</svg>
