<svg width="153" height="157" viewBox="0 0 153 157" fill="none" xmlns="http://www.w3.org/2000/svg">
<path d="M139.269 49.8062C156.233 79.4616 158.495 108.266 133.587 131.666C107.932 155.767 70.0804 164.184 39.2816 147.122C8.07703 129.835 -5.80581 106.263 4.54009 72.1527C13.0276 44.1692 47.0484 55.1291 76.1304 51.7928C104.76 48.5083 124.354 28.4532 139.269 49.8062Z" fill="#FCF0E3"/>
<mask id="mask0_4800_47304" style="mask-type:alpha" maskUnits="userSpaceOnUse" x="1" y="3" width="151" height="153">
<path d="M139.278 51.7761C156.025 80.7601 158.259 108.913 133.669 131.783C108.342 155.338 70.9742 163.564 40.5693 146.889C9.76368 129.993 -6.66374 106.705 8.43835 65.8899C-7.67167 20.5953 0.891003 21.3914 50.2269 3.47266C91.0045 21.3914 124.554 30.9066 139.278 51.7761Z" fill="#FCF0E3"/>
</mask>
<g mask="url(#mask0_4800_47304)">
<path d="M94.7209 49.513C91.2093 48.9835 87.2098 43.7119 85.1992 40.4343C84.8322 39.836 84.351 39.2668 83.6776 39.069C79.9059 37.9612 79.8589 45.7941 80.3619 50.1756L67.9907 72.6279C74.9252 84.0414 89.204 107.42 90.8431 109.628C92.4823 111.836 106.503 116.199 113.309 118.105C118.675 130.599 123.151 134.895 128.033 134.67C134.734 134.361 149.737 121.727 146.659 114.76C144.062 108.879 135.827 100.751 130.556 97.3305C130.755 94.7843 129.898 87.4666 124.873 78.5654C118.592 67.4388 118.188 58.8951 108.526 57.4383C98.8637 55.9814 99.5521 50.2415 94.7209 49.513Z" fill="#FBBFA3"/>
<path d="M123.979 112.003C120.344 118.399 115.446 118.885 113.451 118.328L115.644 123.093L117.563 122.031C122.953 119.447 124.086 114.269 123.979 112.003Z" fill="#F9AF91"/>
<path d="M129.872 105.614C132.453 100.143 132.212 98.8155 131.282 97.9027C132.634 98.6049 134.045 99.6734 133.514 100.858C132.815 102.42 131.582 104.261 129.872 105.614Z" fill="#F9AF91"/>
<path d="M106.517 83.8965C108.094 85.3751 111.932 88.3009 115.624 89.1946C116.028 89.2759 116.399 89.344 116.724 89.3982C116.361 89.3529 115.993 89.2839 115.624 89.1946C112.707 88.6074 108.077 87.3296 106.597 85.5993C104.912 83.6292 105.841 83.6432 106.517 83.8965Z" fill="#F9AF91" stroke="#F9AF91" stroke-width="0.100685"/>
<path d="M103.86 95.3449C101.848 85.4976 105.572 77.6795 104.575 77.7255L93.6271 75.1721L78.1628 91.6152L93.077 111.113L98.5146 113.178L106.375 115.874L103.109 112.201C101.097 102.354 105.695 104.329 103.86 95.3449Z" fill="#F9AF91" stroke="#F9AF91" stroke-width="0.100685"/>
<path d="M9.20867 28.4907L8.17804 22.9408L75.0784 103.792L120.384 81.7384C121.876 84.3611 121.758 85.9102 121.097 87.1272C120.739 87.7868 120.099 88.237 119.417 88.5621L77.5089 108.535C75.3918 109.544 72.8503 108.97 71.3857 107.153L10.8315 32.0154C10.0055 30.9904 9.44805 29.7797 9.20867 28.4907Z" fill="#464643"/>
<path d="M49.468 5.04292L10.618 19.4109C8.0496 20.3607 7.17146 23.5155 8.88666 25.631L72.3966 103.962C73.8469 105.75 76.3454 106.328 78.4479 105.361L119.909 86.2927C121.598 85.516 122.075 83.3623 120.868 81.9595L56.1864 6.76759C54.5378 4.85113 51.8514 4.16149 49.468 5.04292Z" fill="black"/>
<path d="M12.8896 24.8552C11.8099 23.5422 12.3416 21.5697 13.9391 20.9622L49.9968 7.25098C51.594 6.64364 53.405 7.10051 54.5126 8.39019L117.046 81.2046C117.474 81.7028 117.308 82.4665 116.712 82.7477L79.0567 100.486C77.379 101.276 75.3721 100.829 74.1996 99.4034L12.8896 24.8552Z" fill="white"/>
<path d="M20.1128 20.1644C19.5466 18.7214 20.274 17.0982 21.7355 16.5434L41.7645 8.94026C43.371 8.33044 45.1888 8.68473 46.441 9.85171C47.5009 10.8395 47.1638 12.5813 45.81 13.1125L23.792 21.7519C22.3326 22.3246 20.6807 21.6118 20.1128 20.1644Z" fill="black"/>
<path d="M45.2738 70.8794C31.281 53.917 25.1968 47.7304 21.2664 46.2909C20.7646 46.1072 20.2485 46.4381 20.1298 46.9587C18.1533 55.6254 21.8551 55.3941 28.1299 64.2953C37.7423 77.9313 39.3948 82.4714 41.5822 87.7577C33.507 95.9995 34.9873 103.939 38.6966 107.253C34.4803 115.146 40.0262 123.333 42.694 125.111C35.6461 134.071 66.622 145.41 82.9003 148.145C86.1575 161.171 115.222 149.383 113.937 143.131C112.761 137.412 106.768 129.116 103.643 124.507C100.519 119.898 100.948 108.47 101.557 100.836C102.166 93.2024 95.8898 84.3953 96.4806 75.4016C96.7871 70.737 97.6518 67.7923 98.5416 65.5717C99.0762 64.2374 98.1714 62.7837 96.7487 62.9915C92.1352 63.6655 85.9397 66.3743 85.7216 74.9244C85.4496 85.5846 81.5783 88.1314 78.7374 89.53C74.0226 92.2828 61.6798 90.7673 45.2738 70.8794Z" fill="#FBBFA3"/>
<path d="M93.9314 143.74C90.4929 147.353 84.9327 149.366 83.0813 148.372C83.4322 149.435 83.7013 150.767 85.1825 151.562C86.6636 152.357 91.9663 146.709 93.9314 143.74Z" fill="#F9AF91" stroke="#F9AF91" stroke-width="0.201371"/>
<path d="M47.9627 113.279C45.7595 112.16 39.6269 107.973 38.6969 107.253L37.5954 110.408C40.6354 111.54 50.1659 114.399 47.9627 113.279Z" fill="#F9AF91" stroke="#F9AF91" stroke-width="0.100685"/>
<path d="M41.6875 88.2773C43.6925 90.8656 48.6831 95.3262 52.6013 97.445C49.5716 96.8683 43.6909 96.2567 41.6875 88.2773Z" fill="#F9AF91" stroke="#F9AF91" stroke-width="0.100685"/>
<path d="M104.987 132.692C105.448 131.985 105.251 127.992 105.203 126.975L106.773 129.631C106.845 131.157 104.394 133.599 104.987 132.692Z" fill="#F9AF91" stroke="#F9AF91" stroke-width="0.0100685"/>
<path d="M48.8127 128.944C46.7864 127.693 43.3167 126.214 42.4592 125.414L41.7484 126.74C44.5408 128.01 50.839 130.194 48.8127 128.944Z" fill="#F9AF91" stroke="#F9AF91" stroke-width="0.100685"/>
</g>
<path d="M87.3826 11.3272C98.47 -0.584347 117.114 -1.25253 129.026 9.83482C140.937 20.9222 141.606 39.5665 130.518 51.4781C120.654 62.0761 104.807 63.7734 93.042 56.2097L89.1542 57.4021L82.9902 59.2928L84.4348 53.0093L85.3459 49.0462C76.9594 37.8529 77.518 21.9252 87.3826 11.3272Z" fill="#33628D"/>
<rect width="28.125" height="30.8565" transform="translate(95 16.2344)" fill="#33628D"/>
<path d="M98.75 28.4967C98.75 27.8276 99.2924 27.2852 99.9615 27.2852H118.437C119.106 27.2852 119.649 27.8276 119.649 28.4967V36.0686C119.649 41.8396 114.97 46.5178 109.199 46.5178C103.428 46.5178 98.75 41.8396 98.75 36.0686V28.4967Z" fill="#F3F3F2"/>
<path fill-rule="evenodd" clip-rule="evenodd" d="M109.255 15.6621C104.864 15.6621 101.305 19.2217 101.305 23.6126V27.3229H117.206V23.6126C117.206 19.2217 113.646 15.6621 109.255 15.6621ZM109.255 19.1452C106.653 19.1452 104.544 21.2545 104.544 23.8566V27.3228H113.966V23.8566C113.966 21.2545 111.857 19.1452 109.255 19.1452Z" fill="#F3F3F2"/>
<rect x="95" y="29.6621" width="28.125" height="9.09927" rx="1.21151" fill="#BEBEBB"/>
<g clip-path="url(#clip0_4800_47304)">
<path d="M101.865 34.8373L100.602 34.1087L101.865 33.3801C101.936 33.339 101.961 33.2482 101.92 33.177L101.622 32.6621C101.581 32.591 101.49 32.5666 101.419 32.6076L100.156 33.3362V31.8791C100.156 31.797 100.09 31.7305 100.007 31.7305H99.4126C99.3304 31.7305 99.2638 31.797 99.2638 31.8791V33.3363L98.0011 32.6077C97.9299 32.5667 97.8389 32.5911 97.7979 32.6622L97.5004 33.177C97.4594 33.2481 97.4837 33.339 97.5549 33.3801L98.8176 34.1087L97.5549 34.8373C97.4837 34.8784 97.4594 34.9693 97.5004 35.0404L97.7979 35.5553C97.8389 35.6264 97.9299 35.6507 98.0011 35.6097L99.2638 34.8811V36.3383C99.2638 36.4204 99.3304 36.4869 99.4126 36.4869H100.007C100.09 36.4869 100.156 36.4204 100.156 36.3383V34.881L101.419 35.6097C101.49 35.6507 101.581 35.6264 101.622 35.5552L101.92 35.0403C101.961 34.9692 101.936 34.8784 101.865 34.8373Z" fill="#1C1C17"/>
</g>
<g clip-path="url(#clip1_4800_47304)">
<path d="M108.074 34.8373L106.811 34.1087L108.074 33.3801C108.145 33.339 108.17 33.2482 108.129 33.177L107.831 32.6621C107.79 32.591 107.699 32.5666 107.628 32.6076L106.365 33.3362V31.8791C106.365 31.797 106.299 31.7305 106.216 31.7305H105.622C105.539 31.7305 105.473 31.797 105.473 31.8791V33.3363L104.21 32.6077C104.139 32.5667 104.048 32.5911 104.007 32.6622L103.709 33.177C103.668 33.2481 103.693 33.339 103.764 33.3801L105.027 34.1087L103.764 34.8373C103.693 34.8784 103.668 34.9693 103.709 35.0404L104.007 35.5553C104.048 35.6264 104.139 35.6507 104.21 35.6097L105.473 34.8811V36.3383C105.473 36.4204 105.539 36.4869 105.622 36.4869H106.216C106.299 36.4869 106.365 36.4204 106.365 36.3383V34.881L107.628 35.6097C107.699 35.6507 107.79 35.6264 107.831 35.5552L108.129 35.0403C108.17 34.9692 108.145 34.8784 108.074 34.8373Z" fill="#1C1C17"/>
</g>
<g clip-path="url(#clip2_4800_47304)">
<path d="M114.275 34.8373L113.013 34.1087L114.275 33.3801C114.347 33.339 114.371 33.2482 114.33 33.177L114.032 32.6621C113.991 32.591 113.9 32.5666 113.829 32.6076L112.566 33.3362V31.8791C112.566 31.797 112.5 31.7305 112.418 31.7305H111.823C111.741 31.7305 111.674 31.797 111.674 31.8791V33.3363L110.411 32.6077C110.34 32.5667 110.249 32.5911 110.208 32.6622L109.911 33.177C109.87 33.2481 109.894 33.339 109.965 33.3801L111.228 34.1087L109.965 34.8373C109.894 34.8784 109.87 34.9693 109.911 35.0404L110.208 35.5553C110.249 35.6264 110.34 35.6507 110.411 35.6097L111.674 34.8811V36.3383C111.674 36.4204 111.741 36.4869 111.823 36.4869H112.418C112.5 36.4869 112.566 36.4204 112.566 36.3383V34.881L113.829 35.6097C113.9 35.6507 113.991 35.6264 114.032 35.5552L114.33 35.0403C114.371 34.9692 114.347 34.8784 114.275 34.8373Z" fill="#1C1C17"/>
</g>
<g clip-path="url(#clip3_4800_47304)">
<path d="M120.475 34.8373L119.212 34.1087L120.475 33.3801C120.546 33.339 120.57 33.2482 120.529 33.177L120.232 32.6621C120.19 32.591 120.1 32.5666 120.028 32.6076L118.766 33.3362V31.8791C118.766 31.797 118.699 31.7305 118.617 31.7305H118.022C117.94 31.7305 117.873 31.797 117.873 31.8791V33.3363L116.61 32.6077C116.539 32.5667 116.448 32.5911 116.407 32.6622L116.11 33.177C116.069 33.2481 116.093 33.339 116.164 33.3801L117.427 34.1087L116.164 34.8373C116.093 34.8784 116.069 34.9693 116.11 35.0404L116.407 35.5553C116.448 35.6264 116.539 35.6507 116.61 35.6097L117.873 34.8811V36.3383C117.873 36.4204 117.94 36.4869 118.022 36.4869H118.617C118.699 36.4869 118.766 36.4204 118.766 36.3383V34.881L120.028 35.6097C120.1 35.6507 120.19 35.6264 120.232 35.5552L120.529 35.0403C120.57 34.9692 120.546 34.8784 120.475 34.8373Z" fill="#1C1C17"/>
</g>
<path d="M107.566 17.3086C106.253 17.8797 105.409 18.2412 104.439 19.2942C103.468 20.3473 103.166 21.2301 102.704 22.5855" stroke="#7D7D78" stroke-width="0.605754" stroke-linecap="round"/>
<path d="M109.109 16.9473H109.715" stroke="#7D7D78" stroke-width="0.605754" stroke-linecap="round"/>
<defs>
<clipPath id="clip0_4800_47304">
<rect width="4.45916" height="4.75643" fill="white" transform="translate(97.4805 31.7305)"/>
</clipPath>
<clipPath id="clip1_4800_47304">
<rect width="4.45916" height="4.75643" fill="white" transform="translate(103.689 31.7305)"/>
</clipPath>
<clipPath id="clip2_4800_47304">
<rect width="4.45916" height="4.75643" fill="white" transform="translate(109.889 31.7305)"/>
</clipPath>
<clipPath id="clip3_4800_47304">
<rect width="4.45916" height="4.75643" fill="white" transform="translate(116.092 31.7305)"/>
</clipPath>
</defs>
</svg>
