<svg width="24" height="24" viewBox="0 0 24 24" fill="none" xmlns="http://www.w3.org/2000/svg">
<path fill-rule="evenodd" clip-rule="evenodd" d="M12 14C13.1046 14 14 13.1046 14 12C14 10.8954 13.1046 10 12 10C10.8954 10 10 10.8954 10 12C10 13.1046 10.8954 14 12 14ZM12 16C14.2091 16 16 14.2091 16 12C16 9.79086 14.2091 8 12 8C9.79086 8 8 9.79086 8 12C8 14.2091 9.79086 16 12 16Z" fill="#003B70"/>
<path fill-rule="evenodd" clip-rule="evenodd" d="M12 2C12.5523 2 13 2.44772 13 3V5C13 5.55228 12.5523 6 12 6C11.4477 6 11 5.55228 11 5V3C11 2.44772 11.4477 2 12 2Z" fill="#003B70"/>
<path fill-rule="evenodd" clip-rule="evenodd" d="M12 18C12.5523 18 13 18.4477 13 19V21C13 21.5523 12.5523 22 12 22C11.4477 22 11 21.5523 11 21V19C11 18.4477 11.4477 18 12 18Z" fill="#003B70"/>
<path fill-rule="evenodd" clip-rule="evenodd" d="M19.0743 4.92879C19.4648 5.31931 19.4648 5.95248 19.0743 6.343L17.6601 7.75721C17.2696 8.14774 16.6364 8.14774 16.2459 7.75721C15.8553 7.36669 15.8553 6.73352 16.2459 6.343L17.6601 4.92879C18.0506 4.53826 18.6838 4.53826 19.0743 4.92879Z" fill="#003B70"/>
<path fill-rule="evenodd" clip-rule="evenodd" d="M7.75398 16.2423C8.14451 16.6328 8.14451 17.266 7.75398 17.6565L6.33977 19.0707C5.94924 19.4612 5.31608 19.4612 4.92555 19.0707C4.53503 18.6802 4.53503 18.047 4.92555 17.6565L6.33977 16.2423C6.73029 15.8517 7.36346 15.8517 7.75398 16.2423Z" fill="#003B70"/>
<path fill-rule="evenodd" clip-rule="evenodd" d="M22 12C22 12.5523 21.5523 13 21 13L19 13C18.4477 13 18 12.5523 18 12C18 11.4477 18.4477 11 19 11L21 11C21.5523 11 22 11.4477 22 12Z" fill="#003B70"/>
<path fill-rule="evenodd" clip-rule="evenodd" d="M6 12C6 12.5523 5.55228 13 5 13L3 13C2.44771 13 2 12.5523 2 12C2 11.4477 2.44772 11 3 11L5 11C5.55228 11 6 11.4477 6 12Z" fill="#003B70"/>
<path fill-rule="evenodd" clip-rule="evenodd" d="M19.0741 19.0714C18.6836 19.4619 18.0505 19.4619 17.6599 19.0714L16.2457 17.6572C15.8552 17.2666 15.8552 16.6335 16.2457 16.2429C16.6362 15.8524 17.2694 15.8524 17.6599 16.2429L19.0741 17.6572C19.4647 18.0477 19.4647 18.6808 19.0741 19.0714Z" fill="#003B70"/>
<path fill-rule="evenodd" clip-rule="evenodd" d="M7.75383 7.75691C7.36331 8.14744 6.73014 8.14744 6.33962 7.75691L4.9254 6.3427C4.53488 5.95217 4.53488 5.31901 4.9254 4.92848C5.31593 4.53796 5.94909 4.53796 6.33962 4.92848L7.75383 6.3427C8.14436 6.73322 8.14436 7.36639 7.75383 7.75691Z" fill="#003B70"/>
</svg>
