<svg width="40" height="40" viewBox="0 0 40 40" fill="none" xmlns="http://www.w3.org/2000/svg">
<rect x="6.66406" y="2.66667" width="26.6667" height="16" rx="1" fill="#89CEEA"/>
<mask id="mask0_4320_9218" style="mask-type:alpha" maskUnits="userSpaceOnUse" x="6" y="2" width="28" height="17">
<rect x="6.66406" y="2.66667" width="26.6667" height="16" rx="1" fill="#89CEEA"/>
</mask>
<g mask="url(#mask0_4320_9218)">
<path d="M27.8759 2.22989L12.1797 2.26003L12.1828 3.897L27.8791 3.86686L27.8759 2.22989Z" fill="#195C86"/>
<path d="M25.9989 4.97653L14.0625 4.99945L14.0656 6.63642L26.002 6.6135L25.9989 4.97653Z" fill="#195C86"/>
<path d="M14.2972 12.6053C18.1544 11.307 22.5244 11.2286 25.9698 8.8662C26.1422 8.74838 26.0675 8.45169 25.8439 8.46612C24.527 8.55616 23.1926 8.58934 21.8946 8.85437C20.9522 9.04717 19.9108 9.39163 19.3415 10.225C18.8764 10.9079 18.754 11.8538 19.3039 12.5159C19.9067 13.2406 21.0925 13.55 20.7297 14.7043C20.6459 14.9707 21.069 15.0639 21.1523 14.7995C21.378 14.0811 21.1515 13.5233 20.5938 13.0443C19.8423 12.3995 19.0482 11.9439 19.5185 10.8062C19.9482 9.76743 21.1709 9.42386 22.1787 9.23823C23.3918 9.01456 24.6351 8.98249 25.8632 8.89835L25.7372 8.49827C22.3288 10.8355 17.9834 10.9054 14.1648 12.1908C13.9007 12.2793 14.031 12.6933 14.2954 12.6038L14.2972 12.6053Z" fill="#0D2436"/>
</g>
<circle cx="32.7899" cy="10.7899" r="2.78992" fill="#48D06A"/>
<rect x="31.6016" y="10.3941" width="1.56724" height="0.4982" rx="0.2491" transform="rotate(45.0735 31.6016 10.3941)" fill="white"/>
<path d="M32.198 11.6614C32.1102 11.5554 32.1249 11.3984 32.2309 11.3106L33.7758 10.0303C33.8817 9.94249 34.0388 9.95719 34.1266 10.0631C34.2143 10.169 34.1996 10.3261 34.0937 10.4138L32.5487 11.6942C32.4428 11.782 32.2858 11.7673 32.198 11.6614Z" fill="white"/>
<rect x="6.66406" y="20" width="26.6667" height="16" rx="1" fill="#E5EBF1"/>
<path d="M12.5938 32C15.4619 29.4656 16.896 27.438 16.896 25.9174C16.896 23.6364 16.0356 23.6364 15.1751 23.6364C14.3147 23.6364 13.4267 24.4614 13.4542 25.9174C13.4835 27.4745 14.8808 29.6255 15.6053 30.4793C16.896 32 17.7565 32.3802 18.6169 31.2397L20.3379 28.9587C20.6247 30.9862 21.4851 32 22.9192 32C23.3753 32 25.19 30.4793 25.5006 30.4793C25.9457 30.4793 26.8062 30.9862 28.082 32" stroke="#1A1A1A" stroke-width="0.5" stroke-linecap="round" stroke-linejoin="round"/>
<circle cx="32.79" cy="27.79" r="2.79" fill="#FF5351"/>
<path fill-rule="evenodd" clip-rule="evenodd" d="M31.6066 26.5852C31.6862 26.5056 31.8153 26.5056 31.8949 26.5852L32.77 27.4604L33.6452 26.5852C33.7248 26.5056 33.8539 26.5056 33.9335 26.5852C34.0131 26.6648 34.0131 26.7939 33.9335 26.8735L33.0584 27.7487L33.9335 28.6238C34.0131 28.7034 34.0131 28.8325 33.9335 28.9121C33.8539 28.9917 33.7248 28.9917 33.6452 28.9121L32.77 28.037L31.8949 28.9121C31.8153 28.9917 31.6862 28.9917 31.6066 28.9121C31.527 28.8325 31.527 28.7034 31.6066 28.6238L32.4817 27.7487L31.6066 26.8735C31.527 26.7939 31.527 26.6648 31.6066 26.5852Z" fill="#FEFEFE"/>
</svg>
