<svg width="24" height="24" viewBox="0 0 24 24" fill="none" xmlns="http://www.w3.org/2000/svg">
<path d="M9.00004 3.00004L8.88428 3.00002C8.06668 2.99982 7.50939 2.99968 7.02459 3.09611C5.04113 3.49064 3.49064 5.04113 3.09611 7.02459C2.99968 7.50939 2.99982 8.06668 3.00002 8.88428L3.00004 9.00004C3.00004 9.55232 3.44775 10 4.00004 10C4.55232 10 5.00004 9.55232 5.00004 9.00004C5.00004 8.0228 5.00488 7.68021 5.05768 7.41477C5.2944 6.22469 6.22469 5.2944 7.41477 5.05768C7.68021 5.00488 8.0228 5.00004 9.00004 5.00004C9.55232 5.00004 10 4.55232 10 4.00004C10 3.44775 9.55232 3.00004 9.00004 3.00004Z" fill="#003B70"/>
<path d="M15 3.00004L15.1158 3.00002C15.9334 2.99982 16.4907 2.99968 16.9755 3.09611C18.9589 3.49064 20.5094 5.04113 20.904 7.02459C21.0004 7.50938 21.0003 8.06666 21.0001 8.88425L21 9.00004C21 9.55232 20.5523 10 20 10C19.4478 10 19 9.55232 19 9.00004C19 8.0228 18.9952 7.68021 18.9424 7.41477C18.7057 6.22469 17.7754 5.2944 16.5853 5.05768C16.3199 5.00488 15.9773 5.00004 15 5.00004C14.4478 5.00004 14 4.55232 14 4.00004C14 3.44775 14.4478 3.00004 15 3.00004Z" fill="#003B70"/>
<path d="M8.88428 21.0001L9.00004 21C9.55232 21 10 20.5523 10 20C10 19.4478 9.55232 19 9.00004 19C8.0228 19 7.68021 18.9952 7.41477 18.9424C6.22469 18.7057 5.2944 17.7754 5.05768 16.5853C5.00488 16.3199 5.00004 15.9773 5.00004 15C5.00004 14.4478 4.55232 14 4.00004 14C3.44775 14 3.00004 14.4478 3.00004 15L3.00002 15.1158C2.99982 15.9334 2.99968 16.4907 3.09611 16.9755C3.49064 18.9589 5.04113 20.5094 7.02459 20.904C7.50938 21.0004 8.0667 21.0003 8.88428 21.0001Z" fill="#003B70"/>
<path d="M15 21L15.1158 21.0001C15.9334 21.0003 16.4907 21.0004 16.9755 20.904C18.9589 20.5094 20.5094 18.9589 20.904 16.9755C21.0004 16.4907 21.0003 15.9334 21.0001 15.1158L21 15C21 14.4478 20.5523 14 20 14C19.4478 14 19 14.4478 19 15C19 15.9773 18.9952 16.3199 18.9424 16.5853C18.7057 17.7754 17.7754 18.7057 16.5853 18.9424C16.3199 18.9952 15.9773 19 15 19C14.4478 19 14 19.4478 14 20C14 20.5523 14.4478 21 15 21Z" fill="#003B70"/>
<path fill-rule="evenodd" clip-rule="evenodd" d="M16.0001 9.75C16.0001 11.9591 14.2092 13.75 12.0001 13.75C9.79097 13.75 8.00011 11.9591 8.00011 9.75C8.00011 7.54086 9.79097 5.75 12.0001 5.75C14.2092 5.75 16.0001 7.54086 16.0001 9.75ZM12.0001 11.75C13.1047 11.75 14.0001 10.8546 14.0001 9.75C14.0001 8.64543 13.1047 7.75 12.0001 7.75C10.8955 7.75 10.0001 8.64543 10.0001 9.75C10.0001 10.8546 10.8955 11.75 12.0001 11.75Z" fill="#003B70"/>
<path fill-rule="evenodd" clip-rule="evenodd" d="M8.5542 17.5825L8.54956 17.5855L8.55156 17.5843C8.55601 17.5814 8.56595 17.5752 8.58125 17.5661C8.61186 17.5479 8.66381 17.5181 8.73611 17.4803C8.88086 17.4048 9.10616 17.2982 9.40435 17.1898C10.0006 16.973 10.8847 16.75 12.0001 16.75C13.1156 16.75 13.9996 16.973 14.5959 17.1898C14.8941 17.2982 15.1193 17.4048 15.2641 17.4803C15.3364 17.5181 15.3884 17.5479 15.419 17.5661C15.4343 17.5752 15.4442 17.5814 15.4487 17.5843L15.4476 17.5835L15.4466 17.5828C15.4466 17.5828 15.4454 17.5821 16.0001 16.75L15.4454 17.5821M15.4506 17.5855C15.9096 17.8874 16.527 17.7625 16.8322 17.3047C17.1385 16.8452 17.0143 16.2243 16.5548 15.9179L16.0209 16.7188C16.5548 15.9179 16.5548 15.9179 16.5548 15.9179L16.5535 15.9171L16.552 15.9161L16.5487 15.9139L16.5403 15.9084L16.5166 15.8933C16.4979 15.8814 16.4732 15.8662 16.4426 15.8479C16.3814 15.8115 16.2966 15.7632 16.1892 15.7072C15.9746 15.5952 15.6687 15.4518 15.2793 15.3102C14.5006 15.027 13.3847 14.75 12.0001 14.75C10.6156 14.75 9.4996 15.027 8.72086 15.3102C8.33156 15.4518 8.0256 15.5952 7.81098 15.7072C7.70359 15.7632 7.61882 15.8115 7.55764 15.8479C7.52704 15.8662 7.50231 15.8814 7.48357 15.8933L7.45996 15.9084L7.45155 15.9139L7.44819 15.9161L7.44673 15.9171C7.44673 15.9171 7.44541 15.9179 8.00011 16.75L7.44541 15.9179C6.98588 16.2243 6.8617 16.8452 7.16806 17.3047C7.47324 17.7625 8.09056 17.8874 8.54956 17.5855" fill="#003B70"/>
</svg>
