<svg width="40" height="40" viewBox="0 0 40 40" fill="none" xmlns="http://www.w3.org/2000/svg">
<g clip-path="url(#clip0_2855_12870)">
<path d="M24.4266 19.3105C24.6664 19.3286 25.0504 19.2683 25.2801 19.1766C25.5098 19.0849 25.8722 18.8482 26.0852 18.6508C26.2983 18.4531 26.6332 18.0027 26.8293 17.6494C27.0254 17.2962 27.2367 16.7774 27.2985 16.4966C27.3603 16.2157 27.1422 16.1729 26.8135 16.4015C26.4851 16.6302 25.992 16.794 25.7178 16.7655C25.4437 16.7371 25.1334 16.711 25.0285 16.7076C24.9233 16.7041 24.7979 16.7256 24.7492 16.7555C24.7005 16.7854 24.5962 16.8109 24.5169 16.8122C24.4376 16.8134 24.3329 16.7677 24.284 16.7106C24.235 16.6535 24.2631 16.4325 24.3461 16.2189C24.4293 16.0058 24.5321 15.7226 24.5745 15.5894C24.6168 15.4566 24.678 15.3078 24.7104 15.2589C24.7427 15.21 24.8018 15.1207 24.8413 15.0603C24.8811 15 24.86 14.9555 24.7942 14.9617C24.7284 14.9678 24.6142 14.926 24.5402 14.8688C24.4665 14.8118 24.2609 14.7501 24.083 14.7317C23.9055 14.7134 23.7128 14.6775 23.6556 14.6519C23.5981 14.6262 23.4716 14.634 23.3743 14.6686C23.277 14.7033 23.2804 14.7595 23.3817 14.7936C23.483 14.8276 23.6319 14.8986 23.712 14.9519C23.7922 15.0048 23.812 15.0516 23.756 15.0558C23.6996 15.06 23.5965 15.0322 23.5267 14.9944C23.4566 14.9565 23.4086 14.9685 23.4193 15.0208C23.4299 15.0734 23.5045 15.1494 23.5848 15.1903C23.6652 15.2309 23.731 15.2948 23.7312 15.3319C23.7315 15.3691 23.5537 15.4848 23.3366 15.5887C23.1195 15.6927 22.8901 15.7436 22.8268 15.702C22.7635 15.66 22.655 15.467 22.5853 15.2726C22.5156 15.0782 22.3535 14.7817 22.2249 14.6145C22.0963 14.4469 22.0534 13.9394 22.13 13.4866C22.2062 13.0337 22.0811 12.7991 21.8519 12.9651C21.6223 13.1313 21.2654 13.4521 21.0581 13.6785C20.8509 13.9048 20.5798 14.3198 20.4562 14.601C20.3321 14.8821 20.2288 15.3607 20.2263 15.6643C20.2238 15.9679 20.3224 16.4314 20.4459 16.6945C20.569 16.9574 20.8342 17.2202 21.0353 17.2787C21.236 17.337 21.2935 17.4391 21.1628 17.5056C21.0325 17.5721 20.858 17.6931 20.7752 17.7744C20.6925 17.8558 20.5225 17.9699 20.3979 18.0276C20.2733 18.0853 20.1249 18.1055 20.0683 18.0725C20.0117 18.0391 19.9622 17.9763 19.9583 17.9323C19.9543 17.8883 19.8953 17.8294 19.8275 17.801C19.7598 17.7726 19.6761 17.5721 19.6417 17.3557C19.6074 17.1389 19.5538 17.0261 19.5227 17.1045C19.4915 17.1828 19.3947 17.2067 19.3077 17.1575C19.2206 17.1083 19.1878 17.2755 19.2347 17.5295C19.2817 17.7832 19.3698 17.9971 19.4311 18.0042C19.4924 18.0116 19.5471 18.0513 19.5529 18.0923C19.5586 18.1333 19.5401 18.1921 19.5119 18.2228C19.4832 18.2534 19.4764 18.3302 19.4968 18.3928C19.517 18.4558 19.5714 18.5321 19.6174 18.5623C19.6634 18.5925 19.7795 18.7539 19.8756 18.9206C19.9718 19.0872 19.9491 19.2645 19.825 19.3148C19.701 19.3648 19.7754 19.5898 19.9905 19.814C20.2051 20.0384 20.5058 20.2066 20.6587 20.1878C20.8113 20.169 20.9453 20.2577 20.9564 20.3845C20.9675 20.5114 21.2302 20.7223 21.5398 20.8524C21.8498 20.9829 22.1043 20.9755 22.1058 20.8361C22.1072 20.6967 22.2707 20.6125 22.4697 20.6488C22.6683 20.6853 22.8547 20.7307 22.8834 20.7495C22.9121 20.7683 23.0084 20.7915 23.097 20.8006C23.1856 20.8097 23.2631 20.7901 23.2688 20.7565C23.2745 20.723 23.332 20.6869 23.397 20.6761C23.462 20.6653 23.5207 20.704 23.5278 20.7625C23.5345 20.8206 23.7625 20.8229 24.0346 20.7673C24.3064 20.7117 24.4569 20.622 24.3687 20.568C24.2805 20.5141 24.2616 20.4102 24.3259 20.3374C24.3906 20.2647 24.2528 20.2479 24.0204 20.3004C23.7875 20.3528 23.583 20.3561 23.5655 20.3076C23.5479 20.2591 23.473 20.2295 23.3985 20.2423C23.3241 20.2551 23.2372 20.2482 23.206 20.2273C23.1744 20.2064 23.1342 20.0988 23.1165 19.988C23.0987 19.8773 23.1175 19.7006 23.1581 19.5955C23.1986 19.4904 23.2703 19.2338 23.3173 19.0253C23.3642 18.8171 23.5352 18.7882 23.6974 18.9611C23.8595 19.1344 24.1884 19.2905 24.4281 19.3086L24.4266 19.3105ZM21.3485 18.4172C21.3143 18.469 21.1103 18.6347 20.895 18.7854C20.6797 18.9362 20.4441 18.9764 20.3711 18.8745C20.2982 18.7727 20.2718 18.6338 20.3126 18.5658C20.3534 18.4978 20.3676 18.4096 20.3448 18.3697C20.3216 18.3296 20.4286 18.2754 20.5821 18.249C20.7357 18.2225 20.9849 18.2285 21.1358 18.2621C21.2866 18.2961 21.3825 18.3657 21.3484 18.4175L21.3485 18.4172ZM22.682 19.2829C22.7779 19.4124 22.8726 19.6473 22.8926 19.8046C22.9122 19.9619 22.8941 20.0919 22.852 20.0929C22.8101 20.0939 22.7424 20.1405 22.7014 20.196C22.6607 20.2517 22.5231 20.2656 22.3959 20.2268C22.2686 20.188 22.2075 19.9589 22.2601 19.7172C22.3128 19.4754 22.3896 19.2257 22.4315 19.1628C22.4735 19.0996 22.586 19.1538 22.6819 19.2833L22.682 19.2829Z" fill="#FAF39D"/>
<path d="M23.696 18.963C23.8581 19.1363 24.187 19.2924 24.4268 19.3105C24.6666 19.3286 25.0507 19.2683 25.2803 19.1766C25.51 19.0849 25.8724 18.8482 26.0854 18.6508C26.2985 18.4531 26.6334 18.0027 26.8295 17.6494C27.0256 17.2962 27.2369 16.7775 27.2987 16.4966C27.3605 16.2157 27.1424 16.1729 26.8137 16.4015C26.4854 16.6302 25.9922 16.794 25.7181 16.7655C25.4439 16.7371 25.1336 16.711 25.0288 16.7076C24.9235 16.7041 24.7981 16.7257 24.7494 16.7555C24.7007 16.7854 24.5964 16.8109 24.5171 16.8122C24.4378 16.8134 24.3331 16.7677 24.2842 16.7106C24.2352 16.6535 24.2633 16.4325 24.3463 16.2189C24.4295 16.0058 24.5323 15.7226 24.5747 15.5894C24.617 15.4566 24.6782 15.3078 24.7106 15.2589C24.743 15.21 24.802 15.1207 24.8415 15.0603C24.8813 15 24.8602 14.9555 24.7944 14.9617C24.7286 14.9678 24.6144 14.926 24.5404 14.8688C24.5254 14.8572 24.5037 14.8456 24.479 14.8337L20.8945 20.2597C20.9292 20.2933 20.9521 20.3363 20.9565 20.3852C20.9676 20.5121 21.2302 20.723 21.5399 20.8531C21.8498 20.9836 22.1044 20.9762 22.1058 20.8368C22.1073 20.6974 22.2708 20.6133 22.4698 20.6495C22.6683 20.686 22.8548 20.7314 22.8835 20.7502C22.9122 20.769 23.0085 20.7922 23.0971 20.8014C23.1857 20.8105 23.2631 20.7908 23.2688 20.7573C23.2745 20.7237 23.3321 20.6876 23.3971 20.6768C23.4621 20.666 23.5208 20.7047 23.5278 20.7632C23.5346 20.8213 23.7626 20.8236 24.0347 20.768C24.3064 20.7124 24.457 20.6227 24.3688 20.5688C24.2805 20.5148 24.2616 20.4109 24.326 20.3381C24.3907 20.2654 24.2529 20.2486 24.0204 20.3011C23.7876 20.3535 23.5831 20.3569 23.5655 20.3083C23.548 20.2598 23.473 20.2302 23.3986 20.243C23.3242 20.2558 23.2373 20.249 23.206 20.2281C23.1744 20.2071 23.1343 20.0995 23.1165 19.9888C23.0988 19.878 23.1176 19.7013 23.1582 19.5962C23.1987 19.4911 23.2704 19.2346 23.3174 19.026C23.3643 18.8178 23.5352 18.7889 23.6974 18.9618L23.696 18.963ZM22.8924 19.8049C22.912 19.9622 22.8939 20.0922 22.8518 20.0932C22.8099 20.0942 22.7421 20.1408 22.7011 20.1963C22.6605 20.252 22.5229 20.2659 22.3957 20.2271C22.2684 20.1883 22.2073 19.9592 22.2599 19.7174C22.3125 19.4757 22.3894 19.226 22.4313 19.1631C22.4733 19.0999 22.5858 19.1541 22.6817 19.2836C22.7776 19.4131 22.8723 19.6479 22.8923 19.8053L22.8924 19.8049Z" fill="#FAD87C"/>
<path d="M38.5283 29.5164C38.5302 30.5631 37.6754 31.4208 36.6292 31.4228L3.88118 31.4831C2.83452 31.4851 1.97683 30.6303 1.97477 29.584L1.93935 10.3588C1.93736 9.31213 2.79216 8.45444 3.83882 8.45245L36.5868 8.39219C37.6334 8.3902 38.4911 9.245 38.4932 10.2913L38.5286 29.5165L38.5283 29.5164Z" fill="#89CEEA"/>
<g filter="url(#filter0_f_2855_12870)">
<path d="M36.5692 13.0445L28.207 13.0605L28.228 23.9763L36.5902 23.9602L36.5692 13.0445Z" fill="#195C86"/>
<mask id="mask0_2855_12870" style="mask-type:luminance" maskUnits="userSpaceOnUse" x="28" y="13" width="9" height="11">
<path d="M36.5692 13.0445L28.207 13.0605L28.228 23.9763L36.5902 23.9602L36.5692 13.0445Z" fill="white"/>
</mask>
<g mask="url(#mask0_2855_12870)">
<path d="M35.6355 23.4483L29.0635 23.4609L29.0683 25.9746L35.6403 25.962L35.6355 23.4483Z" fill="#9A7978"/>
<mask id="mask1_2855_12870" style="mask-type:luminance" maskUnits="userSpaceOnUse" x="-17" y="1" width="97" height="55">
<path d="M79.3376 1.13181L-16.8027 1.31641L-16.6989 55.3953L79.4414 55.2107L79.3376 1.13181Z" fill="white"/>
</mask>
<g mask="url(#mask1_2855_12870)">
<path d="M34.3837 24.7047C34.3849 25.3942 34.9447 25.9518 35.6342 25.9507C36.3233 25.9494 36.8814 25.3897 36.8802 24.7002C36.879 24.0107 36.3192 23.453 35.6297 23.4542C34.9405 23.4554 34.3825 24.0152 34.3837 24.7047Z" fill="#9A7978"/>
</g>
<path d="M26.8304 30.1142L30.0958 25.428C30.4899 24.8624 30.351 24.0846 29.7854 23.6904C29.2198 23.2962 28.442 23.4352 28.0478 24.0008L24.7824 28.687L26.8308 30.1143L26.8304 30.1142Z" fill="#9A7978"/>
<path d="M27.8068 24.7246C27.8081 25.4187 28.3718 25.9806 29.0658 25.9793C29.7599 25.978 30.3214 25.4142 30.3201 24.7202C30.3188 24.0262 29.7551 23.4646 29.0611 23.4655C28.3671 23.4668 27.8052 24.0305 27.8065 24.7246" fill="#9A7978"/>
<path d="M34.3791 24.7127C34.3804 25.4067 34.9441 25.9686 35.6382 25.9673C36.3322 25.966 36.8938 25.4022 36.8925 24.7082C36.8912 24.0142 36.3274 23.4526 35.6334 23.4539C34.9393 23.4552 34.3774 24.0189 34.3787 24.713" fill="#9A7978"/>
<path d="M33.3959 23.4577L31.2992 23.4617C30.1173 23.4639 29.1438 24.3911 29.0848 25.572L28.4739 37.7588C28.4635 37.9662 28.6291 38.1403 28.8368 38.1398L35.9122 38.1267C36.1202 38.1263 36.285 37.9518 36.2737 37.7444L35.6179 25.5602C35.5547 24.3798 34.5777 23.4562 33.3958 23.4581" fill="#9A7978"/>
<path d="M32.7674 24.6678L31.9561 24.6692C31.3625 24.6703 30.9052 24.1466 30.9859 23.5591L31.2073 21.9432L33.506 21.9391L33.7334 23.5542C33.816 24.1418 33.3606 24.667 32.7673 24.6681" fill="#FFC1B3"/>
<path d="M35.3648 19.3435C35.3655 19.643 35.1233 19.8862 34.8236 19.8865C34.5242 19.8872 34.281 19.6447 34.2807 19.3453C34.2804 19.046 34.5225 18.8027 34.8218 18.8024C35.1213 18.8017 35.3644 19.0442 35.3648 19.3435Z" fill="#FFC1B3"/>
<path d="M30.4235 19.3523C30.4242 19.6518 30.1817 19.8949 29.8823 19.8953C29.5829 19.896 29.3397 19.6535 29.3394 19.3541C29.3387 19.0547 29.5812 18.8115 29.8805 18.8112C30.18 18.8105 30.4231 19.053 30.4235 19.3523Z" fill="#FFC1B3"/>
<path d="M35.1296 19.3019C35.13 19.526 34.9486 19.708 34.7245 19.7085C34.5004 19.7089 34.3184 19.5274 34.3179 19.3033C34.3175 19.0792 34.4986 18.8972 34.7231 18.8968C34.9472 18.8964 35.1292 19.0778 35.1296 19.3019Z" fill="#FEA18D"/>
<path d="M30.447 19.3107C30.4474 19.5348 30.2659 19.7168 30.0418 19.7172C29.8177 19.7177 29.6357 19.5362 29.6353 19.3121C29.6349 19.088 29.8163 18.906 30.0404 18.9056C30.2645 18.9051 30.4465 19.0866 30.447 19.3107Z" fill="#FEA18D"/>
<mask id="mask2_2855_12870" style="mask-type:luminance" maskUnits="userSpaceOnUse" x="-17" y="1" width="97" height="55">
<path d="M79.3376 1.13181L-16.8027 1.31641L-16.6989 55.3953L79.4414 55.2107L79.3376 1.13181Z" fill="white"/>
</mask>
<g mask="url(#mask2_2855_12870)">
<path d="M32.6797 21.8762L32.0449 21.8773C31.1732 21.8791 30.4068 21.1962 30.246 20.2474L29.9295 18.3774C29.7106 17.0848 30.5624 15.8766 31.7499 15.8745L32.952 15.8723C34.1396 15.8703 34.9956 17.0749 34.7816 18.3684L34.4719 20.2397C34.3146 21.1887 33.551 21.8744 32.6793 21.8761" fill="#514137"/>
</g>
<mask id="mask3_2855_12870" style="mask-type:luminance" maskUnits="userSpaceOnUse" x="-17" y="1" width="97" height="55">
<path d="M79.3376 1.13181L-16.8027 1.31641L-16.6989 55.3953L79.4414 55.2107L79.3376 1.13181Z" fill="white"/>
</mask>
<g mask="url(#mask3_2855_12870)">
<path d="M32.6805 22.5482L32.0589 22.5493C31.2052 22.551 30.4552 21.8564 30.2985 20.8929L29.9902 18.9951C29.7772 17.6844 30.6104 16.4607 31.7709 16.4585L32.9458 16.4562C34.1064 16.4541 34.9441 17.6748 34.7359 18.9861L34.4345 20.8852C34.2817 21.8493 33.5339 22.5465 32.6806 22.5478" fill="#FEA18D"/>
</g>
<mask id="mask4_2855_12870" style="mask-type:luminance" maskUnits="userSpaceOnUse" x="-17" y="1" width="97" height="55">
<path d="M79.3376 1.13181L-16.8027 1.31641L-16.6989 55.3953L79.4414 55.2107L79.3376 1.13181Z" fill="white"/>
</mask>
<g mask="url(#mask4_2855_12870)">
<path d="M32.6824 22.2625L32.0443 22.2637C31.1682 22.2651 30.3974 21.603 30.2365 20.6831L29.9188 18.8697C29.6993 17.6167 30.5555 16.4454 31.7486 16.4434L32.9564 16.4411C34.1496 16.4388 35.0101 17.6066 34.795 18.8605L34.4838 20.6749C34.3259 21.5953 33.5583 22.2606 32.6821 22.2621" fill="#FFC1B3"/>
</g>
<path d="M33.6261 18.8659C33.6264 18.976 33.5373 19.0654 33.4272 19.0653C33.3174 19.0656 33.2277 18.9765 33.2278 18.8664C33.2275 18.7562 33.3166 18.6669 33.4267 18.667C33.5369 18.6667 33.6262 18.7557 33.6261 18.8659Z" fill="#312E3E"/>
<path d="M31.4903 18.8619C31.4907 18.9718 31.4016 19.0611 31.2915 19.0614C31.1816 19.0617 31.092 18.9726 31.092 18.8625C31.0918 18.7523 31.1808 18.663 31.2909 18.6631C31.4011 18.6628 31.4904 18.7518 31.4903 18.8619Z" fill="#312E3E"/>
<path d="M33.9507 20.0475L33.5149 20.0482C33.4224 20.0483 33.3471 19.9733 33.347 19.8808C33.3469 19.7882 33.4219 19.713 33.5145 19.7129L33.9503 19.7122C34.0428 19.7121 34.1181 19.7867 34.1182 19.8796C34.1183 19.9722 34.0433 20.0474 33.9507 20.0475Z" fill="#D8A198"/>
<path d="M31.2349 20.0524L30.7991 20.0531C30.7066 20.0532 30.6313 19.9782 30.6312 19.8857C30.6311 19.7931 30.7061 19.7179 30.7986 19.7177L31.2348 19.7171C31.3273 19.717 31.4027 19.7917 31.4027 19.8846C31.4028 19.9771 31.3278 20.0524 31.2353 20.0525" fill="#D8A198"/>
<path d="M32.3778 20.2829C32.2504 20.283 32.147 20.1803 32.1469 20.0529L32.1459 19.5387C32.1457 19.4113 32.2484 19.3082 32.3758 19.3078C32.5032 19.3076 32.6063 19.4103 32.6065 19.5377L32.6075 20.0518C32.6077 20.1788 32.5046 20.2822 32.3775 20.2828" fill="#FF5351"/>
<path d="M32.3778 20.1193C32.2504 20.1194 32.147 20.0167 32.1468 19.8893L32.1458 19.4332C32.1457 19.3059 32.2488 19.2025 32.3758 19.2023C32.5032 19.2021 32.6062 19.3051 32.6068 19.4322L32.6078 19.8883C32.6079 20.0157 32.5049 20.1187 32.3778 20.1193Z" fill="#FF7574"/>
<path d="M33.8133 18.1979L33.3104 18.1988C33.2549 18.199 33.2099 18.1541 33.2097 18.0986C33.2095 18.0431 33.2545 17.9978 33.31 17.9976L33.8129 17.9966C33.8684 17.9964 33.9137 18.0415 33.9135 18.0972C33.9137 18.1527 33.8687 18.198 33.8133 18.1979Z" fill="#312E3E"/>
<path d="M31.4328 18.2028L30.9299 18.2037C30.8744 18.204 30.8291 18.1589 30.8289 18.1034C30.8286 18.048 30.8737 18.0027 30.9295 18.0025L31.4324 18.0016C31.4879 18.0014 31.5332 18.0464 31.533 18.1022C31.5332 18.1577 31.4882 18.203 31.4328 18.2028Z" fill="#312E3E"/>
<path d="M29.1436 16.7174C29.2799 17.3007 30.2591 17.7446 31.4425 17.7322C32.626 17.7199 33.5959 17.2556 33.7201 16.6696L29.1436 16.7174Z" fill="#514137"/>
<path d="M30.0496 18.829C29.9514 18.8294 29.8719 18.7497 29.8716 18.6515L29.8688 17.0517C29.8684 16.9535 29.9478 16.874 30.046 16.8737C30.1442 16.8733 30.2236 16.953 30.2241 17.0509L30.2269 18.6506C30.2269 18.7487 30.1478 18.8287 30.0497 18.8287" fill="#514137"/>
<path d="M34.6522 18.8382C34.554 18.8386 34.4742 18.7588 34.4742 18.661L34.4709 16.8836L34.8266 16.8829L34.8298 18.6603C34.8302 18.7585 34.7505 18.8379 34.6526 18.8383" fill="#514137"/>
<path d="M32.6577 15.8489C32.6561 15.078 32.0304 14.4542 31.2595 14.4557C30.4886 14.4573 29.8647 15.0831 29.8663 15.854C29.8679 16.6249 30.4937 17.2487 31.2646 17.2472C32.0354 17.2456 32.659 16.6197 32.6577 15.8489Z" fill="#514137"/>
<path d="M34.782 16.4385C34.7812 15.8521 34.3045 15.3776 33.7185 15.3785C33.132 15.3797 32.6576 15.856 32.6588 16.4421C32.6597 17.0286 33.1363 17.5031 33.7225 17.5018C34.3089 17.5006 34.7834 17.0243 34.7821 16.4382" fill="#514137"/>
<path d="M29.8694 17.5094L29.8663 15.8542L32.2567 14.8725C32.2567 14.8725 32.9958 15.3975 33.9094 15.3959C34.823 15.3942 34.8242 16.2021 34.8263 17.3911C34.8283 18.5805 34.5372 16.5363 34.5372 16.5363L34.3787 16.5201C34.3787 16.5201 34.0239 16.5832 33.9659 16.6545C33.9076 16.7256 33.7536 16.9051 33.7453 16.9302C33.737 16.9554 32.7136 17.3578 31.3983 17.3603C30.0826 17.3627 30.0945 16.9245 30.0945 16.9245L30.0474 17.469L29.8696 17.5098L29.8694 17.5094Z" fill="#514137"/>
<mask id="mask5_2855_12870" style="mask-type:luminance" maskUnits="userSpaceOnUse" x="-17" y="1" width="97" height="55">
<path d="M79.3376 1.13181L-16.8027 1.31641L-16.6989 55.3953L79.4414 55.2107L79.3376 1.13181Z" fill="white"/>
</mask>
<g mask="url(#mask5_2855_12870)">
<path d="M32.779 20.995C32.7599 20.9948 32.7406 21.0021 32.7259 21.017C32.6333 21.1095 32.5106 21.16 32.3798 21.1599C32.2494 21.1596 32.1267 21.1086 32.0342 21.016C32.0051 20.9866 31.9575 20.9864 31.9282 21.0159C31.8989 21.0454 31.8987 21.0926 31.9281 21.1219C32.0487 21.2431 32.209 21.3096 32.3796 21.3101C32.55 21.3103 32.7108 21.2441 32.8316 21.1236C32.861 21.0945 32.8611 21.0469 32.8317 21.0176C32.8171 21.0029 32.7979 20.9956 32.7788 20.9954L32.779 20.995Z" fill="#A88027"/>
</g>
<path d="M40.0531 28.5274L35.0368 25.7956C34.4313 25.4659 34.208 24.708 34.5378 24.1024C34.8675 23.4969 35.6254 23.2736 36.231 23.6034L41.2472 26.3351L40.0534 28.5275L40.0531 28.5274Z" fill="#9A7978"/>
</g>
</g>
<path d="M35.1309 24.512L29.6895 24.5225L29.6905 25.09L35.132 25.0795L35.1309 24.512Z" fill="#195C86"/>
<path d="M34.4817 25.4637L30.3438 25.4717L30.3448 26.0392L34.4828 26.0312L34.4817 25.4637Z" fill="#195C86"/>
<g filter="url(#filter1_f_2855_12870)">
<path d="M30.4209 28.1093C31.7581 27.6592 33.273 27.632 34.4674 26.8131C34.5272 26.7722 34.5013 26.6694 34.4238 26.6744C33.9672 26.7056 33.5047 26.7171 33.0547 26.809C32.728 26.8758 32.3669 26.9952 32.1696 27.2841C32.0084 27.5208 31.9659 27.8488 32.1566 28.0783C32.3655 28.3295 32.7766 28.4368 32.6508 28.837C32.6218 28.9293 32.7685 28.9616 32.7974 28.87C32.8756 28.6209 32.7971 28.4275 32.6037 28.2615C32.3432 28.0379 32.0679 27.88 32.2309 27.4856C32.3799 27.1255 32.8038 27.0064 33.1532 26.942C33.5737 26.8645 34.0047 26.8534 34.4305 26.8242L34.3868 26.6855C33.2052 27.4958 31.6988 27.52 30.375 27.9656C30.2834 27.9963 30.3286 28.1398 30.4202 28.1088L30.4209 28.1093Z" fill="#0D2436"/>
</g>
<g filter="url(#filter2_f_2855_12870)">
<path d="M25.1281 15.3932L11.7246 15.4189L11.7257 15.9864L25.1292 15.9607L25.1281 15.3932Z" fill="#195C86"/>
<path d="M20.7245 16.5364L11.7275 16.5537L11.7286 17.1212L20.7256 17.1039L20.7245 16.5364Z" fill="#195C86"/>
<path d="M15.9946 17.6803L11.7295 17.6885L11.7306 18.256L15.9957 18.2478L15.9946 17.6803Z" fill="#195C86"/>
<path d="M15.6209 18.8158L11.7314 18.8232L11.7325 19.3907L15.622 19.3833L15.6209 18.8158Z" fill="#195C86"/>
<path d="M14.9052 19.9519L11.7334 19.958L11.7345 20.5255L14.9063 20.5194L14.9052 19.9519Z" fill="#195C86"/>
<path d="M18.079 21.0806L11.7354 21.0928L11.7364 21.6603L18.0801 21.6481L18.079 21.0806Z" fill="#195C86"/>
<path d="M15.4766 22.2213L11.7373 22.2285L11.7384 22.796L15.4777 22.7888L15.4766 22.2213Z" fill="#195C86"/>
<path d="M13.867 23.3644L11.7344 23.3682L11.7354 23.9357L13.8679 23.9319L13.867 23.3644Z" fill="#195C86"/>
<path d="M14.2347 24.4933L11.7422 24.498L11.7433 25.0655L14.2358 25.0608L14.2347 24.4933Z" fill="#195C86"/>
<path d="M18.0888 25.6206L11.7451 25.6328L11.7462 26.2003L18.0899 26.1881L18.0888 25.6206Z" fill="#195C86"/>
<path d="M13.8787 26.7635L11.7461 26.7676L11.7472 27.3351L13.8798 27.331L13.8787 26.7635Z" fill="#195C86"/>
<path d="M14.9208 27.8963L11.749 27.9023L11.7501 28.4698L14.9219 28.4637L14.9208 27.8963Z" fill="#195C86"/>
</g>
<g filter="url(#filter3_f_2855_12870)">
<path d="M28.7226 11.439L11.7168 11.4717L11.7179 12.0392L28.7237 12.0065L28.7226 11.439Z" fill="#195C86"/>
<path d="M7.94694 9.90409L7.94794 10.4714L7.94894 11.0388L32.4868 10.9937L32.4858 10.4264L32.4848 9.85902L7.94694 9.90409Z" fill="#195C86"/>
</g>
<g filter="url(#filter4_f_2855_12870)">
<path d="M11.0338 12.9446L11.3055 12.9441L11.3072 13.806L11.4162 13.8058L11.4157 13.5536C11.4158 13.5319 11.4208 13.5147 11.4311 13.502C11.4414 13.4897 11.4551 13.4835 11.4721 13.4832C11.4886 13.4831 11.502 13.4899 11.5127 13.5024C11.5233 13.5153 11.5284 13.5322 11.5286 13.5532L11.5292 13.8695C11.5291 13.8882 11.5234 13.9038 11.5117 13.9157C11.5 13.9277 11.4848 13.9337 11.4664 13.9336L11.0359 13.9344C11.0172 13.9343 11.002 13.9286 10.9904 13.9166C10.9789 13.9047 10.973 13.8895 10.9728 13.8703C10.9726 13.8512 10.9786 13.8361 10.9903 13.8241C11.002 13.8121 11.0172 13.8062 11.0355 13.8062L11.1944 13.806L11.1931 13.0723L11.0342 13.0725C11.0151 13.0726 10.9996 13.0665 10.9883 13.055C10.9771 13.0435 10.9712 13.0279 10.9711 13.0084C10.9708 12.9896 10.977 12.9742 10.9886 12.9622C11.0003 12.9502 11.0155 12.9443 11.0339 12.9443L11.0338 12.9446Z" fill="#195C86"/>
<path d="M11.9996 12.9425L12.3803 12.9418C12.4114 12.9417 12.4379 12.954 12.46 12.9789C12.4821 13.0037 12.4933 13.0339 12.4934 13.0699L12.4938 13.3723C12.4939 13.4083 12.483 13.4384 12.4609 13.4634C12.4388 13.4884 12.4124 13.5008 12.3813 13.5009L12.0507 13.5017L12.0513 13.8049L12.4317 13.8041C12.4504 13.8042 12.4656 13.8098 12.4772 13.8218C12.4887 13.8338 12.4946 13.8493 12.4948 13.8681C12.4951 13.8869 12.489 13.9024 12.4773 13.9144C12.4656 13.9263 12.4504 13.9323 12.4321 13.9323L11.9386 13.933L11.9376 13.5017C11.9377 13.4665 11.9483 13.4359 11.9704 13.4109C11.9922 13.3859 12.019 13.3732 12.0505 13.3732L12.3811 13.3724L12.3806 13.07L11.9999 13.0707C11.9808 13.0709 11.9653 13.0648 11.954 13.0533C11.9428 13.0417 11.9369 13.0262 11.9368 13.0067C11.9365 12.9879 11.9427 12.9724 11.9543 12.9604C11.966 12.9485 11.9812 12.9425 11.9996 12.9425Z" fill="#195C86"/>
<path d="M12.9666 12.9406L13.347 12.9398C13.3777 12.9396 13.4041 12.9523 13.4266 12.9772C13.449 13.0024 13.4602 13.0323 13.4601 13.0679L13.4604 13.3058C13.4606 13.3283 13.4568 13.35 13.4498 13.3709C13.4429 13.3918 13.4322 13.4126 13.4183 13.4327C13.4325 13.4546 13.4429 13.4764 13.4499 13.4986C13.4569 13.5208 13.4605 13.5429 13.4605 13.5647L13.4611 13.8012C13.4611 13.8364 13.4501 13.8669 13.428 13.8918C13.4062 13.9169 13.3794 13.9296 13.3483 13.9297L12.9679 13.9305C12.9492 13.9304 12.934 13.9247 12.9224 13.9128C12.9109 13.9008 12.9049 13.8856 12.9051 13.8665C12.9049 13.8478 12.911 13.8323 12.9227 13.8203C12.9343 13.8083 12.9495 13.8024 12.9679 13.8024L13.3471 13.8017L13.3466 13.563C13.3467 13.5461 13.341 13.5314 13.3297 13.5183C13.3184 13.5053 13.3052 13.499 13.2899 13.4989L13.0774 13.4993C13.0583 13.4995 13.0431 13.4935 13.0321 13.4824C13.0212 13.4709 13.0157 13.4555 13.0157 13.4356C13.0157 13.4172 13.0214 13.402 13.0328 13.3896C13.0442 13.3776 13.0591 13.3712 13.0774 13.3712L13.2899 13.3708C13.3053 13.3709 13.3183 13.3644 13.3294 13.3516C13.3406 13.3387 13.3462 13.3239 13.346 13.3063L13.3457 13.0683L12.9665 13.069C12.9473 13.0692 12.9319 13.0631 12.9206 13.0516C12.9093 13.04 12.9035 13.0245 12.9034 13.005C12.9035 12.9863 12.9092 12.9707 12.9209 12.9587C12.9326 12.9468 12.9478 12.9408 12.9661 12.9408L12.9666 12.9406Z" fill="#195C86"/>
<path d="M14.0108 13.0111L14.0117 13.4792L14.231 13.4788L14.2302 13.1182C14.2302 13.0965 14.2353 13.0789 14.2454 13.0655C14.2559 13.0525 14.2694 13.0458 14.2866 13.0455C14.3028 13.0454 14.3162 13.0522 14.3271 13.0655C14.3379 13.0788 14.3433 13.0965 14.3434 13.1179L14.3442 13.4784C14.3603 13.4798 14.3738 13.4866 14.3846 13.4984C14.3954 13.5102 14.4007 13.5249 14.4009 13.5425C14.4008 13.5594 14.3958 13.5736 14.3856 13.5855C14.3755 13.5971 14.3615 13.6044 14.3444 13.607L14.3448 13.8577C14.3449 13.879 14.3399 13.8962 14.3294 13.9096C14.319 13.9226 14.3055 13.9293 14.2886 13.9293C14.2721 13.9293 14.2583 13.9224 14.2478 13.9092C14.2373 13.896 14.2319 13.8786 14.2321 13.8577L14.2316 13.607L13.8997 13.6075L13.8984 13.0113C13.8985 12.9895 13.9035 12.972 13.9136 12.9589C13.924 12.9459 13.9374 12.9395 13.9547 12.9393C13.9709 12.9392 13.9843 12.946 13.9952 12.9593C14.006 12.9726 14.0111 12.9898 14.0113 13.0108L14.0108 13.0111Z" fill="#195C86"/>
<path d="M14.9477 12.9371L15.3296 12.9363C15.3483 12.9364 15.3635 12.942 15.3751 12.954C15.3866 12.966 15.3926 12.9812 15.3927 13.0003C15.3927 13.0187 15.387 13.0342 15.3753 13.0462C15.3635 13.0585 15.3483 13.0645 15.33 13.0645L15.0609 13.0649L15.0613 13.3673L15.2805 13.3669C15.3113 13.3667 15.3376 13.3797 15.3601 13.4046C15.3825 13.4299 15.3936 13.4601 15.3936 13.495L15.3942 13.7981C15.3942 13.8333 15.3832 13.8638 15.3614 13.8889C15.3393 13.9139 15.3128 13.9266 15.2817 13.9267L15.0317 13.9273C15.0216 13.9273 15.0111 13.9261 15.0001 13.9232C14.989 13.9207 14.9783 13.9168 14.9677 13.9125L14.8785 13.8711C14.8656 13.8652 14.8558 13.857 14.8489 13.8461C14.842 13.8351 14.8384 13.8227 14.8383 13.8085C14.838 13.7912 14.8436 13.7763 14.8543 13.7641C14.8649 13.7519 14.8786 13.746 14.8947 13.7459C14.8988 13.7461 14.9028 13.7466 14.9074 13.7476C14.9121 13.7487 14.9168 13.7509 14.9223 13.7532L15.0103 13.7933C15.0146 13.7957 15.0183 13.7973 15.0215 13.7981C15.0247 13.7988 15.0276 13.7994 15.0307 13.799L15.2821 13.7987L15.2815 13.4955L14.9495 13.496L14.9485 12.9369L14.9477 12.9371Z" fill="#195C86"/>
<path d="M15.8582 12.936L15.908 12.936C15.9267 12.9361 15.9419 12.9418 15.9535 12.9538C15.965 12.9657 15.9709 12.9809 15.9711 13.0001C15.9711 13.0169 15.966 13.0311 15.9558 13.0431C15.9457 13.0546 15.932 13.0621 15.915 13.0646L15.9156 13.4756L16.2338 13.475C16.2739 13.4751 16.3049 13.4869 16.3267 13.5113C16.3486 13.5357 16.3594 13.5708 16.3592 13.6164L16.3594 13.7835C16.3596 13.8293 16.3487 13.8643 16.3271 13.8886C16.3055 13.913 16.2746 13.9255 16.2342 13.9254L15.9276 13.926C15.8876 13.9259 15.8565 13.9141 15.8351 13.8894C15.8136 13.8651 15.8028 13.83 15.8026 13.7843L15.8013 13.0075C15.8013 12.9858 15.8064 12.9682 15.8164 12.9551C15.8269 12.9421 15.8403 12.9357 15.8576 12.9355L15.8582 12.936ZM15.916 13.6038L15.9164 13.798L16.247 13.7972L16.2465 13.603L15.916 13.6038Z" fill="#195C86"/>
<path d="M16.8246 12.9337L17.3245 12.9329L17.3253 13.3166C17.3252 13.3301 17.324 13.3407 17.3207 13.3486C17.3178 13.3565 17.3099 13.3667 17.2973 13.3793L17.1043 13.5676L17.1046 13.852C17.1047 13.8734 17.0997 13.8906 17.0888 13.9039C17.0784 13.9169 17.0649 13.9236 17.048 13.9235C17.0316 13.9236 17.0177 13.9167 17.0072 13.9035C16.9967 13.8902 16.9913 13.8729 16.9915 13.852L16.9911 13.5429C16.9912 13.5294 16.9924 13.5188 16.9957 13.5109C16.9986 13.503 17.0065 13.4928 17.0191 13.4802L17.2121 13.2934L17.2116 13.0614L16.8811 13.0622C16.8772 13.0793 16.8701 13.0923 16.8605 13.1018C16.8509 13.1112 16.839 13.116 16.8247 13.1162C16.8082 13.1162 16.7944 13.1093 16.7838 13.0965C16.7733 13.0832 16.7681 13.0663 16.768 13.0453L16.7679 13.0056C16.768 12.9839 16.7731 12.9663 16.7831 12.9532C16.7935 12.9402 16.807 12.9339 16.8242 12.9337L16.8246 12.9337Z" fill="#195C86"/>
<path d="M17.9022 12.9317L18.1226 12.9311C18.1387 12.931 18.1522 12.9378 18.163 12.9511C18.1739 12.9644 18.179 12.9817 18.1791 13.0027L18.1799 13.3617C18.2161 13.3657 18.244 13.3795 18.263 13.4036C18.2819 13.4278 18.2916 13.461 18.2916 13.5041L18.2921 13.7796C18.2923 13.8253 18.2814 13.8603 18.2598 13.8847C18.2382 13.909 18.2073 13.9215 18.1669 13.9214L17.8603 13.922C17.8203 13.9219 17.7892 13.9101 17.7678 13.8854C17.7463 13.8611 17.7355 13.8261 17.7353 13.7803L17.7348 13.5049C17.7347 13.4622 17.7442 13.4283 17.7632 13.4041C17.7821 13.3799 17.8097 13.3656 17.846 13.3621L17.8453 13.0031C17.8453 12.9814 17.8504 12.9638 17.8605 12.9507C17.8709 12.9377 17.8843 12.9314 17.9016 12.9311L17.9022 12.9317ZM17.8481 13.4907L17.8487 13.7939L18.1793 13.7931L18.1787 13.4899L17.8481 13.4907ZM17.9591 13.0599L17.9595 13.3622L18.067 13.3621L18.0666 13.0597L17.9591 13.0599Z" fill="#195C86"/>
<path d="M18.8258 12.9303L19.1323 12.9297C19.1724 12.9297 19.2037 12.9421 19.2251 12.9667C19.2469 12.9915 19.2576 13.0269 19.2578 13.0726L19.2592 13.8494C19.2592 13.8708 19.2538 13.8879 19.2435 13.9006C19.2332 13.9132 19.2194 13.9195 19.2029 13.9195L19.1531 13.9195C19.1344 13.9194 19.1192 13.9138 19.1076 13.9018C19.0961 13.8898 19.0902 13.8746 19.09 13.8555C19.09 13.8387 19.0951 13.8244 19.1049 13.8124C19.115 13.8008 19.1287 13.7934 19.1463 13.7903L19.1455 13.3814L18.8266 13.3819C18.7869 13.3819 18.7559 13.3697 18.7343 13.3446C18.7125 13.3198 18.7017 13.2844 18.7016 13.2387L18.7014 13.0731C18.7012 13.0274 18.7122 12.992 18.7336 12.9668C18.7553 12.9421 18.7858 12.9295 18.8256 12.9295L18.8258 12.9303ZM18.814 13.0588L18.8145 13.2529L19.145 13.2521L19.1446 13.058L18.814 13.0588Z" fill="#195C86"/>
<path d="M19.7919 12.9285L20.0985 12.9279C20.1385 12.928 20.1696 12.9398 20.1914 12.9642C20.2132 12.9886 20.2241 13.0237 20.2243 13.0694L20.2257 13.7762C20.2259 13.8219 20.215 13.8569 20.1933 13.8816C20.1717 13.906 20.1408 13.9185 20.1004 13.9184L19.7938 13.919C19.7538 13.9189 19.7227 13.9071 19.7013 13.8824C19.6798 13.8581 19.669 13.823 19.6688 13.7773L19.6674 13.0705C19.6672 13.0248 19.6781 12.9898 19.6993 12.9653C19.7206 12.9409 19.7514 12.9288 19.7919 12.9285ZM19.7802 13.057L19.7815 13.7907L20.1121 13.7899L20.1107 13.0562L19.7802 13.057Z" fill="#195C86"/>
<path d="M20.7587 12.9266L21.0652 12.926C21.1053 12.926 21.1364 12.9379 21.1582 12.9623C21.18 12.9867 21.1909 13.0217 21.1911 13.0675L21.1925 13.7742C21.1927 13.82 21.1818 13.855 21.1602 13.8793C21.1386 13.9037 21.1077 13.9162 21.0672 13.9161L20.7607 13.9167C20.7206 13.9166 20.6896 13.9048 20.6682 13.8801C20.6467 13.8558 20.6359 13.8207 20.6357 13.775L20.6343 13.0682C20.6341 13.0225 20.645 12.9875 20.6662 12.963C20.6878 12.9387 20.7183 12.9264 20.7588 12.9262L20.7587 12.9266ZM20.747 13.055L20.7483 13.7888L21.0789 13.788L21.0775 13.0542L20.747 13.055Z" fill="#195C86"/>
<path d="M21.7245 12.9246L22.0311 12.924C22.0711 12.9241 22.1025 12.936 22.124 12.9603C22.1459 12.9847 22.1567 13.0198 22.1569 13.0655L22.1583 13.7723C22.1585 13.818 22.1476 13.853 22.1259 13.8777C22.1043 13.9021 22.0734 13.9146 22.033 13.9145L21.7264 13.9151C21.6864 13.915 21.6553 13.9032 21.6339 13.8785C21.6124 13.8542 21.6016 13.8191 21.6014 13.7734L21.6 13.0666C21.5998 13.0209 21.6107 12.9859 21.6319 12.9614C21.6532 12.937 21.684 12.9249 21.7245 12.9246ZM21.7128 13.0531L21.7141 13.7868L22.0447 13.786L22.0434 13.0523L21.7128 13.0531Z" fill="#195C86"/>
<path d="M22.6907 12.9227L22.9972 12.9222C23.0373 12.9222 23.0687 12.9341 23.0902 12.9585C23.112 12.9829 23.1229 13.0179 23.1227 13.0635L23.1241 13.7703C23.1243 13.8161 23.1134 13.8511 23.0918 13.8754C23.0702 13.8998 23.0393 13.9123 22.9989 13.9122L22.6923 13.9128C22.6523 13.9127 22.6212 13.9009 22.5997 13.8765C22.5783 13.8522 22.5674 13.8172 22.5672 13.7714L22.5658 13.0647C22.5656 13.0189 22.5765 12.9839 22.5978 12.9595C22.619 12.9351 22.6498 12.9229 22.6903 12.9227L22.6907 12.9227ZM22.679 13.0512L22.6803 13.7849L23.0109 13.7841L23.0095 13.0504L22.679 13.0512Z" fill="#195C86"/>
<path d="M23.6571 12.9207L23.9637 12.9201C24.0038 12.9202 24.0351 12.9321 24.0566 12.9564C24.0785 12.9808 24.0893 13.0159 24.0895 13.0616L24.0909 13.7684C24.0911 13.8141 24.0802 13.8491 24.0585 13.8738C24.0369 13.8982 24.006 13.9107 23.9656 13.9106L23.6591 13.9112C23.619 13.9111 23.5879 13.8993 23.5665 13.8749C23.545 13.8506 23.5341 13.8156 23.534 13.7698L23.5325 13.0631C23.5324 13.0173 23.5432 12.9823 23.5645 12.9579C23.5857 12.9335 23.6166 12.9213 23.6571 12.9211L23.6571 12.9207ZM23.6454 13.0492L23.6468 13.7829L23.9773 13.7821L23.976 13.0484L23.6454 13.0492Z" fill="#195C86"/>
<path d="M24.6233 12.9188L24.9299 12.9182C24.9699 12.9183 25.0013 12.9302 25.0228 12.9546C25.0447 12.979 25.0555 13.014 25.0553 13.0596L25.0567 13.7664C25.0569 13.8122 25.046 13.8472 25.0244 13.8715C25.0028 13.8959 24.9719 13.9084 24.9315 13.9083L24.625 13.9089C24.5849 13.9088 24.5538 13.8969 24.5324 13.8723C24.5109 13.8479 24.5001 13.8129 24.4999 13.7672L24.4985 13.0604C24.4983 13.0147 24.5092 12.9797 24.5305 12.9552C24.5517 12.9308 24.5825 12.9186 24.623 12.9184L24.6233 12.9188ZM24.6116 13.0473L24.6129 13.781L24.9435 13.7802L24.9422 13.0465L24.6116 13.0473Z" fill="#195C86"/>
<path d="M25.5898 12.9178L25.8963 12.9172C25.9364 12.9172 25.9674 12.9291 25.9893 12.9535C26.0111 12.9779 26.0219 13.0129 26.0221 13.0587L26.0235 13.7654C26.0237 13.8112 26.0128 13.8462 25.9912 13.8705C25.9696 13.8949 25.9387 13.9074 25.8983 13.9073L25.5918 13.9079C25.5517 13.9078 25.5206 13.896 25.4992 13.8713C25.4777 13.847 25.4669 13.8119 25.4667 13.7662L25.4653 13.0594C25.4651 13.0137 25.476 12.9787 25.4973 12.9542C25.5185 12.9298 25.5493 12.9177 25.5898 12.9174L25.5898 12.9178ZM25.578 13.0462L25.5794 13.78L25.9099 13.7792L25.9086 13.0454L25.578 13.0462Z" fill="#195C86"/>
</g>
<g filter="url(#filter5_f_2855_12870)">
<path d="M7.15871 15.4272L3.85352 15.4336L3.85461 16.0011L7.1598 15.9947L7.15871 15.4272Z" fill="#195C86"/>
<path d="M8.36351 16.5597L3.85645 16.5684L3.85753 17.1359L8.3646 17.1272L8.36351 16.5597Z" fill="#195C86"/>
<path d="M7.66459 17.6958L3.8584 17.7031L3.85949 18.2706L7.66568 18.2633L7.66459 17.6958Z" fill="#195C86"/>
<path d="M7.34096 18.8322L3.86035 18.8389L3.86144 19.4064L7.34205 19.3997L7.34096 18.8322Z" fill="#195C86"/>
<path d="M7.66903 19.9656L5.51562 19.9697L5.51671 20.5372L7.67012 20.5331L7.66903 19.9656Z" fill="#195C86"/>
<path d="M8.27173 21.1002L5.51758 21.1055L5.51867 21.673L8.27282 21.6677L8.27173 21.1002Z" fill="#195C86"/>
<path d="M9.27529 22.233L5.51953 22.2402L5.52062 22.8077L9.27638 22.8005L9.27529 22.233Z" fill="#195C86"/>
<path d="M7.17434 23.3716L3.86914 23.3779L3.87023 23.9454L7.17543 23.9391L7.17434 23.3716Z" fill="#195C86"/>
<path d="M10.1106 24.5007L3.87109 24.5127L3.87218 25.0802L10.1117 25.0682L10.1106 24.5007Z" fill="#195C86"/>
<path d="M7.97949 25.6396L3.87402 25.6475L3.87511 26.215L7.98058 26.2071L7.97949 25.6396Z" fill="#195C86"/>
<path d="M9.81413 26.7708L3.875 26.7822L3.87609 27.3497L9.81521 27.3383L9.81413 26.7708Z" fill="#195C86"/>
<path d="M8.88659 27.9084L3.87891 27.918L3.88 28.4855L8.88768 28.4758L8.88659 27.9084Z" fill="#195C86"/>
<path d="M5.68522 12.8764L3.84863 12.8799L3.85056 13.8815L5.68714 13.878L5.68522 12.8764Z" fill="#195C86"/>
</g>
<g filter="url(#filter6_f_2855_12870)">
<circle cx="20" cy="20" r="8" fill="white"/>
</g>
</g>
<defs>
<filter id="filter0_f_2855_12870" x="26.207" y="11.0449" width="12.3828" height="14.9316" filterUnits="userSpaceOnUse" color-interpolation-filters="sRGB">
<feFlood flood-opacity="0" result="BackgroundImageFix"/>
<feBlend mode="normal" in="SourceGraphic" in2="BackgroundImageFix" result="shape"/>
<feGaussianBlur stdDeviation="1" result="effect1_foregroundBlur_2855_12870"/>
</filter>
<filter id="filter1_f_2855_12870" x="29.3252" y="25.6738" width="6.1748" height="4.25098" filterUnits="userSpaceOnUse" color-interpolation-filters="sRGB">
<feFlood flood-opacity="0" result="BackgroundImageFix"/>
<feBlend mode="normal" in="SourceGraphic" in2="BackgroundImageFix" result="shape"/>
<feGaussianBlur stdDeviation="0.5" result="effect1_foregroundBlur_2855_12870"/>
</filter>
<filter id="filter2_f_2855_12870" x="10.7246" y="14.3936" width="15.4043" height="15.0762" filterUnits="userSpaceOnUse" color-interpolation-filters="sRGB">
<feFlood flood-opacity="0" result="BackgroundImageFix"/>
<feBlend mode="normal" in="SourceGraphic" in2="BackgroundImageFix" result="shape"/>
<feGaussianBlur stdDeviation="0.5" result="effect1_foregroundBlur_2855_12870"/>
</filter>
<filter id="filter3_f_2855_12870" x="6.94727" y="8.85938" width="26.5391" height="4.17969" filterUnits="userSpaceOnUse" color-interpolation-filters="sRGB">
<feFlood flood-opacity="0" result="BackgroundImageFix"/>
<feBlend mode="normal" in="SourceGraphic" in2="BackgroundImageFix" result="shape"/>
<feGaussianBlur stdDeviation="0.5" result="effect1_foregroundBlur_2855_12870"/>
</filter>
<filter id="filter4_f_2855_12870" x="9.9707" y="11.917" width="17.0527" height="3.01758" filterUnits="userSpaceOnUse" color-interpolation-filters="sRGB">
<feFlood flood-opacity="0" result="BackgroundImageFix"/>
<feBlend mode="normal" in="SourceGraphic" in2="BackgroundImageFix" result="shape"/>
<feGaussianBlur stdDeviation="0.5" result="effect1_foregroundBlur_2855_12870"/>
</filter>
<filter id="filter5_f_2855_12870" x="2.84863" y="11.876" width="8.2627" height="17.6094" filterUnits="userSpaceOnUse" color-interpolation-filters="sRGB">
<feFlood flood-opacity="0" result="BackgroundImageFix"/>
<feBlend mode="normal" in="SourceGraphic" in2="BackgroundImageFix" result="shape"/>
<feGaussianBlur stdDeviation="0.5" result="effect1_foregroundBlur_2855_12870"/>
</filter>
<filter id="filter6_f_2855_12870" x="6" y="6" width="28" height="28" filterUnits="userSpaceOnUse" color-interpolation-filters="sRGB">
<feFlood flood-opacity="0" result="BackgroundImageFix"/>
<feBlend mode="normal" in="SourceGraphic" in2="BackgroundImageFix" result="shape"/>
<feGaussianBlur stdDeviation="3" result="effect1_foregroundBlur_2855_12870"/>
</filter>
<clipPath id="clip0_2855_12870">
<rect width="40" height="40" fill="white"/>
</clipPath>
</defs>
</svg>
