<svg width="40" height="40" viewBox="0 0 40 40" fill="none" xmlns="http://www.w3.org/2000/svg">
<g clip-path="url(#clip0_2855_12737)">
<path d="M23.895 18.9373C24.1168 18.954 24.472 18.8982 24.6845 18.8134C24.897 18.7286 25.2322 18.5096 25.4292 18.3271C25.6263 18.1442 25.9361 17.7275 26.1175 17.4008C26.2989 17.0741 26.4943 16.5942 26.5515 16.3344C26.6087 16.0746 26.4069 16.035 26.1029 16.2465C25.7991 16.458 25.343 16.6095 25.0894 16.5832C24.8358 16.5569 24.5488 16.5327 24.4518 16.5296C24.3545 16.5264 24.2384 16.5463 24.1934 16.5739C24.1483 16.6015 24.0519 16.6252 23.9785 16.6263C23.9052 16.6275 23.8083 16.5852 23.763 16.5324C23.7178 16.4796 23.7438 16.2751 23.8205 16.0776C23.8975 15.8804 23.9926 15.6184 24.0318 15.4953C24.0709 15.3724 24.1275 15.2348 24.1575 15.1896C24.1874 15.1443 24.2421 15.0617 24.2786 15.0059C24.3154 14.9501 24.2959 14.9089 24.235 14.9146C24.1742 14.9203 24.0685 14.8816 24.0001 14.8287C23.9319 14.776 23.7417 14.7189 23.5772 14.7019C23.4129 14.685 23.2347 14.6518 23.1818 14.6281C23.1286 14.6043 23.0116 14.6115 22.9216 14.6436C22.8316 14.6756 22.8348 14.7276 22.9285 14.7591C23.0222 14.7906 23.1599 14.8563 23.234 14.9056C23.3082 14.9545 23.3265 14.9978 23.2747 15.0017C23.2225 15.0056 23.1272 14.9799 23.0626 14.9449C22.9978 14.9099 22.9533 14.921 22.9632 14.9693C22.9731 15.0179 23.0421 15.0882 23.1164 15.1261C23.1907 15.1637 23.2516 15.2228 23.2518 15.2571C23.252 15.2915 23.0876 15.3985 22.8868 15.4947C22.686 15.5908 22.4737 15.6379 22.4151 15.5994C22.3567 15.5606 22.2562 15.382 22.1918 15.2022C22.1273 15.0224 21.9774 14.7482 21.8584 14.5935C21.7395 14.4385 21.6998 13.9691 21.7706 13.5502C21.8411 13.1312 21.7254 12.9142 21.5134 13.0678C21.301 13.2216 20.9708 13.5182 20.7792 13.7276C20.5875 13.937 20.3367 14.3209 20.2223 14.581C20.1076 14.841 20.012 15.2837 20.0097 15.5646C20.0074 15.8454 20.0986 16.2741 20.2128 16.5174C20.3267 16.7607 20.572 17.0038 20.758 17.0578C20.9437 17.1118 20.9969 17.2063 20.876 17.2677C20.7554 17.3292 20.594 17.4412 20.5175 17.5164C20.4409 17.5917 20.2837 17.6973 20.1684 17.7506C20.0532 17.804 19.9159 17.8226 19.8635 17.7921C19.8112 17.7613 19.7654 17.7031 19.7618 17.6625C19.7581 17.6218 19.7036 17.5672 19.6409 17.541C19.5782 17.5147 19.5008 17.3292 19.469 17.1291C19.4372 16.9286 19.3877 16.8242 19.3588 16.8967C19.33 16.9692 19.2405 16.9913 19.16 16.9458C19.0795 16.9003 19.0491 17.0549 19.0925 17.2899C19.1359 17.5245 19.2175 17.7224 19.2742 17.7289C19.3309 17.7358 19.3815 17.7725 19.3868 17.8105C19.3921 17.8484 19.375 17.9027 19.3489 17.9311C19.3224 17.9595 19.3161 18.0305 19.3349 18.0884C19.3536 18.1467 19.4039 18.2173 19.4465 18.2452C19.489 18.2732 19.5964 18.4225 19.6854 18.5766C19.7743 18.7307 19.7533 18.8947 19.6385 18.9413C19.5238 18.9875 19.5926 19.1957 19.7916 19.403C19.9901 19.6106 20.2683 19.7661 20.4097 19.7488C20.5509 19.7314 20.6748 19.8134 20.6851 19.9308C20.6954 20.0481 20.9383 20.2432 21.2247 20.3635C21.5114 20.4843 21.7469 20.4774 21.7482 20.3484C21.7496 20.2195 21.9008 20.1417 22.0849 20.1752C22.2685 20.209 22.441 20.2509 22.4676 20.2684C22.4941 20.2858 22.5832 20.3072 22.6651 20.3157C22.7471 20.3241 22.8187 20.3059 22.824 20.2749C22.8293 20.2438 22.8825 20.2105 22.9426 20.2004C23.0028 20.1904 23.0571 20.2262 23.0636 20.2804C23.0698 20.3341 23.2807 20.3362 23.5324 20.2848C23.7838 20.2334 23.923 20.1504 23.8414 20.1005C23.7598 20.0506 23.7423 19.9545 23.8019 19.8872C23.8617 19.8199 23.7342 19.8044 23.5192 19.8529C23.3039 19.9014 23.1147 19.9045 23.0985 19.8596C23.0822 19.8147 23.0129 19.7873 22.944 19.7992C22.8752 19.811 22.7948 19.8047 22.7659 19.7854C22.7367 19.766 22.6995 19.6665 22.6831 19.564C22.6667 19.4616 22.6841 19.2981 22.7216 19.2009C22.7591 19.1037 22.8254 18.8664 22.8689 18.6735C22.9123 18.4809 23.0704 18.4542 23.2205 18.6141C23.3704 18.7744 23.6746 18.9188 23.8964 18.9355L23.895 18.9373ZM21.0477 18.111C21.0161 18.1589 20.8274 18.3122 20.6283 18.4516C20.4291 18.5911 20.2111 18.6282 20.1437 18.534C20.0762 18.4398 20.0518 18.3113 20.0895 18.2484C20.1273 18.1856 20.1404 18.104 20.1193 18.067C20.0979 18.0299 20.1968 17.9798 20.3389 17.9554C20.4809 17.9309 20.7115 17.9364 20.851 17.9675C20.9905 17.999 21.0792 18.0633 21.0476 18.1113L21.0477 18.111ZM22.2813 18.9118C22.37 19.0316 22.4575 19.2488 22.476 19.3943C22.4942 19.5398 22.4775 19.6601 22.4385 19.661C22.3998 19.662 22.3371 19.705 22.2992 19.7564C22.2616 19.8079 22.1343 19.8208 22.0166 19.7849C21.8989 19.749 21.8424 19.537 21.891 19.3134C21.9397 19.0898 22.0108 18.8588 22.0495 18.8007C22.0884 18.7422 22.1924 18.7923 22.2812 18.9121L22.2813 18.9118Z" fill="#FAF39D"/>
<path d="M23.219 18.6153C23.3689 18.7756 23.6732 18.92 23.895 18.9368C24.1168 18.9535 24.472 18.8977 24.6845 18.8129C24.8969 18.7281 25.2321 18.5091 25.4292 18.3266C25.6263 18.1437 25.9361 17.727 26.1175 17.4003C26.2989 17.0735 26.4943 16.5937 26.5515 16.3339C26.6087 16.0741 26.4069 16.0345 26.1029 16.2459C25.7991 16.4575 25.343 16.609 25.0894 16.5827C24.8358 16.5564 24.5488 16.5322 24.4518 16.5291C24.3545 16.5258 24.2384 16.5458 24.1934 16.5734C24.1483 16.601 24.0519 16.6247 23.9785 16.6258C23.9051 16.6269 23.8083 16.5847 23.763 16.5318C23.7178 16.479 23.7437 16.2746 23.8205 16.077C23.8975 15.8799 23.9926 15.6179 24.0318 15.4947C24.0709 15.3719 24.1275 15.2343 24.1575 15.189C24.1874 15.1438 24.2421 15.0612 24.2786 15.0053C24.3154 14.9495 24.2959 14.9084 24.235 14.9141C24.1741 14.9198 24.0685 14.8811 24 14.8282C23.9862 14.8175 23.9661 14.8067 23.9433 14.7957L20.6276 19.8147C20.6597 19.8459 20.6809 19.8856 20.6849 19.9309C20.6952 20.0482 20.9381 20.2433 21.2246 20.3637C21.5113 20.4844 21.7467 20.4775 21.748 20.3486C21.7494 20.2196 21.9007 20.1418 22.0847 20.1753C22.2684 20.2091 22.4408 20.2511 22.4674 20.2685C22.494 20.2859 22.583 20.3074 22.665 20.3158C22.7469 20.3242 22.8186 20.3061 22.8238 20.275C22.8291 20.244 22.8824 20.2106 22.9425 20.2006C23.0026 20.1906 23.0569 20.2264 23.0634 20.2805C23.0697 20.3342 23.2805 20.3364 23.5322 20.285C23.7836 20.2335 23.9229 20.1506 23.8413 20.1006C23.7597 20.0507 23.7422 19.9546 23.8017 19.8873C23.8615 19.8201 23.7341 19.8045 23.5191 19.8531C23.3037 19.9015 23.1145 19.9046 23.0983 19.8597C23.0821 19.8149 23.0127 19.7875 22.9439 19.7993C22.875 19.8112 22.7947 19.8048 22.7658 19.7855C22.7365 19.7661 22.6994 19.6666 22.6829 19.5641C22.6665 19.4617 22.684 19.2983 22.7215 19.201C22.759 19.1038 22.8253 18.8665 22.8687 18.6736C22.9121 18.481 23.0703 18.4543 23.2203 18.6142L23.219 18.6153ZM22.4756 19.3941C22.4938 19.5395 22.4771 19.6598 22.438 19.6607C22.3994 19.6617 22.3366 19.7047 22.2987 19.7561C22.2611 19.8076 22.1338 19.8205 22.0162 19.7846C21.8985 19.7487 21.8419 19.5368 21.8906 19.3132C21.9393 19.0896 22.0104 18.8585 22.0491 18.8004C22.0879 18.7419 22.192 18.7921 22.2808 18.9118C22.3695 19.0316 22.4571 19.2489 22.4755 19.3944L22.4756 19.3941Z" fill="#FAD87C"/>
<path d="M36.9386 28.3777C36.9405 29.3458 36.1498 30.1392 35.182 30.1411L4.89009 30.1969C3.92193 30.1987 3.12857 29.408 3.12666 28.4402L3.0939 10.6569C3.09206 9.68872 3.88275 8.89536 4.85091 8.89352L35.1428 8.83777C36.1109 8.83594 36.9043 9.62663 36.9062 10.5945L36.939 28.3778L36.9386 28.3777Z" fill="#89CEEA"/>
<path d="M35.1267 13.1404L27.3916 13.1553L27.411 23.2523L35.146 23.2375L35.1267 13.1404Z" fill="#195C86"/>
<mask id="mask0_2855_12737" style="mask-type:luminance" maskUnits="userSpaceOnUse" x="27" y="13" width="9" height="11">
<path d="M35.1267 13.1404L27.3916 13.1553L27.411 23.2523L35.146 23.2375L35.1267 13.1404Z" fill="white"/>
</mask>
<g mask="url(#mask0_2855_12737)">
<path d="M34.2637 22.7637L28.1846 22.7754L28.189 25.1006L34.2682 25.0889L34.2637 22.7637Z" fill="#9A7978"/>
<mask id="mask1_2855_12737" style="mask-type:luminance" maskUnits="userSpaceOnUse" x="-15" y="2" width="90" height="51">
<path d="M74.6876 2.12124L-14.2422 2.29199L-14.1462 52.3149L74.7836 52.1442L74.6876 2.12124Z" fill="white"/>
</mask>
<g mask="url(#mask1_2855_12737)">
<path d="M33.1048 23.9256C33.1059 24.5634 33.6237 25.0792 34.2615 25.0781C34.899 25.0769 35.4152 24.5592 35.4141 23.9214C35.413 23.2836 34.8951 22.7678 34.2573 22.7689C33.6199 22.77 33.1037 23.2878 33.1048 23.9256Z" fill="#9A7978"/>
</g>
<path d="M26.1186 28.9295L29.1391 24.5947C29.5037 24.0716 29.3751 23.3521 28.852 22.9875C28.3288 22.6229 27.6093 22.7514 27.2447 23.2746L24.2243 27.6093L26.119 28.9296L26.1186 28.9295Z" fill="#9A7978"/>
<path d="M27.0212 23.9438C27.0224 24.5858 27.5438 25.1056 28.1858 25.1044C28.8278 25.1032 29.3472 24.5816 29.346 23.9397C29.3448 23.2977 28.8233 22.7783 28.1814 22.7791C27.5395 22.7803 27.0197 23.3018 27.0209 23.9437" fill="#9A7978"/>
<path d="M33.1004 23.9328C33.1016 24.5748 33.623 25.0946 34.265 25.0934C34.9069 25.0922 35.4264 24.5707 35.4252 23.9287C35.424 23.2868 34.9025 22.7673 34.2605 22.7685C33.6185 22.7697 33.0988 23.2911 33.1 23.9331" fill="#9A7978"/>
<path d="M32.191 22.7723L30.2516 22.776C29.1583 22.778 28.2578 23.6357 28.2033 24.728L27.6382 36.0008C27.6285 36.1927 27.7818 36.3537 27.9738 36.3533L34.5186 36.3411C34.711 36.3408 34.8634 36.1794 34.853 35.9875L34.2464 24.7171C34.1879 23.6253 33.2841 22.7709 32.1909 22.7726" fill="#9A7978"/>
<path d="M31.61 23.891L30.8595 23.8924C30.3105 23.8934 29.8874 23.4089 29.9621 22.8655L30.1669 21.3708L32.2931 21.367L32.5036 22.861C32.58 23.4045 32.1586 23.8903 31.6099 23.8913" fill="#FFC1B3"/>
<path d="M34.0121 18.9669C34.0128 19.2438 33.7888 19.4688 33.5116 19.4691C33.2346 19.4697 33.0097 19.2454 33.0094 18.9685C33.0091 18.6916 33.233 18.4666 33.5099 18.4663C33.7869 18.4657 34.0118 18.6899 34.0121 18.9669Z" fill="#FFC1B3"/>
<path d="M29.4419 18.9747C29.4426 19.2517 29.2183 19.4766 28.9414 19.4769C28.6644 19.4775 28.4395 19.2533 28.4392 18.9764C28.4385 18.6994 28.6628 18.4745 28.9397 18.4741C29.2167 18.4735 29.4416 18.6978 29.4419 18.9747Z" fill="#FFC1B3"/>
<path d="M33.7949 18.9287C33.7953 19.136 33.6274 19.3043 33.4201 19.3047C33.2129 19.3051 33.0445 19.1373 33.0441 18.93C33.0437 18.7227 33.2112 18.5543 33.4189 18.5539C33.6262 18.5535 33.7945 18.7214 33.7949 18.9287Z" fill="#FEA18D"/>
<path d="M29.4638 18.9365C29.4642 19.1438 29.2964 19.3121 29.0891 19.3125C28.8818 19.3129 28.7135 19.1451 28.713 18.9378C28.7126 18.7305 28.8805 18.5621 29.0878 18.5617C29.2951 18.5613 29.4634 18.7292 29.4638 18.9365Z" fill="#FEA18D"/>
<mask id="mask2_2855_12737" style="mask-type:luminance" maskUnits="userSpaceOnUse" x="-15" y="2" width="90" height="51">
<path d="M74.6876 2.12124L-14.2422 2.29199L-14.1462 52.3149L74.7836 52.1442L74.6876 2.12124Z" fill="white"/>
</mask>
<g mask="url(#mask2_2855_12737)">
<path d="M31.5287 21.3099L30.9415 21.311C30.1352 21.3126 29.4262 20.6809 29.2775 19.8033L28.9848 18.0735C28.7823 16.8779 29.5702 15.7603 30.6686 15.7584L31.7806 15.7564C32.8791 15.7544 33.6709 16.8688 33.473 18.0653L33.1865 19.7962C33.041 20.674 32.3347 21.3083 31.5284 21.3099" fill="#514137"/>
</g>
<mask id="mask3_2855_12737" style="mask-type:luminance" maskUnits="userSpaceOnUse" x="-15" y="2" width="90" height="51">
<path d="M74.6876 2.12124L-14.2422 2.29199L-14.1462 52.3149L74.7836 52.1442L74.6876 2.12124Z" fill="white"/>
</mask>
<g mask="url(#mask3_2855_12737)">
<path d="M31.5292 21.9317L30.9542 21.9328C30.1645 21.9343 29.4708 21.2918 29.3259 20.4006L29.0406 18.6451C28.8437 17.4327 29.6143 16.3008 30.6879 16.2988L31.7746 16.2967C32.8481 16.2947 33.623 17.4239 33.4304 18.6368L33.1517 20.3934C33.0103 21.2853 32.3185 21.9301 31.5293 21.9314" fill="#FEA18D"/>
</g>
<mask id="mask4_2855_12737" style="mask-type:luminance" maskUnits="userSpaceOnUse" x="-15" y="2" width="90" height="51">
<path d="M74.6876 2.12124L-14.2422 2.29199L-14.1462 52.3149L74.7836 52.1442L74.6876 2.12124Z" fill="white"/>
</mask>
<g mask="url(#mask4_2855_12737)">
<path d="M31.5308 21.6674L30.9404 21.6685C30.1301 21.6698 29.4171 21.0573 29.2683 20.2064L28.9744 18.529C28.7714 17.37 29.5633 16.2866 30.6669 16.2848L31.7842 16.2826C32.8879 16.2804 33.6839 17.3607 33.4849 18.5206L33.1971 20.1989C33.0509 21.0502 32.3409 21.6657 31.5305 21.667" fill="#FFC1B3"/>
</g>
<path d="M32.4036 18.5248C32.4038 18.6267 32.3214 18.7093 32.2196 18.7092C32.118 18.7095 32.0351 18.6271 32.0351 18.5252C32.0349 18.4233 32.1173 18.3407 32.2191 18.3408C32.321 18.3405 32.4037 18.4229 32.4036 18.5248Z" fill="#312E3E"/>
<path d="M30.429 18.5209C30.4293 18.6225 30.3469 18.7051 30.245 18.7053C30.1434 18.7056 30.0605 18.6232 30.0605 18.5213C30.0603 18.4194 30.1427 18.3368 30.2445 18.3369C30.3464 18.3366 30.429 18.419 30.429 18.5209Z" fill="#312E3E"/>
<path d="M32.705 19.6184L32.3019 19.619C32.2163 19.6191 32.1467 19.5497 32.1466 19.4641C32.1465 19.3785 32.2159 19.3089 32.3015 19.3088L32.7046 19.3082C32.7902 19.3081 32.8599 19.3771 32.8599 19.4631C32.86 19.5487 32.7906 19.6183 32.705 19.6184Z" fill="#D8A198"/>
<path d="M30.1923 19.6223L29.7892 19.6229C29.7036 19.623 29.634 19.5536 29.6339 19.468C29.6338 19.3824 29.7032 19.3128 29.7888 19.3127L30.1922 19.3122C30.2778 19.312 30.3475 19.3811 30.3476 19.467C30.3477 19.5527 30.2783 19.6223 30.1927 19.6224" fill="#D8A198"/>
<path d="M31.2504 19.8362C31.1326 19.8364 31.0369 19.7413 31.0367 19.6235L31.0358 19.1479C31.0357 19.0301 31.1306 18.9347 31.2486 18.9343C31.3664 18.9341 31.4618 19.0291 31.4619 19.1469L31.4628 19.6225C31.463 19.74 31.3676 19.8356 31.2501 19.8362" fill="#FF5351"/>
<path d="M31.2494 19.6848C31.1316 19.685 31.0359 19.59 31.0357 19.4721L31.0348 19.0502C31.0347 18.9324 31.1301 18.8368 31.2476 18.8366C31.3654 18.8365 31.4607 18.9317 31.4612 19.0493L31.4621 19.4712C31.4622 19.589 31.367 19.6843 31.2494 19.6848Z" fill="#FF7574"/>
<path d="M32.5783 17.9076L32.1131 17.9084C32.0618 17.9087 32.0202 17.8671 32.02 17.8157C32.0198 17.7644 32.0615 17.7225 32.1128 17.7223L32.578 17.7215C32.6293 17.7212 32.6712 17.7629 32.671 17.8145C32.6712 17.8658 32.6296 17.9077 32.5783 17.9076Z" fill="#312E3E"/>
<path d="M30.3755 17.9116L29.9103 17.9124C29.859 17.9126 29.8171 17.871 29.8169 17.8196C29.8167 17.7683 29.8584 17.7264 29.91 17.7263L30.3752 17.7254C30.4265 17.7252 30.4684 17.7669 30.4682 17.8185C30.4684 17.8698 30.4268 17.9117 30.3755 17.9116Z" fill="#312E3E"/>
<path d="M28.2586 16.5379C28.3847 17.0774 29.2904 17.488 30.3851 17.4766C31.4798 17.4651 32.377 17.0357 32.4919 16.4937L28.2586 16.5379Z" fill="#514137"/>
<path d="M29.0959 18.4903C29.0051 18.4906 28.9316 18.4169 28.9313 18.3261L28.9287 16.8463C28.9284 16.7555 29.0018 16.6819 29.0926 16.6816C29.1835 16.6813 29.2569 16.755 29.2573 16.8455L29.2599 18.3253C29.2599 18.4161 29.1868 18.49 29.096 18.49" fill="#514137"/>
<path d="M33.3538 18.4994C33.263 18.4997 33.1892 18.4259 33.1891 18.3354L33.1861 16.6913L33.5151 16.6906L33.5181 18.3347C33.5184 18.4256 33.4447 18.499 33.3541 18.4994" fill="#514137"/>
<path d="M31.5081 15.7337C31.5066 15.0206 30.9278 14.4436 30.2147 14.445C29.5017 14.4465 28.9246 15.0254 28.9261 15.7384C28.9275 16.4515 29.5064 17.0285 30.2194 17.0271C30.9325 17.0256 31.5092 16.4467 31.5081 15.7337Z" fill="#514137"/>
<path d="M33.4743 16.28C33.4735 15.7376 33.0326 15.2986 32.4905 15.2995C31.948 15.3006 31.5091 15.7412 31.5103 16.2833C31.5111 16.8258 31.952 17.2647 32.4942 17.2635C33.0367 17.2624 33.4755 16.8218 33.4743 16.2797" fill="#514137"/>
<path d="M28.9297 17.2699L28.9269 15.7388L31.1381 14.8307C31.1381 14.8307 31.8217 15.3164 32.6668 15.3149C33.5119 15.3134 33.5129 16.0606 33.5149 17.1605C33.5167 18.2607 33.2475 16.3698 33.2475 16.3698L33.1008 16.3548C33.1008 16.3548 32.7727 16.4132 32.719 16.4791C32.6651 16.5449 32.5226 16.711 32.515 16.7342C32.5073 16.7574 31.5607 17.1296 30.344 17.1319C29.127 17.1342 29.1379 16.7288 29.1379 16.7288L29.0944 17.2325L28.93 17.2703L28.9297 17.2699Z" fill="#514137"/>
<mask id="mask5_2855_12737" style="mask-type:luminance" maskUnits="userSpaceOnUse" x="-15" y="2" width="90" height="51">
<path d="M74.6876 2.12124L-14.2422 2.29199L-14.1462 52.3149L74.7836 52.1442L74.6876 2.12124Z" fill="white"/>
</mask>
<g mask="url(#mask5_2855_12737)">
<path d="M31.6197 20.4943C31.602 20.4941 31.5841 20.5009 31.5706 20.5147C31.4849 20.6002 31.3713 20.647 31.2504 20.6468C31.1298 20.6466 31.0162 20.5995 30.9307 20.5138C30.9038 20.4866 30.8598 20.4864 30.8327 20.5137C30.8055 20.5409 30.8053 20.5846 30.8326 20.6118C30.9441 20.7238 31.0924 20.7853 31.2502 20.7858C31.4079 20.786 31.5566 20.7247 31.6683 20.6133C31.6955 20.5864 31.6956 20.5423 31.6684 20.5152C31.6549 20.5016 31.6371 20.4949 31.6194 20.4947L31.6197 20.4943Z" fill="#A88027"/>
</g>
<path d="M38.3491 27.4614L33.7091 24.9345C33.149 24.6295 32.9425 23.9284 33.2475 23.3683C33.5525 22.8081 34.2536 22.6016 34.8137 22.9066L39.4537 25.4335L38.3494 27.4615L38.3491 27.4614Z" fill="#9A7978"/>
</g>
<path d="M33.797 23.7491L28.7637 23.7588L28.7647 24.2837L33.798 24.2741L33.797 23.7491Z" fill="#195C86"/>
<path d="M33.1958 24.6294L29.3682 24.6367L29.3692 25.1616L33.1968 25.1543L33.1958 24.6294Z" fill="#195C86"/>
<path d="M29.4396 27.0761C30.6765 26.6598 32.0778 26.6347 33.1826 25.8771C33.2379 25.8393 33.214 25.7442 33.1423 25.7488C32.72 25.7777 32.2921 25.7883 31.8759 25.8733C31.5736 25.9352 31.2397 26.0456 31.0571 26.3129C30.908 26.5318 30.8688 26.8352 31.0451 27.0475C31.2384 27.2799 31.6186 27.3791 31.5023 27.7492C31.4754 27.8347 31.6111 27.8645 31.6378 27.7798C31.7102 27.5494 31.6375 27.3705 31.4587 27.2169C31.2177 27.0101 30.9631 26.8641 31.1139 26.4992C31.2517 26.1661 31.6438 26.056 31.967 25.9964C32.3559 25.9247 32.7546 25.9144 33.1484 25.8874L33.1081 25.7591C32.0151 26.5086 30.6216 26.5311 29.3971 26.9432C29.3124 26.9716 29.3542 27.1044 29.439 27.0757L29.4396 27.0761Z" fill="#0D2436"/>
<path d="M24.5438 15.3141L12.1455 15.3379L12.1465 15.8628L24.5448 15.839L24.5438 15.3141Z" fill="#195C86"/>
<path d="M20.4706 16.3717L12.1484 16.3877L12.1494 16.9126L20.4716 16.8966L20.4706 16.3717Z" fill="#195C86"/>
<path d="M16.0957 17.4299L12.1504 17.4375L12.1514 17.9624L16.0967 17.9549L16.0957 17.4299Z" fill="#195C86"/>
<path d="M15.7501 18.4794L12.1523 18.4863L12.1534 19.0113L15.7511 19.0043L15.7501 18.4794Z" fill="#195C86"/>
<path d="M15.0873 19.5315L12.1533 19.5371L12.1543 20.062L15.0883 20.0564L15.0873 19.5315Z" fill="#195C86"/>
<path d="M18.0241 20.5747L12.1562 20.5859L12.1573 21.1109L18.0251 21.0996L18.0241 20.5747Z" fill="#195C86"/>
<path d="M15.6161 21.6301L12.1572 21.6367L12.1582 22.1616L15.6171 22.155L15.6161 21.6301Z" fill="#195C86"/>
<path d="M14.1269 22.688L12.1543 22.6914L12.1552 23.2163L14.1278 23.2129L14.1269 22.688Z" fill="#195C86"/>
<path d="M14.4677 23.7319L12.1621 23.7363L12.1631 24.2613L14.4687 24.2568L14.4677 23.7319Z" fill="#195C86"/>
<path d="M18.0319 24.7749L12.1641 24.7861L12.1651 25.3111L18.0329 25.2998L18.0319 24.7749Z" fill="#195C86"/>
<path d="M14.1386 25.8322L12.166 25.8359L12.167 26.3609L14.1397 26.3571L14.1386 25.8322Z" fill="#195C86"/>
<path d="M15.1019 26.8791L12.168 26.8848L12.169 27.4097L15.1029 27.4041L15.1019 26.8791Z" fill="#195C86"/>
<path d="M27.869 11.6563L12.1387 11.6865L12.1397 12.2115L27.87 12.1813L27.869 11.6563Z" fill="#195C86"/>
<path d="M8.65087 10.2367L8.6518 10.7614L8.65272 11.2862L31.3502 11.2445L31.3493 10.7198L31.3484 10.195L8.65087 10.2367Z" fill="#195C86"/>
<path d="M11.5068 13.0488L11.7581 13.0483L11.7596 13.8455L11.8605 13.8454L11.8601 13.6121C11.8601 13.592 11.8647 13.5761 11.8743 13.5644C11.8838 13.553 11.8965 13.5472 11.9122 13.5469C11.9274 13.5469 11.9399 13.5532 11.9497 13.5648C11.9595 13.5767 11.9643 13.5923 11.9644 13.6117L11.965 13.9043C11.965 13.9216 11.9596 13.936 11.9488 13.9471C11.938 13.9581 11.9239 13.9636 11.907 13.9636L11.5087 13.9643C11.4914 13.9642 11.4773 13.959 11.4667 13.9479C11.456 13.9368 11.4505 13.9228 11.4503 13.9051C11.4502 13.8874 11.4557 13.8734 11.4666 13.8623C11.4774 13.8512 11.4914 13.8457 11.5084 13.8457L11.6553 13.8456L11.6541 13.1669L11.5072 13.167C11.4895 13.1672 11.4751 13.1615 11.4647 13.1509C11.4543 13.1402 11.4489 13.1258 11.4488 13.1078C11.4485 13.0904 11.4542 13.0761 11.465 13.065C11.4758 13.0539 11.4899 13.0485 11.5069 13.0485L11.5068 13.0488Z" fill="#195C86"/>
<path d="M12.3998 13.0467L12.7519 13.046C12.7807 13.0459 12.8052 13.0573 12.8256 13.0803C12.8461 13.1033 12.8564 13.1312 12.8566 13.1645L12.8569 13.4442C12.857 13.4775 12.847 13.5054 12.8265 13.5285C12.806 13.5516 12.7816 13.5631 12.7529 13.5632L12.4471 13.5639L12.4476 13.8443L12.7995 13.8436C12.8168 13.8437 12.8309 13.8489 12.8415 13.86C12.8522 13.8711 12.8576 13.8855 12.8579 13.9028C12.8581 13.9202 12.8525 13.9345 12.8416 13.9456C12.8308 13.9567 12.8168 13.9622 12.7998 13.9622L12.3433 13.9629L12.3424 13.5639C12.3425 13.5313 12.3523 13.5031 12.3728 13.4799C12.3929 13.4568 12.4177 13.445 12.4469 13.445L12.7526 13.4443L12.7522 13.1646L12.4001 13.1652C12.3824 13.1654 12.368 13.1598 12.3576 13.1491C12.3472 13.1384 12.3418 13.124 12.3417 13.106C12.3414 13.0886 12.3471 13.0743 12.3579 13.0632C12.3687 13.0522 12.3828 13.0467 12.3998 13.0467Z" fill="#195C86"/>
<path d="M13.2945 13.0457L13.6463 13.0449C13.6748 13.0448 13.6992 13.0565 13.72 13.0795C13.7407 13.1029 13.7511 13.1306 13.7509 13.1634L13.7512 13.3835C13.7514 13.4044 13.7479 13.4244 13.7415 13.4437C13.7351 13.463 13.7252 13.4823 13.7123 13.5009C13.7254 13.5212 13.7351 13.5414 13.7415 13.5619C13.748 13.5824 13.7514 13.6029 13.7513 13.623L13.7519 13.8417C13.7519 13.8743 13.7417 13.9025 13.7212 13.9256C13.7011 13.9488 13.6763 13.9605 13.6475 13.9606L13.2957 13.9614C13.2784 13.9613 13.2643 13.956 13.2536 13.945C13.243 13.9339 13.2375 13.9198 13.2376 13.9022C13.2374 13.8848 13.243 13.8705 13.2538 13.8594C13.2647 13.8484 13.2787 13.8429 13.2957 13.8429L13.6465 13.8422L13.646 13.6214C13.6461 13.6058 13.6408 13.5922 13.6304 13.5801C13.6199 13.5681 13.6077 13.5622 13.5935 13.5621L13.397 13.5625C13.3793 13.5627 13.3653 13.5571 13.3551 13.5469C13.345 13.5363 13.3399 13.522 13.3399 13.5036C13.3399 13.4866 13.3452 13.4725 13.3558 13.4611C13.3662 13.4499 13.38 13.444 13.397 13.444L13.5936 13.4436C13.6077 13.4437 13.6198 13.4378 13.6301 13.4259C13.6404 13.414 13.6456 13.4003 13.6455 13.384L13.6452 13.1639L13.2944 13.1645C13.2767 13.1647 13.2624 13.159 13.2519 13.1484C13.2415 13.1377 13.2361 13.1233 13.236 13.1053C13.2361 13.088 13.2414 13.0736 13.2522 13.0625C13.263 13.0514 13.2771 13.0459 13.2941 13.0459L13.2945 13.0457Z" fill="#195C86"/>
<path d="M14.2604 13.1104L14.2612 13.5434L14.464 13.543L14.4633 13.2095C14.4633 13.1894 14.468 13.1731 14.4774 13.1607C14.4871 13.1487 14.4995 13.1425 14.5155 13.1423C14.5304 13.1422 14.5429 13.1484 14.5529 13.1607C14.563 13.173 14.568 13.1894 14.568 13.2092L14.5687 13.5427C14.5837 13.544 14.5961 13.5502 14.6062 13.5611C14.6162 13.5721 14.6211 13.5856 14.6212 13.602C14.6212 13.6175 14.6165 13.6307 14.607 13.6417C14.5977 13.6524 14.5847 13.6592 14.569 13.6616L14.5694 13.8935C14.5694 13.9132 14.5648 13.9291 14.5551 13.9415C14.5454 13.9535 14.533 13.9597 14.5174 13.9597C14.5021 13.9597 14.4893 13.9534 14.4796 13.9411C14.4699 13.9289 14.4649 13.9129 14.4651 13.8935L14.4647 13.6616L14.1576 13.6621L14.1564 13.1105C14.1565 13.0904 14.1612 13.0742 14.1705 13.0621C14.1801 13.05 14.1925 13.0442 14.2085 13.044C14.2234 13.0439 14.2359 13.0501 14.2459 13.0624C14.256 13.0748 14.2607 13.0907 14.2608 13.1101L14.2604 13.1104Z" fill="#195C86"/>
<path d="M15.1269 13.0421L15.4801 13.0413C15.4975 13.0414 15.5115 13.0467 15.5222 13.0577C15.5329 13.0688 15.5384 13.0829 15.5385 13.1006C15.5385 13.1175 15.5332 13.1319 15.5224 13.143C15.5115 13.1544 15.4974 13.1599 15.4805 13.1599L15.2316 13.1603L15.232 13.44L15.4347 13.4396C15.4632 13.4394 15.4875 13.4515 15.5083 13.4745C15.529 13.4979 15.5393 13.5259 15.5394 13.5581L15.5399 13.8386C15.5398 13.8711 15.5297 13.8993 15.5096 13.9225C15.4891 13.9456 15.4646 13.9574 15.4358 13.9575L15.2046 13.9581C15.1953 13.958 15.1855 13.9569 15.1753 13.9542C15.1651 13.9519 15.1552 13.9483 15.1453 13.9444L15.0628 13.906C15.0509 13.9006 15.0419 13.893 15.0355 13.8829C15.0291 13.8728 15.0258 13.8613 15.0256 13.8481C15.0254 13.8321 15.0306 13.8184 15.0404 13.8071C15.0503 13.7958 15.0629 13.7903 15.0778 13.7902C15.0816 13.7904 15.0853 13.7909 15.0896 13.7918C15.0939 13.7928 15.0983 13.7948 15.1033 13.797L15.1847 13.834C15.1887 13.8363 15.1922 13.8378 15.1952 13.8385C15.1981 13.8391 15.2008 13.8397 15.2036 13.8393L15.4362 13.8391L15.4356 13.5587L15.1285 13.5591L15.1276 13.0419L15.1269 13.0421Z" fill="#195C86"/>
<path d="M15.9685 13.0408L16.0146 13.0408C16.0319 13.0409 16.046 13.0462 16.0567 13.0572C16.0673 13.0683 16.0728 13.0823 16.073 13.1001C16.073 13.1156 16.0683 13.1288 16.0588 13.1398C16.0495 13.1505 16.0369 13.1574 16.0211 13.1597L16.0217 13.54L16.316 13.5394C16.353 13.5395 16.3818 13.5504 16.402 13.573C16.4222 13.5956 16.4322 13.628 16.432 13.6702L16.4322 13.8248C16.4324 13.8671 16.4223 13.8995 16.4023 13.922C16.3823 13.9445 16.3537 13.9561 16.3163 13.956L16.0328 13.9565C15.9957 13.9565 15.967 13.9455 15.9472 13.9227C15.9273 13.9002 15.9173 13.8678 15.9172 13.8255L15.9159 13.1069C15.9159 13.0868 15.9206 13.0706 15.9299 13.0585C15.9396 13.0464 15.952 13.0406 15.968 13.0403L15.9685 13.0408ZM16.022 13.6585L16.0224 13.8381L16.3282 13.8374L16.3278 13.6578L16.022 13.6585Z" fill="#195C86"/>
<path d="M16.8634 13.0392L17.3258 13.0384L17.3265 13.3934C17.3265 13.4058 17.3253 13.4156 17.3223 13.4229C17.3196 13.4303 17.3122 13.4397 17.3006 13.4513L17.1221 13.6255L17.1224 13.8886C17.1224 13.9084 17.1178 13.9243 17.1078 13.9366C17.0981 13.9486 17.0856 13.9548 17.07 13.9548C17.0548 13.9548 17.042 13.9484 17.0323 13.9362C17.0226 13.924 17.0175 13.9079 17.0177 13.8886L17.0174 13.6026C17.0174 13.5902 17.0186 13.5804 17.0216 13.5731C17.0243 13.5657 17.0316 13.5563 17.0433 13.5447L17.2218 13.3719L17.2214 13.1573L16.9156 13.158C16.912 13.1739 16.9055 13.1859 16.8966 13.1946C16.8877 13.2034 16.8766 13.2078 16.8634 13.2079C16.8482 13.208 16.8354 13.2016 16.8256 13.1897C16.8159 13.1775 16.8111 13.1619 16.811 13.1424L16.811 13.1057C16.811 13.0856 16.8157 13.0693 16.825 13.0572C16.8346 13.0452 16.8471 13.0393 16.863 13.0391L16.8634 13.0392Z" fill="#195C86"/>
<path d="M17.8598 13.0366L18.0637 13.0362C18.0786 13.0361 18.0911 13.0423 18.1011 13.0546C18.1111 13.0669 18.1159 13.0829 18.116 13.1023L18.1167 13.4344C18.1501 13.4382 18.176 13.4509 18.1935 13.4732C18.211 13.4955 18.22 13.5263 18.22 13.5662L18.2205 13.8209C18.2207 13.8633 18.2106 13.8956 18.1906 13.9182C18.1706 13.9407 18.1421 13.9523 18.1047 13.9521L17.8211 13.9527C17.784 13.9527 17.7553 13.9417 17.7355 13.9189C17.7156 13.8964 17.7056 13.864 17.7055 13.8216L17.705 13.5669C17.7049 13.5273 17.7137 13.4961 17.7312 13.4737C17.7487 13.4513 17.7742 13.438 17.8079 13.4348L17.8072 13.1027C17.8072 13.0826 17.8119 13.0664 17.8212 13.0543C17.8309 13.0422 17.8433 13.0364 17.8593 13.0362L17.8598 13.0366ZM17.8098 13.5538L17.8104 13.8342L18.1162 13.8335L18.1156 13.553L17.8098 13.5538ZM17.9125 13.1552L17.9128 13.4349L18.0123 13.4348L18.0119 13.1551L17.9125 13.1552Z" fill="#195C86"/>
<path d="M18.7145 13.0357L18.998 13.0352C19.0351 13.0352 19.064 13.0466 19.0838 13.0694C19.104 13.0923 19.1139 13.1251 19.1141 13.1674L19.1154 13.8859C19.1154 13.9057 19.1104 13.9216 19.1009 13.9333C19.0913 13.945 19.0786 13.9508 19.0633 13.9508L19.0172 13.9508C18.9999 13.9507 18.9859 13.9455 18.9752 13.9344C18.9645 13.9233 18.959 13.9093 18.9589 13.8916C18.9589 13.876 18.9636 13.8628 18.9727 13.8517C18.982 13.841 18.9947 13.8341 19.0109 13.8312L19.0102 13.453L18.7153 13.4534C18.6785 13.4535 18.6499 13.4422 18.6298 13.4189C18.6097 13.396 18.5997 13.3633 18.5996 13.321L18.5995 13.1678C18.5993 13.1255 18.6094 13.0928 18.6292 13.0696C18.6493 13.0467 18.6775 13.035 18.7143 13.035L18.7145 13.0357ZM18.7036 13.1546L18.704 13.3341L19.0098 13.3334L19.0094 13.1538L18.7036 13.1546Z" fill="#195C86"/>
<path d="M19.6083 13.034L19.8919 13.0334C19.9289 13.0334 19.9576 13.0444 19.9779 13.067C19.9981 13.0896 20.0081 13.122 20.0083 13.1643L20.0096 13.818C20.0097 13.8604 19.9997 13.8927 19.9796 13.9156C19.9596 13.9381 19.931 13.9497 19.8936 13.9496L19.6101 13.9501C19.573 13.9501 19.5443 13.9391 19.5245 13.9163C19.5046 13.8938 19.4946 13.8614 19.4944 13.8191L19.4931 13.1653C19.493 13.123 19.503 13.0906 19.5227 13.068C19.5423 13.0454 19.5708 13.0342 19.6083 13.034ZM19.5975 13.1528L19.5987 13.8315L19.9045 13.8308L19.9032 13.152L19.5975 13.1528Z" fill="#195C86"/>
<path d="M20.5019 13.032L20.7854 13.0315C20.8225 13.0315 20.8512 13.0425 20.8714 13.065C20.8916 13.0876 20.9016 13.12 20.9018 13.1623L20.9031 13.8161C20.9033 13.8584 20.8932 13.8908 20.8732 13.9133C20.8533 13.9358 20.8247 13.9474 20.7873 13.9473L20.5037 13.9478C20.4667 13.9478 20.4379 13.9368 20.4181 13.914C20.3983 13.8915 20.3882 13.8591 20.3881 13.8168L20.3868 13.163C20.3866 13.1207 20.3967 13.0883 20.4163 13.0657C20.4363 13.0432 20.4645 13.0319 20.5019 13.0317L20.5019 13.032ZM20.491 13.1508L20.4923 13.8295L20.798 13.8288L20.7968 13.1501L20.491 13.1508Z" fill="#195C86"/>
<path d="M21.3954 13.031L21.679 13.0305C21.716 13.0305 21.7451 13.0416 21.765 13.0641C21.7852 13.0866 21.7952 13.119 21.7954 13.1613L21.7967 13.8151C21.7968 13.8574 21.7868 13.8898 21.7667 13.9127C21.7467 13.9352 21.7181 13.9468 21.6807 13.9466L21.3972 13.9472C21.3601 13.9472 21.3314 13.9362 21.3116 13.9134C21.2917 13.8909 21.2817 13.8585 21.2816 13.8161L21.2802 13.1624C21.2801 13.1201 21.2901 13.0877 21.3098 13.0651C21.3294 13.0425 21.358 13.0312 21.3954 13.031ZM21.3846 13.1499L21.3858 13.8286L21.6916 13.8278L21.6904 13.1491L21.3846 13.1499Z" fill="#195C86"/>
<path d="M22.2893 13.0291L22.5729 13.0286C22.6099 13.0286 22.639 13.0397 22.6588 13.0622C22.6791 13.0848 22.6891 13.1172 22.6889 13.1594L22.6902 13.8132C22.6904 13.8555 22.6803 13.8879 22.6603 13.9104C22.6404 13.9329 22.6118 13.9445 22.5744 13.9444L22.2908 13.9449C22.2538 13.9449 22.2251 13.9339 22.2052 13.9114C22.1853 13.8889 22.1753 13.8565 22.1751 13.8142L22.1738 13.1604C22.1736 13.1181 22.1837 13.0857 22.2034 13.0631C22.223 13.0405 22.2515 13.0293 22.289 13.0291L22.2893 13.0291ZM22.2785 13.148L22.2797 13.8267L22.5855 13.8259L22.5842 13.1472L22.2785 13.148Z" fill="#195C86"/>
<path d="M23.1835 13.0271L23.4671 13.0266C23.5041 13.0266 23.5332 13.0377 23.553 13.0602C23.5733 13.0827 23.5833 13.1151 23.5834 13.1574L23.5848 13.8112C23.5849 13.8535 23.5749 13.8859 23.5548 13.9088C23.5348 13.9313 23.5062 13.9429 23.4688 13.9427L23.1853 13.9433C23.1482 13.9433 23.1195 13.9323 23.0996 13.9098C23.0798 13.8873 23.0697 13.8549 23.0696 13.8126L23.0683 13.1588C23.0681 13.1165 23.0782 13.0841 23.0978 13.0615C23.1174 13.0389 23.146 13.0277 23.1834 13.0275L23.1835 13.0271ZM23.1727 13.1459L23.1739 13.8247L23.4797 13.8239L23.4784 13.1452L23.1727 13.1459Z" fill="#195C86"/>
<path d="M24.0764 13.0252L24.36 13.0247C24.397 13.0247 24.4261 13.0358 24.446 13.0583C24.4662 13.0809 24.4762 13.1133 24.476 13.1555L24.4773 13.8093C24.4775 13.8516 24.4674 13.8839 24.4475 13.9065C24.4275 13.929 24.3989 13.9406 24.3615 13.9405L24.0779 13.941C24.0409 13.941 24.0122 13.93 23.9924 13.9072C23.9725 13.8847 23.9625 13.8523 23.9623 13.81L23.961 13.1562C23.9608 13.1139 23.9709 13.0815 23.9905 13.0589C24.0102 13.0363 24.0387 13.0251 24.0762 13.0248L24.0764 13.0252ZM24.0656 13.1441L24.0668 13.8228L24.3726 13.822L24.3714 13.1433L24.0656 13.1441Z" fill="#195C86"/>
<path d="M24.9706 13.0242L25.2542 13.0236C25.2912 13.0237 25.32 13.0347 25.3402 13.0572C25.3604 13.0798 25.3704 13.1122 25.3706 13.1545L25.3719 13.8083C25.372 13.8506 25.362 13.883 25.342 13.9055C25.322 13.928 25.2934 13.9396 25.256 13.9395L24.9725 13.94C24.9354 13.94 24.9067 13.929 24.8869 13.9062C24.867 13.8837 24.857 13.8513 24.8568 13.809L24.8555 13.1552C24.8553 13.1129 24.8654 13.0805 24.8851 13.0579C24.9047 13.0353 24.9332 13.0241 24.9707 13.0239L24.9706 13.0242ZM24.9598 13.143L24.961 13.8217L25.2668 13.821L25.2656 13.1423L24.9598 13.143Z" fill="#195C86"/>
<path d="M7.92254 15.3457L4.86523 15.3516L4.86624 15.8765L7.92355 15.8706L7.92254 15.3457Z" fill="#195C86"/>
<path d="M9.03622 16.3943L4.86719 16.4023L4.8682 16.9273L9.03723 16.9193L9.03622 16.3943Z" fill="#195C86"/>
<path d="M8.38986 17.4454L4.86914 17.4521L4.87015 17.9771L8.39087 17.9703L8.38986 17.4454Z" fill="#195C86"/>
<path d="M8.09065 18.4958L4.87109 18.502L4.8721 19.0269L8.09166 19.0207L8.09065 18.4958Z" fill="#195C86"/>
<path d="M8.39327 19.544L6.40137 19.5479L6.40237 20.0728L8.39427 20.069L8.39327 19.544Z" fill="#195C86"/>
<path d="M8.95091 20.5928L6.40332 20.5977L6.40433 21.1226L8.95192 21.1177L8.95091 20.5928Z" fill="#195C86"/>
<path d="M9.87935 21.6408L6.40527 21.6475L6.40628 22.1724L9.88036 22.1657L9.87935 21.6408Z" fill="#195C86"/>
<path d="M7.93622 22.6943L4.87891 22.7002L4.87991 23.2251L7.93722 23.2193L7.93622 22.6943Z" fill="#195C86"/>
<path d="M10.6524 23.7389L4.88086 23.75L4.88187 24.2749L10.6534 24.2638L10.6524 23.7389Z" fill="#195C86"/>
<path d="M8.68134 24.7925L4.88379 24.7998L4.8848 25.3247L8.68235 25.3174L8.68134 24.7925Z" fill="#195C86"/>
<path d="M10.3785 25.8391L4.88477 25.8496L4.88577 26.3745L10.3795 26.364L10.3785 25.8391Z" fill="#195C86"/>
<path d="M9.51981 26.8915L4.8877 26.9004L4.8887 27.4253L9.52081 27.4164L9.51981 26.8915Z" fill="#195C86"/>
<path d="M6.5592 12.986L4.86035 12.9893L4.86213 13.9157L6.56097 13.9125L6.5592 12.986Z" fill="#195C86"/>
<path d="M0.5 12.5V7H6" stroke="black"/>
<path d="M39.5 12.5V7H34" stroke="black"/>
<path d="M0.5 27V32.5H6" stroke="black"/>
<path d="M39.5 27V32.5H34" stroke="black"/>
</g>
<defs>
<clipPath id="clip0_2855_12737">
<rect width="40" height="40" fill="white"/>
</clipPath>
</defs>
</svg>
