<svg width="40" height="40" viewBox="0 0 40 40" fill="none" xmlns="http://www.w3.org/2000/svg">
<rect x="2" y="9" width="36" height="22" rx="2" fill="#E3E3E3"/>
<path d="M37.9994 15.0413H3.94531V19.8742C18.0534 19.8742 36.6549 20.1392 37.9994 27.6522V15.0413Z" fill="url(#paint0_linear_4183_8416)"/>
<path d="M8.08828 18.1679L8.43618 17.2123H7.95747V16.9535H8.8147V16.9692L8.34712 18.2662L8.08828 18.1679ZM9.84355 17.9851V18.2495H8.98726V18.2133C9.0658 18.1175 9.15549 17.9962 9.2563 17.8497C9.35773 17.7025 9.42174 17.5979 9.44834 17.5361C9.47493 17.4742 9.48823 17.4142 9.48823 17.3561C9.48823 17.3054 9.47122 17.2618 9.43721 17.2253C9.40381 17.1888 9.3633 17.1706 9.31567 17.1706C9.22104 17.1706 9.11714 17.2244 9.00396 17.332V17.0602C9.13075 16.9779 9.25166 16.9368 9.3667 16.9368C9.49411 16.9368 9.5943 16.9695 9.66729 17.0351C9.74089 17.1007 9.77769 17.1907 9.77769 17.3051C9.77769 17.4616 9.66048 17.6882 9.42607 17.9851H9.84355ZM10.0235 18.1011C10.0235 18.0559 10.0396 18.0173 10.0718 17.9851C10.1046 17.9523 10.1435 17.9359 10.1887 17.9359C10.2344 17.9359 10.2734 17.9523 10.3056 17.9851C10.3383 18.0173 10.3547 18.0559 10.3547 18.1011C10.3547 18.1468 10.3383 18.1858 10.3056 18.218C10.2734 18.2501 10.2344 18.2662 10.1887 18.2662C10.1435 18.2662 10.1046 18.2501 10.0718 18.218C10.0396 18.1858 10.0235 18.1468 10.0235 18.1011ZM11.2519 16.9368L10.9522 17.4266C10.9806 17.4192 11.0094 17.4155 11.0385 17.4155C11.1356 17.4155 11.2185 17.4529 11.2871 17.5277C11.3564 17.6026 11.391 17.7012 11.391 17.8237C11.391 17.9505 11.3502 18.0559 11.2686 18.14C11.1869 18.2242 11.0846 18.2662 10.9615 18.2662C10.8347 18.2662 10.7314 18.2238 10.6516 18.1391C10.5718 18.0538 10.5319 17.9431 10.5319 17.807C10.5319 17.6592 10.591 17.49 10.7091 17.2995L10.9327 16.9368H11.2519ZM10.967 18.0231C11.0116 18.0231 11.0471 18.0061 11.0737 17.9721C11.1003 17.9375 11.1136 17.8905 11.1136 17.8311C11.1136 17.773 11.1 17.7263 11.0728 17.691C11.0456 17.6558 11.0097 17.6381 10.9652 17.6381C10.9207 17.6381 10.8854 17.6558 10.8594 17.691C10.8334 17.7263 10.8205 17.7745 10.8205 17.8357C10.8205 17.8951 10.8334 17.9412 10.8594 17.974C10.8854 18.0068 10.9213 18.0231 10.967 18.0231ZM12.4561 17.9851V18.2495H11.5998V18.2133C11.6783 18.1175 11.768 17.9962 11.8688 17.8497C11.9702 17.7025 12.0342 17.5979 12.0608 17.5361C12.0874 17.4742 12.1007 17.4142 12.1007 17.3561C12.1007 17.3054 12.0837 17.2618 12.0497 17.2253C12.0163 17.1888 11.9758 17.1706 11.9282 17.1706C11.8335 17.1706 11.7296 17.2244 11.6165 17.332V17.0602C11.7432 16.9779 11.8642 16.9368 11.9792 16.9368C12.1066 16.9368 12.2068 16.9695 12.2798 17.0351C12.3534 17.1007 12.3902 17.1907 12.3902 17.3051C12.3902 17.4616 12.273 17.6882 12.0386 17.9851H12.4561ZM13.4061 16.9535V17.2142H12.9914V17.4554C13.1299 17.4461 13.2409 17.4804 13.3244 17.5583C13.4079 17.6363 13.4497 17.7349 13.4497 17.8543C13.4497 17.9792 13.407 18.0791 13.3216 18.154C13.2369 18.2288 13.1231 18.2662 12.9802 18.2662C12.8547 18.2662 12.7501 18.243 12.6667 18.1966V17.961C12.7662 18.0167 12.8581 18.0445 12.9422 18.0445C13.0016 18.0445 13.0504 18.0275 13.0888 17.9935C13.1277 17.9588 13.1472 17.9155 13.1472 17.8636C13.1472 17.8061 13.1237 17.7606 13.0767 17.7272C13.0297 17.6938 12.9645 17.6771 12.881 17.6771C12.8352 17.6771 12.786 17.6824 12.7334 17.6929V16.9535H13.4061ZM13.6844 18.1011C13.6844 18.0559 13.7005 18.0173 13.7326 17.9851C13.7654 17.9523 13.8044 17.9359 13.8495 17.9359C13.8953 17.9359 13.9342 17.9523 13.9664 17.9851C13.9992 18.0173 14.0156 18.0559 14.0156 18.1011C14.0156 18.1468 13.9992 18.1858 13.9664 18.218C13.9342 18.2501 13.8953 18.2662 13.8495 18.2662C13.8044 18.2662 13.7654 18.2501 13.7326 18.218C13.7005 18.1858 13.6844 18.1468 13.6844 18.1011ZM14.3959 17.5658C14.2896 17.499 14.2364 17.4065 14.2364 17.2884C14.2364 17.1832 14.2726 17.0985 14.3449 17.0342C14.4173 16.9692 14.5122 16.9368 14.6297 16.9368C14.7534 16.9368 14.8515 16.9714 14.9238 17.0407C14.9962 17.1093 15.0324 17.1925 15.0324 17.2902C15.0324 17.4108 14.9798 17.5027 14.8747 17.5658C15.0039 17.6326 15.0686 17.7371 15.0686 17.8793C15.0686 17.9956 15.0287 18.0893 14.9489 18.1604C14.8697 18.231 14.7639 18.2662 14.6316 18.2662C14.5042 18.2662 14.4003 18.2303 14.3199 18.1586C14.2401 18.0868 14.2002 17.9944 14.2002 17.8812C14.2002 17.7309 14.2654 17.6258 14.3959 17.5658ZM14.6372 17.486C14.6743 17.486 14.703 17.4696 14.7234 17.4368C14.7445 17.4034 14.755 17.3576 14.755 17.2995C14.755 17.1845 14.7145 17.127 14.6334 17.127C14.597 17.127 14.5679 17.1427 14.5462 17.1743C14.5246 17.2052 14.5138 17.2482 14.5138 17.3032C14.5138 17.3595 14.5249 17.404 14.5472 17.4368C14.5694 17.4696 14.5994 17.486 14.6372 17.486ZM14.6372 18.077C14.6798 18.077 14.7142 18.059 14.7401 18.0231C14.7667 17.9867 14.78 17.9381 14.78 17.8775C14.78 17.8138 14.7667 17.7634 14.7401 17.7263C14.7142 17.6885 14.6792 17.6697 14.6353 17.6697C14.5914 17.6697 14.5561 17.6879 14.5295 17.7244C14.5029 17.7603 14.4896 17.8085 14.4896 17.8691C14.4896 17.9322 14.5033 17.9826 14.5305 18.0204C14.5577 18.0581 14.5932 18.077 14.6372 18.077ZM16.1169 17.9851V18.2495H15.2606V18.2133C15.3391 18.1175 15.4288 17.9962 15.5296 17.8497C15.6311 17.7025 15.6951 17.5979 15.7217 17.5361C15.7483 17.4742 15.7616 17.4142 15.7616 17.3561C15.7616 17.3054 15.7446 17.2618 15.7105 17.2253C15.6771 17.1888 15.6366 17.1706 15.589 17.1706C15.4944 17.1706 15.3905 17.2244 15.2773 17.332V17.0602C15.4041 16.9779 15.525 16.9368 15.64 16.9368C15.7674 16.9368 15.8676 16.9695 15.9406 17.0351C16.0142 17.1007 16.051 17.1907 16.051 17.3051C16.051 17.4616 15.9338 17.6882 15.6994 17.9851H16.1169ZM17.0094 16.9368L16.7097 17.4266C16.7382 17.4192 16.7669 17.4155 16.796 17.4155C16.8931 17.4155 16.976 17.4529 17.0446 17.5277C17.1139 17.6026 17.1485 17.7012 17.1485 17.8237C17.1485 17.9505 17.1077 18.0559 17.0261 18.14C16.9444 18.2242 16.8421 18.2662 16.719 18.2662C16.5922 18.2662 16.4889 18.2238 16.4091 18.1391C16.3293 18.0538 16.2895 17.9431 16.2895 17.807C16.2895 17.6592 16.3485 17.49 16.4667 17.2995L16.6902 16.9368H17.0094ZM16.7246 18.0231C16.7691 18.0231 16.8047 18.0061 16.8313 17.9721C16.8578 17.9375 16.8711 17.8905 16.8711 17.8311C16.8711 17.773 16.8575 17.7263 16.8303 17.691C16.8031 17.6558 16.7672 17.6381 16.7227 17.6381C16.6782 17.6381 16.6429 17.6558 16.6169 17.691C16.591 17.7263 16.578 17.7745 16.578 17.8357C16.578 17.8951 16.591 17.9412 16.6169 17.974C16.6429 18.0068 16.6788 18.0231 16.7246 18.0231ZM17.3452 18.1011C17.3452 18.0559 17.3613 18.0173 17.3935 17.9851C17.4262 17.9523 17.4652 17.9359 17.5104 17.9359C17.5561 17.9359 17.5951 17.9523 17.6272 17.9851C17.66 18.0173 17.6764 18.0559 17.6764 18.1011C17.6764 18.1468 17.66 18.1858 17.6272 18.218C17.5951 18.2501 17.5561 18.2662 17.5104 18.2662C17.4652 18.2662 17.4262 18.2501 17.3935 18.218C17.3613 18.1858 17.3452 18.1468 17.3452 18.1011ZM18.0568 17.5658C17.9504 17.499 17.8972 17.4065 17.8972 17.2884C17.8972 17.1832 17.9334 17.0985 18.0058 17.0342C18.0781 16.9692 18.1731 16.9368 18.2906 16.9368C18.4143 16.9368 18.5123 16.9714 18.5847 17.0407C18.657 17.1093 18.6932 17.1925 18.6932 17.2902C18.6932 17.4108 18.6406 17.5027 18.5355 17.5658C18.6648 17.6326 18.7294 17.7371 18.7294 17.8793C18.7294 17.9956 18.6895 18.0893 18.6097 18.1604C18.5305 18.231 18.4248 18.2662 18.2924 18.2662C18.165 18.2662 18.0611 18.2303 17.9807 18.1586C17.9009 18.0868 17.861 17.9944 17.861 17.8812C17.861 17.7309 17.9263 17.6258 18.0568 17.5658ZM18.298 17.486C18.3351 17.486 18.3639 17.4696 18.3843 17.4368C18.4053 17.4034 18.4158 17.3576 18.4158 17.2995C18.4158 17.1845 18.3753 17.127 18.2943 17.127C18.2578 17.127 18.2287 17.1427 18.2071 17.1743C18.1854 17.2052 18.1746 17.2482 18.1746 17.3032C18.1746 17.3595 18.1857 17.404 18.208 17.4368C18.2303 17.4696 18.2603 17.486 18.298 17.486ZM18.298 18.077C18.3407 18.077 18.375 18.059 18.401 18.0231C18.4276 17.9867 18.4409 17.9381 18.4409 17.8775C18.4409 17.8138 18.4276 17.7634 18.401 17.7263C18.375 17.6885 18.3401 17.6697 18.2961 17.6697C18.2522 17.6697 18.217 17.6879 18.1904 17.7244C18.1638 17.7603 18.1505 17.8085 18.1505 17.8691C18.1505 17.9322 18.1641 17.9826 18.1913 18.0204C18.2185 18.0581 18.2541 18.077 18.298 18.077ZM19.3825 17.6836V17.9359H18.8871V17.6836H19.3825ZM19.9772 16.9368C20.1145 16.9368 20.2215 16.9958 20.2982 17.114C20.3755 17.2321 20.4142 17.3926 20.4142 17.5955C20.4142 17.8064 20.3767 17.9709 20.3019 18.089C20.2271 18.2071 20.1201 18.2662 19.9809 18.2662C19.8399 18.2662 19.7301 18.2075 19.6516 18.0899C19.5736 17.9724 19.5347 17.8098 19.5347 17.602C19.5347 17.3917 19.5743 17.2284 19.6534 17.1121C19.7332 16.9952 19.8411 16.9368 19.9772 16.9368ZM19.9772 18.0231C20.0292 18.0231 20.0669 17.9919 20.0904 17.9294C20.1139 17.8664 20.1256 17.7482 20.1256 17.575C20.1256 17.4309 20.1139 17.3292 20.0904 17.2698C20.0675 17.2098 20.0292 17.1798 19.9753 17.1798C19.9228 17.1798 19.8841 17.2092 19.8594 17.268C19.8353 17.3261 19.8232 17.4418 19.8232 17.6149C19.8232 17.7603 19.8353 17.8648 19.8594 17.9285C19.8841 17.9916 19.9234 18.0231 19.9772 18.0231ZM21.0255 16.9368C21.1628 16.9368 21.2698 16.9958 21.3465 17.114C21.4238 17.2321 21.4625 17.3926 21.4625 17.5955C21.4625 17.8064 21.4251 17.9709 21.3502 18.089C21.2754 18.2071 21.1684 18.2662 21.0292 18.2662C20.8882 18.2662 20.7785 18.2075 20.6999 18.0899C20.622 17.9724 20.583 17.8098 20.583 17.602C20.583 17.3917 20.6226 17.2284 20.7018 17.1121C20.7815 16.9952 20.8895 16.9368 21.0255 16.9368ZM21.0255 18.0231C21.0775 18.0231 21.1152 17.9919 21.1387 17.9294C21.1622 17.8664 21.174 17.7482 21.174 17.575C21.174 17.4309 21.1622 17.3292 21.1387 17.2698C21.1158 17.2098 21.0775 17.1798 21.0237 17.1798C20.9711 17.1798 20.9325 17.2092 20.9077 17.268C20.8836 17.3261 20.8715 17.4418 20.8715 17.6149C20.8715 17.7603 20.8836 17.8648 20.9077 17.9285C20.9325 17.9916 20.9717 18.0231 21.0255 18.0231ZM22.0739 16.9368C22.2112 16.9368 22.3182 16.9958 22.3949 17.114C22.4722 17.2321 22.5108 17.3926 22.5108 17.5955C22.5108 17.8064 22.4734 17.9709 22.3986 18.089C22.3237 18.2071 22.2167 18.2662 22.0776 18.2662C21.9366 18.2662 21.8268 18.2075 21.7482 18.0899C21.6703 17.9724 21.6313 17.8098 21.6313 17.602C21.6313 17.3917 21.6709 17.2284 21.7501 17.1121C21.8299 16.9952 21.9378 16.9368 22.0739 16.9368ZM22.0739 18.0231C22.1258 18.0231 22.1636 17.9919 22.1871 17.9294C22.2106 17.8664 22.2223 17.7482 22.2223 17.575C22.2223 17.4309 22.2106 17.3292 22.1871 17.2698C22.1642 17.2098 22.1258 17.1798 22.072 17.1798C22.0194 17.1798 21.9808 17.2092 21.9561 17.268C21.9319 17.3261 21.9199 17.4418 21.9199 17.6149C21.9199 17.7603 21.9319 17.8648 21.9561 17.9285C21.9808 17.9916 22.0201 18.0231 22.0739 18.0231ZM22.6871 18.1011C22.6871 18.0559 22.7032 18.0173 22.7354 17.9851C22.7681 17.9523 22.8071 17.9359 22.8522 17.9359C22.898 17.9359 22.937 17.9523 22.9691 17.9851C23.0019 18.0173 23.0183 18.0559 23.0183 18.1011C23.0183 18.1468 23.0019 18.1858 22.9691 18.218C22.937 18.2501 22.898 18.2662 22.8522 18.2662C22.8071 18.2662 22.7681 18.2501 22.7354 18.218C22.7032 18.1858 22.6871 18.1468 22.6871 18.1011ZM23.638 16.9368C23.7753 16.9368 23.8823 16.9958 23.959 17.114C24.0363 17.2321 24.075 17.3926 24.075 17.5955C24.075 17.8064 24.0376 17.9709 23.9627 18.089C23.8879 18.2071 23.7809 18.2662 23.6417 18.2662C23.5007 18.2662 23.391 18.2075 23.3124 18.0899C23.2345 17.9724 23.1955 17.8098 23.1955 17.602C23.1955 17.3917 23.2351 17.2284 23.3143 17.1121C23.394 16.9952 23.502 16.9368 23.638 16.9368ZM23.638 18.0231C23.69 18.0231 23.7277 17.9919 23.7512 17.9294C23.7747 17.8664 23.7865 17.7482 23.7865 17.575C23.7865 17.4309 23.7747 17.3292 23.7512 17.2698C23.7283 17.2098 23.69 17.1798 23.6362 17.1798C23.5836 17.1798 23.545 17.2092 23.5202 17.268C23.4961 17.3261 23.484 17.4418 23.484 17.6149C23.484 17.7603 23.4961 17.8648 23.5202 17.9285C23.545 17.9916 23.5842 18.0231 23.638 18.0231ZM24.6864 16.9368C24.8237 16.9368 24.9307 16.9958 25.0074 17.114C25.0847 17.2321 25.1233 17.3926 25.1233 17.5955C25.1233 17.8064 25.0859 17.9709 25.0111 18.089C24.9362 18.2071 24.8292 18.2662 24.6901 18.2662C24.5491 18.2662 24.4393 18.2075 24.3607 18.0899C24.2828 17.9724 24.2438 17.8098 24.2438 17.602C24.2438 17.3917 24.2834 17.2284 24.3626 17.1121C24.4424 16.9952 24.5503 16.9368 24.6864 16.9368ZM24.6864 18.0231C24.7383 18.0231 24.7761 17.9919 24.7996 17.9294C24.8231 17.8664 24.8348 17.7482 24.8348 17.575C24.8348 17.4309 24.8231 17.3292 24.7996 17.2698C24.7767 17.2098 24.7383 17.1798 24.6845 17.1798C24.6319 17.1798 24.5933 17.2092 24.5686 17.268C24.5444 17.3261 24.5324 17.4418 24.5324 17.6149C24.5324 17.7603 24.5444 17.8648 24.5686 17.9285C24.5933 17.9916 24.6326 18.0231 24.6864 18.0231ZM25.7347 16.9368C25.872 16.9368 25.979 16.9958 26.0557 17.114C26.133 17.2321 26.1717 17.3926 26.1717 17.5955C26.1717 17.8064 26.1343 17.9709 26.0594 18.089C25.9846 18.2071 25.8776 18.2662 25.7384 18.2662C25.5974 18.2662 25.4876 18.2075 25.4091 18.0899C25.3312 17.9724 25.2922 17.8098 25.2922 17.602C25.2922 17.3917 25.3318 17.2284 25.4109 17.1121C25.4907 16.9952 25.5986 16.9368 25.7347 16.9368ZM25.7347 18.0231C25.7867 18.0231 25.8244 17.9919 25.8479 17.9294C25.8714 17.8664 25.8832 17.7482 25.8832 17.575C25.8832 17.4309 25.8714 17.3292 25.8479 17.2698C25.825 17.2098 25.7867 17.1798 25.7329 17.1798C25.6803 17.1798 25.6416 17.2092 25.6169 17.268C25.5928 17.3261 25.5807 17.4418 25.5807 17.6149C25.5807 17.7603 25.5928 17.8648 25.6169 17.9285C25.6416 17.9916 25.6809 18.0231 25.7347 18.0231Z" fill="black"/>
<path d="M10.7578 25.261H22.5219V25.8871H10.7578V25.261Z" fill="black"/>
<path d="M10.7578 26.3042H19.1608V26.9303H10.7578V26.3042Z" fill="black"/>
<path d="M27.4766 11.0869H35.8795V11.9327H27.4766V11.0869Z" fill="black"/>
<path d="M10.7578 27.3477H20.8414V27.9737H10.7578V27.3477Z" fill="black"/>
<path d="M10.7578 28.3911H19.1608V29.0172H10.7578V28.3911Z" fill="black"/>
<g clip-path="url(#clip0_4183_8416)">
<path d="M5.88936 25.261H9.78125V29.0871H5.88936V25.261Z" fill="white"/>
<path d="M9.46513 25.4678H9.57031V25.5712H9.46513V25.4678Z" fill="black"/>
<path d="M9.35994 25.4678H9.46513V25.5712H9.35994V25.4678Z" fill="black"/>
<path d="M9.25475 25.4678H9.35994V25.5712H9.25475V25.4678Z" fill="black"/>
<path d="M9.14957 25.4678H9.25475V25.5712H9.14957V25.4678Z" fill="black"/>
<path d="M9.04438 25.4678H9.14957V25.5712H9.04438V25.4678Z" fill="black"/>
<path d="M8.93919 25.4678H9.04438V25.5712H8.93919V25.4678Z" fill="black"/>
<path d="M8.83401 25.4678H8.93919V25.5712H8.83401V25.4678Z" fill="black"/>
<path d="M8.62364 25.4678H8.72882V25.5712H8.62364V25.4678Z" fill="black"/>
<path d="M8.51845 25.4678H8.62364V25.5712H8.51845V25.4678Z" fill="black"/>
<path d="M8.41326 25.4678H8.51845V25.5712H8.41326V25.4678Z" fill="black"/>
<path d="M8.30808 25.4678H8.41326V25.5712H8.30808V25.4678Z" fill="black"/>
<path d="M8.0977 25.4678H8.20289V25.5712H8.0977V25.4678Z" fill="black"/>
<path d="M7.3614 25.4678H7.46659V25.5712H7.3614V25.4678Z" fill="black"/>
<path d="M7.25622 25.4678H7.3614V25.5712H7.25622V25.4678Z" fill="black"/>
<path d="M6.94066 25.4678H7.04584V25.5712H6.94066V25.4678Z" fill="black"/>
<path d="M6.73028 25.4678H6.83547V25.5712H6.73028V25.4678Z" fill="black"/>
<path d="M6.6251 25.4678H6.73028V25.5712H6.6251V25.4678Z" fill="black"/>
<path d="M6.51991 25.4678H6.6251V25.5712H6.51991V25.4678Z" fill="black"/>
<path d="M6.41472 25.4678H6.51991V25.5712H6.41472V25.4678Z" fill="black"/>
<path d="M6.30954 25.4678H6.41472V25.5712H6.30954V25.4678Z" fill="black"/>
<path d="M6.20435 25.4678H6.30954V25.5712H6.20435V25.4678Z" fill="black"/>
<path d="M6.09917 25.4678H6.20435V25.5712H6.09917V25.4678Z" fill="black"/>
<path d="M9.46513 25.5712H9.57031V25.6746H9.46513V25.5712Z" fill="black"/>
<path d="M8.83401 25.5712H8.93919V25.6746H8.83401V25.5712Z" fill="black"/>
<path d="M8.51845 25.5712H8.62364V25.6746H8.51845V25.5712Z" fill="black"/>
<path d="M8.41326 25.5712H8.51845V25.6746H8.41326V25.5712Z" fill="black"/>
<path d="M7.67696 25.5712H7.78215V25.6746H7.67696V25.5712Z" fill="black"/>
<path d="M7.57177 25.5712H7.67696V25.6746H7.57177V25.5712Z" fill="black"/>
<path d="M7.3614 25.5712H7.46659V25.6746H7.3614V25.5712Z" fill="black"/>
<path d="M7.04584 25.5712H7.15103V25.6746H7.04584V25.5712Z" fill="black"/>
<path d="M6.73028 25.5712H6.83547V25.6746H6.73028V25.5712Z" fill="black"/>
<path d="M6.09917 25.5712H6.20435V25.6746H6.09917V25.5712Z" fill="black"/>
<path d="M9.46513 25.6746H9.57031V25.778H9.46513V25.6746Z" fill="black"/>
<path d="M9.25475 25.6746H9.35994V25.778H9.25475V25.6746Z" fill="black"/>
<path d="M9.14957 25.6746H9.25475V25.778H9.14957V25.6746Z" fill="black"/>
<path d="M9.04438 25.6746H9.14957V25.778H9.04438V25.6746Z" fill="black"/>
<path d="M8.83401 25.6746H8.93919V25.778H8.83401V25.6746Z" fill="black"/>
<path d="M8.62364 25.6746H8.72882V25.778H8.62364V25.6746Z" fill="black"/>
<path d="M8.0977 25.6746H8.20289V25.778H8.0977V25.6746Z" fill="black"/>
<path d="M7.99252 25.6746H8.0977V25.778H7.99252V25.6746Z" fill="black"/>
<path d="M7.88733 25.6746H7.99252V25.778H7.88733V25.6746Z" fill="black"/>
<path d="M7.67696 25.6746H7.78215V25.778H7.67696V25.6746Z" fill="black"/>
<path d="M7.57177 25.6746H7.67696V25.778H7.57177V25.6746Z" fill="black"/>
<path d="M7.46659 25.6746H7.57177V25.778H7.46659V25.6746Z" fill="black"/>
<path d="M7.3614 25.6746H7.46659V25.778H7.3614V25.6746Z" fill="black"/>
<path d="M7.25622 25.6746H7.3614V25.778H7.25622V25.6746Z" fill="black"/>
<path d="M7.04584 25.6746H7.15103V25.778H7.04584V25.6746Z" fill="black"/>
<path d="M6.73028 25.6746H6.83547V25.778H6.73028V25.6746Z" fill="black"/>
<path d="M6.51991 25.6746H6.6251V25.778H6.51991V25.6746Z" fill="black"/>
<path d="M6.41472 25.6746H6.51991V25.778H6.41472V25.6746Z" fill="black"/>
<path d="M6.30954 25.6746H6.41472V25.778H6.30954V25.6746Z" fill="black"/>
<path d="M6.09917 25.6746H6.20435V25.778H6.09917V25.6746Z" fill="black"/>
<path d="M9.46513 25.778H9.57031V25.8814H9.46513V25.778Z" fill="black"/>
<path d="M9.25475 25.778H9.35994V25.8814H9.25475V25.778Z" fill="black"/>
<path d="M9.14957 25.778H9.25475V25.8814H9.14957V25.778Z" fill="black"/>
<path d="M9.04438 25.778H9.14957V25.8814H9.04438V25.778Z" fill="black"/>
<path d="M8.83401 25.778H8.93919V25.8814H8.83401V25.778Z" fill="black"/>
<path d="M8.62364 25.778H8.72882V25.8814H8.62364V25.778Z" fill="black"/>
<path d="M8.30808 25.778H8.41326V25.8814H8.30808V25.778Z" fill="black"/>
<path d="M8.20289 25.778H8.30808V25.8814H8.20289V25.778Z" fill="black"/>
<path d="M7.99252 25.778H8.0977V25.8814H7.99252V25.778Z" fill="black"/>
<path d="M7.78215 25.778H7.88733V25.8814H7.78215V25.778Z" fill="black"/>
<path d="M7.67696 25.778H7.78215V25.8814H7.67696V25.778Z" fill="black"/>
<path d="M7.46659 25.778H7.57177L7.57177 25.8814H7.46659V25.778Z" fill="black"/>
<path d="M7.15103 25.778H7.25622V25.8814H7.15103V25.778Z" fill="black"/>
<path d="M7.04584 25.778H7.15103V25.8814H7.04584V25.778Z" fill="black"/>
<path d="M6.73028 25.778H6.83547V25.8814H6.73028V25.778Z" fill="black"/>
<path d="M6.51991 25.778H6.6251V25.8814H6.51991V25.778Z" fill="black"/>
<path d="M6.41472 25.778H6.51991V25.8814H6.41472V25.778Z" fill="black"/>
<path d="M6.30954 25.778H6.41472V25.8814H6.30954V25.778Z" fill="black"/>
<path d="M6.09917 25.778H6.20435V25.8814H6.09917V25.778Z" fill="black"/>
<path d="M9.46513 25.8814H9.57031V25.9848H9.46513V25.8814Z" fill="black"/>
<path d="M9.25475 25.8814H9.35994V25.9848H9.25475V25.8814Z" fill="black"/>
<path d="M9.14957 25.8814H9.25475V25.9848H9.14957V25.8814Z" fill="black"/>
<path d="M9.04438 25.8814H9.14957V25.9848H9.04438V25.8814Z" fill="black"/>
<path d="M8.83401 25.8814H8.93919V25.9848H8.83401V25.8814Z" fill="black"/>
<path d="M8.30808 25.8814H8.41326V25.9848H8.30808V25.8814Z" fill="black"/>
<path d="M8.20289 25.8814H8.30808V25.9848H8.20289V25.8814Z" fill="black"/>
<path d="M8.0977 25.8814H8.20289V25.9848H8.0977V25.8814Z" fill="black"/>
<path d="M7.99252 25.8814H8.0977V25.9848H7.99252V25.8814Z" fill="black"/>
<path d="M7.78215 25.8814H7.88733V25.9848H7.78215V25.8814Z" fill="black"/>
<path d="M7.57177 25.8814H7.67696V25.9848H7.57177L7.57177 25.8814Z" fill="black"/>
<path d="M7.46659 25.8814H7.57177L7.57177 25.9848H7.46659V25.8814Z" fill="black"/>
<path d="M7.3614 25.8814H7.46659V25.9848H7.3614V25.8814Z" fill="black"/>
<path d="M7.25622 25.8814H7.3614V25.9848H7.25622V25.8814Z" fill="black"/>
<path d="M6.94066 25.8814H7.04584V25.9848H6.94066V25.8814Z" fill="black"/>
<path d="M6.73028 25.8814H6.83547V25.9848H6.73028V25.8814Z" fill="black"/>
<path d="M6.51991 25.8814H6.6251V25.9848H6.51991V25.8814Z" fill="black"/>
<path d="M6.41472 25.8814H6.51991V25.9848H6.41472V25.8814Z" fill="black"/>
<path d="M6.30954 25.8814H6.41472V25.9848H6.30954V25.8814Z" fill="black"/>
<path d="M6.09917 25.8814H6.20435V25.9848H6.09917V25.8814Z" fill="black"/>
<path d="M9.46513 25.9848H9.57031V26.0882H9.46513V25.9848Z" fill="black"/>
<path d="M8.83401 25.9848H8.93919V26.0882H8.83401V25.9848Z" fill="black"/>
<path d="M8.62364 25.9848H8.72882V26.0882H8.62364V25.9848Z" fill="black"/>
<path d="M8.51845 25.9848H8.62364V26.0882H8.51845V25.9848Z" fill="black"/>
<path d="M8.30808 25.9848H8.41326V26.0882H8.30808V25.9848Z" fill="black"/>
<path d="M8.0977 25.9848H8.20289V26.0882H8.0977V25.9848Z" fill="black"/>
<path d="M7.99252 25.9848H8.0977V26.0882H7.99252V25.9848Z" fill="black"/>
<path d="M7.67696 25.9848H7.78215V26.0882H7.67696V25.9848Z" fill="black"/>
<path d="M7.57177 25.9848H7.67696V26.0882H7.57177V25.9848Z" fill="black"/>
<path d="M7.3614 25.9848H7.46659V26.0882H7.3614V25.9848Z" fill="black"/>
<path d="M7.04584 25.9848H7.15103V26.0882H7.04584V25.9848Z" fill="black"/>
<path d="M6.94066 25.9848H7.04584V26.0882H6.94066V25.9848Z" fill="black"/>
<path d="M6.73028 25.9848H6.83547V26.0882H6.73028V25.9848Z" fill="black"/>
<path d="M6.09917 25.9848H6.20435V26.0882H6.09917V25.9848Z" fill="black"/>
<path d="M9.46513 26.0882H9.57031V26.1916H9.46513V26.0882Z" fill="black"/>
<path d="M9.35994 26.0882H9.46513V26.1916H9.35994V26.0882Z" fill="black"/>
<path d="M9.25475 26.0882H9.35994V26.1916H9.25475V26.0882Z" fill="black"/>
<path d="M9.14957 26.0882H9.25475V26.1916H9.14957V26.0882Z" fill="black"/>
<path d="M9.04438 26.0882H9.14957V26.1916H9.04438V26.0882Z" fill="black"/>
<path d="M8.93919 26.0882H9.04438V26.1916H8.93919V26.0882Z" fill="black"/>
<path d="M8.83401 26.0882H8.93919V26.1916H8.83401V26.0882Z" fill="black"/>
<path d="M8.62364 26.0882H8.72882V26.1916H8.62364V26.0882Z" fill="black"/>
<path d="M8.41326 26.0882H8.51845V26.1916H8.41326V26.0882Z" fill="black"/>
<path d="M8.20289 26.0882H8.30808V26.1916H8.20289V26.0882Z" fill="black"/>
<path d="M7.99252 26.0882H8.0977V26.1916H7.99252V26.0882Z" fill="black"/>
<path d="M7.78215 26.0882H7.88733V26.1916H7.78215V26.0882Z" fill="black"/>
<path d="M7.57177 26.0882H7.67696V26.1916H7.57177V26.0882Z" fill="black"/>
<path d="M7.3614 26.0882H7.46659V26.1916H7.3614V26.0882Z" fill="black"/>
<path d="M7.15103 26.0882H7.25622V26.1916H7.15103V26.0882Z" fill="black"/>
<path d="M6.94066 26.0882H7.04584V26.1916H6.94066V26.0882Z" fill="black"/>
<path d="M6.73028 26.0882H6.83547V26.1916H6.73028V26.0882Z" fill="black"/>
<path d="M6.6251 26.0882H6.73028V26.1916H6.6251V26.0882Z" fill="black"/>
<path d="M6.51991 26.0882H6.6251V26.1916H6.51991V26.0882Z" fill="black"/>
<path d="M6.41472 26.0882H6.51991V26.1916H6.41472V26.0882Z" fill="black"/>
<path d="M6.30954 26.0882H6.41472V26.1916H6.30954V26.0882Z" fill="black"/>
<path d="M6.20435 26.0882H6.30954V26.1916H6.20435V26.0882Z" fill="black"/>
<path d="M6.09917 26.0882H6.20435V26.1916H6.09917V26.0882Z" fill="black"/>
<path d="M8.62364 26.1916H8.72882V26.295H8.62364V26.1916Z" fill="black"/>
<path d="M8.41326 26.1916H8.51845V26.295H8.41326V26.1916Z" fill="black"/>
<path d="M8.30808 26.1916H8.41326V26.295H8.30808V26.1916Z" fill="black"/>
<path d="M7.99252 26.1916H8.0977V26.295H7.99252V26.1916Z" fill="black"/>
<path d="M7.88733 26.1916H7.99252V26.295H7.88733V26.1916Z" fill="black"/>
<path d="M7.78215 26.1916H7.88733V26.295H7.78215V26.1916Z" fill="black"/>
<path d="M7.67696 26.1916H7.78215V26.295H7.67696V26.1916Z" fill="black"/>
<path d="M7.57177 26.1916H7.67696V26.295H7.57177V26.1916Z" fill="black"/>
<path d="M7.46659 26.1916H7.57177V26.295H7.46659V26.1916Z" fill="black"/>
<path d="M7.25622 26.1916H7.3614V26.295H7.25622V26.1916Z" fill="black"/>
<path d="M7.04584 26.1916H7.15103V26.295H7.04584V26.1916Z" fill="black"/>
<path d="M9.46513 26.295H9.57031V26.3984H9.46513V26.295Z" fill="black"/>
<path d="M9.35994 26.295H9.46513V26.3984H9.35994V26.295Z" fill="black"/>
<path d="M9.14957 26.295H9.25475V26.3984H9.14957V26.295Z" fill="black"/>
<path d="M8.83401 26.295H8.93919V26.3984H8.83401V26.295Z" fill="black"/>
<path d="M8.72882 26.295H8.83401V26.3984H8.72882V26.295Z" fill="black"/>
<path d="M8.20289 26.295H8.30808V26.3984H8.20289V26.295Z" fill="black"/>
<path d="M7.99252 26.295H8.0977V26.3984H7.99252V26.295Z" fill="black"/>
<path d="M7.78215 26.295H7.88733V26.3984H7.78215V26.295Z" fill="black"/>
<path d="M7.57177 26.295H7.67696V26.3984H7.57177V26.295Z" fill="black"/>
<path d="M7.46659 26.295H7.57177V26.3984H7.46659V26.295Z" fill="black"/>
<path d="M7.3614 26.295H7.46659V26.3984H7.3614V26.295Z" fill="black"/>
<path d="M7.25622 26.295H7.3614V26.3984H7.25622V26.295Z" fill="black"/>
<path d="M6.94066 26.295H7.04584V26.3984H6.94066V26.295Z" fill="black"/>
<path d="M6.83547 26.295H6.94066V26.3984H6.83547V26.295Z" fill="black"/>
<path d="M6.73028 26.295H6.83547V26.3984H6.73028V26.295Z" fill="black"/>
<path d="M6.6251 26.295H6.73028V26.3984H6.6251V26.295Z" fill="black"/>
<path d="M6.41472 26.295H6.51991V26.3984H6.41472V26.295Z" fill="black"/>
<path d="M6.30954 26.295H6.41472V26.3984H6.30954V26.295Z" fill="black"/>
<path d="M6.09917 26.295H6.20435V26.3984H6.09917V26.295Z" fill="black"/>
<path d="M9.46513 26.3984H9.57031V26.5019H9.46513V26.3984Z" fill="black"/>
<path d="M9.25475 26.3984H9.35994V26.5019H9.25475V26.3984Z" fill="black"/>
<path d="M8.93919 26.3984H9.04438V26.5019H8.93919V26.3984Z" fill="black"/>
<path d="M8.20289 26.3984H8.30808V26.5019H8.20289V26.3984Z" fill="black"/>
<path d="M8.0977 26.3984H8.20289V26.5019H8.0977V26.3984Z" fill="black"/>
<path d="M7.57177 26.3984H7.67696V26.5019H7.57177V26.3984Z" fill="black"/>
<path d="M7.46659 26.3984H7.57177V26.5019H7.46659V26.3984Z" fill="black"/>
<path d="M6.94066 26.3984H7.04584V26.5019H6.94066V26.3984Z" fill="black"/>
<path d="M6.83547 26.3984H6.94066V26.5019H6.83547V26.3984Z" fill="black"/>
<path d="M6.73028 26.3984H6.83547V26.5019H6.73028V26.3984Z" fill="black"/>
<path d="M9.46513 26.5019H9.57031V26.6053H9.46513V26.5019Z" fill="black"/>
<path d="M9.14957 26.5019H9.25475V26.6053H9.14957V26.5019Z" fill="black"/>
<path d="M9.04438 26.5019H9.14957V26.6053H9.04438V26.5019Z" fill="black"/>
<path d="M8.83401 26.5019H8.93919V26.6053H8.83401V26.5019Z" fill="black"/>
<path d="M8.62364 26.5019H8.72882V26.6053H8.62364V26.5019Z" fill="black"/>
<path d="M8.51845 26.5019H8.62364V26.6053H8.51845V26.5019Z" fill="black"/>
<path d="M8.30808 26.5019H8.41326V26.6053H8.30808V26.5019Z" fill="black"/>
<path d="M8.20289 26.5019H8.30808V26.6053H8.20289V26.5019Z" fill="black"/>
<path d="M7.99252 26.5019H8.0977V26.6053H7.99252V26.5019Z" fill="black"/>
<path d="M7.88733 26.5019H7.99252V26.6053H7.88733V26.5019Z" fill="black"/>
<path d="M7.57177 26.5019H7.67696V26.6053H7.57177V26.5019Z" fill="black"/>
<path d="M7.46659 26.5019H7.57177V26.6053H7.46659V26.5019Z" fill="black"/>
<path d="M7.3614 26.5019H7.46659V26.6053H7.3614V26.5019Z" fill="black"/>
<path d="M7.25622 26.5019H7.3614V26.6053H7.25622V26.5019Z" fill="black"/>
<path d="M6.94066 26.5019H7.04584V26.6053H6.94066V26.5019Z" fill="black"/>
<path d="M6.73028 26.5019H6.83547V26.6053H6.73028V26.5019Z" fill="black"/>
<path d="M6.51991 26.5019H6.6251V26.6053H6.51991V26.5019Z" fill="black"/>
<path d="M6.20435 26.5019H6.30954V26.6053H6.20435V26.5019Z" fill="black"/>
<path d="M9.46513 26.6053H9.57031V26.7087H9.46513V26.6053Z" fill="black"/>
<path d="M9.25475 26.6053H9.35994V26.7087H9.25475V26.6053Z" fill="black"/>
<path d="M9.04438 26.6053H9.14957V26.7087H9.04438V26.6053Z" fill="black"/>
<path d="M8.51845 26.6053H8.62364V26.7087H8.51845V26.6053Z" fill="black"/>
<path d="M8.41326 26.6053H8.51845V26.7087H8.41326V26.6053Z" fill="black"/>
<path d="M7.99252 26.6053H8.0977V26.7087H7.99252V26.6053Z" fill="black"/>
<path d="M7.88733 26.6053H7.99252V26.7087H7.88733V26.6053Z" fill="black"/>
<path d="M7.67696 26.6053H7.78215V26.7087H7.67696V26.6053Z" fill="black"/>
<path d="M7.25622 26.6053H7.3614V26.7087H7.25622V26.6053Z" fill="black"/>
<path d="M7.15103 26.6053H7.25622V26.7087H7.15103V26.6053Z" fill="black"/>
<path d="M7.04584 26.6053H7.15103V26.7087H7.04584V26.6053Z" fill="black"/>
<path d="M6.83547 26.6053H6.94066V26.7087H6.83547V26.6053Z" fill="black"/>
<path d="M6.6251 26.6053H6.73028V26.7087H6.6251V26.6053Z" fill="black"/>
<path d="M6.30954 26.6053H6.41472V26.7087H6.30954V26.6053Z" fill="black"/>
<path d="M6.20435 26.6053H6.30954V26.7087H6.20435V26.6053Z" fill="black"/>
<path d="M9.04438 26.7087H9.14957V26.8121H9.04438V26.7087Z" fill="black"/>
<path d="M8.93919 26.7087H9.04438V26.8121H8.93919V26.7087Z" fill="black"/>
<path d="M8.83401 26.7087H8.93919V26.8121H8.83401V26.7087Z" fill="black"/>
<path d="M8.72882 26.7087H8.83401V26.8121H8.72882V26.7087Z" fill="black"/>
<path d="M8.62364 26.7087H8.72882V26.8121H8.62364V26.7087Z" fill="black"/>
<path d="M8.0977 26.7087H8.20289V26.8121H8.0977V26.7087Z" fill="black"/>
<path d="M7.78215 26.7087H7.88733V26.8121H7.78215V26.7087Z" fill="black"/>
<path d="M7.57177 26.7087H7.67696V26.8121H7.57177V26.7087Z" fill="black"/>
<path d="M7.46659 26.7087H7.57177V26.8121H7.46659V26.7087Z" fill="black"/>
<path d="M7.3614 26.7087H7.46659V26.8121H7.3614V26.7087Z" fill="black"/>
<path d="M7.25622 26.7087H7.3614V26.8121H7.25622V26.7087Z" fill="black"/>
<path d="M7.15103 26.7087H7.25622V26.8121H7.15103V26.7087Z" fill="black"/>
<path d="M7.04584 26.7087H7.15103V26.8121H7.04584V26.7087Z" fill="black"/>
<path d="M6.94066 26.7087H7.04584V26.8121H6.94066V26.7087Z" fill="black"/>
<path d="M6.73028 26.7087H6.83547V26.8121H6.73028V26.7087Z" fill="black"/>
<path d="M6.6251 26.7087H6.73028V26.8121H6.6251V26.7087Z" fill="black"/>
<path d="M6.51991 26.7087H6.6251V26.8121H6.51991V26.7087Z" fill="black"/>
<path d="M6.41472 26.7087H6.51991V26.8121H6.41472V26.7087Z" fill="black"/>
<path d="M9.25475 26.8121H9.35994V26.9155H9.25475V26.8121Z" fill="black"/>
<path d="M9.04438 26.8121H9.14957V26.9155H9.04438V26.8121Z" fill="black"/>
<path d="M8.51845 26.8121H8.62364V26.9155H8.51845V26.8121Z" fill="black"/>
<path d="M8.41326 26.8121H8.51845V26.9155H8.41326V26.8121Z" fill="black"/>
<path d="M7.99252 26.8121H8.0977V26.9155H7.99252V26.8121Z" fill="black"/>
<path d="M7.78215 26.8121H7.88733V26.9155H7.78215V26.8121Z" fill="black"/>
<path d="M7.67696 26.8121H7.78215V26.9155H7.67696V26.8121Z" fill="black"/>
<path d="M7.15103 26.8121H7.25622V26.9155H7.15103V26.8121Z" fill="black"/>
<path d="M6.94066 26.8121H7.04584V26.9155H6.94066V26.8121Z" fill="black"/>
<path d="M6.83547 26.8121H6.94066V26.9155H6.83547V26.8121Z" fill="black"/>
<path d="M6.73028 26.8121H6.83547V26.9155H6.73028V26.8121Z" fill="black"/>
<path d="M6.6251 26.8121H6.73028V26.9155H6.6251V26.8121Z" fill="black"/>
<path d="M6.51991 26.8121H6.6251V26.9155H6.51991V26.8121Z" fill="black"/>
<path d="M6.20435 26.8121H6.30954V26.9155H6.20435V26.8121Z" fill="black"/>
<path d="M6.09917 26.8121H6.20435V26.9155H6.09917V26.8121Z" fill="black"/>
<path d="M9.35994 26.9155H9.46513V27.0189H9.35994V26.9155Z" fill="black"/>
<path d="M9.25475 26.9155H9.35994V27.0189H9.25475V26.9155Z" fill="black"/>
<path d="M8.93919 26.9155H9.04438V27.0189H8.93919V26.9155Z" fill="black"/>
<path d="M8.83401 26.9155H8.93919V27.0189H8.83401V26.9155Z" fill="black"/>
<path d="M8.62364 26.9155H8.72882V27.0189H8.62364V26.9155Z" fill="black"/>
<path d="M8.20289 26.9155H8.30808V27.0189H8.20289V26.9155Z" fill="black"/>
<path d="M8.0977 26.9155H8.20289V27.0189H8.0977V26.9155Z" fill="black"/>
<path d="M7.99252 26.9155H8.0977V27.0189H7.99252V26.9155Z" fill="black"/>
<path d="M7.67696 26.9155H7.78215V27.0189H7.67696V26.9155Z" fill="black"/>
<path d="M7.57177 26.9155H7.67696V27.0189H7.57177V26.9155Z" fill="black"/>
<path d="M7.3614 26.9155H7.46659V27.0189H7.3614V26.9155Z" fill="black"/>
<path d="M7.25622 26.9155H7.3614V27.0189H7.25622V26.9155Z" fill="black"/>
<path d="M7.15103 26.9155H7.25622V27.0189H7.15103V26.9155Z" fill="black"/>
<path d="M7.04584 26.9155H7.15103V27.0189H7.04584V26.9155Z" fill="black"/>
<path d="M6.94066 26.9155H7.04584V27.0189H6.94066V26.9155Z" fill="black"/>
<path d="M6.6251 26.9155H6.73028V27.0189H6.6251V26.9155Z" fill="black"/>
<path d="M6.51991 26.9155H6.6251V27.0189H6.51991V26.9155Z" fill="black"/>
<path d="M6.41472 26.9155H6.51991V27.0189H6.41472V26.9155Z" fill="black"/>
<path d="M9.14957 27.0189H9.25475V27.1223H9.14957V27.0189Z" fill="black"/>
<path d="M8.93919 27.0189H9.04438V27.1223H8.93919V27.0189Z" fill="black"/>
<path d="M8.72882 27.0189H8.83401V27.1223H8.72882V27.0189Z" fill="black"/>
<path d="M8.62364 27.0189H8.72882V27.1223H8.62364V27.0189Z" fill="black"/>
<path d="M7.88733 27.0189H7.99252V27.1223H7.88733V27.0189Z" fill="black"/>
<path d="M7.67696 27.0189H7.78215V27.1223H7.67696V27.0189Z" fill="black"/>
<path d="M7.57177 27.0189H7.67696V27.1223H7.57177V27.0189Z" fill="black"/>
<path d="M7.46659 27.0189H7.57177V27.1223H7.46659V27.0189Z" fill="black"/>
<path d="M7.3614 27.0189H7.46659V27.1223H7.3614V27.0189Z" fill="black"/>
<path d="M7.25622 27.0189H7.3614V27.1223H7.25622V27.0189Z" fill="black"/>
<path d="M7.15103 27.0189H7.25622V27.1223H7.15103V27.0189Z" fill="black"/>
<path d="M7.04584 27.0189H7.15103V27.1223H7.04584V27.0189Z" fill="black"/>
<path d="M6.83547 27.0189H6.94066V27.1223H6.83547V27.0189Z" fill="black"/>
<path d="M6.51991 27.0189H6.6251V27.1223H6.51991V27.0189Z" fill="black"/>
<path d="M6.30954 27.0189H6.41472V27.1223H6.30954V27.0189Z" fill="black"/>
<path d="M9.04438 27.1223H9.14957V27.2257H9.04438V27.1223Z" fill="black"/>
<path d="M8.93919 27.1223H9.04438V27.2257H8.93919V27.1223Z" fill="black"/>
<path d="M8.83401 27.1223H8.93919V27.2257H8.83401V27.1223Z" fill="black"/>
<path d="M8.72882 27.1223H8.83401V27.2257H8.72882V27.1223Z" fill="black"/>
<path d="M8.62364 27.1223H8.72882V27.2257H8.62364V27.1223Z" fill="black"/>
<path d="M8.51845 27.1223H8.62364V27.2257H8.51845V27.1223Z" fill="black"/>
<path d="M8.41326 27.1223H8.51845V27.2257H8.41326V27.1223Z" fill="black"/>
<path d="M8.30808 27.1223H8.41326V27.2257H8.30808V27.1223Z" fill="black"/>
<path d="M8.20289 27.1223H8.30808V27.2257H8.20289V27.1223Z" fill="black"/>
<path d="M7.46659 27.1223H7.57177L7.57177 27.2257H7.46659V27.1223Z" fill="black"/>
<path d="M7.3614 27.1223H7.46659V27.2257H7.3614V27.1223Z" fill="black"/>
<path d="M7.25622 27.1223H7.3614V27.2257H7.25622V27.1223Z" fill="black"/>
<path d="M6.6251 27.1223H6.73028V27.2257H6.6251V27.1223Z" fill="black"/>
<path d="M6.51991 27.1223H6.6251V27.2257H6.51991V27.1223Z" fill="black"/>
<path d="M6.41472 27.1223H6.51991V27.2257H6.41472V27.1223Z" fill="black"/>
<path d="M6.30954 27.1223H6.41472V27.2257H6.30954V27.1223Z" fill="black"/>
<path d="M6.09917 27.1223H6.20435V27.2257H6.09917V27.1223Z" fill="black"/>
<path d="M9.35994 27.2257H9.46513V27.3291H9.35994V27.2257Z" fill="black"/>
<path d="M9.04438 27.2257H9.14957V27.3291H9.04438V27.2257Z" fill="black"/>
<path d="M8.72882 27.2257H8.83401V27.3291H8.72882V27.2257Z" fill="black"/>
<path d="M8.62364 27.2257H8.72882V27.3291H8.62364V27.2257Z" fill="black"/>
<path d="M8.51845 27.2257H8.62364V27.3291H8.51845V27.2257Z" fill="black"/>
<path d="M8.30808 27.2257H8.41326V27.3291H8.30808V27.2257Z" fill="black"/>
<path d="M7.99252 27.2257H8.0977V27.3291H7.99252V27.2257Z" fill="black"/>
<path d="M7.46659 27.2257H7.57177V27.3291H7.46659V27.2257Z" fill="black"/>
<path d="M7.25622 27.2257H7.3614V27.3291H7.25622V27.2257Z" fill="black"/>
<path d="M6.94066 27.2257H7.04584V27.3291H6.94066V27.2257Z" fill="black"/>
<path d="M6.73028 27.2257H6.83547V27.3291H6.73028V27.2257Z" fill="black"/>
<path d="M6.6251 27.2257H6.73028V27.3291H6.6251V27.2257Z" fill="black"/>
<path d="M6.51991 27.2257H6.6251V27.3291H6.51991V27.2257Z" fill="black"/>
<path d="M6.30954 27.2257H6.41472V27.3291H6.30954V27.2257Z" fill="black"/>
<path d="M6.20435 27.2257H6.30954V27.3291H6.20435V27.2257Z" fill="black"/>
<path d="M6.09917 27.2257H6.20435V27.3291H6.09917V27.2257Z" fill="black"/>
<path d="M9.46513 27.3291H9.57031V27.4325H9.46513V27.3291Z" fill="black"/>
<path d="M9.25475 27.3291H9.35994V27.4325H9.25475V27.3291Z" fill="black"/>
<path d="M9.14957 27.3291H9.25475V27.4325H9.14957V27.3291Z" fill="black"/>
<path d="M9.04438 27.3291H9.14957V27.4325H9.04438V27.3291Z" fill="black"/>
<path d="M8.83401 27.3291H8.93919V27.4325H8.83401V27.3291Z" fill="black"/>
<path d="M8.72882 27.3291H8.83401V27.4325H8.72882V27.3291Z" fill="black"/>
<path d="M8.62364 27.3291H8.72882V27.4325H8.62364V27.3291Z" fill="black"/>
<path d="M8.51845 27.3291H8.62364V27.4325H8.51845V27.3291Z" fill="black"/>
<path d="M8.41326 27.3291H8.51845V27.4325H8.41326V27.3291Z" fill="black"/>
<path d="M7.57177 27.3291H7.67696V27.4325H7.57177L7.57177 27.3291Z" fill="black"/>
<path d="M7.46659 27.3291H7.57177L7.57177 27.4325H7.46659V27.3291Z" fill="black"/>
<path d="M7.15103 27.3291H7.25622V27.4325H7.15103V27.3291Z" fill="black"/>
<path d="M6.73028 27.3291H6.83547V27.4325H6.73028V27.3291Z" fill="black"/>
<path d="M6.6251 27.3291H6.73028V27.4325H6.6251V27.3291Z" fill="black"/>
<path d="M6.51991 27.3291H6.6251V27.4325H6.51991V27.3291Z" fill="black"/>
<path d="M6.20435 27.3291H6.30954V27.4325H6.20435V27.3291Z" fill="black"/>
<path d="M6.09917 27.3291H6.20435V27.4325H6.09917V27.3291Z" fill="black"/>
<path d="M9.46513 27.4325H9.57031V27.5359H9.46513V27.4325Z" fill="black"/>
<path d="M9.14957 27.4325H9.25475V27.5359H9.14957V27.4325Z" fill="black"/>
<path d="M8.72882 27.4325H8.83401V27.5359H8.72882V27.4325Z" fill="black"/>
<path d="M8.51845 27.4325H8.62364V27.5359H8.51845V27.4325Z" fill="black"/>
<path d="M8.30808 27.4325L8.41326 27.4325V27.5359H8.30808V27.4325Z" fill="black"/>
<path d="M7.99252 27.4325H8.0977V27.5359H7.99252V27.4325Z" fill="black"/>
<path d="M7.3614 27.4325L7.46659 27.4325V27.5359H7.3614V27.4325Z" fill="black"/>
<path d="M7.15103 27.4325H7.25622V27.5359H7.15103V27.4325Z" fill="black"/>
<path d="M6.94066 27.4325H7.04584V27.5359H6.94066V27.4325Z" fill="black"/>
<path d="M6.83547 27.4325L6.94066 27.4325V27.5359H6.83547V27.4325Z" fill="black"/>
<path d="M6.73028 27.4325H6.83547V27.5359H6.73028V27.4325Z" fill="black"/>
<path d="M6.6251 27.4325H6.73028V27.5359H6.6251V27.4325Z" fill="black"/>
<path d="M6.51991 27.4325H6.6251V27.5359H6.51991V27.4325Z" fill="black"/>
<path d="M6.41472 27.4325L6.51991 27.4325V27.5359H6.41472V27.4325Z" fill="black"/>
<path d="M6.09917 27.4325H6.20435V27.5359H6.09917V27.4325Z" fill="black"/>
<path d="M9.46513 27.5359H9.57031V27.6393H9.46513V27.5359Z" fill="black"/>
<path d="M9.35994 27.5359H9.46513V27.6393H9.35994V27.5359Z" fill="black"/>
<path d="M8.83401 27.5359H8.93919V27.6393H8.83401V27.5359Z" fill="black"/>
<path d="M8.51845 27.5359H8.62364V27.6393H8.51845V27.5359Z" fill="black"/>
<path d="M8.20289 27.5359H8.30808V27.6393H8.20289V27.5359Z" fill="black"/>
<path d="M8.0977 27.5359H8.20289V27.6393H8.0977V27.5359Z" fill="black"/>
<path d="M7.99252 27.5359H8.0977V27.6393H7.99252V27.5359Z" fill="black"/>
<path d="M7.78215 27.5359H7.88733V27.6393H7.78215V27.5359Z" fill="black"/>
<path d="M7.67696 27.5359H7.78215V27.6393H7.67696V27.5359Z" fill="black"/>
<path d="M7.46659 27.5359H7.57177V27.6393H7.46659V27.5359Z" fill="black"/>
<path d="M7.25622 27.5359H7.3614V27.6393H7.25622V27.5359Z" fill="black"/>
<path d="M7.15103 27.5359H7.25622V27.6393H7.15103V27.5359Z" fill="black"/>
<path d="M7.04584 27.5359H7.15103V27.6393H7.04584V27.5359Z" fill="black"/>
<path d="M6.94066 27.5359H7.04584V27.6393H6.94066V27.5359Z" fill="black"/>
<path d="M6.6251 27.5359H6.73028V27.6393H6.6251V27.5359Z" fill="black"/>
<path d="M6.30954 27.5359H6.41472V27.6393H6.30954V27.5359Z" fill="black"/>
<path d="M6.20435 27.5359H6.30954V27.6393H6.20435V27.5359Z" fill="black"/>
<path d="M9.46513 27.6393H9.57031V27.7427H9.46513V27.6393Z" fill="black"/>
<path d="M9.14957 27.6393H9.25475V27.7427H9.14957V27.6393Z" fill="black"/>
<path d="M9.04438 27.6393H9.14957V27.7427H9.04438V27.6393Z" fill="black"/>
<path d="M8.62364 27.6393H8.72882V27.7427H8.62364V27.6393Z" fill="black"/>
<path d="M8.41326 27.6393H8.51845V27.7427H8.41326V27.6393Z" fill="black"/>
<path d="M8.30808 27.6393H8.41326V27.7427H8.30808V27.6393Z" fill="black"/>
<path d="M8.20289 27.6393H8.30808V27.7427H8.20289V27.6393Z" fill="black"/>
<path d="M8.0977 27.6393H8.20289V27.7427H8.0977V27.6393Z" fill="black"/>
<path d="M7.88733 27.6393H7.99252V27.7427H7.88733V27.6393Z" fill="black"/>
<path d="M7.78215 27.6393H7.88733V27.7427H7.78215V27.6393Z" fill="black"/>
<path d="M7.57177 27.6393H7.67696V27.7427H7.57177L7.57177 27.6393Z" fill="black"/>
<path d="M7.15103 27.6393H7.25622V27.7427H7.15103V27.6393Z" fill="black"/>
<path d="M6.83547 27.6393H6.94066V27.7427H6.83547V27.6393Z" fill="black"/>
<path d="M6.73028 27.6393H6.83547V27.7427H6.73028V27.6393Z" fill="black"/>
<path d="M6.30954 27.6393H6.41472V27.7427H6.30954V27.6393Z" fill="black"/>
<path d="M6.09917 27.6393H6.20435V27.7427H6.09917V27.6393Z" fill="black"/>
<path d="M9.04438 27.7427H9.14957V27.8462H9.04438V27.7427Z" fill="black"/>
<path d="M8.83401 27.7427H8.93919V27.8462H8.83401V27.7427Z" fill="black"/>
<path d="M8.41326 27.7427H8.51845V27.8462H8.41326V27.7427Z" fill="black"/>
<path d="M8.30808 27.7427H8.41326V27.8462H8.30808V27.7427Z" fill="black"/>
<path d="M8.20289 27.7427H8.30808V27.8462H8.20289V27.7427Z" fill="black"/>
<path d="M7.99252 27.7427H8.0977V27.8462H7.99252V27.7427Z" fill="black"/>
<path d="M7.88733 27.7427H7.99252V27.8462H7.88733V27.7427Z" fill="black"/>
<path d="M7.78215 27.7427H7.88733V27.8462H7.78215V27.7427Z" fill="black"/>
<path d="M7.67696 27.7427H7.78215V27.8462H7.67696V27.7427Z" fill="black"/>
<path d="M7.46659 27.7427H7.57177L7.57177 27.8462H7.46659V27.7427Z" fill="black"/>
<path d="M7.3614 27.7427H7.46659V27.8462H7.3614V27.7427Z" fill="black"/>
<path d="M7.25622 27.7427H7.3614V27.8462H7.25622V27.7427Z" fill="black"/>
<path d="M7.15103 27.7427H7.25622V27.8462H7.15103V27.7427Z" fill="black"/>
<path d="M7.04584 27.7427H7.15103V27.8462H7.04584V27.7427Z" fill="black"/>
<path d="M6.94066 27.7427H7.04584V27.8462H6.94066V27.7427Z" fill="black"/>
<path d="M6.51991 27.7427H6.6251V27.8462H6.51991V27.7427Z" fill="black"/>
<path d="M6.41472 27.7427H6.51991V27.8462H6.41472V27.7427Z" fill="black"/>
<path d="M6.30954 27.7427H6.41472V27.8462H6.30954V27.7427Z" fill="black"/>
<path d="M6.20435 27.7427H6.30954V27.8462H6.20435V27.7427Z" fill="black"/>
<path d="M6.09917 27.7427H6.20435V27.8462H6.09917V27.7427Z" fill="black"/>
<path d="M9.46513 27.8462H9.57031V27.9496H9.46513V27.8462Z" fill="black"/>
<path d="M9.35994 27.8462H9.46513V27.9496H9.35994V27.8462Z" fill="black"/>
<path d="M9.25475 27.8462H9.35994V27.9496H9.25475V27.8462Z" fill="black"/>
<path d="M9.14957 27.8462H9.25475V27.9496H9.14957V27.8462Z" fill="black"/>
<path d="M9.04438 27.8462H9.14957V27.9496H9.04438V27.8462Z" fill="black"/>
<path d="M8.93919 27.8462H9.04438V27.9496H8.93919V27.8462Z" fill="black"/>
<path d="M8.62364 27.8462H8.72882V27.9496H8.62364V27.8462Z" fill="black"/>
<path d="M8.51845 27.8462H8.62364V27.9496H8.51845V27.8462Z" fill="black"/>
<path d="M8.41326 27.8462H8.51845V27.9496H8.41326V27.8462Z" fill="black"/>
<path d="M8.30808 27.8462H8.41326V27.9496H8.30808V27.8462Z" fill="black"/>
<path d="M8.20289 27.8462H8.30808V27.9496H8.20289V27.8462Z" fill="black"/>
<path d="M8.0977 27.8462H8.20289V27.9496H8.0977V27.8462Z" fill="black"/>
<path d="M7.88733 27.8462H7.99252V27.9496H7.88733V27.8462Z" fill="black"/>
<path d="M7.67696 27.8462H7.78215V27.9496H7.67696V27.8462Z" fill="black"/>
<path d="M7.46659 27.8462H7.57177V27.9496H7.46659V27.8462Z" fill="black"/>
<path d="M7.25622 27.8462H7.3614V27.9496H7.25622V27.8462Z" fill="black"/>
<path d="M7.15103 27.8462H7.25622V27.9496H7.15103V27.8462Z" fill="black"/>
<path d="M6.94066 27.8462H7.04584V27.9496H6.94066V27.8462Z" fill="black"/>
<path d="M6.73028 27.8462H6.83547V27.9496H6.73028V27.8462Z" fill="black"/>
<path d="M6.6251 27.8462H6.73028V27.9496H6.6251V27.8462Z" fill="black"/>
<path d="M6.51991 27.8462H6.6251V27.9496H6.51991V27.8462Z" fill="black"/>
<path d="M6.20435 27.8462H6.30954V27.9496H6.20435V27.8462Z" fill="black"/>
<path d="M6.09917 27.8462H6.20435V27.9496H6.09917V27.8462Z" fill="black"/>
<path d="M9.25475 27.9496H9.35994V28.053H9.25475V27.9496Z" fill="black"/>
<path d="M9.14957 27.9496H9.25475V28.053H9.14957V27.9496Z" fill="black"/>
<path d="M9.04438 27.9496H9.14957V28.053H9.04438V27.9496Z" fill="black"/>
<path d="M8.83401 27.9496H8.93919V28.053H8.83401V27.9496Z" fill="black"/>
<path d="M8.72882 27.9496H8.83401V28.053H8.72882V27.9496Z" fill="black"/>
<path d="M8.41326 27.9496H8.51845V28.053H8.41326V27.9496Z" fill="black"/>
<path d="M8.30808 27.9496H8.41326V28.053H8.30808V27.9496Z" fill="black"/>
<path d="M8.20289 27.9496H8.30808V28.053H8.20289V27.9496Z" fill="black"/>
<path d="M7.67696 27.9496H7.78215V28.053H7.67696V27.9496Z" fill="black"/>
<path d="M7.57177 27.9496H7.67696V28.053H7.57177L7.57177 27.9496Z" fill="black"/>
<path d="M7.15103 27.9496H7.25622V28.053H7.15103V27.9496Z" fill="black"/>
<path d="M6.94066 27.9496H7.04584V28.053H6.94066V27.9496Z" fill="black"/>
<path d="M6.83547 27.9496H6.94066V28.053H6.83547V27.9496Z" fill="black"/>
<path d="M6.73028 27.9496H6.83547V28.053H6.73028V27.9496Z" fill="black"/>
<path d="M6.6251 27.9496H6.73028V28.053H6.6251V27.9496Z" fill="black"/>
<path d="M6.51991 27.9496H6.6251V28.053H6.51991V27.9496Z" fill="black"/>
<path d="M6.41472 27.9496H6.51991V28.053H6.41472V27.9496Z" fill="black"/>
<path d="M6.20435 27.9496H6.30954V28.053H6.20435V27.9496Z" fill="black"/>
<path d="M8.41326 28.053H8.51845V28.1564H8.41326V28.053Z" fill="black"/>
<path d="M8.30808 28.053H8.41326V28.1564H8.30808V28.053Z" fill="black"/>
<path d="M8.20289 28.053H8.30808V28.1564H8.20289V28.053Z" fill="black"/>
<path d="M7.88733 28.053H7.99252V28.1564H7.88733V28.053Z" fill="black"/>
<path d="M7.78215 28.053H7.88733V28.1564H7.78215V28.053Z" fill="black"/>
<path d="M7.67696 28.053H7.78215V28.1564H7.67696V28.053Z" fill="black"/>
<path d="M7.57177 28.053H7.67696V28.1564H7.57177V28.053Z" fill="black"/>
<path d="M7.46659 28.053H7.57177V28.1564H7.46659V28.053Z" fill="black"/>
<path d="M7.15103 28.053H7.25622V28.1564H7.15103V28.053Z" fill="black"/>
<path d="M7.04584 28.053H7.15103V28.1564H7.04584V28.053Z" fill="black"/>
<path d="M6.94066 28.053H7.04584V28.1564H6.94066V28.053Z" fill="black"/>
<path d="M6.51991 28.053H6.6251V28.1564H6.51991V28.053Z" fill="black"/>
<path d="M6.20435 28.053H6.30954V28.1564H6.20435V28.053Z" fill="black"/>
<path d="M9.46513 28.1564H9.57031V28.2598H9.46513V28.1564Z" fill="black"/>
<path d="M9.35994 28.1564H9.46513V28.2598H9.35994V28.1564Z" fill="black"/>
<path d="M9.25475 28.1564H9.35994V28.2598H9.25475V28.1564Z" fill="black"/>
<path d="M9.14957 28.1564H9.25475V28.2598H9.14957V28.1564Z" fill="black"/>
<path d="M9.04438 28.1564H9.14957V28.2598H9.04438V28.1564Z" fill="black"/>
<path d="M8.93919 28.1564H9.04438V28.2598H8.93919V28.1564Z" fill="black"/>
<path d="M8.83401 28.1564H8.93919V28.2598H8.83401V28.1564Z" fill="black"/>
<path d="M8.62364 28.1564H8.72882V28.2598H8.62364V28.1564Z" fill="black"/>
<path d="M8.51845 28.1564H8.62364V28.2598H8.51845V28.1564Z" fill="black"/>
<path d="M7.99252 28.1564H8.0977V28.2598H7.99252V28.1564Z" fill="black"/>
<path d="M7.88733 28.1564H7.99252V28.2598H7.88733V28.1564Z" fill="black"/>
<path d="M7.78215 28.1564H7.88733V28.2598H7.78215V28.1564Z" fill="black"/>
<path d="M7.67696 28.1564H7.78215V28.2598H7.67696V28.1564Z" fill="black"/>
<path d="M7.57177 28.1564H7.67696V28.2598H7.57177V28.1564Z" fill="black"/>
<path d="M7.25622 28.1564H7.3614V28.2598H7.25622V28.1564Z" fill="black"/>
<path d="M7.15103 28.1564H7.25622V28.2598H7.15103V28.1564Z" fill="black"/>
<path d="M6.94066 28.1564H7.04584V28.2598H6.94066V28.1564Z" fill="black"/>
<path d="M6.73028 28.1564H6.83547V28.2598H6.73028V28.1564Z" fill="black"/>
<path d="M6.51991 28.1564H6.6251V28.2598H6.51991V28.1564Z" fill="black"/>
<path d="M6.30954 28.1564H6.41472V28.2598H6.30954V28.1564Z" fill="black"/>
<path d="M6.20435 28.1564H6.30954V28.2598H6.20435V28.1564Z" fill="black"/>
<path d="M6.09917 28.1564H6.20435V28.2598H6.09917V28.1564Z" fill="black"/>
<path d="M9.46513 28.2598H9.57031V28.3632H9.46513V28.2598Z" fill="black"/>
<path d="M8.83401 28.2598H8.93919V28.3632H8.83401V28.2598Z" fill="black"/>
<path d="M8.51845 28.2598H8.62364V28.3632H8.51845V28.2598Z" fill="black"/>
<path d="M8.41326 28.2598H8.51845V28.3632H8.41326V28.2598Z" fill="black"/>
<path d="M8.30808 28.2598H8.41326V28.3632H8.30808V28.2598Z" fill="black"/>
<path d="M8.20289 28.2598H8.30808V28.3632H8.20289V28.2598Z" fill="black"/>
<path d="M8.0977 28.2598H8.20289V28.3632H8.0977V28.2598Z" fill="black"/>
<path d="M7.99252 28.2598H8.0977V28.3632H7.99252V28.2598Z" fill="black"/>
<path d="M7.57177 28.2598H7.67696V28.3632H7.57177V28.2598Z" fill="black"/>
<path d="M7.25622 28.2598H7.3614V28.3632H7.25622V28.2598Z" fill="black"/>
<path d="M7.04584 28.2598H7.15103V28.3632H7.04584V28.2598Z" fill="black"/>
<path d="M6.94066 28.2598H7.04584V28.3632H6.94066V28.2598Z" fill="black"/>
<path d="M6.51991 28.2598H6.6251V28.3632H6.51991V28.2598Z" fill="black"/>
<path d="M6.41472 28.2598H6.51991V28.3632H6.41472V28.2598Z" fill="black"/>
<path d="M6.30954 28.2598H6.41472V28.3632H6.30954V28.2598Z" fill="black"/>
<path d="M6.20435 28.2598H6.30954V28.3632H6.20435V28.2598Z" fill="black"/>
<path d="M9.46513 28.3632H9.57031V28.4666H9.46513V28.3632Z" fill="black"/>
<path d="M9.25475 28.3632H9.35994V28.4666H9.25475V28.3632Z" fill="black"/>
<path d="M9.14957 28.3632H9.25475V28.4666H9.14957V28.3632Z" fill="black"/>
<path d="M9.04438 28.3632H9.14957V28.4666H9.04438V28.3632Z" fill="black"/>
<path d="M8.83401 28.3632H8.93919V28.4666H8.83401V28.3632Z" fill="black"/>
<path d="M8.41326 28.3632H8.51845V28.4666H8.41326V28.3632Z" fill="black"/>
<path d="M8.20289 28.3632H8.30808V28.4666H8.20289V28.3632Z" fill="black"/>
<path d="M7.88733 28.3632H7.99252V28.4666H7.88733V28.3632Z" fill="black"/>
<path d="M7.78215 28.3632H7.88733V28.4666H7.78215V28.3632Z" fill="black"/>
<path d="M7.67696 28.3632H7.78215V28.4666H7.67696V28.3632Z" fill="black"/>
<path d="M7.57177 28.3632H7.67696V28.4666H7.57177V28.3632Z" fill="black"/>
<path d="M7.46659 28.3632H7.57177V28.4666H7.46659V28.3632Z" fill="black"/>
<path d="M7.04584 28.3632H7.15103V28.4666H7.04584V28.3632Z" fill="black"/>
<path d="M6.94066 28.3632H7.04584V28.4666H6.94066V28.3632Z" fill="black"/>
<path d="M6.83547 28.3632H6.94066V28.4666H6.83547V28.3632Z" fill="black"/>
<path d="M6.73028 28.3632H6.83547V28.4666H6.73028V28.3632Z" fill="black"/>
<path d="M6.6251 28.3632H6.73028V28.4666H6.6251V28.3632Z" fill="black"/>
<path d="M6.51991 28.3632H6.6251V28.4666H6.51991V28.3632Z" fill="black"/>
<path d="M6.20435 28.3632H6.30954V28.4666H6.20435V28.3632Z" fill="black"/>
<path d="M6.09917 28.3632H6.20435V28.4666H6.09917V28.3632Z" fill="black"/>
<path d="M9.46513 28.4666H9.57031V28.57H9.46513V28.4666Z" fill="black"/>
<path d="M9.25475 28.4666H9.35994V28.57H9.25475V28.4666Z" fill="black"/>
<path d="M9.14957 28.4666H9.25475V28.57H9.14957V28.4666Z" fill="black"/>
<path d="M9.04438 28.4666H9.14957V28.57H9.04438V28.4666Z" fill="black"/>
<path d="M8.83401 28.4666H8.93919V28.57H8.83401V28.4666Z" fill="black"/>
<path d="M8.62364 28.4666H8.72882V28.57H8.62364V28.4666Z" fill="black"/>
<path d="M8.51845 28.4666H8.62364V28.57H8.51845V28.4666Z" fill="black"/>
<path d="M8.41326 28.4666H8.51845V28.57H8.41326V28.4666Z" fill="black"/>
<path d="M8.30808 28.4666H8.41326V28.57H8.30808V28.4666Z" fill="black"/>
<path d="M8.20289 28.4666H8.30808V28.57H8.20289V28.4666Z" fill="black"/>
<path d="M7.99252 28.4666H8.0977V28.57H7.99252V28.4666Z" fill="black"/>
<path d="M7.88733 28.4666H7.99252V28.57H7.88733V28.4666Z" fill="black"/>
<path d="M7.67696 28.4666H7.78215V28.57H7.67696V28.4666Z" fill="black"/>
<path d="M7.3614 28.4666H7.46659V28.57H7.3614V28.4666Z" fill="black"/>
<path d="M7.25622 28.4666H7.3614V28.57H7.25622V28.4666Z" fill="black"/>
<path d="M7.04584 28.4666H7.15103V28.57H7.04584V28.4666Z" fill="black"/>
<path d="M6.83547 28.4666H6.94066V28.57H6.83547V28.4666Z" fill="black"/>
<path d="M6.6251 28.4666H6.73028V28.57H6.6251V28.4666Z" fill="black"/>
<path d="M6.41472 28.4666H6.51991V28.57H6.41472V28.4666Z" fill="black"/>
<path d="M6.09917 28.4666H6.20435V28.57H6.09917V28.4666Z" fill="black"/>
<path d="M9.46513 28.57H9.57031V28.6734H9.46513V28.57Z" fill="black"/>
<path d="M9.25475 28.57H9.35994V28.6734H9.25475V28.57Z" fill="black"/>
<path d="M9.14957 28.57H9.25475V28.6734H9.14957V28.57Z" fill="black"/>
<path d="M9.04438 28.57H9.14957V28.6734H9.04438V28.57Z" fill="black"/>
<path d="M8.83401 28.57H8.93919V28.6734H8.83401V28.57Z" fill="black"/>
<path d="M8.51845 28.57H8.62364V28.6734H8.51845V28.57Z" fill="black"/>
<path d="M8.0977 28.57H8.20289V28.6734H8.0977V28.57Z" fill="black"/>
<path d="M7.99252 28.57H8.0977V28.6734H7.99252V28.57Z" fill="black"/>
<path d="M7.88733 28.57H7.99252V28.6734H7.88733V28.57Z" fill="black"/>
<path d="M7.78215 28.57H7.88733V28.6734H7.78215V28.57Z" fill="black"/>
<path d="M7.57177 28.57H7.67696V28.6734H7.57177V28.57Z" fill="black"/>
<path d="M7.3614 28.57H7.46659V28.6734H7.3614V28.57Z" fill="black"/>
<path d="M7.25622 28.57H7.3614V28.6734H7.25622V28.57Z" fill="black"/>
<path d="M6.6251 28.57H6.73028V28.6734H6.6251V28.57Z" fill="black"/>
<path d="M6.51991 28.57H6.6251V28.6734H6.51991V28.57Z" fill="black"/>
<path d="M6.41472 28.57H6.51991V28.6734H6.41472V28.57Z" fill="black"/>
<path d="M6.09917 28.57H6.20435V28.6734H6.09917V28.57Z" fill="black"/>
<path d="M9.46513 28.6734H9.57031V28.7768H9.46513V28.6734Z" fill="black"/>
<path d="M8.83401 28.6734H8.93919V28.7768H8.83401V28.6734Z" fill="black"/>
<path d="M8.62364 28.6734H8.72882V28.7768H8.62364V28.6734Z" fill="black"/>
<path d="M8.41326 28.6734H8.51845V28.7768H8.41326V28.6734Z" fill="black"/>
<path d="M8.0977 28.6734H8.20289V28.7768H8.0977V28.6734Z" fill="black"/>
<path d="M7.67696 28.6734H7.78215V28.7768H7.67696V28.6734Z" fill="black"/>
<path d="M7.57177 28.6734H7.67696V28.7768H7.57177V28.6734Z" fill="black"/>
<path d="M7.46659 28.6734H7.57177V28.7768H7.46659V28.6734Z" fill="black"/>
<path d="M7.3614 28.6734H7.46659V28.7768H7.3614V28.6734Z" fill="black"/>
<path d="M7.15103 28.6734H7.25622V28.7768H7.15103V28.6734Z" fill="black"/>
<path d="M6.6251 28.6734H6.73028V28.7768H6.6251V28.6734Z" fill="black"/>
<path d="M6.41472 28.6734H6.51991V28.7768H6.41472V28.6734Z" fill="black"/>
<path d="M9.46513 28.7768H9.57031V28.8802H9.46513V28.7768Z" fill="black"/>
<path d="M9.35994 28.7768H9.46513V28.8802H9.35994V28.7768Z" fill="black"/>
<path d="M9.25475 28.7768H9.35994V28.8802H9.25475V28.7768Z" fill="black"/>
<path d="M9.14957 28.7768H9.25475V28.8802H9.14957V28.7768Z" fill="black"/>
<path d="M9.04438 28.7768H9.14957V28.8802H9.04438V28.7768Z" fill="black"/>
<path d="M8.93919 28.7768H9.04438V28.8802H8.93919V28.7768Z" fill="black"/>
<path d="M8.83401 28.7768H8.93919V28.8802H8.83401V28.7768Z" fill="black"/>
<path d="M8.62364 28.7768H8.72882V28.8802H8.62364V28.7768Z" fill="black"/>
<path d="M8.51845 28.7768H8.62364V28.8802H8.51845V28.7768Z" fill="black"/>
<path d="M8.41326 28.7768H8.51845V28.8802H8.41326V28.7768Z" fill="black"/>
<path d="M8.30808 28.7768H8.41326V28.8802H8.30808V28.7768Z" fill="black"/>
<path d="M7.67696 28.7768H7.78215V28.8802H7.67696V28.7768Z" fill="black"/>
<path d="M7.25622 28.7768H7.3614V28.8802H7.25622V28.7768Z" fill="black"/>
<path d="M7.15103 28.7768H7.25622V28.8802H7.15103V28.7768Z" fill="black"/>
<path d="M7.04584 28.7768H7.15103V28.8802H7.04584V28.7768Z" fill="black"/>
<path d="M6.94066 28.7768H7.04584V28.8802H6.94066V28.7768Z" fill="black"/>
<path d="M6.51991 28.7768H6.6251V28.8802H6.51991V28.7768Z" fill="black"/>
<path d="M6.41472 28.7768H6.51991V28.8802H6.41472V28.7768Z" fill="black"/>
<path d="M6.20435 28.7768H6.30954V28.8802H6.20435V28.7768Z" fill="black"/>
</g>
<path d="M1 12.5V7H6.35897" stroke="black"/>
<path d="M39 12.5V7H33.641" stroke="black"/>
<path d="M1 27V32.5H6.35897" stroke="black"/>
<path d="M39 27V32.5H33.641" stroke="black"/>
<defs>
<linearGradient id="paint0_linear_4183_8416" x1="8.98708" y1="13.9978" x2="33.3658" y2="14.6747" gradientUnits="userSpaceOnUse">
<stop offset="0.0309998" stop-color="#E3E3E3"/>
<stop offset="1" stop-color="#D7AC2A"/>
</linearGradient>
<clipPath id="clip0_4183_8416">
<rect width="3.89189" height="3.82609" fill="white" transform="matrix(-1 0 0 1 9.78125 25.261)"/>
</clipPath>
</defs>
</svg>
