<svg width="24" height="25" viewBox="0 0 24 25" fill="none" xmlns="http://www.w3.org/2000/svg">
<path d="M14 16.625H19V21.625M10 8.625H5.00003V3.625M19.418 9.628C18.8574 8.24019 17.9186 7.03751 16.7084 6.15666C15.4983 5.27582 14.0653 4.75214 12.5723 4.64516C11.0793 4.53818 9.5863 4.85218 8.26291 5.55148C6.93952 6.25077 5.83886 7.30731 5.08603 8.601M4.58203 15.622C5.14283 17.0096 6.0816 18.212 7.29166 19.0926C8.50172 19.9733 9.93455 20.4968 11.4273 20.6038C12.9201 20.7108 14.4129 20.3969 15.7362 19.6978C17.0595 18.9987 18.1601 17.9424 18.913 16.649" stroke="#003B70" stroke-width="2" stroke-linecap="round" stroke-linejoin="round"/>
</svg>
