<svg width="21" height="20" viewBox="0 0 21 20" fill="none" xmlns="http://www.w3.org/2000/svg">
<path fill-rule="evenodd" clip-rule="evenodd" d="M10.666 20C16.1889 20 20.666 15.5228 20.666 10C20.666 4.47715 16.1889 0 10.666 0C5.14317 0 0.666016 4.47715 0.666016 10C0.666016 15.5228 5.14317 20 10.666 20ZM15.3731 10.7071L11.3731 14.7071C10.9826 15.0976 10.3494 15.0976 9.95891 14.7071C9.56838 14.3166 9.56838 13.6834 9.95891 13.2929L12.2518 11L6.66602 11C6.11373 11 5.66602 10.5523 5.66602 10C5.66602 9.44771 6.11373 9 6.66602 9L12.2518 9L9.95891 6.70711C9.56838 6.31658 9.56838 5.68342 9.95891 5.29289C10.3494 4.90237 10.9826 4.90237 11.3731 5.29289L15.3731 9.29289C15.7636 9.68342 15.7636 10.3166 15.3731 10.7071Z" fill="#E17C00"/>
</svg>
