<svg width="24" height="25" viewBox="0 0 24 25" fill="none" xmlns="http://www.w3.org/2000/svg">
<path fill-rule="evenodd" clip-rule="evenodd" d="M7.7587 4.66406H16.2413C17.0463 4.66405 17.7106 4.66404 18.2518 4.70826C18.8139 4.75418 19.3306 4.85275 19.816 5.10004C20.5686 5.48353 21.1805 6.09545 21.564 6.8481C21.8113 7.33344 21.9099 7.85014 21.9558 8.41224C22 8.95343 22 9.61778 22 10.4227V14.9054C22 15.7103 22 16.3747 21.9558 16.9159C21.9099 17.478 21.8113 17.9947 21.564 18.48C21.1805 19.2327 20.5686 19.8446 19.816 20.2281C19.3306 20.4754 18.8139 20.5739 18.2518 20.6199C17.7106 20.6641 17.0463 20.6641 16.2413 20.6641H7.75872C6.95374 20.6641 6.28938 20.6641 5.74817 20.6199C5.18608 20.5739 4.66937 20.4754 4.18404 20.2281C3.43139 19.8446 2.81947 19.2327 2.43597 18.48C2.18868 17.9947 2.09012 17.478 2.04419 16.9159C1.99998 16.3747 1.99999 15.7103 2 14.9054V10.4228C1.99999 9.61779 1.99998 8.95343 2.04419 8.41224C2.09012 7.85014 2.18868 7.33344 2.43597 6.8481C2.81947 6.09545 3.43139 5.48353 4.18404 5.10004C4.66937 4.85275 5.18608 4.75418 5.74817 4.70826C6.28937 4.66404 6.95373 4.66405 7.7587 4.66406ZM5.91104 6.70161C5.47262 6.73743 5.24842 6.80236 5.09202 6.88205C4.7157 7.0738 4.40973 7.37976 4.21799 7.75608C4.1383 7.91248 4.07337 8.13669 4.03755 8.5751C4.00078 9.02519 4 9.60748 4 10.4641V14.8641C4 15.7206 4.00078 16.3029 4.03755 16.753C4.07337 17.1914 4.1383 17.4156 4.21799 17.572C4.40973 17.9484 4.7157 18.2543 5.09202 18.4461C5.24842 18.5258 5.47262 18.5907 5.91104 18.6265C6.36113 18.6633 6.94342 18.6641 7.8 18.6641H16.2C17.0566 18.6641 17.6389 18.6633 18.089 18.6265C18.5274 18.5907 18.7516 18.5258 18.908 18.4461C19.2843 18.2543 19.5903 17.9484 19.782 17.572C19.8617 17.4156 19.9266 17.1914 19.9624 16.753C19.9992 16.3029 20 15.7206 20 14.8641V10.4641C20 9.60748 19.9992 9.02519 19.9624 8.5751C19.9266 8.13669 19.8617 7.91248 19.782 7.75608C19.5903 7.37976 19.2843 7.0738 18.908 6.88205C18.7516 6.80236 18.5274 6.73743 18.089 6.70161C17.6389 6.66484 17.0566 6.66406 16.2 6.66406H7.8C6.94342 6.66406 6.36113 6.66484 5.91104 6.70161Z" fill="black"/>
<path fill-rule="evenodd" clip-rule="evenodd" d="M6.17548 9.09847C6.4879 8.64304 7.11036 8.52712 7.56578 8.83954L11.4344 11.4934C11.7753 11.7273 12.2249 11.7273 12.5658 11.4934L16.4344 8.83954C16.8898 8.52712 17.5123 8.64304 17.8247 9.09847C18.1371 9.55389 18.0212 10.1764 17.5658 10.4888L13.6972 13.1427C12.6745 13.8442 11.3257 13.8442 10.303 13.1427L6.43441 10.4888C5.97898 10.1764 5.86305 9.55389 6.17548 9.09847Z" fill="black"/>
</svg>
