<svg width="16" height="16" viewBox="0 0 16 16" fill="none" xmlns="http://www.w3.org/2000/svg">
<path fill-rule="evenodd" clip-rule="evenodd" d="M1.33331 8.00004C1.33331 4.31814 4.31808 1.33337 7.99998 1.33337C11.6819 1.33337 14.6666 4.31814 14.6666 8.00004C14.6666 11.6819 11.6819 14.6667 7.99998 14.6667C4.31808 14.6667 1.33331 11.6819 1.33331 8.00004ZM10.4714 7.13811C10.7317 6.87776 10.7317 6.45565 10.4714 6.1953C10.211 5.93495 9.78893 5.93495 9.52858 6.1953L7.33331 8.39057L6.47138 7.52864C6.21103 7.26829 5.78892 7.26829 5.52858 7.52864C5.26823 7.78899 5.26823 8.2111 5.52858 8.47145L6.86191 9.80478C7.12226 10.0651 7.54437 10.0651 7.80472 9.80478L10.4714 7.13811Z" fill="#2EB34F"/>
</svg>
