<svg width="24" height="25" viewBox="0 0 24 25" fill="none" xmlns="http://www.w3.org/2000/svg">
<path fill-rule="evenodd" clip-rule="evenodd" d="M3.79289 11.9179C4.18342 11.5274 4.81658 11.5274 5.20711 11.9179L10.2071 16.9179C10.5976 17.3084 10.5976 17.9416 10.2071 18.3321C9.81658 18.7226 9.18342 18.7226 8.79289 18.3321L3.79289 13.3321C3.40237 12.9416 3.40237 12.3084 3.79289 11.9179Z" fill="#2EB34F"/>
<path fill-rule="evenodd" clip-rule="evenodd" d="M20.2071 6.91789C20.5976 7.30842 20.5976 7.94158 20.2071 8.33211L10.2071 18.3321C9.81658 18.7226 9.18342 18.7226 8.79289 18.3321C8.40237 17.9416 8.40237 17.3084 8.79289 16.9179L18.7929 6.91789C19.1834 6.52737 19.8166 6.52737 20.2071 6.91789Z" fill="#2EB34F"/>
</svg>
