<svg width="64" height="64" viewBox="0 0 64 64" fill="none" xmlns="http://www.w3.org/2000/svg">
<rect x="7" y="7" width="50" height="50" rx="8" fill="#E5F1FF"/>
<path d="M16.1611 40.9425C21.9075 35.1961 24.7807 30.599 24.7807 27.1512C24.7807 21.9795 23.0568 21.9795 21.3328 21.9795C19.6089 21.9795 17.8299 23.8499 17.885 27.1512C17.9437 30.6818 20.7433 35.5587 22.1948 37.4946C24.7807 40.9425 26.5046 41.8044 28.2285 39.2185L31.6763 34.0468C32.2509 38.6439 33.9748 40.9425 36.848 40.9425C37.7617 40.9425 41.3974 37.4946 42.0197 37.4946C42.9116 37.4946 44.6355 38.6439 47.1914 40.9425" fill="#E5F1FF"/>
<path d="M16.1611 40.9425C21.9075 35.1961 24.7807 30.599 24.7807 27.1512C24.7807 21.9795 23.0568 21.9795 21.3328 21.9795C19.6089 21.9795 17.8299 23.8499 17.885 27.1512C17.9437 30.6818 20.7433 35.5587 22.1948 37.4946C24.7807 40.9425 26.5046 41.8044 28.2285 39.2186L31.6763 34.0468C32.2509 38.6439 33.9748 40.9425 36.848 40.9425C37.7617 40.9425 41.3974 37.4946 42.0197 37.4946C42.9116 37.4946 44.6355 38.6439 47.1914 40.9425" stroke="#003B70" stroke-width="3" stroke-linecap="round" stroke-linejoin="round"/>
</svg>
