<svg width="24" height="24" viewBox="0 0 24 24" fill="none" xmlns="http://www.w3.org/2000/svg">
<path fill-rule="evenodd" clip-rule="evenodd" d="M6.78014 19.8348C7.97746 19.9958 9.58644 20 12 20C14.4136 20 16.0225 19.9958 17.2199 19.8348C18.3597 19.6815 18.8226 19.42 19.1213 19.1213C19.42 18.8226 19.6815 18.3597 19.8348 17.2199C19.9958 16.0225 20 14.4136 20 12C20 9.58644 19.9958 7.97746 19.8348 6.78014C19.6815 5.64034 19.42 5.17737 19.1213 4.87868C18.8226 4.57998 18.3597 4.31846 17.2199 4.16522C16.0225 4.00425 14.4136 4 12 4C9.58644 4 7.97746 4.00425 6.78014 4.16522C5.64034 4.31846 5.17737 4.57998 4.87868 4.87868C4.57998 5.17737 4.31846 5.64034 4.16522 6.78014C4.00425 7.97746 4 9.58644 4 12C4 14.4136 4.00425 16.0225 4.16522 17.2199C4.31846 18.3597 4.57998 18.8226 4.87868 19.1213C5.17737 19.42 5.64034 19.6815 6.78014 19.8348ZM3.46447 3.46447C2 4.92893 2 7.28595 2 12C2 16.714 2 19.0711 3.46447 20.5355C4.92893 22 7.28595 22 12 22C16.714 22 19.0711 22 20.5355 20.5355C22 19.0711 22 16.714 22 12C22 7.28595 22 4.92893 20.5355 3.46447C19.0711 2 16.714 2 12 2C7.28595 2 4.92893 2 3.46447 3.46447Z" fill="#AFB0AB"/>
</svg>
