<svg width="122" height="121" viewBox="0 0 122 121" fill="none" xmlns="http://www.w3.org/2000/svg">
<path d="M69.3509 15.125H52.6491C47.1399 15.125 42.6962 15.1249 39.0978 15.4165C35.3929 15.7167 32.1386 16.351 29.1277 17.8725C24.3453 20.2894 20.457 24.1457 18.0203 28.889C16.4862 31.8751 15.8466 35.1027 15.5439 38.7774C15.2499 42.3462 15.25 46.7534 15.25 52.2175V68.7825C15.25 72.2702 15.2499 75.3274 15.3264 78.0108C15.2039 78.7052 15.2271 79.4266 15.4077 80.1264C15.444 80.8556 15.4888 81.5538 15.5439 82.2227C15.8466 85.8973 16.4862 89.1249 18.0203 92.111C20.457 96.8543 24.3453 100.711 29.1277 103.127C32.1386 104.649 35.3929 105.283 39.0978 105.584C42.6961 105.875 47.1395 105.875 52.6484 105.875H66.0833C68.8908 105.875 71.1667 103.618 71.1667 100.833C71.1667 98.0489 68.8908 95.7917 66.0833 95.7917H52.8667C47.0889 95.7917 43.0613 95.7878 39.9257 95.5337C36.8495 95.2844 35.082 94.8197 33.7433 94.1431C30.8738 92.6931 28.5409 90.3792 27.0788 87.5333C26.4058 86.2232 25.9407 84.4992 25.687 81.5227L32.5434 77.3179C34.9072 75.8682 35.1923 75.7568 35.3897 75.7065C35.7212 75.6219 36.0666 75.6046 36.405 75.6557C36.6064 75.6861 36.9014 75.7684 39.4004 76.9746L42.0862 78.2709L42.5425 78.4919C44.4458 79.4153 46.3588 80.3433 48.4332 80.6145C50.2426 80.851 52.0822 80.6981 53.8268 80.1664C55.8268 79.5567 57.5575 78.326 59.2794 77.1014L59.6923 76.8082L72.4293 67.7886C75.2075 65.8212 75.5605 65.6665 75.7916 65.6054C76.1856 65.5011 76.5991 65.4924 76.9973 65.5799C77.0495 65.5914 77.3414 65.6553 78.6354 66.4593C81.0146 67.9375 84.1515 67.2229 85.6419 64.8633C87.1323 62.5036 86.4118 59.3924 84.0327 57.9142C82.6238 57.0389 81.0764 56.1489 79.1987 55.7358C77.2081 55.2979 75.1404 55.3415 73.1703 55.8629C70.9083 56.4616 68.9482 57.8563 66.9948 59.2461L66.5216 59.5823L53.7846 68.602C51.3489 70.3268 51.0469 70.4649 50.8402 70.5279C50.4913 70.6343 50.1233 70.6649 49.7615 70.6176C49.5471 70.5895 49.2261 70.5031 46.535 69.2043L43.8492 67.9079L43.4265 67.7032C41.6543 66.8437 39.8719 65.9793 37.9334 65.6869C36.2412 65.4317 34.5145 65.5182 32.8569 65.9411C30.9579 66.4256 29.2723 67.4636 27.5964 68.4957L27.1966 68.7416L25.4168 69.8331C25.4167 69.4206 25.4167 68.9986 25.4167 68.5667V52.4333C25.4167 46.703 25.4206 42.7084 25.6768 39.5985C25.9282 36.5474 26.3967 34.7945 27.0788 33.4667C28.5409 30.6208 30.8738 28.3069 33.7433 26.8569C35.082 26.1803 36.8495 25.7156 39.9257 25.4663C43.0613 25.2123 47.0889 25.2083 52.8667 25.2083H69.1333C74.9111 25.2083 78.9387 25.2123 82.0743 25.4663C85.1506 25.7156 86.918 26.1803 88.2567 26.8569C91.1262 28.3069 93.4591 30.6208 94.9212 33.4667C95.6033 34.7945 96.0719 36.5474 96.3232 39.5985C96.5794 42.7084 96.5833 46.703 96.5833 52.4333V60.5C96.5833 63.2844 98.8592 65.5417 101.667 65.5417C104.474 65.5417 106.75 63.2844 106.75 60.5V52.2174C106.75 46.7536 106.75 42.3461 106.456 38.7774C106.153 35.1027 105.514 31.8751 103.98 28.889C101.543 24.1457 97.6547 20.2894 92.8723 17.8725C89.8615 16.351 86.6072 15.7167 82.9022 15.4165C79.3038 15.1249 74.8602 15.125 69.3509 15.125Z" fill="#BACAD9"/>
<path d="M45.75 55.4583C51.3649 55.4583 55.9167 50.9439 55.9167 45.375C55.9167 39.8061 51.3649 35.2917 45.75 35.2917C40.1351 35.2917 35.5833 39.8061 35.5833 45.375C35.5833 50.9439 40.1351 55.4583 45.75 55.4583Z" fill="#BACAD9"/>
<path d="M82.8222 87.185L92.9889 77.1017C94.974 75.1328 98.1926 75.1328 100.178 77.1017L110.344 87.185C112.33 89.1539 112.33 92.3461 110.344 94.315C108.359 96.2839 105.141 96.2839 103.156 94.315L101.667 92.8383V110.917C101.667 113.701 99.3908 115.958 96.5833 115.958C93.7759 115.958 91.5 113.701 91.5 110.917V92.8383L90.0111 94.315C88.026 96.2839 84.8074 96.2839 82.8222 94.315C80.837 92.3461 80.837 89.1539 82.8222 87.185Z" fill="#BACAD9"/>
</svg>
