<svg width="16" height="16" viewBox="0 0 16 16" fill="none" xmlns="http://www.w3.org/2000/svg">
<path fill-rule="evenodd" clip-rule="evenodd" d="M9.78912 3.10639C9.05219 1.63186 6.94802 1.63185 6.21108 3.10638L2.21308 11.1059C1.54848 12.4357 2.51548 14 4.00209 14H11.998C13.4846 14 14.4516 12.4357 13.787 11.1059L9.78912 3.10639ZM7.33333 6C7.33333 5.63181 7.63181 5.33333 8 5.33333C8.36819 5.33333 8.66667 5.63181 8.66667 6V8.66667C8.66667 9.03486 8.36819 9.33333 8 9.33333C7.63181 9.33333 7.33333 9.03486 7.33333 8.66667V6ZM7.33333 10.6667C7.33333 10.2985 7.63181 10 8 10C8.36819 10 8.66667 10.2985 8.66667 10.6667C8.66667 11.0349 8.36819 11.3333 8 11.3333C7.63181 11.3333 7.33333 11.0349 7.33333 10.6667Z" fill="#DED603"/>
</svg>
