<svg width="24" height="24" viewBox="0 0 24 24" fill="none" xmlns="http://www.w3.org/2000/svg">
<path d="M11.9402 21.13C10.4402 21.13 8.93024 20.73 7.60023 19.97L2.74023 21.24L4.01022 16.5C3.20022 15.11 2.80023 13.55 2.80023 11.93C2.80023 6.89998 6.90022 2.73999 11.9302 2.73999C14.4202 2.73999 16.7302 3.71999 18.4602 5.45999C20.1902 7.18999 21.2302 9.50999 21.2302 11.94C21.2502 17.03 17.0302 21.13 11.9402 21.13Z" stroke="black" stroke-width="1.5" stroke-linecap="round" stroke-linejoin="round"/>
<path d="M15.8902 13.93C15.3902 13.23 15.1402 12.87 14.7402 12.78C14.2702 12.68 13.8502 12.92 13.6702 13.04C13.3902 12.99 12.6402 12.8 11.9802 12.15C11.3202 11.5 11.1302 10.76 11.0702 10.48C11.1602 10.29 11.3802 9.80001 11.2102 9.26001C11.0802 8.81001 10.7302 8.58002 10.0602 8.11002C9.90021 8.00002 9.72021 7.89001 9.49021 7.89001C9.23021 7.89001 9.0402 8.03002 8.9502 8.11002L8.17021 8.89001C7.39021 9.71001 8.2502 11.88 10.1802 13.81C12.1102 15.74 14.2802 16.64 15.1002 15.82L15.8802 15.04C15.9602 14.95 16.1002 14.74 16.1002 14.47C16.1002 14.24 16.0002 14.07 15.8902 13.93Z" stroke="black" stroke-width="1.5" stroke-linecap="round" stroke-linejoin="round"/>
</svg>
