<svg width="41" height="47" viewBox="0 0 41 47" fill="none" xmlns="http://www.w3.org/2000/svg">
<g filter="url(#filter0_d_6662_23235)">
<path d="M11 1.375H27C27.0911 1.375 27.1793 1.40228 27.2539 1.45215L27.3232 1.50879L38.1162 12.3018C38.2019 12.3875 38.25 12.5038 38.25 12.625V36.625C38.25 38.4199 36.7949 39.875 35 39.875H11C9.20507 39.875 7.75 38.4199 7.75 36.625V4.625C7.75 2.83007 9.20508 1.375 11 1.375Z" fill="white" stroke="#BEBEBB" stroke-width="1.5"/>
<path d="M27 1.125V8.625C27 10.8341 28.7909 12.625 31 12.625H38.5" stroke="#BEBEBB" stroke-width="1.5"/>
<rect x="14" y="2" width="3" height="3" fill="#BEBEBB"/>
<rect x="17" y="5" width="3" height="3" fill="#BEBEBB"/>
<rect x="14" y="8" width="3" height="3" fill="#BEBEBB"/>
<rect x="17" y="11" width="3" height="3" fill="#BEBEBB"/>
<rect x="14" y="14" width="6" height="3" fill="#BEBEBB"/>
<rect x="3" y="19" width="22" height="16" rx="2" fill="url(#paint0_linear_6662_23235)"/>
<path d="M6.58034 31V30.0874L10.2096 24.995H6.57324V23.7273H12.1414V24.6399L8.50861 29.7322H12.1485V31H6.58034ZM14.866 23.7273V31H13.3284V23.7273H14.866ZM16.1311 31V23.7273H19.0004C19.5521 23.7273 20.022 23.8326 20.4102 24.0433C20.7985 24.2517 21.0944 24.5417 21.298 24.9134C21.504 25.2827 21.607 25.7088 21.607 26.1918C21.607 26.6747 21.5028 27.1009 21.2945 27.4702C21.0861 27.8395 20.7843 28.1271 20.3889 28.3331C19.9959 28.5391 19.5201 28.642 18.9614 28.642H17.1325V27.4098H18.7128C19.0087 27.4098 19.2526 27.3589 19.4443 27.2571C19.6385 27.1529 19.7829 27.0097 19.8776 26.8274C19.9746 26.6428 20.0232 26.4309 20.0232 26.1918C20.0232 25.9503 19.9746 25.7396 19.8776 25.5597C19.7829 25.3774 19.6385 25.2365 19.4443 25.1371C19.2502 25.0353 19.004 24.9844 18.7057 24.9844H17.6688V31H16.1311Z" fill="white"/>
</g>
<defs>
<filter id="filter0_d_6662_23235" x="-2" y="0.625" width="44" height="46" filterUnits="userSpaceOnUse" color-interpolation-filters="sRGB">
<feFlood flood-opacity="0" result="BackgroundImageFix"/>
<feColorMatrix in="SourceAlpha" type="matrix" values="0 0 0 0 0 0 0 0 0 0 0 0 0 0 0 0 0 0 127 0" result="hardAlpha"/>
<feMorphology radius="2" operator="erode" in="SourceAlpha" result="effect1_dropShadow_6662_23235"/>
<feOffset dy="4"/>
<feGaussianBlur stdDeviation="2"/>
<feComposite in2="hardAlpha" operator="out"/>
<feColorMatrix type="matrix" values="0 0 0 0 0.0392157 0 0 0 0 0.0509804 0 0 0 0 0.0705882 0 0 0 0.04 0"/>
<feBlend mode="normal" in2="BackgroundImageFix" result="effect1_dropShadow_6662_23235"/>
<feBlend mode="normal" in="SourceGraphic" in2="effect1_dropShadow_6662_23235" result="shape"/>
</filter>
<linearGradient id="paint0_linear_6662_23235" x1="14" y1="19" x2="14" y2="35" gradientUnits="userSpaceOnUse">
<stop stop-color="#33628D"/>
<stop offset="1" stop-color="#003B70"/>
</linearGradient>
</defs>
</svg>
